<svg width="916" height="710" xmlns="http://www.w3.org/2000/svg" xmlns:xlink="http://www.w3.org/1999/xlink" xml:space="preserve" overflow="hidden"><g transform="translate(-2775 -796)"><path d="M2777.47 805.117 3681.27 805.117 3681.27 938.951 2777.47 938.951Z" fill="#006F7F" fill-rule="evenodd"/><path d="M2777.47 938.951 3031.59 938.951 3031.59 1072.78 2777.47 1072.78Z" fill="#E7EBEC" fill-rule="evenodd"/><path d="M3031.59 938.951 3681.27 938.951 3681.27 1072.78 3031.59 1072.78Z" fill="#E7EBEC" fill-rule="evenodd"/><path d="M2777.47 1072.78 3031.59 1072.78 3031.59 1206.62 2777.47 1206.62Z" fill="#E7EBEC" fill-rule="evenodd"/><path d="M3031.59 1072.78 3681.27 1072.78 3681.27 1206.62 3031.59 1206.62Z" fill="#E7EBEC" fill-rule="evenodd"/><path d="M2777.47 1206.62 3031.59 1206.62 3031.59 1340.45 2777.47 1340.45Z" fill="#E7EBEC" fill-rule="evenodd"/><path d="M3031.59 1206.62 3681.27 1206.62 3681.27 1340.45 3031.59 1340.45Z" fill="#E7EBEC" fill-rule="evenodd"/><path d="M2777.47 1340.45 3031.59 1340.45 3031.59 1474.28 2777.47 1474.28Z" fill="#E7EBEC" fill-rule="evenodd"/><path d="M3031.59 1340.45 3681.27 1340.45 3681.27 1474.28 3031.59 1474.28Z" fill="#E7EBEC" fill-rule="evenodd"/><path d="M3031.59 932.076 3031.59 1474.28" stroke="#000000" stroke-width="4.58333" stroke-linejoin="round" stroke-miterlimit="10" fill="none" fill-rule="evenodd"/><path d="M2775.18 938.951 3683.56 938.951" stroke="#FFFFFF" stroke-width="13.75" stroke-linejoin="round" stroke-miterlimit="10" fill="none" fill-rule="evenodd"/><path d="M2777.47 802.826 2777.47 1072.78" stroke="#FFFFFF" stroke-width="4.58333" stroke-linejoin="round" stroke-miterlimit="10" fill="none" fill-rule="evenodd"/><path d="M3681.27 802.826 3681.27 938.951" stroke="#FFFFFF" stroke-width="4.58333" stroke-linejoin="round" stroke-miterlimit="10" fill="none" fill-rule="evenodd"/><path d="M3681.27 938.951 3681.27 1072.78" stroke="#FFFFFF" stroke-width="4.58333" stroke-linejoin="round" stroke-miterlimit="10" fill="none" fill-rule="evenodd"/><path d="M2775.18 805.117 3683.56 805.117" stroke="#FFFFFF" stroke-width="4.58333" stroke-linejoin="round" stroke-miterlimit="10" fill="none" fill-rule="evenodd"/><text fill="#FFFFFF" font-family="Calibri,Calibri_MSFontService,sans-serif" font-weight="700" font-size="83" transform="matrix(1 0 0 1 3021.29 899)">Studierende</text><g><text font-family="Calibri,Calibri_MSFontService,sans-serif" font-weight="700" font-size="83" transform="matrix(1 0 0 1 3064.59 1032)">I</text></g><text font-family="Calibri,Calibri_MSFontService,sans-serif" font-weight="700" font-size="83" transform="matrix(1 0 0 1 3086.36 1032)">D</text><text font-family="Calibri,Calibri_MSFontService,sans-serif" font-style="italic" font-weight="400" font-size="83" transform="matrix(1 0 0 1 2861.85 1032)">PK</text><g><text font-family="Calibri,Calibri_MSFontService,sans-serif" font-weight="700" font-size="83" transform="matrix(1 0 0 1 3064.59 1166)">Name</text></g><g><text font-family="Calibri,Calibri_MSFontService,sans-serif" font-weight="700" font-size="83" transform="matrix(1 0 0 1 3064.59 1300)">Vorname</text></g><g><text font-family="Calibri,Calibri_MSFontService,sans-serif" font-weight="700" font-size="83" transform="matrix(1 0 0 1 3064.59 1434)">Klasse</text></g></g></svg>