<svg width="3609" height="1927" xmlns="http://www.w3.org/2000/svg" xmlns:xlink="http://www.w3.org/1999/xlink" xml:space="preserve" overflow="hidden"><defs><clipPath id="clip0"><rect x="568" y="-15" width="3609" height="1927"/></clipPath><clipPath id="clip1"><rect x="3451" y="-169" width="455" height="694"/></clipPath><clipPath id="clip2"><rect x="2884" y="-169" width="568" height="694"/></clipPath><clipPath id="clip3"><rect x="618" y="931" width="454" height="694"/></clipPath><clipPath id="clip4"><rect x="618" y="-169" width="568" height="694"/></clipPath></defs><g clip-path="url(#clip0)" transform="translate(-568 15)"><path d="M2884.24 111.596 3451.93 111.596 3451.93 245.43 2884.24 245.43Z" fill="#006F7F" fill-rule="evenodd"/><path d="M3451.93 111.596 3905.27 111.596 3905.27 245.43 3451.93 245.43Z" fill="#006F7F" fill-rule="evenodd"/><path d="M3905.27 111.596 4167.6 111.596 4167.6 245.43 3905.27 245.43Z" fill="#006F7F" fill-rule="evenodd"/><path d="M2884.24 245.43 3451.93 245.43 3451.93 379.263 2884.24 379.263Z" fill="#CBD5D8" fill-rule="evenodd"/><path d="M3451.93 245.43 3905.27 245.43 3905.27 379.263 3451.93 379.263Z" fill="#CBD5D8" fill-rule="evenodd"/><path d="M3905.27 245.43 4167.6 245.43 4167.6 379.263 3905.27 379.263Z" fill="#CBD5D8" fill-rule="evenodd"/><path d="M2884.24 379.263 3451.93 379.263 3451.93 513.096 2884.24 513.096Z" fill="#E7EBEC" fill-rule="evenodd"/><path d="M3451.93 379.263 3905.27 379.263 3905.27 513.096 3451.93 513.096Z" fill="#E7EBEC" fill-rule="evenodd"/><path d="M3905.27 379.263 4167.6 379.263 4167.6 513.096 3905.27 513.096Z" fill="#E7EBEC" fill-rule="evenodd"/><path d="M2884.24 513.096 3451.93 513.096 3451.93 646.93 2884.24 646.93Z" fill="#CBD5D8" fill-rule="evenodd"/><path d="M3451.93 513.096 3905.27 513.096 3905.27 646.93 3451.93 646.93Z" fill="#CBD5D8" fill-rule="evenodd"/><path d="M3905.27 513.096 4167.6 513.096 4167.6 646.93 3905.27 646.93Z" fill="#CBD5D8" fill-rule="evenodd"/><path d="M2884.24 646.93 3451.93 646.93 3451.93 780.763 2884.24 780.763Z" fill="#E7EBEC" fill-rule="evenodd"/><path d="M3451.93 646.93 3905.27 646.93 3905.27 780.763 3451.93 780.763Z" fill="#E7EBEC" fill-rule="evenodd"/><path d="M3905.27 646.93 4167.6 646.93 4167.6 780.763 3905.27 780.763Z" fill="#E7EBEC" fill-rule="evenodd"/><path d="M2884.24 780.763 3451.93 780.763 3451.93 914.596 2884.24 914.596Z" fill="#CBD5D8" fill-rule="evenodd"/><path d="M3451.93 780.763 3905.27 780.763 3905.27 914.596 3451.93 914.596Z" fill="#CBD5D8" fill-rule="evenodd"/><path d="M3905.27 780.763 4167.6 780.763 4167.6 914.596 3905.27 914.596Z" fill="#CBD5D8" fill-rule="evenodd"/><path d="M2884.24 914.596 3451.93 914.596 3451.93 1048.43 2884.24 1048.43Z" fill="#E7EBEC" fill-rule="evenodd"/><path d="M3451.93 914.596 3905.27 914.596 3905.27 1048.43 3451.93 1048.43Z" fill="#E7EBEC" fill-rule="evenodd"/><path d="M3905.27 914.596 4167.6 914.596 4167.6 1048.43 3905.27 1048.43Z" fill="#E7EBEC" fill-rule="evenodd"/><path d="M2884.24 1048.43 3451.93 1048.43 3451.93 1182.26 2884.24 1182.26Z" fill="#CBD5D8" fill-rule="evenodd"/><path d="M3451.93 1048.43 3905.27 1048.43 3905.27 1182.26 3451.93 1182.26Z" fill="#CBD5D8" fill-rule="evenodd"/><path d="M3905.27 1048.43 4167.6 1048.43 4167.6 1182.26 3905.27 1182.26Z" fill="#CBD5D8" fill-rule="evenodd"/><path d="M2884.24 1182.26 3451.93 1182.26 3451.93 1316.1 2884.24 1316.1Z" fill="#E7EBEC" fill-rule="evenodd"/><path d="M3451.93 1182.26 3905.27 1182.26 3905.27 1316.1 3451.93 1316.1Z" fill="#E7EBEC" fill-rule="evenodd"/><path d="M3905.27 1182.26 4167.6 1182.26 4167.6 1316.1 3905.27 1316.1Z" fill="#E7EBEC" fill-rule="evenodd"/><path d="M2884.24 1316.1 3451.93 1316.1 3451.93 1449.93 2884.24 1449.93Z" fill="#CBD5D8" fill-rule="evenodd"/><path d="M3451.93 1316.1 3905.27 1316.1 3905.27 1449.93 3451.93 1449.93Z" fill="#CBD5D8" fill-rule="evenodd"/><path d="M3905.27 1316.1 4167.6 1316.1 4167.6 1449.93 3905.27 1449.93Z" fill="#CBD5D8" fill-rule="evenodd"/><path d="M3451.93 109.305 3451.93 245.43" stroke="#FFFFFF" stroke-width="4.58333" stroke-linejoin="round" stroke-miterlimit="10" fill="none" fill-rule="evenodd"/><path d="M3451.93 245.43 3451.93 1452.22" stroke="#FFFFFF" stroke-width="4.58333" stroke-linejoin="round" stroke-miterlimit="10" fill="none" fill-rule="evenodd"/><path d="M3905.27 109.305 3905.27 245.43" stroke="#FFFFFF" stroke-width="4.58333" stroke-linejoin="round" stroke-miterlimit="10" fill="none" fill-rule="evenodd"/><path d="M3905.27 245.43 3905.27 1452.22" stroke="#FFFFFF" stroke-width="4.58333" stroke-linejoin="round" stroke-miterlimit="10" fill="none" fill-rule="evenodd"/><path d="M2881.95 245.43 4169.89 245.43" stroke="#FFFFFF" stroke-width="13.75" stroke-linejoin="round" stroke-miterlimit="10" fill="none" fill-rule="evenodd"/><path d="M2881.95 379.263 4169.89 379.263" stroke="#FFFFFF" stroke-width="4.58333" stroke-linejoin="round" stroke-miterlimit="10" fill="none" fill-rule="evenodd"/><path d="M2884.24 513.096 4167.6 513.096" stroke="#FFFFFF" stroke-width="4.58333" stroke-linejoin="round" stroke-miterlimit="10" fill="none" fill-rule="evenodd"/><path d="M2884.24 646.93 4167.6 646.93" stroke="#FFFFFF" stroke-width="4.58333" stroke-linejoin="round" stroke-miterlimit="10" fill="none" fill-rule="evenodd"/><path d="M2884.24 780.763 4167.6 780.763" stroke="#FFFFFF" stroke-width="4.58333" stroke-linejoin="round" stroke-miterlimit="10" fill="none" fill-rule="evenodd"/><path d="M2884.24 914.596 4167.6 914.596" stroke="#FFFFFF" stroke-width="4.58333" stroke-linejoin="round" stroke-miterlimit="10" fill="none" fill-rule="evenodd"/><path d="M2884.24 1048.43 4167.6 1048.43" stroke="#FFFFFF" stroke-width="4.58333" stroke-linejoin="round" stroke-miterlimit="10" fill="none" fill-rule="evenodd"/><path d="M2884.24 1182.26 4167.6 1182.26" stroke="#FFFFFF" stroke-width="4.58333" stroke-linejoin="round" stroke-miterlimit="10" fill="none" fill-rule="evenodd"/><path d="M2881.95 1316.1 4169.89 1316.1" stroke="#FFFFFF" stroke-width="4.58333" stroke-linejoin="round" stroke-miterlimit="10" fill="none" fill-rule="evenodd"/><path d="M2884.24 109.305 2884.24 381.555" stroke="#FFFFFF" stroke-width="4.58333" stroke-linejoin="round" stroke-miterlimit="10" fill="none" fill-rule="evenodd"/><path d="M2884.24 1313.8 2884.24 1452.22" stroke="#FFFFFF" stroke-width="4.58333" stroke-linejoin="round" stroke-miterlimit="10" fill="none" fill-rule="evenodd"/><path d="M4167.6 109.305 4167.6 381.555" stroke="#FFFFFF" stroke-width="4.58333" stroke-linejoin="round" stroke-miterlimit="10" fill="none" fill-rule="evenodd"/><path d="M4167.6 1313.8 4167.6 1452.22" stroke="#FFFFFF" stroke-width="4.58333" stroke-linejoin="round" stroke-miterlimit="10" fill="none" fill-rule="evenodd"/><path d="M2881.95 111.596 4169.89 111.596" stroke="#FFFFFF" stroke-width="4.58333" stroke-linejoin="round" stroke-miterlimit="10" fill="none" fill-rule="evenodd"/><path d="M2881.95 1449.93 4169.89 1449.93" stroke="#FFFFFF" stroke-width="4.58333" stroke-linejoin="round" stroke-miterlimit="10" fill="none" fill-rule="evenodd"/><g><text fill="#FFFFFF" font-family="Calibri,Calibri_MSFontService,sans-serif" font-weight="700" font-size="83" transform="matrix(1 0 0 1 3938.27 205)">Note</text></g><g clip-path="url(#clip1)"><path d="" fill="#FFFFFF" transform="matrix(1 0 0 1 3484.93 206)"/><path d="M80.2847 17.4673 80.2847 8.71338 71.5308 8.71338 71.5308 0 62.8174 0 62.8174-8.75391 57.9237-8.75391 48.1465-18.6426C45.8073-17.8861 43.2-17.5078 40.3247-17.5078 36.177-17.5078 32.2899-18.2928 28.6636-19.8628 25.0372-21.4328 21.8677-23.5673 19.1549-26.2661 16.4421-28.965 14.3006-32.1279 12.7303-35.7549 11.1601-39.3819 10.375-43.2693 10.375-47.417 10.375-50.1745 10.729-52.8304 11.4369-55.3847 12.1449-57.939 13.1503-60.3248 14.4531-62.5422 15.7558-64.7596 17.3163-66.7773 19.1343-68.5954 20.9523-70.4134 22.97-71.9737 25.1874-73.2763 27.4048-74.5788 29.7981-75.5862 32.3674-76.2984 34.9367-77.0106 37.5891-77.3667 40.3247-77.3667 43.0611-77.3667 45.7103-77.0027 48.2722-76.2747 50.8341-75.5467 53.2251-74.5374 55.4452-73.2468 57.6653-71.9563 59.6851-70.3944 61.5044-68.5612 63.3237-66.7279 64.8843-64.7101 66.1862-62.5077 67.4882-60.3053 68.495-57.9201 69.2068-55.3521 69.9185-52.7841 70.2744-50.1391 70.2744-47.417 70.2744-44.5733 69.8961-41.9601 69.1396-39.5775L105.25-3.55944 105.25 17.4673Z" transform="matrix(1 0 0 1 3484.93 206)"/><path d="M62.4121-38.0229C68.4579-32.1021 74.5473-26.0684 80.6804-19.9217 86.8136-13.7751 93.0579-7.51001 99.4136-1.12653L99.4136 5.83594 96.4551 5.39014 99.4136 11.6313 86.1206 11.6313 86.1206 2.87744 77.3667 2.87744 77.3667-5.83594 68.6128-5.83594 68.6128-14.5898 60.356-14.5898 49.7144-25.3701C48.5112-24.6925 47.0761-24.1787 45.409-23.8285 43.7419-23.4783 42.0471-23.3032 40.3247-23.3032 36.9871-23.3032 33.8562-23.9398 30.9319-25.2131 28.0076-26.4863 25.4596-28.2087 23.288-30.3803 21.1164-32.5519 19.394-35.0999 18.1208-38.0245 16.8476-40.949 16.2109-44.0798 16.2109-47.417 16.2109-50.7449 16.8404-53.8776 18.0993-56.8152 19.3581-59.7528 21.0741-62.3081 23.2472-64.4812 25.4202-66.6543 27.9806-68.3725 30.9284-69.6358 33.8761-70.8991 37.0082-71.5308 40.3247-71.5308 43.6175-71.5308 46.7414-70.8905 49.6963-69.6101 52.6512-68.3297 55.2155-66.6027 57.3892-64.429 59.5629-62.2553 61.288-59.6957 62.5644-56.7503 63.8408-53.8049 64.479-50.6938 64.479-47.417 64.479-45.7317 64.2957-44.05 63.929-42.372 63.5624-40.6939 63.0567-39.2442 62.4121-38.0229ZM34.4888-48.2275C35.1942-48.2275 35.8431-48.3585 36.4353-48.6205 37.0276-48.8824 37.5558-49.2454 38.0197-49.7093 38.4837-50.1733 38.8487-50.7061 39.1149-51.3079 39.3811-51.9097 39.5142-52.558 39.5142-53.2529 39.5142-53.9394 39.3811-54.5835 39.1149-55.1853 38.8487-55.787 38.4837-56.3199 38.0197-56.7839 37.5558-57.2478 37.0229-57.6129 36.4211-57.8791 35.8193-58.1452 35.1752-58.2783 34.4888-58.2783 33.8044-58.2783 33.1652-58.1469 32.571-57.8841 31.9768-57.6213 31.4485-57.2587 30.986-56.7962 30.5235-56.3337 30.1609-55.8054 29.8981-55.2112 29.6353-54.617 29.5039-53.9643 29.5039-53.2529 29.5039-52.5331 29.6353-51.8762 29.8981-51.282 30.1609-50.6878 30.5235-50.1594 30.986-49.697 31.4485-49.2345 31.972-48.874 32.5564-48.6154 33.1409-48.3568 33.785-48.2275 34.4888-48.2275Z" fill="#EBA300" transform="matrix(1 0 0 1 3484.93 206)"/><path d="M59.3536-34.9346 99.4136 4.66761 99.4136 11.6313 55.9683-30.9566C57.0549-32.2754 58.1833-33.6014 59.3536-34.9346Z" fill="#D48C00" transform="matrix(1 0 0 1 3484.93 206)"/><path d="M34.4888-46.6064C33.5541-46.6064 32.6852-46.7841 31.882-47.1393 31.0789-47.4946 30.3824-47.9671 29.7927-48.5568 29.2029-49.1466 28.7304-49.843 28.3752-50.6462 28.0199-51.4494 27.8423-52.3183 27.8423-53.2529 27.8423-54.1791 28.0199-55.0438 28.3752-55.847 28.7304-56.6502 29.2029-57.3466 29.7927-57.9364 30.3824-58.5261 31.0836-59.0007 31.8963-59.3602 32.7089-59.7197 33.5731-59.8994 34.4888-59.8994 35.4065-59.8994 36.2756-59.718 37.0958-59.3551 37.9161-58.9923 38.6218-58.5153 39.2131-57.924 39.8043-57.3328 40.2792-56.6318 40.6378-55.821 40.9965-55.0103 41.1758-54.1542 41.1758-53.2529 41.1758-52.3432 40.9965-51.4829 40.6378-50.6722 40.2792-49.8614 39.8043-49.1604 39.2131-48.5692 38.6218-47.9779 37.9208-47.503 37.1101-47.1444 36.2993-46.7858 35.4255-46.6064 34.4888-46.6064Z" transform="matrix(1 0 0 1 3484.93 206)"/><text fill="#000000" fill-opacity="0" font-family="Arial,Arial_MSFontService,sans-serif" font-size="13.293" x="27.8423" y="-48.2681">🔑</text></g><text fill="#FFFFFF" font-family="Calibri,Calibri_MSFontService,sans-serif" font-weight="700" font-size="83" transform="matrix(1 0 0 1 3614.98 206)">FachNr</text><g clip-path="url(#clip2)"><path d="" fill="#FFFFFF" transform="matrix(1 0 0 1 2917.24 206)"/><path d="M80.2847 17.4673 80.2847 8.71338 71.5308 8.71338 71.5308 0 62.8174 0 62.8174-8.75391 57.9237-8.75391 48.1465-18.6426C45.8073-17.8861 43.2-17.5078 40.3247-17.5078 36.177-17.5078 32.2899-18.2928 28.6636-19.8628 25.0372-21.4328 21.8677-23.5673 19.1549-26.2661 16.4421-28.965 14.3006-32.1279 12.7303-35.7549 11.1601-39.3819 10.375-43.2693 10.375-47.417 10.375-50.1745 10.729-52.8304 11.4369-55.3847 12.1449-57.939 13.1503-60.3248 14.4531-62.5422 15.7558-64.7596 17.3163-66.7773 19.1343-68.5954 20.9523-70.4134 22.97-71.9737 25.1874-73.2763 27.4048-74.5788 29.7981-75.5862 32.3674-76.2984 34.9367-77.0106 37.5891-77.3667 40.3247-77.3667 43.0611-77.3667 45.7103-77.0027 48.2722-76.2747 50.8341-75.5467 53.2251-74.5374 55.4452-73.2468 57.6653-71.9563 59.6851-70.3944 61.5044-68.5612 63.3237-66.7279 64.8843-64.7101 66.1862-62.5077 67.4882-60.3053 68.495-57.9201 69.2068-55.3521 69.9185-52.7841 70.2744-50.1391 70.2744-47.417 70.2744-44.5733 69.8961-41.9601 69.1396-39.5775L105.25-3.55944 105.25 17.4673Z" transform="matrix(1 0 0 1 2917.24 206)"/><path d="M62.4121-38.0229C68.4579-32.1021 74.5473-26.0684 80.6804-19.9217 86.8136-13.7751 93.0579-7.51001 99.4136-1.12653L99.4136 5.83594 96.4551 5.39014 99.4136 11.6313 86.1206 11.6313 86.1206 2.87744 77.3667 2.87744 77.3667-5.83594 68.6128-5.83594 68.6128-14.5898 60.356-14.5898 49.7144-25.3701C48.5112-24.6925 47.0761-24.1787 45.409-23.8285 43.7419-23.4783 42.0471-23.3032 40.3247-23.3032 36.9871-23.3032 33.8562-23.9398 30.9319-25.2131 28.0076-26.4863 25.4596-28.2087 23.288-30.3803 21.1164-32.5519 19.394-35.0999 18.1208-38.0245 16.8476-40.949 16.2109-44.0798 16.2109-47.417 16.2109-50.7449 16.8404-53.8776 18.0993-56.8152 19.3581-59.7528 21.0741-62.3081 23.2472-64.4812 25.4202-66.6543 27.9806-68.3725 30.9284-69.6358 33.8761-70.8991 37.0082-71.5308 40.3247-71.5308 43.6175-71.5308 46.7414-70.8905 49.6963-69.6101 52.6512-68.3297 55.2155-66.6027 57.3892-64.429 59.5629-62.2553 61.288-59.6957 62.5644-56.7503 63.8408-53.8049 64.479-50.6938 64.479-47.417 64.479-45.7317 64.2957-44.05 63.929-42.372 63.5624-40.6939 63.0567-39.2442 62.4121-38.0229ZM34.4888-48.2275C35.1942-48.2275 35.8431-48.3585 36.4353-48.6205 37.0276-48.8824 37.5558-49.2454 38.0197-49.7093 38.4837-50.1733 38.8487-50.7061 39.1149-51.3079 39.3811-51.9097 39.5142-52.558 39.5142-53.2529 39.5142-53.9394 39.3811-54.5835 39.1149-55.1853 38.8487-55.787 38.4837-56.3199 38.0197-56.7839 37.5558-57.2478 37.0229-57.6129 36.4211-57.8791 35.8193-58.1452 35.1752-58.2783 34.4888-58.2783 33.8044-58.2783 33.1652-58.1469 32.571-57.8841 31.9768-57.6213 31.4485-57.2587 30.986-56.7962 30.5235-56.3337 30.1609-55.8054 29.8981-55.2112 29.6353-54.617 29.5039-53.9643 29.5039-53.2529 29.5039-52.5331 29.6353-51.8762 29.8981-51.282 30.1609-50.6878 30.5235-50.1594 30.986-49.697 31.4485-49.2345 31.972-48.874 32.5564-48.6154 33.1409-48.3568 33.785-48.2275 34.4888-48.2275Z" fill="#EBA300" transform="matrix(1 0 0 1 2917.24 206)"/><path d="M59.3536-34.9346 99.4136 4.66761 99.4136 11.6313 55.9683-30.9566C57.0549-32.2754 58.1833-33.6014 59.3536-34.9346Z" fill="#D48C00" transform="matrix(1 0 0 1 2917.24 206)"/><path d="M34.4888-46.6064C33.5541-46.6064 32.6852-46.7841 31.882-47.1393 31.0789-47.4946 30.3824-47.9671 29.7927-48.5568 29.2029-49.1466 28.7304-49.843 28.3752-50.6462 28.0199-51.4494 27.8423-52.3183 27.8423-53.2529 27.8423-54.1791 28.0199-55.0438 28.3752-55.847 28.7304-56.6502 29.2029-57.3466 29.7927-57.9364 30.3824-58.5261 31.0836-59.0007 31.8963-59.3602 32.7089-59.7197 33.5731-59.8994 34.4888-59.8994 35.4065-59.8994 36.2756-59.718 37.0958-59.3551 37.9161-58.9923 38.6218-58.5153 39.2131-57.924 39.8043-57.3328 40.2792-56.6318 40.6378-55.821 40.9965-55.0103 41.1758-54.1542 41.1758-53.2529 41.1758-52.3432 40.9965-51.4829 40.6378-50.6722 40.2792-49.8614 39.8043-49.1604 39.2131-48.5692 38.6218-47.9779 37.9208-47.503 37.1101-47.1444 36.2993-46.7858 35.4255-46.6064 34.4888-46.6064Z" transform="matrix(1 0 0 1 2917.24 206)"/><text fill="#000000" fill-opacity="0" font-family="Arial,Arial_MSFontService,sans-serif" font-size="13.293" x="27.8423" y="-48.2681">🔑</text></g><text fill="#FFFFFF" font-family="Calibri,Calibri_MSFontService,sans-serif" font-weight="700" font-size="83" transform="matrix(1 0 0 1 3047.29 206)">StudentNr</text><g><text font-family="Calibri,Calibri_MSFontService,sans-serif" font-weight="400" font-size="83" transform="matrix(1 0 0 1 3938.27 339)">5.5</text></g><g><text font-family="Calibri,Calibri_MSFontService,sans-serif" font-weight="400" font-size="83" transform="matrix(1 0 0 1 3484.93 339)">2</text></g><g><text font-family="Calibri,Calibri_MSFontService,sans-serif" font-weight="400" font-size="83" transform="matrix(1 0 0 1 2917.24 339)">1</text></g><g><text font-family="Calibri,Calibri_MSFontService,sans-serif" font-weight="400" font-size="83" transform="matrix(1 0 0 1 3938.27 473)">5</text></g><g><text font-family="Calibri,Calibri_MSFontService,sans-serif" font-weight="400" font-size="83" transform="matrix(1 0 0 1 3484.93 473)">3</text></g><g><text font-family="Calibri,Calibri_MSFontService,sans-serif" font-weight="400" font-size="83" transform="matrix(1 0 0 1 2917.24 473)">2</text></g><g><text font-family="Calibri,Calibri_MSFontService,sans-serif" font-weight="400" font-size="83" transform="matrix(1 0 0 1 3938.27 607)">5.5</text></g><g><text font-family="Calibri,Calibri_MSFontService,sans-serif" font-weight="400" font-size="83" transform="matrix(1 0 0 1 3484.93 607)">1</text></g><g><text font-family="Calibri,Calibri_MSFontService,sans-serif" font-weight="400" font-size="83" transform="matrix(1 0 0 1 2917.24 607)">3</text></g><g><text font-family="Calibri,Calibri_MSFontService,sans-serif" font-weight="400" font-size="83" transform="matrix(1 0 0 1 3938.27 740)">4.5</text></g><g><text font-family="Calibri,Calibri_MSFontService,sans-serif" font-weight="400" font-size="83" transform="matrix(1 0 0 1 3484.93 740)">2</text></g><g><text font-family="Calibri,Calibri_MSFontService,sans-serif" font-weight="400" font-size="83" transform="matrix(1 0 0 1 2917.24 740)">3</text></g><g><text font-family="Calibri,Calibri_MSFontService,sans-serif" font-weight="400" font-size="83" transform="matrix(1 0 0 1 3938.27 874)">4.5</text></g><g><text font-family="Calibri,Calibri_MSFontService,sans-serif" font-weight="400" font-size="83" transform="matrix(1 0 0 1 3484.93 874)">3</text></g><g><text font-family="Calibri,Calibri_MSFontService,sans-serif" font-weight="400" font-size="83" transform="matrix(1 0 0 1 2917.24 874)">3</text></g><g><text font-family="Calibri,Calibri_MSFontService,sans-serif" font-weight="400" font-size="83" transform="matrix(1 0 0 1 3938.27 1008)">5</text></g><g><text font-family="Calibri,Calibri_MSFontService,sans-serif" font-weight="400" font-size="83" transform="matrix(1 0 0 1 3484.93 1008)">2</text></g><g><text font-family="Calibri,Calibri_MSFontService,sans-serif" font-weight="400" font-size="83" transform="matrix(1 0 0 1 2917.24 1008)">4</text></g><g><text font-family="Calibri,Calibri_MSFontService,sans-serif" font-weight="400" font-size="83" transform="matrix(1 0 0 1 3938.27 1142)">5</text></g><g><text font-family="Calibri,Calibri_MSFontService,sans-serif" font-weight="400" font-size="83" transform="matrix(1 0 0 1 3484.93 1142)">1</text></g><g><text font-family="Calibri,Calibri_MSFontService,sans-serif" font-weight="400" font-size="83" transform="matrix(1 0 0 1 2917.24 1142)">5</text></g><g><text font-family="Calibri,Calibri_MSFontService,sans-serif" font-weight="400" font-size="83" transform="matrix(1 0 0 1 3938.27 1276)">4</text></g><g><text font-family="Calibri,Calibri_MSFontService,sans-serif" font-weight="400" font-size="83" transform="matrix(1 0 0 1 3484.93 1276)">2</text></g><g><text font-family="Calibri,Calibri_MSFontService,sans-serif" font-weight="400" font-size="83" transform="matrix(1 0 0 1 2917.24 1276)">5</text></g><g><text font-family="Calibri,Calibri_MSFontService,sans-serif" font-weight="400" font-size="83" transform="matrix(1 0 0 1 3938.27 1410)">…</text></g><g><text font-family="Calibri,Calibri_MSFontService,sans-serif" font-weight="400" font-size="83" transform="matrix(1 0 0 1 3484.93 1410)">…</text></g><g><text font-family="Calibri,Calibri_MSFontService,sans-serif" font-weight="400" font-size="83" transform="matrix(1 0 0 1 2917.24 1410)">…</text></g><path d="M618.022 1211.51 1071.36 1211.51 1071.36 1345.35 618.022 1345.35Z" fill="#006F7F" fill-rule="evenodd"/><path d="M1071.36 1211.51 1615.97 1211.51 1615.97 1345.35 1071.36 1345.35Z" fill="#006F7F" fill-rule="evenodd"/><path d="M618.022 1345.35 1071.36 1345.35 1071.36 1479.18 618.022 1479.18Z" fill="#CBD5D8" fill-rule="evenodd"/><path d="M1071.36 1345.35 1615.97 1345.35 1615.97 1479.18 1071.36 1479.18Z" fill="#CBD5D8" fill-rule="evenodd"/><path d="M618.022 1479.18 1071.36 1479.18 1071.36 1613.01 618.022 1613.01Z" fill="#E7EBEC" fill-rule="evenodd"/><path d="M1071.36 1479.18 1615.97 1479.18 1615.97 1613.01 1071.36 1613.01Z" fill="#E7EBEC" fill-rule="evenodd"/><path d="M618.022 1613.01 1071.36 1613.01 1071.36 1746.85 618.022 1746.85Z" fill="#CBD5D8" fill-rule="evenodd"/><path d="M1071.36 1613.01 1615.97 1613.01 1615.97 1746.85 1071.36 1746.85Z" fill="#CBD5D8" fill-rule="evenodd"/><path d="M618.022 1746.85 1071.36 1746.85 1071.36 1880.68 618.022 1880.68Z" fill="#E7EBEC" fill-rule="evenodd"/><path d="M1071.36 1746.85 1615.97 1746.85 1615.97 1880.68 1071.36 1880.68Z" fill="#E7EBEC" fill-rule="evenodd"/><path d="M1071.36 1209.22 1071.36 1345.35" stroke="#FFFFFF" stroke-width="4.58333" stroke-linejoin="round" stroke-miterlimit="10" fill="none" fill-rule="evenodd"/><path d="M1071.36 1345.35 1071.36 1882.97" stroke="#FFFFFF" stroke-width="4.58333" stroke-linejoin="round" stroke-miterlimit="10" fill="none" fill-rule="evenodd"/><path d="M615.731 1345.35 1618.27 1345.35" stroke="#FFFFFF" stroke-width="13.75" stroke-linejoin="round" stroke-miterlimit="10" fill="none" fill-rule="evenodd"/><path d="M618.022 1479.18 1615.97 1479.18" stroke="#FFFFFF" stroke-width="4.58333" stroke-linejoin="round" stroke-miterlimit="10" fill="none" fill-rule="evenodd"/><path d="M618.022 1613.01 1615.97 1613.01" stroke="#FFFFFF" stroke-width="4.58333" stroke-linejoin="round" stroke-miterlimit="10" fill="none" fill-rule="evenodd"/><path d="M615.731 1746.85 1618.27 1746.85" stroke="#FFFFFF" stroke-width="4.58333" stroke-linejoin="round" stroke-miterlimit="10" fill="none" fill-rule="evenodd"/><path d="M618.022 1209.22 618.022 1352.22" stroke="#FFFFFF" stroke-width="4.58333" stroke-linejoin="round" stroke-miterlimit="10" fill="none" fill-rule="evenodd"/><path d="M618.022 1744.55 618.022 1882.97" stroke="#FFFFFF" stroke-width="4.58333" stroke-linejoin="round" stroke-miterlimit="10" fill="none" fill-rule="evenodd"/><path d="M1615.97 1209.22 1615.97 1352.22" stroke="#FFFFFF" stroke-width="4.58333" stroke-linejoin="round" stroke-miterlimit="10" fill="none" fill-rule="evenodd"/><path d="M1615.97 1744.55 1615.97 1882.97" stroke="#FFFFFF" stroke-width="4.58333" stroke-linejoin="round" stroke-miterlimit="10" fill="none" fill-rule="evenodd"/><path d="M615.731 1211.51 1618.27 1211.51" stroke="#FFFFFF" stroke-width="4.58333" stroke-linejoin="round" stroke-miterlimit="10" fill="none" fill-rule="evenodd"/><path d="M615.731 1880.68 1618.27 1880.68" stroke="#FFFFFF" stroke-width="4.58333" stroke-linejoin="round" stroke-miterlimit="10" fill="none" fill-rule="evenodd"/><g><text fill="#FFFFFF" font-family="Calibri,Calibri_MSFontService,sans-serif" font-weight="700" font-size="83" transform="matrix(1 0 0 1 1104.36 1305)">Beschreibung</text></g><g clip-path="url(#clip3)"><path d="" fill="#FFFFFF" transform="matrix(1 0 0 1 651.022 1306)"/><path d="M80.2847 17.4673 80.2847 8.71338 71.5308 8.71338 71.5308 0 62.8174 0 62.8174-8.75391 57.9237-8.75391 48.1465-18.6426C45.8073-17.8861 43.2-17.5078 40.3247-17.5078 36.177-17.5078 32.2899-18.2928 28.6636-19.8628 25.0372-21.4328 21.8677-23.5673 19.1549-26.2661 16.4421-28.965 14.3006-32.1279 12.7303-35.7549 11.1601-39.3819 10.375-43.2693 10.375-47.417 10.375-50.1745 10.729-52.8304 11.4369-55.3847 12.1449-57.939 13.1503-60.3248 14.4531-62.5422 15.7558-64.7596 17.3163-66.7773 19.1343-68.5954 20.9523-70.4134 22.97-71.9737 25.1874-73.2763 27.4048-74.5788 29.7981-75.5862 32.3674-76.2984 34.9367-77.0106 37.5891-77.3667 40.3247-77.3667 43.0611-77.3667 45.7103-77.0027 48.2722-76.2747 50.8341-75.5467 53.2251-74.5374 55.4452-73.2468 57.6653-71.9563 59.6851-70.3944 61.5044-68.5612 63.3237-66.7279 64.8843-64.7101 66.1862-62.5077 67.4882-60.3053 68.495-57.9201 69.2068-55.3521 69.9185-52.7841 70.2744-50.1391 70.2744-47.417 70.2744-44.5733 69.8961-41.9601 69.1396-39.5775L105.25-3.55944 105.25 17.4673Z" transform="matrix(1 0 0 1 651.022 1306)"/><path d="M62.4121-38.0229C68.4579-32.1021 74.5473-26.0684 80.6804-19.9217 86.8136-13.7751 93.0579-7.51001 99.4136-1.12653L99.4136 5.83594 96.4551 5.39014 99.4136 11.6313 86.1206 11.6313 86.1206 2.87744 77.3667 2.87744 77.3667-5.83594 68.6128-5.83594 68.6128-14.5898 60.356-14.5898 49.7144-25.3701C48.5112-24.6925 47.0761-24.1787 45.409-23.8285 43.7419-23.4783 42.0471-23.3032 40.3247-23.3032 36.9871-23.3032 33.8562-23.9398 30.9319-25.2131 28.0076-26.4863 25.4596-28.2087 23.288-30.3803 21.1164-32.5519 19.394-35.0999 18.1208-38.0245 16.8476-40.949 16.2109-44.0798 16.2109-47.417 16.2109-50.7449 16.8404-53.8776 18.0993-56.8152 19.3581-59.7528 21.0741-62.3081 23.2472-64.4812 25.4202-66.6543 27.9806-68.3725 30.9284-69.6358 33.8761-70.8991 37.0082-71.5308 40.3247-71.5308 43.6175-71.5308 46.7414-70.8905 49.6963-69.6101 52.6512-68.3297 55.2155-66.6027 57.3892-64.429 59.5629-62.2553 61.288-59.6957 62.5644-56.7503 63.8408-53.8049 64.479-50.6938 64.479-47.417 64.479-45.7317 64.2957-44.05 63.929-42.372 63.5624-40.6939 63.0567-39.2442 62.4121-38.0229ZM34.4888-48.2275C35.1942-48.2275 35.8431-48.3585 36.4353-48.6205 37.0276-48.8824 37.5558-49.2454 38.0197-49.7093 38.4837-50.1733 38.8487-50.7061 39.1149-51.3079 39.3811-51.9097 39.5142-52.558 39.5142-53.2529 39.5142-53.9394 39.3811-54.5835 39.1149-55.1853 38.8487-55.787 38.4837-56.3199 38.0197-56.7839 37.5558-57.2478 37.0229-57.6129 36.4211-57.8791 35.8193-58.1452 35.1752-58.2783 34.4888-58.2783 33.8044-58.2783 33.1652-58.1469 32.571-57.8841 31.9768-57.6213 31.4485-57.2587 30.986-56.7962 30.5235-56.3337 30.1609-55.8054 29.8981-55.2112 29.6353-54.617 29.5039-53.9643 29.5039-53.2529 29.5039-52.5331 29.6353-51.8762 29.8981-51.282 30.1609-50.6878 30.5235-50.1594 30.986-49.697 31.4485-49.2345 31.972-48.874 32.5564-48.6154 33.1409-48.3568 33.785-48.2275 34.4888-48.2275Z" fill="#EBA300" transform="matrix(1 0 0 1 651.022 1306)"/><path d="M59.3536-34.9346 99.4136 4.66761 99.4136 11.6313 55.9683-30.9566C57.0549-32.2754 58.1833-33.6014 59.3536-34.9346Z" fill="#D48C00" transform="matrix(1 0 0 1 651.022 1306)"/><path d="M34.4888-46.6064C33.5541-46.6064 32.6852-46.7841 31.882-47.1393 31.0789-47.4946 30.3824-47.9671 29.7927-48.5568 29.2029-49.1466 28.7304-49.843 28.3752-50.6462 28.0199-51.4494 27.8423-52.3183 27.8423-53.2529 27.8423-54.1791 28.0199-55.0438 28.3752-55.847 28.7304-56.6502 29.2029-57.3466 29.7927-57.9364 30.3824-58.5261 31.0836-59.0007 31.8963-59.3602 32.7089-59.7197 33.5731-59.8994 34.4888-59.8994 35.4065-59.8994 36.2756-59.718 37.0958-59.3551 37.9161-58.9923 38.6218-58.5153 39.2131-57.924 39.8043-57.3328 40.2792-56.6318 40.6378-55.821 40.9965-55.0103 41.1758-54.1542 41.1758-53.2529 41.1758-52.3432 40.9965-51.4829 40.6378-50.6722 40.2792-49.8614 39.8043-49.1604 39.2131-48.5692 38.6218-47.9779 37.9208-47.503 37.1101-47.1444 36.2993-46.7858 35.4255-46.6064 34.4888-46.6064Z" transform="matrix(1 0 0 1 651.022 1306)"/><text fill="#000000" fill-opacity="0" font-family="Arial,Arial_MSFontService,sans-serif" font-size="13.293" x="27.8423" y="-48.2681">🔑</text></g><text fill="#FFFFFF" font-family="Calibri,Calibri_MSFontService,sans-serif" font-weight="700" font-size="83" transform="matrix(1 0 0 1 781.074 1306)">FachNr</text><g><text font-family="Calibri,Calibri_MSFontService,sans-serif" font-weight="400" font-size="83" transform="matrix(1 0 0 1 1104.36 1439)">Elektronik</text></g><g><text font-family="Calibri,Calibri_MSFontService,sans-serif" font-weight="400" font-size="83" transform="matrix(1 0 0 1 651.022 1439)">1</text></g><g><text font-family="Calibri,Calibri_MSFontService,sans-serif" font-weight="400" font-size="83" transform="matrix(1 0 0 1 1104.36 1573)">Englisch</text></g><g><text font-family="Calibri,Calibri_MSFontService,sans-serif" font-weight="400" font-size="83" transform="matrix(1 0 0 1 651.022 1573)">2</text></g><g><text font-family="Calibri,Calibri_MSFontService,sans-serif" font-weight="400" font-size="83" transform="matrix(1 0 0 1 1104.36 1707)">Musik</text></g><g><text font-family="Calibri,Calibri_MSFontService,sans-serif" font-weight="400" font-size="83" transform="matrix(1 0 0 1 651.022 1707)">3</text></g><g><text font-family="Calibri,Calibri_MSFontService,sans-serif" font-weight="400" font-size="83" transform="matrix(1 0 0 1 1104.36 1840)">…</text></g><g><text font-family="Calibri,Calibri_MSFontService,sans-serif" font-weight="400" font-size="83" transform="matrix(1 0 0 1 651.022 1840)">…</text></g><path d="M618.022 111.596 1185.71 111.596 1185.71 245.43 618.022 245.43Z" fill="#006F7F" fill-rule="evenodd"/><path d="M1185.71 111.596 1542.76 111.596 1542.76 245.43 1185.71 245.43Z" fill="#006F7F" fill-rule="evenodd"/><path d="M1542.76 111.596 1938.94 111.596 1938.94 245.43 1542.76 245.43Z" fill="#006F7F" fill-rule="evenodd"/><path d="M1938.94 111.596 2236.4 111.596 2236.4 245.43 1938.94 245.43Z" fill="#006F7F" fill-rule="evenodd"/><path d="M2236.4 111.596 2782.16 111.596 2782.16 245.43 2236.4 245.43Z" fill="#006F7F" fill-rule="evenodd"/><path d="M618.022 245.43 1185.71 245.43 1185.71 379.263 618.022 379.263Z" fill="#CBD5D8" fill-rule="evenodd"/><path d="M1185.71 245.43 1542.76 245.43 1542.76 379.263 1185.71 379.263Z" fill="#CBD5D8" fill-rule="evenodd"/><path d="M1542.76 245.43 1938.94 245.43 1938.94 379.263 1542.76 379.263Z" fill="#CBD5D8" fill-rule="evenodd"/><path d="M1938.94 245.43 2236.4 245.43 2236.4 379.263 1938.94 379.263Z" fill="#CBD5D8" fill-rule="evenodd"/><path d="M2236.4 245.43 2782.16 245.43 2782.16 379.263 2236.4 379.263Z" fill="#CBD5D8" fill-rule="evenodd"/><path d="M618.022 379.263 1185.71 379.263 1185.71 513.096 618.022 513.096Z" fill="#E7EBEC" fill-rule="evenodd"/><path d="M1185.71 379.263 1542.76 379.263 1542.76 513.096 1185.71 513.096Z" fill="#E7EBEC" fill-rule="evenodd"/><path d="M1542.76 379.263 1938.94 379.263 1938.94 513.096 1542.76 513.096Z" fill="#E7EBEC" fill-rule="evenodd"/><path d="M1938.94 379.263 2236.4 379.263 2236.4 513.096 1938.94 513.096Z" fill="#E7EBEC" fill-rule="evenodd"/><path d="M2236.4 379.263 2782.16 379.263 2782.16 513.096 2236.4 513.096Z" fill="#E7EBEC" fill-rule="evenodd"/><path d="M618.022 513.096 1185.71 513.096 1185.71 646.93 618.022 646.93Z" fill="#CBD5D8" fill-rule="evenodd"/><path d="M1185.71 513.096 1542.76 513.096 1542.76 646.93 1185.71 646.93Z" fill="#CBD5D8" fill-rule="evenodd"/><path d="M1542.76 513.096 1938.94 513.096 1938.94 646.93 1542.76 646.93Z" fill="#CBD5D8" fill-rule="evenodd"/><path d="M1938.94 513.096 2236.4 513.096 2236.4 646.93 1938.94 646.93Z" fill="#CBD5D8" fill-rule="evenodd"/><path d="M2236.4 513.096 2782.16 513.096 2782.16 646.93 2236.4 646.93Z" fill="#CBD5D8" fill-rule="evenodd"/><path d="M618.022 646.93 1185.71 646.93 1185.71 780.763 618.022 780.763Z" fill="#E7EBEC" fill-rule="evenodd"/><path d="M1185.71 646.93 1542.76 646.93 1542.76 780.763 1185.71 780.763Z" fill="#E7EBEC" fill-rule="evenodd"/><path d="M1542.76 646.93 1938.94 646.93 1938.94 780.763 1542.76 780.763Z" fill="#E7EBEC" fill-rule="evenodd"/><path d="M1938.94 646.93 2236.4 646.93 2236.4 780.763 1938.94 780.763Z" fill="#E7EBEC" fill-rule="evenodd"/><path d="M2236.4 646.93 2782.16 646.93 2782.16 780.763 2236.4 780.763Z" fill="#E7EBEC" fill-rule="evenodd"/><path d="M618.022 780.763 1185.71 780.763 1185.71 914.596 618.022 914.596Z" fill="#CBD5D8" fill-rule="evenodd"/><path d="M1185.71 780.763 1542.76 780.763 1542.76 914.596 1185.71 914.596Z" fill="#CBD5D8" fill-rule="evenodd"/><path d="M1542.76 780.763 1938.94 780.763 1938.94 914.596 1542.76 914.596Z" fill="#CBD5D8" fill-rule="evenodd"/><path d="M1938.94 780.763 2236.4 780.763 2236.4 914.596 1938.94 914.596Z" fill="#CBD5D8" fill-rule="evenodd"/><path d="M2236.4 780.763 2782.16 780.763 2782.16 914.596 2236.4 914.596Z" fill="#CBD5D8" fill-rule="evenodd"/><path d="M618.022 914.596 1185.71 914.596 1185.71 1048.43 618.022 1048.43Z" fill="#E7EBEC" fill-rule="evenodd"/><path d="M1185.71 914.596 1542.76 914.596 1542.76 1048.43 1185.71 1048.43Z" fill="#E7EBEC" fill-rule="evenodd"/><path d="M1542.76 914.596 1938.94 914.596 1938.94 1048.43 1542.76 1048.43Z" fill="#E7EBEC" fill-rule="evenodd"/><path d="M1938.94 914.596 2236.4 914.596 2236.4 1048.43 1938.94 1048.43Z" fill="#E7EBEC" fill-rule="evenodd"/><path d="M2236.4 914.596 2782.16 914.596 2782.16 1048.43 2236.4 1048.43Z" fill="#E7EBEC" fill-rule="evenodd"/><path d="M1185.71 109.305 1185.71 245.43" stroke="#FFFFFF" stroke-width="4.58333" stroke-linejoin="round" stroke-miterlimit="10" fill="none" fill-rule="evenodd"/><path d="M1185.71 245.43 1185.71 1050.72" stroke="#FFFFFF" stroke-width="4.58333" stroke-linejoin="round" stroke-miterlimit="10" fill="none" fill-rule="evenodd"/><path d="M1542.76 109.305 1542.76 245.43" stroke="#FFFFFF" stroke-width="4.58333" stroke-linejoin="round" stroke-miterlimit="10" fill="none" fill-rule="evenodd"/><path d="M1542.76 245.43 1542.76 1050.72" stroke="#FFFFFF" stroke-width="4.58333" stroke-linejoin="round" stroke-miterlimit="10" fill="none" fill-rule="evenodd"/><path d="M1938.94 109.305 1938.94 245.43" stroke="#FFFFFF" stroke-width="4.58333" stroke-linejoin="round" stroke-miterlimit="10" fill="none" fill-rule="evenodd"/><path d="M1938.94 245.43 1938.94 1050.72" stroke="#FFFFFF" stroke-width="4.58333" stroke-linejoin="round" stroke-miterlimit="10" fill="none" fill-rule="evenodd"/><path d="M2236.4 109.305 2236.4 245.43" stroke="#FFFFFF" stroke-width="4.58333" stroke-linejoin="round" stroke-miterlimit="10" fill="none" fill-rule="evenodd"/><path d="M2236.4 245.43 2236.4 1050.72" stroke="#FFFFFF" stroke-width="4.58333" stroke-linejoin="round" stroke-miterlimit="10" fill="none" fill-rule="evenodd"/><path d="M615.731 245.43 2784.45 245.43" stroke="#FFFFFF" stroke-width="13.75" stroke-linejoin="round" stroke-miterlimit="10" fill="none" fill-rule="evenodd"/><path d="M615.731 379.263 2784.45 379.263" stroke="#FFFFFF" stroke-width="4.58333" stroke-linejoin="round" stroke-miterlimit="10" fill="none" fill-rule="evenodd"/><path d="M618.022 513.096 2784.45 513.096" stroke="#FFFFFF" stroke-width="4.58333" stroke-linejoin="round" stroke-miterlimit="10" fill="none" fill-rule="evenodd"/><path d="M618.022 646.93 2782.16 646.93" stroke="#FFFFFF" stroke-width="4.58333" stroke-linejoin="round" stroke-miterlimit="10" fill="none" fill-rule="evenodd"/><path d="M618.022 780.763 2782.16 780.763" stroke="#FFFFFF" stroke-width="4.58333" stroke-linejoin="round" stroke-miterlimit="10" fill="none" fill-rule="evenodd"/><path d="M615.731 914.596 2784.45 914.596" stroke="#FFFFFF" stroke-width="4.58333" stroke-linejoin="round" stroke-miterlimit="10" fill="none" fill-rule="evenodd"/><path d="M618.022 109.305 618.022 381.555" stroke="#FFFFFF" stroke-width="4.58333" stroke-linejoin="round" stroke-miterlimit="10" fill="none" fill-rule="evenodd"/><path d="M618.022 912.305 618.022 1050.72" stroke="#FFFFFF" stroke-width="4.58333" stroke-linejoin="round" stroke-miterlimit="10" fill="none" fill-rule="evenodd"/><path d="M2782.16 109.305 2782.16 515.388" stroke="#FFFFFF" stroke-width="4.58333" stroke-linejoin="round" stroke-miterlimit="10" fill="none" fill-rule="evenodd"/><path d="M2782.16 912.305 2782.16 1050.72" stroke="#FFFFFF" stroke-width="4.58333" stroke-linejoin="round" stroke-miterlimit="10" fill="none" fill-rule="evenodd"/><path d="M615.731 111.596 2784.45 111.596" stroke="#FFFFFF" stroke-width="4.58333" stroke-linejoin="round" stroke-miterlimit="10" fill="none" fill-rule="evenodd"/><path d="M615.731 1048.43 2784.45 1048.43" stroke="#FFFFFF" stroke-width="4.58333" stroke-linejoin="round" stroke-miterlimit="10" fill="none" fill-rule="evenodd"/><g><text fill="#FFFFFF" font-family="Calibri,Calibri_MSFontService,sans-serif" font-weight="700" font-size="83" transform="matrix(1 0 0 1 2269.4 205)">Klassenlehrer</text></g><g><text fill="#FFFFFF" font-family="Calibri,Calibri_MSFontService,sans-serif" font-weight="700" font-size="83" transform="matrix(1 0 0 1 1971.94 205)">Klasse</text></g><g><text fill="#FFFFFF" font-family="Calibri,Calibri_MSFontService,sans-serif" font-weight="700" font-size="83" transform="matrix(1 0 0 1 1575.76 205)">Vorname</text></g><g><text fill="#FFFFFF" font-family="Calibri,Calibri_MSFontService,sans-serif" font-weight="700" font-size="83" transform="matrix(1 0 0 1 1218.71 205)">Name</text></g><g clip-path="url(#clip4)"><path d="" fill="#FFFFFF" transform="matrix(1 0 0 1 651.022 206)"/><path d="M80.2847 17.4673 80.2847 8.71338 71.5308 8.71338 71.5308 0 62.8174 0 62.8174-8.75391 57.9237-8.75391 48.1465-18.6426C45.8073-17.8861 43.2-17.5078 40.3247-17.5078 36.177-17.5078 32.2899-18.2928 28.6636-19.8628 25.0372-21.4328 21.8677-23.5673 19.1549-26.2661 16.4421-28.965 14.3006-32.1279 12.7303-35.7549 11.1601-39.3819 10.375-43.2693 10.375-47.417 10.375-50.1745 10.729-52.8304 11.4369-55.3847 12.1449-57.939 13.1503-60.3248 14.4531-62.5422 15.7558-64.7596 17.3163-66.7773 19.1343-68.5954 20.9523-70.4134 22.97-71.9737 25.1874-73.2763 27.4048-74.5788 29.7981-75.5862 32.3674-76.2984 34.9367-77.0106 37.5891-77.3667 40.3247-77.3667 43.0611-77.3667 45.7103-77.0027 48.2722-76.2747 50.8341-75.5467 53.2251-74.5374 55.4452-73.2468 57.6653-71.9563 59.6851-70.3944 61.5044-68.5612 63.3237-66.7279 64.8843-64.7101 66.1862-62.5077 67.4882-60.3053 68.495-57.9201 69.2068-55.3521 69.9185-52.7841 70.2744-50.1391 70.2744-47.417 70.2744-44.5733 69.8961-41.9601 69.1396-39.5775L105.25-3.55944 105.25 17.4673Z" transform="matrix(1 0 0 1 651.022 206)"/><path d="M62.4121-38.0229C68.4579-32.1021 74.5473-26.0684 80.6804-19.9217 86.8136-13.7751 93.0579-7.51001 99.4136-1.12653L99.4136 5.83594 96.4551 5.39014 99.4136 11.6313 86.1206 11.6313 86.1206 2.87744 77.3667 2.87744 77.3667-5.83594 68.6128-5.83594 68.6128-14.5898 60.356-14.5898 49.7144-25.3701C48.5112-24.6925 47.0761-24.1787 45.409-23.8285 43.7419-23.4783 42.0471-23.3032 40.3247-23.3032 36.9871-23.3032 33.8562-23.9398 30.9319-25.2131 28.0076-26.4863 25.4596-28.2087 23.288-30.3803 21.1164-32.5519 19.394-35.0999 18.1208-38.0245 16.8476-40.949 16.2109-44.0798 16.2109-47.417 16.2109-50.7449 16.8404-53.8776 18.0993-56.8152 19.3581-59.7528 21.0741-62.3081 23.2472-64.4812 25.4202-66.6543 27.9806-68.3725 30.9284-69.6358 33.8761-70.8991 37.0082-71.5308 40.3247-71.5308 43.6175-71.5308 46.7414-70.8905 49.6963-69.6101 52.6512-68.3297 55.2155-66.6027 57.3892-64.429 59.5629-62.2553 61.288-59.6957 62.5644-56.7503 63.8408-53.8049 64.479-50.6938 64.479-47.417 64.479-45.7317 64.2957-44.05 63.929-42.372 63.5624-40.6939 63.0567-39.2442 62.4121-38.0229ZM34.4888-48.2275C35.1942-48.2275 35.8431-48.3585 36.4353-48.6205 37.0276-48.8824 37.5558-49.2454 38.0197-49.7093 38.4837-50.1733 38.8487-50.7061 39.1149-51.3079 39.3811-51.9097 39.5142-52.558 39.5142-53.2529 39.5142-53.9394 39.3811-54.5835 39.1149-55.1853 38.8487-55.787 38.4837-56.3199 38.0197-56.7839 37.5558-57.2478 37.0229-57.6129 36.4211-57.8791 35.8193-58.1452 35.1752-58.2783 34.4888-58.2783 33.8044-58.2783 33.1652-58.1469 32.571-57.8841 31.9768-57.6213 31.4485-57.2587 30.986-56.7962 30.5235-56.3337 30.1609-55.8054 29.8981-55.2112 29.6353-54.617 29.5039-53.9643 29.5039-53.2529 29.5039-52.5331 29.6353-51.8762 29.8981-51.282 30.1609-50.6878 30.5235-50.1594 30.986-49.697 31.4485-49.2345 31.972-48.874 32.5564-48.6154 33.1409-48.3568 33.785-48.2275 34.4888-48.2275Z" fill="#EBA300" transform="matrix(1 0 0 1 651.022 206)"/><path d="M59.3536-34.9346 99.4136 4.66761 99.4136 11.6313 55.9683-30.9566C57.0549-32.2754 58.1833-33.6014 59.3536-34.9346Z" fill="#D48C00" transform="matrix(1 0 0 1 651.022 206)"/><path d="M34.4888-46.6064C33.5541-46.6064 32.6852-46.7841 31.882-47.1393 31.0789-47.4946 30.3824-47.9671 29.7927-48.5568 29.2029-49.1466 28.7304-49.843 28.3752-50.6462 28.0199-51.4494 27.8423-52.3183 27.8423-53.2529 27.8423-54.1791 28.0199-55.0438 28.3752-55.847 28.7304-56.6502 29.2029-57.3466 29.7927-57.9364 30.3824-58.5261 31.0836-59.0007 31.8963-59.3602 32.7089-59.7197 33.5731-59.8994 34.4888-59.8994 35.4065-59.8994 36.2756-59.718 37.0958-59.3551 37.9161-58.9923 38.6218-58.5153 39.2131-57.924 39.8043-57.3328 40.2792-56.6318 40.6378-55.821 40.9965-55.0103 41.1758-54.1542 41.1758-53.2529 41.1758-52.3432 40.9965-51.4829 40.6378-50.6722 40.2792-49.8614 39.8043-49.1604 39.2131-48.5692 38.6218-47.9779 37.9208-47.503 37.1101-47.1444 36.2993-46.7858 35.4255-46.6064 34.4888-46.6064Z" transform="matrix(1 0 0 1 651.022 206)"/><text fill="#000000" fill-opacity="0" font-family="Arial,Arial_MSFontService,sans-serif" font-size="13.293" x="27.8423" y="-48.2681">🔑</text></g><text fill="#FFFFFF" font-family="Calibri,Calibri_MSFontService,sans-serif" font-weight="700" font-size="83" transform="matrix(1 0 0 1 781.074 206)">StudentNr</text><g><text font-family="Calibri,Calibri_MSFontService,sans-serif" font-weight="400" font-size="83" transform="matrix(1 0 0 1 2269.4 339)">Lempel</text></g><g><text font-family="Calibri,Calibri_MSFontService,sans-serif" font-weight="400" font-size="83" transform="matrix(1 0 0 1 1971.94 339)">11a</text></g><g><text font-family="Calibri,Calibri_MSFontService,sans-serif" font-weight="400" font-size="83" transform="matrix(1 0 0 1 1575.76 339)">Ina</text></g><g><text font-family="Calibri,Calibri_MSFontService,sans-serif" font-weight="400" font-size="83" transform="matrix(1 0 0 1 1218.71 339)">Jürgens</text></g><g><text font-family="Calibri,Calibri_MSFontService,sans-serif" font-weight="400" font-size="83" transform="matrix(1 0 0 1 651.022 339)">1</text></g><g><text font-family="Calibri,Calibri_MSFontService,sans-serif" font-weight="400" font-size="83" transform="matrix(1 0 0 1 2269.4 473)">Breier</text></g><g><text font-family="Calibri,Calibri_MSFontService,sans-serif" font-weight="400" font-size="83" transform="matrix(1 0 0 1 1971.94 473)">12a</text></g><g><text font-family="Calibri,Calibri_MSFontService,sans-serif" font-weight="400" font-size="83" transform="matrix(1 0 0 1 1575.76 473)">Tom</text></g><g><text font-family="Calibri,Calibri_MSFontService,sans-serif" font-weight="400" font-size="83" transform="matrix(1 0 0 1 1218.71 473)">Schmidt</text></g><g><text font-family="Calibri,Calibri_MSFontService,sans-serif" font-weight="400" font-size="83" transform="matrix(1 0 0 1 651.022 473)">2</text></g><g><text font-family="Calibri,Calibri_MSFontService,sans-serif" font-weight="400" font-size="83" transform="matrix(1 0 0 1 2269.4 607)">Lempel</text></g><g><text font-family="Calibri,Calibri_MSFontService,sans-serif" font-weight="400" font-size="83" transform="matrix(1 0 0 1 1971.94 607)">11a</text></g><g><text font-family="Calibri,Calibri_MSFontService,sans-serif" font-weight="400" font-size="83" transform="matrix(1 0 0 1 1575.76 607)">Franz</text></g><g><text font-family="Calibri,Calibri_MSFontService,sans-serif" font-weight="400" font-size="83" transform="matrix(1 0 0 1 1218.71 607)">Jäger</text></g><g><text font-family="Calibri,Calibri_MSFontService,sans-serif" font-weight="400" font-size="83" transform="matrix(1 0 0 1 651.022 607)">3</text></g><g><text font-family="Calibri,Calibri_MSFontService,sans-serif" font-weight="400" font-size="83" transform="matrix(1 0 0 1 2269.4 740)">Sommer</text></g><g><text font-family="Calibri,Calibri_MSFontService,sans-serif" font-weight="400" font-size="83" transform="matrix(1 0 0 1 1971.94 740)">11b</text></g><g><text font-family="Calibri,Calibri_MSFontService,sans-serif" font-weight="400" font-size="83" transform="matrix(1 0 0 1 1575.76 740)">Ina</text></g><g><text font-family="Calibri,Calibri_MSFontService,sans-serif" font-weight="400" font-size="83" transform="matrix(1 0 0 1 1218.71 740)">Olsen</text></g><g><text font-family="Calibri,Calibri_MSFontService,sans-serif" font-weight="400" font-size="83" transform="matrix(1 0 0 1 651.022 740)">4</text></g><g><text font-family="Calibri,Calibri_MSFontService,sans-serif" font-weight="400" font-size="83" transform="matrix(1 0 0 1 2269.4 874)">Breier</text></g><g><text font-family="Calibri,Calibri_MSFontService,sans-serif" font-weight="400" font-size="83" transform="matrix(1 0 0 1 1971.94 874)">12a</text></g><g><text font-family="Calibri,Calibri_MSFontService,sans-serif" font-weight="400" font-size="83" transform="matrix(1 0 0 1 1575.76 874)">Paula</text></g><g><text font-family="Calibri,Calibri_MSFontService,sans-serif" font-weight="400" font-size="83" transform="matrix(1 0 0 1 1218.71 874)">Jürgens</text></g><g><text font-family="Calibri,Calibri_MSFontService,sans-serif" font-weight="400" font-size="83" transform="matrix(1 0 0 1 651.022 874)">5</text></g><g><text font-family="Calibri,Calibri_MSFontService,sans-serif" font-weight="400" font-size="83" transform="matrix(1 0 0 1 2269.4 1008)">…</text></g><g><text font-family="Calibri,Calibri_MSFontService,sans-serif" font-weight="400" font-size="83" transform="matrix(1 0 0 1 1971.94 1008)">…</text></g><g><text font-family="Calibri,Calibri_MSFontService,sans-serif" font-weight="400" font-size="83" transform="matrix(1 0 0 1 1575.76 1008)">…</text></g><g><text font-family="Calibri,Calibri_MSFontService,sans-serif" font-weight="400" font-size="83" transform="matrix(1 0 0 1 1218.71 1008)">…</text></g><g><text font-family="Calibri,Calibri_MSFontService,sans-serif" font-weight="400" font-size="83" transform="matrix(1 0 0 1 651.022 1008)">…</text></g><text font-family="Calibri,Calibri_MSFontService,sans-serif" font-weight="400" font-size="83" transform="matrix(1 0 0 1 618.022 1189)">Tabelle </text><text font-family="Calibri,Calibri_MSFontService,sans-serif" font-weight="700" font-size="83" transform="matrix(1 0 0 1 875.079 1189)">Fächer</text><text font-family="Calibri,Calibri_MSFontService,sans-serif" font-weight="400" font-size="83" transform="matrix(1 0 0 1 2884.24 89)">Tabelle </text><text font-family="Calibri,Calibri_MSFontService,sans-serif" font-weight="700" font-size="83" transform="matrix(1 0 0 1 3141.29 89)">Noten</text><text font-family="Calibri,Calibri_MSFontService,sans-serif" font-weight="400" font-size="83" transform="matrix(1 0 0 1 618.022 89)">Tabelle </text><text font-family="Calibri,Calibri_MSFontService,sans-serif" font-weight="700" font-size="83" transform="matrix(1 0 0 1 875.079 89)">Schüler</text></g></svg>