<svg width="3498" height="1916" xmlns="http://www.w3.org/2000/svg" xmlns:xlink="http://www.w3.org/1999/xlink" xml:space="preserve" overflow="hidden"><defs><clipPath id="clip0"><rect x="293" y="48" width="3498" height="1916"/></clipPath><clipPath id="clip1"><rect x="3065" y="-109" width="454" height="694"/></clipPath><clipPath id="clip2"><rect x="2497" y="-109" width="569" height="694"/></clipPath><clipPath id="clip3"><rect x="343" y="982" width="454" height="694"/></clipPath><clipPath id="clip4"><rect x="343" y="-109" width="569" height="694"/></clipPath><clipPath id="clip5"><rect x="1446" y="982" width="409" height="694"/></clipPath></defs><g clip-path="url(#clip0)" transform="translate(-293 -48)"><path d="M2497.88 172.027 3065.57 172.027 3065.57 305.861 2497.88 305.861Z" fill="#006F7F" fill-rule="evenodd"/><path d="M3065.57 172.027 3518.91 172.027 3518.91 305.861 3065.57 305.861Z" fill="#006F7F" fill-rule="evenodd"/><path d="M3518.91 172.027 3781.23 172.027 3781.23 305.861 3518.91 305.861Z" fill="#006F7F" fill-rule="evenodd"/><path d="M2497.88 305.861 3065.57 305.861 3065.57 439.694 2497.88 439.694Z" fill="#CBD5D8" fill-rule="evenodd"/><path d="M3065.57 305.861 3518.91 305.861 3518.91 439.694 3065.57 439.694Z" fill="#CBD5D8" fill-rule="evenodd"/><path d="M3518.91 305.861 3781.23 305.861 3781.23 439.694 3518.91 439.694Z" fill="#CBD5D8" fill-rule="evenodd"/><path d="M2497.88 439.694 3065.57 439.694 3065.57 573.527 2497.88 573.527Z" fill="#E7EBEC" fill-rule="evenodd"/><path d="M3065.57 439.694 3518.91 439.694 3518.91 573.527 3065.57 573.527Z" fill="#E7EBEC" fill-rule="evenodd"/><path d="M3518.91 439.694 3781.23 439.694 3781.23 573.527 3518.91 573.527Z" fill="#E7EBEC" fill-rule="evenodd"/><path d="M2497.88 573.527 3065.57 573.527 3065.57 707.361 2497.88 707.361Z" fill="#CBD5D8" fill-rule="evenodd"/><path d="M3065.57 573.527 3518.91 573.527 3518.91 707.361 3065.57 707.361Z" fill="#CBD5D8" fill-rule="evenodd"/><path d="M3518.91 573.527 3781.23 573.527 3781.23 707.361 3518.91 707.361Z" fill="#CBD5D8" fill-rule="evenodd"/><path d="M2497.88 707.361 3065.57 707.361 3065.57 841.194 2497.88 841.194Z" fill="#E7EBEC" fill-rule="evenodd"/><path d="M3065.57 707.361 3518.91 707.361 3518.91 841.194 3065.57 841.194Z" fill="#E7EBEC" fill-rule="evenodd"/><path d="M3518.91 707.361 3781.23 707.361 3781.23 841.194 3518.91 841.194Z" fill="#E7EBEC" fill-rule="evenodd"/><path d="M2497.88 841.194 3065.57 841.194 3065.57 975.027 2497.88 975.027Z" fill="#CBD5D8" fill-rule="evenodd"/><path d="M3065.57 841.194 3518.91 841.194 3518.91 975.027 3065.57 975.027Z" fill="#CBD5D8" fill-rule="evenodd"/><path d="M3518.91 841.194 3781.23 841.194 3781.23 975.027 3518.91 975.027Z" fill="#CBD5D8" fill-rule="evenodd"/><path d="M2497.88 975.027 3065.57 975.027 3065.57 1108.86 2497.88 1108.86Z" fill="#E7EBEC" fill-rule="evenodd"/><path d="M3065.57 975.027 3518.91 975.027 3518.91 1108.86 3065.57 1108.86Z" fill="#E7EBEC" fill-rule="evenodd"/><path d="M3518.91 975.027 3781.23 975.027 3781.23 1108.86 3518.91 1108.86Z" fill="#E7EBEC" fill-rule="evenodd"/><path d="M2497.88 1108.86 3065.57 1108.86 3065.57 1242.69 2497.88 1242.69Z" fill="#CBD5D8" fill-rule="evenodd"/><path d="M3065.57 1108.86 3518.91 1108.86 3518.91 1242.69 3065.57 1242.69Z" fill="#CBD5D8" fill-rule="evenodd"/><path d="M3518.91 1108.86 3781.23 1108.86 3781.23 1242.69 3518.91 1242.69Z" fill="#CBD5D8" fill-rule="evenodd"/><path d="M2497.88 1242.69 3065.57 1242.69 3065.57 1376.53 2497.88 1376.53Z" fill="#E7EBEC" fill-rule="evenodd"/><path d="M3065.57 1242.69 3518.91 1242.69 3518.91 1376.53 3065.57 1376.53Z" fill="#E7EBEC" fill-rule="evenodd"/><path d="M3518.91 1242.69 3781.23 1242.69 3781.23 1376.53 3518.91 1376.53Z" fill="#E7EBEC" fill-rule="evenodd"/><path d="M2497.88 1376.53 3065.57 1376.53 3065.57 1510.36 2497.88 1510.36Z" fill="#CBD5D8" fill-rule="evenodd"/><path d="M3065.57 1376.53 3518.91 1376.53 3518.91 1510.36 3065.57 1510.36Z" fill="#CBD5D8" fill-rule="evenodd"/><path d="M3518.91 1376.53 3781.23 1376.53 3781.23 1510.36 3518.91 1510.36Z" fill="#CBD5D8" fill-rule="evenodd"/><path d="M3065.57 169.736 3065.57 305.861" stroke="#FFFFFF" stroke-width="4.58333" stroke-linejoin="round" stroke-miterlimit="10" fill="none" fill-rule="evenodd"/><path d="M3065.57 305.861 3065.57 1512.65" stroke="#FFFFFF" stroke-width="4.58333" stroke-linejoin="round" stroke-miterlimit="10" fill="none" fill-rule="evenodd"/><path d="M3518.91 169.736 3518.91 305.861" stroke="#FFFFFF" stroke-width="4.58333" stroke-linejoin="round" stroke-miterlimit="10" fill="none" fill-rule="evenodd"/><path d="M3518.91 305.861 3518.91 1512.65" stroke="#FFFFFF" stroke-width="4.58333" stroke-linejoin="round" stroke-miterlimit="10" fill="none" fill-rule="evenodd"/><path d="M2495.58 305.861 3783.53 305.861" stroke="#FFFFFF" stroke-width="13.75" stroke-linejoin="round" stroke-miterlimit="10" fill="none" fill-rule="evenodd"/><path d="M2495.58 439.694 3783.53 439.694" stroke="#FFFFFF" stroke-width="4.58333" stroke-linejoin="round" stroke-miterlimit="10" fill="none" fill-rule="evenodd"/><path d="M2497.88 573.527 3781.23 573.527" stroke="#FFFFFF" stroke-width="4.58333" stroke-linejoin="round" stroke-miterlimit="10" fill="none" fill-rule="evenodd"/><path d="M2497.88 707.361 3781.23 707.361" stroke="#FFFFFF" stroke-width="4.58333" stroke-linejoin="round" stroke-miterlimit="10" fill="none" fill-rule="evenodd"/><path d="M2497.88 841.194 3781.23 841.194" stroke="#FFFFFF" stroke-width="4.58333" stroke-linejoin="round" stroke-miterlimit="10" fill="none" fill-rule="evenodd"/><path d="M2497.88 975.027 3781.23 975.027" stroke="#FFFFFF" stroke-width="4.58333" stroke-linejoin="round" stroke-miterlimit="10" fill="none" fill-rule="evenodd"/><path d="M2497.88 1108.86 3781.23 1108.86" stroke="#FFFFFF" stroke-width="4.58333" stroke-linejoin="round" stroke-miterlimit="10" fill="none" fill-rule="evenodd"/><path d="M2497.88 1242.69 3781.23 1242.69" stroke="#FFFFFF" stroke-width="4.58333" stroke-linejoin="round" stroke-miterlimit="10" fill="none" fill-rule="evenodd"/><path d="M2495.58 1376.53 3783.53 1376.53" stroke="#FFFFFF" stroke-width="4.58333" stroke-linejoin="round" stroke-miterlimit="10" fill="none" fill-rule="evenodd"/><path d="M2497.88 169.736 2497.88 441.986" stroke="#FFFFFF" stroke-width="4.58333" stroke-linejoin="round" stroke-miterlimit="10" fill="none" fill-rule="evenodd"/><path d="M2497.88 1374.24 2497.88 1512.65" stroke="#FFFFFF" stroke-width="4.58333" stroke-linejoin="round" stroke-miterlimit="10" fill="none" fill-rule="evenodd"/><path d="M3781.23 169.736 3781.23 441.986" stroke="#FFFFFF" stroke-width="4.58333" stroke-linejoin="round" stroke-miterlimit="10" fill="none" fill-rule="evenodd"/><path d="M3781.23 1374.24 3781.23 1512.65" stroke="#FFFFFF" stroke-width="4.58333" stroke-linejoin="round" stroke-miterlimit="10" fill="none" fill-rule="evenodd"/><path d="M2495.58 172.027 3783.53 172.027" stroke="#FFFFFF" stroke-width="4.58333" stroke-linejoin="round" stroke-miterlimit="10" fill="none" fill-rule="evenodd"/><path d="M2495.58 1510.36 3783.53 1510.36" stroke="#FFFFFF" stroke-width="4.58333" stroke-linejoin="round" stroke-miterlimit="10" fill="none" fill-rule="evenodd"/><g><text fill="#FFFFFF" font-family="Calibri,Calibri_MSFontService,sans-serif" font-weight="700" font-size="83" transform="matrix(1 0 0 1 3551.9 266)">Note</text></g><g clip-path="url(#clip1)"><path d="" fill="#FFFFFF" transform="matrix(1 0 0 1 3098.57 267)"/><path d="M80.2847 17.4673 80.2847 8.71338 71.5308 8.71338 71.5308 0 62.8174 0 62.8174-8.75391 57.9237-8.75391 48.1465-18.6426C45.8073-17.8861 43.2-17.5078 40.3247-17.5078 36.177-17.5078 32.2899-18.2928 28.6636-19.8628 25.0372-21.4328 21.8677-23.5673 19.1549-26.2661 16.4421-28.965 14.3006-32.1279 12.7303-35.7549 11.1601-39.3819 10.375-43.2693 10.375-47.417 10.375-50.1745 10.729-52.8304 11.4369-55.3847 12.1449-57.939 13.1503-60.3248 14.4531-62.5422 15.7558-64.7596 17.3163-66.7773 19.1343-68.5954 20.9523-70.4134 22.97-71.9737 25.1874-73.2763 27.4048-74.5788 29.7981-75.5862 32.3674-76.2984 34.9367-77.0106 37.5891-77.3667 40.3247-77.3667 43.0611-77.3667 45.7103-77.0027 48.2722-76.2747 50.8341-75.5467 53.2251-74.5374 55.4452-73.2468 57.6653-71.9563 59.6851-70.3944 61.5044-68.5612 63.3237-66.7279 64.8843-64.7101 66.1862-62.5077 67.4882-60.3053 68.495-57.9201 69.2068-55.3521 69.9185-52.7841 70.2744-50.1391 70.2744-47.417 70.2744-44.5733 69.8961-41.9601 69.1396-39.5775L105.25-3.55944 105.25 17.4673Z" transform="matrix(1 0 0 1 3098.57 267)"/><path d="M62.4121-38.0229C68.4579-32.1021 74.5473-26.0684 80.6804-19.9217 86.8136-13.7751 93.0579-7.51001 99.4136-1.12653L99.4136 5.83594 96.4551 5.39014 99.4136 11.6313 86.1206 11.6313 86.1206 2.87744 77.3667 2.87744 77.3667-5.83594 68.6128-5.83594 68.6128-14.5898 60.356-14.5898 49.7144-25.3701C48.5112-24.6925 47.0761-24.1787 45.409-23.8285 43.7419-23.4783 42.0471-23.3032 40.3247-23.3032 36.9871-23.3032 33.8562-23.9398 30.9319-25.2131 28.0076-26.4863 25.4596-28.2087 23.288-30.3803 21.1164-32.5519 19.394-35.0999 18.1208-38.0245 16.8476-40.949 16.2109-44.0798 16.2109-47.417 16.2109-50.7449 16.8404-53.8776 18.0993-56.8152 19.3581-59.7528 21.0741-62.3081 23.2472-64.4812 25.4202-66.6543 27.9806-68.3725 30.9284-69.6358 33.8761-70.8991 37.0082-71.5308 40.3247-71.5308 43.6175-71.5308 46.7414-70.8905 49.6963-69.6101 52.6512-68.3297 55.2155-66.6027 57.3892-64.429 59.5629-62.2553 61.288-59.6957 62.5644-56.7503 63.8408-53.8049 64.479-50.6938 64.479-47.417 64.479-45.7317 64.2957-44.05 63.929-42.372 63.5624-40.6939 63.0567-39.2442 62.4121-38.0229ZM34.4888-48.2275C35.1942-48.2275 35.8431-48.3585 36.4353-48.6205 37.0276-48.8824 37.5558-49.2454 38.0197-49.7093 38.4837-50.1733 38.8487-50.7061 39.1149-51.3079 39.3811-51.9097 39.5142-52.558 39.5142-53.2529 39.5142-53.9394 39.3811-54.5835 39.1149-55.1853 38.8487-55.787 38.4837-56.3199 38.0197-56.7839 37.5558-57.2478 37.0229-57.6129 36.4211-57.8791 35.8193-58.1452 35.1752-58.2783 34.4888-58.2783 33.8044-58.2783 33.1652-58.1469 32.571-57.8841 31.9768-57.6213 31.4485-57.2587 30.986-56.7962 30.5235-56.3337 30.1609-55.8054 29.8981-55.2112 29.6353-54.617 29.5039-53.9643 29.5039-53.2529 29.5039-52.5331 29.6353-51.8762 29.8981-51.282 30.1609-50.6878 30.5235-50.1594 30.986-49.697 31.4485-49.2345 31.972-48.874 32.5564-48.6154 33.1409-48.3568 33.785-48.2275 34.4888-48.2275Z" fill="#EBA300" transform="matrix(1 0 0 1 3098.57 267)"/><path d="M59.3536-34.9346 99.4136 4.66761 99.4136 11.6313 55.9683-30.9566C57.0549-32.2754 58.1833-33.6014 59.3536-34.9346Z" fill="#D48C00" transform="matrix(1 0 0 1 3098.57 267)"/><path d="M34.4888-46.6064C33.5541-46.6064 32.6852-46.7841 31.882-47.1393 31.0789-47.4946 30.3824-47.9671 29.7927-48.5568 29.2029-49.1466 28.7304-49.843 28.3752-50.6462 28.0199-51.4494 27.8423-52.3183 27.8423-53.2529 27.8423-54.1791 28.0199-55.0438 28.3752-55.847 28.7304-56.6502 29.2029-57.3466 29.7927-57.9364 30.3824-58.5261 31.0836-59.0007 31.8963-59.3602 32.7089-59.7197 33.5731-59.8994 34.4888-59.8994 35.4065-59.8994 36.2756-59.718 37.0958-59.3551 37.9161-58.9923 38.6218-58.5153 39.2131-57.924 39.8043-57.3328 40.2792-56.6318 40.6378-55.821 40.9965-55.0103 41.1758-54.1542 41.1758-53.2529 41.1758-52.3432 40.9965-51.4829 40.6378-50.6722 40.2792-49.8614 39.8043-49.1604 39.2131-48.5692 38.6218-47.9779 37.9208-47.503 37.1101-47.1444 36.2993-46.7858 35.4255-46.6064 34.4888-46.6064Z" transform="matrix(1 0 0 1 3098.57 267)"/><text fill="#000000" fill-opacity="0" font-family="Arial,Arial_MSFontService,sans-serif" font-size="13.293" x="27.8423" y="-48.2681">🔑</text></g><text fill="#FFFFFF" font-family="Calibri,Calibri_MSFontService,sans-serif" font-weight="700" font-size="83" transform="matrix(1 0 0 1 3228.62 267)">FachNr</text><g clip-path="url(#clip2)"><path d="" fill="#FFFFFF" transform="matrix(1 0 0 1 2530.88 267)"/><path d="M80.2847 17.4673 80.2847 8.71338 71.5308 8.71338 71.5308 0 62.8174 0 62.8174-8.75391 57.9237-8.75391 48.1465-18.6426C45.8073-17.8861 43.2-17.5078 40.3247-17.5078 36.177-17.5078 32.2899-18.2928 28.6636-19.8628 25.0372-21.4328 21.8677-23.5673 19.1549-26.2661 16.4421-28.965 14.3006-32.1279 12.7303-35.7549 11.1601-39.3819 10.375-43.2693 10.375-47.417 10.375-50.1745 10.729-52.8304 11.4369-55.3847 12.1449-57.939 13.1503-60.3248 14.4531-62.5422 15.7558-64.7596 17.3163-66.7773 19.1343-68.5954 20.9523-70.4134 22.97-71.9737 25.1874-73.2763 27.4048-74.5788 29.7981-75.5862 32.3674-76.2984 34.9367-77.0106 37.5891-77.3667 40.3247-77.3667 43.0611-77.3667 45.7103-77.0027 48.2722-76.2747 50.8341-75.5467 53.2251-74.5374 55.4452-73.2468 57.6653-71.9563 59.6851-70.3944 61.5044-68.5612 63.3237-66.7279 64.8843-64.7101 66.1862-62.5077 67.4882-60.3053 68.495-57.9201 69.2068-55.3521 69.9185-52.7841 70.2744-50.1391 70.2744-47.417 70.2744-44.5733 69.8961-41.9601 69.1396-39.5775L105.25-3.55944 105.25 17.4673Z" transform="matrix(1 0 0 1 2530.88 267)"/><path d="M62.4121-38.0229C68.4579-32.1021 74.5473-26.0684 80.6804-19.9217 86.8136-13.7751 93.0579-7.51001 99.4136-1.12653L99.4136 5.83594 96.4551 5.39014 99.4136 11.6313 86.1206 11.6313 86.1206 2.87744 77.3667 2.87744 77.3667-5.83594 68.6128-5.83594 68.6128-14.5898 60.356-14.5898 49.7144-25.3701C48.5112-24.6925 47.0761-24.1787 45.409-23.8285 43.7419-23.4783 42.0471-23.3032 40.3247-23.3032 36.9871-23.3032 33.8562-23.9398 30.9319-25.2131 28.0076-26.4863 25.4596-28.2087 23.288-30.3803 21.1164-32.5519 19.394-35.0999 18.1208-38.0245 16.8476-40.949 16.2109-44.0798 16.2109-47.417 16.2109-50.7449 16.8404-53.8776 18.0993-56.8152 19.3581-59.7528 21.0741-62.3081 23.2472-64.4812 25.4202-66.6543 27.9806-68.3725 30.9284-69.6358 33.8761-70.8991 37.0082-71.5308 40.3247-71.5308 43.6175-71.5308 46.7414-70.8905 49.6963-69.6101 52.6512-68.3297 55.2155-66.6027 57.3892-64.429 59.5629-62.2553 61.288-59.6957 62.5644-56.7503 63.8408-53.8049 64.479-50.6938 64.479-47.417 64.479-45.7317 64.2957-44.05 63.929-42.372 63.5624-40.6939 63.0567-39.2442 62.4121-38.0229ZM34.4888-48.2275C35.1942-48.2275 35.8431-48.3585 36.4353-48.6205 37.0276-48.8824 37.5558-49.2454 38.0197-49.7093 38.4837-50.1733 38.8487-50.7061 39.1149-51.3079 39.3811-51.9097 39.5142-52.558 39.5142-53.2529 39.5142-53.9394 39.3811-54.5835 39.1149-55.1853 38.8487-55.787 38.4837-56.3199 38.0197-56.7839 37.5558-57.2478 37.0229-57.6129 36.4211-57.8791 35.8193-58.1452 35.1752-58.2783 34.4888-58.2783 33.8044-58.2783 33.1652-58.1469 32.571-57.8841 31.9768-57.6213 31.4485-57.2587 30.986-56.7962 30.5235-56.3337 30.1609-55.8054 29.8981-55.2112 29.6353-54.617 29.5039-53.9643 29.5039-53.2529 29.5039-52.5331 29.6353-51.8762 29.8981-51.282 30.1609-50.6878 30.5235-50.1594 30.986-49.697 31.4485-49.2345 31.972-48.874 32.5564-48.6154 33.1409-48.3568 33.785-48.2275 34.4888-48.2275Z" fill="#EBA300" transform="matrix(1 0 0 1 2530.88 267)"/><path d="M59.3536-34.9346 99.4136 4.66761 99.4136 11.6313 55.9683-30.9566C57.0549-32.2754 58.1833-33.6014 59.3536-34.9346Z" fill="#D48C00" transform="matrix(1 0 0 1 2530.88 267)"/><path d="M34.4888-46.6064C33.5541-46.6064 32.6852-46.7841 31.882-47.1393 31.0789-47.4946 30.3824-47.9671 29.7927-48.5568 29.2029-49.1466 28.7304-49.843 28.3752-50.6462 28.0199-51.4494 27.8423-52.3183 27.8423-53.2529 27.8423-54.1791 28.0199-55.0438 28.3752-55.847 28.7304-56.6502 29.2029-57.3466 29.7927-57.9364 30.3824-58.5261 31.0836-59.0007 31.8963-59.3602 32.7089-59.7197 33.5731-59.8994 34.4888-59.8994 35.4065-59.8994 36.2756-59.718 37.0958-59.3551 37.9161-58.9923 38.6218-58.5153 39.2131-57.924 39.8043-57.3328 40.2792-56.6318 40.6378-55.821 40.9965-55.0103 41.1758-54.1542 41.1758-53.2529 41.1758-52.3432 40.9965-51.4829 40.6378-50.6722 40.2792-49.8614 39.8043-49.1604 39.2131-48.5692 38.6218-47.9779 37.9208-47.503 37.1101-47.1444 36.2993-46.7858 35.4255-46.6064 34.4888-46.6064Z" transform="matrix(1 0 0 1 2530.88 267)"/><text fill="#000000" fill-opacity="0" font-family="Arial,Arial_MSFontService,sans-serif" font-size="13.293" x="27.8423" y="-48.2681">🔑</text></g><text fill="#FFFFFF" font-family="Calibri,Calibri_MSFontService,sans-serif" font-weight="700" font-size="83" transform="matrix(1 0 0 1 2660.93 267)">StudentNr</text><g><text font-family="Calibri,Calibri_MSFontService,sans-serif" font-weight="400" font-size="83" transform="matrix(1 0 0 1 3551.9 399)">5.5</text></g><g><text font-family="Calibri,Calibri_MSFontService,sans-serif" font-weight="400" font-size="83" transform="matrix(1 0 0 1 3098.57 399)">2</text></g><g><text font-family="Calibri,Calibri_MSFontService,sans-serif" font-weight="400" font-size="83" transform="matrix(1 0 0 1 2530.88 399)">1</text></g><g><text font-family="Calibri,Calibri_MSFontService,sans-serif" font-weight="400" font-size="83" transform="matrix(1 0 0 1 3551.9 533)">5</text></g><g><text font-family="Calibri,Calibri_MSFontService,sans-serif" font-weight="400" font-size="83" transform="matrix(1 0 0 1 3098.57 533)">3</text></g><g><text font-family="Calibri,Calibri_MSFontService,sans-serif" font-weight="400" font-size="83" transform="matrix(1 0 0 1 2530.88 533)">2</text></g><g><text font-family="Calibri,Calibri_MSFontService,sans-serif" font-weight="400" font-size="83" transform="matrix(1 0 0 1 3551.9 667)">5.5</text></g><g><text font-family="Calibri,Calibri_MSFontService,sans-serif" font-weight="400" font-size="83" transform="matrix(1 0 0 1 3098.57 667)">1</text></g><g><text font-family="Calibri,Calibri_MSFontService,sans-serif" font-weight="400" font-size="83" transform="matrix(1 0 0 1 2530.88 667)">3</text></g><g><text font-family="Calibri,Calibri_MSFontService,sans-serif" font-weight="400" font-size="83" transform="matrix(1 0 0 1 3551.9 801)">4.5</text></g><g><text font-family="Calibri,Calibri_MSFontService,sans-serif" font-weight="400" font-size="83" transform="matrix(1 0 0 1 3098.57 801)">2</text></g><g><text font-family="Calibri,Calibri_MSFontService,sans-serif" font-weight="400" font-size="83" transform="matrix(1 0 0 1 2530.88 801)">3</text></g><g><text font-family="Calibri,Calibri_MSFontService,sans-serif" font-weight="400" font-size="83" transform="matrix(1 0 0 1 3551.9 935)">4.5</text></g><g><text font-family="Calibri,Calibri_MSFontService,sans-serif" font-weight="400" font-size="83" transform="matrix(1 0 0 1 3098.57 935)">3</text></g><g><text font-family="Calibri,Calibri_MSFontService,sans-serif" font-weight="400" font-size="83" transform="matrix(1 0 0 1 2530.88 935)">3</text></g><g><text font-family="Calibri,Calibri_MSFontService,sans-serif" font-weight="400" font-size="83" transform="matrix(1 0 0 1 3551.9 1069)">5</text></g><g><text font-family="Calibri,Calibri_MSFontService,sans-serif" font-weight="400" font-size="83" transform="matrix(1 0 0 1 3098.57 1069)">2</text></g><g><text font-family="Calibri,Calibri_MSFontService,sans-serif" font-weight="400" font-size="83" transform="matrix(1 0 0 1 2530.88 1069)">4</text></g><g><text font-family="Calibri,Calibri_MSFontService,sans-serif" font-weight="400" font-size="83" transform="matrix(1 0 0 1 3551.9 1202)">5</text></g><g><text font-family="Calibri,Calibri_MSFontService,sans-serif" font-weight="400" font-size="83" transform="matrix(1 0 0 1 3098.57 1202)">1</text></g><g><text font-family="Calibri,Calibri_MSFontService,sans-serif" font-weight="400" font-size="83" transform="matrix(1 0 0 1 2530.88 1202)">5</text></g><g><text font-family="Calibri,Calibri_MSFontService,sans-serif" font-weight="400" font-size="83" transform="matrix(1 0 0 1 3551.9 1336)">4</text></g><g><text font-family="Calibri,Calibri_MSFontService,sans-serif" font-weight="400" font-size="83" transform="matrix(1 0 0 1 3098.57 1336)">2</text></g><g><text font-family="Calibri,Calibri_MSFontService,sans-serif" font-weight="400" font-size="83" transform="matrix(1 0 0 1 2530.88 1336)">5</text></g><g><text font-family="Calibri,Calibri_MSFontService,sans-serif" font-weight="400" font-size="83" transform="matrix(1 0 0 1 3551.9 1470)">…</text></g><g><text font-family="Calibri,Calibri_MSFontService,sans-serif" font-weight="400" font-size="83" transform="matrix(1 0 0 1 3098.57 1470)">…</text></g><g><text font-family="Calibri,Calibri_MSFontService,sans-serif" font-weight="400" font-size="83" transform="matrix(1 0 0 1 2530.88 1470)">…</text></g><path d="M343.564 1263.49 796.902 1263.49 796.902 1397.32 343.564 1397.32Z" fill="#006F7F" fill-rule="evenodd"/><path d="M796.902 1263.49 1341.52 1263.49 1341.52 1397.32 796.902 1397.32Z" fill="#006F7F" fill-rule="evenodd"/><path d="M343.564 1397.32 796.902 1397.32 796.902 1531.15 343.564 1531.15Z" fill="#CBD5D8" fill-rule="evenodd"/><path d="M796.902 1397.32 1341.52 1397.32 1341.52 1531.15 796.902 1531.15Z" fill="#CBD5D8" fill-rule="evenodd"/><path d="M343.564 1531.15 796.902 1531.15 796.902 1664.99 343.564 1664.99Z" fill="#E7EBEC" fill-rule="evenodd"/><path d="M796.902 1531.15 1341.52 1531.15 1341.52 1664.99 796.902 1664.99Z" fill="#E7EBEC" fill-rule="evenodd"/><path d="M343.564 1664.99 796.902 1664.99 796.902 1798.82 343.564 1798.82Z" fill="#CBD5D8" fill-rule="evenodd"/><path d="M796.902 1664.99 1341.52 1664.99 1341.52 1798.82 796.902 1798.82Z" fill="#CBD5D8" fill-rule="evenodd"/><path d="M343.564 1798.82 796.902 1798.82 796.902 1932.65 343.564 1932.65Z" fill="#E7EBEC" fill-rule="evenodd"/><path d="M796.902 1798.82 1341.52 1798.82 1341.52 1932.65 796.902 1932.65Z" fill="#E7EBEC" fill-rule="evenodd"/><path d="M796.902 1261.2 796.902 1397.32" stroke="#FFFFFF" stroke-width="4.58333" stroke-linejoin="round" stroke-miterlimit="10" fill="none" fill-rule="evenodd"/><path d="M796.902 1397.32 796.902 1934.95" stroke="#FFFFFF" stroke-width="4.58333" stroke-linejoin="round" stroke-miterlimit="10" fill="none" fill-rule="evenodd"/><path d="M341.272 1397.32 1343.81 1397.32" stroke="#FFFFFF" stroke-width="13.75" stroke-linejoin="round" stroke-miterlimit="10" fill="none" fill-rule="evenodd"/><path d="M343.564 1531.15 1341.52 1531.15" stroke="#FFFFFF" stroke-width="4.58333" stroke-linejoin="round" stroke-miterlimit="10" fill="none" fill-rule="evenodd"/><path d="M343.564 1664.99 1341.52 1664.99" stroke="#FFFFFF" stroke-width="4.58333" stroke-linejoin="round" stroke-miterlimit="10" fill="none" fill-rule="evenodd"/><path d="M341.272 1798.82 1343.81 1798.82" stroke="#FFFFFF" stroke-width="4.58333" stroke-linejoin="round" stroke-miterlimit="10" fill="none" fill-rule="evenodd"/><path d="M343.564 1261.2 343.564 1404.2" stroke="#FFFFFF" stroke-width="4.58333" stroke-linejoin="round" stroke-miterlimit="10" fill="none" fill-rule="evenodd"/><path d="M343.564 1796.53 343.564 1934.95" stroke="#FFFFFF" stroke-width="4.58333" stroke-linejoin="round" stroke-miterlimit="10" fill="none" fill-rule="evenodd"/><path d="M1341.52 1261.2 1341.52 1404.2" stroke="#FFFFFF" stroke-width="4.58333" stroke-linejoin="round" stroke-miterlimit="10" fill="none" fill-rule="evenodd"/><path d="M1341.52 1796.53 1341.52 1934.95" stroke="#FFFFFF" stroke-width="4.58333" stroke-linejoin="round" stroke-miterlimit="10" fill="none" fill-rule="evenodd"/><path d="M341.272 1263.49 1343.81 1263.49" stroke="#FFFFFF" stroke-width="4.58333" stroke-linejoin="round" stroke-miterlimit="10" fill="none" fill-rule="evenodd"/><path d="M341.272 1932.65 1343.81 1932.65" stroke="#FFFFFF" stroke-width="4.58333" stroke-linejoin="round" stroke-miterlimit="10" fill="none" fill-rule="evenodd"/><g><text fill="#FFFFFF" font-family="Calibri,Calibri_MSFontService,sans-serif" font-weight="700" font-size="83" transform="matrix(1 0 0 1 829.902 1357)">Beschreibung</text></g><g clip-path="url(#clip3)"><path d="" fill="#FFFFFF" transform="matrix(1 0 0 1 376.564 1358)"/><path d="M80.2847 17.4673 80.2847 8.71338 71.5308 8.71338 71.5308 0 62.8174 0 62.8174-8.75391 57.9237-8.75391 48.1465-18.6426C45.8073-17.8861 43.2-17.5078 40.3247-17.5078 36.177-17.5078 32.2899-18.2928 28.6636-19.8628 25.0372-21.4328 21.8677-23.5673 19.1549-26.2661 16.4421-28.965 14.3006-32.1279 12.7303-35.7549 11.1601-39.3819 10.375-43.2693 10.375-47.417 10.375-50.1745 10.729-52.8304 11.4369-55.3847 12.1449-57.939 13.1503-60.3248 14.4531-62.5422 15.7558-64.7596 17.3163-66.7773 19.1343-68.5954 20.9523-70.4134 22.97-71.9737 25.1874-73.2763 27.4048-74.5788 29.7981-75.5862 32.3674-76.2984 34.9367-77.0106 37.5891-77.3667 40.3247-77.3667 43.0611-77.3667 45.7103-77.0027 48.2722-76.2747 50.8341-75.5467 53.2251-74.5374 55.4452-73.2468 57.6653-71.9563 59.6851-70.3944 61.5044-68.5612 63.3237-66.7279 64.8843-64.7101 66.1862-62.5077 67.4882-60.3053 68.495-57.9201 69.2068-55.3521 69.9185-52.7841 70.2744-50.1391 70.2744-47.417 70.2744-44.5733 69.8961-41.9601 69.1396-39.5775L105.25-3.55944 105.25 17.4673Z" transform="matrix(1 0 0 1 376.564 1358)"/><path d="M62.4121-38.0229C68.4579-32.1021 74.5473-26.0684 80.6804-19.9217 86.8136-13.7751 93.0579-7.51001 99.4136-1.12653L99.4136 5.83594 96.4551 5.39014 99.4136 11.6313 86.1206 11.6313 86.1206 2.87744 77.3667 2.87744 77.3667-5.83594 68.6128-5.83594 68.6128-14.5898 60.356-14.5898 49.7144-25.3701C48.5112-24.6925 47.0761-24.1787 45.409-23.8285 43.7419-23.4783 42.0471-23.3032 40.3247-23.3032 36.9871-23.3032 33.8562-23.9398 30.9319-25.2131 28.0076-26.4863 25.4596-28.2087 23.288-30.3803 21.1164-32.5519 19.394-35.0999 18.1208-38.0245 16.8476-40.949 16.2109-44.0798 16.2109-47.417 16.2109-50.7449 16.8404-53.8776 18.0993-56.8152 19.3581-59.7528 21.0741-62.3081 23.2472-64.4812 25.4202-66.6543 27.9806-68.3725 30.9284-69.6358 33.8761-70.8991 37.0082-71.5308 40.3247-71.5308 43.6175-71.5308 46.7414-70.8905 49.6963-69.6101 52.6512-68.3297 55.2155-66.6027 57.3892-64.429 59.5629-62.2553 61.288-59.6957 62.5644-56.7503 63.8408-53.8049 64.479-50.6938 64.479-47.417 64.479-45.7317 64.2957-44.05 63.929-42.372 63.5624-40.6939 63.0567-39.2442 62.4121-38.0229ZM34.4888-48.2275C35.1942-48.2275 35.8431-48.3585 36.4353-48.6205 37.0276-48.8824 37.5558-49.2454 38.0197-49.7093 38.4837-50.1733 38.8487-50.7061 39.1149-51.3079 39.3811-51.9097 39.5142-52.558 39.5142-53.2529 39.5142-53.9394 39.3811-54.5835 39.1149-55.1853 38.8487-55.787 38.4837-56.3199 38.0197-56.7839 37.5558-57.2478 37.0229-57.6129 36.4211-57.8791 35.8193-58.1452 35.1752-58.2783 34.4888-58.2783 33.8044-58.2783 33.1652-58.1469 32.571-57.8841 31.9768-57.6213 31.4485-57.2587 30.986-56.7962 30.5235-56.3337 30.1609-55.8054 29.8981-55.2112 29.6353-54.617 29.5039-53.9643 29.5039-53.2529 29.5039-52.5331 29.6353-51.8762 29.8981-51.282 30.1609-50.6878 30.5235-50.1594 30.986-49.697 31.4485-49.2345 31.972-48.874 32.5564-48.6154 33.1409-48.3568 33.785-48.2275 34.4888-48.2275Z" fill="#EBA300" transform="matrix(1 0 0 1 376.564 1358)"/><path d="M59.3536-34.9346 99.4136 4.66761 99.4136 11.6313 55.9683-30.9566C57.0549-32.2754 58.1833-33.6014 59.3536-34.9346Z" fill="#D48C00" transform="matrix(1 0 0 1 376.564 1358)"/><path d="M34.4888-46.6064C33.5541-46.6064 32.6852-46.7841 31.882-47.1393 31.0789-47.4946 30.3824-47.9671 29.7927-48.5568 29.2029-49.1466 28.7304-49.843 28.3752-50.6462 28.0199-51.4494 27.8423-52.3183 27.8423-53.2529 27.8423-54.1791 28.0199-55.0438 28.3752-55.847 28.7304-56.6502 29.2029-57.3466 29.7927-57.9364 30.3824-58.5261 31.0836-59.0007 31.8963-59.3602 32.7089-59.7197 33.5731-59.8994 34.4888-59.8994 35.4065-59.8994 36.2756-59.718 37.0958-59.3551 37.9161-58.9923 38.6218-58.5153 39.2131-57.924 39.8043-57.3328 40.2792-56.6318 40.6378-55.821 40.9965-55.0103 41.1758-54.1542 41.1758-53.2529 41.1758-52.3432 40.9965-51.4829 40.6378-50.6722 40.2792-49.8614 39.8043-49.1604 39.2131-48.5692 38.6218-47.9779 37.9208-47.503 37.1101-47.1444 36.2993-46.7858 35.4255-46.6064 34.4888-46.6064Z" transform="matrix(1 0 0 1 376.564 1358)"/><text fill="#000000" fill-opacity="0" font-family="Arial,Arial_MSFontService,sans-serif" font-size="13.293" x="27.8423" y="-48.2681">🔑</text></g><text fill="#FFFFFF" font-family="Calibri,Calibri_MSFontService,sans-serif" font-weight="700" font-size="83" transform="matrix(1 0 0 1 506.616 1358)">FachNr</text><g><text font-family="Calibri,Calibri_MSFontService,sans-serif" font-weight="400" font-size="83" transform="matrix(1 0 0 1 829.902 1491)">Elektronik</text></g><g><text font-family="Calibri,Calibri_MSFontService,sans-serif" font-weight="400" font-size="83" transform="matrix(1 0 0 1 376.564 1491)">1</text></g><g><text font-family="Calibri,Calibri_MSFontService,sans-serif" font-weight="400" font-size="83" transform="matrix(1 0 0 1 829.902 1625)">Englisch</text></g><g><text font-family="Calibri,Calibri_MSFontService,sans-serif" font-weight="400" font-size="83" transform="matrix(1 0 0 1 376.564 1625)">2</text></g><g><text font-family="Calibri,Calibri_MSFontService,sans-serif" font-weight="400" font-size="83" transform="matrix(1 0 0 1 829.902 1758)">Musik</text></g><g><text font-family="Calibri,Calibri_MSFontService,sans-serif" font-weight="400" font-size="83" transform="matrix(1 0 0 1 376.564 1758)">3</text></g><g><text font-family="Calibri,Calibri_MSFontService,sans-serif" font-weight="400" font-size="83" transform="matrix(1 0 0 1 829.902 1892)">…</text></g><g><text font-family="Calibri,Calibri_MSFontService,sans-serif" font-weight="400" font-size="83" transform="matrix(1 0 0 1 376.564 1892)">…</text></g><path d="M343.564 172.027 911.256 172.027 911.256 305.861 343.564 305.861Z" fill="#006F7F" fill-rule="evenodd"/><path d="M911.256 172.027 1268.3 172.027 1268.3 305.861 911.256 305.861Z" fill="#006F7F" fill-rule="evenodd"/><path d="M1268.3 172.027 1664.48 172.027 1664.48 305.861 1268.3 305.861Z" fill="#006F7F" fill-rule="evenodd"/><path d="M1664.48 172.027 1961.94 172.027 1961.94 305.861 1664.48 305.861Z" fill="#006F7F" fill-rule="evenodd"/><path d="M343.564 305.861 911.256 305.861 911.256 439.694 343.564 439.694Z" fill="#CBD5D8" fill-rule="evenodd"/><path d="M911.256 305.861 1268.3 305.861 1268.3 439.694 911.256 439.694Z" fill="#CBD5D8" fill-rule="evenodd"/><path d="M1268.3 305.861 1664.48 305.861 1664.48 439.694 1268.3 439.694Z" fill="#CBD5D8" fill-rule="evenodd"/><path d="M1664.48 305.861 1961.94 305.861 1961.94 439.694 1664.48 439.694Z" fill="#CBD5D8" fill-rule="evenodd"/><path d="M343.564 439.694 911.256 439.694 911.256 573.527 343.564 573.527Z" fill="#E7EBEC" fill-rule="evenodd"/><path d="M911.256 439.694 1268.3 439.694 1268.3 573.527 911.256 573.527Z" fill="#E7EBEC" fill-rule="evenodd"/><path d="M1268.3 439.694 1664.48 439.694 1664.48 573.527 1268.3 573.527Z" fill="#E7EBEC" fill-rule="evenodd"/><path d="M1664.48 439.694 1961.94 439.694 1961.94 573.527 1664.48 573.527Z" fill="#E7EBEC" fill-rule="evenodd"/><path d="M343.564 573.527 911.256 573.527 911.256 707.361 343.564 707.361Z" fill="#CBD5D8" fill-rule="evenodd"/><path d="M911.256 573.527 1268.3 573.527 1268.3 707.361 911.256 707.361Z" fill="#CBD5D8" fill-rule="evenodd"/><path d="M1268.3 573.527 1664.48 573.527 1664.48 707.361 1268.3 707.361Z" fill="#CBD5D8" fill-rule="evenodd"/><path d="M1664.48 573.527 1961.94 573.527 1961.94 707.361 1664.48 707.361Z" fill="#CBD5D8" fill-rule="evenodd"/><path d="M343.564 707.361 911.256 707.361 911.256 841.194 343.564 841.194Z" fill="#E7EBEC" fill-rule="evenodd"/><path d="M911.256 707.361 1268.3 707.361 1268.3 841.194 911.256 841.194Z" fill="#E7EBEC" fill-rule="evenodd"/><path d="M1268.3 707.361 1664.48 707.361 1664.48 841.194 1268.3 841.194Z" fill="#E7EBEC" fill-rule="evenodd"/><path d="M1664.48 707.361 1961.94 707.361 1961.94 841.194 1664.48 841.194Z" fill="#E7EBEC" fill-rule="evenodd"/><path d="M343.564 841.194 911.256 841.194 911.256 975.027 343.564 975.027Z" fill="#CBD5D8" fill-rule="evenodd"/><path d="M911.256 841.194 1268.3 841.194 1268.3 975.027 911.256 975.027Z" fill="#CBD5D8" fill-rule="evenodd"/><path d="M1268.3 841.194 1664.48 841.194 1664.48 975.027 1268.3 975.027Z" fill="#CBD5D8" fill-rule="evenodd"/><path d="M1664.48 841.194 1961.94 841.194 1961.94 975.027 1664.48 975.027Z" fill="#CBD5D8" fill-rule="evenodd"/><path d="M343.564 975.027 911.256 975.027 911.256 1108.86 343.564 1108.86Z" fill="#E7EBEC" fill-rule="evenodd"/><path d="M911.256 975.027 1268.3 975.027 1268.3 1108.86 911.256 1108.86Z" fill="#E7EBEC" fill-rule="evenodd"/><path d="M1268.3 975.027 1664.48 975.027 1664.48 1108.86 1268.3 1108.86Z" fill="#E7EBEC" fill-rule="evenodd"/><path d="M1664.48 975.027 1961.94 975.027 1961.94 1108.86 1664.48 1108.86Z" fill="#E7EBEC" fill-rule="evenodd"/><path d="M911.256 169.736 911.256 305.861" stroke="#FFFFFF" stroke-width="4.58333" stroke-linejoin="round" stroke-miterlimit="10" fill="none" fill-rule="evenodd"/><path d="M911.256 305.861 911.256 1111.15" stroke="#FFFFFF" stroke-width="4.58333" stroke-linejoin="round" stroke-miterlimit="10" fill="none" fill-rule="evenodd"/><path d="M1268.3 169.736 1268.3 305.861" stroke="#FFFFFF" stroke-width="4.58333" stroke-linejoin="round" stroke-miterlimit="10" fill="none" fill-rule="evenodd"/><path d="M1268.3 305.861 1268.3 1111.15" stroke="#FFFFFF" stroke-width="4.58333" stroke-linejoin="round" stroke-miterlimit="10" fill="none" fill-rule="evenodd"/><path d="M1664.48 169.736 1664.48 305.861" stroke="#FFFFFF" stroke-width="4.58333" stroke-linejoin="round" stroke-miterlimit="10" fill="none" fill-rule="evenodd"/><path d="M1664.48 305.861 1664.48 1111.15" stroke="#FFFFFF" stroke-width="4.58333" stroke-linejoin="round" stroke-miterlimit="10" fill="none" fill-rule="evenodd"/><path d="M341.272 305.861 1964.23 305.861" stroke="#FFFFFF" stroke-width="13.75" stroke-linejoin="round" stroke-miterlimit="10" fill="none" fill-rule="evenodd"/><path d="M341.272 439.694 1964.23 439.694" stroke="#FFFFFF" stroke-width="4.58333" stroke-linejoin="round" stroke-miterlimit="10" fill="none" fill-rule="evenodd"/><path d="M343.564 573.527 1964.23 573.527" stroke="#FFFFFF" stroke-width="4.58333" stroke-linejoin="round" stroke-miterlimit="10" fill="none" fill-rule="evenodd"/><path d="M343.564 707.361 1964.23 707.361" stroke="#FFFFFF" stroke-width="4.58333" stroke-linejoin="round" stroke-miterlimit="10" fill="none" fill-rule="evenodd"/><path d="M343.564 841.194 1964.23 841.194" stroke="#FFFFFF" stroke-width="4.58333" stroke-linejoin="round" stroke-miterlimit="10" fill="none" fill-rule="evenodd"/><path d="M341.272 975.027 1964.23 975.027" stroke="#FFFFFF" stroke-width="4.58333" stroke-linejoin="round" stroke-miterlimit="10" fill="none" fill-rule="evenodd"/><path d="M343.564 169.736 343.564 441.986" stroke="#FFFFFF" stroke-width="4.58333" stroke-linejoin="round" stroke-miterlimit="10" fill="none" fill-rule="evenodd"/><path d="M343.564 972.736 343.564 1111.15" stroke="#FFFFFF" stroke-width="4.58333" stroke-linejoin="round" stroke-miterlimit="10" fill="none" fill-rule="evenodd"/><path d="M1961.94 169.736 1961.94 305.861" stroke="#FFFFFF" stroke-width="4.58333" stroke-linejoin="round" stroke-miterlimit="10" fill="none" fill-rule="evenodd"/><path d="M1961.94 305.861 1961.94 1111.15" stroke="#FFFFFF" stroke-width="4.58333" stroke-linejoin="round" stroke-miterlimit="10" fill="none" fill-rule="evenodd"/><path d="M341.272 172.027 1964.23 172.027" stroke="#FFFFFF" stroke-width="4.58333" stroke-linejoin="round" stroke-miterlimit="10" fill="none" fill-rule="evenodd"/><path d="M341.272 1108.86 1964.23 1108.86" stroke="#FFFFFF" stroke-width="4.58333" stroke-linejoin="round" stroke-miterlimit="10" fill="none" fill-rule="evenodd"/><g><text fill="#FFFFFF" font-family="Calibri,Calibri_MSFontService,sans-serif" font-weight="700" font-size="83" transform="matrix(1 0 0 1 1697.48 266)">Klasse</text></g><g><text fill="#FFFFFF" font-family="Calibri,Calibri_MSFontService,sans-serif" font-weight="700" font-size="83" transform="matrix(1 0 0 1 1301.3 266)">Vorname</text></g><g><text fill="#FFFFFF" font-family="Calibri,Calibri_MSFontService,sans-serif" font-weight="700" font-size="83" transform="matrix(1 0 0 1 944.256 266)">Name</text></g><g clip-path="url(#clip4)"><path d="" fill="#FFFFFF" transform="matrix(1 0 0 1 376.564 267)"/><path d="M80.2847 17.4673 80.2847 8.71338 71.5308 8.71338 71.5308 0 62.8174 0 62.8174-8.75391 57.9237-8.75391 48.1465-18.6426C45.8073-17.8861 43.2-17.5078 40.3247-17.5078 36.177-17.5078 32.2899-18.2928 28.6636-19.8628 25.0372-21.4328 21.8677-23.5673 19.1549-26.2661 16.4421-28.965 14.3006-32.1279 12.7303-35.7549 11.1601-39.3819 10.375-43.2693 10.375-47.417 10.375-50.1745 10.729-52.8304 11.4369-55.3847 12.1449-57.939 13.1503-60.3248 14.4531-62.5422 15.7558-64.7596 17.3163-66.7773 19.1343-68.5954 20.9523-70.4134 22.97-71.9737 25.1874-73.2763 27.4048-74.5788 29.7981-75.5862 32.3674-76.2984 34.9367-77.0106 37.5891-77.3667 40.3247-77.3667 43.0611-77.3667 45.7103-77.0027 48.2722-76.2747 50.8341-75.5467 53.2251-74.5374 55.4452-73.2468 57.6653-71.9563 59.6851-70.3944 61.5044-68.5612 63.3237-66.7279 64.8843-64.7101 66.1862-62.5077 67.4882-60.3053 68.495-57.9201 69.2068-55.3521 69.9185-52.7841 70.2744-50.1391 70.2744-47.417 70.2744-44.5733 69.8961-41.9601 69.1396-39.5775L105.25-3.55944 105.25 17.4673Z" transform="matrix(1 0 0 1 376.564 267)"/><path d="M62.4121-38.0229C68.4579-32.1021 74.5473-26.0684 80.6804-19.9217 86.8136-13.7751 93.0579-7.51001 99.4136-1.12653L99.4136 5.83594 96.4551 5.39014 99.4136 11.6313 86.1206 11.6313 86.1206 2.87744 77.3667 2.87744 77.3667-5.83594 68.6128-5.83594 68.6128-14.5898 60.356-14.5898 49.7144-25.3701C48.5112-24.6925 47.0761-24.1787 45.409-23.8285 43.7419-23.4783 42.0471-23.3032 40.3247-23.3032 36.9871-23.3032 33.8562-23.9398 30.9319-25.2131 28.0076-26.4863 25.4596-28.2087 23.288-30.3803 21.1164-32.5519 19.394-35.0999 18.1208-38.0245 16.8476-40.949 16.2109-44.0798 16.2109-47.417 16.2109-50.7449 16.8404-53.8776 18.0993-56.8152 19.3581-59.7528 21.0741-62.3081 23.2472-64.4812 25.4202-66.6543 27.9806-68.3725 30.9284-69.6358 33.8761-70.8991 37.0082-71.5308 40.3247-71.5308 43.6175-71.5308 46.7414-70.8905 49.6963-69.6101 52.6512-68.3297 55.2155-66.6027 57.3892-64.429 59.5629-62.2553 61.288-59.6957 62.5644-56.7503 63.8408-53.8049 64.479-50.6938 64.479-47.417 64.479-45.7317 64.2957-44.05 63.929-42.372 63.5624-40.6939 63.0567-39.2442 62.4121-38.0229ZM34.4888-48.2275C35.1942-48.2275 35.8431-48.3585 36.4353-48.6205 37.0276-48.8824 37.5558-49.2454 38.0197-49.7093 38.4837-50.1733 38.8487-50.7061 39.1149-51.3079 39.3811-51.9097 39.5142-52.558 39.5142-53.2529 39.5142-53.9394 39.3811-54.5835 39.1149-55.1853 38.8487-55.787 38.4837-56.3199 38.0197-56.7839 37.5558-57.2478 37.0229-57.6129 36.4211-57.8791 35.8193-58.1452 35.1752-58.2783 34.4888-58.2783 33.8044-58.2783 33.1652-58.1469 32.571-57.8841 31.9768-57.6213 31.4485-57.2587 30.986-56.7962 30.5235-56.3337 30.1609-55.8054 29.8981-55.2112 29.6353-54.617 29.5039-53.9643 29.5039-53.2529 29.5039-52.5331 29.6353-51.8762 29.8981-51.282 30.1609-50.6878 30.5235-50.1594 30.986-49.697 31.4485-49.2345 31.972-48.874 32.5564-48.6154 33.1409-48.3568 33.785-48.2275 34.4888-48.2275Z" fill="#EBA300" transform="matrix(1 0 0 1 376.564 267)"/><path d="M59.3536-34.9346 99.4136 4.66761 99.4136 11.6313 55.9683-30.9566C57.0549-32.2754 58.1833-33.6014 59.3536-34.9346Z" fill="#D48C00" transform="matrix(1 0 0 1 376.564 267)"/><path d="M34.4888-46.6064C33.5541-46.6064 32.6852-46.7841 31.882-47.1393 31.0789-47.4946 30.3824-47.9671 29.7927-48.5568 29.2029-49.1466 28.7304-49.843 28.3752-50.6462 28.0199-51.4494 27.8423-52.3183 27.8423-53.2529 27.8423-54.1791 28.0199-55.0438 28.3752-55.847 28.7304-56.6502 29.2029-57.3466 29.7927-57.9364 30.3824-58.5261 31.0836-59.0007 31.8963-59.3602 32.7089-59.7197 33.5731-59.8994 34.4888-59.8994 35.4065-59.8994 36.2756-59.718 37.0958-59.3551 37.9161-58.9923 38.6218-58.5153 39.2131-57.924 39.8043-57.3328 40.2792-56.6318 40.6378-55.821 40.9965-55.0103 41.1758-54.1542 41.1758-53.2529 41.1758-52.3432 40.9965-51.4829 40.6378-50.6722 40.2792-49.8614 39.8043-49.1604 39.2131-48.5692 38.6218-47.9779 37.9208-47.503 37.1101-47.1444 36.2993-46.7858 35.4255-46.6064 34.4888-46.6064Z" transform="matrix(1 0 0 1 376.564 267)"/><text fill="#000000" fill-opacity="0" font-family="Arial,Arial_MSFontService,sans-serif" font-size="13.293" x="27.8423" y="-48.2681">🔑</text></g><text fill="#FFFFFF" font-family="Calibri,Calibri_MSFontService,sans-serif" font-weight="700" font-size="83" transform="matrix(1 0 0 1 506.616 267)">StudentNr</text><g><text font-family="Calibri,Calibri_MSFontService,sans-serif" font-weight="400" font-size="83" transform="matrix(1 0 0 1 1697.48 399)">11a</text></g><g><text font-family="Calibri,Calibri_MSFontService,sans-serif" font-weight="400" font-size="83" transform="matrix(1 0 0 1 1301.3 399)">Ina</text></g><g><text font-family="Calibri,Calibri_MSFontService,sans-serif" font-weight="400" font-size="83" transform="matrix(1 0 0 1 944.256 399)">Jürgens</text></g><g><text font-family="Calibri,Calibri_MSFontService,sans-serif" font-weight="400" font-size="83" transform="matrix(1 0 0 1 376.564 399)">1</text></g><g><text font-family="Calibri,Calibri_MSFontService,sans-serif" font-weight="400" font-size="83" transform="matrix(1 0 0 1 1697.48 533)">12a</text></g><g><text font-family="Calibri,Calibri_MSFontService,sans-serif" font-weight="400" font-size="83" transform="matrix(1 0 0 1 1301.3 533)">Tom</text></g><g><text font-family="Calibri,Calibri_MSFontService,sans-serif" font-weight="400" font-size="83" transform="matrix(1 0 0 1 944.256 533)">Schmidt</text></g><g><text font-family="Calibri,Calibri_MSFontService,sans-serif" font-weight="400" font-size="83" transform="matrix(1 0 0 1 376.564 533)">2</text></g><g><text font-family="Calibri,Calibri_MSFontService,sans-serif" font-weight="400" font-size="83" transform="matrix(1 0 0 1 1697.48 667)">11a</text></g><g><text font-family="Calibri,Calibri_MSFontService,sans-serif" font-weight="400" font-size="83" transform="matrix(1 0 0 1 1301.3 667)">Franz</text></g><g><text font-family="Calibri,Calibri_MSFontService,sans-serif" font-weight="400" font-size="83" transform="matrix(1 0 0 1 944.256 667)">Jäger</text></g><g><text font-family="Calibri,Calibri_MSFontService,sans-serif" font-weight="400" font-size="83" transform="matrix(1 0 0 1 376.564 667)">3</text></g><g><text font-family="Calibri,Calibri_MSFontService,sans-serif" font-weight="400" font-size="83" transform="matrix(1 0 0 1 1697.48 801)">11b</text></g><g><text font-family="Calibri,Calibri_MSFontService,sans-serif" font-weight="400" font-size="83" transform="matrix(1 0 0 1 1301.3 801)">Ina</text></g><g><text font-family="Calibri,Calibri_MSFontService,sans-serif" font-weight="400" font-size="83" transform="matrix(1 0 0 1 944.256 801)">Olsen</text></g><g><text font-family="Calibri,Calibri_MSFontService,sans-serif" font-weight="400" font-size="83" transform="matrix(1 0 0 1 376.564 801)">4</text></g><g><text font-family="Calibri,Calibri_MSFontService,sans-serif" font-weight="400" font-size="83" transform="matrix(1 0 0 1 1697.48 935)">12a</text></g><g><text font-family="Calibri,Calibri_MSFontService,sans-serif" font-weight="400" font-size="83" transform="matrix(1 0 0 1 1301.3 935)">Paula</text></g><g><text font-family="Calibri,Calibri_MSFontService,sans-serif" font-weight="400" font-size="83" transform="matrix(1 0 0 1 944.256 935)">Jürgens</text></g><g><text font-family="Calibri,Calibri_MSFontService,sans-serif" font-weight="400" font-size="83" transform="matrix(1 0 0 1 376.564 935)">5</text></g><g><text font-family="Calibri,Calibri_MSFontService,sans-serif" font-weight="400" font-size="83" transform="matrix(1 0 0 1 1697.48 1069)">…</text></g><g><text font-family="Calibri,Calibri_MSFontService,sans-serif" font-weight="400" font-size="83" transform="matrix(1 0 0 1 1301.3 1069)">…</text></g><g><text font-family="Calibri,Calibri_MSFontService,sans-serif" font-weight="400" font-size="83" transform="matrix(1 0 0 1 944.256 1069)">…</text></g><g><text font-family="Calibri,Calibri_MSFontService,sans-serif" font-weight="400" font-size="83" transform="matrix(1 0 0 1 376.564 1069)">…</text></g><text font-family="Calibri,Calibri_MSFontService,sans-serif" font-weight="400" font-size="83" transform="matrix(1 0 0 1 343.564 1240)">Tabelle </text><text font-family="Calibri,Calibri_MSFontService,sans-serif" font-weight="700" font-size="83" transform="matrix(1 0 0 1 600.62 1240)">Fächer</text><text font-family="Calibri,Calibri_MSFontService,sans-serif" font-weight="400" font-size="83" transform="matrix(1 0 0 1 2497.88 151)">Tabelle </text><text font-family="Calibri,Calibri_MSFontService,sans-serif" font-weight="700" font-size="83" transform="matrix(1 0 0 1 2754.93 151)">Noten</text><text font-family="Calibri,Calibri_MSFontService,sans-serif" font-weight="400" font-size="83" transform="matrix(1 0 0 1 343.564 151)">Tabelle </text><text font-family="Calibri,Calibri_MSFontService,sans-serif" font-weight="700" font-size="83" transform="matrix(1 0 0 1 600.62 151)">Schüler</text><path d="M1446.37 1263.49 1854.98 1263.49 1854.98 1397.32 1446.37 1397.32Z" fill="#006F7F" fill-rule="evenodd"/><path d="M1854.98 1263.49 2393.02 1263.49 2393.02 1397.32 1854.98 1397.32Z" fill="#006F7F" fill-rule="evenodd"/><path d="M1446.37 1397.32 1854.98 1397.32 1854.98 1531.15 1446.37 1531.15Z" fill="#CBD5D8" fill-rule="evenodd"/><path d="M1854.98 1397.32 2393.02 1397.32 2393.02 1531.15 1854.98 1531.15Z" fill="#CBD5D8" fill-rule="evenodd"/><path d="M1446.37 1531.15 1854.98 1531.15 1854.98 1664.99 1446.37 1664.99Z" fill="#E7EBEC" fill-rule="evenodd"/><path d="M1854.98 1531.15 2393.02 1531.15 2393.02 1664.99 1854.98 1664.99Z" fill="#E7EBEC" fill-rule="evenodd"/><path d="M1446.37 1664.99 1854.98 1664.99 1854.98 1798.82 1446.37 1798.82Z" fill="#CBD5D8" fill-rule="evenodd"/><path d="M1854.98 1664.99 2393.02 1664.99 2393.02 1798.82 1854.98 1798.82Z" fill="#CBD5D8" fill-rule="evenodd"/><path d="M1446.37 1798.82 1854.98 1798.82 1854.98 1932.65 1446.37 1932.65Z" fill="#E7EBEC" fill-rule="evenodd"/><path d="M1854.98 1798.82 2393.02 1798.82 2393.02 1932.65 1854.98 1932.65Z" fill="#E7EBEC" fill-rule="evenodd"/><path d="M1854.98 1261.2 1854.98 1397.32" stroke="#FFFFFF" stroke-width="4.58333" stroke-linejoin="round" stroke-miterlimit="10" fill="none" fill-rule="evenodd"/><path d="M1854.98 1397.32 1854.98 1934.95" stroke="#FFFFFF" stroke-width="4.58333" stroke-linejoin="round" stroke-miterlimit="10" fill="none" fill-rule="evenodd"/><path d="M1444.08 1397.32 2395.31 1397.32" stroke="#FFFFFF" stroke-width="13.75" stroke-linejoin="round" stroke-miterlimit="10" fill="none" fill-rule="evenodd"/><path d="M1444.08 1531.15 2395.31 1531.15" stroke="#FFFFFF" stroke-width="4.58333" stroke-linejoin="round" stroke-miterlimit="10" fill="none" fill-rule="evenodd"/><path d="M1444.08 1664.99 2393.02 1664.99" stroke="#FFFFFF" stroke-width="4.58333" stroke-linejoin="round" stroke-miterlimit="10" fill="none" fill-rule="evenodd"/><path d="M1444.08 1798.82 2395.31 1798.82" stroke="#FFFFFF" stroke-width="4.58333" stroke-linejoin="round" stroke-miterlimit="10" fill="none" fill-rule="evenodd"/><path d="M1446.37 1261.2 1446.37 1934.95" stroke="#FFFFFF" stroke-width="4.58333" stroke-linejoin="round" stroke-miterlimit="10" fill="none" fill-rule="evenodd"/><path d="M2393.02 1261.2 2393.02 1533.45" stroke="#FFFFFF" stroke-width="4.58333" stroke-linejoin="round" stroke-miterlimit="10" fill="none" fill-rule="evenodd"/><path d="M2393.02 1796.53 2393.02 1934.95" stroke="#FFFFFF" stroke-width="4.58333" stroke-linejoin="round" stroke-miterlimit="10" fill="none" fill-rule="evenodd"/><path d="M1444.08 1263.49 2395.31 1263.49" stroke="#FFFFFF" stroke-width="4.58333" stroke-linejoin="round" stroke-miterlimit="10" fill="none" fill-rule="evenodd"/><path d="M1444.08 1932.65 2395.31 1932.65" stroke="#FFFFFF" stroke-width="4.58333" stroke-linejoin="round" stroke-miterlimit="10" fill="none" fill-rule="evenodd"/><g><text fill="#FFFFFF" font-family="Calibri,Calibri_MSFontService,sans-serif" font-weight="700" font-size="83" transform="matrix(1 0 0 1 1887.98 1357)">Klassenlehrer</text></g><g clip-path="url(#clip5)"><path d="" fill="#FFFFFF" transform="matrix(1 0 0 1 1479.37 1358)"/><path d="M80.2847 17.4673 80.2847 8.71338 71.5308 8.71338 71.5308 0 62.8174 0 62.8174-8.75391 57.9237-8.75391 48.1465-18.6426C45.8073-17.8861 43.2-17.5078 40.3247-17.5078 36.177-17.5078 32.2899-18.2928 28.6636-19.8628 25.0372-21.4328 21.8677-23.5673 19.1549-26.2661 16.4421-28.965 14.3006-32.1279 12.7303-35.7549 11.1601-39.3819 10.375-43.2693 10.375-47.417 10.375-50.1745 10.729-52.8304 11.4369-55.3847 12.1449-57.939 13.1503-60.3248 14.4531-62.5422 15.7558-64.7596 17.3163-66.7773 19.1343-68.5954 20.9523-70.4134 22.97-71.9737 25.1874-73.2763 27.4048-74.5788 29.7981-75.5862 32.3674-76.2984 34.9367-77.0106 37.5891-77.3667 40.3247-77.3667 43.0611-77.3667 45.7103-77.0027 48.2722-76.2747 50.8341-75.5467 53.2251-74.5374 55.4452-73.2468 57.6653-71.9563 59.6851-70.3944 61.5044-68.5612 63.3237-66.7279 64.8843-64.7101 66.1862-62.5077 67.4882-60.3053 68.495-57.9201 69.2068-55.3521 69.9185-52.7841 70.2744-50.1391 70.2744-47.417 70.2744-44.5733 69.8961-41.9601 69.1396-39.5775L105.25-3.55944 105.25 17.4673Z" transform="matrix(1 0 0 1 1479.37 1358)"/><path d="M62.4121-38.0229C68.4579-32.1021 74.5473-26.0684 80.6804-19.9217 86.8136-13.7751 93.0579-7.51001 99.4136-1.12653L99.4136 5.83594 96.4551 5.39014 99.4136 11.6313 86.1206 11.6313 86.1206 2.87744 77.3667 2.87744 77.3667-5.83594 68.6128-5.83594 68.6128-14.5898 60.356-14.5898 49.7144-25.3701C48.5112-24.6925 47.0761-24.1787 45.409-23.8285 43.7419-23.4783 42.0471-23.3032 40.3247-23.3032 36.9871-23.3032 33.8562-23.9398 30.9319-25.2131 28.0076-26.4863 25.4596-28.2087 23.288-30.3803 21.1164-32.5519 19.394-35.0999 18.1208-38.0245 16.8476-40.949 16.2109-44.0798 16.2109-47.417 16.2109-50.7449 16.8404-53.8776 18.0993-56.8152 19.3581-59.7528 21.0741-62.3081 23.2472-64.4812 25.4202-66.6543 27.9806-68.3725 30.9284-69.6358 33.8761-70.8991 37.0082-71.5308 40.3247-71.5308 43.6175-71.5308 46.7414-70.8905 49.6963-69.6101 52.6512-68.3297 55.2155-66.6027 57.3892-64.429 59.5629-62.2553 61.288-59.6957 62.5644-56.7503 63.8408-53.8049 64.479-50.6938 64.479-47.417 64.479-45.7317 64.2957-44.05 63.929-42.372 63.5624-40.6939 63.0567-39.2442 62.4121-38.0229ZM34.4888-48.2275C35.1942-48.2275 35.8431-48.3585 36.4353-48.6205 37.0276-48.8824 37.5558-49.2454 38.0197-49.7093 38.4837-50.1733 38.8487-50.7061 39.1149-51.3079 39.3811-51.9097 39.5142-52.558 39.5142-53.2529 39.5142-53.9394 39.3811-54.5835 39.1149-55.1853 38.8487-55.787 38.4837-56.3199 38.0197-56.7839 37.5558-57.2478 37.0229-57.6129 36.4211-57.8791 35.8193-58.1452 35.1752-58.2783 34.4888-58.2783 33.8044-58.2783 33.1652-58.1469 32.571-57.8841 31.9768-57.6213 31.4485-57.2587 30.986-56.7962 30.5235-56.3337 30.1609-55.8054 29.8981-55.2112 29.6353-54.617 29.5039-53.9643 29.5039-53.2529 29.5039-52.5331 29.6353-51.8762 29.8981-51.282 30.1609-50.6878 30.5235-50.1594 30.986-49.697 31.4485-49.2345 31.972-48.874 32.5564-48.6154 33.1409-48.3568 33.785-48.2275 34.4888-48.2275Z" fill="#EBA300" transform="matrix(1 0 0 1 1479.37 1358)"/><path d="M59.3536-34.9346 99.4136 4.66761 99.4136 11.6313 55.9683-30.9566C57.0549-32.2754 58.1833-33.6014 59.3536-34.9346Z" fill="#D48C00" transform="matrix(1 0 0 1 1479.37 1358)"/><path d="M34.4888-46.6064C33.5541-46.6064 32.6852-46.7841 31.882-47.1393 31.0789-47.4946 30.3824-47.9671 29.7927-48.5568 29.2029-49.1466 28.7304-49.843 28.3752-50.6462 28.0199-51.4494 27.8423-52.3183 27.8423-53.2529 27.8423-54.1791 28.0199-55.0438 28.3752-55.847 28.7304-56.6502 29.2029-57.3466 29.7927-57.9364 30.3824-58.5261 31.0836-59.0007 31.8963-59.3602 32.7089-59.7197 33.5731-59.8994 34.4888-59.8994 35.4065-59.8994 36.2756-59.718 37.0958-59.3551 37.9161-58.9923 38.6218-58.5153 39.2131-57.924 39.8043-57.3328 40.2792-56.6318 40.6378-55.821 40.9965-55.0103 41.1758-54.1542 41.1758-53.2529 41.1758-52.3432 40.9965-51.4829 40.6378-50.6722 40.2792-49.8614 39.8043-49.1604 39.2131-48.5692 38.6218-47.9779 37.9208-47.503 37.1101-47.1444 36.2993-46.7858 35.4255-46.6064 34.4888-46.6064Z" transform="matrix(1 0 0 1 1479.37 1358)"/><text fill="#000000" fill-opacity="0" font-family="Arial,Arial_MSFontService,sans-serif" font-size="13.293" x="27.8423" y="-48.2681">🔑</text></g><text fill="#FFFFFF" font-family="Calibri,Calibri_MSFontService,sans-serif" font-weight="700" font-size="83" transform="matrix(1 0 0 1 1590.52 1358)">Klasse</text><g><text font-family="Calibri,Calibri_MSFontService,sans-serif" font-weight="400" font-size="83" transform="matrix(1 0 0 1 1887.98 1491)">Lempel</text></g><g><text font-family="Calibri,Calibri_MSFontService,sans-serif" font-weight="400" font-size="83" transform="matrix(1 0 0 1 1479.37 1491)">11a</text></g><g><text font-family="Calibri,Calibri_MSFontService,sans-serif" font-weight="400" font-size="83" transform="matrix(1 0 0 1 1887.98 1625)">Sommer</text></g><g><text font-family="Calibri,Calibri_MSFontService,sans-serif" font-weight="400" font-size="83" transform="matrix(1 0 0 1 1479.37 1625)">11b</text></g><g><text font-family="Calibri,Calibri_MSFontService,sans-serif" font-weight="400" font-size="83" transform="matrix(1 0 0 1 1887.98 1758)">Breier</text></g><g><text font-family="Calibri,Calibri_MSFontService,sans-serif" font-weight="400" font-size="83" transform="matrix(1 0 0 1 1479.37 1758)">12a</text></g><g><text font-family="Calibri,Calibri_MSFontService,sans-serif" font-weight="400" font-size="83" transform="matrix(1 0 0 1 1887.98 1892)">…</text></g><g><text font-family="Calibri,Calibri_MSFontService,sans-serif" font-weight="400" font-size="83" transform="matrix(1 0 0 1 1479.37 1892)">…</text></g><text font-family="Calibri,Calibri_MSFontService,sans-serif" font-weight="400" font-size="83" transform="matrix(1 0 0 1 1446.37 1240)">Tabelle </text><text font-family="Calibri,Calibri_MSFontService,sans-serif" font-weight="700" font-size="83" transform="matrix(1 0 0 1 1703.43 1240)">Klassen</text></g></svg>