<svg width="1756" height="599" xmlns="http://www.w3.org/2000/svg" xmlns:xlink="http://www.w3.org/1999/xlink" xml:space="preserve" overflow="hidden"><g transform="translate(-1001 -599)"><path d="M1576 965 2109.5 965 2226 1081.5 2109.5 1198 1576 1198 1692.5 1081.5Z" fill="#006F7F" fill-rule="evenodd"/><text fill="#FFFFFF" font-family="Consolas,Consolas_MSFontService,sans-serif" font-weight="700" font-size="73" transform="matrix(1 0 0 1 1740.69 1106)">.</text><text fill="#FFFFFF" font-family="Consolas,Consolas_MSFontService,sans-serif" font-weight="700" font-size="73" transform="matrix(1 0 0 1 1780.8 1106)">write</text><text fill="#FFFFFF" font-family="Consolas,Consolas_MSFontService,sans-serif" font-weight="700" font-size="73" transform="matrix(1 0 0 1 1981.32 1106)">()</text><path d="M1046 965 1513.5 965 1630 1081.5 1513.5 1198 1046 1198Z" fill="#006F7F" fill-rule="evenodd"/><text fill="#FFFFFF" font-family="Consolas,Consolas_MSFontService,sans-serif" font-weight="700" font-size="73" transform="matrix(1 0 0 1 1168.28 1106)">.open()</text><path d="M2172 965 2756.94 965 2757 1089.2 2756.94 1198 2172 1198 2279.44 1081.5 2172 965Z" fill="#006F7F" fill-rule="evenodd"/><text fill="#FFFFFF" font-family="Consolas,Consolas_MSFontService,sans-serif" font-weight="700" font-size="73" transform="matrix(1 0 0 1 2344.03 1106)">.</text><text fill="#FFFFFF" font-family="Consolas,Consolas_MSFontService,sans-serif" font-weight="700" font-size="73" transform="matrix(1 0 0 1 2384.13 1106)">close</text><text fill="#FFFFFF" font-family="Consolas,Consolas_MSFontService,sans-serif" font-weight="700" font-size="73" transform="matrix(1 0 0 1 2584.65 1106)">()</text><text fill="#006F7F" font-family="Calibri,Calibri_MSFontService,sans-serif" font-weight="400" font-size="73" transform="matrix(1 0 0 1 1045.56 690)">create</text><text fill="#006F7F" font-family="Calibri,Calibri_MSFontService,sans-serif" font-weight="400" font-size="73" transform="matrix(1 0 0 1 1249.38 690)">object</text><text fill="#006F7F" font-family="Consolas,Consolas_MSFontService,sans-serif" font-weight="700" font-size="64" transform="matrix(1 0 0 1 1045.56 770)">rg</text><text fill="#006F7F" font-family="Consolas,Consolas_MSFontService,sans-serif" font-weight="700" font-size="64" transform="matrix(1 0 0 1 1116.6 770)">b</text><path d="M3.4375-1.11053e-05 3.43779 88.7932-3.43721 88.7933-3.4375 1.11053e-05ZM13.7503 84.2099 0.000360892 111.71-13.7497 84.21Z" fill="#006F7F" transform="matrix(-1 0 0 1 1272.5 820.5)"/><text fill="#006F7F" font-family="Calibri,Calibri_MSFontService,sans-serif" font-weight="400" font-size="73" transform="matrix(1 0 0 1 1620.59 690)">update </text><text fill="#006F7F" font-family="Calibri,Calibri_MSFontService,sans-serif" font-weight="400" font-size="73" transform="matrix(1 0 0 1 1847.14 690)">matrix</text><text fill="#006F7F" font-family="Consolas,Consolas_MSFontService,sans-serif" font-weight="700" font-size="64" transform="matrix(1 0 0 1 1620.59 770)">.</text><text fill="#006F7F" font-family="Consolas,Consolas_MSFontService,sans-serif" font-weight="700" font-size="64" transform="matrix(1 0 0 1 1656.11 770)">rgb_matrix</text><path d="M3.4375-1.11053e-05 3.43779 88.7932-3.43721 88.7933-3.4375 1.11053e-05ZM13.7503 84.2099 0.000360892 111.71-13.7497 84.21Z" fill="#006F7F" transform="matrix(-1 0 0 1 1825.5 820.5)"/><path d="M1.59125e-05-3.4375 55.0451-3.43725 55.0451 3.43775-1.59125e-05 3.4375ZM50.4618-13.7498 77.9618 0.000360892 50.4617 13.7502Z" fill="#006F7F" transform="matrix(1 0 0 -1 1498.5 705.5)"/></g></svg>