<?xml version="1.0" encoding="utf-8" standalone="no"?>
<!DOCTYPE svg PUBLIC "-//W3C//DTD SVG 1.1//EN"
  "http://www.w3.org/Graphics/SVG/1.1/DTD/svg11.dtd">
<svg xmlns:xlink="http://www.w3.org/1999/xlink" width="864pt" height="288pt" viewBox="0 0 864 288" xmlns="http://www.w3.org/2000/svg" version="1.1">
 <metadata>
  <rdf:RDF xmlns:dc="http://purl.org/dc/elements/1.1/" xmlns:cc="http://creativecommons.org/ns#" xmlns:rdf="http://www.w3.org/1999/02/22-rdf-syntax-ns#">
   <cc:Work>
    <dc:type rdf:resource="http://purl.org/dc/dcmitype/StillImage"/>
    <dc:date>2023-12-19T14:31:42.646591</dc:date>
    <dc:format>image/svg+xml</dc:format>
    <dc:creator>
     <cc:Agent>
      <dc:title>Matplotlib v3.8.0, https://matplotlib.org/</dc:title>
     </cc:Agent>
    </dc:creator>
   </cc:Work>
  </rdf:RDF>
 </metadata>
 <defs>
  <style type="text/css">*{stroke-linejoin: round; stroke-linecap: butt}</style>
 </defs>
 <g id="figure_1">
  <g id="patch_1">
   <path d="M 0 288 
L 864 288 
L 864 0 
L 0 0 
z
" style="fill: #ffffff"/>
  </g>
  <g id="axes_1">
   <g id="patch_2">
    <path d="M 108 256.32 
L 777.6 256.32 
L 777.6 34.56 
L 108 34.56 
z
" style="fill: #ffffff"/>
   </g>
   <g id="matplotlib.axis_1">
    <g id="xtick_1">
     <g id="line2d_1">
      <path d="M 138.436364 256.32 
L 138.436364 34.56 
" clip-path="url(#pf5bb1fcbc4)" style="fill: none; stroke: #b0b0b0; stroke-width: 0.8; stroke-linecap: square"/>
     </g>
     <g id="line2d_2">
      <defs>
       <path id="m57e0a2d4fd" d="M 0 0 
L 0 3.5 
" style="stroke: #000000; stroke-width: 0.8"/>
      </defs>
      <g>
       <use xlink:href="#m57e0a2d4fd" x="138.436364" y="256.32" style="stroke: #000000; stroke-width: 0.8"/>
      </g>
     </g>
     <g id="text_1">
      <!-- 0.00 -->
      <g transform="translate(127.303551 270.918437) scale(0.1 -0.1)">
       <defs>
        <path id="DejaVuSans-30" d="M 2034 4250 
Q 1547 4250 1301 3770 
Q 1056 3291 1056 2328 
Q 1056 1369 1301 889 
Q 1547 409 2034 409 
Q 2525 409 2770 889 
Q 3016 1369 3016 2328 
Q 3016 3291 2770 3770 
Q 2525 4250 2034 4250 
z
M 2034 4750 
Q 2819 4750 3233 4129 
Q 3647 3509 3647 2328 
Q 3647 1150 3233 529 
Q 2819 -91 2034 -91 
Q 1250 -91 836 529 
Q 422 1150 422 2328 
Q 422 3509 836 4129 
Q 1250 4750 2034 4750 
z
" transform="scale(0.015625)"/>
        <path id="DejaVuSans-2e" d="M 684 794 
L 1344 794 
L 1344 0 
L 684 0 
L 684 794 
z
" transform="scale(0.015625)"/>
       </defs>
       <use xlink:href="#DejaVuSans-30"/>
       <use xlink:href="#DejaVuSans-2e" x="63.623047"/>
       <use xlink:href="#DejaVuSans-30" x="95.410156"/>
       <use xlink:href="#DejaVuSans-30" x="159.033203"/>
      </g>
     </g>
    </g>
    <g id="xtick_2">
     <g id="line2d_3">
      <path d="M 219.939597 256.32 
L 219.939597 34.56 
" clip-path="url(#pf5bb1fcbc4)" style="fill: none; stroke: #b0b0b0; stroke-width: 0.8; stroke-linecap: square"/>
     </g>
     <g id="line2d_4">
      <g>
       <use xlink:href="#m57e0a2d4fd" x="219.939597" y="256.32" style="stroke: #000000; stroke-width: 0.8"/>
      </g>
     </g>
     <g id="text_2">
      <!-- 0.02 -->
      <g transform="translate(208.806784 270.918437) scale(0.1 -0.1)">
       <defs>
        <path id="DejaVuSans-32" d="M 1228 531 
L 3431 531 
L 3431 0 
L 469 0 
L 469 531 
Q 828 903 1448 1529 
Q 2069 2156 2228 2338 
Q 2531 2678 2651 2914 
Q 2772 3150 2772 3378 
Q 2772 3750 2511 3984 
Q 2250 4219 1831 4219 
Q 1534 4219 1204 4116 
Q 875 4013 500 3803 
L 500 4441 
Q 881 4594 1212 4672 
Q 1544 4750 1819 4750 
Q 2544 4750 2975 4387 
Q 3406 4025 3406 3419 
Q 3406 3131 3298 2873 
Q 3191 2616 2906 2266 
Q 2828 2175 2409 1742 
Q 1991 1309 1228 531 
z
" transform="scale(0.015625)"/>
       </defs>
       <use xlink:href="#DejaVuSans-30"/>
       <use xlink:href="#DejaVuSans-2e" x="63.623047"/>
       <use xlink:href="#DejaVuSans-30" x="95.410156"/>
       <use xlink:href="#DejaVuSans-32" x="159.033203"/>
      </g>
     </g>
    </g>
    <g id="xtick_3">
     <g id="line2d_5">
      <path d="M 301.44283 256.32 
L 301.44283 34.56 
" clip-path="url(#pf5bb1fcbc4)" style="fill: none; stroke: #b0b0b0; stroke-width: 0.8; stroke-linecap: square"/>
     </g>
     <g id="line2d_6">
      <g>
       <use xlink:href="#m57e0a2d4fd" x="301.44283" y="256.32" style="stroke: #000000; stroke-width: 0.8"/>
      </g>
     </g>
     <g id="text_3">
      <!-- 0.04 -->
      <g transform="translate(290.310017 270.918437) scale(0.1 -0.1)">
       <defs>
        <path id="DejaVuSans-34" d="M 2419 4116 
L 825 1625 
L 2419 1625 
L 2419 4116 
z
M 2253 4666 
L 3047 4666 
L 3047 1625 
L 3713 1625 
L 3713 1100 
L 3047 1100 
L 3047 0 
L 2419 0 
L 2419 1100 
L 313 1100 
L 313 1709 
L 2253 4666 
z
" transform="scale(0.015625)"/>
       </defs>
       <use xlink:href="#DejaVuSans-30"/>
       <use xlink:href="#DejaVuSans-2e" x="63.623047"/>
       <use xlink:href="#DejaVuSans-30" x="95.410156"/>
       <use xlink:href="#DejaVuSans-34" x="159.033203"/>
      </g>
     </g>
    </g>
    <g id="xtick_4">
     <g id="line2d_7">
      <path d="M 382.946063 256.32 
L 382.946063 34.56 
" clip-path="url(#pf5bb1fcbc4)" style="fill: none; stroke: #b0b0b0; stroke-width: 0.8; stroke-linecap: square"/>
     </g>
     <g id="line2d_8">
      <g>
       <use xlink:href="#m57e0a2d4fd" x="382.946063" y="256.32" style="stroke: #000000; stroke-width: 0.8"/>
      </g>
     </g>
     <g id="text_4">
      <!-- 0.06 -->
      <g transform="translate(371.813251 270.918437) scale(0.1 -0.1)">
       <defs>
        <path id="DejaVuSans-36" d="M 2113 2584 
Q 1688 2584 1439 2293 
Q 1191 2003 1191 1497 
Q 1191 994 1439 701 
Q 1688 409 2113 409 
Q 2538 409 2786 701 
Q 3034 994 3034 1497 
Q 3034 2003 2786 2293 
Q 2538 2584 2113 2584 
z
M 3366 4563 
L 3366 3988 
Q 3128 4100 2886 4159 
Q 2644 4219 2406 4219 
Q 1781 4219 1451 3797 
Q 1122 3375 1075 2522 
Q 1259 2794 1537 2939 
Q 1816 3084 2150 3084 
Q 2853 3084 3261 2657 
Q 3669 2231 3669 1497 
Q 3669 778 3244 343 
Q 2819 -91 2113 -91 
Q 1303 -91 875 529 
Q 447 1150 447 2328 
Q 447 3434 972 4092 
Q 1497 4750 2381 4750 
Q 2619 4750 2861 4703 
Q 3103 4656 3366 4563 
z
" transform="scale(0.015625)"/>
       </defs>
       <use xlink:href="#DejaVuSans-30"/>
       <use xlink:href="#DejaVuSans-2e" x="63.623047"/>
       <use xlink:href="#DejaVuSans-30" x="95.410156"/>
       <use xlink:href="#DejaVuSans-36" x="159.033203"/>
      </g>
     </g>
    </g>
    <g id="xtick_5">
     <g id="line2d_9">
      <path d="M 464.449296 256.32 
L 464.449296 34.56 
" clip-path="url(#pf5bb1fcbc4)" style="fill: none; stroke: #b0b0b0; stroke-width: 0.8; stroke-linecap: square"/>
     </g>
     <g id="line2d_10">
      <g>
       <use xlink:href="#m57e0a2d4fd" x="464.449296" y="256.32" style="stroke: #000000; stroke-width: 0.8"/>
      </g>
     </g>
     <g id="text_5">
      <!-- 0.08 -->
      <g transform="translate(453.316484 270.918437) scale(0.1 -0.1)">
       <defs>
        <path id="DejaVuSans-38" d="M 2034 2216 
Q 1584 2216 1326 1975 
Q 1069 1734 1069 1313 
Q 1069 891 1326 650 
Q 1584 409 2034 409 
Q 2484 409 2743 651 
Q 3003 894 3003 1313 
Q 3003 1734 2745 1975 
Q 2488 2216 2034 2216 
z
M 1403 2484 
Q 997 2584 770 2862 
Q 544 3141 544 3541 
Q 544 4100 942 4425 
Q 1341 4750 2034 4750 
Q 2731 4750 3128 4425 
Q 3525 4100 3525 3541 
Q 3525 3141 3298 2862 
Q 3072 2584 2669 2484 
Q 3125 2378 3379 2068 
Q 3634 1759 3634 1313 
Q 3634 634 3220 271 
Q 2806 -91 2034 -91 
Q 1263 -91 848 271 
Q 434 634 434 1313 
Q 434 1759 690 2068 
Q 947 2378 1403 2484 
z
M 1172 3481 
Q 1172 3119 1398 2916 
Q 1625 2713 2034 2713 
Q 2441 2713 2670 2916 
Q 2900 3119 2900 3481 
Q 2900 3844 2670 4047 
Q 2441 4250 2034 4250 
Q 1625 4250 1398 4047 
Q 1172 3844 1172 3481 
z
" transform="scale(0.015625)"/>
       </defs>
       <use xlink:href="#DejaVuSans-30"/>
       <use xlink:href="#DejaVuSans-2e" x="63.623047"/>
       <use xlink:href="#DejaVuSans-30" x="95.410156"/>
       <use xlink:href="#DejaVuSans-38" x="159.033203"/>
      </g>
     </g>
    </g>
    <g id="xtick_6">
     <g id="line2d_11">
      <path d="M 545.952529 256.32 
L 545.952529 34.56 
" clip-path="url(#pf5bb1fcbc4)" style="fill: none; stroke: #b0b0b0; stroke-width: 0.8; stroke-linecap: square"/>
     </g>
     <g id="line2d_12">
      <g>
       <use xlink:href="#m57e0a2d4fd" x="545.952529" y="256.32" style="stroke: #000000; stroke-width: 0.8"/>
      </g>
     </g>
     <g id="text_6">
      <!-- 0.10 -->
      <g transform="translate(534.819717 270.918437) scale(0.1 -0.1)">
       <defs>
        <path id="DejaVuSans-31" d="M 794 531 
L 1825 531 
L 1825 4091 
L 703 3866 
L 703 4441 
L 1819 4666 
L 2450 4666 
L 2450 531 
L 3481 531 
L 3481 0 
L 794 0 
L 794 531 
z
" transform="scale(0.015625)"/>
       </defs>
       <use xlink:href="#DejaVuSans-30"/>
       <use xlink:href="#DejaVuSans-2e" x="63.623047"/>
       <use xlink:href="#DejaVuSans-31" x="95.410156"/>
       <use xlink:href="#DejaVuSans-30" x="159.033203"/>
      </g>
     </g>
    </g>
    <g id="xtick_7">
     <g id="line2d_13">
      <path d="M 627.455763 256.32 
L 627.455763 34.56 
" clip-path="url(#pf5bb1fcbc4)" style="fill: none; stroke: #b0b0b0; stroke-width: 0.8; stroke-linecap: square"/>
     </g>
     <g id="line2d_14">
      <g>
       <use xlink:href="#m57e0a2d4fd" x="627.455763" y="256.32" style="stroke: #000000; stroke-width: 0.8"/>
      </g>
     </g>
     <g id="text_7">
      <!-- 0.12 -->
      <g transform="translate(616.32295 270.918437) scale(0.1 -0.1)">
       <use xlink:href="#DejaVuSans-30"/>
       <use xlink:href="#DejaVuSans-2e" x="63.623047"/>
       <use xlink:href="#DejaVuSans-31" x="95.410156"/>
       <use xlink:href="#DejaVuSans-32" x="159.033203"/>
      </g>
     </g>
    </g>
    <g id="xtick_8">
     <g id="line2d_15">
      <path d="M 708.958996 256.32 
L 708.958996 34.56 
" clip-path="url(#pf5bb1fcbc4)" style="fill: none; stroke: #b0b0b0; stroke-width: 0.8; stroke-linecap: square"/>
     </g>
     <g id="line2d_16">
      <g>
       <use xlink:href="#m57e0a2d4fd" x="708.958996" y="256.32" style="stroke: #000000; stroke-width: 0.8"/>
      </g>
     </g>
     <g id="text_8">
      <!-- 0.14 -->
      <g transform="translate(697.826183 270.918437) scale(0.1 -0.1)">
       <use xlink:href="#DejaVuSans-30"/>
       <use xlink:href="#DejaVuSans-2e" x="63.623047"/>
       <use xlink:href="#DejaVuSans-31" x="95.410156"/>
       <use xlink:href="#DejaVuSans-34" x="159.033203"/>
      </g>
     </g>
    </g>
    <g id="text_9">
     <!-- Zeit $t$ [s] -->
     <g transform="translate(421.3 284.596563) scale(0.1 -0.1)">
      <defs>
       <path id="DejaVuSans-5a" d="M 359 4666 
L 4025 4666 
L 4025 4184 
L 1075 531 
L 4097 531 
L 4097 0 
L 288 0 
L 288 481 
L 3238 4134 
L 359 4134 
L 359 4666 
z
" transform="scale(0.015625)"/>
       <path id="DejaVuSans-65" d="M 3597 1894 
L 3597 1613 
L 953 1613 
Q 991 1019 1311 708 
Q 1631 397 2203 397 
Q 2534 397 2845 478 
Q 3156 559 3463 722 
L 3463 178 
Q 3153 47 2828 -22 
Q 2503 -91 2169 -91 
Q 1331 -91 842 396 
Q 353 884 353 1716 
Q 353 2575 817 3079 
Q 1281 3584 2069 3584 
Q 2775 3584 3186 3129 
Q 3597 2675 3597 1894 
z
M 3022 2063 
Q 3016 2534 2758 2815 
Q 2500 3097 2075 3097 
Q 1594 3097 1305 2825 
Q 1016 2553 972 2059 
L 3022 2063 
z
" transform="scale(0.015625)"/>
       <path id="DejaVuSans-69" d="M 603 3500 
L 1178 3500 
L 1178 0 
L 603 0 
L 603 3500 
z
M 603 4863 
L 1178 4863 
L 1178 4134 
L 603 4134 
L 603 4863 
z
" transform="scale(0.015625)"/>
       <path id="DejaVuSans-74" d="M 1172 4494 
L 1172 3500 
L 2356 3500 
L 2356 3053 
L 1172 3053 
L 1172 1153 
Q 1172 725 1289 603 
Q 1406 481 1766 481 
L 2356 481 
L 2356 0 
L 1766 0 
Q 1100 0 847 248 
Q 594 497 594 1153 
L 594 3053 
L 172 3053 
L 172 3500 
L 594 3500 
L 594 4494 
L 1172 4494 
z
" transform="scale(0.015625)"/>
       <path id="DejaVuSans-20" transform="scale(0.015625)"/>
       <path id="DejaVuSans-Oblique-74" d="M 2706 3500 
L 2619 3053 
L 1472 3053 
L 1100 1153 
Q 1081 1047 1072 975 
Q 1063 903 1063 863 
Q 1063 663 1183 572 
Q 1303 481 1569 481 
L 2150 481 
L 2053 0 
L 1503 0 
Q 991 0 739 200 
Q 488 400 488 806 
Q 488 878 497 964 
Q 506 1050 525 1153 
L 897 3053 
L 409 3053 
L 500 3500 
L 978 3500 
L 1172 4494 
L 1747 4494 
L 1556 3500 
L 2706 3500 
z
" transform="scale(0.015625)"/>
       <path id="DejaVuSans-5b" d="M 550 4863 
L 1875 4863 
L 1875 4416 
L 1125 4416 
L 1125 -397 
L 1875 -397 
L 1875 -844 
L 550 -844 
L 550 4863 
z
" transform="scale(0.015625)"/>
       <path id="DejaVuSans-73" d="M 2834 3397 
L 2834 2853 
Q 2591 2978 2328 3040 
Q 2066 3103 1784 3103 
Q 1356 3103 1142 2972 
Q 928 2841 928 2578 
Q 928 2378 1081 2264 
Q 1234 2150 1697 2047 
L 1894 2003 
Q 2506 1872 2764 1633 
Q 3022 1394 3022 966 
Q 3022 478 2636 193 
Q 2250 -91 1575 -91 
Q 1294 -91 989 -36 
Q 684 19 347 128 
L 347 722 
Q 666 556 975 473 
Q 1284 391 1588 391 
Q 1994 391 2212 530 
Q 2431 669 2431 922 
Q 2431 1156 2273 1281 
Q 2116 1406 1581 1522 
L 1381 1569 
Q 847 1681 609 1914 
Q 372 2147 372 2553 
Q 372 3047 722 3315 
Q 1072 3584 1716 3584 
Q 2034 3584 2315 3537 
Q 2597 3491 2834 3397 
z
" transform="scale(0.015625)"/>
       <path id="DejaVuSans-5d" d="M 1947 4863 
L 1947 -844 
L 622 -844 
L 622 -397 
L 1369 -397 
L 1369 4416 
L 622 4416 
L 622 4863 
L 1947 4863 
z
" transform="scale(0.015625)"/>
      </defs>
      <use xlink:href="#DejaVuSans-5a" transform="translate(0 0.015625)"/>
      <use xlink:href="#DejaVuSans-65" transform="translate(68.505859 0.015625)"/>
      <use xlink:href="#DejaVuSans-69" transform="translate(130.029297 0.015625)"/>
      <use xlink:href="#DejaVuSans-74" transform="translate(157.8125 0.015625)"/>
      <use xlink:href="#DejaVuSans-20" transform="translate(197.021484 0.015625)"/>
      <use xlink:href="#DejaVuSans-Oblique-74" transform="translate(228.808594 0.015625)"/>
      <use xlink:href="#DejaVuSans-20" transform="translate(268.017578 0.015625)"/>
      <use xlink:href="#DejaVuSans-5b" transform="translate(299.804688 0.015625)"/>
      <use xlink:href="#DejaVuSans-73" transform="translate(338.818359 0.015625)"/>
      <use xlink:href="#DejaVuSans-5d" transform="translate(390.917969 0.015625)"/>
     </g>
    </g>
   </g>
   <g id="matplotlib.axis_2">
    <g id="ytick_1">
     <g id="line2d_17">
      <path d="M 108 246.24 
L 777.6 246.24 
" clip-path="url(#pf5bb1fcbc4)" style="fill: none; stroke: #b0b0b0; stroke-width: 0.8; stroke-linecap: square"/>
     </g>
     <g id="line2d_18">
      <defs>
       <path id="m83408abaf6" d="M 0 0 
L -3.5 0 
" style="stroke: #000000; stroke-width: 0.8"/>
      </defs>
      <g>
       <use xlink:href="#m83408abaf6" x="108" y="246.24" style="stroke: #000000; stroke-width: 0.8"/>
      </g>
     </g>
     <g id="text_10">
      <!-- −1.00 -->
      <g transform="translate(70.354687 250.039219) scale(0.1 -0.1)">
       <defs>
        <path id="DejaVuSans-2212" d="M 678 2272 
L 4684 2272 
L 4684 1741 
L 678 1741 
L 678 2272 
z
" transform="scale(0.015625)"/>
       </defs>
       <use xlink:href="#DejaVuSans-2212"/>
       <use xlink:href="#DejaVuSans-31" x="83.789062"/>
       <use xlink:href="#DejaVuSans-2e" x="147.412109"/>
       <use xlink:href="#DejaVuSans-30" x="179.199219"/>
       <use xlink:href="#DejaVuSans-30" x="242.822266"/>
      </g>
     </g>
    </g>
    <g id="ytick_2">
     <g id="line2d_19">
      <path d="M 108 221.04 
L 777.6 221.04 
" clip-path="url(#pf5bb1fcbc4)" style="fill: none; stroke: #b0b0b0; stroke-width: 0.8; stroke-linecap: square"/>
     </g>
     <g id="line2d_20">
      <g>
       <use xlink:href="#m83408abaf6" x="108" y="221.04" style="stroke: #000000; stroke-width: 0.8"/>
      </g>
     </g>
     <g id="text_11">
      <!-- −0.75 -->
      <g transform="translate(70.354687 224.839219) scale(0.1 -0.1)">
       <defs>
        <path id="DejaVuSans-37" d="M 525 4666 
L 3525 4666 
L 3525 4397 
L 1831 0 
L 1172 0 
L 2766 4134 
L 525 4134 
L 525 4666 
z
" transform="scale(0.015625)"/>
        <path id="DejaVuSans-35" d="M 691 4666 
L 3169 4666 
L 3169 4134 
L 1269 4134 
L 1269 2991 
Q 1406 3038 1543 3061 
Q 1681 3084 1819 3084 
Q 2600 3084 3056 2656 
Q 3513 2228 3513 1497 
Q 3513 744 3044 326 
Q 2575 -91 1722 -91 
Q 1428 -91 1123 -41 
Q 819 9 494 109 
L 494 744 
Q 775 591 1075 516 
Q 1375 441 1709 441 
Q 2250 441 2565 725 
Q 2881 1009 2881 1497 
Q 2881 1984 2565 2268 
Q 2250 2553 1709 2553 
Q 1456 2553 1204 2497 
Q 953 2441 691 2322 
L 691 4666 
z
" transform="scale(0.015625)"/>
       </defs>
       <use xlink:href="#DejaVuSans-2212"/>
       <use xlink:href="#DejaVuSans-30" x="83.789062"/>
       <use xlink:href="#DejaVuSans-2e" x="147.412109"/>
       <use xlink:href="#DejaVuSans-37" x="179.199219"/>
       <use xlink:href="#DejaVuSans-35" x="242.822266"/>
      </g>
     </g>
    </g>
    <g id="ytick_3">
     <g id="line2d_21">
      <path d="M 108 195.84 
L 777.6 195.84 
" clip-path="url(#pf5bb1fcbc4)" style="fill: none; stroke: #b0b0b0; stroke-width: 0.8; stroke-linecap: square"/>
     </g>
     <g id="line2d_22">
      <g>
       <use xlink:href="#m83408abaf6" x="108" y="195.84" style="stroke: #000000; stroke-width: 0.8"/>
      </g>
     </g>
     <g id="text_12">
      <!-- −0.50 -->
      <g transform="translate(70.354687 199.639219) scale(0.1 -0.1)">
       <use xlink:href="#DejaVuSans-2212"/>
       <use xlink:href="#DejaVuSans-30" x="83.789062"/>
       <use xlink:href="#DejaVuSans-2e" x="147.412109"/>
       <use xlink:href="#DejaVuSans-35" x="179.199219"/>
       <use xlink:href="#DejaVuSans-30" x="242.822266"/>
      </g>
     </g>
    </g>
    <g id="ytick_4">
     <g id="line2d_23">
      <path d="M 108 170.64 
L 777.6 170.64 
" clip-path="url(#pf5bb1fcbc4)" style="fill: none; stroke: #b0b0b0; stroke-width: 0.8; stroke-linecap: square"/>
     </g>
     <g id="line2d_24">
      <g>
       <use xlink:href="#m83408abaf6" x="108" y="170.64" style="stroke: #000000; stroke-width: 0.8"/>
      </g>
     </g>
     <g id="text_13">
      <!-- −0.25 -->
      <g transform="translate(70.354687 174.439219) scale(0.1 -0.1)">
       <use xlink:href="#DejaVuSans-2212"/>
       <use xlink:href="#DejaVuSans-30" x="83.789062"/>
       <use xlink:href="#DejaVuSans-2e" x="147.412109"/>
       <use xlink:href="#DejaVuSans-32" x="179.199219"/>
       <use xlink:href="#DejaVuSans-35" x="242.822266"/>
      </g>
     </g>
    </g>
    <g id="ytick_5">
     <g id="line2d_25">
      <path d="M 108 145.44 
L 777.6 145.44 
" clip-path="url(#pf5bb1fcbc4)" style="fill: none; stroke: #b0b0b0; stroke-width: 0.8; stroke-linecap: square"/>
     </g>
     <g id="line2d_26">
      <g>
       <use xlink:href="#m83408abaf6" x="108" y="145.44" style="stroke: #000000; stroke-width: 0.8"/>
      </g>
     </g>
     <g id="text_14">
      <!-- 0.00 -->
      <g transform="translate(78.734375 149.239219) scale(0.1 -0.1)">
       <use xlink:href="#DejaVuSans-30"/>
       <use xlink:href="#DejaVuSans-2e" x="63.623047"/>
       <use xlink:href="#DejaVuSans-30" x="95.410156"/>
       <use xlink:href="#DejaVuSans-30" x="159.033203"/>
      </g>
     </g>
    </g>
    <g id="ytick_6">
     <g id="line2d_27">
      <path d="M 108 120.24 
L 777.6 120.24 
" clip-path="url(#pf5bb1fcbc4)" style="fill: none; stroke: #b0b0b0; stroke-width: 0.8; stroke-linecap: square"/>
     </g>
     <g id="line2d_28">
      <g>
       <use xlink:href="#m83408abaf6" x="108" y="120.24" style="stroke: #000000; stroke-width: 0.8"/>
      </g>
     </g>
     <g id="text_15">
      <!-- 0.25 -->
      <g transform="translate(78.734375 124.039219) scale(0.1 -0.1)">
       <use xlink:href="#DejaVuSans-30"/>
       <use xlink:href="#DejaVuSans-2e" x="63.623047"/>
       <use xlink:href="#DejaVuSans-32" x="95.410156"/>
       <use xlink:href="#DejaVuSans-35" x="159.033203"/>
      </g>
     </g>
    </g>
    <g id="ytick_7">
     <g id="line2d_29">
      <path d="M 108 95.04 
L 777.6 95.04 
" clip-path="url(#pf5bb1fcbc4)" style="fill: none; stroke: #b0b0b0; stroke-width: 0.8; stroke-linecap: square"/>
     </g>
     <g id="line2d_30">
      <g>
       <use xlink:href="#m83408abaf6" x="108" y="95.04" style="stroke: #000000; stroke-width: 0.8"/>
      </g>
     </g>
     <g id="text_16">
      <!-- 0.50 -->
      <g transform="translate(78.734375 98.839219) scale(0.1 -0.1)">
       <use xlink:href="#DejaVuSans-30"/>
       <use xlink:href="#DejaVuSans-2e" x="63.623047"/>
       <use xlink:href="#DejaVuSans-35" x="95.410156"/>
       <use xlink:href="#DejaVuSans-30" x="159.033203"/>
      </g>
     </g>
    </g>
    <g id="ytick_8">
     <g id="line2d_31">
      <path d="M 108 69.84 
L 777.6 69.84 
" clip-path="url(#pf5bb1fcbc4)" style="fill: none; stroke: #b0b0b0; stroke-width: 0.8; stroke-linecap: square"/>
     </g>
     <g id="line2d_32">
      <g>
       <use xlink:href="#m83408abaf6" x="108" y="69.84" style="stroke: #000000; stroke-width: 0.8"/>
      </g>
     </g>
     <g id="text_17">
      <!-- 0.75 -->
      <g transform="translate(78.734375 73.639219) scale(0.1 -0.1)">
       <use xlink:href="#DejaVuSans-30"/>
       <use xlink:href="#DejaVuSans-2e" x="63.623047"/>
       <use xlink:href="#DejaVuSans-37" x="95.410156"/>
       <use xlink:href="#DejaVuSans-35" x="159.033203"/>
      </g>
     </g>
    </g>
    <g id="ytick_9">
     <g id="line2d_33">
      <path d="M 108 44.64 
L 777.6 44.64 
" clip-path="url(#pf5bb1fcbc4)" style="fill: none; stroke: #b0b0b0; stroke-width: 0.8; stroke-linecap: square"/>
     </g>
     <g id="line2d_34">
      <g>
       <use xlink:href="#m83408abaf6" x="108" y="44.64" style="stroke: #000000; stroke-width: 0.8"/>
      </g>
     </g>
     <g id="text_18">
      <!-- 1.00 -->
      <g transform="translate(78.734375 48.439219) scale(0.1 -0.1)">
       <use xlink:href="#DejaVuSans-31"/>
       <use xlink:href="#DejaVuSans-2e" x="63.623047"/>
       <use xlink:href="#DejaVuSans-30" x="95.410156"/>
       <use xlink:href="#DejaVuSans-30" x="159.033203"/>
      </g>
     </g>
    </g>
    <g id="text_19">
     <!-- Funktionswert $y$ -->
     <g transform="translate(64.254687 185.49) rotate(-90) scale(0.1 -0.1)">
      <defs>
       <path id="DejaVuSans-46" d="M 628 4666 
L 3309 4666 
L 3309 4134 
L 1259 4134 
L 1259 2759 
L 3109 2759 
L 3109 2228 
L 1259 2228 
L 1259 0 
L 628 0 
L 628 4666 
z
" transform="scale(0.015625)"/>
       <path id="DejaVuSans-75" d="M 544 1381 
L 544 3500 
L 1119 3500 
L 1119 1403 
Q 1119 906 1312 657 
Q 1506 409 1894 409 
Q 2359 409 2629 706 
Q 2900 1003 2900 1516 
L 2900 3500 
L 3475 3500 
L 3475 0 
L 2900 0 
L 2900 538 
Q 2691 219 2414 64 
Q 2138 -91 1772 -91 
Q 1169 -91 856 284 
Q 544 659 544 1381 
z
M 1991 3584 
L 1991 3584 
z
" transform="scale(0.015625)"/>
       <path id="DejaVuSans-6e" d="M 3513 2113 
L 3513 0 
L 2938 0 
L 2938 2094 
Q 2938 2591 2744 2837 
Q 2550 3084 2163 3084 
Q 1697 3084 1428 2787 
Q 1159 2491 1159 1978 
L 1159 0 
L 581 0 
L 581 3500 
L 1159 3500 
L 1159 2956 
Q 1366 3272 1645 3428 
Q 1925 3584 2291 3584 
Q 2894 3584 3203 3211 
Q 3513 2838 3513 2113 
z
" transform="scale(0.015625)"/>
       <path id="DejaVuSans-6b" d="M 581 4863 
L 1159 4863 
L 1159 1991 
L 2875 3500 
L 3609 3500 
L 1753 1863 
L 3688 0 
L 2938 0 
L 1159 1709 
L 1159 0 
L 581 0 
L 581 4863 
z
" transform="scale(0.015625)"/>
       <path id="DejaVuSans-6f" d="M 1959 3097 
Q 1497 3097 1228 2736 
Q 959 2375 959 1747 
Q 959 1119 1226 758 
Q 1494 397 1959 397 
Q 2419 397 2687 759 
Q 2956 1122 2956 1747 
Q 2956 2369 2687 2733 
Q 2419 3097 1959 3097 
z
M 1959 3584 
Q 2709 3584 3137 3096 
Q 3566 2609 3566 1747 
Q 3566 888 3137 398 
Q 2709 -91 1959 -91 
Q 1206 -91 779 398 
Q 353 888 353 1747 
Q 353 2609 779 3096 
Q 1206 3584 1959 3584 
z
" transform="scale(0.015625)"/>
       <path id="DejaVuSans-77" d="M 269 3500 
L 844 3500 
L 1563 769 
L 2278 3500 
L 2956 3500 
L 3675 769 
L 4391 3500 
L 4966 3500 
L 4050 0 
L 3372 0 
L 2619 2869 
L 1863 0 
L 1184 0 
L 269 3500 
z
" transform="scale(0.015625)"/>
       <path id="DejaVuSans-72" d="M 2631 2963 
Q 2534 3019 2420 3045 
Q 2306 3072 2169 3072 
Q 1681 3072 1420 2755 
Q 1159 2438 1159 1844 
L 1159 0 
L 581 0 
L 581 3500 
L 1159 3500 
L 1159 2956 
Q 1341 3275 1631 3429 
Q 1922 3584 2338 3584 
Q 2397 3584 2469 3576 
Q 2541 3569 2628 3553 
L 2631 2963 
z
" transform="scale(0.015625)"/>
       <path id="DejaVuSans-Oblique-79" d="M 1588 -325 
Q 1188 -997 936 -1164 
Q 684 -1331 294 -1331 
L -159 -1331 
L -63 -850 
L 269 -850 
Q 509 -850 678 -719 
Q 847 -588 1056 -206 
L 1234 128 
L 459 3500 
L 1069 3500 
L 1650 819 
L 3256 3500 
L 3859 3500 
L 1588 -325 
z
" transform="scale(0.015625)"/>
      </defs>
      <use xlink:href="#DejaVuSans-46" transform="translate(0 0.015625)"/>
      <use xlink:href="#DejaVuSans-75" transform="translate(57.519531 0.015625)"/>
      <use xlink:href="#DejaVuSans-6e" transform="translate(120.898438 0.015625)"/>
      <use xlink:href="#DejaVuSans-6b" transform="translate(184.277344 0.015625)"/>
      <use xlink:href="#DejaVuSans-74" transform="translate(242.1875 0.015625)"/>
      <use xlink:href="#DejaVuSans-69" transform="translate(281.396484 0.015625)"/>
      <use xlink:href="#DejaVuSans-6f" transform="translate(309.179688 0.015625)"/>
      <use xlink:href="#DejaVuSans-6e" transform="translate(370.361328 0.015625)"/>
      <use xlink:href="#DejaVuSans-73" transform="translate(433.740234 0.015625)"/>
      <use xlink:href="#DejaVuSans-77" transform="translate(485.839844 0.015625)"/>
      <use xlink:href="#DejaVuSans-65" transform="translate(567.626953 0.015625)"/>
      <use xlink:href="#DejaVuSans-72" transform="translate(629.150391 0.015625)"/>
      <use xlink:href="#DejaVuSans-74" transform="translate(670.263672 0.015625)"/>
      <use xlink:href="#DejaVuSans-20" transform="translate(709.472656 0.015625)"/>
      <use xlink:href="#DejaVuSans-Oblique-79" transform="translate(741.259766 0.015625)"/>
     </g>
    </g>
   </g>
   <g id="line2d_35">
    <path d="M 138.436364 145.44 
L 140.98334 146.048585 
L 143.530316 147.718981 
L 146.077292 150.007488 
L 148.624268 152.246287 
L 151.171244 153.641227 
L 153.71822 153.390487 
L 156.265196 150.808667 
L 158.812172 145.44 
L 161.359148 137.145598 
L 163.906124 126.152755 
L 166.4531 113.05898 
L 169.000076 98.789014 
L 171.547052 84.508975 
L 174.094028 71.507116 
L 176.641004 61.055018 
L 179.18798 54.265543 
L 181.734956 51.964563 
L 184.281932 54.591924 
L 186.828908 62.143796 
L 189.375884 74.163636 
L 191.92286 89.438521 
L 194.469836 106.86551 
L 197.016812 125.774896 
L 199.563789 145.44 
L 202.110765 165.105104 
L 204.657741 184.01449 
L 207.204717 201.441479 
L 209.751693 216.716364 
L 212.298669 229.252137 
L 214.845645 238.567057 
L 217.392621 244.303156 
L 219.939597 246.24 
L 222.486573 244.303156 
L 225.033549 238.567057 
L 227.580525 229.252137 
L 230.127501 216.716364 
L 232.674477 201.441479 
L 235.221453 184.01449 
L 237.768429 165.105104 
L 240.315405 145.44 
L 242.862381 125.774896 
L 245.409357 106.86551 
L 247.956333 89.438521 
L 250.503309 74.163636 
L 253.050285 61.627863 
L 255.597261 52.312943 
L 258.144237 46.576844 
L 260.691213 44.64 
L 263.238189 46.576844 
L 265.785165 52.312943 
L 268.332141 61.627863 
L 270.879118 74.163636 
L 273.426094 89.438521 
L 275.97307 106.86551 
L 278.520046 125.774896 
L 281.067022 145.44 
L 283.613998 165.105104 
L 286.160974 184.01449 
L 288.70795 201.441479 
L 291.254926 216.716364 
L 293.801902 228.736204 
L 296.348878 236.288076 
L 298.895854 238.915437 
L 301.44283 236.614457 
L 303.989806 229.824982 
L 306.536782 219.372884 
L 309.083758 206.371025 
L 311.630734 192.090986 
L 314.17771 177.82102 
L 316.724686 164.727245 
L 319.271662 153.734402 
L 321.818638 145.44 
L 324.365614 140.071333 
L 326.91259 137.489513 
L 329.459566 137.238773 
L 332.006542 138.633713 
L 334.553518 140.872512 
L 337.100494 143.161019 
L 339.647471 144.831415 
" clip-path="url(#pf5bb1fcbc4)" style="fill: none; stroke: #0000ff; stroke-width: 1.5; stroke-linecap: square"/>
   </g>
   <g id="line2d_36">
    <path d="M 138.436364 145.44 
L 140.98334 144.819492 
L 143.530316 142.973248 
L 146.077292 139.946729 
L 148.624268 135.814457 
L 151.171244 130.678182 
L 153.71822 124.664377 
L 156.265196 117.921121 
L 158.812172 110.614457 
L 161.359148 102.924297 
L 163.906124 95.04 
L 166.4531 87.155703 
L 169.000076 79.465543 
L 171.547052 72.158879 
L 174.094028 65.415623 
L 176.641004 59.401818 
L 179.18798 54.265543 
L 181.734956 50.133271 
L 184.281932 47.106752 
L 186.828908 45.260508 
L 189.375884 44.64 
L 191.92286 44.64 
L 194.469836 44.64 
L 197.016812 44.64 
L 199.563789 44.64 
L 202.110765 44.64 
L 204.657741 44.64 
L 207.204717 44.64 
L 209.751693 44.64 
L 212.298669 44.64 
L 214.845645 44.64 
L 217.392621 44.64 
L 219.939597 44.64 
L 222.486573 44.64 
L 225.033549 44.64 
L 227.580525 44.64 
L 230.127501 44.64 
L 232.674477 44.64 
L 235.221453 44.64 
L 237.768429 44.64 
L 240.315405 44.64 
L 242.862381 44.64 
L 245.409357 44.64 
L 247.956333 44.64 
L 250.503309 44.64 
L 253.050285 44.64 
L 255.597261 44.64 
L 258.144237 44.64 
L 260.691213 44.64 
L 263.238189 44.64 
L 265.785165 44.64 
L 268.332141 44.64 
L 270.879118 44.64 
L 273.426094 44.64 
L 275.97307 44.64 
L 278.520046 44.64 
L 281.067022 44.64 
L 283.613998 44.64 
L 286.160974 44.64 
L 288.70795 44.64 
L 291.254926 44.64 
L 293.801902 45.260508 
L 296.348878 47.106752 
L 298.895854 50.133271 
L 301.44283 54.265543 
L 303.989806 59.401818 
L 306.536782 65.415623 
L 309.083758 72.158879 
L 311.630734 79.465543 
L 314.17771 87.155703 
L 316.724686 95.04 
L 319.271662 102.924297 
L 321.818638 110.614457 
L 324.365614 117.921121 
L 326.91259 124.664377 
L 329.459566 130.678182 
L 332.006542 135.814457 
L 334.553518 139.946729 
L 337.100494 142.973248 
L 339.647471 144.819492 
" clip-path="url(#pf5bb1fcbc4)" style="fill: none; stroke-dasharray: 1.5,2.475; stroke-dashoffset: 0; stroke: #ff0000; stroke-width: 1.5"/>
   </g>
   <g id="line2d_37">
    <path d="M 342.194447 145.44 
L 344.741423 146.048585 
L 347.288399 147.718981 
L 349.835375 150.007488 
L 352.382351 152.246287 
L 354.929327 153.641227 
L 357.476303 153.390487 
L 360.023279 150.808667 
L 362.570255 145.44 
L 365.117231 137.145598 
L 367.664207 126.152755 
L 370.211183 113.05898 
L 372.758159 98.789014 
L 375.305135 84.508975 
L 377.852111 71.507116 
L 380.399087 61.055018 
L 382.946063 54.265543 
L 385.493039 51.964563 
L 388.040015 54.591924 
L 390.586991 62.143796 
L 393.133967 74.163636 
L 395.680943 89.438521 
L 398.227919 106.86551 
L 400.774895 125.774896 
L 403.321871 145.44 
L 405.868847 165.105104 
L 408.415824 184.01449 
L 410.9628 201.441479 
L 413.509776 216.716364 
L 416.056752 229.252137 
L 418.603728 238.567057 
L 421.150704 244.303156 
L 423.69768 246.24 
L 426.244656 244.303156 
L 428.791632 238.567057 
L 431.338608 229.252137 
L 433.885584 216.716364 
L 436.43256 201.441479 
L 438.979536 184.01449 
L 441.526512 165.105104 
L 444.073488 145.44 
L 446.620464 125.774896 
L 449.16744 106.86551 
L 451.714416 89.438521 
L 454.261392 74.163636 
L 456.808368 61.627863 
L 459.355344 52.312943 
L 461.90232 46.576844 
L 464.449296 44.64 
L 466.996272 46.576844 
L 469.543248 52.312943 
L 472.090224 61.627863 
L 474.6372 74.163636 
L 477.184176 89.438521 
L 479.731153 106.86551 
L 482.278129 125.774896 
L 484.825105 145.44 
L 487.372081 165.105104 
L 489.919057 184.01449 
L 492.466033 201.441479 
L 495.013009 216.716364 
L 497.559985 228.736204 
L 500.106961 236.288076 
L 502.653937 238.915437 
L 505.200913 236.614457 
L 507.747889 229.824982 
L 510.294865 219.372884 
L 512.841841 206.371025 
L 515.388817 192.090986 
L 517.935793 177.82102 
L 520.482769 164.727245 
L 523.029745 153.734402 
L 525.576721 145.44 
L 528.123697 140.071333 
L 530.670673 137.489513 
L 533.217649 137.238773 
L 535.764625 138.633713 
L 538.311601 140.872512 
L 540.858577 143.161019 
L 543.405553 144.831415 
" clip-path="url(#pf5bb1fcbc4)" style="fill: none; stroke: #0000ff; stroke-width: 1.5; stroke-linecap: square"/>
   </g>
   <g id="line2d_38">
    <path d="M 342.194447 145.44 
L 344.741423 144.819492 
L 347.288399 142.973248 
L 349.835375 139.946729 
L 352.382351 135.814457 
L 354.929327 130.678182 
L 357.476303 124.664377 
L 360.023279 117.921121 
L 362.570255 110.614457 
L 365.117231 102.924297 
L 367.664207 95.04 
L 370.211183 87.155703 
L 372.758159 79.465543 
L 375.305135 72.158879 
L 377.852111 65.415623 
L 380.399087 59.401818 
L 382.946063 54.265543 
L 385.493039 50.133271 
L 388.040015 47.106752 
L 390.586991 45.260508 
L 393.133967 44.64 
L 395.680943 44.64 
L 398.227919 44.64 
L 400.774895 44.64 
L 403.321871 44.64 
L 405.868847 44.64 
L 408.415824 44.64 
L 410.9628 44.64 
L 413.509776 44.64 
L 416.056752 44.64 
L 418.603728 44.64 
L 421.150704 44.64 
L 423.69768 44.64 
L 426.244656 44.64 
L 428.791632 44.64 
L 431.338608 44.64 
L 433.885584 44.64 
L 436.43256 44.64 
L 438.979536 44.64 
L 441.526512 44.64 
L 444.073488 44.64 
L 446.620464 44.64 
L 449.16744 44.64 
L 451.714416 44.64 
L 454.261392 44.64 
L 456.808368 44.64 
L 459.355344 44.64 
L 461.90232 44.64 
L 464.449296 44.64 
L 466.996272 44.64 
L 469.543248 44.64 
L 472.090224 44.64 
L 474.6372 44.64 
L 477.184176 44.64 
L 479.731153 44.64 
L 482.278129 44.64 
L 484.825105 44.64 
L 487.372081 44.64 
L 489.919057 44.64 
L 492.466033 44.64 
L 495.013009 44.64 
L 497.559985 45.260508 
L 500.106961 47.106752 
L 502.653937 50.133271 
L 505.200913 54.265543 
L 507.747889 59.401818 
L 510.294865 65.415623 
L 512.841841 72.158879 
L 515.388817 79.465543 
L 517.935793 87.155703 
L 520.482769 95.04 
L 523.029745 102.924297 
L 525.576721 110.614457 
L 528.123697 117.921121 
L 530.670673 124.664377 
L 533.217649 130.678182 
L 535.764625 135.814457 
L 538.311601 139.946729 
L 540.858577 142.973248 
L 543.405553 144.819492 
" clip-path="url(#pf5bb1fcbc4)" style="fill: none; stroke-dasharray: 1.5,2.475; stroke-dashoffset: 0; stroke: #ff0000; stroke-width: 1.5"/>
   </g>
   <g id="line2d_39">
    <path d="M 545.952529 145.44 
L 548.499506 146.048585 
L 551.046482 147.718981 
L 553.593458 150.007488 
L 556.140434 152.246287 
L 558.68741 153.641227 
L 561.234386 153.390487 
L 563.781362 150.808667 
L 566.328338 145.44 
L 568.875314 137.145598 
L 571.42229 126.152755 
L 573.969266 113.05898 
L 576.516242 98.789014 
L 579.063218 84.508975 
L 581.610194 71.507116 
L 584.15717 61.055018 
L 586.704146 54.265543 
L 589.251122 51.964563 
L 591.798098 54.591924 
L 594.345074 62.143796 
L 596.89205 74.163636 
L 599.439026 89.438521 
L 601.986002 106.86551 
L 604.532978 125.774896 
L 607.079954 145.44 
L 609.62693 165.105104 
L 612.173906 184.01449 
L 614.720882 201.441479 
L 617.267859 216.716364 
L 619.814835 229.252137 
L 622.361811 238.567057 
L 624.908787 244.303156 
L 627.455763 246.24 
L 630.002739 244.303156 
L 632.549715 238.567057 
L 635.096691 229.252137 
L 637.643667 216.716364 
L 640.190643 201.441479 
L 642.737619 184.01449 
L 645.284595 165.105104 
L 647.831571 145.44 
L 650.378547 125.774896 
L 652.925523 106.86551 
L 655.472499 89.438521 
L 658.019475 74.163636 
L 660.566451 61.627863 
L 663.113427 52.312943 
L 665.660403 46.576844 
L 668.207379 44.64 
L 670.754355 46.576844 
L 673.301331 52.312943 
L 675.848307 61.627863 
L 678.395283 74.163636 
L 680.942259 89.438521 
L 683.489235 106.86551 
L 686.036211 125.774896 
L 688.583188 145.44 
L 691.130164 165.105104 
L 693.67714 184.01449 
L 696.224116 201.441479 
L 698.771092 216.716364 
L 701.318068 228.736204 
L 703.865044 236.288076 
L 706.41202 238.915437 
L 708.958996 236.614457 
L 711.505972 229.824982 
L 714.052948 219.372884 
L 716.599924 206.371025 
L 719.1469 192.090986 
L 721.693876 177.82102 
L 724.240852 164.727245 
L 726.787828 153.734402 
L 729.334804 145.44 
L 731.88178 140.071333 
L 734.428756 137.489513 
L 736.975732 137.238773 
L 739.522708 138.633713 
L 742.069684 140.872512 
L 744.61666 143.161019 
L 747.163636 144.831415 
" clip-path="url(#pf5bb1fcbc4)" style="fill: none; stroke: #0000ff; stroke-width: 1.5; stroke-linecap: square"/>
   </g>
   <g id="line2d_40">
    <path d="M 545.952529 145.44 
L 548.499506 144.819492 
L 551.046482 142.973248 
L 553.593458 139.946729 
L 556.140434 135.814457 
L 558.68741 130.678182 
L 561.234386 124.664377 
L 563.781362 117.921121 
L 566.328338 110.614457 
L 568.875314 102.924297 
L 571.42229 95.04 
L 573.969266 87.155703 
L 576.516242 79.465543 
L 579.063218 72.158879 
L 581.610194 65.415623 
L 584.15717 59.401818 
L 586.704146 54.265543 
L 589.251122 50.133271 
L 591.798098 47.106752 
L 594.345074 45.260508 
L 596.89205 44.64 
L 599.439026 44.64 
L 601.986002 44.64 
L 604.532978 44.64 
L 607.079954 44.64 
L 609.62693 44.64 
L 612.173906 44.64 
L 614.720882 44.64 
L 617.267859 44.64 
L 619.814835 44.64 
L 622.361811 44.64 
L 624.908787 44.64 
L 627.455763 44.64 
L 630.002739 44.64 
L 632.549715 44.64 
L 635.096691 44.64 
L 637.643667 44.64 
L 640.190643 44.64 
L 642.737619 44.64 
L 645.284595 44.64 
L 647.831571 44.64 
L 650.378547 44.64 
L 652.925523 44.64 
L 655.472499 44.64 
L 658.019475 44.64 
L 660.566451 44.64 
L 663.113427 44.64 
L 665.660403 44.64 
L 668.207379 44.64 
L 670.754355 44.64 
L 673.301331 44.64 
L 675.848307 44.64 
L 678.395283 44.64 
L 680.942259 44.64 
L 683.489235 44.64 
L 686.036211 44.64 
L 688.583188 44.64 
L 691.130164 44.64 
L 693.67714 44.64 
L 696.224116 44.64 
L 698.771092 44.64 
L 701.318068 45.260508 
L 703.865044 47.106752 
L 706.41202 50.133271 
L 708.958996 54.265543 
L 711.505972 59.401818 
L 714.052948 65.415623 
L 716.599924 72.158879 
L 719.1469 79.465543 
L 721.693876 87.155703 
L 724.240852 95.04 
L 726.787828 102.924297 
L 729.334804 110.614457 
L 731.88178 117.921121 
L 734.428756 124.664377 
L 736.975732 130.678182 
L 739.522708 135.814457 
L 742.069684 139.946729 
L 744.61666 142.973248 
L 747.163636 144.819492 
" clip-path="url(#pf5bb1fcbc4)" style="fill: none; stroke-dasharray: 1.5,2.475; stroke-dashoffset: 0; stroke: #ff0000; stroke-width: 1.5"/>
   </g>
   <g id="patch_3">
    <path d="M 108 256.32 
L 108 34.56 
" style="fill: none; stroke: #000000; stroke-width: 0.8; stroke-linejoin: miter; stroke-linecap: square"/>
   </g>
   <g id="patch_4">
    <path d="M 777.6 256.32 
L 777.6 34.56 
" style="fill: none; stroke: #000000; stroke-width: 0.8; stroke-linejoin: miter; stroke-linecap: square"/>
   </g>
   <g id="patch_5">
    <path d="M 108 256.32 
L 777.6 256.32 
" style="fill: none; stroke: #000000; stroke-width: 0.8; stroke-linejoin: miter; stroke-linecap: square"/>
   </g>
   <g id="patch_6">
    <path d="M 108 34.56 
L 777.6 34.56 
" style="fill: none; stroke: #000000; stroke-width: 0.8; stroke-linejoin: miter; stroke-linecap: square"/>
   </g>
   <g id="legend_1">
    <g id="patch_7">
     <path d="M 677.292187 251.32 
L 770.6 251.32 
Q 772.6 251.32 772.6 249.32 
L 772.6 220.96375 
Q 772.6 218.96375 770.6 218.96375 
L 677.292187 218.96375 
Q 675.292187 218.96375 675.292187 220.96375 
L 675.292187 249.32 
Q 675.292187 251.32 677.292187 251.32 
z
" style="fill: #ffffff; opacity: 0.8; stroke: #cccccc; stroke-linejoin: miter"/>
    </g>
    <g id="line2d_41">
     <path d="M 679.292187 227.062187 
L 689.292187 227.062187 
L 699.292187 227.062187 
" style="fill: none; stroke: #0000ff; stroke-width: 1.5; stroke-linecap: square"/>
    </g>
    <g id="text_20">
     <!-- kond. Signal -->
     <g transform="translate(707.292187 230.562187) scale(0.1 -0.1)">
      <defs>
       <path id="DejaVuSans-64" d="M 2906 2969 
L 2906 4863 
L 3481 4863 
L 3481 0 
L 2906 0 
L 2906 525 
Q 2725 213 2448 61 
Q 2172 -91 1784 -91 
Q 1150 -91 751 415 
Q 353 922 353 1747 
Q 353 2572 751 3078 
Q 1150 3584 1784 3584 
Q 2172 3584 2448 3432 
Q 2725 3281 2906 2969 
z
M 947 1747 
Q 947 1113 1208 752 
Q 1469 391 1925 391 
Q 2381 391 2643 752 
Q 2906 1113 2906 1747 
Q 2906 2381 2643 2742 
Q 2381 3103 1925 3103 
Q 1469 3103 1208 2742 
Q 947 2381 947 1747 
z
" transform="scale(0.015625)"/>
       <path id="DejaVuSans-53" d="M 3425 4513 
L 3425 3897 
Q 3066 4069 2747 4153 
Q 2428 4238 2131 4238 
Q 1616 4238 1336 4038 
Q 1056 3838 1056 3469 
Q 1056 3159 1242 3001 
Q 1428 2844 1947 2747 
L 2328 2669 
Q 3034 2534 3370 2195 
Q 3706 1856 3706 1288 
Q 3706 609 3251 259 
Q 2797 -91 1919 -91 
Q 1588 -91 1214 -16 
Q 841 59 441 206 
L 441 856 
Q 825 641 1194 531 
Q 1563 422 1919 422 
Q 2459 422 2753 634 
Q 3047 847 3047 1241 
Q 3047 1584 2836 1778 
Q 2625 1972 2144 2069 
L 1759 2144 
Q 1053 2284 737 2584 
Q 422 2884 422 3419 
Q 422 4038 858 4394 
Q 1294 4750 2059 4750 
Q 2388 4750 2728 4690 
Q 3069 4631 3425 4513 
z
" transform="scale(0.015625)"/>
       <path id="DejaVuSans-67" d="M 2906 1791 
Q 2906 2416 2648 2759 
Q 2391 3103 1925 3103 
Q 1463 3103 1205 2759 
Q 947 2416 947 1791 
Q 947 1169 1205 825 
Q 1463 481 1925 481 
Q 2391 481 2648 825 
Q 2906 1169 2906 1791 
z
M 3481 434 
Q 3481 -459 3084 -895 
Q 2688 -1331 1869 -1331 
Q 1566 -1331 1297 -1286 
Q 1028 -1241 775 -1147 
L 775 -588 
Q 1028 -725 1275 -790 
Q 1522 -856 1778 -856 
Q 2344 -856 2625 -561 
Q 2906 -266 2906 331 
L 2906 616 
Q 2728 306 2450 153 
Q 2172 0 1784 0 
Q 1141 0 747 490 
Q 353 981 353 1791 
Q 353 2603 747 3093 
Q 1141 3584 1784 3584 
Q 2172 3584 2450 3431 
Q 2728 3278 2906 2969 
L 2906 3500 
L 3481 3500 
L 3481 434 
z
" transform="scale(0.015625)"/>
       <path id="DejaVuSans-61" d="M 2194 1759 
Q 1497 1759 1228 1600 
Q 959 1441 959 1056 
Q 959 750 1161 570 
Q 1363 391 1709 391 
Q 2188 391 2477 730 
Q 2766 1069 2766 1631 
L 2766 1759 
L 2194 1759 
z
M 3341 1997 
L 3341 0 
L 2766 0 
L 2766 531 
Q 2569 213 2275 61 
Q 1981 -91 1556 -91 
Q 1019 -91 701 211 
Q 384 513 384 1019 
Q 384 1609 779 1909 
Q 1175 2209 1959 2209 
L 2766 2209 
L 2766 2266 
Q 2766 2663 2505 2880 
Q 2244 3097 1772 3097 
Q 1472 3097 1187 3025 
Q 903 2953 641 2809 
L 641 3341 
Q 956 3463 1253 3523 
Q 1550 3584 1831 3584 
Q 2591 3584 2966 3190 
Q 3341 2797 3341 1997 
z
" transform="scale(0.015625)"/>
       <path id="DejaVuSans-6c" d="M 603 4863 
L 1178 4863 
L 1178 0 
L 603 0 
L 603 4863 
z
" transform="scale(0.015625)"/>
      </defs>
      <use xlink:href="#DejaVuSans-6b"/>
      <use xlink:href="#DejaVuSans-6f" x="54.285156"/>
      <use xlink:href="#DejaVuSans-6e" x="115.466797"/>
      <use xlink:href="#DejaVuSans-64" x="178.845703"/>
      <use xlink:href="#DejaVuSans-2e" x="242.322266"/>
      <use xlink:href="#DejaVuSans-20" x="274.109375"/>
      <use xlink:href="#DejaVuSans-53" x="305.896484"/>
      <use xlink:href="#DejaVuSans-69" x="369.373047"/>
      <use xlink:href="#DejaVuSans-67" x="397.15625"/>
      <use xlink:href="#DejaVuSans-6e" x="460.632812"/>
      <use xlink:href="#DejaVuSans-61" x="524.011719"/>
      <use xlink:href="#DejaVuSans-6c" x="585.291016"/>
     </g>
    </g>
    <g id="line2d_42">
     <path d="M 679.292187 241.740313 
L 689.292187 241.740313 
L 699.292187 241.740313 
" style="fill: none; stroke-dasharray: 1.5,2.475; stroke-dashoffset: 0; stroke: #ff0000; stroke-width: 1.5"/>
    </g>
    <g id="text_21">
     <!-- Fenster -->
     <g transform="translate(707.292187 245.240313) scale(0.1 -0.1)">
      <use xlink:href="#DejaVuSans-46"/>
      <use xlink:href="#DejaVuSans-65" x="52.019531"/>
      <use xlink:href="#DejaVuSans-6e" x="113.542969"/>
      <use xlink:href="#DejaVuSans-73" x="176.921875"/>
      <use xlink:href="#DejaVuSans-74" x="229.021484"/>
      <use xlink:href="#DejaVuSans-65" x="268.230469"/>
      <use xlink:href="#DejaVuSans-72" x="329.753906"/>
     </g>
    </g>
   </g>
  </g>
 </g>
 <defs>
  <clipPath id="pf5bb1fcbc4">
   <rect x="108" y="34.56" width="669.6" height="221.76"/>
  </clipPath>
 </defs>
</svg>
