<svg width="3746" height="1324" xmlns="http://www.w3.org/2000/svg" xmlns:xlink="http://www.w3.org/1999/xlink" xml:space="preserve" overflow="hidden"><defs><clipPath id="clip0"><rect x="522" y="495" width="3746" height="1324"/></clipPath><clipPath id="clip1"><rect x="3098" y="495" width="1170" height="260"/></clipPath><clipPath id="clip2"><rect x="3098" y="495" width="1170" height="260"/></clipPath><clipPath id="clip3"><rect x="3098" y="495" width="1170" height="260"/></clipPath><clipPath id="clip4"><rect x="3098" y="761" width="1170" height="260"/></clipPath><clipPath id="clip5"><rect x="3098" y="761" width="1170" height="260"/></clipPath><clipPath id="clip6"><rect x="3098" y="761" width="1170" height="260"/></clipPath><clipPath id="clip7"><rect x="3098" y="1028" width="1170" height="259"/></clipPath><clipPath id="clip8"><rect x="3098" y="1028" width="1170" height="259"/></clipPath><clipPath id="clip9"><rect x="3098" y="1028" width="1170" height="259"/></clipPath><clipPath id="clip10"><rect x="3098" y="1293" width="1170" height="261"/></clipPath><clipPath id="clip11"><rect x="3098" y="1293" width="1170" height="261"/></clipPath><clipPath id="clip12"><rect x="3098" y="1293" width="1170" height="261"/></clipPath><clipPath id="clip13"><rect x="3098" y="1559" width="1170" height="261"/></clipPath><clipPath id="clip14"><rect x="3098" y="1559" width="1170" height="261"/></clipPath><clipPath id="clip15"><rect x="3098" y="1559" width="1170" height="261"/></clipPath><clipPath id="clip16"><rect x="522" y="810" width="1222" height="694"/></clipPath><clipPath id="clip17"><rect x="522" y="810" width="1222" height="694"/></clipPath></defs><g clip-path="url(#clip0)" transform="translate(-522 -495)"><g clip-path="url(#clip1)"><g clip-path="url(#clip2)"><g clip-path="url(#clip3)"><path d="M0 260 520 260 520 0 0 0Z" fill="#FFFFFF" transform="matrix(2.24808 0 0 1 3099 495)"/><g><path d="M83.3181 131.3 97.9873 108.669 105.689 97.2697 112.29 87.9623 118.158 80.1504 123.292 73.7361 128.059 68.1775 132.827 63.0399 137.227 58.7007 141.262 55.0849 145.296 51.8331 148.963 49.2058 152.63 46.9025 156.297 44.9322 159.598 43.4502 162.899 42.2491 166.199 41.3327 169.5 40.7038 172.8 40.3646 176.101 40.3161 179.401 40.5585 182.702 41.091 186.003 41.9118 189.303 43.0185 192.604 44.4073 195.904 46.0739 199.572 48.245 203.239 50.7439 206.906 53.5607 210.94 57.0131 214.974 60.8202 219.375 65.3565 223.776 70.2676 228.543 75.9783 233.678 82.5397 239.545 90.4971 246.146 99.9374 253.848 111.449 264.85 128.442 281.352 153.931 289.054 165.33 295.655 174.638 301.523 182.449 306.657 188.864 311.424 194.422 316.192 199.56 320.593 203.899 324.627 207.515 328.661 210.767 332.328 213.394 335.995 215.697 339.663 217.668 342.963 219.15 346.264 220.351 349.564 221.267 352.865 221.896 356.165 222.235 359.466 222.284 362.767 222.041 366.067 221.509 369.368 220.688 372.668 219.581 375.969 218.193 379.269 216.526 382.937 214.355 386.604 211.856 390.271 209.039 394.305 205.587 398.339 201.78 402.74 197.243 407.141 192.332 411.908 186.622 417.043 180.06 422.91 172.103 429.511 162.662 437.213 151.151 448.215 134.158 449.682 131.872 449.682 131.872" stroke="#0000FF" stroke-width="1.80555" stroke-linecap="square" stroke-linejoin="round" fill="none" transform="matrix(2.24808 0 0 1 3099 495)"/></g></g></g></g><g clip-path="url(#clip4)"><g clip-path="url(#clip5)"><g clip-path="url(#clip6)"><path d="M0 260 520 260 520 0 0 0Z" fill="#FFFFFF" transform="matrix(2.24808 0 0 1 3099 761)"/><g><path d="M83.3181 131.3 89.9193 101.013 93.5866 85.4702 96.5204 74.18 99.0875 65.3565 101.288 58.7007 103.122 53.8595 104.955 49.7056 106.789 46.276 108.256 44.0745 109.723 42.3686 110.823 41.4203 111.923 40.7594 113.023 40.388 114.123 40.3072 115.224 40.5172 116.324 41.0175 117.424 41.8065 118.524 42.8815 119.991 44.7538 121.458 47.1179 122.925 49.9604 124.759 54.1613 126.592 59.0468 128.793 65.7518 130.993 73.2944 133.56 83.0234 136.494 95.1595 140.528 113.126 153.73 173.122 156.664 184.788 159.231 194.009 161.432 201.051 163.632 207.201 165.466 211.588 167.299 215.263 168.766 217.668 170.233 219.581 171.7 220.994 172.8 221.719 173.9 222.154 175.001 222.3 176.101 222.154 177.201 221.719 178.301 220.994 179.401 219.982 180.868 218.193 182.335 215.91 183.802 213.146 185.636 209.039 187.469 204.242 189.67 197.636 191.87 190.182 194.437 180.542 197.371 168.487 201.039 152.265 208.373 118.195 213.141 96.74 216.441 83.0234 219.375 71.9831 221.942 63.4193 224.143 57.0131 225.976 52.3965 227.81 48.4803 229.277 45.8752 230.744 43.7555 232.211 42.1332 233.311 41.2485 234.411 40.6518 235.511 40.3449 236.611 40.3287 237.712 40.6034 238.812 41.168 239.912 42.0207 241.012 43.1589 242.479 45.114 243.946 47.5589 245.413 50.4796 247.247 54.774 249.08 59.7477 251.281 66.5502 253.848 75.5254 256.782 86.9602 260.082 101.013 264.483 121.03 274.018 164.799 277.318 178.603 280.252 189.745 282.819 198.414 285.02 204.92 286.853 209.627 288.687 213.639 290.154 216.324 291.621 218.525 293.088 220.231 294.188 221.18 295.288 221.84 296.388 222.212 297.489 222.293 298.589 222.083 299.689 221.582 300.789 220.793 301.889 219.718 303.356 217.846 304.823 215.482 306.29 212.639 308.124 208.439 309.957 203.553 312.158 196.848 314.358 189.305 316.925 179.576 319.859 167.44 323.893 149.474 337.095 89.4782 340.029 77.8115 342.596 68.5906 344.797 61.5491 346.997 55.3988 348.831 51.0115 350.664 47.3368 352.131 44.9322 353.598 43.0185 355.065 41.6063 356.165 40.8814 357.266 40.4454 358.366 40.3 359.466 40.4454 360.566 40.8814 361.666 41.6063 362.767 42.618 364.233 44.4073 365.7 46.6903 367.167 49.4541 369.001 53.5607 370.835 58.3574 373.035 64.9638 375.235 72.4179 377.802 82.0579 380.736 94.1129 384.404 110.335 391.738 144.405 396.506 165.86 399.806 179.576 402.74 190.617 405.307 199.181 407.508 205.587 409.341 210.203 411.175 214.12 412.642 216.725 414.109 218.844 415.576 220.467 416.676 221.351 417.776 221.948 418.876 222.255 419.976 222.271 421.077 221.996 422.177 221.432 423.277 220.579 424.377 219.441 425.844 217.486 427.311 215.041 428.778 212.12 430.612 207.826 432.445 202.852 434.646 196.05 437.213 187.074 440.147 175.64 443.447 161.587 447.848 141.57 449.682 133.015 449.682 133.015" stroke="#0000FF" stroke-width="1.80555" stroke-linecap="square" stroke-linejoin="round" fill="none" transform="matrix(2.24808 0 0 1 3099 761)"/></g></g></g></g><g clip-path="url(#clip7)"><g clip-path="url(#clip8)"><g clip-path="url(#clip9)"><path d="M0 259 518 259 518 0 0 0Z" fill="#FFFFFF" transform="matrix(2.25676 0 0 1 3099 1028)"/><g><path d="M82.9977 130.795 87.7468 94.7935 90.3041 77.5122 92.1307 66.6957 93.9573 57.4576 95.4185 51.3578 96.8798 46.5107 97.9758 43.7443 99.0717 41.7506 99.8024 40.8598 100.533 40.3238 101.264 40.145 101.994 40.3238 102.725 40.8598 103.456 41.7506 104.186 42.9929 105.282 45.5041 106.378 48.7724 107.839 54.2566 109.301 60.9479 111.127 70.847 112.954 82.2223 115.511 100.088 119.164 127.948 124.279 166.796 126.836 184.078 128.663 194.894 130.489 204.132 131.951 210.232 133.412 215.079 134.508 217.845 135.604 219.839 136.334 220.73 137.065 221.266 137.796 221.445 138.526 221.266 139.257 220.73 139.988 219.839 140.718 218.597 141.814 216.086 142.91 212.817 144.371 207.333 145.833 200.642 147.659 190.743 149.486 179.368 152.043 161.501 155.696 133.642 160.811 94.7935 163.368 77.5122 165.195 66.6957 167.021 57.4576 168.482 51.3578 169.944 46.5107 171.04 43.7443 172.136 41.7506 172.866 40.8598 173.597 40.3238 174.328 40.145 175.058 40.3238 175.789 40.8598 176.52 41.7506 177.25 42.9929 178.346 45.5041 179.442 48.7724 180.903 54.2566 182.365 60.9479 184.191 70.847 186.018 82.2223 188.575 100.088 192.228 127.948 197.343 166.796 199.9 184.078 201.727 194.894 203.553 204.132 205.014 210.232 206.476 215.079 207.572 217.845 208.668 219.839 209.398 220.73 210.129 221.266 210.86 221.445 211.59 221.266 212.321 220.73 213.051 219.839 213.782 218.597 214.878 216.086 215.974 212.817 217.435 207.333 218.897 200.642 220.723 190.743 222.55 179.368 225.107 161.501 228.76 133.642 233.875 94.7935 236.432 77.5122 238.259 66.6957 240.085 57.4576 241.546 51.3578 243.008 46.5107 244.104 43.7443 245.2 41.7506 245.93 40.8598 246.661 40.3238 247.392 40.145 248.122 40.3238 248.853 40.8598 249.583 41.7506 250.314 42.9929 251.41 45.5041 252.506 48.7724 253.967 54.2566 255.429 60.9479 257.255 70.847 259.082 82.2223 261.639 100.088 265.292 127.948 270.407 166.796 272.964 184.078 274.79 194.894 276.617 204.132 278.078 210.232 279.54 215.079 280.636 217.845 281.732 219.839 282.462 220.73 283.193 221.266 283.923 221.445 284.654 221.266 285.385 220.73 286.115 219.839 286.846 218.597 287.942 216.086 289.038 212.817 290.499 207.333 291.961 200.642 293.787 190.743 295.614 179.368 298.171 161.501 301.824 133.642 306.939 94.7935 309.496 77.5122 311.322 66.6957 313.149 57.4576 314.61 51.3578 316.072 46.5107 317.168 43.7443 318.264 41.7506 318.994 40.8598 319.725 40.3238 320.455 40.145 321.186 40.3238 321.917 40.8598 322.647 41.7506 323.378 42.9929 324.474 45.5041 325.57 48.7724 327.031 54.2566 328.492 60.9479 330.319 70.847 332.146 82.2223 334.703 100.088 338.356 127.948 343.471 166.796 346.028 184.078 347.854 194.894 349.681 204.132 351.142 210.232 352.604 215.079 353.7 217.845 354.795 219.839 355.526 220.73 356.257 221.266 356.987 221.445 357.718 221.266 358.449 220.73 359.179 219.839 359.91 218.597 361.006 216.086 362.102 212.817 363.563 207.333 365.024 200.642 366.851 190.743 368.678 179.368 371.235 161.501 374.888 133.642 380.003 94.7935 382.56 77.5122 384.386 66.6957 386.213 57.4576 387.674 51.3578 389.136 46.5107 390.231 43.7443 391.327 41.7506 392.058 40.8598 392.789 40.3238 393.519 40.145 394.25 40.3238 394.981 40.8598 395.711 41.7506 396.442 42.9929 397.538 45.5041 398.634 48.7724 400.095 54.2566 401.556 60.9479 403.383 70.847 405.21 82.2223 407.767 100.088 411.42 127.948 416.534 166.796 419.092 184.078 420.918 194.894 422.745 204.132 424.206 210.232 425.667 215.079 426.763 217.845 427.859 219.839 428.59 220.73 429.321 221.266 430.051 221.445 430.782 221.266 431.513 220.73 432.243 219.839 432.974 218.597 434.07 216.086 435.166 212.817 436.627 207.333 438.088 200.642 439.915 190.743 441.742 179.368 444.299 161.501 447.952 133.642 447.952 133.642" stroke="#0000FF" stroke-width="1.79861" stroke-linecap="square" stroke-linejoin="round" fill="none" transform="matrix(2.25676 0 0 1 3099 1028)"/></g></g></g></g><g clip-path="url(#clip10)"><g clip-path="url(#clip11)"><g clip-path="url(#clip12)"><path d="M0 259 518 259 518 0 0 0Z" fill="#FFFFFF" transform="matrix(2.25676 0 0 1 3099 1294)"/><g><path d="M82.9978 130.795 86.651 92.1982 88.4776 75.235 89.9389 63.5562 91.4002 53.953 92.4961 48.2939 93.5921 44.0691 94.3227 42.0867 95.0534 40.7902 95.784 40.1898 96.1493 40.1522 96.5146 40.2899 97.2453 41.09 97.9759 42.5837 98.7066 44.7595 99.8025 49.264 100.898 55.1858 102.36 65.1052 103.821 77.0526 105.648 94.2716 108.205 121.131 112.954 171.441 114.781 188.138 116.242 199.541 117.703 208.821 118.799 214.214 119.895 218.157 120.626 219.944 121.356 221.043 121.722 221.331 122.087 221.443 122.452 221.381 122.818 221.143 123.548 220.144 124.279 218.454 125.01 216.086 126.106 211.305 127.202 205.124 128.663 194.894 130.124 182.686 131.951 165.222 134.873 134.212 138.892 91.6836 140.718 74.7861 142.18 63.1755 143.641 53.6524 144.737 48.0595 145.833 43.905 146.563 41.9712 147.294 40.7242 148.025 40.1737 148.39 40.1611 148.755 40.3239 149.486 41.1738 150.217 42.7166 150.947 44.9406 152.043 49.5145 153.139 55.5015 154.601 65.499 156.062 77.5123 157.888 94.7936 160.811 125.672 164.829 168.358 166.656 185.451 168.117 197.265 169.579 207.027 170.675 212.818 171.771 217.183 172.501 219.262 173.232 220.657 173.963 221.357 174.328 221.445 174.693 221.357 175.058 221.095 175.789 220.046 176.52 218.307 177.25 215.891 178.346 211.041 179.442 204.796 180.904 194.49 182.365 182.218 184.191 164.695 187.114 133.642 191.133 91.1705 192.959 74.3393 194.42 62.7975 195.882 53.3548 196.978 47.8284 198.074 43.7444 198.804 41.8592 199.535 40.6617 200.266 40.1611 200.631 40.1737 200.996 40.3615 201.727 41.2611 202.457 42.8531 203.188 45.1251 204.284 49.7683 205.38 55.8202 206.841 65.8954 208.303 77.9742 210.129 95.317 213.052 126.24 217.07 168.876 218.897 185.904 220.358 197.651 221.819 207.333 222.915 213.059 224.011 217.354 224.742 219.385 225.473 220.73 226.203 221.381 226.569 221.443 226.934 221.331 227.299 221.043 228.03 219.944 228.761 218.157 229.491 215.693 230.587 210.775 231.683 204.466 233.144 194.084 234.606 181.748 236.432 164.166 239.355 133.073 243.373 90.659 245.2 73.8948 246.661 62.4222 248.122 53.0602 249.218 47.6006 250.314 43.5872 251.045 41.7507 251.776 40.6027 252.506 40.1522 252.872 40.1898 253.237 40.4026 253.968 41.3519 254.698 42.993 255.429 45.3129 256.525 50.0253 257.621 56.1418 259.082 66.2943 260.543 78.4381 262.37 95.8419 265.293 126.809 269.311 169.392 271.138 186.355 272.599 198.034 274.06 207.637 275.156 213.296 276.252 217.521 276.983 219.504 277.713 220.8 278.444 221.4 278.809 221.438 279.175 221.3 279.905 220.5 280.636 219.007 281.367 216.831 282.463 212.326 283.559 206.404 285.02 196.485 286.481 184.538 288.308 167.319 290.865 140.459 295.614 90.1491 297.441 73.4526 298.902 62.0495 300.363 52.7688 301.459 47.376 302.555 43.4335 303.286 41.6457 304.016 40.5473 304.382 40.2595 304.747 40.1468 305.112 40.2094 305.478 40.4473 306.208 41.4464 306.939 43.1363 307.67 45.5042 308.766 50.2855 309.862 56.4664 311.323 66.6958 312.784 78.9041 314.611 96.3681 317.533 127.378 321.552 169.907 323.378 186.804 324.84 198.415 326.301 207.938 327.397 213.531 328.493 217.685 329.224 219.619 329.954 220.866 330.685 221.417 331.05 221.429 331.415 221.266 332.146 220.416 332.877 218.874 333.607 216.65 334.703 212.076 335.799 206.089 337.261 196.091 338.722 184.078 340.548 166.797 343.471 135.919 347.49 93.2319 349.316 76.1395 350.777 64.3255 352.239 54.5634 353.335 48.7725 354.431 44.4075 355.161 42.3282 355.892 40.933 356.623 40.2327 356.988 40.145 357.353 40.2327 357.719 40.4955 358.449 41.5443 359.18 43.2832 359.91 45.6988 361.006 50.5488 362.102 56.7939 363.564 67.0998 365.025 79.3721 366.852 96.8957 369.774 127.948 373.793 170.42 375.619 187.251 377.081 198.793 378.542 208.235 379.638 213.762 380.734 217.846 381.464 219.731 382.195 220.929 382.926 221.429 383.291 221.417 383.656 221.229 384.387 220.329 385.118 218.737 385.848 216.465 386.944 211.822 388.04 205.77 389.501 195.695 390.963 183.616 392.789 166.273 395.712 135.35 399.73 92.7143 401.557 75.6862 403.018 63.9395 404.48 54.2567 405.575 48.5316 406.671 44.2366 407.402 42.2057 408.133 40.8598 408.863 40.2094 409.229 40.1468 409.594 40.2595 409.959 40.5473 410.69 41.6457 411.421 43.4335 412.151 45.8968 413.247 50.8153 414.343 57.1243 415.804 67.5064 417.266 79.8422 419.092 97.4246 422.015 128.517 426.033 170.931 427.86 187.695 429.321 199.168 430.783 208.53 431.879 213.99 432.974 218.003 433.705 219.84 434.436 220.987 435.166 221.438 435.532 221.4 435.897 221.188 436.628 220.238 437.358 218.597 438.089 216.277 439.185 211.565 440.281 205.448 441.742 195.296 443.203 183.152 445.03 165.748 447.953 134.781 447.953 134.781" stroke="#0000FF" stroke-width="1.79861" stroke-linecap="square" stroke-linejoin="round" fill="none" transform="matrix(2.25676 0 0 1 3099 1294)"/></g></g></g></g><g clip-path="url(#clip13)"><g clip-path="url(#clip14)"><g clip-path="url(#clip15)"><path d="M0 259 518 259 518 0 0 0Z" fill="#FFFFFF" transform="matrix(2.25676 0 0 1 3099 1560)"/><g><path d="M82.9978 130.795 85.9203 91.1705 87.747 69.9974 89.2082 56.4664 90.3042 48.7725 91.0348 44.9406 91.7655 42.2057 92.4961 40.6027 92.8614 40.2327 93.2268 40.1522 93.5921 40.3615 93.9574 40.8598 94.688 42.7166 95.4187 45.6988 96.1493 49.7683 97.2453 57.7939 98.3412 67.9154 99.8025 84.1611 101.629 107.7 107.109 181.276 108.57 196.876 109.666 206.404 110.762 213.762 111.493 217.354 112.223 219.84 112.954 221.188 113.319 221.429 113.685 221.381 114.05 221.043 114.415 220.416 115.146 218.307 115.877 215.079 116.607 210.775 117.703 202.423 118.799 192.014 120.26 175.461 122.452 146.661 126.836 87.1241 128.297 70.4211 129.759 56.7939 130.855 49.0166 131.585 45.1251 132.316 42.3282 133.047 40.6617 133.412 40.2595 133.777 40.1468 134.143 40.3239 134.508 40.7902 135.239 42.5837 135.969 45.5042 136.7 49.5145 137.796 57.4577 138.892 67.5064 140.353 83.6736 142.18 107.15 147.659 180.802 149.121 196.485 150.217 206.089 151.313 213.531 152.043 217.183 152.774 219.731 153.505 221.143 153.87 221.417 154.235 221.4 154.601 221.095 154.966 220.5 155.696 218.454 156.427 215.287 157.158 211.041 158.254 202.77 159.35 192.433 160.811 175.956 163.003 147.221 167.752 83.188 169.213 67.0998 170.309 57.1243 171.405 49.264 172.136 45.3129 172.867 42.4542 173.597 40.7242 173.963 40.2899 174.328 40.145 174.693 40.2899 175.058 40.7242 175.789 42.4542 176.52 45.3129 177.25 49.264 178.346 57.1243 179.442 67.0998 180.904 83.188 182.73 106.6 188.575 184.538 190.037 199.541 191.133 208.53 192.229 215.287 192.959 218.454 193.69 220.5 194.055 221.095 194.42 221.4 194.786 221.417 195.151 221.143 195.516 220.58 196.247 218.597 196.978 215.492 197.708 211.305 198.804 203.115 199.9 192.849 201.362 176.449 203.188 152.787 208.668 79.3721 210.129 63.9395 211.225 54.5634 212.321 47.376 213.052 43.905 213.782 41.5443 214.513 40.3239 214.878 40.1468 215.244 40.2595 215.609 40.6617 215.974 41.3519 216.705 43.5872 217.436 46.9368 218.166 51.3578 219.262 59.8713 220.358 70.4211 221.819 87.1241 224.011 116.052 228.395 175.461 229.856 192.014 231.318 205.448 232.414 213.059 233.144 216.831 233.875 219.504 234.606 221.043 234.971 221.381 235.336 221.429 235.702 221.188 236.067 220.657 236.798 218.737 237.528 215.693 238.259 211.565 239.355 203.457 240.451 193.263 241.912 176.94 243.739 153.339 249.218 79.8422 250.68 64.3255 251.776 54.8731 252.872 47.6006 253.602 44.0691 254.333 41.6457 255.064 40.3615 255.429 40.1522 255.794 40.2327 256.16 40.6027 256.525 41.2611 257.255 43.4335 257.986 46.7221 258.717 51.085 259.813 59.518 260.909 69.9974 262.37 86.6258 264.562 115.49 268.946 174.964 270.407 191.593 271.868 205.124 272.964 212.818 273.695 216.65 274.426 219.385 275.156 220.987 275.522 221.357 275.887 221.438 276.252 221.229 276.617 220.73 277.348 218.874 278.079 215.891 278.809 211.822 279.905 203.796 281.001 193.675 282.463 177.429 284.289 153.89 289.769 80.3143 291.23 64.714 292.326 55.1858 293.422 47.8284 294.153 44.2366 294.883 41.7507 295.614 40.4026 295.979 40.1611 296.345 40.2094 296.71 40.5473 297.075 41.1738 297.806 43.2832 298.537 46.5108 299.267 50.8153 300.363 59.1675 301.459 69.5761 302.921 86.1293 305.112 114.929 309.496 174.466 310.958 191.169 312.419 204.796 313.515 212.574 314.245 216.465 314.976 219.262 315.707 220.929 316.072 221.331 316.437 221.443 316.803 221.266 317.168 220.8 317.899 219.007 318.629 216.086 319.36 212.076 320.456 204.133 321.552 194.084 323.013 177.917 324.84 154.44 330.32 80.7884 331.781 65.1052 332.877 55.5015 333.973 48.0595 334.703 44.4075 335.434 41.8592 336.165 40.4473 336.53 40.1737 336.895 40.1898 337.261 40.4955 337.626 41.09 338.357 43.1363 339.087 46.3028 339.818 50.5488 340.914 58.8198 342.01 69.1573 343.471 85.6346 345.663 114.369 350.412 178.402 351.873 194.49 352.969 204.466 354.065 212.326 354.796 216.277 355.527 219.136 356.257 220.866 356.623 221.3 356.988 221.445 357.353 221.3 357.719 220.866 358.449 219.136 359.18 216.277 359.91 212.326 361.006 204.466 362.102 194.49 363.564 178.402 365.39 154.99 371.235 77.0526 372.697 62.0495 373.793 53.0602 374.889 46.3028 375.619 43.1363 376.35 41.09 376.715 40.4955 377.081 40.1898 377.446 40.1737 377.811 40.4473 378.176 41.0097 378.907 42.993 379.638 46.0981 380.368 50.2855 381.464 58.475 382.56 68.7409 384.022 85.1416 385.848 108.803 391.328 182.218 392.789 197.651 393.885 207.027 394.981 214.214 395.712 217.685 396.442 220.046 397.173 221.266 397.538 221.443 397.904 221.331 398.269 220.929 398.634 220.238 399.365 218.003 400.096 214.653 400.826 210.232 401.922 201.719 403.018 191.169 404.48 174.466 406.671 145.538 411.055 86.1293 412.517 69.5761 413.978 56.1418 415.074 48.5316 415.804 44.7595 416.535 42.0867 417.266 40.5473 417.631 40.2094 417.996 40.1611 418.362 40.4026 418.727 40.933 419.458 42.8531 420.188 45.8968 420.919 50.0253 422.015 58.133 423.111 68.3269 424.572 84.6505 426.399 108.251 431.879 181.748 433.34 197.265 434.436 206.717 435.532 213.99 436.262 217.521 436.993 219.944 437.724 221.229 438.089 221.438 438.454 221.357 438.82 220.987 439.185 220.329 439.916 218.157 440.646 214.868 441.377 210.505 442.473 202.072 443.569 191.593 445.03 174.964 447.222 146.1 447.953 135.919 447.953 135.919" stroke="#0000FF" stroke-width="1.79861" stroke-linecap="square" stroke-linejoin="round" fill="none" transform="matrix(2.25676 0 0 1 3099 1560)"/></g></g></g></g><g clip-path="url(#clip16)"><g clip-path="url(#clip17)"><g><path d="M0 693 1386 693 1386 0 0 0Z" fill="#FFFFFF" transform="matrix(1.00073 0 0 1 355.989 811)"/><g><path d="M222.075 349.965 231.85 249.067 236.737 204.661 240.647 173.966 244.557 148.487 247.489 133.19 250.422 121.372 252.377 115.48 254.332 111.195 256.287 108.513 258.242 107.415 259.219 107.45 261.174 108.661 263.129 111.344 265.084 115.433 268.016 124.021 270.949 135.267 274.859 153.753 279.746 181.084 288.543 235.825 295.386 276.896 300.273 302.385 304.183 319.391 308.093 332.845 311.025 340.422 313.958 345.782 315.913 348.128 317.868 349.512 319.823 349.965 321.778 349.527 323.733 348.251 325.688 346.195 328.62 341.801 331.552 336.07 335.462 326.845 342.305 308.406 349.147 290.396 353.057 281.665 356.967 274.74 359.899 270.971 362.832 268.55 364.787 267.718 366.742 267.522 368.697 267.958 370.652 269.014 373.584 271.712 376.516 275.648 380.426 282.568 385.314 293.276 394.111 315.183 399.976 329.035 403.886 336.895 407.796 343.151 410.728 346.594 413.661 348.86 415.616 349.689 417.57 349.965 419.525 349.691 421.48 348.878 424.413 346.689 427.345 343.424 431.255 337.623 436.143 328.6 453.737 293.897 457.647 288.686 460.579 285.904 463.512 284.196 465.467 283.684 467.422 283.684 469.377 284.196 472.309 285.904 475.242 288.686 478.174 292.447 482.084 298.759 486.971 308.179 500.656 335.953 504.566 342.118 507.498 345.715 510.431 348.274 513.363 349.691 515.318 349.965 517.273 349.689 519.228 348.86 522.161 346.594 525.093 343.151 528.025 338.624 531.935 331.129 536.823 319.993 552.462 282.568 556.372 275.648 559.305 271.712 562.237 269.014 564.192 267.958 566.147 267.522 568.102 267.718 570.057 268.55 572.012 270.01 574.944 273.34 577.877 277.95 581.787 285.835 586.674 297.823 601.336 336.07 605.246 343.428 608.179 347.316 610.134 348.99 612.089 349.855 614.043 349.853 615.998 348.939 617.953 347.076 619.908 344.242 622.841 338.141 625.773 329.834 628.706 319.391 632.615 302.385 637.503 276.896 643.368 241.929 656.075 164.219 660.962 139.544 664.872 124.021 667.805 115.433 669.76 111.344 671.715 108.661 673.67 107.45 674.647 107.415 675.625 107.768 677.58 109.655 679.534 113.137 681.489 118.226 684.422 128.858 687.354 143.011 690.287 160.529 694.197 188.71 699.084 230.607 704.949 288.158 724.498 486.874 729.386 525.964 733.296 551.443 736.228 566.74 739.161 578.558 741.116 584.45 743.07 588.735 745.025 591.417 746.98 592.515 747.958 592.48 749.913 591.269 751.868 588.586 753.823 584.497 756.755 575.909 759.688 564.663 763.598 546.177 768.485 518.846 777.282 464.105 784.125 423.034 789.012 397.545 792.922 380.539 796.832 367.085 799.764 359.508 802.697 354.148 804.652 351.802 806.607 350.418 808.561 349.965 810.516 350.402 812.471 351.679 814.426 353.735 817.359 358.129 820.291 363.86 824.201 373.085 831.044 391.524 837.886 409.534 841.796 418.265 845.706 425.19 848.638 428.959 851.57 431.38 853.525 432.212 855.48 432.408 857.435 431.972 859.39 430.916 862.323 428.218 865.255 424.281 869.165 417.362 874.052 406.654 882.85 384.747 888.715 370.895 892.625 363.035 896.534 356.779 899.467 353.336 902.399 351.07 904.354 350.241 906.309 349.965 908.264 350.239 910.219 351.052 913.152 353.241 916.084 356.506 919.994 362.307 924.881 371.33 942.476 406.033 946.386 411.244 949.318 414.026 952.251 415.734 954.206 416.246 956.161 416.246 958.116 415.734 961.048 414.026 963.98 411.244 966.913 407.483 970.823 401.171 975.71 391.751 989.395 363.977 993.305 357.812 996.237 354.215 999.17 351.656 1002.1 350.239 1004.06 349.965 1006.01 350.241 1007.97 351.07 1010.9 353.336 1013.83 356.779 1016.76 361.306 1020.67 368.801 1025.56 379.937 1041.2 417.362 1045.11 424.281 1048.04 428.218 1050.98 430.916 1052.93 431.972 1054.89 432.408 1056.84 432.212 1058.8 431.38 1060.75 429.92 1063.68 426.59 1066.62 421.98 1070.53 414.095 1075.41 402.107 1090.07 363.86 1093.98 356.502 1096.92 352.614 1098.87 350.94 1100.83 350.075 1102.78 350.077 1104.74 350.991 1106.69 352.854 1108.65 355.688 1111.58 361.789 1114.51 370.096 1117.44 380.539 1121.35 397.545 1126.24 423.034 1132.11 458.001 1144.81 535.711 1149.7 560.386 1153.61 575.909 1156.54 584.497 1158.5 588.586 1160.45 591.269 1162.41 592.48 1163.39 592.515 1164.36 592.162 1166.32 590.275 1168.27 586.793 1170.23 581.704 1173.16 571.072 1176.09 556.919 1179.03 539.401 1182.94 511.22 1187.82 469.323 1193.69 411.772 1198.57 360.383 1198.57 360.383" stroke="#FF0000" stroke-width="4.8125" stroke-linecap="square" stroke-linejoin="round" fill="none" transform="matrix(1.00073 0 0 1 355.989 811)"/></g></g></g></g><rect x="2063.5" y="963.5" width="650" height="389" stroke="#000000" stroke-width="6.875" stroke-miterlimit="8"/><text fill="#FFFFFF" font-family="Arial Black,Arial Black_MSFontService,sans-serif" font-weight="900" font-size="183" transform="matrix(1 0 0 1 2199.85 1219)">FFT</text><path d="M1738.5 1152.92 2022.05 1152.92 2022.05 1162.08 1738.5 1162.08ZM2017.47 1134.58 2063.3 1157.5 2017.47 1180.42Z"/><path d="M2713.5 1152.92 2997.05 1152.92 2997.05 1162.08 2713.5 1162.08ZM2992.47 1134.58 3038.3 1157.5 2992.47 1180.42Z"/></g></svg>