<?xml version="1.0" encoding="utf-8" standalone="no"?>
<!DOCTYPE svg PUBLIC "-//W3C//DTD SVG 1.1//EN"
  "http://www.w3.org/Graphics/SVG/1.1/DTD/svg11.dtd">
<svg xmlns:xlink="http://www.w3.org/1999/xlink" width="864pt" height="288pt" viewBox="0 0 864 288" xmlns="http://www.w3.org/2000/svg" version="1.1">
 <metadata>
  <rdf:RDF xmlns:dc="http://purl.org/dc/elements/1.1/" xmlns:cc="http://creativecommons.org/ns#" xmlns:rdf="http://www.w3.org/1999/02/22-rdf-syntax-ns#">
   <cc:Work>
    <dc:type rdf:resource="http://purl.org/dc/dcmitype/StillImage"/>
    <dc:date>2023-12-19T16:45:51.779610</dc:date>
    <dc:format>image/svg+xml</dc:format>
    <dc:creator>
     <cc:Agent>
      <dc:title>Matplotlib v3.8.0, https://matplotlib.org/</dc:title>
     </cc:Agent>
    </dc:creator>
   </cc:Work>
  </rdf:RDF>
 </metadata>
 <defs>
  <style type="text/css">*{stroke-linejoin: round; stroke-linecap: butt}</style>
 </defs>
 <g id="figure_1">
  <g id="patch_1">
   <path d="M 0 288 
L 864 288 
L 864 0 
L 0 0 
z
" style="fill: #ffffff"/>
  </g>
  <g id="axes_1">
   <g id="patch_2">
    <path d="M 108 256.32 
L 777.6 256.32 
L 777.6 34.56 
L 108 34.56 
z
" style="fill: #ffffff"/>
   </g>
   <g id="matplotlib.axis_1">
    <g id="xtick_1">
     <g id="line2d_1">
      <path d="M 108 256.32 
L 108 34.56 
" clip-path="url(#p61dd219d72)" style="fill: none; stroke: #b0b0b0; stroke-width: 0.8; stroke-linecap: square"/>
     </g>
     <g id="line2d_2">
      <defs>
       <path id="mcd56fc2434" d="M 0 0 
L 0 3.5 
" style="stroke: #000000; stroke-width: 0.8"/>
      </defs>
      <g>
       <use xlink:href="#mcd56fc2434" x="108" y="256.32" style="stroke: #000000; stroke-width: 0.8"/>
      </g>
     </g>
     <g id="text_1">
      <!-- 438.8 -->
      <g transform="translate(93.685938 270.918437) scale(0.1 -0.1)">
       <defs>
        <path id="DejaVuSans-34" d="M 2419 4116 
L 825 1625 
L 2419 1625 
L 2419 4116 
z
M 2253 4666 
L 3047 4666 
L 3047 1625 
L 3713 1625 
L 3713 1100 
L 3047 1100 
L 3047 0 
L 2419 0 
L 2419 1100 
L 313 1100 
L 313 1709 
L 2253 4666 
z
" transform="scale(0.015625)"/>
        <path id="DejaVuSans-33" d="M 2597 2516 
Q 3050 2419 3304 2112 
Q 3559 1806 3559 1356 
Q 3559 666 3084 287 
Q 2609 -91 1734 -91 
Q 1441 -91 1130 -33 
Q 819 25 488 141 
L 488 750 
Q 750 597 1062 519 
Q 1375 441 1716 441 
Q 2309 441 2620 675 
Q 2931 909 2931 1356 
Q 2931 1769 2642 2001 
Q 2353 2234 1838 2234 
L 1294 2234 
L 1294 2753 
L 1863 2753 
Q 2328 2753 2575 2939 
Q 2822 3125 2822 3475 
Q 2822 3834 2567 4026 
Q 2313 4219 1838 4219 
Q 1578 4219 1281 4162 
Q 984 4106 628 3988 
L 628 4550 
Q 988 4650 1302 4700 
Q 1616 4750 1894 4750 
Q 2613 4750 3031 4423 
Q 3450 4097 3450 3541 
Q 3450 3153 3228 2886 
Q 3006 2619 2597 2516 
z
" transform="scale(0.015625)"/>
        <path id="DejaVuSans-38" d="M 2034 2216 
Q 1584 2216 1326 1975 
Q 1069 1734 1069 1313 
Q 1069 891 1326 650 
Q 1584 409 2034 409 
Q 2484 409 2743 651 
Q 3003 894 3003 1313 
Q 3003 1734 2745 1975 
Q 2488 2216 2034 2216 
z
M 1403 2484 
Q 997 2584 770 2862 
Q 544 3141 544 3541 
Q 544 4100 942 4425 
Q 1341 4750 2034 4750 
Q 2731 4750 3128 4425 
Q 3525 4100 3525 3541 
Q 3525 3141 3298 2862 
Q 3072 2584 2669 2484 
Q 3125 2378 3379 2068 
Q 3634 1759 3634 1313 
Q 3634 634 3220 271 
Q 2806 -91 2034 -91 
Q 1263 -91 848 271 
Q 434 634 434 1313 
Q 434 1759 690 2068 
Q 947 2378 1403 2484 
z
M 1172 3481 
Q 1172 3119 1398 2916 
Q 1625 2713 2034 2713 
Q 2441 2713 2670 2916 
Q 2900 3119 2900 3481 
Q 2900 3844 2670 4047 
Q 2441 4250 2034 4250 
Q 1625 4250 1398 4047 
Q 1172 3844 1172 3481 
z
" transform="scale(0.015625)"/>
        <path id="DejaVuSans-2e" d="M 684 794 
L 1344 794 
L 1344 0 
L 684 0 
L 684 794 
z
" transform="scale(0.015625)"/>
       </defs>
       <use xlink:href="#DejaVuSans-34"/>
       <use xlink:href="#DejaVuSans-33" x="63.623047"/>
       <use xlink:href="#DejaVuSans-38" x="127.246094"/>
       <use xlink:href="#DejaVuSans-2e" x="190.869141"/>
       <use xlink:href="#DejaVuSans-38" x="222.65625"/>
      </g>
     </g>
    </g>
    <g id="xtick_2">
     <g id="line2d_3">
      <path d="M 203.657143 256.32 
L 203.657143 34.56 
" clip-path="url(#p61dd219d72)" style="fill: none; stroke: #b0b0b0; stroke-width: 0.8; stroke-linecap: square"/>
     </g>
     <g id="line2d_4">
      <g>
       <use xlink:href="#mcd56fc2434" x="203.657143" y="256.32" style="stroke: #000000; stroke-width: 0.8"/>
      </g>
     </g>
     <g id="text_2">
      <!-- 438.9 -->
      <g transform="translate(189.34308 270.918437) scale(0.1 -0.1)">
       <defs>
        <path id="DejaVuSans-39" d="M 703 97 
L 703 672 
Q 941 559 1184 500 
Q 1428 441 1663 441 
Q 2288 441 2617 861 
Q 2947 1281 2994 2138 
Q 2813 1869 2534 1725 
Q 2256 1581 1919 1581 
Q 1219 1581 811 2004 
Q 403 2428 403 3163 
Q 403 3881 828 4315 
Q 1253 4750 1959 4750 
Q 2769 4750 3195 4129 
Q 3622 3509 3622 2328 
Q 3622 1225 3098 567 
Q 2575 -91 1691 -91 
Q 1453 -91 1209 -44 
Q 966 3 703 97 
z
M 1959 2075 
Q 2384 2075 2632 2365 
Q 2881 2656 2881 3163 
Q 2881 3666 2632 3958 
Q 2384 4250 1959 4250 
Q 1534 4250 1286 3958 
Q 1038 3666 1038 3163 
Q 1038 2656 1286 2365 
Q 1534 2075 1959 2075 
z
" transform="scale(0.015625)"/>
       </defs>
       <use xlink:href="#DejaVuSans-34"/>
       <use xlink:href="#DejaVuSans-33" x="63.623047"/>
       <use xlink:href="#DejaVuSans-38" x="127.246094"/>
       <use xlink:href="#DejaVuSans-2e" x="190.869141"/>
       <use xlink:href="#DejaVuSans-39" x="222.65625"/>
      </g>
     </g>
    </g>
    <g id="xtick_3">
     <g id="line2d_5">
      <path d="M 299.314286 256.32 
L 299.314286 34.56 
" clip-path="url(#p61dd219d72)" style="fill: none; stroke: #b0b0b0; stroke-width: 0.8; stroke-linecap: square"/>
     </g>
     <g id="line2d_6">
      <g>
       <use xlink:href="#mcd56fc2434" x="299.314286" y="256.32" style="stroke: #000000; stroke-width: 0.8"/>
      </g>
     </g>
     <g id="text_3">
      <!-- 439.0 -->
      <g transform="translate(285.000223 270.918437) scale(0.1 -0.1)">
       <defs>
        <path id="DejaVuSans-30" d="M 2034 4250 
Q 1547 4250 1301 3770 
Q 1056 3291 1056 2328 
Q 1056 1369 1301 889 
Q 1547 409 2034 409 
Q 2525 409 2770 889 
Q 3016 1369 3016 2328 
Q 3016 3291 2770 3770 
Q 2525 4250 2034 4250 
z
M 2034 4750 
Q 2819 4750 3233 4129 
Q 3647 3509 3647 2328 
Q 3647 1150 3233 529 
Q 2819 -91 2034 -91 
Q 1250 -91 836 529 
Q 422 1150 422 2328 
Q 422 3509 836 4129 
Q 1250 4750 2034 4750 
z
" transform="scale(0.015625)"/>
       </defs>
       <use xlink:href="#DejaVuSans-34"/>
       <use xlink:href="#DejaVuSans-33" x="63.623047"/>
       <use xlink:href="#DejaVuSans-39" x="127.246094"/>
       <use xlink:href="#DejaVuSans-2e" x="190.869141"/>
       <use xlink:href="#DejaVuSans-30" x="222.65625"/>
      </g>
     </g>
    </g>
    <g id="xtick_4">
     <g id="line2d_7">
      <path d="M 394.971429 256.32 
L 394.971429 34.56 
" clip-path="url(#p61dd219d72)" style="fill: none; stroke: #b0b0b0; stroke-width: 0.8; stroke-linecap: square"/>
     </g>
     <g id="line2d_8">
      <g>
       <use xlink:href="#mcd56fc2434" x="394.971429" y="256.32" style="stroke: #000000; stroke-width: 0.8"/>
      </g>
     </g>
     <g id="text_4">
      <!-- 439.1 -->
      <g transform="translate(380.657366 270.918437) scale(0.1 -0.1)">
       <defs>
        <path id="DejaVuSans-31" d="M 794 531 
L 1825 531 
L 1825 4091 
L 703 3866 
L 703 4441 
L 1819 4666 
L 2450 4666 
L 2450 531 
L 3481 531 
L 3481 0 
L 794 0 
L 794 531 
z
" transform="scale(0.015625)"/>
       </defs>
       <use xlink:href="#DejaVuSans-34"/>
       <use xlink:href="#DejaVuSans-33" x="63.623047"/>
       <use xlink:href="#DejaVuSans-39" x="127.246094"/>
       <use xlink:href="#DejaVuSans-2e" x="190.869141"/>
       <use xlink:href="#DejaVuSans-31" x="222.65625"/>
      </g>
     </g>
    </g>
    <g id="xtick_5">
     <g id="line2d_9">
      <path d="M 490.628571 256.32 
L 490.628571 34.56 
" clip-path="url(#p61dd219d72)" style="fill: none; stroke: #b0b0b0; stroke-width: 0.8; stroke-linecap: square"/>
     </g>
     <g id="line2d_10">
      <g>
       <use xlink:href="#mcd56fc2434" x="490.628571" y="256.32" style="stroke: #000000; stroke-width: 0.8"/>
      </g>
     </g>
     <g id="text_5">
      <!-- 439.2 -->
      <g transform="translate(476.314509 270.918437) scale(0.1 -0.1)">
       <defs>
        <path id="DejaVuSans-32" d="M 1228 531 
L 3431 531 
L 3431 0 
L 469 0 
L 469 531 
Q 828 903 1448 1529 
Q 2069 2156 2228 2338 
Q 2531 2678 2651 2914 
Q 2772 3150 2772 3378 
Q 2772 3750 2511 3984 
Q 2250 4219 1831 4219 
Q 1534 4219 1204 4116 
Q 875 4013 500 3803 
L 500 4441 
Q 881 4594 1212 4672 
Q 1544 4750 1819 4750 
Q 2544 4750 2975 4387 
Q 3406 4025 3406 3419 
Q 3406 3131 3298 2873 
Q 3191 2616 2906 2266 
Q 2828 2175 2409 1742 
Q 1991 1309 1228 531 
z
" transform="scale(0.015625)"/>
       </defs>
       <use xlink:href="#DejaVuSans-34"/>
       <use xlink:href="#DejaVuSans-33" x="63.623047"/>
       <use xlink:href="#DejaVuSans-39" x="127.246094"/>
       <use xlink:href="#DejaVuSans-2e" x="190.869141"/>
       <use xlink:href="#DejaVuSans-32" x="222.65625"/>
      </g>
     </g>
    </g>
    <g id="xtick_6">
     <g id="line2d_11">
      <path d="M 586.285714 256.32 
L 586.285714 34.56 
" clip-path="url(#p61dd219d72)" style="fill: none; stroke: #b0b0b0; stroke-width: 0.8; stroke-linecap: square"/>
     </g>
     <g id="line2d_12">
      <g>
       <use xlink:href="#mcd56fc2434" x="586.285714" y="256.32" style="stroke: #000000; stroke-width: 0.8"/>
      </g>
     </g>
     <g id="text_6">
      <!-- 439.3 -->
      <g transform="translate(571.971652 270.918437) scale(0.1 -0.1)">
       <use xlink:href="#DejaVuSans-34"/>
       <use xlink:href="#DejaVuSans-33" x="63.623047"/>
       <use xlink:href="#DejaVuSans-39" x="127.246094"/>
       <use xlink:href="#DejaVuSans-2e" x="190.869141"/>
       <use xlink:href="#DejaVuSans-33" x="222.65625"/>
      </g>
     </g>
    </g>
    <g id="xtick_7">
     <g id="line2d_13">
      <path d="M 681.942857 256.32 
L 681.942857 34.56 
" clip-path="url(#p61dd219d72)" style="fill: none; stroke: #b0b0b0; stroke-width: 0.8; stroke-linecap: square"/>
     </g>
     <g id="line2d_14">
      <g>
       <use xlink:href="#mcd56fc2434" x="681.942857" y="256.32" style="stroke: #000000; stroke-width: 0.8"/>
      </g>
     </g>
     <g id="text_7">
      <!-- 439.4 -->
      <g transform="translate(667.628795 270.918437) scale(0.1 -0.1)">
       <use xlink:href="#DejaVuSans-34"/>
       <use xlink:href="#DejaVuSans-33" x="63.623047"/>
       <use xlink:href="#DejaVuSans-39" x="127.246094"/>
       <use xlink:href="#DejaVuSans-2e" x="190.869141"/>
       <use xlink:href="#DejaVuSans-34" x="222.65625"/>
      </g>
     </g>
    </g>
    <g id="xtick_8">
     <g id="line2d_15">
      <path d="M 777.6 256.32 
L 777.6 34.56 
" clip-path="url(#p61dd219d72)" style="fill: none; stroke: #b0b0b0; stroke-width: 0.8; stroke-linecap: square"/>
     </g>
     <g id="line2d_16">
      <g>
       <use xlink:href="#mcd56fc2434" x="777.6" y="256.32" style="stroke: #000000; stroke-width: 0.8"/>
      </g>
     </g>
     <g id="text_8">
      <!-- 439.5 -->
      <g transform="translate(763.285938 270.918437) scale(0.1 -0.1)">
       <defs>
        <path id="DejaVuSans-35" d="M 691 4666 
L 3169 4666 
L 3169 4134 
L 1269 4134 
L 1269 2991 
Q 1406 3038 1543 3061 
Q 1681 3084 1819 3084 
Q 2600 3084 3056 2656 
Q 3513 2228 3513 1497 
Q 3513 744 3044 326 
Q 2575 -91 1722 -91 
Q 1428 -91 1123 -41 
Q 819 9 494 109 
L 494 744 
Q 775 591 1075 516 
Q 1375 441 1709 441 
Q 2250 441 2565 725 
Q 2881 1009 2881 1497 
Q 2881 1984 2565 2268 
Q 2250 2553 1709 2553 
Q 1456 2553 1204 2497 
Q 953 2441 691 2322 
L 691 4666 
z
" transform="scale(0.015625)"/>
       </defs>
       <use xlink:href="#DejaVuSans-34"/>
       <use xlink:href="#DejaVuSans-33" x="63.623047"/>
       <use xlink:href="#DejaVuSans-39" x="127.246094"/>
       <use xlink:href="#DejaVuSans-2e" x="190.869141"/>
       <use xlink:href="#DejaVuSans-35" x="222.65625"/>
      </g>
     </g>
    </g>
    <g id="text_9">
     <!-- Frequenz $f$ [Hz] -->
     <g transform="translate(404.5 284.598125) scale(0.1 -0.1)">
      <defs>
       <path id="DejaVuSans-46" d="M 628 4666 
L 3309 4666 
L 3309 4134 
L 1259 4134 
L 1259 2759 
L 3109 2759 
L 3109 2228 
L 1259 2228 
L 1259 0 
L 628 0 
L 628 4666 
z
" transform="scale(0.015625)"/>
       <path id="DejaVuSans-72" d="M 2631 2963 
Q 2534 3019 2420 3045 
Q 2306 3072 2169 3072 
Q 1681 3072 1420 2755 
Q 1159 2438 1159 1844 
L 1159 0 
L 581 0 
L 581 3500 
L 1159 3500 
L 1159 2956 
Q 1341 3275 1631 3429 
Q 1922 3584 2338 3584 
Q 2397 3584 2469 3576 
Q 2541 3569 2628 3553 
L 2631 2963 
z
" transform="scale(0.015625)"/>
       <path id="DejaVuSans-65" d="M 3597 1894 
L 3597 1613 
L 953 1613 
Q 991 1019 1311 708 
Q 1631 397 2203 397 
Q 2534 397 2845 478 
Q 3156 559 3463 722 
L 3463 178 
Q 3153 47 2828 -22 
Q 2503 -91 2169 -91 
Q 1331 -91 842 396 
Q 353 884 353 1716 
Q 353 2575 817 3079 
Q 1281 3584 2069 3584 
Q 2775 3584 3186 3129 
Q 3597 2675 3597 1894 
z
M 3022 2063 
Q 3016 2534 2758 2815 
Q 2500 3097 2075 3097 
Q 1594 3097 1305 2825 
Q 1016 2553 972 2059 
L 3022 2063 
z
" transform="scale(0.015625)"/>
       <path id="DejaVuSans-71" d="M 947 1747 
Q 947 1113 1208 752 
Q 1469 391 1925 391 
Q 2381 391 2643 752 
Q 2906 1113 2906 1747 
Q 2906 2381 2643 2742 
Q 2381 3103 1925 3103 
Q 1469 3103 1208 2742 
Q 947 2381 947 1747 
z
M 2906 525 
Q 2725 213 2448 61 
Q 2172 -91 1784 -91 
Q 1150 -91 751 415 
Q 353 922 353 1747 
Q 353 2572 751 3078 
Q 1150 3584 1784 3584 
Q 2172 3584 2448 3432 
Q 2725 3281 2906 2969 
L 2906 3500 
L 3481 3500 
L 3481 -1331 
L 2906 -1331 
L 2906 525 
z
" transform="scale(0.015625)"/>
       <path id="DejaVuSans-75" d="M 544 1381 
L 544 3500 
L 1119 3500 
L 1119 1403 
Q 1119 906 1312 657 
Q 1506 409 1894 409 
Q 2359 409 2629 706 
Q 2900 1003 2900 1516 
L 2900 3500 
L 3475 3500 
L 3475 0 
L 2900 0 
L 2900 538 
Q 2691 219 2414 64 
Q 2138 -91 1772 -91 
Q 1169 -91 856 284 
Q 544 659 544 1381 
z
M 1991 3584 
L 1991 3584 
z
" transform="scale(0.015625)"/>
       <path id="DejaVuSans-6e" d="M 3513 2113 
L 3513 0 
L 2938 0 
L 2938 2094 
Q 2938 2591 2744 2837 
Q 2550 3084 2163 3084 
Q 1697 3084 1428 2787 
Q 1159 2491 1159 1978 
L 1159 0 
L 581 0 
L 581 3500 
L 1159 3500 
L 1159 2956 
Q 1366 3272 1645 3428 
Q 1925 3584 2291 3584 
Q 2894 3584 3203 3211 
Q 3513 2838 3513 2113 
z
" transform="scale(0.015625)"/>
       <path id="DejaVuSans-7a" d="M 353 3500 
L 3084 3500 
L 3084 2975 
L 922 459 
L 3084 459 
L 3084 0 
L 275 0 
L 275 525 
L 2438 3041 
L 353 3041 
L 353 3500 
z
" transform="scale(0.015625)"/>
       <path id="DejaVuSans-20" transform="scale(0.015625)"/>
       <path id="DejaVuSans-Oblique-66" d="M 3059 4863 
L 2969 4384 
L 2419 4384 
Q 2106 4384 1964 4261 
Q 1822 4138 1753 3809 
L 1691 3500 
L 2638 3500 
L 2553 3053 
L 1606 3053 
L 1013 0 
L 434 0 
L 1031 3053 
L 481 3053 
L 563 3500 
L 1113 3500 
L 1159 3744 
Q 1278 4363 1576 4613 
Q 1875 4863 2516 4863 
L 3059 4863 
z
" transform="scale(0.015625)"/>
       <path id="DejaVuSans-5b" d="M 550 4863 
L 1875 4863 
L 1875 4416 
L 1125 4416 
L 1125 -397 
L 1875 -397 
L 1875 -844 
L 550 -844 
L 550 4863 
z
" transform="scale(0.015625)"/>
       <path id="DejaVuSans-48" d="M 628 4666 
L 1259 4666 
L 1259 2753 
L 3553 2753 
L 3553 4666 
L 4184 4666 
L 4184 0 
L 3553 0 
L 3553 2222 
L 1259 2222 
L 1259 0 
L 628 0 
L 628 4666 
z
" transform="scale(0.015625)"/>
       <path id="DejaVuSans-5d" d="M 1947 4863 
L 1947 -844 
L 622 -844 
L 622 -397 
L 1369 -397 
L 1369 4416 
L 622 4416 
L 622 4863 
L 1947 4863 
z
" transform="scale(0.015625)"/>
      </defs>
      <use xlink:href="#DejaVuSans-46" transform="translate(0 0.015625)"/>
      <use xlink:href="#DejaVuSans-72" transform="translate(57.519531 0.015625)"/>
      <use xlink:href="#DejaVuSans-65" transform="translate(98.632812 0.015625)"/>
      <use xlink:href="#DejaVuSans-71" transform="translate(160.15625 0.015625)"/>
      <use xlink:href="#DejaVuSans-75" transform="translate(223.632812 0.015625)"/>
      <use xlink:href="#DejaVuSans-65" transform="translate(287.011719 0.015625)"/>
      <use xlink:href="#DejaVuSans-6e" transform="translate(348.535156 0.015625)"/>
      <use xlink:href="#DejaVuSans-7a" transform="translate(411.914062 0.015625)"/>
      <use xlink:href="#DejaVuSans-20" transform="translate(464.404297 0.015625)"/>
      <use xlink:href="#DejaVuSans-Oblique-66" transform="translate(496.191406 0.015625)"/>
      <use xlink:href="#DejaVuSans-20" transform="translate(531.396484 0.015625)"/>
      <use xlink:href="#DejaVuSans-5b" transform="translate(563.183594 0.015625)"/>
      <use xlink:href="#DejaVuSans-48" transform="translate(599.072266 0.015625)"/>
      <use xlink:href="#DejaVuSans-7a" transform="translate(674.267578 0.015625)"/>
      <use xlink:href="#DejaVuSans-5d" transform="translate(726.757812 0.015625)"/>
     </g>
    </g>
   </g>
   <g id="matplotlib.axis_2">
    <g id="ytick_1">
     <g id="line2d_17">
      <path d="M 108 246.240124 
L 777.6 246.240124 
" clip-path="url(#p61dd219d72)" style="fill: none; stroke: #b0b0b0; stroke-width: 0.8; stroke-linecap: square"/>
     </g>
     <g id="line2d_18">
      <defs>
       <path id="m18a3f970cd" d="M 0 0 
L -3.5 0 
" style="stroke: #000000; stroke-width: 0.8"/>
      </defs>
      <g>
       <use xlink:href="#m18a3f970cd" x="108" y="246.240124" style="stroke: #000000; stroke-width: 0.8"/>
      </g>
     </g>
     <g id="text_10">
      <!-- 0.0 -->
      <g transform="translate(85.096875 250.039342) scale(0.1 -0.1)">
       <use xlink:href="#DejaVuSans-30"/>
       <use xlink:href="#DejaVuSans-2e" x="63.623047"/>
       <use xlink:href="#DejaVuSans-30" x="95.410156"/>
      </g>
     </g>
    </g>
    <g id="ytick_2">
     <g id="line2d_19">
      <path d="M 108 197.322757 
L 777.6 197.322757 
" clip-path="url(#p61dd219d72)" style="fill: none; stroke: #b0b0b0; stroke-width: 0.8; stroke-linecap: square"/>
     </g>
     <g id="line2d_20">
      <g>
       <use xlink:href="#m18a3f970cd" x="108" y="197.322757" style="stroke: #000000; stroke-width: 0.8"/>
      </g>
     </g>
     <g id="text_11">
      <!-- 0.2 -->
      <g transform="translate(85.096875 201.121975) scale(0.1 -0.1)">
       <use xlink:href="#DejaVuSans-30"/>
       <use xlink:href="#DejaVuSans-2e" x="63.623047"/>
       <use xlink:href="#DejaVuSans-32" x="95.410156"/>
      </g>
     </g>
    </g>
    <g id="ytick_3">
     <g id="line2d_21">
      <path d="M 108 148.40539 
L 777.6 148.40539 
" clip-path="url(#p61dd219d72)" style="fill: none; stroke: #b0b0b0; stroke-width: 0.8; stroke-linecap: square"/>
     </g>
     <g id="line2d_22">
      <g>
       <use xlink:href="#m18a3f970cd" x="108" y="148.40539" style="stroke: #000000; stroke-width: 0.8"/>
      </g>
     </g>
     <g id="text_12">
      <!-- 0.4 -->
      <g transform="translate(85.096875 152.204608) scale(0.1 -0.1)">
       <use xlink:href="#DejaVuSans-30"/>
       <use xlink:href="#DejaVuSans-2e" x="63.623047"/>
       <use xlink:href="#DejaVuSans-34" x="95.410156"/>
      </g>
     </g>
    </g>
    <g id="ytick_4">
     <g id="line2d_23">
      <path d="M 108 99.488023 
L 777.6 99.488023 
" clip-path="url(#p61dd219d72)" style="fill: none; stroke: #b0b0b0; stroke-width: 0.8; stroke-linecap: square"/>
     </g>
     <g id="line2d_24">
      <g>
       <use xlink:href="#m18a3f970cd" x="108" y="99.488023" style="stroke: #000000; stroke-width: 0.8"/>
      </g>
     </g>
     <g id="text_13">
      <!-- 0.6 -->
      <g transform="translate(85.096875 103.287242) scale(0.1 -0.1)">
       <defs>
        <path id="DejaVuSans-36" d="M 2113 2584 
Q 1688 2584 1439 2293 
Q 1191 2003 1191 1497 
Q 1191 994 1439 701 
Q 1688 409 2113 409 
Q 2538 409 2786 701 
Q 3034 994 3034 1497 
Q 3034 2003 2786 2293 
Q 2538 2584 2113 2584 
z
M 3366 4563 
L 3366 3988 
Q 3128 4100 2886 4159 
Q 2644 4219 2406 4219 
Q 1781 4219 1451 3797 
Q 1122 3375 1075 2522 
Q 1259 2794 1537 2939 
Q 1816 3084 2150 3084 
Q 2853 3084 3261 2657 
Q 3669 2231 3669 1497 
Q 3669 778 3244 343 
Q 2819 -91 2113 -91 
Q 1303 -91 875 529 
Q 447 1150 447 2328 
Q 447 3434 972 4092 
Q 1497 4750 2381 4750 
Q 2619 4750 2861 4703 
Q 3103 4656 3366 4563 
z
" transform="scale(0.015625)"/>
       </defs>
       <use xlink:href="#DejaVuSans-30"/>
       <use xlink:href="#DejaVuSans-2e" x="63.623047"/>
       <use xlink:href="#DejaVuSans-36" x="95.410156"/>
      </g>
     </g>
    </g>
    <g id="ytick_5">
     <g id="line2d_25">
      <path d="M 108 50.570656 
L 777.6 50.570656 
" clip-path="url(#p61dd219d72)" style="fill: none; stroke: #b0b0b0; stroke-width: 0.8; stroke-linecap: square"/>
     </g>
     <g id="line2d_26">
      <g>
       <use xlink:href="#m18a3f970cd" x="108" y="50.570656" style="stroke: #000000; stroke-width: 0.8"/>
      </g>
     </g>
     <g id="text_14">
      <!-- 0.8 -->
      <g transform="translate(85.096875 54.369875) scale(0.1 -0.1)">
       <use xlink:href="#DejaVuSans-30"/>
       <use xlink:href="#DejaVuSans-2e" x="63.623047"/>
       <use xlink:href="#DejaVuSans-38" x="95.410156"/>
      </g>
     </g>
    </g>
    <g id="text_15">
     <!-- Amplitudenspektrum $\mid Y \mid$ -->
     <g transform="translate(78.896875 211.59) rotate(-90) scale(0.1 -0.1)">
      <defs>
       <path id="DejaVuSans-41" d="M 2188 4044 
L 1331 1722 
L 3047 1722 
L 2188 4044 
z
M 1831 4666 
L 2547 4666 
L 4325 0 
L 3669 0 
L 3244 1197 
L 1141 1197 
L 716 0 
L 50 0 
L 1831 4666 
z
" transform="scale(0.015625)"/>
       <path id="DejaVuSans-6d" d="M 3328 2828 
Q 3544 3216 3844 3400 
Q 4144 3584 4550 3584 
Q 5097 3584 5394 3201 
Q 5691 2819 5691 2113 
L 5691 0 
L 5113 0 
L 5113 2094 
Q 5113 2597 4934 2840 
Q 4756 3084 4391 3084 
Q 3944 3084 3684 2787 
Q 3425 2491 3425 1978 
L 3425 0 
L 2847 0 
L 2847 2094 
Q 2847 2600 2669 2842 
Q 2491 3084 2119 3084 
Q 1678 3084 1418 2786 
Q 1159 2488 1159 1978 
L 1159 0 
L 581 0 
L 581 3500 
L 1159 3500 
L 1159 2956 
Q 1356 3278 1631 3431 
Q 1906 3584 2284 3584 
Q 2666 3584 2933 3390 
Q 3200 3197 3328 2828 
z
" transform="scale(0.015625)"/>
       <path id="DejaVuSans-70" d="M 1159 525 
L 1159 -1331 
L 581 -1331 
L 581 3500 
L 1159 3500 
L 1159 2969 
Q 1341 3281 1617 3432 
Q 1894 3584 2278 3584 
Q 2916 3584 3314 3078 
Q 3713 2572 3713 1747 
Q 3713 922 3314 415 
Q 2916 -91 2278 -91 
Q 1894 -91 1617 61 
Q 1341 213 1159 525 
z
M 3116 1747 
Q 3116 2381 2855 2742 
Q 2594 3103 2138 3103 
Q 1681 3103 1420 2742 
Q 1159 2381 1159 1747 
Q 1159 1113 1420 752 
Q 1681 391 2138 391 
Q 2594 391 2855 752 
Q 3116 1113 3116 1747 
z
" transform="scale(0.015625)"/>
       <path id="DejaVuSans-6c" d="M 603 4863 
L 1178 4863 
L 1178 0 
L 603 0 
L 603 4863 
z
" transform="scale(0.015625)"/>
       <path id="DejaVuSans-69" d="M 603 3500 
L 1178 3500 
L 1178 0 
L 603 0 
L 603 3500 
z
M 603 4863 
L 1178 4863 
L 1178 4134 
L 603 4134 
L 603 4863 
z
" transform="scale(0.015625)"/>
       <path id="DejaVuSans-74" d="M 1172 4494 
L 1172 3500 
L 2356 3500 
L 2356 3053 
L 1172 3053 
L 1172 1153 
Q 1172 725 1289 603 
Q 1406 481 1766 481 
L 2356 481 
L 2356 0 
L 1766 0 
Q 1100 0 847 248 
Q 594 497 594 1153 
L 594 3053 
L 172 3053 
L 172 3500 
L 594 3500 
L 594 4494 
L 1172 4494 
z
" transform="scale(0.015625)"/>
       <path id="DejaVuSans-64" d="M 2906 2969 
L 2906 4863 
L 3481 4863 
L 3481 0 
L 2906 0 
L 2906 525 
Q 2725 213 2448 61 
Q 2172 -91 1784 -91 
Q 1150 -91 751 415 
Q 353 922 353 1747 
Q 353 2572 751 3078 
Q 1150 3584 1784 3584 
Q 2172 3584 2448 3432 
Q 2725 3281 2906 2969 
z
M 947 1747 
Q 947 1113 1208 752 
Q 1469 391 1925 391 
Q 2381 391 2643 752 
Q 2906 1113 2906 1747 
Q 2906 2381 2643 2742 
Q 2381 3103 1925 3103 
Q 1469 3103 1208 2742 
Q 947 2381 947 1747 
z
" transform="scale(0.015625)"/>
       <path id="DejaVuSans-73" d="M 2834 3397 
L 2834 2853 
Q 2591 2978 2328 3040 
Q 2066 3103 1784 3103 
Q 1356 3103 1142 2972 
Q 928 2841 928 2578 
Q 928 2378 1081 2264 
Q 1234 2150 1697 2047 
L 1894 2003 
Q 2506 1872 2764 1633 
Q 3022 1394 3022 966 
Q 3022 478 2636 193 
Q 2250 -91 1575 -91 
Q 1294 -91 989 -36 
Q 684 19 347 128 
L 347 722 
Q 666 556 975 473 
Q 1284 391 1588 391 
Q 1994 391 2212 530 
Q 2431 669 2431 922 
Q 2431 1156 2273 1281 
Q 2116 1406 1581 1522 
L 1381 1569 
Q 847 1681 609 1914 
Q 372 2147 372 2553 
Q 372 3047 722 3315 
Q 1072 3584 1716 3584 
Q 2034 3584 2315 3537 
Q 2597 3491 2834 3397 
z
" transform="scale(0.015625)"/>
       <path id="DejaVuSans-6b" d="M 581 4863 
L 1159 4863 
L 1159 1991 
L 2875 3500 
L 3609 3500 
L 1753 1863 
L 3688 0 
L 2938 0 
L 1159 1709 
L 1159 0 
L 581 0 
L 581 4863 
z
" transform="scale(0.015625)"/>
       <path id="DejaVuSans-2223" d="M 1350 4934 
L 1850 4934 
L 1850 -1369 
L 1350 -1369 
L 1350 4934 
z
" transform="scale(0.015625)"/>
       <path id="DejaVuSans-Oblique-59" d="M 403 4666 
L 1081 4666 
L 1953 2747 
L 3616 4666 
L 4325 4666 
L 2209 2222 
L 1778 0 
L 1147 0 
L 1575 2222 
L 403 4666 
z
" transform="scale(0.015625)"/>
      </defs>
      <use xlink:href="#DejaVuSans-41" transform="translate(0 0.90625)"/>
      <use xlink:href="#DejaVuSans-6d" transform="translate(68.408203 0.90625)"/>
      <use xlink:href="#DejaVuSans-70" transform="translate(165.820312 0.90625)"/>
      <use xlink:href="#DejaVuSans-6c" transform="translate(229.296875 0.90625)"/>
      <use xlink:href="#DejaVuSans-69" transform="translate(257.080078 0.90625)"/>
      <use xlink:href="#DejaVuSans-74" transform="translate(284.863281 0.90625)"/>
      <use xlink:href="#DejaVuSans-75" transform="translate(324.072266 0.90625)"/>
      <use xlink:href="#DejaVuSans-64" transform="translate(387.451172 0.90625)"/>
      <use xlink:href="#DejaVuSans-65" transform="translate(450.927734 0.90625)"/>
      <use xlink:href="#DejaVuSans-6e" transform="translate(512.451172 0.90625)"/>
      <use xlink:href="#DejaVuSans-73" transform="translate(575.830078 0.90625)"/>
      <use xlink:href="#DejaVuSans-70" transform="translate(627.929688 0.90625)"/>
      <use xlink:href="#DejaVuSans-65" transform="translate(691.40625 0.90625)"/>
      <use xlink:href="#DejaVuSans-6b" transform="translate(752.929688 0.90625)"/>
      <use xlink:href="#DejaVuSans-74" transform="translate(810.839844 0.90625)"/>
      <use xlink:href="#DejaVuSans-72" transform="translate(850.048828 0.90625)"/>
      <use xlink:href="#DejaVuSans-75" transform="translate(891.162109 0.90625)"/>
      <use xlink:href="#DejaVuSans-6d" transform="translate(954.541016 0.90625)"/>
      <use xlink:href="#DejaVuSans-20" transform="translate(1051.953125 0.90625)"/>
      <use xlink:href="#DejaVuSans-2223" transform="translate(1103.222656 0.90625)"/>
      <use xlink:href="#DejaVuSans-Oblique-59" transform="translate(1172.705078 0.90625)"/>
      <use xlink:href="#DejaVuSans-2223" transform="translate(1253.271484 0.90625)"/>
     </g>
    </g>
   </g>
   <g id="line2d_27">
    <path d="M 98.434286 243.892943 
L 108 243.602782 
L 117.565714 244.342875 
L 127.131429 244.315846 
L 136.697143 243.628012 
L 146.262857 244.027488 
L 155.828571 243.604204 
L 165.394286 243.972816 
L 174.96 243.445593 
L 184.525714 243.562019 
L 194.091429 243.468308 
L 203.657143 243.289581 
L 213.222857 242.640285 
L 222.788571 242.98785 
L 232.354286 242.510814 
L 241.92 242.392428 
L 251.485714 242.248801 
L 261.051429 241.713042 
L 270.617143 241.989111 
L 280.182857 241.472777 
L 289.748571 241.010494 
L 299.314286 240.627917 
L 308.88 240.211665 
L 318.445714 239.983678 
L 328.011429 238.802307 
L 337.577143 237.879336 
L 347.142857 236.655252 
L 356.708571 235.227506 
L 366.274286 233.414785 
L 375.84 230.287216 
L 385.405714 225.684631 
L 394.971429 216.785407 
L 404.537143 195.108429 
L 414.102857 47.064341 
L 423.668571 140.835594 
L 433.234286 204.531897 
L 442.8 220.054958 
L 452.365714 227.58949 
L 461.931429 231.438739 
L 471.497143 233.922132 
L 481.062857 235.659551 
L 490.628571 237.104393 
L 500.194286 238.49524 
L 509.76 238.875443 
L 519.325714 239.434819 
L 528.891429 240.493291 
L 538.457143 241.246836 
L 548.022857 241.301835 
L 557.588571 241.522366 
L 567.154286 242.004591 
L 576.72 242.151424 
L 586.285714 242.190588 
L 595.851429 243.010344 
L 605.417143 242.916088 
L 614.982857 243.011056 
L 624.548571 243.187876 
L 634.114286 243.151683 
L 643.68 243.129142 
L 653.245714 243.195954 
L 662.811429 243.560313 
L 672.377143 243.581079 
L 681.942857 243.577716 
L 691.508571 244.359098 
L 701.074286 243.899954 
L 710.64 243.957125 
L 720.205714 243.914405 
L 729.771429 244.196579 
L 739.337143 244.186323 
L 748.902857 244.259472 
L 758.468571 244.518761 
L 768.034286 244.322975 
L 777.6 244.400267 
L 787.165714 244.269327 
" clip-path="url(#p61dd219d72)" style="fill: none; stroke: #000000; stroke-width: 1.5; stroke-linecap: square"/>
    <defs>
     <path id="m2eff793840" d="M 0 1.5 
C 0.397805 1.5 0.77937 1.341951 1.06066 1.06066 
C 1.341951 0.77937 1.5 0.397805 1.5 0 
C 1.5 -0.397805 1.341951 -0.77937 1.06066 -1.06066 
C 0.77937 -1.341951 0.397805 -1.5 0 -1.5 
C -0.397805 -1.5 -0.77937 -1.341951 -1.06066 -1.06066 
C -1.341951 -0.77937 -1.5 -0.397805 -1.5 0 
C -1.5 0.397805 -1.341951 0.77937 -1.06066 1.06066 
C -0.77937 1.341951 -0.397805 1.5 0 1.5 
z
" style="stroke: #000000"/>
    </defs>
    <g clip-path="url(#p61dd219d72)">
     <use xlink:href="#m2eff793840" x="98.434286" y="243.892943" style="stroke: #000000"/>
     <use xlink:href="#m2eff793840" x="108" y="243.602782" style="stroke: #000000"/>
     <use xlink:href="#m2eff793840" x="117.565714" y="244.342875" style="stroke: #000000"/>
     <use xlink:href="#m2eff793840" x="127.131429" y="244.315846" style="stroke: #000000"/>
     <use xlink:href="#m2eff793840" x="136.697143" y="243.628012" style="stroke: #000000"/>
     <use xlink:href="#m2eff793840" x="146.262857" y="244.027488" style="stroke: #000000"/>
     <use xlink:href="#m2eff793840" x="155.828571" y="243.604204" style="stroke: #000000"/>
     <use xlink:href="#m2eff793840" x="165.394286" y="243.972816" style="stroke: #000000"/>
     <use xlink:href="#m2eff793840" x="174.96" y="243.445593" style="stroke: #000000"/>
     <use xlink:href="#m2eff793840" x="184.525714" y="243.562019" style="stroke: #000000"/>
     <use xlink:href="#m2eff793840" x="194.091429" y="243.468308" style="stroke: #000000"/>
     <use xlink:href="#m2eff793840" x="203.657143" y="243.289581" style="stroke: #000000"/>
     <use xlink:href="#m2eff793840" x="213.222857" y="242.640285" style="stroke: #000000"/>
     <use xlink:href="#m2eff793840" x="222.788571" y="242.98785" style="stroke: #000000"/>
     <use xlink:href="#m2eff793840" x="232.354286" y="242.510814" style="stroke: #000000"/>
     <use xlink:href="#m2eff793840" x="241.92" y="242.392428" style="stroke: #000000"/>
     <use xlink:href="#m2eff793840" x="251.485714" y="242.248801" style="stroke: #000000"/>
     <use xlink:href="#m2eff793840" x="261.051429" y="241.713042" style="stroke: #000000"/>
     <use xlink:href="#m2eff793840" x="270.617143" y="241.989111" style="stroke: #000000"/>
     <use xlink:href="#m2eff793840" x="280.182857" y="241.472777" style="stroke: #000000"/>
     <use xlink:href="#m2eff793840" x="289.748571" y="241.010494" style="stroke: #000000"/>
     <use xlink:href="#m2eff793840" x="299.314286" y="240.627917" style="stroke: #000000"/>
     <use xlink:href="#m2eff793840" x="308.88" y="240.211665" style="stroke: #000000"/>
     <use xlink:href="#m2eff793840" x="318.445714" y="239.983678" style="stroke: #000000"/>
     <use xlink:href="#m2eff793840" x="328.011429" y="238.802307" style="stroke: #000000"/>
     <use xlink:href="#m2eff793840" x="337.577143" y="237.879336" style="stroke: #000000"/>
     <use xlink:href="#m2eff793840" x="347.142857" y="236.655252" style="stroke: #000000"/>
     <use xlink:href="#m2eff793840" x="356.708571" y="235.227506" style="stroke: #000000"/>
     <use xlink:href="#m2eff793840" x="366.274286" y="233.414785" style="stroke: #000000"/>
     <use xlink:href="#m2eff793840" x="375.84" y="230.287216" style="stroke: #000000"/>
     <use xlink:href="#m2eff793840" x="385.405714" y="225.684631" style="stroke: #000000"/>
     <use xlink:href="#m2eff793840" x="394.971429" y="216.785407" style="stroke: #000000"/>
     <use xlink:href="#m2eff793840" x="404.537143" y="195.108429" style="stroke: #000000"/>
     <use xlink:href="#m2eff793840" x="414.102857" y="47.064341" style="stroke: #000000"/>
     <use xlink:href="#m2eff793840" x="423.668571" y="140.835594" style="stroke: #000000"/>
     <use xlink:href="#m2eff793840" x="433.234286" y="204.531897" style="stroke: #000000"/>
     <use xlink:href="#m2eff793840" x="442.8" y="220.054958" style="stroke: #000000"/>
     <use xlink:href="#m2eff793840" x="452.365714" y="227.58949" style="stroke: #000000"/>
     <use xlink:href="#m2eff793840" x="461.931429" y="231.438739" style="stroke: #000000"/>
     <use xlink:href="#m2eff793840" x="471.497143" y="233.922132" style="stroke: #000000"/>
     <use xlink:href="#m2eff793840" x="481.062857" y="235.659551" style="stroke: #000000"/>
     <use xlink:href="#m2eff793840" x="490.628571" y="237.104393" style="stroke: #000000"/>
     <use xlink:href="#m2eff793840" x="500.194286" y="238.49524" style="stroke: #000000"/>
     <use xlink:href="#m2eff793840" x="509.76" y="238.875443" style="stroke: #000000"/>
     <use xlink:href="#m2eff793840" x="519.325714" y="239.434819" style="stroke: #000000"/>
     <use xlink:href="#m2eff793840" x="528.891429" y="240.493291" style="stroke: #000000"/>
     <use xlink:href="#m2eff793840" x="538.457143" y="241.246836" style="stroke: #000000"/>
     <use xlink:href="#m2eff793840" x="548.022857" y="241.301835" style="stroke: #000000"/>
     <use xlink:href="#m2eff793840" x="557.588571" y="241.522366" style="stroke: #000000"/>
     <use xlink:href="#m2eff793840" x="567.154286" y="242.004591" style="stroke: #000000"/>
     <use xlink:href="#m2eff793840" x="576.72" y="242.151424" style="stroke: #000000"/>
     <use xlink:href="#m2eff793840" x="586.285714" y="242.190588" style="stroke: #000000"/>
     <use xlink:href="#m2eff793840" x="595.851429" y="243.010344" style="stroke: #000000"/>
     <use xlink:href="#m2eff793840" x="605.417143" y="242.916088" style="stroke: #000000"/>
     <use xlink:href="#m2eff793840" x="614.982857" y="243.011056" style="stroke: #000000"/>
     <use xlink:href="#m2eff793840" x="624.548571" y="243.187876" style="stroke: #000000"/>
     <use xlink:href="#m2eff793840" x="634.114286" y="243.151683" style="stroke: #000000"/>
     <use xlink:href="#m2eff793840" x="643.68" y="243.129142" style="stroke: #000000"/>
     <use xlink:href="#m2eff793840" x="653.245714" y="243.195954" style="stroke: #000000"/>
     <use xlink:href="#m2eff793840" x="662.811429" y="243.560313" style="stroke: #000000"/>
     <use xlink:href="#m2eff793840" x="672.377143" y="243.581079" style="stroke: #000000"/>
     <use xlink:href="#m2eff793840" x="681.942857" y="243.577716" style="stroke: #000000"/>
     <use xlink:href="#m2eff793840" x="691.508571" y="244.359098" style="stroke: #000000"/>
     <use xlink:href="#m2eff793840" x="701.074286" y="243.899954" style="stroke: #000000"/>
     <use xlink:href="#m2eff793840" x="710.64" y="243.957125" style="stroke: #000000"/>
     <use xlink:href="#m2eff793840" x="720.205714" y="243.914405" style="stroke: #000000"/>
     <use xlink:href="#m2eff793840" x="729.771429" y="244.196579" style="stroke: #000000"/>
     <use xlink:href="#m2eff793840" x="739.337143" y="244.186323" style="stroke: #000000"/>
     <use xlink:href="#m2eff793840" x="748.902857" y="244.259472" style="stroke: #000000"/>
     <use xlink:href="#m2eff793840" x="758.468571" y="244.518761" style="stroke: #000000"/>
     <use xlink:href="#m2eff793840" x="768.034286" y="244.322975" style="stroke: #000000"/>
     <use xlink:href="#m2eff793840" x="777.6" y="244.400267" style="stroke: #000000"/>
     <use xlink:href="#m2eff793840" x="787.165714" y="244.269327" style="stroke: #000000"/>
    </g>
   </g>
   <g id="line2d_28">
    <path d="M 90.561092 242.200558 
L 108.07449 242.405264 
L 125.587889 242.222182 
L 143.101287 242.31225 
L 160.614685 242.089443 
L 178.128084 241.114343 
L 195.641482 240.911381 
L 213.15488 240.029176 
L 230.668279 239.516299 
L 248.181677 239.08292 
L 265.695075 238.74037 
L 283.208474 237.143627 
L 300.721872 236.012507 
L 318.23527 234.14451 
L 335.748668 231.243026 
L 353.262067 227.701806 
L 370.775465 220.767707 
L 388.288863 205.31903 
L 405.802262 143.74604 
L 423.31566 44.64 
L 440.829058 195.57566 
L 458.342457 217.016697 
L 475.855855 225.791774 
L 493.369253 230.401736 
L 510.882652 233.317785 
L 528.39605 236.147035 
L 545.909448 237.122675 
L 563.422847 238.222584 
L 580.936245 238.71575 
L 598.449643 239.812056 
L 615.963041 240.167694 
L 633.47644 240.63777 
L 650.989838 240.971349 
L 668.503236 241.402947 
L 686.016635 242.243276 
L 703.530033 241.911667 
L 721.043431 242.278687 
L 738.55683 242.527396 
L 756.070228 242.786534 
L 773.583626 242.676632 
L 791.097025 243.311221 
" clip-path="url(#p61dd219d72)" style="fill: none; stroke: #0000ff; stroke-width: 1.5; stroke-linecap: square"/>
    <defs>
     <path id="maae45c95f1" d="M 0 1.5 
C 0.397805 1.5 0.77937 1.341951 1.06066 1.06066 
C 1.341951 0.77937 1.5 0.397805 1.5 0 
C 1.5 -0.397805 1.341951 -0.77937 1.06066 -1.06066 
C 0.77937 -1.341951 0.397805 -1.5 0 -1.5 
C -0.397805 -1.5 -0.77937 -1.341951 -1.06066 -1.06066 
C -1.341951 -0.77937 -1.5 -0.397805 -1.5 0 
C -1.5 0.397805 -1.341951 0.77937 -1.06066 1.06066 
C -0.77937 1.341951 -0.397805 1.5 0 1.5 
z
" style="stroke: #0000ff"/>
    </defs>
    <g clip-path="url(#p61dd219d72)">
     <use xlink:href="#maae45c95f1" x="90.561092" y="242.200558" style="fill: #0000ff; stroke: #0000ff"/>
     <use xlink:href="#maae45c95f1" x="108.07449" y="242.405264" style="fill: #0000ff; stroke: #0000ff"/>
     <use xlink:href="#maae45c95f1" x="125.587889" y="242.222182" style="fill: #0000ff; stroke: #0000ff"/>
     <use xlink:href="#maae45c95f1" x="143.101287" y="242.31225" style="fill: #0000ff; stroke: #0000ff"/>
     <use xlink:href="#maae45c95f1" x="160.614685" y="242.089443" style="fill: #0000ff; stroke: #0000ff"/>
     <use xlink:href="#maae45c95f1" x="178.128084" y="241.114343" style="fill: #0000ff; stroke: #0000ff"/>
     <use xlink:href="#maae45c95f1" x="195.641482" y="240.911381" style="fill: #0000ff; stroke: #0000ff"/>
     <use xlink:href="#maae45c95f1" x="213.15488" y="240.029176" style="fill: #0000ff; stroke: #0000ff"/>
     <use xlink:href="#maae45c95f1" x="230.668279" y="239.516299" style="fill: #0000ff; stroke: #0000ff"/>
     <use xlink:href="#maae45c95f1" x="248.181677" y="239.08292" style="fill: #0000ff; stroke: #0000ff"/>
     <use xlink:href="#maae45c95f1" x="265.695075" y="238.74037" style="fill: #0000ff; stroke: #0000ff"/>
     <use xlink:href="#maae45c95f1" x="283.208474" y="237.143627" style="fill: #0000ff; stroke: #0000ff"/>
     <use xlink:href="#maae45c95f1" x="300.721872" y="236.012507" style="fill: #0000ff; stroke: #0000ff"/>
     <use xlink:href="#maae45c95f1" x="318.23527" y="234.14451" style="fill: #0000ff; stroke: #0000ff"/>
     <use xlink:href="#maae45c95f1" x="335.748668" y="231.243026" style="fill: #0000ff; stroke: #0000ff"/>
     <use xlink:href="#maae45c95f1" x="353.262067" y="227.701806" style="fill: #0000ff; stroke: #0000ff"/>
     <use xlink:href="#maae45c95f1" x="370.775465" y="220.767707" style="fill: #0000ff; stroke: #0000ff"/>
     <use xlink:href="#maae45c95f1" x="388.288863" y="205.31903" style="fill: #0000ff; stroke: #0000ff"/>
     <use xlink:href="#maae45c95f1" x="405.802262" y="143.74604" style="fill: #0000ff; stroke: #0000ff"/>
     <use xlink:href="#maae45c95f1" x="423.31566" y="44.64" style="fill: #0000ff; stroke: #0000ff"/>
     <use xlink:href="#maae45c95f1" x="440.829058" y="195.57566" style="fill: #0000ff; stroke: #0000ff"/>
     <use xlink:href="#maae45c95f1" x="458.342457" y="217.016697" style="fill: #0000ff; stroke: #0000ff"/>
     <use xlink:href="#maae45c95f1" x="475.855855" y="225.791774" style="fill: #0000ff; stroke: #0000ff"/>
     <use xlink:href="#maae45c95f1" x="493.369253" y="230.401736" style="fill: #0000ff; stroke: #0000ff"/>
     <use xlink:href="#maae45c95f1" x="510.882652" y="233.317785" style="fill: #0000ff; stroke: #0000ff"/>
     <use xlink:href="#maae45c95f1" x="528.39605" y="236.147035" style="fill: #0000ff; stroke: #0000ff"/>
     <use xlink:href="#maae45c95f1" x="545.909448" y="237.122675" style="fill: #0000ff; stroke: #0000ff"/>
     <use xlink:href="#maae45c95f1" x="563.422847" y="238.222584" style="fill: #0000ff; stroke: #0000ff"/>
     <use xlink:href="#maae45c95f1" x="580.936245" y="238.71575" style="fill: #0000ff; stroke: #0000ff"/>
     <use xlink:href="#maae45c95f1" x="598.449643" y="239.812056" style="fill: #0000ff; stroke: #0000ff"/>
     <use xlink:href="#maae45c95f1" x="615.963041" y="240.167694" style="fill: #0000ff; stroke: #0000ff"/>
     <use xlink:href="#maae45c95f1" x="633.47644" y="240.63777" style="fill: #0000ff; stroke: #0000ff"/>
     <use xlink:href="#maae45c95f1" x="650.989838" y="240.971349" style="fill: #0000ff; stroke: #0000ff"/>
     <use xlink:href="#maae45c95f1" x="668.503236" y="241.402947" style="fill: #0000ff; stroke: #0000ff"/>
     <use xlink:href="#maae45c95f1" x="686.016635" y="242.243276" style="fill: #0000ff; stroke: #0000ff"/>
     <use xlink:href="#maae45c95f1" x="703.530033" y="241.911667" style="fill: #0000ff; stroke: #0000ff"/>
     <use xlink:href="#maae45c95f1" x="721.043431" y="242.278687" style="fill: #0000ff; stroke: #0000ff"/>
     <use xlink:href="#maae45c95f1" x="738.55683" y="242.527396" style="fill: #0000ff; stroke: #0000ff"/>
     <use xlink:href="#maae45c95f1" x="756.070228" y="242.786534" style="fill: #0000ff; stroke: #0000ff"/>
     <use xlink:href="#maae45c95f1" x="773.583626" y="242.676632" style="fill: #0000ff; stroke: #0000ff"/>
     <use xlink:href="#maae45c95f1" x="791.097025" y="243.311221" style="fill: #0000ff; stroke: #0000ff"/>
    </g>
   </g>
   <g id="line2d_29">
    <path d="M 99.317791 244.471461 
L 108.07449 243.845336 
L 116.83119 244.385225 
L 125.587889 244.204861 
L 134.344588 243.689096 
L 143.101287 244.38395 
L 151.857986 244.41623 
L 160.614685 245.267831 
L 169.371384 245.381171 
L 178.128084 245.990531 
L 186.884783 245.410725 
L 195.641482 244.752372 
L 204.398181 244.019695 
L 213.15488 242.909897 
L 221.911579 242.94165 
L 230.668279 242.420818 
L 239.424978 242.573623 
L 248.181677 242.924057 
L 256.938376 243.37321 
L 265.695075 244.686566 
L 274.451774 245.28242 
L 283.208474 245.802144 
L 291.965173 244.269602 
L 300.721872 242.766724 
L 309.478571 241.351354 
L 318.23527 240.315119 
L 326.991969 238.663779 
L 335.748668 237.803414 
L 344.505368 237.385883 
L 353.262067 237.744721 
L 362.018766 238.866758 
L 370.775465 240.631522 
L 379.532164 244.089028 
L 388.288863 242.981557 
L 397.045563 232.926887 
L 405.802262 209.749464 
L 414.558961 53.713594 
L 423.31566 138.452612 
L 432.072359 199.929358 
L 440.829058 217.358913 
L 449.585757 227.193504 
L 458.342457 233.357296 
L 467.099156 238.244168 
L 475.855855 242.261413 
L 484.612554 245.571955 
L 493.369253 244.331851 
L 502.125952 242.904374 
L 510.882652 241.247009 
L 519.639351 240.357031 
L 528.39605 240.614141 
L 537.152749 240.994158 
L 545.909448 241.082009 
L 554.666147 241.785754 
L 563.422847 242.915766 
L 572.179546 243.828872 
L 580.936245 244.961573 
L 589.692944 246.045828 
L 598.449643 245.679338 
L 607.206342 244.722292 
L 615.963041 243.996838 
L 624.719741 243.548542 
L 633.47644 243.119672 
L 642.233139 242.98053 
L 650.989838 243.224411 
L 659.746537 243.883969 
L 668.503236 244.316083 
L 677.259936 244.983653 
L 686.016635 245.981222 
L 694.773334 245.835167 
L 703.530033 245.659617 
L 712.286732 245.04713 
L 721.043431 244.477965 
L 729.80013 244.378988 
L 738.55683 244.166627 
L 747.313529 244.194962 
L 756.070228 244.468108 
L 764.826927 244.453832 
L 773.583626 244.899388 
L 782.340325 245.267848 
" clip-path="url(#p61dd219d72)" style="fill: none; stroke: #ff0000; stroke-width: 1.5; stroke-linecap: square"/>
    <defs>
     <path id="m800849ed06" d="M 0 1.5 
C 0.397805 1.5 0.77937 1.341951 1.06066 1.06066 
C 1.341951 0.77937 1.5 0.397805 1.5 0 
C 1.5 -0.397805 1.341951 -0.77937 1.06066 -1.06066 
C 0.77937 -1.341951 0.397805 -1.5 0 -1.5 
C -0.397805 -1.5 -0.77937 -1.341951 -1.06066 -1.06066 
C -1.341951 -0.77937 -1.5 -0.397805 -1.5 0 
C -1.5 0.397805 -1.341951 0.77937 -1.06066 1.06066 
C -0.77937 1.341951 -0.397805 1.5 0 1.5 
z
" style="stroke: #ff0000"/>
    </defs>
    <g clip-path="url(#p61dd219d72)">
     <use xlink:href="#m800849ed06" x="99.317791" y="244.471461" style="fill: #ff0000; stroke: #ff0000"/>
     <use xlink:href="#m800849ed06" x="108.07449" y="243.845336" style="fill: #ff0000; stroke: #ff0000"/>
     <use xlink:href="#m800849ed06" x="116.83119" y="244.385225" style="fill: #ff0000; stroke: #ff0000"/>
     <use xlink:href="#m800849ed06" x="125.587889" y="244.204861" style="fill: #ff0000; stroke: #ff0000"/>
     <use xlink:href="#m800849ed06" x="134.344588" y="243.689096" style="fill: #ff0000; stroke: #ff0000"/>
     <use xlink:href="#m800849ed06" x="143.101287" y="244.38395" style="fill: #ff0000; stroke: #ff0000"/>
     <use xlink:href="#m800849ed06" x="151.857986" y="244.41623" style="fill: #ff0000; stroke: #ff0000"/>
     <use xlink:href="#m800849ed06" x="160.614685" y="245.267831" style="fill: #ff0000; stroke: #ff0000"/>
     <use xlink:href="#m800849ed06" x="169.371384" y="245.381171" style="fill: #ff0000; stroke: #ff0000"/>
     <use xlink:href="#m800849ed06" x="178.128084" y="245.990531" style="fill: #ff0000; stroke: #ff0000"/>
     <use xlink:href="#m800849ed06" x="186.884783" y="245.410725" style="fill: #ff0000; stroke: #ff0000"/>
     <use xlink:href="#m800849ed06" x="195.641482" y="244.752372" style="fill: #ff0000; stroke: #ff0000"/>
     <use xlink:href="#m800849ed06" x="204.398181" y="244.019695" style="fill: #ff0000; stroke: #ff0000"/>
     <use xlink:href="#m800849ed06" x="213.15488" y="242.909897" style="fill: #ff0000; stroke: #ff0000"/>
     <use xlink:href="#m800849ed06" x="221.911579" y="242.94165" style="fill: #ff0000; stroke: #ff0000"/>
     <use xlink:href="#m800849ed06" x="230.668279" y="242.420818" style="fill: #ff0000; stroke: #ff0000"/>
     <use xlink:href="#m800849ed06" x="239.424978" y="242.573623" style="fill: #ff0000; stroke: #ff0000"/>
     <use xlink:href="#m800849ed06" x="248.181677" y="242.924057" style="fill: #ff0000; stroke: #ff0000"/>
     <use xlink:href="#m800849ed06" x="256.938376" y="243.37321" style="fill: #ff0000; stroke: #ff0000"/>
     <use xlink:href="#m800849ed06" x="265.695075" y="244.686566" style="fill: #ff0000; stroke: #ff0000"/>
     <use xlink:href="#m800849ed06" x="274.451774" y="245.28242" style="fill: #ff0000; stroke: #ff0000"/>
     <use xlink:href="#m800849ed06" x="283.208474" y="245.802144" style="fill: #ff0000; stroke: #ff0000"/>
     <use xlink:href="#m800849ed06" x="291.965173" y="244.269602" style="fill: #ff0000; stroke: #ff0000"/>
     <use xlink:href="#m800849ed06" x="300.721872" y="242.766724" style="fill: #ff0000; stroke: #ff0000"/>
     <use xlink:href="#m800849ed06" x="309.478571" y="241.351354" style="fill: #ff0000; stroke: #ff0000"/>
     <use xlink:href="#m800849ed06" x="318.23527" y="240.315119" style="fill: #ff0000; stroke: #ff0000"/>
     <use xlink:href="#m800849ed06" x="326.991969" y="238.663779" style="fill: #ff0000; stroke: #ff0000"/>
     <use xlink:href="#m800849ed06" x="335.748668" y="237.803414" style="fill: #ff0000; stroke: #ff0000"/>
     <use xlink:href="#m800849ed06" x="344.505368" y="237.385883" style="fill: #ff0000; stroke: #ff0000"/>
     <use xlink:href="#m800849ed06" x="353.262067" y="237.744721" style="fill: #ff0000; stroke: #ff0000"/>
     <use xlink:href="#m800849ed06" x="362.018766" y="238.866758" style="fill: #ff0000; stroke: #ff0000"/>
     <use xlink:href="#m800849ed06" x="370.775465" y="240.631522" style="fill: #ff0000; stroke: #ff0000"/>
     <use xlink:href="#m800849ed06" x="379.532164" y="244.089028" style="fill: #ff0000; stroke: #ff0000"/>
     <use xlink:href="#m800849ed06" x="388.288863" y="242.981557" style="fill: #ff0000; stroke: #ff0000"/>
     <use xlink:href="#m800849ed06" x="397.045563" y="232.926887" style="fill: #ff0000; stroke: #ff0000"/>
     <use xlink:href="#m800849ed06" x="405.802262" y="209.749464" style="fill: #ff0000; stroke: #ff0000"/>
     <use xlink:href="#m800849ed06" x="414.558961" y="53.713594" style="fill: #ff0000; stroke: #ff0000"/>
     <use xlink:href="#m800849ed06" x="423.31566" y="138.452612" style="fill: #ff0000; stroke: #ff0000"/>
     <use xlink:href="#m800849ed06" x="432.072359" y="199.929358" style="fill: #ff0000; stroke: #ff0000"/>
     <use xlink:href="#m800849ed06" x="440.829058" y="217.358913" style="fill: #ff0000; stroke: #ff0000"/>
     <use xlink:href="#m800849ed06" x="449.585757" y="227.193504" style="fill: #ff0000; stroke: #ff0000"/>
     <use xlink:href="#m800849ed06" x="458.342457" y="233.357296" style="fill: #ff0000; stroke: #ff0000"/>
     <use xlink:href="#m800849ed06" x="467.099156" y="238.244168" style="fill: #ff0000; stroke: #ff0000"/>
     <use xlink:href="#m800849ed06" x="475.855855" y="242.261413" style="fill: #ff0000; stroke: #ff0000"/>
     <use xlink:href="#m800849ed06" x="484.612554" y="245.571955" style="fill: #ff0000; stroke: #ff0000"/>
     <use xlink:href="#m800849ed06" x="493.369253" y="244.331851" style="fill: #ff0000; stroke: #ff0000"/>
     <use xlink:href="#m800849ed06" x="502.125952" y="242.904374" style="fill: #ff0000; stroke: #ff0000"/>
     <use xlink:href="#m800849ed06" x="510.882652" y="241.247009" style="fill: #ff0000; stroke: #ff0000"/>
     <use xlink:href="#m800849ed06" x="519.639351" y="240.357031" style="fill: #ff0000; stroke: #ff0000"/>
     <use xlink:href="#m800849ed06" x="528.39605" y="240.614141" style="fill: #ff0000; stroke: #ff0000"/>
     <use xlink:href="#m800849ed06" x="537.152749" y="240.994158" style="fill: #ff0000; stroke: #ff0000"/>
     <use xlink:href="#m800849ed06" x="545.909448" y="241.082009" style="fill: #ff0000; stroke: #ff0000"/>
     <use xlink:href="#m800849ed06" x="554.666147" y="241.785754" style="fill: #ff0000; stroke: #ff0000"/>
     <use xlink:href="#m800849ed06" x="563.422847" y="242.915766" style="fill: #ff0000; stroke: #ff0000"/>
     <use xlink:href="#m800849ed06" x="572.179546" y="243.828872" style="fill: #ff0000; stroke: #ff0000"/>
     <use xlink:href="#m800849ed06" x="580.936245" y="244.961573" style="fill: #ff0000; stroke: #ff0000"/>
     <use xlink:href="#m800849ed06" x="589.692944" y="246.045828" style="fill: #ff0000; stroke: #ff0000"/>
     <use xlink:href="#m800849ed06" x="598.449643" y="245.679338" style="fill: #ff0000; stroke: #ff0000"/>
     <use xlink:href="#m800849ed06" x="607.206342" y="244.722292" style="fill: #ff0000; stroke: #ff0000"/>
     <use xlink:href="#m800849ed06" x="615.963041" y="243.996838" style="fill: #ff0000; stroke: #ff0000"/>
     <use xlink:href="#m800849ed06" x="624.719741" y="243.548542" style="fill: #ff0000; stroke: #ff0000"/>
     <use xlink:href="#m800849ed06" x="633.47644" y="243.119672" style="fill: #ff0000; stroke: #ff0000"/>
     <use xlink:href="#m800849ed06" x="642.233139" y="242.98053" style="fill: #ff0000; stroke: #ff0000"/>
     <use xlink:href="#m800849ed06" x="650.989838" y="243.224411" style="fill: #ff0000; stroke: #ff0000"/>
     <use xlink:href="#m800849ed06" x="659.746537" y="243.883969" style="fill: #ff0000; stroke: #ff0000"/>
     <use xlink:href="#m800849ed06" x="668.503236" y="244.316083" style="fill: #ff0000; stroke: #ff0000"/>
     <use xlink:href="#m800849ed06" x="677.259936" y="244.983653" style="fill: #ff0000; stroke: #ff0000"/>
     <use xlink:href="#m800849ed06" x="686.016635" y="245.981222" style="fill: #ff0000; stroke: #ff0000"/>
     <use xlink:href="#m800849ed06" x="694.773334" y="245.835167" style="fill: #ff0000; stroke: #ff0000"/>
     <use xlink:href="#m800849ed06" x="703.530033" y="245.659617" style="fill: #ff0000; stroke: #ff0000"/>
     <use xlink:href="#m800849ed06" x="712.286732" y="245.04713" style="fill: #ff0000; stroke: #ff0000"/>
     <use xlink:href="#m800849ed06" x="721.043431" y="244.477965" style="fill: #ff0000; stroke: #ff0000"/>
     <use xlink:href="#m800849ed06" x="729.80013" y="244.378988" style="fill: #ff0000; stroke: #ff0000"/>
     <use xlink:href="#m800849ed06" x="738.55683" y="244.166627" style="fill: #ff0000; stroke: #ff0000"/>
     <use xlink:href="#m800849ed06" x="747.313529" y="244.194962" style="fill: #ff0000; stroke: #ff0000"/>
     <use xlink:href="#m800849ed06" x="756.070228" y="244.468108" style="fill: #ff0000; stroke: #ff0000"/>
     <use xlink:href="#m800849ed06" x="764.826927" y="244.453832" style="fill: #ff0000; stroke: #ff0000"/>
     <use xlink:href="#m800849ed06" x="773.583626" y="244.899388" style="fill: #ff0000; stroke: #ff0000"/>
     <use xlink:href="#m800849ed06" x="782.340325" y="245.267848" style="fill: #ff0000; stroke: #ff0000"/>
    </g>
   </g>
   <g id="patch_3">
    <path d="M 108 256.32 
L 108 34.56 
" style="fill: none; stroke: #000000; stroke-width: 0.8; stroke-linejoin: miter; stroke-linecap: square"/>
   </g>
   <g id="patch_4">
    <path d="M 777.6 256.32 
L 777.6 34.56 
" style="fill: none; stroke: #000000; stroke-width: 0.8; stroke-linejoin: miter; stroke-linecap: square"/>
   </g>
   <g id="patch_5">
    <path d="M 108 256.32 
L 777.6 256.32 
" style="fill: none; stroke: #000000; stroke-width: 0.8; stroke-linejoin: miter; stroke-linecap: square"/>
   </g>
   <g id="patch_6">
    <path d="M 108 34.56 
L 777.6 34.56 
" style="fill: none; stroke: #000000; stroke-width: 0.8; stroke-linejoin: miter; stroke-linecap: square"/>
   </g>
   <g id="text_16">
    <g id="patch_7">
     <path d="M 151.828571 76.237603 
L 311.128571 76.237603 
L 311.128571 58.537603 
L 151.828571 58.537603 
z
" style="fill: #ffffff; stroke: #ffffff; stroke-linejoin: miter"/>
    </g>
    <!-- Abtastfrequenz $f_S =$ 38395 Hz -->
    <g transform="translate(155.828571 70.137603) scale(0.1 -0.1)">
     <defs>
      <path id="DejaVuSans-62" d="M 3116 1747 
Q 3116 2381 2855 2742 
Q 2594 3103 2138 3103 
Q 1681 3103 1420 2742 
Q 1159 2381 1159 1747 
Q 1159 1113 1420 752 
Q 1681 391 2138 391 
Q 2594 391 2855 752 
Q 3116 1113 3116 1747 
z
M 1159 2969 
Q 1341 3281 1617 3432 
Q 1894 3584 2278 3584 
Q 2916 3584 3314 3078 
Q 3713 2572 3713 1747 
Q 3713 922 3314 415 
Q 2916 -91 2278 -91 
Q 1894 -91 1617 61 
Q 1341 213 1159 525 
L 1159 0 
L 581 0 
L 581 4863 
L 1159 4863 
L 1159 2969 
z
" transform="scale(0.015625)"/>
      <path id="DejaVuSans-61" d="M 2194 1759 
Q 1497 1759 1228 1600 
Q 959 1441 959 1056 
Q 959 750 1161 570 
Q 1363 391 1709 391 
Q 2188 391 2477 730 
Q 2766 1069 2766 1631 
L 2766 1759 
L 2194 1759 
z
M 3341 1997 
L 3341 0 
L 2766 0 
L 2766 531 
Q 2569 213 2275 61 
Q 1981 -91 1556 -91 
Q 1019 -91 701 211 
Q 384 513 384 1019 
Q 384 1609 779 1909 
Q 1175 2209 1959 2209 
L 2766 2209 
L 2766 2266 
Q 2766 2663 2505 2880 
Q 2244 3097 1772 3097 
Q 1472 3097 1187 3025 
Q 903 2953 641 2809 
L 641 3341 
Q 956 3463 1253 3523 
Q 1550 3584 1831 3584 
Q 2591 3584 2966 3190 
Q 3341 2797 3341 1997 
z
" transform="scale(0.015625)"/>
      <path id="DejaVuSans-66" d="M 2375 4863 
L 2375 4384 
L 1825 4384 
Q 1516 4384 1395 4259 
Q 1275 4134 1275 3809 
L 1275 3500 
L 2222 3500 
L 2222 3053 
L 1275 3053 
L 1275 0 
L 697 0 
L 697 3053 
L 147 3053 
L 147 3500 
L 697 3500 
L 697 3744 
Q 697 4328 969 4595 
Q 1241 4863 1831 4863 
L 2375 4863 
z
" transform="scale(0.015625)"/>
      <path id="DejaVuSans-Oblique-53" d="M 3859 4513 
L 3738 3897 
Q 3422 4066 3111 4152 
Q 2800 4238 2509 4238 
Q 1944 4238 1609 3991 
Q 1275 3744 1275 3334 
Q 1275 3109 1398 2989 
Q 1522 2869 2034 2731 
L 2413 2638 
Q 3053 2472 3303 2217 
Q 3553 1963 3553 1503 
Q 3553 797 2998 353 
Q 2444 -91 1538 -91 
Q 1166 -91 791 -17 
Q 416 56 38 206 
L 166 856 
Q 513 641 861 531 
Q 1209 422 1556 422 
Q 2147 422 2503 684 
Q 2859 947 2859 1369 
Q 2859 1650 2717 1795 
Q 2575 1941 2106 2059 
L 1728 2156 
Q 1081 2325 845 2545 
Q 609 2766 609 3163 
Q 609 3859 1145 4304 
Q 1681 4750 2541 4750 
Q 2875 4750 3203 4690 
Q 3531 4631 3859 4513 
z
" transform="scale(0.015625)"/>
      <path id="DejaVuSans-3d" d="M 678 2906 
L 4684 2906 
L 4684 2381 
L 678 2381 
L 678 2906 
z
M 678 1631 
L 4684 1631 
L 4684 1100 
L 678 1100 
L 678 1631 
z
" transform="scale(0.015625)"/>
     </defs>
     <use xlink:href="#DejaVuSans-41" transform="translate(0 0.015625)"/>
     <use xlink:href="#DejaVuSans-62" transform="translate(68.408203 0.015625)"/>
     <use xlink:href="#DejaVuSans-74" transform="translate(131.884766 0.015625)"/>
     <use xlink:href="#DejaVuSans-61" transform="translate(171.09375 0.015625)"/>
     <use xlink:href="#DejaVuSans-73" transform="translate(232.373047 0.015625)"/>
     <use xlink:href="#DejaVuSans-74" transform="translate(284.472656 0.015625)"/>
     <use xlink:href="#DejaVuSans-66" transform="translate(323.681641 0.015625)"/>
     <use xlink:href="#DejaVuSans-72" transform="translate(358.886719 0.015625)"/>
     <use xlink:href="#DejaVuSans-65" transform="translate(400 0.015625)"/>
     <use xlink:href="#DejaVuSans-71" transform="translate(461.523438 0.015625)"/>
     <use xlink:href="#DejaVuSans-75" transform="translate(525 0.015625)"/>
     <use xlink:href="#DejaVuSans-65" transform="translate(588.378906 0.015625)"/>
     <use xlink:href="#DejaVuSans-6e" transform="translate(649.902344 0.015625)"/>
     <use xlink:href="#DejaVuSans-7a" transform="translate(713.28125 0.015625)"/>
     <use xlink:href="#DejaVuSans-20" transform="translate(765.771484 0.015625)"/>
     <use xlink:href="#DejaVuSans-Oblique-66" transform="translate(797.558594 0.015625)"/>
     <use xlink:href="#DejaVuSans-Oblique-53" transform="translate(832.763672 -16.390625) scale(0.7)"/>
     <use xlink:href="#DejaVuSans-3d" transform="translate(899.414062 0.015625)"/>
     <use xlink:href="#DejaVuSans-20" transform="translate(1002.685547 0.015625)"/>
     <use xlink:href="#DejaVuSans-33" transform="translate(1034.472656 0.015625)"/>
     <use xlink:href="#DejaVuSans-38" transform="translate(1098.095703 0.015625)"/>
     <use xlink:href="#DejaVuSans-33" transform="translate(1161.71875 0.015625)"/>
     <use xlink:href="#DejaVuSans-39" transform="translate(1225.341797 0.015625)"/>
     <use xlink:href="#DejaVuSans-35" transform="translate(1288.964844 0.015625)"/>
     <use xlink:href="#DejaVuSans-20" transform="translate(1352.587891 0.015625)"/>
     <use xlink:href="#DejaVuSans-48" transform="translate(1384.375 0.015625)"/>
     <use xlink:href="#DejaVuSans-7a" transform="translate(1459.570312 0.015625)"/>
    </g>
   </g>
   <g id="text_17">
    <g id="patch_8">
     <path d="M 151.828571 94.561303 
L 375.950446 94.561303 
L 375.950446 76.883178 
L 151.828571 76.883178 
z
" style="fill: #ffffff; stroke: #ffffff; stroke-linejoin: miter"/>
    </g>
    <!-- Signal: 439.12 Hz-Schwingung + Rauschen -->
    <g transform="translate(155.828571 88.481615) scale(0.1 -0.1)">
     <defs>
      <path id="DejaVuSans-53" d="M 3425 4513 
L 3425 3897 
Q 3066 4069 2747 4153 
Q 2428 4238 2131 4238 
Q 1616 4238 1336 4038 
Q 1056 3838 1056 3469 
Q 1056 3159 1242 3001 
Q 1428 2844 1947 2747 
L 2328 2669 
Q 3034 2534 3370 2195 
Q 3706 1856 3706 1288 
Q 3706 609 3251 259 
Q 2797 -91 1919 -91 
Q 1588 -91 1214 -16 
Q 841 59 441 206 
L 441 856 
Q 825 641 1194 531 
Q 1563 422 1919 422 
Q 2459 422 2753 634 
Q 3047 847 3047 1241 
Q 3047 1584 2836 1778 
Q 2625 1972 2144 2069 
L 1759 2144 
Q 1053 2284 737 2584 
Q 422 2884 422 3419 
Q 422 4038 858 4394 
Q 1294 4750 2059 4750 
Q 2388 4750 2728 4690 
Q 3069 4631 3425 4513 
z
" transform="scale(0.015625)"/>
      <path id="DejaVuSans-67" d="M 2906 1791 
Q 2906 2416 2648 2759 
Q 2391 3103 1925 3103 
Q 1463 3103 1205 2759 
Q 947 2416 947 1791 
Q 947 1169 1205 825 
Q 1463 481 1925 481 
Q 2391 481 2648 825 
Q 2906 1169 2906 1791 
z
M 3481 434 
Q 3481 -459 3084 -895 
Q 2688 -1331 1869 -1331 
Q 1566 -1331 1297 -1286 
Q 1028 -1241 775 -1147 
L 775 -588 
Q 1028 -725 1275 -790 
Q 1522 -856 1778 -856 
Q 2344 -856 2625 -561 
Q 2906 -266 2906 331 
L 2906 616 
Q 2728 306 2450 153 
Q 2172 0 1784 0 
Q 1141 0 747 490 
Q 353 981 353 1791 
Q 353 2603 747 3093 
Q 1141 3584 1784 3584 
Q 2172 3584 2450 3431 
Q 2728 3278 2906 2969 
L 2906 3500 
L 3481 3500 
L 3481 434 
z
" transform="scale(0.015625)"/>
      <path id="DejaVuSans-3a" d="M 750 794 
L 1409 794 
L 1409 0 
L 750 0 
L 750 794 
z
M 750 3309 
L 1409 3309 
L 1409 2516 
L 750 2516 
L 750 3309 
z
" transform="scale(0.015625)"/>
      <path id="DejaVuSans-2d" d="M 313 2009 
L 1997 2009 
L 1997 1497 
L 313 1497 
L 313 2009 
z
" transform="scale(0.015625)"/>
      <path id="DejaVuSans-63" d="M 3122 3366 
L 3122 2828 
Q 2878 2963 2633 3030 
Q 2388 3097 2138 3097 
Q 1578 3097 1268 2742 
Q 959 2388 959 1747 
Q 959 1106 1268 751 
Q 1578 397 2138 397 
Q 2388 397 2633 464 
Q 2878 531 3122 666 
L 3122 134 
Q 2881 22 2623 -34 
Q 2366 -91 2075 -91 
Q 1284 -91 818 406 
Q 353 903 353 1747 
Q 353 2603 823 3093 
Q 1294 3584 2113 3584 
Q 2378 3584 2631 3529 
Q 2884 3475 3122 3366 
z
" transform="scale(0.015625)"/>
      <path id="DejaVuSans-68" d="M 3513 2113 
L 3513 0 
L 2938 0 
L 2938 2094 
Q 2938 2591 2744 2837 
Q 2550 3084 2163 3084 
Q 1697 3084 1428 2787 
Q 1159 2491 1159 1978 
L 1159 0 
L 581 0 
L 581 4863 
L 1159 4863 
L 1159 2956 
Q 1366 3272 1645 3428 
Q 1925 3584 2291 3584 
Q 2894 3584 3203 3211 
Q 3513 2838 3513 2113 
z
" transform="scale(0.015625)"/>
      <path id="DejaVuSans-77" d="M 269 3500 
L 844 3500 
L 1563 769 
L 2278 3500 
L 2956 3500 
L 3675 769 
L 4391 3500 
L 4966 3500 
L 4050 0 
L 3372 0 
L 2619 2869 
L 1863 0 
L 1184 0 
L 269 3500 
z
" transform="scale(0.015625)"/>
      <path id="DejaVuSans-2b" d="M 2944 4013 
L 2944 2272 
L 4684 2272 
L 4684 1741 
L 2944 1741 
L 2944 0 
L 2419 0 
L 2419 1741 
L 678 1741 
L 678 2272 
L 2419 2272 
L 2419 4013 
L 2944 4013 
z
" transform="scale(0.015625)"/>
      <path id="DejaVuSans-52" d="M 2841 2188 
Q 3044 2119 3236 1894 
Q 3428 1669 3622 1275 
L 4263 0 
L 3584 0 
L 2988 1197 
Q 2756 1666 2539 1819 
Q 2322 1972 1947 1972 
L 1259 1972 
L 1259 0 
L 628 0 
L 628 4666 
L 2053 4666 
Q 2853 4666 3247 4331 
Q 3641 3997 3641 3322 
Q 3641 2881 3436 2590 
Q 3231 2300 2841 2188 
z
M 1259 4147 
L 1259 2491 
L 2053 2491 
Q 2509 2491 2742 2702 
Q 2975 2913 2975 3322 
Q 2975 3731 2742 3939 
Q 2509 4147 2053 4147 
L 1259 4147 
z
" transform="scale(0.015625)"/>
     </defs>
     <use xlink:href="#DejaVuSans-53"/>
     <use xlink:href="#DejaVuSans-69" x="63.476562"/>
     <use xlink:href="#DejaVuSans-67" x="91.259766"/>
     <use xlink:href="#DejaVuSans-6e" x="154.736328"/>
     <use xlink:href="#DejaVuSans-61" x="218.115234"/>
     <use xlink:href="#DejaVuSans-6c" x="279.394531"/>
     <use xlink:href="#DejaVuSans-3a" x="307.177734"/>
     <use xlink:href="#DejaVuSans-20" x="340.869141"/>
     <use xlink:href="#DejaVuSans-34" x="372.65625"/>
     <use xlink:href="#DejaVuSans-33" x="436.279297"/>
     <use xlink:href="#DejaVuSans-39" x="499.902344"/>
     <use xlink:href="#DejaVuSans-2e" x="563.525391"/>
     <use xlink:href="#DejaVuSans-31" x="595.3125"/>
     <use xlink:href="#DejaVuSans-32" x="658.935547"/>
     <use xlink:href="#DejaVuSans-20" x="722.558594"/>
     <use xlink:href="#DejaVuSans-48" x="754.345703"/>
     <use xlink:href="#DejaVuSans-7a" x="829.541016"/>
     <use xlink:href="#DejaVuSans-2d" x="882.03125"/>
     <use xlink:href="#DejaVuSans-53" x="918.115234"/>
     <use xlink:href="#DejaVuSans-63" x="981.591797"/>
     <use xlink:href="#DejaVuSans-68" x="1036.572266"/>
     <use xlink:href="#DejaVuSans-77" x="1099.951172"/>
     <use xlink:href="#DejaVuSans-69" x="1181.738281"/>
     <use xlink:href="#DejaVuSans-6e" x="1209.521484"/>
     <use xlink:href="#DejaVuSans-67" x="1272.900391"/>
     <use xlink:href="#DejaVuSans-75" x="1336.376953"/>
     <use xlink:href="#DejaVuSans-6e" x="1399.755859"/>
     <use xlink:href="#DejaVuSans-67" x="1463.134766"/>
     <use xlink:href="#DejaVuSans-20" x="1526.611328"/>
     <use xlink:href="#DejaVuSans-2b" x="1558.398438"/>
     <use xlink:href="#DejaVuSans-20" x="1642.1875"/>
     <use xlink:href="#DejaVuSans-52" x="1673.974609"/>
     <use xlink:href="#DejaVuSans-61" x="1741.207031"/>
     <use xlink:href="#DejaVuSans-75" x="1802.486328"/>
     <use xlink:href="#DejaVuSans-73" x="1865.865234"/>
     <use xlink:href="#DejaVuSans-63" x="1917.964844"/>
     <use xlink:href="#DejaVuSans-68" x="1972.945312"/>
     <use xlink:href="#DejaVuSans-65" x="2036.324219"/>
     <use xlink:href="#DejaVuSans-6e" x="2097.847656"/>
    </g>
   </g>
   <g id="legend_1">
    <g id="patch_9">
     <path d="M 600.775 86.594375 
L 770.6 86.594375 
Q 772.6 86.594375 772.6 84.594375 
L 772.6 41.56 
Q 772.6 39.56 770.6 39.56 
L 600.775 39.56 
Q 598.775 39.56 598.775 41.56 
L 598.775 84.594375 
Q 598.775 86.594375 600.775 86.594375 
z
" style="fill: #ffffff; opacity: 0.8; stroke: #cccccc; stroke-linejoin: miter"/>
    </g>
    <g id="line2d_30">
     <path d="M 602.775 47.658438 
L 612.775 47.658438 
L 622.775 47.658438 
" style="fill: none; stroke: #000000; stroke-width: 1.5; stroke-linecap: square"/>
     <g>
      <use xlink:href="#m2eff793840" x="612.775" y="47.658438" style="stroke: #000000"/>
     </g>
    </g>
    <g id="text_18">
     <!-- ungnstige Sampleanzahl -->
     <g transform="translate(630.775 51.158438) scale(0.1 -0.1)">
      <defs>
       <path id="DejaVuSans-fc" d="M 544 1381 
L 544 3500 
L 1119 3500 
L 1119 1403 
Q 1119 906 1312 657 
Q 1506 409 1894 409 
Q 2359 409 2629 706 
Q 2900 1003 2900 1516 
L 2900 3500 
L 3475 3500 
L 3475 0 
L 2900 0 
L 2900 538 
Q 2691 219 2414 64 
Q 2138 -91 1772 -91 
Q 1169 -91 856 284 
Q 544 659 544 1381 
z
M 1991 3584 
L 1991 3584 
z
M 2278 4850 
L 2912 4850 
L 2912 4219 
L 2278 4219 
L 2278 4850 
z
M 1056 4850 
L 1690 4850 
L 1690 4219 
L 1056 4219 
L 1056 4850 
z
" transform="scale(0.015625)"/>
      </defs>
      <use xlink:href="#DejaVuSans-75"/>
      <use xlink:href="#DejaVuSans-6e" x="63.378906"/>
      <use xlink:href="#DejaVuSans-67" x="126.757812"/>
      <use xlink:href="#DejaVuSans-fc" x="190.234375"/>
      <use xlink:href="#DejaVuSans-6e" x="253.613281"/>
      <use xlink:href="#DejaVuSans-73" x="316.992188"/>
      <use xlink:href="#DejaVuSans-74" x="369.091797"/>
      <use xlink:href="#DejaVuSans-69" x="408.300781"/>
      <use xlink:href="#DejaVuSans-67" x="436.083984"/>
      <use xlink:href="#DejaVuSans-65" x="499.560547"/>
      <use xlink:href="#DejaVuSans-20" x="561.083984"/>
      <use xlink:href="#DejaVuSans-53" x="592.871094"/>
      <use xlink:href="#DejaVuSans-61" x="656.347656"/>
      <use xlink:href="#DejaVuSans-6d" x="717.626953"/>
      <use xlink:href="#DejaVuSans-70" x="815.039062"/>
      <use xlink:href="#DejaVuSans-6c" x="878.515625"/>
      <use xlink:href="#DejaVuSans-65" x="906.298828"/>
      <use xlink:href="#DejaVuSans-61" x="967.822266"/>
      <use xlink:href="#DejaVuSans-6e" x="1029.101562"/>
      <use xlink:href="#DejaVuSans-7a" x="1092.480469"/>
      <use xlink:href="#DejaVuSans-61" x="1144.970703"/>
      <use xlink:href="#DejaVuSans-68" x="1206.25"/>
      <use xlink:href="#DejaVuSans-6c" x="1269.628906"/>
     </g>
    </g>
    <g id="line2d_31">
     <path d="M 602.775 62.336563 
L 612.775 62.336563 
L 622.775 62.336563 
" style="fill: none; stroke: #0000ff; stroke-width: 1.5; stroke-linecap: square"/>
     <g>
      <use xlink:href="#maae45c95f1" x="612.775" y="62.336563" style="fill: #0000ff; stroke: #0000ff"/>
     </g>
    </g>
    <g id="text_19">
     <!-- nchstskleinere 2er-Potenz -->
     <g transform="translate(630.775 65.836563) scale(0.1 -0.1)">
      <defs>
       <path id="DejaVuSans-e4" d="M 2194 1759 
Q 1497 1759 1228 1600 
Q 959 1441 959 1056 
Q 959 750 1161 570 
Q 1363 391 1709 391 
Q 2188 391 2477 730 
Q 2766 1069 2766 1631 
L 2766 1759 
L 2194 1759 
z
M 3341 1997 
L 3341 0 
L 2766 0 
L 2766 531 
Q 2569 213 2275 61 
Q 1981 -91 1556 -91 
Q 1019 -91 701 211 
Q 384 513 384 1019 
Q 384 1609 779 1909 
Q 1175 2209 1959 2209 
L 2766 2209 
L 2766 2266 
Q 2766 2663 2505 2880 
Q 2244 3097 1772 3097 
Q 1472 3097 1187 3025 
Q 903 2953 641 2809 
L 641 3341 
Q 956 3463 1253 3523 
Q 1550 3584 1831 3584 
Q 2591 3584 2966 3190 
Q 3341 2797 3341 1997 
z
M 2150 4850 
L 2784 4850 
L 2784 4219 
L 2150 4219 
L 2150 4850 
z
M 928 4850 
L 1562 4850 
L 1562 4219 
L 928 4219 
L 928 4850 
z
" transform="scale(0.015625)"/>
       <path id="DejaVuSans-50" d="M 1259 4147 
L 1259 2394 
L 2053 2394 
Q 2494 2394 2734 2622 
Q 2975 2850 2975 3272 
Q 2975 3691 2734 3919 
Q 2494 4147 2053 4147 
L 1259 4147 
z
M 628 4666 
L 2053 4666 
Q 2838 4666 3239 4311 
Q 3641 3956 3641 3272 
Q 3641 2581 3239 2228 
Q 2838 1875 2053 1875 
L 1259 1875 
L 1259 0 
L 628 0 
L 628 4666 
z
" transform="scale(0.015625)"/>
       <path id="DejaVuSans-6f" d="M 1959 3097 
Q 1497 3097 1228 2736 
Q 959 2375 959 1747 
Q 959 1119 1226 758 
Q 1494 397 1959 397 
Q 2419 397 2687 759 
Q 2956 1122 2956 1747 
Q 2956 2369 2687 2733 
Q 2419 3097 1959 3097 
z
M 1959 3584 
Q 2709 3584 3137 3096 
Q 3566 2609 3566 1747 
Q 3566 888 3137 398 
Q 2709 -91 1959 -91 
Q 1206 -91 779 398 
Q 353 888 353 1747 
Q 353 2609 779 3096 
Q 1206 3584 1959 3584 
z
" transform="scale(0.015625)"/>
      </defs>
      <use xlink:href="#DejaVuSans-6e"/>
      <use xlink:href="#DejaVuSans-e4" x="63.378906"/>
      <use xlink:href="#DejaVuSans-63" x="124.658203"/>
      <use xlink:href="#DejaVuSans-68" x="179.638672"/>
      <use xlink:href="#DejaVuSans-73" x="243.017578"/>
      <use xlink:href="#DejaVuSans-74" x="295.117188"/>
      <use xlink:href="#DejaVuSans-73" x="334.326172"/>
      <use xlink:href="#DejaVuSans-6b" x="386.425781"/>
      <use xlink:href="#DejaVuSans-6c" x="444.335938"/>
      <use xlink:href="#DejaVuSans-65" x="472.119141"/>
      <use xlink:href="#DejaVuSans-69" x="533.642578"/>
      <use xlink:href="#DejaVuSans-6e" x="561.425781"/>
      <use xlink:href="#DejaVuSans-65" x="624.804688"/>
      <use xlink:href="#DejaVuSans-72" x="686.328125"/>
      <use xlink:href="#DejaVuSans-65" x="725.191406"/>
      <use xlink:href="#DejaVuSans-20" x="786.714844"/>
      <use xlink:href="#DejaVuSans-32" x="818.501953"/>
      <use xlink:href="#DejaVuSans-65" x="882.125"/>
      <use xlink:href="#DejaVuSans-72" x="943.648438"/>
      <use xlink:href="#DejaVuSans-2d" x="978.386719"/>
      <use xlink:href="#DejaVuSans-50" x="1014.470703"/>
      <use xlink:href="#DejaVuSans-6f" x="1071.148438"/>
      <use xlink:href="#DejaVuSans-74" x="1132.330078"/>
      <use xlink:href="#DejaVuSans-65" x="1171.539062"/>
      <use xlink:href="#DejaVuSans-6e" x="1233.0625"/>
      <use xlink:href="#DejaVuSans-7a" x="1296.441406"/>
     </g>
    </g>
    <g id="line2d_32">
     <path d="M 602.775 77.014688 
L 612.775 77.014688 
L 622.775 77.014688 
" style="fill: none; stroke: #ff0000; stroke-width: 1.5; stroke-linecap: square"/>
     <g>
      <use xlink:href="#m800849ed06" x="612.775" y="77.014688" style="fill: #ff0000; stroke: #ff0000"/>
     </g>
    </g>
    <g id="text_20">
     <!-- nchstsgrssere 2er-Potenz -->
     <g transform="translate(630.775 80.514688) scale(0.1 -0.1)">
      <defs>
       <path id="DejaVuSans-f6" d="M 1959 3097 
Q 1497 3097 1228 2736 
Q 959 2375 959 1747 
Q 959 1119 1226 758 
Q 1494 397 1959 397 
Q 2419 397 2687 759 
Q 2956 1122 2956 1747 
Q 2956 2369 2687 2733 
Q 2419 3097 1959 3097 
z
M 1959 3584 
Q 2709 3584 3137 3096 
Q 3566 2609 3566 1747 
Q 3566 888 3137 398 
Q 2709 -91 1959 -91 
Q 1206 -91 779 398 
Q 353 888 353 1747 
Q 353 2609 779 3096 
Q 1206 3584 1959 3584 
z
M 2254 4850 
L 2888 4850 
L 2888 4219 
L 2254 4219 
L 2254 4850 
z
M 1032 4850 
L 1666 4850 
L 1666 4219 
L 1032 4219 
L 1032 4850 
z
" transform="scale(0.015625)"/>
      </defs>
      <use xlink:href="#DejaVuSans-6e"/>
      <use xlink:href="#DejaVuSans-e4" x="63.378906"/>
      <use xlink:href="#DejaVuSans-63" x="124.658203"/>
      <use xlink:href="#DejaVuSans-68" x="179.638672"/>
      <use xlink:href="#DejaVuSans-73" x="243.017578"/>
      <use xlink:href="#DejaVuSans-74" x="295.117188"/>
      <use xlink:href="#DejaVuSans-73" x="334.326172"/>
      <use xlink:href="#DejaVuSans-67" x="386.425781"/>
      <use xlink:href="#DejaVuSans-72" x="449.902344"/>
      <use xlink:href="#DejaVuSans-f6" x="488.765625"/>
      <use xlink:href="#DejaVuSans-73" x="549.947266"/>
      <use xlink:href="#DejaVuSans-73" x="602.046875"/>
      <use xlink:href="#DejaVuSans-65" x="654.146484"/>
      <use xlink:href="#DejaVuSans-72" x="715.669922"/>
      <use xlink:href="#DejaVuSans-65" x="754.533203"/>
      <use xlink:href="#DejaVuSans-20" x="816.056641"/>
      <use xlink:href="#DejaVuSans-32" x="847.84375"/>
      <use xlink:href="#DejaVuSans-65" x="911.466797"/>
      <use xlink:href="#DejaVuSans-72" x="972.990234"/>
      <use xlink:href="#DejaVuSans-2d" x="1007.728516"/>
      <use xlink:href="#DejaVuSans-50" x="1043.8125"/>
      <use xlink:href="#DejaVuSans-6f" x="1100.490234"/>
      <use xlink:href="#DejaVuSans-74" x="1161.671875"/>
      <use xlink:href="#DejaVuSans-65" x="1200.880859"/>
      <use xlink:href="#DejaVuSans-6e" x="1262.404297"/>
      <use xlink:href="#DejaVuSans-7a" x="1325.783203"/>
     </g>
    </g>
   </g>
  </g>
 </g>
 <defs>
  <clipPath id="p61dd219d72">
   <rect x="108" y="34.56" width="669.6" height="221.76"/>
  </clipPath>
 </defs>
</svg>
