<?xml version="1.0" encoding="utf-8" standalone="no"?>
<!DOCTYPE svg PUBLIC "-//W3C//DTD SVG 1.1//EN"
  "http://www.w3.org/Graphics/SVG/1.1/DTD/svg11.dtd">
<svg xmlns:xlink="http://www.w3.org/1999/xlink" width="864pt" height="504pt" viewBox="0 0 864 504" xmlns="http://www.w3.org/2000/svg" version="1.1">
 <metadata>
  <rdf:RDF xmlns:dc="http://purl.org/dc/elements/1.1/" xmlns:cc="http://creativecommons.org/ns#" xmlns:rdf="http://www.w3.org/1999/02/22-rdf-syntax-ns#">
   <cc:Work>
    <dc:type rdf:resource="http://purl.org/dc/dcmitype/StillImage"/>
    <dc:date>2023-12-19T19:28:18.670518</dc:date>
    <dc:format>image/svg+xml</dc:format>
    <dc:creator>
     <cc:Agent>
      <dc:title>Matplotlib v3.8.0, https://matplotlib.org/</dc:title>
     </cc:Agent>
    </dc:creator>
   </cc:Work>
  </rdf:RDF>
 </metadata>
 <defs>
  <style type="text/css">*{stroke-linejoin: round; stroke-linecap: butt}</style>
 </defs>
 <g id="figure_1">
  <g id="patch_1">
   <path d="M 0 504 
L 864 504 
L 864 0 
L 0 0 
z
" style="fill: #ffffff"/>
  </g>
  <g id="axes_1">
   <g id="patch_2">
    <path d="M 108 236.88 
L 777.6 236.88 
L 777.6 60.48 
L 108 60.48 
z
" style="fill: #ffffff"/>
   </g>
   <g id="matplotlib.axis_1">
    <g id="xtick_1">
     <g id="line2d_1">
      <path d="M 138.436364 236.88 
L 138.436364 60.48 
" clip-path="url(#pbe7a5671bd)" style="fill: none; stroke: #b0b0b0; stroke-width: 0.8; stroke-linecap: square"/>
     </g>
     <g id="line2d_2">
      <defs>
       <path id="md109ec3781" d="M 0 0 
L 0 3.5 
" style="stroke: #000000; stroke-width: 0.8"/>
      </defs>
      <g>
       <use xlink:href="#md109ec3781" x="138.436364" y="236.88" style="stroke: #000000; stroke-width: 0.8"/>
      </g>
     </g>
     <g id="text_1">
      <!-- 0.0 -->
      <g transform="translate(130.484801 251.478437) scale(0.1 -0.1)">
       <defs>
        <path id="DejaVuSans-30" d="M 2034 4250 
Q 1547 4250 1301 3770 
Q 1056 3291 1056 2328 
Q 1056 1369 1301 889 
Q 1547 409 2034 409 
Q 2525 409 2770 889 
Q 3016 1369 3016 2328 
Q 3016 3291 2770 3770 
Q 2525 4250 2034 4250 
z
M 2034 4750 
Q 2819 4750 3233 4129 
Q 3647 3509 3647 2328 
Q 3647 1150 3233 529 
Q 2819 -91 2034 -91 
Q 1250 -91 836 529 
Q 422 1150 422 2328 
Q 422 3509 836 4129 
Q 1250 4750 2034 4750 
z
" transform="scale(0.015625)"/>
        <path id="DejaVuSans-2e" d="M 684 794 
L 1344 794 
L 1344 0 
L 684 0 
L 684 794 
z
" transform="scale(0.015625)"/>
       </defs>
       <use xlink:href="#DejaVuSans-30"/>
       <use xlink:href="#DejaVuSans-2e" x="63.623047"/>
       <use xlink:href="#DejaVuSans-30" x="95.410156"/>
      </g>
     </g>
    </g>
    <g id="xtick_2">
     <g id="line2d_3">
      <path d="M 260.420068 236.88 
L 260.420068 60.48 
" clip-path="url(#pbe7a5671bd)" style="fill: none; stroke: #b0b0b0; stroke-width: 0.8; stroke-linecap: square"/>
     </g>
     <g id="line2d_4">
      <g>
       <use xlink:href="#md109ec3781" x="260.420068" y="236.88" style="stroke: #000000; stroke-width: 0.8"/>
      </g>
     </g>
     <g id="text_2">
      <!-- 0.2 -->
      <g transform="translate(252.468505 251.478437) scale(0.1 -0.1)">
       <defs>
        <path id="DejaVuSans-32" d="M 1228 531 
L 3431 531 
L 3431 0 
L 469 0 
L 469 531 
Q 828 903 1448 1529 
Q 2069 2156 2228 2338 
Q 2531 2678 2651 2914 
Q 2772 3150 2772 3378 
Q 2772 3750 2511 3984 
Q 2250 4219 1831 4219 
Q 1534 4219 1204 4116 
Q 875 4013 500 3803 
L 500 4441 
Q 881 4594 1212 4672 
Q 1544 4750 1819 4750 
Q 2544 4750 2975 4387 
Q 3406 4025 3406 3419 
Q 3406 3131 3298 2873 
Q 3191 2616 2906 2266 
Q 2828 2175 2409 1742 
Q 1991 1309 1228 531 
z
" transform="scale(0.015625)"/>
       </defs>
       <use xlink:href="#DejaVuSans-30"/>
       <use xlink:href="#DejaVuSans-2e" x="63.623047"/>
       <use xlink:href="#DejaVuSans-32" x="95.410156"/>
      </g>
     </g>
    </g>
    <g id="xtick_3">
     <g id="line2d_5">
      <path d="M 382.403772 236.88 
L 382.403772 60.48 
" clip-path="url(#pbe7a5671bd)" style="fill: none; stroke: #b0b0b0; stroke-width: 0.8; stroke-linecap: square"/>
     </g>
     <g id="line2d_6">
      <g>
       <use xlink:href="#md109ec3781" x="382.403772" y="236.88" style="stroke: #000000; stroke-width: 0.8"/>
      </g>
     </g>
     <g id="text_3">
      <!-- 0.4 -->
      <g transform="translate(374.452209 251.478437) scale(0.1 -0.1)">
       <defs>
        <path id="DejaVuSans-34" d="M 2419 4116 
L 825 1625 
L 2419 1625 
L 2419 4116 
z
M 2253 4666 
L 3047 4666 
L 3047 1625 
L 3713 1625 
L 3713 1100 
L 3047 1100 
L 3047 0 
L 2419 0 
L 2419 1100 
L 313 1100 
L 313 1709 
L 2253 4666 
z
" transform="scale(0.015625)"/>
       </defs>
       <use xlink:href="#DejaVuSans-30"/>
       <use xlink:href="#DejaVuSans-2e" x="63.623047"/>
       <use xlink:href="#DejaVuSans-34" x="95.410156"/>
      </g>
     </g>
    </g>
    <g id="xtick_4">
     <g id="line2d_7">
      <path d="M 504.387476 236.88 
L 504.387476 60.48 
" clip-path="url(#pbe7a5671bd)" style="fill: none; stroke: #b0b0b0; stroke-width: 0.8; stroke-linecap: square"/>
     </g>
     <g id="line2d_8">
      <g>
       <use xlink:href="#md109ec3781" x="504.387476" y="236.88" style="stroke: #000000; stroke-width: 0.8"/>
      </g>
     </g>
     <g id="text_4">
      <!-- 0.6 -->
      <g transform="translate(496.435913 251.478437) scale(0.1 -0.1)">
       <defs>
        <path id="DejaVuSans-36" d="M 2113 2584 
Q 1688 2584 1439 2293 
Q 1191 2003 1191 1497 
Q 1191 994 1439 701 
Q 1688 409 2113 409 
Q 2538 409 2786 701 
Q 3034 994 3034 1497 
Q 3034 2003 2786 2293 
Q 2538 2584 2113 2584 
z
M 3366 4563 
L 3366 3988 
Q 3128 4100 2886 4159 
Q 2644 4219 2406 4219 
Q 1781 4219 1451 3797 
Q 1122 3375 1075 2522 
Q 1259 2794 1537 2939 
Q 1816 3084 2150 3084 
Q 2853 3084 3261 2657 
Q 3669 2231 3669 1497 
Q 3669 778 3244 343 
Q 2819 -91 2113 -91 
Q 1303 -91 875 529 
Q 447 1150 447 2328 
Q 447 3434 972 4092 
Q 1497 4750 2381 4750 
Q 2619 4750 2861 4703 
Q 3103 4656 3366 4563 
z
" transform="scale(0.015625)"/>
       </defs>
       <use xlink:href="#DejaVuSans-30"/>
       <use xlink:href="#DejaVuSans-2e" x="63.623047"/>
       <use xlink:href="#DejaVuSans-36" x="95.410156"/>
      </g>
     </g>
    </g>
    <g id="xtick_5">
     <g id="line2d_9">
      <path d="M 626.37118 236.88 
L 626.37118 60.48 
" clip-path="url(#pbe7a5671bd)" style="fill: none; stroke: #b0b0b0; stroke-width: 0.8; stroke-linecap: square"/>
     </g>
     <g id="line2d_10">
      <g>
       <use xlink:href="#md109ec3781" x="626.37118" y="236.88" style="stroke: #000000; stroke-width: 0.8"/>
      </g>
     </g>
     <g id="text_5">
      <!-- 0.8 -->
      <g transform="translate(618.419617 251.478437) scale(0.1 -0.1)">
       <defs>
        <path id="DejaVuSans-38" d="M 2034 2216 
Q 1584 2216 1326 1975 
Q 1069 1734 1069 1313 
Q 1069 891 1326 650 
Q 1584 409 2034 409 
Q 2484 409 2743 651 
Q 3003 894 3003 1313 
Q 3003 1734 2745 1975 
Q 2488 2216 2034 2216 
z
M 1403 2484 
Q 997 2584 770 2862 
Q 544 3141 544 3541 
Q 544 4100 942 4425 
Q 1341 4750 2034 4750 
Q 2731 4750 3128 4425 
Q 3525 4100 3525 3541 
Q 3525 3141 3298 2862 
Q 3072 2584 2669 2484 
Q 3125 2378 3379 2068 
Q 3634 1759 3634 1313 
Q 3634 634 3220 271 
Q 2806 -91 2034 -91 
Q 1263 -91 848 271 
Q 434 634 434 1313 
Q 434 1759 690 2068 
Q 947 2378 1403 2484 
z
M 1172 3481 
Q 1172 3119 1398 2916 
Q 1625 2713 2034 2713 
Q 2441 2713 2670 2916 
Q 2900 3119 2900 3481 
Q 2900 3844 2670 4047 
Q 2441 4250 2034 4250 
Q 1625 4250 1398 4047 
Q 1172 3844 1172 3481 
z
" transform="scale(0.015625)"/>
       </defs>
       <use xlink:href="#DejaVuSans-30"/>
       <use xlink:href="#DejaVuSans-2e" x="63.623047"/>
       <use xlink:href="#DejaVuSans-38" x="95.410156"/>
      </g>
     </g>
    </g>
    <g id="xtick_6">
     <g id="line2d_11">
      <path d="M 748.354883 236.88 
L 748.354883 60.48 
" clip-path="url(#pbe7a5671bd)" style="fill: none; stroke: #b0b0b0; stroke-width: 0.8; stroke-linecap: square"/>
     </g>
     <g id="line2d_12">
      <g>
       <use xlink:href="#md109ec3781" x="748.354883" y="236.88" style="stroke: #000000; stroke-width: 0.8"/>
      </g>
     </g>
     <g id="text_6">
      <!-- 1.0 -->
      <g transform="translate(740.403321 251.478437) scale(0.1 -0.1)">
       <defs>
        <path id="DejaVuSans-31" d="M 794 531 
L 1825 531 
L 1825 4091 
L 703 3866 
L 703 4441 
L 1819 4666 
L 2450 4666 
L 2450 531 
L 3481 531 
L 3481 0 
L 794 0 
L 794 531 
z
" transform="scale(0.015625)"/>
       </defs>
       <use xlink:href="#DejaVuSans-31"/>
       <use xlink:href="#DejaVuSans-2e" x="63.623047"/>
       <use xlink:href="#DejaVuSans-30" x="95.410156"/>
      </g>
     </g>
    </g>
    <g id="text_7">
     <!-- Zeit $t$ [s] -->
     <g transform="translate(421.3 265.156562) scale(0.1 -0.1)">
      <defs>
       <path id="DejaVuSans-5a" d="M 359 4666 
L 4025 4666 
L 4025 4184 
L 1075 531 
L 4097 531 
L 4097 0 
L 288 0 
L 288 481 
L 3238 4134 
L 359 4134 
L 359 4666 
z
" transform="scale(0.015625)"/>
       <path id="DejaVuSans-65" d="M 3597 1894 
L 3597 1613 
L 953 1613 
Q 991 1019 1311 708 
Q 1631 397 2203 397 
Q 2534 397 2845 478 
Q 3156 559 3463 722 
L 3463 178 
Q 3153 47 2828 -22 
Q 2503 -91 2169 -91 
Q 1331 -91 842 396 
Q 353 884 353 1716 
Q 353 2575 817 3079 
Q 1281 3584 2069 3584 
Q 2775 3584 3186 3129 
Q 3597 2675 3597 1894 
z
M 3022 2063 
Q 3016 2534 2758 2815 
Q 2500 3097 2075 3097 
Q 1594 3097 1305 2825 
Q 1016 2553 972 2059 
L 3022 2063 
z
" transform="scale(0.015625)"/>
       <path id="DejaVuSans-69" d="M 603 3500 
L 1178 3500 
L 1178 0 
L 603 0 
L 603 3500 
z
M 603 4863 
L 1178 4863 
L 1178 4134 
L 603 4134 
L 603 4863 
z
" transform="scale(0.015625)"/>
       <path id="DejaVuSans-74" d="M 1172 4494 
L 1172 3500 
L 2356 3500 
L 2356 3053 
L 1172 3053 
L 1172 1153 
Q 1172 725 1289 603 
Q 1406 481 1766 481 
L 2356 481 
L 2356 0 
L 1766 0 
Q 1100 0 847 248 
Q 594 497 594 1153 
L 594 3053 
L 172 3053 
L 172 3500 
L 594 3500 
L 594 4494 
L 1172 4494 
z
" transform="scale(0.015625)"/>
       <path id="DejaVuSans-20" transform="scale(0.015625)"/>
       <path id="DejaVuSans-Oblique-74" d="M 2706 3500 
L 2619 3053 
L 1472 3053 
L 1100 1153 
Q 1081 1047 1072 975 
Q 1063 903 1063 863 
Q 1063 663 1183 572 
Q 1303 481 1569 481 
L 2150 481 
L 2053 0 
L 1503 0 
Q 991 0 739 200 
Q 488 400 488 806 
Q 488 878 497 964 
Q 506 1050 525 1153 
L 897 3053 
L 409 3053 
L 500 3500 
L 978 3500 
L 1172 4494 
L 1747 4494 
L 1556 3500 
L 2706 3500 
z
" transform="scale(0.015625)"/>
       <path id="DejaVuSans-5b" d="M 550 4863 
L 1875 4863 
L 1875 4416 
L 1125 4416 
L 1125 -397 
L 1875 -397 
L 1875 -844 
L 550 -844 
L 550 4863 
z
" transform="scale(0.015625)"/>
       <path id="DejaVuSans-73" d="M 2834 3397 
L 2834 2853 
Q 2591 2978 2328 3040 
Q 2066 3103 1784 3103 
Q 1356 3103 1142 2972 
Q 928 2841 928 2578 
Q 928 2378 1081 2264 
Q 1234 2150 1697 2047 
L 1894 2003 
Q 2506 1872 2764 1633 
Q 3022 1394 3022 966 
Q 3022 478 2636 193 
Q 2250 -91 1575 -91 
Q 1294 -91 989 -36 
Q 684 19 347 128 
L 347 722 
Q 666 556 975 473 
Q 1284 391 1588 391 
Q 1994 391 2212 530 
Q 2431 669 2431 922 
Q 2431 1156 2273 1281 
Q 2116 1406 1581 1522 
L 1381 1569 
Q 847 1681 609 1914 
Q 372 2147 372 2553 
Q 372 3047 722 3315 
Q 1072 3584 1716 3584 
Q 2034 3584 2315 3537 
Q 2597 3491 2834 3397 
z
" transform="scale(0.015625)"/>
       <path id="DejaVuSans-5d" d="M 1947 4863 
L 1947 -844 
L 622 -844 
L 622 -397 
L 1369 -397 
L 1369 4416 
L 622 4416 
L 622 4863 
L 1947 4863 
z
" transform="scale(0.015625)"/>
      </defs>
      <use xlink:href="#DejaVuSans-5a" transform="translate(0 0.015625)"/>
      <use xlink:href="#DejaVuSans-65" transform="translate(68.505859 0.015625)"/>
      <use xlink:href="#DejaVuSans-69" transform="translate(130.029297 0.015625)"/>
      <use xlink:href="#DejaVuSans-74" transform="translate(157.8125 0.015625)"/>
      <use xlink:href="#DejaVuSans-20" transform="translate(197.021484 0.015625)"/>
      <use xlink:href="#DejaVuSans-Oblique-74" transform="translate(228.808594 0.015625)"/>
      <use xlink:href="#DejaVuSans-20" transform="translate(268.017578 0.015625)"/>
      <use xlink:href="#DejaVuSans-5b" transform="translate(299.804688 0.015625)"/>
      <use xlink:href="#DejaVuSans-73" transform="translate(338.818359 0.015625)"/>
      <use xlink:href="#DejaVuSans-5d" transform="translate(390.917969 0.015625)"/>
     </g>
    </g>
   </g>
   <g id="matplotlib.axis_2">
    <g id="ytick_1">
     <g id="line2d_13">
      <path d="M 108 223.774077 
L 777.6 223.774077 
" clip-path="url(#pbe7a5671bd)" style="fill: none; stroke: #b0b0b0; stroke-width: 0.8; stroke-linecap: square"/>
     </g>
     <g id="line2d_14">
      <defs>
       <path id="m30e448a97e" d="M 0 0 
L -3.5 0 
" style="stroke: #000000; stroke-width: 0.8"/>
      </defs>
      <g>
       <use xlink:href="#m30e448a97e" x="108" y="223.774077" style="stroke: #000000; stroke-width: 0.8"/>
      </g>
     </g>
     <g id="text_8">
      <!-- −1.0 -->
      <g transform="translate(76.717187 227.573296) scale(0.1 -0.1)">
       <defs>
        <path id="DejaVuSans-2212" d="M 678 2272 
L 4684 2272 
L 4684 1741 
L 678 1741 
L 678 2272 
z
" transform="scale(0.015625)"/>
       </defs>
       <use xlink:href="#DejaVuSans-2212"/>
       <use xlink:href="#DejaVuSans-31" x="83.789062"/>
       <use xlink:href="#DejaVuSans-2e" x="147.412109"/>
       <use xlink:href="#DejaVuSans-30" x="179.199219"/>
      </g>
     </g>
    </g>
    <g id="ytick_2">
     <g id="line2d_15">
      <path d="M 108 186.347551 
L 777.6 186.347551 
" clip-path="url(#pbe7a5671bd)" style="fill: none; stroke: #b0b0b0; stroke-width: 0.8; stroke-linecap: square"/>
     </g>
     <g id="line2d_16">
      <g>
       <use xlink:href="#m30e448a97e" x="108" y="186.347551" style="stroke: #000000; stroke-width: 0.8"/>
      </g>
     </g>
     <g id="text_9">
      <!-- −0.5 -->
      <g transform="translate(76.717187 190.14677) scale(0.1 -0.1)">
       <defs>
        <path id="DejaVuSans-35" d="M 691 4666 
L 3169 4666 
L 3169 4134 
L 1269 4134 
L 1269 2991 
Q 1406 3038 1543 3061 
Q 1681 3084 1819 3084 
Q 2600 3084 3056 2656 
Q 3513 2228 3513 1497 
Q 3513 744 3044 326 
Q 2575 -91 1722 -91 
Q 1428 -91 1123 -41 
Q 819 9 494 109 
L 494 744 
Q 775 591 1075 516 
Q 1375 441 1709 441 
Q 2250 441 2565 725 
Q 2881 1009 2881 1497 
Q 2881 1984 2565 2268 
Q 2250 2553 1709 2553 
Q 1456 2553 1204 2497 
Q 953 2441 691 2322 
L 691 4666 
z
" transform="scale(0.015625)"/>
       </defs>
       <use xlink:href="#DejaVuSans-2212"/>
       <use xlink:href="#DejaVuSans-30" x="83.789062"/>
       <use xlink:href="#DejaVuSans-2e" x="147.412109"/>
       <use xlink:href="#DejaVuSans-35" x="179.199219"/>
      </g>
     </g>
    </g>
    <g id="ytick_3">
     <g id="line2d_17">
      <path d="M 108 148.921026 
L 777.6 148.921026 
" clip-path="url(#pbe7a5671bd)" style="fill: none; stroke: #b0b0b0; stroke-width: 0.8; stroke-linecap: square"/>
     </g>
     <g id="line2d_18">
      <g>
       <use xlink:href="#m30e448a97e" x="108" y="148.921026" style="stroke: #000000; stroke-width: 0.8"/>
      </g>
     </g>
     <g id="text_10">
      <!-- 0.0 -->
      <g transform="translate(85.096875 152.720245) scale(0.1 -0.1)">
       <use xlink:href="#DejaVuSans-30"/>
       <use xlink:href="#DejaVuSans-2e" x="63.623047"/>
       <use xlink:href="#DejaVuSans-30" x="95.410156"/>
      </g>
     </g>
    </g>
    <g id="ytick_4">
     <g id="line2d_19">
      <path d="M 108 111.4945 
L 777.6 111.4945 
" clip-path="url(#pbe7a5671bd)" style="fill: none; stroke: #b0b0b0; stroke-width: 0.8; stroke-linecap: square"/>
     </g>
     <g id="line2d_20">
      <g>
       <use xlink:href="#m30e448a97e" x="108" y="111.4945" style="stroke: #000000; stroke-width: 0.8"/>
      </g>
     </g>
     <g id="text_11">
      <!-- 0.5 -->
      <g transform="translate(85.096875 115.293719) scale(0.1 -0.1)">
       <use xlink:href="#DejaVuSans-30"/>
       <use xlink:href="#DejaVuSans-2e" x="63.623047"/>
       <use xlink:href="#DejaVuSans-35" x="95.410156"/>
      </g>
     </g>
    </g>
    <g id="ytick_5">
     <g id="line2d_21">
      <path d="M 108 74.067975 
L 777.6 74.067975 
" clip-path="url(#pbe7a5671bd)" style="fill: none; stroke: #b0b0b0; stroke-width: 0.8; stroke-linecap: square"/>
     </g>
     <g id="line2d_22">
      <g>
       <use xlink:href="#m30e448a97e" x="108" y="74.067975" style="stroke: #000000; stroke-width: 0.8"/>
      </g>
     </g>
     <g id="text_12">
      <!-- 1.0 -->
      <g transform="translate(85.096875 77.867193) scale(0.1 -0.1)">
       <use xlink:href="#DejaVuSans-31"/>
       <use xlink:href="#DejaVuSans-2e" x="63.623047"/>
       <use xlink:href="#DejaVuSans-30" x="95.410156"/>
      </g>
     </g>
    </g>
    <g id="text_13">
     <!-- Funktionswert $y$ -->
     <g transform="translate(70.617188 188.73) rotate(-90) scale(0.1 -0.1)">
      <defs>
       <path id="DejaVuSans-46" d="M 628 4666 
L 3309 4666 
L 3309 4134 
L 1259 4134 
L 1259 2759 
L 3109 2759 
L 3109 2228 
L 1259 2228 
L 1259 0 
L 628 0 
L 628 4666 
z
" transform="scale(0.015625)"/>
       <path id="DejaVuSans-75" d="M 544 1381 
L 544 3500 
L 1119 3500 
L 1119 1403 
Q 1119 906 1312 657 
Q 1506 409 1894 409 
Q 2359 409 2629 706 
Q 2900 1003 2900 1516 
L 2900 3500 
L 3475 3500 
L 3475 0 
L 2900 0 
L 2900 538 
Q 2691 219 2414 64 
Q 2138 -91 1772 -91 
Q 1169 -91 856 284 
Q 544 659 544 1381 
z
M 1991 3584 
L 1991 3584 
z
" transform="scale(0.015625)"/>
       <path id="DejaVuSans-6e" d="M 3513 2113 
L 3513 0 
L 2938 0 
L 2938 2094 
Q 2938 2591 2744 2837 
Q 2550 3084 2163 3084 
Q 1697 3084 1428 2787 
Q 1159 2491 1159 1978 
L 1159 0 
L 581 0 
L 581 3500 
L 1159 3500 
L 1159 2956 
Q 1366 3272 1645 3428 
Q 1925 3584 2291 3584 
Q 2894 3584 3203 3211 
Q 3513 2838 3513 2113 
z
" transform="scale(0.015625)"/>
       <path id="DejaVuSans-6b" d="M 581 4863 
L 1159 4863 
L 1159 1991 
L 2875 3500 
L 3609 3500 
L 1753 1863 
L 3688 0 
L 2938 0 
L 1159 1709 
L 1159 0 
L 581 0 
L 581 4863 
z
" transform="scale(0.015625)"/>
       <path id="DejaVuSans-6f" d="M 1959 3097 
Q 1497 3097 1228 2736 
Q 959 2375 959 1747 
Q 959 1119 1226 758 
Q 1494 397 1959 397 
Q 2419 397 2687 759 
Q 2956 1122 2956 1747 
Q 2956 2369 2687 2733 
Q 2419 3097 1959 3097 
z
M 1959 3584 
Q 2709 3584 3137 3096 
Q 3566 2609 3566 1747 
Q 3566 888 3137 398 
Q 2709 -91 1959 -91 
Q 1206 -91 779 398 
Q 353 888 353 1747 
Q 353 2609 779 3096 
Q 1206 3584 1959 3584 
z
" transform="scale(0.015625)"/>
       <path id="DejaVuSans-77" d="M 269 3500 
L 844 3500 
L 1563 769 
L 2278 3500 
L 2956 3500 
L 3675 769 
L 4391 3500 
L 4966 3500 
L 4050 0 
L 3372 0 
L 2619 2869 
L 1863 0 
L 1184 0 
L 269 3500 
z
" transform="scale(0.015625)"/>
       <path id="DejaVuSans-72" d="M 2631 2963 
Q 2534 3019 2420 3045 
Q 2306 3072 2169 3072 
Q 1681 3072 1420 2755 
Q 1159 2438 1159 1844 
L 1159 0 
L 581 0 
L 581 3500 
L 1159 3500 
L 1159 2956 
Q 1341 3275 1631 3429 
Q 1922 3584 2338 3584 
Q 2397 3584 2469 3576 
Q 2541 3569 2628 3553 
L 2631 2963 
z
" transform="scale(0.015625)"/>
       <path id="DejaVuSans-Oblique-79" d="M 1588 -325 
Q 1188 -997 936 -1164 
Q 684 -1331 294 -1331 
L -159 -1331 
L -63 -850 
L 269 -850 
Q 509 -850 678 -719 
Q 847 -588 1056 -206 
L 1234 128 
L 459 3500 
L 1069 3500 
L 1650 819 
L 3256 3500 
L 3859 3500 
L 1588 -325 
z
" transform="scale(0.015625)"/>
      </defs>
      <use xlink:href="#DejaVuSans-46" transform="translate(0 0.015625)"/>
      <use xlink:href="#DejaVuSans-75" transform="translate(57.519531 0.015625)"/>
      <use xlink:href="#DejaVuSans-6e" transform="translate(120.898438 0.015625)"/>
      <use xlink:href="#DejaVuSans-6b" transform="translate(184.277344 0.015625)"/>
      <use xlink:href="#DejaVuSans-74" transform="translate(242.1875 0.015625)"/>
      <use xlink:href="#DejaVuSans-69" transform="translate(281.396484 0.015625)"/>
      <use xlink:href="#DejaVuSans-6f" transform="translate(309.179688 0.015625)"/>
      <use xlink:href="#DejaVuSans-6e" transform="translate(370.361328 0.015625)"/>
      <use xlink:href="#DejaVuSans-73" transform="translate(433.740234 0.015625)"/>
      <use xlink:href="#DejaVuSans-77" transform="translate(485.839844 0.015625)"/>
      <use xlink:href="#DejaVuSans-65" transform="translate(567.626953 0.015625)"/>
      <use xlink:href="#DejaVuSans-72" transform="translate(629.150391 0.015625)"/>
      <use xlink:href="#DejaVuSans-74" transform="translate(670.263672 0.015625)"/>
      <use xlink:href="#DejaVuSans-20" transform="translate(709.472656 0.015625)"/>
      <use xlink:href="#DejaVuSans-Oblique-79" transform="translate(741.259766 0.015625)"/>
     </g>
    </g>
   </g>
   <g id="line2d_23">
    <path d="M 138.436364 153.12436 
L 139.627611 134.180781 
L 140.818858 106.424351 
L 142.010105 93.305295 
L 143.201352 68.498182 
L 144.392599 70.189606 
L 145.583846 77.883978 
L 146.775093 84.105293 
L 147.966341 101.219227 
L 149.157588 125.481833 
L 150.348835 143.18839 
L 151.540082 171.153481 
L 153.922576 206.922258 
L 155.113823 222.369795 
L 156.30507 220.906109 
L 157.496317 221.109386 
L 158.687564 216.301027 
L 161.070059 186.917499 
L 162.261306 158.788365 
L 163.452553 133.293144 
L 164.6438 122.183662 
L 165.835047 88.054986 
L 167.026294 87.769214 
L 168.217541 73.100777 
L 169.408788 74.155441 
L 170.600036 81.14412 
L 171.791283 89.050989 
L 172.98253 112.222389 
L 174.173777 139.595076 
L 175.365024 152.568881 
L 176.556271 179.371794 
L 177.747518 199.055836 
L 178.938765 208.425732 
L 180.130012 216.014357 
L 181.32126 221.636352 
L 182.512507 219.322703 
L 183.703754 205.840162 
L 184.895001 188.799023 
L 186.086248 174.154882 
L 187.277495 144.205836 
L 188.468742 122.673846 
L 190.851236 87.970921 
L 192.042484 75.087599 
L 193.233731 72.684078 
L 194.424978 74.745867 
L 195.616225 88.702186 
L 196.807472 99.592314 
L 200.381213 169.604393 
L 202.763708 205.320558 
L 203.954955 221.110512 
L 205.146202 223.541086 
L 206.337449 219.659436 
L 207.528696 220.421584 
L 208.719943 203.008171 
L 209.91119 181.266735 
L 211.102437 162.001546 
L 212.293684 132.520606 
L 213.484932 118.600512 
L 214.676179 89.996807 
L 215.867426 82.871936 
L 217.058673 80.763378 
L 218.24992 69.505213 
L 219.441167 81.292343 
L 220.632414 95.864479 
L 221.823661 115.884256 
L 223.014908 127.177988 
L 224.206155 157.472409 
L 226.58865 197.841464 
L 227.779897 209.399041 
L 228.971144 214.688976 
L 230.162391 224.756603 
L 231.353638 218.04842 
L 232.544885 203.644155 
L 234.927379 164.851373 
L 236.118627 149.173557 
L 237.309874 122.281908 
L 238.501121 97.924094 
L 239.692368 81.884987 
L 240.883615 80.494678 
L 242.074862 80.34978 
L 243.266109 79.767648 
L 244.457356 93.572954 
L 245.648603 102.603729 
L 246.839851 122.416819 
L 248.031098 140.153272 
L 249.222345 168.303856 
L 251.604839 207.321345 
L 252.796086 221.770698 
L 253.987333 228.861818 
L 255.17858 217.535875 
L 256.369827 213.332904 
L 257.561075 201.75464 
L 259.943569 157.672682 
L 261.134816 139.158421 
L 263.51731 93.661627 
L 264.708557 86.139899 
L 265.899804 77.018221 
L 267.091051 74.932357 
L 269.473546 94.170624 
L 270.664793 115.419755 
L 271.85604 125.786443 
L 273.047287 158.063295 
L 274.238534 183.532067 
L 275.429781 200.126946 
L 276.621028 211.602538 
L 277.812275 225.768409 
L 279.003523 221.805114 
L 281.386017 204.370229 
L 283.768511 171.269703 
L 284.959758 151.645221 
L 286.151005 119.518746 
L 287.342252 108.103502 
L 288.533499 87.112734 
L 289.724746 78.31004 
L 290.915994 73.85013 
L 292.107241 84.071144 
L 294.489735 101.020902 
L 295.680982 126.513498 
L 298.063476 170.544755 
L 300.44597 201.645833 
L 301.637218 220.833043 
L 302.828465 220.789847 
L 304.019712 223.105059 
L 305.210959 214.677899 
L 306.402206 197.295552 
L 307.593453 183.780901 
L 308.7847 159.707453 
L 309.975947 138.016918 
L 311.167194 110.934466 
L 312.358442 89.719175 
L 313.549689 83.688484 
L 314.740936 70.733655 
L 315.932183 77.940668 
L 317.12343 88.331781 
L 318.314677 97.062166 
L 319.505924 112.870384 
L 320.697171 134.257463 
L 321.888418 160.89448 
L 324.270913 195.230817 
L 325.46216 215.281088 
L 326.653407 221.841197 
L 327.844654 217.578638 
L 329.035901 216.02931 
L 331.418395 190.323852 
L 332.609642 168.647493 
L 334.992137 120.915075 
L 336.183384 101.179436 
L 337.374631 93.444962 
L 338.565878 79.795903 
L 339.757125 79.23439 
L 340.948372 76.037893 
L 342.139619 88.866252 
L 344.522114 126.014842 
L 345.713361 145.67277 
L 346.904608 175.024492 
L 348.095855 194.704225 
L 349.287102 205.400154 
L 350.478349 220.969441 
L 351.669596 221.680342 
L 352.860843 220.420049 
L 354.05209 211.179857 
L 356.434585 180.596754 
L 358.817079 136.396109 
L 360.008326 122.887574 
L 362.39082 77.272487 
L 363.582067 74.42458 
L 364.773314 72.881519 
L 365.964561 82.069551 
L 368.347056 117.332853 
L 369.538303 133.09985 
L 370.72955 154.37111 
L 373.112044 201.29833 
L 374.303291 212.405996 
L 375.494538 221.167224 
L 376.685785 227.576398 
L 377.877033 215.338505 
L 379.06828 205.040801 
L 380.259527 189.218474 
L 382.642021 146.275146 
L 383.833268 128.13019 
L 385.024515 99.810557 
L 386.215762 80.05565 
L 387.407009 77.401372 
L 388.598257 75.282594 
L 389.789504 77.223521 
L 390.980751 84.581915 
L 392.171998 101.085901 
L 394.554492 157.332004 
L 395.745739 164.96872 
L 396.936986 184.58603 
L 398.128233 206.405743 
L 399.319481 220.264282 
L 400.510728 222.301119 
L 402.893222 205.353719 
L 404.084469 193.560767 
L 405.275716 176.601837 
L 406.466963 156.802162 
L 407.65821 128.27432 
L 408.849457 112.065069 
L 410.040705 93.928443 
L 411.231952 88.680466 
L 412.423199 71.586113 
L 413.614446 76.053576 
L 414.805693 78.202881 
L 415.99694 105.150796 
L 417.188187 116.784151 
L 418.379434 136.450636 
L 419.570681 152.820467 
L 420.761928 178.389954 
L 423.144423 214.0035 
L 424.33567 220.785309 
L 425.526917 228.443067 
L 426.718164 216.212136 
L 427.909411 209.906195 
L 430.291905 161.621992 
L 431.483152 145.085678 
L 432.6744 119.729426 
L 433.865647 102.067074 
L 436.248141 76.185156 
L 437.439388 74.770639 
L 438.630635 83.967593 
L 439.821882 88.867685 
L 441.013129 106.346417 
L 442.204376 130.529404 
L 443.395624 149.652276 
L 445.778118 194.426809 
L 446.969365 206.262799 
L 448.160612 214.325246 
L 449.351859 224.442115 
L 450.543106 214.279097 
L 451.734353 211.751598 
L 454.116848 174.676936 
L 455.308095 152.094357 
L 456.499342 135.456391 
L 458.881836 91.064585 
L 460.073083 81.443814 
L 461.26433 74.751612 
L 462.455577 80.626896 
L 463.646824 77.219032 
L 464.838072 95.992281 
L 466.029319 110.624488 
L 467.220566 138.627582 
L 468.411813 159.366657 
L 469.60306 187.896052 
L 470.794307 200.249222 
L 471.985554 216.208467 
L 473.176801 218.950201 
L 474.368048 224.707459 
L 475.559295 219.872804 
L 476.750543 203.544213 
L 477.94179 190.220125 
L 480.324284 138.533669 
L 481.515531 126.861025 
L 482.706778 99.002588 
L 483.898025 88.090355 
L 485.089272 72.729736 
L 486.280519 71.868863 
L 487.471767 77.901608 
L 488.663014 94.218928 
L 489.854261 105.724518 
L 491.045508 129.158662 
L 492.236755 145.541598 
L 493.428002 173.440248 
L 495.810496 205.018456 
L 497.001743 228.094957 
L 498.192991 225.364711 
L 499.384238 216.521945 
L 500.575485 208.773148 
L 501.766732 198.320374 
L 502.957979 172.995619 
L 504.149226 157.589904 
L 506.53172 106.445184 
L 507.722967 98.328364 
L 508.914215 79.898293 
L 510.105462 70.666629 
L 511.296709 73.203295 
L 512.487956 86.256294 
L 513.679203 97.883192 
L 514.87045 116.029143 
L 516.061697 143.314592 
L 517.252944 162.40716 
L 518.444191 184.439361 
L 519.635439 203.371773 
L 520.826686 212.118944 
L 522.017933 222.702066 
L 523.20918 221.093229 
L 524.400427 222.269653 
L 526.782921 185.227208 
L 527.974168 164.183537 
L 529.165415 133.259399 
L 530.356663 118.698752 
L 531.54791 97.697795 
L 532.739157 92.192091 
L 533.930404 78.896948 
L 535.121651 79.931033 
L 536.312898 78.009489 
L 538.695392 105.739355 
L 539.886639 122.042253 
L 543.460381 200.500422 
L 544.651628 211.317711 
L 545.842875 218.235685 
L 547.034122 223.515998 
L 548.225369 223.132565 
L 549.416616 205.899506 
L 550.607863 195.047137 
L 551.79911 169.644832 
L 552.990358 154.783338 
L 554.181605 123.800207 
L 555.372852 103.538439 
L 556.564099 91.604462 
L 557.755346 88.507581 
L 558.946593 73.164395 
L 560.13784 75.68553 
L 561.329087 83.283815 
L 563.711582 119.555827 
L 564.902829 145.035175 
L 566.094076 163.998634 
L 567.285323 175.192609 
L 568.47657 205.501583 
L 569.667817 214.660551 
L 572.050311 228.038667 
L 573.241558 218.229877 
L 574.432806 199.771051 
L 575.624053 185.894293 
L 576.8153 158.396685 
L 578.006547 142.812394 
L 579.197794 119.241663 
L 580.389041 100.602427 
L 581.580288 86.066456 
L 582.771535 77.398481 
L 583.962782 72.490061 
L 585.15403 87.226544 
L 586.345277 90.42276 
L 587.536524 105.127183 
L 588.727771 123.329026 
L 589.919018 151.220048 
L 591.110265 174.419027 
L 593.492759 212.106452 
L 594.684006 222.160659 
L 595.875254 222.989466 
L 597.066501 218.052555 
L 598.257748 211.418559 
L 599.448995 194.310216 
L 601.831489 147.850211 
L 603.022736 124.424621 
L 604.213983 106.971784 
L 605.40523 92.563284 
L 606.596477 82.492579 
L 607.787725 74.162064 
L 608.978972 77.835497 
L 610.170219 87.968325 
L 611.361466 95.437798 
L 612.552713 116.407688 
L 613.74396 131.442322 
L 614.935207 165.123749 
L 616.126454 188.68121 
L 617.317701 200.621984 
L 618.508949 216.592058 
L 619.700196 221.950987 
L 620.891443 224.713374 
L 622.08269 219.707344 
L 623.273937 195.537226 
L 624.465184 186.623507 
L 626.847678 143.510638 
L 628.038925 116.168817 
L 629.230173 100.713821 
L 630.42142 86.778745 
L 631.612667 75.178002 
L 632.803914 70.862287 
L 633.995161 77.519317 
L 635.186408 90.294261 
L 637.568902 132.222534 
L 638.760149 149.002916 
L 639.951397 182.170241 
L 642.333891 212.84061 
L 643.525138 222.479453 
L 644.716385 221.789492 
L 645.907632 216.784619 
L 647.098879 210.797974 
L 648.290126 193.977789 
L 651.863868 126.440619 
L 653.055115 100.687802 
L 654.246362 88.239914 
L 655.437609 84.222325 
L 656.628856 70.686822 
L 659.01135 82.136567 
L 660.202597 101.009014 
L 661.393845 121.854985 
L 662.585092 146.187123 
L 663.776339 166.929685 
L 666.158833 200.81417 
L 667.35008 214.605339 
L 668.541327 220.211086 
L 669.732574 224.27507 
L 670.923821 210.091373 
L 672.115068 198.244975 
L 673.306316 181.426379 
L 675.68881 135.236585 
L 676.880057 107.921761 
L 678.071304 96.161119 
L 679.262551 82.64829 
L 680.453798 75.080705 
L 681.645045 72.326746 
L 684.02754 95.816765 
L 685.218787 110.432023 
L 686.410034 134.343605 
L 687.601281 151.175236 
L 688.792528 182.621815 
L 689.983775 190.83888 
L 692.366269 223.989909 
L 693.557516 219.443508 
L 694.748764 218.616971 
L 695.940011 203.583426 
L 697.131258 191.536876 
L 699.513752 155.659103 
L 700.704999 126.630131 
L 701.896246 107.836704 
L 704.27874 74.955329 
L 705.469988 71.099371 
L 706.661235 82.529056 
L 707.852482 85.906606 
L 709.043729 102.441369 
L 710.234976 117.2913 
L 711.426223 138.632448 
L 713.808717 192.05542 
L 714.999964 201.567182 
L 716.191212 223.221388 
L 718.573706 220.991746 
L 719.764953 217.496076 
L 722.147447 186.263055 
L 723.338694 158.316655 
L 724.529941 133.665896 
L 725.721188 118.438233 
L 726.912436 92.550757 
L 728.103683 88.351098 
L 729.29493 73.501273 
L 730.486177 74.89517 
L 731.677424 82.73715 
L 732.868671 100.503483 
L 734.059918 103.723051 
L 735.251165 136.664155 
L 736.442412 154.799306 
L 737.633659 169.329884 
L 738.824907 203.193365 
L 740.016154 221.988646 
L 741.207401 221.080681 
L 742.398648 224.115068 
L 743.589895 221.751418 
L 744.781142 211.551239 
L 745.972389 191.308168 
L 747.163636 176.407541 
L 747.163636 176.407541 
" clip-path="url(#pbe7a5671bd)" style="fill: none; stroke: #0000ff; stroke-width: 1.5; stroke-linecap: square"/>
   </g>
   <g id="line2d_24">
    <path d="M 138.436364 153.12436 
L 158.766981 215.337877 
L 179.097598 209.437549 
L 199.428216 151.475652 
L 219.758833 85.178246 
L 240.08945 81.421551 
L 260.420068 150.266978 
L 280.750685 209.203385 
L 301.081302 211.879012 
L 321.41192 150.239673 
L 341.742537 84.590132 
L 362.073154 83.308368 
L 382.403772 150.480952 
L 402.734389 206.47407 
L 423.065006 212.848136 
L 443.395624 149.652276 
L 463.726241 78.470582 
L 484.056858 86.042272 
L 504.387476 152.231554 
L 524.718093 217.461252 
L 545.04871 213.623703 
L 565.379328 152.620559 
L 585.709945 88.718112 
L 606.040562 87.192242 
L 626.37118 152.333516 
L 646.701797 212.793523 
L 667.032414 210.927694 
L 687.363031 147.80891 
L 707.693649 85.456266 
L 728.024266 88.631076 
" clip-path="url(#pbe7a5671bd)" style="fill: none; stroke-dasharray: 5.55,2.4; stroke-dashoffset: 0; stroke: #ff0000; stroke-width: 1.5"/>
    <defs>
     <path id="m743f378db2" d="M 0 1.5 
C 0.397805 1.5 0.77937 1.341951 1.06066 1.06066 
C 1.341951 0.77937 1.5 0.397805 1.5 0 
C 1.5 -0.397805 1.341951 -0.77937 1.06066 -1.06066 
C 0.77937 -1.341951 0.397805 -1.5 0 -1.5 
C -0.397805 -1.5 -0.77937 -1.341951 -1.06066 -1.06066 
C -1.341951 -0.77937 -1.5 -0.397805 -1.5 0 
C -1.5 0.397805 -1.341951 0.77937 -1.06066 1.06066 
C -0.77937 1.341951 -0.397805 1.5 0 1.5 
z
" style="stroke: #ff0000"/>
    </defs>
    <g clip-path="url(#pbe7a5671bd)">
     <use xlink:href="#m743f378db2" x="138.436364" y="153.12436" style="fill: #ff0000; stroke: #ff0000"/>
     <use xlink:href="#m743f378db2" x="158.766981" y="215.337877" style="fill: #ff0000; stroke: #ff0000"/>
     <use xlink:href="#m743f378db2" x="179.097598" y="209.437549" style="fill: #ff0000; stroke: #ff0000"/>
     <use xlink:href="#m743f378db2" x="199.428216" y="151.475652" style="fill: #ff0000; stroke: #ff0000"/>
     <use xlink:href="#m743f378db2" x="219.758833" y="85.178246" style="fill: #ff0000; stroke: #ff0000"/>
     <use xlink:href="#m743f378db2" x="240.08945" y="81.421551" style="fill: #ff0000; stroke: #ff0000"/>
     <use xlink:href="#m743f378db2" x="260.420068" y="150.266978" style="fill: #ff0000; stroke: #ff0000"/>
     <use xlink:href="#m743f378db2" x="280.750685" y="209.203385" style="fill: #ff0000; stroke: #ff0000"/>
     <use xlink:href="#m743f378db2" x="301.081302" y="211.879012" style="fill: #ff0000; stroke: #ff0000"/>
     <use xlink:href="#m743f378db2" x="321.41192" y="150.239673" style="fill: #ff0000; stroke: #ff0000"/>
     <use xlink:href="#m743f378db2" x="341.742537" y="84.590132" style="fill: #ff0000; stroke: #ff0000"/>
     <use xlink:href="#m743f378db2" x="362.073154" y="83.308368" style="fill: #ff0000; stroke: #ff0000"/>
     <use xlink:href="#m743f378db2" x="382.403772" y="150.480952" style="fill: #ff0000; stroke: #ff0000"/>
     <use xlink:href="#m743f378db2" x="402.734389" y="206.47407" style="fill: #ff0000; stroke: #ff0000"/>
     <use xlink:href="#m743f378db2" x="423.065006" y="212.848136" style="fill: #ff0000; stroke: #ff0000"/>
     <use xlink:href="#m743f378db2" x="443.395624" y="149.652276" style="fill: #ff0000; stroke: #ff0000"/>
     <use xlink:href="#m743f378db2" x="463.726241" y="78.470582" style="fill: #ff0000; stroke: #ff0000"/>
     <use xlink:href="#m743f378db2" x="484.056858" y="86.042272" style="fill: #ff0000; stroke: #ff0000"/>
     <use xlink:href="#m743f378db2" x="504.387476" y="152.231554" style="fill: #ff0000; stroke: #ff0000"/>
     <use xlink:href="#m743f378db2" x="524.718093" y="217.461252" style="fill: #ff0000; stroke: #ff0000"/>
     <use xlink:href="#m743f378db2" x="545.04871" y="213.623703" style="fill: #ff0000; stroke: #ff0000"/>
     <use xlink:href="#m743f378db2" x="565.379328" y="152.620559" style="fill: #ff0000; stroke: #ff0000"/>
     <use xlink:href="#m743f378db2" x="585.709945" y="88.718112" style="fill: #ff0000; stroke: #ff0000"/>
     <use xlink:href="#m743f378db2" x="606.040562" y="87.192242" style="fill: #ff0000; stroke: #ff0000"/>
     <use xlink:href="#m743f378db2" x="626.37118" y="152.333516" style="fill: #ff0000; stroke: #ff0000"/>
     <use xlink:href="#m743f378db2" x="646.701797" y="212.793523" style="fill: #ff0000; stroke: #ff0000"/>
     <use xlink:href="#m743f378db2" x="667.032414" y="210.927694" style="fill: #ff0000; stroke: #ff0000"/>
     <use xlink:href="#m743f378db2" x="687.363031" y="147.80891" style="fill: #ff0000; stroke: #ff0000"/>
     <use xlink:href="#m743f378db2" x="707.693649" y="85.456266" style="fill: #ff0000; stroke: #ff0000"/>
     <use xlink:href="#m743f378db2" x="728.024266" y="88.631076" style="fill: #ff0000; stroke: #ff0000"/>
    </g>
   </g>
   <g id="patch_3">
    <path d="M 108 236.88 
L 108 60.48 
" style="fill: none; stroke: #000000; stroke-width: 0.8; stroke-linejoin: miter; stroke-linecap: square"/>
   </g>
   <g id="patch_4">
    <path d="M 777.6 236.88 
L 777.6 60.48 
" style="fill: none; stroke: #000000; stroke-width: 0.8; stroke-linejoin: miter; stroke-linecap: square"/>
   </g>
   <g id="patch_5">
    <path d="M 108 236.88 
L 777.6 236.88 
" style="fill: none; stroke: #000000; stroke-width: 0.8; stroke-linejoin: miter; stroke-linecap: square"/>
   </g>
   <g id="patch_6">
    <path d="M 108 60.48 
L 777.6 60.48 
" style="fill: none; stroke: #000000; stroke-width: 0.8; stroke-linejoin: miter; stroke-linecap: square"/>
   </g>
  </g>
  <g id="axes_2">
   <g id="patch_7">
    <path d="M 108 448.56 
L 777.6 448.56 
L 777.6 272.16 
L 108 272.16 
z
" style="fill: #ffffff"/>
   </g>
   <g id="matplotlib.axis_3">
    <g id="xtick_7">
     <g id="line2d_25">
      <path d="M 138.436364 448.56 
L 138.436364 272.16 
" clip-path="url(#p2cf1dd9ecf)" style="fill: none; stroke: #b0b0b0; stroke-width: 0.8; stroke-linecap: square"/>
     </g>
     <g id="line2d_26">
      <g>
       <use xlink:href="#md109ec3781" x="138.436364" y="448.56" style="stroke: #000000; stroke-width: 0.8"/>
      </g>
     </g>
     <g id="text_14">
      <!-- 0 -->
      <g transform="translate(135.255114 463.158437) scale(0.1 -0.1)">
       <use xlink:href="#DejaVuSans-30"/>
      </g>
     </g>
    </g>
    <g id="xtick_8">
     <g id="line2d_27">
      <path d="M 257.328409 448.56 
L 257.328409 272.16 
" clip-path="url(#p2cf1dd9ecf)" style="fill: none; stroke: #b0b0b0; stroke-width: 0.8; stroke-linecap: square"/>
     </g>
     <g id="line2d_28">
      <g>
       <use xlink:href="#md109ec3781" x="257.328409" y="448.56" style="stroke: #000000; stroke-width: 0.8"/>
      </g>
     </g>
     <g id="text_15">
      <!-- 50 -->
      <g transform="translate(250.965909 463.158437) scale(0.1 -0.1)">
       <use xlink:href="#DejaVuSans-35"/>
       <use xlink:href="#DejaVuSans-30" x="63.623047"/>
      </g>
     </g>
    </g>
    <g id="xtick_9">
     <g id="line2d_29">
      <path d="M 376.220455 448.56 
L 376.220455 272.16 
" clip-path="url(#p2cf1dd9ecf)" style="fill: none; stroke: #b0b0b0; stroke-width: 0.8; stroke-linecap: square"/>
     </g>
     <g id="line2d_30">
      <g>
       <use xlink:href="#md109ec3781" x="376.220455" y="448.56" style="stroke: #000000; stroke-width: 0.8"/>
      </g>
     </g>
     <g id="text_16">
      <!-- 100 -->
      <g transform="translate(366.676705 463.158437) scale(0.1 -0.1)">
       <use xlink:href="#DejaVuSans-31"/>
       <use xlink:href="#DejaVuSans-30" x="63.623047"/>
       <use xlink:href="#DejaVuSans-30" x="127.246094"/>
      </g>
     </g>
    </g>
    <g id="xtick_10">
     <g id="line2d_31">
      <path d="M 495.1125 448.56 
L 495.1125 272.16 
" clip-path="url(#p2cf1dd9ecf)" style="fill: none; stroke: #b0b0b0; stroke-width: 0.8; stroke-linecap: square"/>
     </g>
     <g id="line2d_32">
      <g>
       <use xlink:href="#md109ec3781" x="495.1125" y="448.56" style="stroke: #000000; stroke-width: 0.8"/>
      </g>
     </g>
     <g id="text_17">
      <!-- 150 -->
      <g transform="translate(485.56875 463.158437) scale(0.1 -0.1)">
       <use xlink:href="#DejaVuSans-31"/>
       <use xlink:href="#DejaVuSans-35" x="63.623047"/>
       <use xlink:href="#DejaVuSans-30" x="127.246094"/>
      </g>
     </g>
    </g>
    <g id="xtick_11">
     <g id="line2d_33">
      <path d="M 614.004545 448.56 
L 614.004545 272.16 
" clip-path="url(#p2cf1dd9ecf)" style="fill: none; stroke: #b0b0b0; stroke-width: 0.8; stroke-linecap: square"/>
     </g>
     <g id="line2d_34">
      <g>
       <use xlink:href="#md109ec3781" x="614.004545" y="448.56" style="stroke: #000000; stroke-width: 0.8"/>
      </g>
     </g>
     <g id="text_18">
      <!-- 200 -->
      <g transform="translate(604.460795 463.158437) scale(0.1 -0.1)">
       <use xlink:href="#DejaVuSans-32"/>
       <use xlink:href="#DejaVuSans-30" x="63.623047"/>
       <use xlink:href="#DejaVuSans-30" x="127.246094"/>
      </g>
     </g>
    </g>
    <g id="xtick_12">
     <g id="line2d_35">
      <path d="M 732.896591 448.56 
L 732.896591 272.16 
" clip-path="url(#p2cf1dd9ecf)" style="fill: none; stroke: #b0b0b0; stroke-width: 0.8; stroke-linecap: square"/>
     </g>
     <g id="line2d_36">
      <g>
       <use xlink:href="#md109ec3781" x="732.896591" y="448.56" style="stroke: #000000; stroke-width: 0.8"/>
      </g>
     </g>
     <g id="text_19">
      <!-- 250 -->
      <g transform="translate(723.352841 463.158437) scale(0.1 -0.1)">
       <use xlink:href="#DejaVuSans-32"/>
       <use xlink:href="#DejaVuSans-35" x="63.623047"/>
       <use xlink:href="#DejaVuSans-30" x="127.246094"/>
      </g>
     </g>
    </g>
    <g id="text_20">
     <!-- Frequenz $f$ [Hz] -->
     <g transform="translate(404.5 476.838125) scale(0.1 -0.1)">
      <defs>
       <path id="DejaVuSans-71" d="M 947 1747 
Q 947 1113 1208 752 
Q 1469 391 1925 391 
Q 2381 391 2643 752 
Q 2906 1113 2906 1747 
Q 2906 2381 2643 2742 
Q 2381 3103 1925 3103 
Q 1469 3103 1208 2742 
Q 947 2381 947 1747 
z
M 2906 525 
Q 2725 213 2448 61 
Q 2172 -91 1784 -91 
Q 1150 -91 751 415 
Q 353 922 353 1747 
Q 353 2572 751 3078 
Q 1150 3584 1784 3584 
Q 2172 3584 2448 3432 
Q 2725 3281 2906 2969 
L 2906 3500 
L 3481 3500 
L 3481 -1331 
L 2906 -1331 
L 2906 525 
z
" transform="scale(0.015625)"/>
       <path id="DejaVuSans-7a" d="M 353 3500 
L 3084 3500 
L 3084 2975 
L 922 459 
L 3084 459 
L 3084 0 
L 275 0 
L 275 525 
L 2438 3041 
L 353 3041 
L 353 3500 
z
" transform="scale(0.015625)"/>
       <path id="DejaVuSans-Oblique-66" d="M 3059 4863 
L 2969 4384 
L 2419 4384 
Q 2106 4384 1964 4261 
Q 1822 4138 1753 3809 
L 1691 3500 
L 2638 3500 
L 2553 3053 
L 1606 3053 
L 1013 0 
L 434 0 
L 1031 3053 
L 481 3053 
L 563 3500 
L 1113 3500 
L 1159 3744 
Q 1278 4363 1576 4613 
Q 1875 4863 2516 4863 
L 3059 4863 
z
" transform="scale(0.015625)"/>
       <path id="DejaVuSans-48" d="M 628 4666 
L 1259 4666 
L 1259 2753 
L 3553 2753 
L 3553 4666 
L 4184 4666 
L 4184 0 
L 3553 0 
L 3553 2222 
L 1259 2222 
L 1259 0 
L 628 0 
L 628 4666 
z
" transform="scale(0.015625)"/>
      </defs>
      <use xlink:href="#DejaVuSans-46" transform="translate(0 0.015625)"/>
      <use xlink:href="#DejaVuSans-72" transform="translate(57.519531 0.015625)"/>
      <use xlink:href="#DejaVuSans-65" transform="translate(98.632812 0.015625)"/>
      <use xlink:href="#DejaVuSans-71" transform="translate(160.15625 0.015625)"/>
      <use xlink:href="#DejaVuSans-75" transform="translate(223.632812 0.015625)"/>
      <use xlink:href="#DejaVuSans-65" transform="translate(287.011719 0.015625)"/>
      <use xlink:href="#DejaVuSans-6e" transform="translate(348.535156 0.015625)"/>
      <use xlink:href="#DejaVuSans-7a" transform="translate(411.914062 0.015625)"/>
      <use xlink:href="#DejaVuSans-20" transform="translate(464.404297 0.015625)"/>
      <use xlink:href="#DejaVuSans-Oblique-66" transform="translate(496.191406 0.015625)"/>
      <use xlink:href="#DejaVuSans-20" transform="translate(531.396484 0.015625)"/>
      <use xlink:href="#DejaVuSans-5b" transform="translate(563.183594 0.015625)"/>
      <use xlink:href="#DejaVuSans-48" transform="translate(599.072266 0.015625)"/>
      <use xlink:href="#DejaVuSans-7a" transform="translate(674.267578 0.015625)"/>
      <use xlink:href="#DejaVuSans-5d" transform="translate(726.757812 0.015625)"/>
     </g>
    </g>
   </g>
   <g id="matplotlib.axis_4">
    <g id="ytick_6">
     <g id="line2d_37">
      <path d="M 108 440.555589 
L 777.6 440.555589 
" clip-path="url(#p2cf1dd9ecf)" style="fill: none; stroke: #b0b0b0; stroke-width: 0.8; stroke-linecap: square"/>
     </g>
     <g id="line2d_38">
      <g>
       <use xlink:href="#m30e448a97e" x="108" y="440.555589" style="stroke: #000000; stroke-width: 0.8"/>
      </g>
     </g>
     <g id="text_21">
      <!-- 0.0 -->
      <g transform="translate(85.096875 444.354808) scale(0.1 -0.1)">
       <use xlink:href="#DejaVuSans-30"/>
       <use xlink:href="#DejaVuSans-2e" x="63.623047"/>
       <use xlink:href="#DejaVuSans-30" x="95.410156"/>
      </g>
     </g>
    </g>
    <g id="ytick_7">
     <g id="line2d_39">
      <path d="M 108 408.306552 
L 777.6 408.306552 
" clip-path="url(#p2cf1dd9ecf)" style="fill: none; stroke: #b0b0b0; stroke-width: 0.8; stroke-linecap: square"/>
     </g>
     <g id="line2d_40">
      <g>
       <use xlink:href="#m30e448a97e" x="108" y="408.306552" style="stroke: #000000; stroke-width: 0.8"/>
      </g>
     </g>
     <g id="text_22">
      <!-- 0.2 -->
      <g transform="translate(85.096875 412.10577) scale(0.1 -0.1)">
       <use xlink:href="#DejaVuSans-30"/>
       <use xlink:href="#DejaVuSans-2e" x="63.623047"/>
       <use xlink:href="#DejaVuSans-32" x="95.410156"/>
      </g>
     </g>
    </g>
    <g id="ytick_8">
     <g id="line2d_41">
      <path d="M 108 376.057514 
L 777.6 376.057514 
" clip-path="url(#p2cf1dd9ecf)" style="fill: none; stroke: #b0b0b0; stroke-width: 0.8; stroke-linecap: square"/>
     </g>
     <g id="line2d_42">
      <g>
       <use xlink:href="#m30e448a97e" x="108" y="376.057514" style="stroke: #000000; stroke-width: 0.8"/>
      </g>
     </g>
     <g id="text_23">
      <!-- 0.4 -->
      <g transform="translate(85.096875 379.856732) scale(0.1 -0.1)">
       <use xlink:href="#DejaVuSans-30"/>
       <use xlink:href="#DejaVuSans-2e" x="63.623047"/>
       <use xlink:href="#DejaVuSans-34" x="95.410156"/>
      </g>
     </g>
    </g>
    <g id="ytick_9">
     <g id="line2d_43">
      <path d="M 108 343.808476 
L 777.6 343.808476 
" clip-path="url(#p2cf1dd9ecf)" style="fill: none; stroke: #b0b0b0; stroke-width: 0.8; stroke-linecap: square"/>
     </g>
     <g id="line2d_44">
      <g>
       <use xlink:href="#m30e448a97e" x="108" y="343.808476" style="stroke: #000000; stroke-width: 0.8"/>
      </g>
     </g>
     <g id="text_24">
      <!-- 0.6 -->
      <g transform="translate(85.096875 347.607695) scale(0.1 -0.1)">
       <use xlink:href="#DejaVuSans-30"/>
       <use xlink:href="#DejaVuSans-2e" x="63.623047"/>
       <use xlink:href="#DejaVuSans-36" x="95.410156"/>
      </g>
     </g>
    </g>
    <g id="ytick_10">
     <g id="line2d_45">
      <path d="M 108 311.559438 
L 777.6 311.559438 
" clip-path="url(#p2cf1dd9ecf)" style="fill: none; stroke: #b0b0b0; stroke-width: 0.8; stroke-linecap: square"/>
     </g>
     <g id="line2d_46">
      <g>
       <use xlink:href="#m30e448a97e" x="108" y="311.559438" style="stroke: #000000; stroke-width: 0.8"/>
      </g>
     </g>
     <g id="text_25">
      <!-- 0.8 -->
      <g transform="translate(85.096875 315.358657) scale(0.1 -0.1)">
       <use xlink:href="#DejaVuSans-30"/>
       <use xlink:href="#DejaVuSans-2e" x="63.623047"/>
       <use xlink:href="#DejaVuSans-38" x="95.410156"/>
      </g>
     </g>
    </g>
    <g id="ytick_11">
     <g id="line2d_47">
      <path d="M 108 279.3104 
L 777.6 279.3104 
" clip-path="url(#p2cf1dd9ecf)" style="fill: none; stroke: #b0b0b0; stroke-width: 0.8; stroke-linecap: square"/>
     </g>
     <g id="line2d_48">
      <g>
       <use xlink:href="#m30e448a97e" x="108" y="279.3104" style="stroke: #000000; stroke-width: 0.8"/>
      </g>
     </g>
     <g id="text_26">
      <!-- 1.0 -->
      <g transform="translate(85.096875 283.109619) scale(0.1 -0.1)">
       <use xlink:href="#DejaVuSans-31"/>
       <use xlink:href="#DejaVuSans-2e" x="63.623047"/>
       <use xlink:href="#DejaVuSans-30" x="95.410156"/>
      </g>
     </g>
    </g>
    <g id="text_27">
     <!-- Amplitudenspektrum $\mid Y \mid$ -->
     <g transform="translate(78.896875 426.51) rotate(-90) scale(0.1 -0.1)">
      <defs>
       <path id="DejaVuSans-41" d="M 2188 4044 
L 1331 1722 
L 3047 1722 
L 2188 4044 
z
M 1831 4666 
L 2547 4666 
L 4325 0 
L 3669 0 
L 3244 1197 
L 1141 1197 
L 716 0 
L 50 0 
L 1831 4666 
z
" transform="scale(0.015625)"/>
       <path id="DejaVuSans-6d" d="M 3328 2828 
Q 3544 3216 3844 3400 
Q 4144 3584 4550 3584 
Q 5097 3584 5394 3201 
Q 5691 2819 5691 2113 
L 5691 0 
L 5113 0 
L 5113 2094 
Q 5113 2597 4934 2840 
Q 4756 3084 4391 3084 
Q 3944 3084 3684 2787 
Q 3425 2491 3425 1978 
L 3425 0 
L 2847 0 
L 2847 2094 
Q 2847 2600 2669 2842 
Q 2491 3084 2119 3084 
Q 1678 3084 1418 2786 
Q 1159 2488 1159 1978 
L 1159 0 
L 581 0 
L 581 3500 
L 1159 3500 
L 1159 2956 
Q 1356 3278 1631 3431 
Q 1906 3584 2284 3584 
Q 2666 3584 2933 3390 
Q 3200 3197 3328 2828 
z
" transform="scale(0.015625)"/>
       <path id="DejaVuSans-70" d="M 1159 525 
L 1159 -1331 
L 581 -1331 
L 581 3500 
L 1159 3500 
L 1159 2969 
Q 1341 3281 1617 3432 
Q 1894 3584 2278 3584 
Q 2916 3584 3314 3078 
Q 3713 2572 3713 1747 
Q 3713 922 3314 415 
Q 2916 -91 2278 -91 
Q 1894 -91 1617 61 
Q 1341 213 1159 525 
z
M 3116 1747 
Q 3116 2381 2855 2742 
Q 2594 3103 2138 3103 
Q 1681 3103 1420 2742 
Q 1159 2381 1159 1747 
Q 1159 1113 1420 752 
Q 1681 391 2138 391 
Q 2594 391 2855 752 
Q 3116 1113 3116 1747 
z
" transform="scale(0.015625)"/>
       <path id="DejaVuSans-6c" d="M 603 4863 
L 1178 4863 
L 1178 0 
L 603 0 
L 603 4863 
z
" transform="scale(0.015625)"/>
       <path id="DejaVuSans-64" d="M 2906 2969 
L 2906 4863 
L 3481 4863 
L 3481 0 
L 2906 0 
L 2906 525 
Q 2725 213 2448 61 
Q 2172 -91 1784 -91 
Q 1150 -91 751 415 
Q 353 922 353 1747 
Q 353 2572 751 3078 
Q 1150 3584 1784 3584 
Q 2172 3584 2448 3432 
Q 2725 3281 2906 2969 
z
M 947 1747 
Q 947 1113 1208 752 
Q 1469 391 1925 391 
Q 2381 391 2643 752 
Q 2906 1113 2906 1747 
Q 2906 2381 2643 2742 
Q 2381 3103 1925 3103 
Q 1469 3103 1208 2742 
Q 947 2381 947 1747 
z
" transform="scale(0.015625)"/>
       <path id="DejaVuSans-2223" d="M 1350 4934 
L 1850 4934 
L 1850 -1369 
L 1350 -1369 
L 1350 4934 
z
" transform="scale(0.015625)"/>
       <path id="DejaVuSans-Oblique-59" d="M 403 4666 
L 1081 4666 
L 1953 2747 
L 3616 4666 
L 4325 4666 
L 2209 2222 
L 1778 0 
L 1147 0 
L 1575 2222 
L 403 4666 
z
" transform="scale(0.015625)"/>
      </defs>
      <use xlink:href="#DejaVuSans-41" transform="translate(0 0.90625)"/>
      <use xlink:href="#DejaVuSans-6d" transform="translate(68.408203 0.90625)"/>
      <use xlink:href="#DejaVuSans-70" transform="translate(165.820312 0.90625)"/>
      <use xlink:href="#DejaVuSans-6c" transform="translate(229.296875 0.90625)"/>
      <use xlink:href="#DejaVuSans-69" transform="translate(257.080078 0.90625)"/>
      <use xlink:href="#DejaVuSans-74" transform="translate(284.863281 0.90625)"/>
      <use xlink:href="#DejaVuSans-75" transform="translate(324.072266 0.90625)"/>
      <use xlink:href="#DejaVuSans-64" transform="translate(387.451172 0.90625)"/>
      <use xlink:href="#DejaVuSans-65" transform="translate(450.927734 0.90625)"/>
      <use xlink:href="#DejaVuSans-6e" transform="translate(512.451172 0.90625)"/>
      <use xlink:href="#DejaVuSans-73" transform="translate(575.830078 0.90625)"/>
      <use xlink:href="#DejaVuSans-70" transform="translate(627.929688 0.90625)"/>
      <use xlink:href="#DejaVuSans-65" transform="translate(691.40625 0.90625)"/>
      <use xlink:href="#DejaVuSans-6b" transform="translate(752.929688 0.90625)"/>
      <use xlink:href="#DejaVuSans-74" transform="translate(810.839844 0.90625)"/>
      <use xlink:href="#DejaVuSans-72" transform="translate(850.048828 0.90625)"/>
      <use xlink:href="#DejaVuSans-75" transform="translate(891.162109 0.90625)"/>
      <use xlink:href="#DejaVuSans-6d" transform="translate(954.541016 0.90625)"/>
      <use xlink:href="#DejaVuSans-20" transform="translate(1051.953125 0.90625)"/>
      <use xlink:href="#DejaVuSans-2223" transform="translate(1103.222656 0.90625)"/>
      <use xlink:href="#DejaVuSans-Oblique-59" transform="translate(1172.705078 0.90625)"/>
      <use xlink:href="#DejaVuSans-2223" transform="translate(1253.271484 0.90625)"/>
     </g>
    </g>
   </g>
   <g id="line2d_49">
    <path d="M 138.436364 440.5102 
L 140.814205 440.124695 
L 143.192045 440.416194 
L 145.569886 439.494413 
L 147.947727 439.833973 
L 152.703409 439.997923 
L 155.08125 439.978339 
L 157.459091 439.829768 
L 162.214773 440.032061 
L 164.592614 439.620799 
L 166.970455 440.293289 
L 169.348295 439.759751 
L 171.726136 439.690854 
L 174.103977 440.133345 
L 176.481818 440.124878 
L 178.859659 440.365826 
L 183.615341 440.213916 
L 185.993182 439.906976 
L 188.371023 440.330327 
L 190.748864 440.067359 
L 193.126705 440.137753 
L 195.504545 439.538756 
L 197.882386 280.178182 
L 200.260227 439.655028 
L 205.015909 440.220846 
L 207.39375 439.717132 
L 209.771591 439.36906 
L 212.149432 440.179292 
L 214.527273 439.732209 
L 216.905114 440.432272 
L 219.282955 440.275549 
L 221.660795 440.239704 
L 224.038636 439.333613 
L 226.416477 440.052237 
L 231.172159 440.204485 
L 233.55 439.011351 
L 235.927841 440.286164 
L 238.305682 440.320895 
L 240.683523 440.227346 
L 243.061364 440.412455 
L 245.439205 440.381113 
L 247.817045 439.886475 
L 250.194886 440.186637 
L 252.572727 439.744507 
L 254.950568 439.766071 
L 257.328409 440.467726 
L 259.70625 439.941143 
L 262.084091 439.661835 
L 264.461932 440.434462 
L 266.839773 439.495889 
L 271.595455 439.659618 
L 273.973295 439.474377 
L 276.351136 440.354717 
L 278.728977 439.517392 
L 281.106818 440.0408 
L 283.484659 440.115505 
L 285.8625 439.782447 
L 288.240341 439.923466 
L 290.618182 440.35069 
L 292.996023 439.703969 
L 295.373864 439.629353 
L 297.751705 439.940634 
L 302.507386 440.211639 
L 304.885227 439.476108 
L 307.263068 440.182705 
L 312.01875 439.628752 
L 314.396591 439.365834 
L 316.774432 440.035541 
L 319.152273 440.303736 
L 321.530114 440.250675 
L 326.285795 439.783826 
L 328.663636 439.808368 
L 331.041477 440.064234 
L 335.797159 439.945976 
L 338.175 439.637398 
L 342.930682 439.593463 
L 345.308523 440.041517 
L 347.686364 440.249275 
L 350.064205 439.285286 
L 352.442045 440.125088 
L 354.819886 440.237021 
L 359.575568 439.927246 
L 361.953409 440.215203 
L 364.33125 439.440179 
L 366.709091 439.974249 
L 369.086932 439.975492 
L 371.464773 440.425143 
L 373.842614 440.28203 
L 376.220455 440.360938 
L 378.598295 440.002774 
L 380.976136 439.86842 
L 383.353977 440.308888 
L 385.731818 440.209719 
L 388.109659 439.995596 
L 390.4875 439.969717 
L 392.865341 439.581694 
L 395.243182 439.038611 
L 397.621023 439.936269 
L 399.998864 440.034146 
L 404.754545 439.661721 
L 407.132386 439.803319 
L 409.510227 440.247621 
L 411.888068 440.11322 
L 414.265909 439.428488 
L 416.64375 440.417815 
L 419.021591 439.620886 
L 421.399432 439.145483 
L 423.777273 440.29919 
L 426.155114 439.869836 
L 428.532955 440.196874 
L 433.288636 440.008998 
L 435.666477 440.000339 
L 438.044318 440.13912 
L 440.422159 439.428267 
L 442.8 439.458629 
L 445.177841 440.192233 
L 447.555682 440.305346 
L 449.933523 439.827326 
L 452.311364 440.273576 
L 457.067045 439.863359 
L 459.444886 439.958046 
L 461.822727 440.270506 
L 464.200568 439.941512 
L 466.578409 439.877296 
L 468.95625 439.660489 
L 471.334091 439.733924 
L 476.089773 440.511599 
L 478.467614 439.376819 
L 480.845455 439.738194 
L 483.223295 439.886412 
L 485.601136 440.314126 
L 487.978977 440.208661 
L 490.356818 439.99088 
L 492.734659 439.886889 
L 495.1125 439.937477 
L 497.490341 440.127891 
L 499.868182 439.993713 
L 502.246023 439.421278 
L 507.001705 440.104022 
L 509.379545 439.899176 
L 511.757386 439.961907 
L 514.135227 439.898229 
L 516.513068 440.348049 
L 518.890909 440.256594 
L 521.26875 439.387006 
L 523.646591 440.389498 
L 526.024432 439.799818 
L 528.402273 439.571336 
L 530.780114 440.362623 
L 533.157955 439.150437 
L 535.535795 440.288593 
L 537.913636 439.719568 
L 540.291477 440.234737 
L 542.669318 440.060821 
L 545.047159 440.458421 
L 547.425 439.854343 
L 552.180682 440.177725 
L 556.936364 440.132308 
L 559.314205 440.252941 
L 561.692045 439.552755 
L 566.447727 440.158407 
L 568.825568 440.090045 
L 571.203409 439.17169 
L 573.58125 440.279005 
L 575.959091 440.059338 
L 578.336932 439.551121 
L 580.714773 440.444494 
L 583.092614 439.131409 
L 585.470455 439.942577 
L 592.603977 440.214838 
L 594.981818 439.842183 
L 599.7375 439.688261 
L 602.115341 440.311196 
L 604.493182 439.198085 
L 606.871023 440.469461 
L 609.248864 440.143076 
L 611.626705 439.395565 
L 614.004545 439.360177 
L 616.382386 440.310295 
L 618.760227 440.203469 
L 621.138068 440.22593 
L 623.515909 440.030436 
L 625.89375 440.394982 
L 628.271591 440.098699 
L 630.649432 440.153424 
L 633.027273 439.680836 
L 635.405114 440.396108 
L 642.538636 439.884019 
L 644.916477 439.833603 
L 647.294318 439.668279 
L 649.672159 439.918735 
L 652.05 439.861615 
L 654.427841 440.112147 
L 656.805682 440.088039 
L 659.183523 439.89194 
L 663.939205 440.448932 
L 666.317045 439.259881 
L 668.694886 439.450456 
L 671.072727 440.372958 
L 673.450568 440.274895 
L 675.828409 439.916544 
L 678.20625 440.24915 
L 682.961932 439.793288 
L 685.339773 440.396634 
L 690.095455 440.303508 
L 692.473295 440.115915 
L 694.851136 439.51124 
L 697.228977 439.809624 
L 699.606818 439.947404 
L 701.984659 439.789271 
L 704.3625 440.173021 
L 706.740341 439.765316 
L 709.118182 439.875561 
L 713.873864 439.85043 
L 716.251705 440.309222 
L 718.629545 440.236269 
L 721.007386 439.727522 
L 723.385227 439.954425 
L 725.763068 440.374015 
L 728.140909 439.473936 
L 730.51875 440.129298 
L 732.896591 439.751524 
L 735.274432 440.256683 
L 737.652273 438.902693 
L 740.030114 440.228065 
L 742.407955 439.816065 
L 744.785795 440.137678 
L 747.163636 439.828924 
L 747.163636 439.828924 
" clip-path="url(#p2cf1dd9ecf)" style="fill: none; stroke: #0000ff; stroke-width: 1.5; stroke-linecap: square"/>
   </g>
   <g id="line2d_50">
    <path d="M 138.436364 439.722742 
L 140.814205 436.810719 
L 143.192045 438.712317 
L 145.569886 436.940945 
L 147.947727 439.792949 
L 150.325568 282.477239 
L 152.703409 438.023253 
L 155.08125 439.975401 
L 157.459091 438.304127 
L 159.836932 439.457061 
L 162.214773 436.853958 
L 164.592614 437.729404 
L 166.970455 439.186161 
L 169.348295 438.13199 
L 171.726136 439.150975 
L 174.103977 440.541818 
" clip-path="url(#p2cf1dd9ecf)" style="fill: none; stroke: #ff0000; stroke-width: 1.5; stroke-linecap: square"/>
   </g>
   <g id="patch_8">
    <path d="M 108 448.56 
L 108 272.16 
" style="fill: none; stroke: #000000; stroke-width: 0.8; stroke-linejoin: miter; stroke-linecap: square"/>
   </g>
   <g id="patch_9">
    <path d="M 777.6 448.56 
L 777.6 272.16 
" style="fill: none; stroke: #000000; stroke-width: 0.8; stroke-linejoin: miter; stroke-linecap: square"/>
   </g>
   <g id="patch_10">
    <path d="M 108 448.56 
L 777.6 448.56 
" style="fill: none; stroke: #000000; stroke-width: 0.8; stroke-linejoin: miter; stroke-linecap: square"/>
   </g>
   <g id="patch_11">
    <path d="M 108 272.16 
L 777.6 272.16 
" style="fill: none; stroke: #000000; stroke-width: 0.8; stroke-linejoin: miter; stroke-linecap: square"/>
   </g>
   <g id="patch_12">
    <path d="M 252.265467 329.338114 
Q 230.220521 328.825487 208.175574 328.31286 
L 208.129079 330.312319 
Q 205.657764 329.004514 203.186448 327.696709 
Q 205.715883 326.50519 208.245317 325.313671 
L 208.198822 327.31313 
Q 230.243768 327.825757 252.288714 328.338385 
L 252.265467 329.338114 
z
" style="stroke: #000000; stroke-linecap: round"/>
   </g>
   <g id="text_28">
    <g id="patch_13">
     <path d="M 253.328409 337.794774 
L 460.469034 337.794774 
L 460.469034 320.116649 
L 253.328409 320.116649 
z
" style="fill: #ffffff; stroke: #ffffff; stroke-linejoin: miter"/>
    </g>
    <!-- Tatsächliche Frequenz im Signal (25 Hz) -->
    <g transform="translate(257.328409 331.715087) scale(0.1 -0.1)">
     <defs>
      <path id="DejaVuSans-54" d="M -19 4666 
L 3928 4666 
L 3928 4134 
L 2272 4134 
L 2272 0 
L 1638 0 
L 1638 4134 
L -19 4134 
L -19 4666 
z
" transform="scale(0.015625)"/>
      <path id="DejaVuSans-61" d="M 2194 1759 
Q 1497 1759 1228 1600 
Q 959 1441 959 1056 
Q 959 750 1161 570 
Q 1363 391 1709 391 
Q 2188 391 2477 730 
Q 2766 1069 2766 1631 
L 2766 1759 
L 2194 1759 
z
M 3341 1997 
L 3341 0 
L 2766 0 
L 2766 531 
Q 2569 213 2275 61 
Q 1981 -91 1556 -91 
Q 1019 -91 701 211 
Q 384 513 384 1019 
Q 384 1609 779 1909 
Q 1175 2209 1959 2209 
L 2766 2209 
L 2766 2266 
Q 2766 2663 2505 2880 
Q 2244 3097 1772 3097 
Q 1472 3097 1187 3025 
Q 903 2953 641 2809 
L 641 3341 
Q 956 3463 1253 3523 
Q 1550 3584 1831 3584 
Q 2591 3584 2966 3190 
Q 3341 2797 3341 1997 
z
" transform="scale(0.015625)"/>
      <path id="DejaVuSans-e4" d="M 2194 1759 
Q 1497 1759 1228 1600 
Q 959 1441 959 1056 
Q 959 750 1161 570 
Q 1363 391 1709 391 
Q 2188 391 2477 730 
Q 2766 1069 2766 1631 
L 2766 1759 
L 2194 1759 
z
M 3341 1997 
L 3341 0 
L 2766 0 
L 2766 531 
Q 2569 213 2275 61 
Q 1981 -91 1556 -91 
Q 1019 -91 701 211 
Q 384 513 384 1019 
Q 384 1609 779 1909 
Q 1175 2209 1959 2209 
L 2766 2209 
L 2766 2266 
Q 2766 2663 2505 2880 
Q 2244 3097 1772 3097 
Q 1472 3097 1187 3025 
Q 903 2953 641 2809 
L 641 3341 
Q 956 3463 1253 3523 
Q 1550 3584 1831 3584 
Q 2591 3584 2966 3190 
Q 3341 2797 3341 1997 
z
M 2150 4850 
L 2784 4850 
L 2784 4219 
L 2150 4219 
L 2150 4850 
z
M 928 4850 
L 1562 4850 
L 1562 4219 
L 928 4219 
L 928 4850 
z
" transform="scale(0.015625)"/>
      <path id="DejaVuSans-63" d="M 3122 3366 
L 3122 2828 
Q 2878 2963 2633 3030 
Q 2388 3097 2138 3097 
Q 1578 3097 1268 2742 
Q 959 2388 959 1747 
Q 959 1106 1268 751 
Q 1578 397 2138 397 
Q 2388 397 2633 464 
Q 2878 531 3122 666 
L 3122 134 
Q 2881 22 2623 -34 
Q 2366 -91 2075 -91 
Q 1284 -91 818 406 
Q 353 903 353 1747 
Q 353 2603 823 3093 
Q 1294 3584 2113 3584 
Q 2378 3584 2631 3529 
Q 2884 3475 3122 3366 
z
" transform="scale(0.015625)"/>
      <path id="DejaVuSans-68" d="M 3513 2113 
L 3513 0 
L 2938 0 
L 2938 2094 
Q 2938 2591 2744 2837 
Q 2550 3084 2163 3084 
Q 1697 3084 1428 2787 
Q 1159 2491 1159 1978 
L 1159 0 
L 581 0 
L 581 4863 
L 1159 4863 
L 1159 2956 
Q 1366 3272 1645 3428 
Q 1925 3584 2291 3584 
Q 2894 3584 3203 3211 
Q 3513 2838 3513 2113 
z
" transform="scale(0.015625)"/>
      <path id="DejaVuSans-53" d="M 3425 4513 
L 3425 3897 
Q 3066 4069 2747 4153 
Q 2428 4238 2131 4238 
Q 1616 4238 1336 4038 
Q 1056 3838 1056 3469 
Q 1056 3159 1242 3001 
Q 1428 2844 1947 2747 
L 2328 2669 
Q 3034 2534 3370 2195 
Q 3706 1856 3706 1288 
Q 3706 609 3251 259 
Q 2797 -91 1919 -91 
Q 1588 -91 1214 -16 
Q 841 59 441 206 
L 441 856 
Q 825 641 1194 531 
Q 1563 422 1919 422 
Q 2459 422 2753 634 
Q 3047 847 3047 1241 
Q 3047 1584 2836 1778 
Q 2625 1972 2144 2069 
L 1759 2144 
Q 1053 2284 737 2584 
Q 422 2884 422 3419 
Q 422 4038 858 4394 
Q 1294 4750 2059 4750 
Q 2388 4750 2728 4690 
Q 3069 4631 3425 4513 
z
" transform="scale(0.015625)"/>
      <path id="DejaVuSans-67" d="M 2906 1791 
Q 2906 2416 2648 2759 
Q 2391 3103 1925 3103 
Q 1463 3103 1205 2759 
Q 947 2416 947 1791 
Q 947 1169 1205 825 
Q 1463 481 1925 481 
Q 2391 481 2648 825 
Q 2906 1169 2906 1791 
z
M 3481 434 
Q 3481 -459 3084 -895 
Q 2688 -1331 1869 -1331 
Q 1566 -1331 1297 -1286 
Q 1028 -1241 775 -1147 
L 775 -588 
Q 1028 -725 1275 -790 
Q 1522 -856 1778 -856 
Q 2344 -856 2625 -561 
Q 2906 -266 2906 331 
L 2906 616 
Q 2728 306 2450 153 
Q 2172 0 1784 0 
Q 1141 0 747 490 
Q 353 981 353 1791 
Q 353 2603 747 3093 
Q 1141 3584 1784 3584 
Q 2172 3584 2450 3431 
Q 2728 3278 2906 2969 
L 2906 3500 
L 3481 3500 
L 3481 434 
z
" transform="scale(0.015625)"/>
      <path id="DejaVuSans-28" d="M 1984 4856 
Q 1566 4138 1362 3434 
Q 1159 2731 1159 2009 
Q 1159 1288 1364 580 
Q 1569 -128 1984 -844 
L 1484 -844 
Q 1016 -109 783 600 
Q 550 1309 550 2009 
Q 550 2706 781 3412 
Q 1013 4119 1484 4856 
L 1984 4856 
z
" transform="scale(0.015625)"/>
      <path id="DejaVuSans-29" d="M 513 4856 
L 1013 4856 
Q 1481 4119 1714 3412 
Q 1947 2706 1947 2009 
Q 1947 1309 1714 600 
Q 1481 -109 1013 -844 
L 513 -844 
Q 928 -128 1133 580 
Q 1338 1288 1338 2009 
Q 1338 2731 1133 3434 
Q 928 4138 513 4856 
z
" transform="scale(0.015625)"/>
     </defs>
     <use xlink:href="#DejaVuSans-54"/>
     <use xlink:href="#DejaVuSans-61" x="44.583984"/>
     <use xlink:href="#DejaVuSans-74" x="105.863281"/>
     <use xlink:href="#DejaVuSans-73" x="145.072266"/>
     <use xlink:href="#DejaVuSans-e4" x="197.171875"/>
     <use xlink:href="#DejaVuSans-63" x="258.451172"/>
     <use xlink:href="#DejaVuSans-68" x="313.431641"/>
     <use xlink:href="#DejaVuSans-6c" x="376.810547"/>
     <use xlink:href="#DejaVuSans-69" x="404.59375"/>
     <use xlink:href="#DejaVuSans-63" x="432.376953"/>
     <use xlink:href="#DejaVuSans-68" x="487.357422"/>
     <use xlink:href="#DejaVuSans-65" x="550.736328"/>
     <use xlink:href="#DejaVuSans-20" x="612.259766"/>
     <use xlink:href="#DejaVuSans-46" x="644.046875"/>
     <use xlink:href="#DejaVuSans-72" x="694.316406"/>
     <use xlink:href="#DejaVuSans-65" x="733.179688"/>
     <use xlink:href="#DejaVuSans-71" x="794.703125"/>
     <use xlink:href="#DejaVuSans-75" x="858.179688"/>
     <use xlink:href="#DejaVuSans-65" x="921.558594"/>
     <use xlink:href="#DejaVuSans-6e" x="983.082031"/>
     <use xlink:href="#DejaVuSans-7a" x="1046.460938"/>
     <use xlink:href="#DejaVuSans-20" x="1098.951172"/>
     <use xlink:href="#DejaVuSans-69" x="1130.738281"/>
     <use xlink:href="#DejaVuSans-6d" x="1158.521484"/>
     <use xlink:href="#DejaVuSans-20" x="1255.933594"/>
     <use xlink:href="#DejaVuSans-53" x="1287.720703"/>
     <use xlink:href="#DejaVuSans-69" x="1351.197266"/>
     <use xlink:href="#DejaVuSans-67" x="1378.980469"/>
     <use xlink:href="#DejaVuSans-6e" x="1442.457031"/>
     <use xlink:href="#DejaVuSans-61" x="1505.835938"/>
     <use xlink:href="#DejaVuSans-6c" x="1567.115234"/>
     <use xlink:href="#DejaVuSans-20" x="1594.898438"/>
     <use xlink:href="#DejaVuSans-28" x="1626.685547"/>
     <use xlink:href="#DejaVuSans-32" x="1665.699219"/>
     <use xlink:href="#DejaVuSans-35" x="1729.322266"/>
     <use xlink:href="#DejaVuSans-20" x="1792.945312"/>
     <use xlink:href="#DejaVuSans-48" x="1824.732422"/>
     <use xlink:href="#DejaVuSans-7a" x="1899.927734"/>
     <use xlink:href="#DejaVuSans-29" x="1952.417969"/>
    </g>
   </g>
   <g id="patch_14">
    <path d="M 251.796357 361.644849 
Q 206.446232 361.076624 161.096107 360.508399 
L 161.07105 362.508242 
Q 158.58827 361.227035 156.105491 359.945828 
Q 158.619592 358.727231 161.133693 357.508634 
L 161.108636 359.508477 
Q 206.458761 360.076702 251.808886 360.644927 
L 251.796357 361.644849 
z
" style="stroke: #000000; stroke-linecap: round"/>
   </g>
   <g id="text_29">
    <g id="patch_15">
     <path d="M 253.328409 370.064124 
L 581.928409 370.064124 
L 581.928409 352.364124 
L 253.328409 352.364124 
z
" style="fill: #ffffff; stroke: #ffffff; stroke-linejoin: miter"/>
    </g>
    <!-- Alias-Frequenz (5 Hz) aufgrund der Unterabtastung ($f_S =$ 30 Hz) -->
    <g transform="translate(257.328409 363.964124) scale(0.1 -0.1)">
     <defs>
      <path id="DejaVuSans-2d" d="M 313 2009 
L 1997 2009 
L 1997 1497 
L 313 1497 
L 313 2009 
z
" transform="scale(0.015625)"/>
      <path id="DejaVuSans-66" d="M 2375 4863 
L 2375 4384 
L 1825 4384 
Q 1516 4384 1395 4259 
Q 1275 4134 1275 3809 
L 1275 3500 
L 2222 3500 
L 2222 3053 
L 1275 3053 
L 1275 0 
L 697 0 
L 697 3053 
L 147 3053 
L 147 3500 
L 697 3500 
L 697 3744 
Q 697 4328 969 4595 
Q 1241 4863 1831 4863 
L 2375 4863 
z
" transform="scale(0.015625)"/>
      <path id="DejaVuSans-55" d="M 556 4666 
L 1191 4666 
L 1191 1831 
Q 1191 1081 1462 751 
Q 1734 422 2344 422 
Q 2950 422 3222 751 
Q 3494 1081 3494 1831 
L 3494 4666 
L 4128 4666 
L 4128 1753 
Q 4128 841 3676 375 
Q 3225 -91 2344 -91 
Q 1459 -91 1007 375 
Q 556 841 556 1753 
L 556 4666 
z
" transform="scale(0.015625)"/>
      <path id="DejaVuSans-62" d="M 3116 1747 
Q 3116 2381 2855 2742 
Q 2594 3103 2138 3103 
Q 1681 3103 1420 2742 
Q 1159 2381 1159 1747 
Q 1159 1113 1420 752 
Q 1681 391 2138 391 
Q 2594 391 2855 752 
Q 3116 1113 3116 1747 
z
M 1159 2969 
Q 1341 3281 1617 3432 
Q 1894 3584 2278 3584 
Q 2916 3584 3314 3078 
Q 3713 2572 3713 1747 
Q 3713 922 3314 415 
Q 2916 -91 2278 -91 
Q 1894 -91 1617 61 
Q 1341 213 1159 525 
L 1159 0 
L 581 0 
L 581 4863 
L 1159 4863 
L 1159 2969 
z
" transform="scale(0.015625)"/>
      <path id="DejaVuSans-Oblique-53" d="M 3859 4513 
L 3738 3897 
Q 3422 4066 3111 4152 
Q 2800 4238 2509 4238 
Q 1944 4238 1609 3991 
Q 1275 3744 1275 3334 
Q 1275 3109 1398 2989 
Q 1522 2869 2034 2731 
L 2413 2638 
Q 3053 2472 3303 2217 
Q 3553 1963 3553 1503 
Q 3553 797 2998 353 
Q 2444 -91 1538 -91 
Q 1166 -91 791 -17 
Q 416 56 38 206 
L 166 856 
Q 513 641 861 531 
Q 1209 422 1556 422 
Q 2147 422 2503 684 
Q 2859 947 2859 1369 
Q 2859 1650 2717 1795 
Q 2575 1941 2106 2059 
L 1728 2156 
Q 1081 2325 845 2545 
Q 609 2766 609 3163 
Q 609 3859 1145 4304 
Q 1681 4750 2541 4750 
Q 2875 4750 3203 4690 
Q 3531 4631 3859 4513 
z
" transform="scale(0.015625)"/>
      <path id="DejaVuSans-3d" d="M 678 2906 
L 4684 2906 
L 4684 2381 
L 678 2381 
L 678 2906 
z
M 678 1631 
L 4684 1631 
L 4684 1100 
L 678 1100 
L 678 1631 
z
" transform="scale(0.015625)"/>
      <path id="DejaVuSans-33" d="M 2597 2516 
Q 3050 2419 3304 2112 
Q 3559 1806 3559 1356 
Q 3559 666 3084 287 
Q 2609 -91 1734 -91 
Q 1441 -91 1130 -33 
Q 819 25 488 141 
L 488 750 
Q 750 597 1062 519 
Q 1375 441 1716 441 
Q 2309 441 2620 675 
Q 2931 909 2931 1356 
Q 2931 1769 2642 2001 
Q 2353 2234 1838 2234 
L 1294 2234 
L 1294 2753 
L 1863 2753 
Q 2328 2753 2575 2939 
Q 2822 3125 2822 3475 
Q 2822 3834 2567 4026 
Q 2313 4219 1838 4219 
Q 1578 4219 1281 4162 
Q 984 4106 628 3988 
L 628 4550 
Q 988 4650 1302 4700 
Q 1616 4750 1894 4750 
Q 2613 4750 3031 4423 
Q 3450 4097 3450 3541 
Q 3450 3153 3228 2886 
Q 3006 2619 2597 2516 
z
" transform="scale(0.015625)"/>
     </defs>
     <use xlink:href="#DejaVuSans-41" transform="translate(0 0.015625)"/>
     <use xlink:href="#DejaVuSans-6c" transform="translate(68.408203 0.015625)"/>
     <use xlink:href="#DejaVuSans-69" transform="translate(96.191406 0.015625)"/>
     <use xlink:href="#DejaVuSans-61" transform="translate(123.974609 0.015625)"/>
     <use xlink:href="#DejaVuSans-73" transform="translate(185.253906 0.015625)"/>
     <use xlink:href="#DejaVuSans-2d" transform="translate(237.353516 0.015625)"/>
     <use xlink:href="#DejaVuSans-46" transform="translate(273.4375 0.015625)"/>
     <use xlink:href="#DejaVuSans-72" transform="translate(330.957031 0.015625)"/>
     <use xlink:href="#DejaVuSans-65" transform="translate(372.070312 0.015625)"/>
     <use xlink:href="#DejaVuSans-71" transform="translate(433.59375 0.015625)"/>
     <use xlink:href="#DejaVuSans-75" transform="translate(497.070312 0.015625)"/>
     <use xlink:href="#DejaVuSans-65" transform="translate(560.449219 0.015625)"/>
     <use xlink:href="#DejaVuSans-6e" transform="translate(621.972656 0.015625)"/>
     <use xlink:href="#DejaVuSans-7a" transform="translate(685.351562 0.015625)"/>
     <use xlink:href="#DejaVuSans-20" transform="translate(737.841797 0.015625)"/>
     <use xlink:href="#DejaVuSans-28" transform="translate(769.628906 0.015625)"/>
     <use xlink:href="#DejaVuSans-35" transform="translate(808.642578 0.015625)"/>
     <use xlink:href="#DejaVuSans-20" transform="translate(872.265625 0.015625)"/>
     <use xlink:href="#DejaVuSans-48" transform="translate(904.052734 0.015625)"/>
     <use xlink:href="#DejaVuSans-7a" transform="translate(979.248047 0.015625)"/>
     <use xlink:href="#DejaVuSans-29" transform="translate(1031.738281 0.015625)"/>
     <use xlink:href="#DejaVuSans-20" transform="translate(1070.751953 0.015625)"/>
     <use xlink:href="#DejaVuSans-61" transform="translate(1102.539062 0.015625)"/>
     <use xlink:href="#DejaVuSans-75" transform="translate(1163.818359 0.015625)"/>
     <use xlink:href="#DejaVuSans-66" transform="translate(1227.197266 0.015625)"/>
     <use xlink:href="#DejaVuSans-67" transform="translate(1262.402344 0.015625)"/>
     <use xlink:href="#DejaVuSans-72" transform="translate(1325.878906 0.015625)"/>
     <use xlink:href="#DejaVuSans-75" transform="translate(1366.992188 0.015625)"/>
     <use xlink:href="#DejaVuSans-6e" transform="translate(1430.371094 0.015625)"/>
     <use xlink:href="#DejaVuSans-64" transform="translate(1493.75 0.015625)"/>
     <use xlink:href="#DejaVuSans-20" transform="translate(1557.226562 0.015625)"/>
     <use xlink:href="#DejaVuSans-64" transform="translate(1589.013672 0.015625)"/>
     <use xlink:href="#DejaVuSans-65" transform="translate(1652.490234 0.015625)"/>
     <use xlink:href="#DejaVuSans-72" transform="translate(1714.013672 0.015625)"/>
     <use xlink:href="#DejaVuSans-20" transform="translate(1755.126953 0.015625)"/>
     <use xlink:href="#DejaVuSans-55" transform="translate(1786.914062 0.015625)"/>
     <use xlink:href="#DejaVuSans-6e" transform="translate(1860.107422 0.015625)"/>
     <use xlink:href="#DejaVuSans-74" transform="translate(1923.486328 0.015625)"/>
     <use xlink:href="#DejaVuSans-65" transform="translate(1962.695312 0.015625)"/>
     <use xlink:href="#DejaVuSans-72" transform="translate(2024.21875 0.015625)"/>
     <use xlink:href="#DejaVuSans-61" transform="translate(2065.332031 0.015625)"/>
     <use xlink:href="#DejaVuSans-62" transform="translate(2126.611328 0.015625)"/>
     <use xlink:href="#DejaVuSans-74" transform="translate(2190.087891 0.015625)"/>
     <use xlink:href="#DejaVuSans-61" transform="translate(2229.296875 0.015625)"/>
     <use xlink:href="#DejaVuSans-73" transform="translate(2290.576172 0.015625)"/>
     <use xlink:href="#DejaVuSans-74" transform="translate(2342.675781 0.015625)"/>
     <use xlink:href="#DejaVuSans-75" transform="translate(2381.884766 0.015625)"/>
     <use xlink:href="#DejaVuSans-6e" transform="translate(2445.263672 0.015625)"/>
     <use xlink:href="#DejaVuSans-67" transform="translate(2508.642578 0.015625)"/>
     <use xlink:href="#DejaVuSans-20" transform="translate(2572.119141 0.015625)"/>
     <use xlink:href="#DejaVuSans-28" transform="translate(2603.90625 0.015625)"/>
     <use xlink:href="#DejaVuSans-Oblique-66" transform="translate(2642.919922 0.015625)"/>
     <use xlink:href="#DejaVuSans-Oblique-53" transform="translate(2678.125 -16.390625) scale(0.7)"/>
     <use xlink:href="#DejaVuSans-3d" transform="translate(2744.775391 0.015625)"/>
     <use xlink:href="#DejaVuSans-20" transform="translate(2848.046875 0.015625)"/>
     <use xlink:href="#DejaVuSans-33" transform="translate(2879.833984 0.015625)"/>
     <use xlink:href="#DejaVuSans-30" transform="translate(2943.457031 0.015625)"/>
     <use xlink:href="#DejaVuSans-20" transform="translate(3007.080078 0.015625)"/>
     <use xlink:href="#DejaVuSans-48" transform="translate(3038.867188 0.015625)"/>
     <use xlink:href="#DejaVuSans-7a" transform="translate(3114.0625 0.015625)"/>
     <use xlink:href="#DejaVuSans-29" transform="translate(3166.552734 0.015625)"/>
    </g>
   </g>
  </g>
 </g>
 <defs>
  <clipPath id="pbe7a5671bd">
   <rect x="108" y="60.48" width="669.6" height="176.4"/>
  </clipPath>
  <clipPath id="p2cf1dd9ecf">
   <rect x="108" y="272.16" width="669.6" height="176.4"/>
  </clipPath>
 </defs>
</svg>
