<svg width="2003" height="738" xmlns="http://www.w3.org/2000/svg" xmlns:xlink="http://www.w3.org/1999/xlink" xml:space="preserve" overflow="hidden"><g transform="translate(-992 -556)"><path d="M1655.5 848.501C1655.5 818.125 1680.12 793.5 1710.5 793.5L1930.5 793.5C1960.88 793.5 1985.5 818.125 1985.5 848.501L1985.5 1068.5C1985.5 1098.88 1960.88 1123.5 1930.5 1123.5L1710.5 1123.5C1680.12 1123.5 1655.5 1098.88 1655.5 1068.5Z" stroke="#164F6C" stroke-width="36.6667" stroke-miterlimit="8" fill="#164F6C" fill-rule="evenodd" fill-opacity="0.2"/><path d="M2228.5 848.501C2228.5 818.125 2253.12 793.5 2283.5 793.5L2503.5 793.5C2533.88 793.5 2558.5 818.125 2558.5 848.501L2558.5 1068.5C2558.5 1098.88 2533.88 1123.5 2503.5 1123.5L2283.5 1123.5C2253.12 1123.5 2228.5 1098.88 2228.5 1068.5Z" stroke="#164F6C" stroke-width="36.6667" stroke-miterlimit="8" fill="#164F6C" fill-rule="evenodd" fill-opacity="0.2"/><path d="M1260.5 958.5C1260.5 915.422 1295.42 880.5 1338.5 880.5 1381.58 880.5 1416.5 915.422 1416.5 958.5 1416.5 1001.58 1381.58 1036.5 1338.5 1036.5 1295.42 1036.5 1260.5 1001.58 1260.5 958.5Z" stroke="#164F6C" stroke-width="36.6667" stroke-miterlimit="8" fill="#164F6C" fill-rule="evenodd" fill-opacity="0.2"/><path d="M1416.5 940.167 1564.35 940.167C1574.48 940.167 1582.68 948.375 1582.68 958.5 1582.68 968.625 1574.48 976.833 1564.35 976.833L1416.5 976.833C1406.37 976.833 1398.17 968.625 1398.17 958.5 1398.17 948.375 1406.37 940.167 1416.5 940.167ZM1546.02 903.5 1656.02 958.5 1546.02 1013.5Z" fill="#164F6C"/><path d="M1985.5 940.167 2136.01 940.167C2146.13 940.167 2154.34 948.375 2154.34 958.5 2154.34 968.625 2146.13 976.833 2136.01 976.833L1985.5 976.833C1975.37 976.833 1967.17 968.625 1967.17 958.5 1967.17 948.375 1975.37 940.167 1985.5 940.167ZM2117.68 903.5 2227.68 958.5 2117.68 1013.5Z" fill="#164F6C"/><path d="M2558.5 940.167 2791.51 940.167C2801.64 940.167 2809.84 948.375 2809.84 958.5 2809.84 968.625 2801.64 976.833 2791.51 976.833L2558.5 976.833C2548.37 976.833 2540.17 968.625 2540.17 958.5 2540.17 948.375 2548.37 940.167 2558.5 940.167ZM2773.18 903.5 2883.18 958.5 2773.18 1013.5Z" fill="#164F6C"/><path d="M1010.5 940.167 1169 940.167C1179.12 940.167 1187.33 948.375 1187.33 958.5 1187.33 968.625 1179.12 976.833 1168.99 976.833L1010.5 976.833C1000.37 976.833 992.167 968.625 992.167 958.5 992.167 948.375 1000.37 940.167 1010.5 940.167ZM1150.66 903.5 1260.66 958.5 1150.66 1013.5Z" fill="#164F6C"/><path d="M0 18.3333-114.427 18.3333-96.0939 0-96.0939 316.693-114.427 298.359 1219.65 298.359 1201.31 316.693 1201.31 169.619C1201.31 159.494 1209.52 151.286 1219.65 151.286 1229.77 151.286 1237.98 159.494 1237.98 169.619L1237.98 316.693C1237.98 326.818 1229.77 335.026 1219.65 335.026L-114.427 335.026C-124.552 335.026-132.761 326.818-132.761 316.693L-132.761 0C-132.761-10.1252-124.552-18.3333-114.427-18.3333L0-18.3333C10.1252-18.3333 18.3333-10.1252 18.3333 0 18.3333 10.1252 10.1252 18.3333 0 18.3333ZM1164.65 187.953 1219.65 77.9528 1274.65 187.953Z" fill="#164F6C" transform="matrix(-1 0 0 1 2558.15 958.5)"/><path d="M1416 1065 1454.98 1065" stroke="#164F6C" stroke-width="27.5" stroke-linecap="round" stroke-miterlimit="8" fill="none" fill-rule="evenodd"/><path d="M2411.83 574.5 2411.83 701.946C2411.83 712.071 2403.63 720.279 2393.5 720.279 2383.38 720.279 2375.17 712.071 2375.17 701.946L2375.17 574.5C2375.17 564.375 2383.37 556.167 2393.5 556.167 2403.63 556.167 2411.83 564.375 2411.83 574.5ZM2448.5 683.613 2393.5 793.613 2338.5 683.613Z" fill="#164F6C"/></g></svg>