<svg width="4216" height="1689" xmlns="http://www.w3.org/2000/svg" xmlns:xlink="http://www.w3.org/1999/xlink" xml:space="preserve" overflow="hidden"><g transform="translate(-89 -403)"><path d="M93.5 1046.5 1509 1046.5 1710.5 1248 1509 1449.5 93.5 1449.5Z" stroke="#FFFFFF" stroke-width="9.16667" stroke-linejoin="round" stroke-miterlimit="10" fill="#006F7F" fill-rule="evenodd"/><text fill="#FFFFFF" font-family="Calibri,Calibri_MSFontService,sans-serif" font-weight="400" font-size="110" transform="matrix(1 0 0 1 734.925 1278)">Daten</text><path d="M1387.5 1046.5 2803 1046.5 3004.5 1248 2803 1449.5 1387.5 1449.5 1589 1248Z" stroke="#FFFFFF" stroke-width="9.16667" stroke-miterlimit="8" fill="#006F7F" fill-rule="evenodd"/><text fill="#FFFFFF" font-family="Calibri,Calibri_MSFontService,sans-serif" font-weight="400" font-size="110" transform="matrix(1 0 0 1 1942.31 1278)">Information</text><path d="M2681.5 1046.5 4097 1046.5 4298.5 1248 4097 1449.5 2681.5 1449.5 2883 1248Z" stroke="#FFFFFF" stroke-width="9.16667" stroke-miterlimit="8" fill="#006F7F" fill-rule="evenodd"/><text fill="#FFFFFF" font-family="Calibri,Calibri_MSFontService,sans-serif" font-weight="400" font-size="110" transform="matrix(1 0 0 1 3340.43 1278)">Wissen</text><path d="M2109 1497 2180.3 1588 2134.8 1588C2059.83 1758.41 1787.84 1872.93 1488.75 1860.02 1754.02 1848.57 1977.31 1739.14 2043.8 1588L1998.31 1588Z" fill="#2E445B" fill-rule="evenodd"/><path d="M1443.25 1861C1100.7 1861 823 1698.03 823 1497L914 1497C914 1698.03 1191.7 1861 1534.25 1861Z" fill="#253749" fill-rule="evenodd"/><text font-family="Calibri,Calibri_MSFontService,sans-serif" font-weight="400" font-size="83" transform="matrix(1 0 0 1 666.759 1991)">Daten werden eine Bedeutung gegeben (Kontext)</text><text font-family="Calibri,Calibri_MSFontService,sans-serif" font-weight="400" font-size="83" transform="matrix(1 0 0 1 1862.17 536)">Daten werden im Kontext der Erfahrung interpretiert</text><path d="M1286 0 1357.3 91.0007 1311.8 91.0007C1236.83 261.411 964.841 375.932 665.751 363.021 931.015 351.57 1154.31 242.138 1220.8 91.0007L1175.31 91.0007Z" fill="#2E445B" fill-rule="evenodd" transform="matrix(1 0 0 -1 2122 996)"/><path d="M620.249 364.001C277.695 364.001 0 201.032 0 4.38278e-14L91.0004 0C91.0004 201.032 368.695 364.001 711.25 364.001Z" fill="#253749" fill-rule="evenodd" transform="matrix(1 0 0 -1 2122 996)"/></g></svg>