<svg width="3949" height="979" xmlns="http://www.w3.org/2000/svg" xmlns:xlink="http://www.w3.org/1999/xlink" xml:space="preserve" overflow="hidden"><defs><clipPath id="clip0"><rect x="250" y="901" width="3949" height="979"/></clipPath><clipPath id="clip1"><rect x="252" y="630" width="569" height="694"/></clipPath></defs><g clip-path="url(#clip0)" transform="translate(-250 -901)"><path d="M252.421 911.372 820.113 911.372 820.113 1045.21 252.421 1045.21Z" fill="#006F7F" fill-rule="evenodd"/><path d="M820.113 911.372 1177.15 911.372 1177.15 1045.21 820.113 1045.21Z" fill="#006F7F" fill-rule="evenodd"/><path d="M1177.15 911.372 1573.34 911.372 1573.34 1045.21 1177.15 1045.21Z" fill="#006F7F" fill-rule="evenodd"/><path d="M1573.34 911.372 1870.8 911.372 1870.8 1045.21 1573.34 1045.21Z" fill="#006F7F" fill-rule="evenodd"/><path d="M1870.8 911.372 2416.56 911.372 2416.56 1045.21 1870.8 1045.21Z" fill="#006F7F" fill-rule="evenodd"/><path d="M2416.56 911.372 2739.84 911.372 2739.84 1045.21 2416.56 1045.21Z" fill="#006F7F" fill-rule="evenodd"/><path d="M2739.84 911.372 3712.17 911.372 3712.17 1045.21 2739.84 1045.21Z" fill="#006F7F" fill-rule="evenodd"/><path d="M3712.17 911.372 4188.96 911.372 4188.96 1045.21 3712.17 1045.21Z" fill="#006F7F" fill-rule="evenodd"/><path d="M252.421 1045.21 820.113 1045.21 820.113 1179.04 252.421 1179.04Z" fill="#CBD5D8" fill-rule="evenodd"/><path d="M820.113 1045.21 1177.15 1045.21 1177.15 1179.04 820.113 1179.04Z" fill="#CBD5D8" fill-rule="evenodd"/><path d="M1177.15 1045.21 1573.34 1045.21 1573.34 1179.04 1177.15 1179.04Z" fill="#CBD5D8" fill-rule="evenodd"/><path d="M1573.34 1045.21 1870.8 1045.21 1870.8 1179.04 1573.34 1179.04Z" fill="#CBD5D8" fill-rule="evenodd"/><path d="M1870.8 1045.21 2416.56 1045.21 2416.56 1179.04 1870.8 1179.04Z" fill="#CBD5D8" fill-rule="evenodd"/><path d="M2416.56 1045.21 2739.84 1045.21 2739.84 1179.04 2416.56 1179.04Z" fill="#CBD5D8" fill-rule="evenodd"/><path d="M2739.84 1045.21 3712.17 1045.21 3712.17 1179.04 2739.84 1179.04Z" fill="#CBD5D8" fill-rule="evenodd"/><path d="M3712.17 1045.21 4188.96 1045.21 4188.96 1179.04 3712.17 1179.04Z" fill="#CBD5D8" fill-rule="evenodd"/><path d="M252.421 1179.04 820.113 1179.04 820.113 1312.87 252.421 1312.87Z" fill="#E7EBEC" fill-rule="evenodd"/><path d="M820.113 1179.04 1177.15 1179.04 1177.15 1312.87 820.113 1312.87Z" fill="#E7EBEC" fill-rule="evenodd"/><path d="M1177.15 1179.04 1573.34 1179.04 1573.34 1312.87 1177.15 1312.87Z" fill="#E7EBEC" fill-rule="evenodd"/><path d="M1573.34 1179.04 1870.8 1179.04 1870.8 1312.87 1573.34 1312.87Z" fill="#E7EBEC" fill-rule="evenodd"/><path d="M1870.8 1179.04 2416.56 1179.04 2416.56 1312.87 1870.8 1312.87Z" fill="#E7EBEC" fill-rule="evenodd"/><path d="M2416.56 1179.04 2739.84 1179.04 2739.84 1312.87 2416.56 1312.87Z" fill="#E7EBEC" fill-rule="evenodd"/><path d="M2739.84 1179.04 3712.17 1179.04 3712.17 1312.87 2739.84 1312.87Z" fill="#E7EBEC" fill-rule="evenodd"/><path d="M3712.17 1179.04 4188.96 1179.04 4188.96 1312.87 3712.17 1312.87Z" fill="#E7EBEC" fill-rule="evenodd"/><path d="M252.421 1312.87 820.113 1312.87 820.113 1446.71 252.421 1446.71Z" fill="#CBD5D8" fill-rule="evenodd"/><path d="M820.113 1312.87 1177.15 1312.87 1177.15 1446.71 820.113 1446.71Z" fill="#CBD5D8" fill-rule="evenodd"/><path d="M1177.15 1312.87 1573.34 1312.87 1573.34 1446.71 1177.15 1446.71Z" fill="#CBD5D8" fill-rule="evenodd"/><path d="M1573.34 1312.87 1870.8 1312.87 1870.8 1446.71 1573.34 1446.71Z" fill="#CBD5D8" fill-rule="evenodd"/><path d="M1870.8 1312.87 2416.56 1312.87 2416.56 1446.71 1870.8 1446.71Z" fill="#CBD5D8" fill-rule="evenodd"/><path d="M2416.56 1312.87 2739.84 1312.87 2739.84 1446.71 2416.56 1446.71Z" fill="#CBD5D8" fill-rule="evenodd"/><path d="M2739.84 1312.87 3712.17 1312.87 3712.17 1446.71 2739.84 1446.71Z" fill="#CBD5D8" fill-rule="evenodd"/><path d="M3712.17 1312.87 4188.96 1312.87 4188.96 1446.71 3712.17 1446.71Z" fill="#CBD5D8" fill-rule="evenodd"/><path d="M252.421 1446.71 820.113 1446.71 820.113 1580.54 252.421 1580.54Z" fill="#E7EBEC" fill-rule="evenodd"/><path d="M820.113 1446.71 1177.15 1446.71 1177.15 1580.54 820.113 1580.54Z" fill="#E7EBEC" fill-rule="evenodd"/><path d="M1177.15 1446.71 1573.34 1446.71 1573.34 1580.54 1177.15 1580.54Z" fill="#E7EBEC" fill-rule="evenodd"/><path d="M1573.34 1446.71 1870.8 1446.71 1870.8 1580.54 1573.34 1580.54Z" fill="#E7EBEC" fill-rule="evenodd"/><path d="M1870.8 1446.71 2416.56 1446.71 2416.56 1580.54 1870.8 1580.54Z" fill="#E7EBEC" fill-rule="evenodd"/><path d="M2416.56 1446.71 2739.84 1446.71 2739.84 1580.54 2416.56 1580.54Z" fill="#E7EBEC" fill-rule="evenodd"/><path d="M2739.84 1446.71 3712.17 1446.71 3712.17 1580.54 2739.84 1580.54Z" fill="#E7EBEC" fill-rule="evenodd"/><path d="M3712.17 1446.71 4188.96 1446.71 4188.96 1580.54 3712.17 1580.54Z" fill="#E7EBEC" fill-rule="evenodd"/><path d="M252.421 1580.54 820.113 1580.54 820.113 1714.37 252.421 1714.37Z" fill="#CBD5D8" fill-rule="evenodd"/><path d="M820.113 1580.54 1177.15 1580.54 1177.15 1714.37 820.113 1714.37Z" fill="#CBD5D8" fill-rule="evenodd"/><path d="M1177.15 1580.54 1573.34 1580.54 1573.34 1714.37 1177.15 1714.37Z" fill="#CBD5D8" fill-rule="evenodd"/><path d="M1573.34 1580.54 1870.8 1580.54 1870.8 1714.37 1573.34 1714.37Z" fill="#CBD5D8" fill-rule="evenodd"/><path d="M1870.8 1580.54 2416.56 1580.54 2416.56 1714.37 1870.8 1714.37Z" fill="#CBD5D8" fill-rule="evenodd"/><path d="M2416.56 1580.54 2739.84 1580.54 2739.84 1714.37 2416.56 1714.37Z" fill="#CBD5D8" fill-rule="evenodd"/><path d="M2739.84 1580.54 3712.17 1580.54 3712.17 1714.37 2739.84 1714.37Z" fill="#CBD5D8" fill-rule="evenodd"/><path d="M3712.17 1580.54 4188.96 1580.54 4188.96 1714.37 3712.17 1714.37Z" fill="#CBD5D8" fill-rule="evenodd"/><path d="M252.421 1714.37 820.113 1714.37 820.113 1848.21 252.421 1848.21Z" fill="#E7EBEC" fill-rule="evenodd"/><path d="M820.113 1714.37 1177.15 1714.37 1177.15 1848.21 820.113 1848.21Z" fill="#E7EBEC" fill-rule="evenodd"/><path d="M1177.15 1714.37 1573.34 1714.37 1573.34 1848.21 1177.15 1848.21Z" fill="#E7EBEC" fill-rule="evenodd"/><path d="M1573.34 1714.37 1870.8 1714.37 1870.8 1848.21 1573.34 1848.21Z" fill="#E7EBEC" fill-rule="evenodd"/><path d="M1870.8 1714.37 2416.56 1714.37 2416.56 1848.21 1870.8 1848.21Z" fill="#E7EBEC" fill-rule="evenodd"/><path d="M2416.56 1714.37 2739.84 1714.37 2739.84 1848.21 2416.56 1848.21Z" fill="#E7EBEC" fill-rule="evenodd"/><path d="M2739.84 1714.37 3712.17 1714.37 3712.17 1848.21 2739.84 1848.21Z" fill="#E7EBEC" fill-rule="evenodd"/><path d="M3712.17 1714.37 4188.96 1714.37 4188.96 1848.21 3712.17 1848.21Z" fill="#E7EBEC" fill-rule="evenodd"/><path d="M820.113 909.081 820.113 1850.5" stroke="#FFFFFF" stroke-width="4.58333" stroke-linejoin="round" stroke-miterlimit="10" fill="none" fill-rule="evenodd"/><path d="M1177.15 909.081 1177.15 1850.5" stroke="#FFFFFF" stroke-width="4.58333" stroke-linejoin="round" stroke-miterlimit="10" fill="none" fill-rule="evenodd"/><path d="M1573.34 909.081 1573.34 1850.5" stroke="#FFFFFF" stroke-width="4.58333" stroke-linejoin="round" stroke-miterlimit="10" fill="none" fill-rule="evenodd"/><path d="M1870.8 909.081 1870.8 1850.5" stroke="#FFFFFF" stroke-width="4.58333" stroke-linejoin="round" stroke-miterlimit="10" fill="none" fill-rule="evenodd"/><path d="M2416.56 909.081 2416.56 1850.5" stroke="#FFFFFF" stroke-width="4.58333" stroke-linejoin="round" stroke-miterlimit="10" fill="none" fill-rule="evenodd"/><path d="M2739.84 909.081 2739.84 1850.5" stroke="#FFFFFF" stroke-width="4.58333" stroke-linejoin="round" stroke-miterlimit="10" fill="none" fill-rule="evenodd"/><path d="M3712.17 909.081 3712.17 1850.5" stroke="#FFFFFF" stroke-width="4.58333" stroke-linejoin="round" stroke-miterlimit="10" fill="none" fill-rule="evenodd"/><path d="M250.129 1045.21 4191.25 1045.21" stroke="#FFFFFF" stroke-width="13.75" stroke-linejoin="round" stroke-miterlimit="10" fill="none" fill-rule="evenodd"/><path d="M250.129 1179.04 4191.25 1179.04" stroke="#FFFFFF" stroke-width="4.58333" stroke-linejoin="round" stroke-miterlimit="10" fill="none" fill-rule="evenodd"/><path d="M250.129 1312.87 4191.25 1312.87" stroke="#FFFFFF" stroke-width="4.58333" stroke-linejoin="round" stroke-miterlimit="10" fill="none" fill-rule="evenodd"/><path d="M250.129 1446.71 4191.25 1446.71" stroke="#FFFFFF" stroke-width="4.58333" stroke-linejoin="round" stroke-miterlimit="10" fill="none" fill-rule="evenodd"/><path d="M250.129 1580.54 4191.25 1580.54" stroke="#FFFFFF" stroke-width="4.58333" stroke-linejoin="round" stroke-miterlimit="10" fill="none" fill-rule="evenodd"/><path d="M250.129 1714.37 4191.25 1714.37" stroke="#FFFFFF" stroke-width="4.58333" stroke-linejoin="round" stroke-miterlimit="10" fill="none" fill-rule="evenodd"/><path d="M252.421 909.081 252.421 1850.5" stroke="#FFFFFF" stroke-width="4.58333" stroke-linejoin="round" stroke-miterlimit="10" fill="none" fill-rule="evenodd"/><path d="M4188.96 909.081 4188.96 1850.5" stroke="#FFFFFF" stroke-width="4.58333" stroke-linejoin="round" stroke-miterlimit="10" fill="none" fill-rule="evenodd"/><path d="M250.129 911.372 4191.25 911.372" stroke="#FFFFFF" stroke-width="4.58333" stroke-linejoin="round" stroke-miterlimit="10" fill="none" fill-rule="evenodd"/><path d="M250.129 1848.21 4191.25 1848.21" stroke="#FFFFFF" stroke-width="4.58333" stroke-linejoin="round" stroke-miterlimit="10" fill="none" fill-rule="evenodd"/><g><text fill="#FFFFFF" font-family="Calibri,Calibri_MSFontService,sans-serif" font-weight="700" font-size="83" transform="matrix(1 0 0 1 3745.17 1005)">Note</text></g><g><text fill="#FFFFFF" font-family="Calibri,Calibri_MSFontService,sans-serif" font-weight="700" font-size="83" transform="matrix(1 0 0 1 2772.84 1005)">Beschreibung</text></g><g><text fill="#FFFFFF" font-family="Calibri,Calibri_MSFontService,sans-serif" font-weight="700" font-size="83" transform="matrix(1 0 0 1 2449.56 1005)">FachNr</text></g><g><text fill="#FFFFFF" font-family="Calibri,Calibri_MSFontService,sans-serif" font-weight="700" font-size="83" transform="matrix(1 0 0 1 1903.8 1005)">Klassenlehrer</text></g><g><text fill="#FFFFFF" font-family="Calibri,Calibri_MSFontService,sans-serif" font-weight="700" font-size="83" transform="matrix(1 0 0 1 1606.34 1005)">Klasse</text></g><g><text fill="#FFFFFF" font-family="Calibri,Calibri_MSFontService,sans-serif" font-weight="700" font-size="83" transform="matrix(1 0 0 1 1210.15 1005)">Vorname</text></g><g><text fill="#FFFFFF" font-family="Calibri,Calibri_MSFontService,sans-serif" font-weight="700" font-size="83" transform="matrix(1 0 0 1 853.113 1005)">Name</text></g><g clip-path="url(#clip1)"><path d="" fill="#FFFFFF" transform="matrix(1 0 0 1 285.421 1006)"/><path d="M80.2847 17.4673 80.2847 8.71338 71.5308 8.71338 71.5308 0 62.8174 0 62.8174-8.75391 57.9237-8.75391 48.1465-18.6426C45.8073-17.8861 43.2-17.5078 40.3247-17.5078 36.177-17.5078 32.2899-18.2928 28.6636-19.8628 25.0372-21.4328 21.8677-23.5673 19.1549-26.2661 16.4421-28.965 14.3006-32.1279 12.7303-35.7549 11.1601-39.3819 10.375-43.2693 10.375-47.417 10.375-50.1745 10.729-52.8304 11.4369-55.3847 12.1449-57.939 13.1503-60.3248 14.4531-62.5422 15.7558-64.7596 17.3163-66.7773 19.1343-68.5954 20.9523-70.4134 22.97-71.9737 25.1874-73.2763 27.4048-74.5788 29.7981-75.5862 32.3674-76.2984 34.9367-77.0106 37.5891-77.3667 40.3247-77.3667 43.0611-77.3667 45.7103-77.0027 48.2722-76.2747 50.8341-75.5467 53.2251-74.5374 55.4452-73.2468 57.6653-71.9563 59.6851-70.3944 61.5044-68.5612 63.3237-66.7279 64.8843-64.7101 66.1862-62.5077 67.4882-60.3053 68.495-57.9201 69.2068-55.3521 69.9185-52.7841 70.2744-50.1391 70.2744-47.417 70.2744-44.5733 69.8961-41.9601 69.1396-39.5775L105.25-3.55944 105.25 17.4673Z" transform="matrix(1 0 0 1 285.421 1006)"/><path d="M62.4121-38.0229C68.4579-32.1021 74.5473-26.0684 80.6804-19.9217 86.8136-13.7751 93.0579-7.51001 99.4136-1.12653L99.4136 5.83594 96.4551 5.39014 99.4136 11.6313 86.1206 11.6313 86.1206 2.87744 77.3667 2.87744 77.3667-5.83594 68.6128-5.83594 68.6128-14.5898 60.356-14.5898 49.7144-25.3701C48.5112-24.6925 47.0761-24.1787 45.409-23.8285 43.7419-23.4783 42.0471-23.3032 40.3247-23.3032 36.9871-23.3032 33.8562-23.9398 30.9319-25.2131 28.0076-26.4863 25.4596-28.2087 23.288-30.3803 21.1164-32.5519 19.394-35.0999 18.1208-38.0245 16.8476-40.949 16.2109-44.0798 16.2109-47.417 16.2109-50.7449 16.8404-53.8776 18.0993-56.8152 19.3581-59.7528 21.0741-62.3081 23.2472-64.4812 25.4202-66.6543 27.9806-68.3725 30.9284-69.6358 33.8761-70.8991 37.0082-71.5308 40.3247-71.5308 43.6175-71.5308 46.7414-70.8905 49.6963-69.6101 52.6512-68.3297 55.2155-66.6027 57.3892-64.429 59.5629-62.2553 61.288-59.6957 62.5644-56.7503 63.8408-53.8049 64.479-50.6938 64.479-47.417 64.479-45.7317 64.2957-44.05 63.929-42.372 63.5624-40.6939 63.0567-39.2442 62.4121-38.0229ZM34.4888-48.2275C35.1942-48.2275 35.8431-48.3585 36.4353-48.6205 37.0276-48.8824 37.5558-49.2454 38.0197-49.7093 38.4837-50.1733 38.8487-50.7061 39.1149-51.3079 39.3811-51.9097 39.5142-52.558 39.5142-53.2529 39.5142-53.9394 39.3811-54.5835 39.1149-55.1853 38.8487-55.787 38.4837-56.3199 38.0197-56.7839 37.5558-57.2478 37.0229-57.6129 36.4211-57.8791 35.8193-58.1452 35.1752-58.2783 34.4888-58.2783 33.8044-58.2783 33.1652-58.1469 32.571-57.8841 31.9768-57.6213 31.4485-57.2587 30.986-56.7962 30.5235-56.3337 30.1609-55.8054 29.8981-55.2112 29.6353-54.617 29.5039-53.9643 29.5039-53.2529 29.5039-52.5331 29.6353-51.8762 29.8981-51.282 30.1609-50.6878 30.5235-50.1594 30.986-49.697 31.4485-49.2345 31.972-48.874 32.5564-48.6154 33.1409-48.3568 33.785-48.2275 34.4888-48.2275Z" fill="#EBA300" transform="matrix(1 0 0 1 285.421 1006)"/><path d="M59.3536-34.9346 99.4136 4.66761 99.4136 11.6313 55.9683-30.9566C57.0549-32.2754 58.1833-33.6014 59.3536-34.9346Z" fill="#D48C00" transform="matrix(1 0 0 1 285.421 1006)"/><path d="M34.4888-46.6064C33.5541-46.6064 32.6852-46.7841 31.882-47.1393 31.0789-47.4946 30.3824-47.9671 29.7927-48.5568 29.2029-49.1466 28.7304-49.843 28.3752-50.6462 28.0199-51.4494 27.8423-52.3183 27.8423-53.2529 27.8423-54.1791 28.0199-55.0438 28.3752-55.847 28.7304-56.6502 29.2029-57.3466 29.7927-57.9364 30.3824-58.5261 31.0836-59.0007 31.8963-59.3602 32.7089-59.7197 33.5731-59.8994 34.4888-59.8994 35.4065-59.8994 36.2756-59.718 37.0958-59.3551 37.9161-58.9923 38.6218-58.5153 39.2131-57.924 39.8043-57.3328 40.2792-56.6318 40.6378-55.821 40.9965-55.0103 41.1758-54.1542 41.1758-53.2529 41.1758-52.3432 40.9965-51.4829 40.6378-50.6722 40.2792-49.8614 39.8043-49.1604 39.2131-48.5692 38.6218-47.9779 37.9208-47.503 37.1101-47.1444 36.2993-46.7858 35.4255-46.6064 34.4888-46.6064Z" transform="matrix(1 0 0 1 285.421 1006)"/><text fill="#000000" fill-opacity="0" font-family="Arial,Arial_MSFontService,sans-serif" font-size="13.293" x="27.8423" y="-48.2681">🔑</text></g><text fill="#FFFFFF" font-family="Calibri,Calibri_MSFontService,sans-serif" font-weight="700" font-size="83" transform="matrix(1 0 0 1 415.473 1006)">S</text><text fill="#FFFFFF" font-family="Calibri,Calibri_MSFontService,sans-serif" font-weight="700" font-size="83" transform="matrix(1 0 0 1 454.432 1006)">tudentNr</text><g><text font-family="Calibri,Calibri_MSFontService,sans-serif" font-weight="400" font-size="83" transform="matrix(1 0 0 1 3745.17 1139)">5.5</text></g><g><text font-family="Calibri,Calibri_MSFontService,sans-serif" font-weight="400" font-size="83" transform="matrix(1 0 0 1 2772.84 1139)">Englisch</text></g><g><text font-family="Calibri,Calibri_MSFontService,sans-serif" font-weight="400" font-size="83" transform="matrix(1 0 0 1 2449.56 1139)">2</text></g><g><text font-family="Calibri,Calibri_MSFontService,sans-serif" font-weight="400" font-size="83" transform="matrix(1 0 0 1 1903.8 1139)">Lempel</text></g><g><text font-family="Calibri,Calibri_MSFontService,sans-serif" font-weight="400" font-size="83" transform="matrix(1 0 0 1 1606.34 1139)">11a</text></g><g><text font-family="Calibri,Calibri_MSFontService,sans-serif" font-weight="400" font-size="83" transform="matrix(1 0 0 1 1210.15 1139)">Ina</text></g><g><text font-family="Calibri,Calibri_MSFontService,sans-serif" font-weight="400" font-size="83" transform="matrix(1 0 0 1 853.113 1139)">Jürgens</text></g><g><text font-family="Calibri,Calibri_MSFontService,sans-serif" font-weight="400" font-size="83" transform="matrix(1 0 0 1 285.421 1139)">1</text></g><g><text font-family="Calibri,Calibri_MSFontService,sans-serif" font-weight="400" font-size="83" transform="matrix(1 0 0 1 3745.17 1273)">5</text></g><g><text font-family="Calibri,Calibri_MSFontService,sans-serif" font-weight="400" font-size="83" transform="matrix(1 0 0 1 2772.84 1273)">Musik</text></g><g><text font-family="Calibri,Calibri_MSFontService,sans-serif" font-weight="400" font-size="83" transform="matrix(1 0 0 1 2449.56 1273)">3</text></g><g><text font-family="Calibri,Calibri_MSFontService,sans-serif" font-weight="400" font-size="83" transform="matrix(1 0 0 1 1903.8 1273)">Breier</text></g><g><text font-family="Calibri,Calibri_MSFontService,sans-serif" font-weight="400" font-size="83" transform="matrix(1 0 0 1 1606.34 1273)">12a</text></g><g><text font-family="Calibri,Calibri_MSFontService,sans-serif" font-weight="400" font-size="83" transform="matrix(1 0 0 1 1210.15 1273)">Tom</text></g><g><text font-family="Calibri,Calibri_MSFontService,sans-serif" font-weight="400" font-size="83" transform="matrix(1 0 0 1 853.113 1273)">Schmidt</text></g><g><text font-family="Calibri,Calibri_MSFontService,sans-serif" font-weight="400" font-size="83" transform="matrix(1 0 0 1 285.421 1273)">2</text></g><g><text font-family="Calibri,Calibri_MSFontService,sans-serif" font-weight="400" font-size="83" transform="matrix(1 0 0 1 3745.17 1406)">5.5</text></g><text font-family="Calibri,Calibri_MSFontService,sans-serif" font-weight="400" font-size="83" transform="matrix(1 0 0 1 3849.44 1406)">, </text><text font-family="Calibri,Calibri_MSFontService,sans-serif" font-weight="400" font-size="83" transform="matrix(1 0 0 1 3888.98 1406)">4.5</text><text font-family="Calibri,Calibri_MSFontService,sans-serif" font-weight="400" font-size="83" transform="matrix(1 0 0 1 3993.25 1406)">,</text><text font-family="Calibri,Calibri_MSFontService,sans-serif" font-weight="400" font-size="83" transform="matrix(1 0 0 1 4032.78 1406)">4.5</text><g><text font-family="Calibri,Calibri_MSFontService,sans-serif" font-weight="400" font-size="83" transform="matrix(1 0 0 1 2772.84 1406)">Elektronik, </text></g><text font-family="Calibri,Calibri_MSFontService,sans-serif" font-weight="400" font-size="83" transform="matrix(1 0 0 1 3147.51 1406)">Englisch</text><text font-family="Calibri,Calibri_MSFontService,sans-serif" font-weight="400" font-size="83" transform="matrix(1 0 0 1 3418.5 1406)">, </text><text font-family="Calibri,Calibri_MSFontService,sans-serif" font-weight="400" font-size="83" transform="matrix(1 0 0 1 3458.03 1406)">Musik</text><g><text font-family="Calibri,Calibri_MSFontService,sans-serif" font-weight="400" font-size="83" transform="matrix(1 0 0 1 2449.56 1406)">1, </text></g><text font-family="Calibri,Calibri_MSFontService,sans-serif" font-weight="400" font-size="83" transform="matrix(1 0 0 1 2530.91 1406)">2</text><text font-family="Calibri,Calibri_MSFontService,sans-serif" font-weight="400" font-size="83" transform="matrix(1 0 0 1 2572.73 1406)">, </text><text font-family="Calibri,Calibri_MSFontService,sans-serif" font-weight="400" font-size="83" transform="matrix(1 0 0 1 2612.26 1406)">3</text><g><text font-family="Calibri,Calibri_MSFontService,sans-serif" font-weight="400" font-size="83" transform="matrix(1 0 0 1 1903.8 1406)">Lempel</text></g><g><text font-family="Calibri,Calibri_MSFontService,sans-serif" font-weight="400" font-size="83" transform="matrix(1 0 0 1 1606.34 1406)">11a</text></g><g><text font-family="Calibri,Calibri_MSFontService,sans-serif" font-weight="400" font-size="83" transform="matrix(1 0 0 1 1210.15 1406)">Franz</text></g><g><text font-family="Calibri,Calibri_MSFontService,sans-serif" font-weight="400" font-size="83" transform="matrix(1 0 0 1 853.113 1406)">Jäger</text></g><g><text font-family="Calibri,Calibri_MSFontService,sans-serif" font-weight="400" font-size="83" transform="matrix(1 0 0 1 285.421 1406)">3</text></g><g><text font-family="Calibri,Calibri_MSFontService,sans-serif" font-weight="400" font-size="83" transform="matrix(1 0 0 1 3745.17 1540)">5</text></g><g><text font-family="Calibri,Calibri_MSFontService,sans-serif" font-weight="400" font-size="83" transform="matrix(1 0 0 1 2772.84 1540)">Englisch</text></g><g><text font-family="Calibri,Calibri_MSFontService,sans-serif" font-weight="400" font-size="83" transform="matrix(1 0 0 1 2449.56 1540)">2</text></g><g><text font-family="Calibri,Calibri_MSFontService,sans-serif" font-weight="400" font-size="83" transform="matrix(1 0 0 1 1903.8 1540)">Sommer</text></g><g><text font-family="Calibri,Calibri_MSFontService,sans-serif" font-weight="400" font-size="83" transform="matrix(1 0 0 1 1606.34 1540)">11b</text></g><g><text font-family="Calibri,Calibri_MSFontService,sans-serif" font-weight="400" font-size="83" transform="matrix(1 0 0 1 1210.15 1540)">Ina</text></g><g><text font-family="Calibri,Calibri_MSFontService,sans-serif" font-weight="400" font-size="83" transform="matrix(1 0 0 1 853.113 1540)">Olsen</text></g><g><text font-family="Calibri,Calibri_MSFontService,sans-serif" font-weight="400" font-size="83" transform="matrix(1 0 0 1 285.421 1540)">4</text></g><g><text font-family="Calibri,Calibri_MSFontService,sans-serif" font-weight="400" font-size="83" transform="matrix(1 0 0 1 3745.17 1674)">5, 4</text></g><g><text font-family="Calibri,Calibri_MSFontService,sans-serif" font-weight="400" font-size="83" transform="matrix(1 0 0 1 2772.84 1674)">Elektronik</text></g><text font-family="Calibri,Calibri_MSFontService,sans-serif" font-weight="400" font-size="83" transform="matrix(1 0 0 1 3107.98 1674)">, Englisch</text><g><text font-family="Calibri,Calibri_MSFontService,sans-serif" font-weight="400" font-size="83" transform="matrix(1 0 0 1 2449.56 1674)">1</text></g><text font-family="Calibri,Calibri_MSFontService,sans-serif" font-weight="400" font-size="83" transform="matrix(1 0 0 1 2491.38 1674)">, 2</text><g><text font-family="Calibri,Calibri_MSFontService,sans-serif" font-weight="400" font-size="83" transform="matrix(1 0 0 1 1903.8 1674)">Breier</text></g><g><text font-family="Calibri,Calibri_MSFontService,sans-serif" font-weight="400" font-size="83" transform="matrix(1 0 0 1 1606.34 1674)">12a</text></g><g><text font-family="Calibri,Calibri_MSFontService,sans-serif" font-weight="400" font-size="83" transform="matrix(1 0 0 1 1210.15 1674)">Paula</text></g><g><text font-family="Calibri,Calibri_MSFontService,sans-serif" font-weight="400" font-size="83" transform="matrix(1 0 0 1 853.113 1674)">Jürgens</text></g><g><text font-family="Calibri,Calibri_MSFontService,sans-serif" font-weight="400" font-size="83" transform="matrix(1 0 0 1 285.421 1674)">5</text></g><g><text font-family="Calibri,Calibri_MSFontService,sans-serif" font-weight="400" font-size="83" transform="matrix(1 0 0 1 3745.17 1808)">…</text></g><g><text font-family="Calibri,Calibri_MSFontService,sans-serif" font-weight="400" font-size="83" transform="matrix(1 0 0 1 2772.84 1808)">…</text></g><g><text font-family="Calibri,Calibri_MSFontService,sans-serif" font-weight="400" font-size="83" transform="matrix(1 0 0 1 2449.56 1808)">…</text></g><g><text font-family="Calibri,Calibri_MSFontService,sans-serif" font-weight="400" font-size="83" transform="matrix(1 0 0 1 1903.8 1808)">…</text></g><g><text font-family="Calibri,Calibri_MSFontService,sans-serif" font-weight="400" font-size="83" transform="matrix(1 0 0 1 1606.34 1808)">…</text></g><g><text font-family="Calibri,Calibri_MSFontService,sans-serif" font-weight="400" font-size="83" transform="matrix(1 0 0 1 1210.15 1808)">…</text></g><g><text font-family="Calibri,Calibri_MSFontService,sans-serif" font-weight="400" font-size="83" transform="matrix(1 0 0 1 853.113 1808)">…</text></g><g><text font-family="Calibri,Calibri_MSFontService,sans-serif" font-weight="400" font-size="83" transform="matrix(1 0 0 1 285.421 1808)">…</text></g></g></svg>