<svg width="3550" height="1484" xmlns="http://www.w3.org/2000/svg" xmlns:xlink="http://www.w3.org/1999/xlink" xml:space="preserve" overflow="hidden"><g transform="translate(-265 -526)"><path d="M267.338 913.985 1171.13 913.985 1171.13 1047.82 267.338 1047.82Z" fill="#006F7F" fill-rule="evenodd"/><path d="M267.338 1047.82 521.455 1047.82 521.455 1181.65 267.338 1181.65Z" fill="#E7EBEC" fill-rule="evenodd"/><path d="M521.455 1047.82 1171.13 1047.82 1171.13 1181.65 521.455 1181.65Z" fill="#E7EBEC" fill-rule="evenodd"/><path d="M267.338 1181.65 521.455 1181.65 521.455 1315.49 267.338 1315.49Z" fill="#E7EBEC" fill-rule="evenodd"/><path d="M521.455 1181.65 1171.13 1181.65 1171.13 1315.49 521.455 1315.49Z" fill="#E7EBEC" fill-rule="evenodd"/><path d="M267.338 1315.49 521.455 1315.49 521.455 1449.32 267.338 1449.32Z" fill="#E7EBEC" fill-rule="evenodd"/><path d="M521.455 1315.49 1171.13 1315.49 1171.13 1449.32 521.455 1449.32Z" fill="#E7EBEC" fill-rule="evenodd"/><path d="M267.338 1449.32 521.455 1449.32 521.455 1583.15 267.338 1583.15Z" fill="#E7EBEC" fill-rule="evenodd"/><path d="M521.455 1449.32 1171.13 1449.32 1171.13 1583.15 521.455 1583.15Z" fill="#E7EBEC" fill-rule="evenodd"/><path d="M521.455 1040.94 521.455 1583.15" stroke="#000000" stroke-width="4.58333" stroke-linejoin="round" stroke-miterlimit="10" fill="none" fill-rule="evenodd"/><path d="M265.046 1047.82 1173.43 1047.82" stroke="#FFFFFF" stroke-width="13.75" stroke-linejoin="round" stroke-miterlimit="10" fill="none" fill-rule="evenodd"/><path d="M267.338 911.694 267.338 1181.65" stroke="#FFFFFF" stroke-width="4.58333" stroke-linejoin="round" stroke-miterlimit="10" fill="none" fill-rule="evenodd"/><path d="M1171.13 911.694 1171.13 1047.82" stroke="#FFFFFF" stroke-width="4.58333" stroke-linejoin="round" stroke-miterlimit="10" fill="none" fill-rule="evenodd"/><path d="M1171.13 1047.82 1171.13 1181.65" stroke="#FFFFFF" stroke-width="4.58333" stroke-linejoin="round" stroke-miterlimit="10" fill="none" fill-rule="evenodd"/><path d="M265.046 913.985 1173.43 913.985" stroke="#FFFFFF" stroke-width="4.58333" stroke-linejoin="round" stroke-miterlimit="10" fill="none" fill-rule="evenodd"/><text fill="#FFFFFF" font-family="Calibri,Calibri_MSFontService,sans-serif" font-weight="700" font-size="83" transform="matrix(1 0 0 1 593.194 1007)">Schüler</text><g><text font-family="Calibri,Calibri_MSFontService,sans-serif" font-weight="700" font-size="83" transform="matrix(1 0 0 1 554.455 1141)">StudentNr</text></g><text font-family="Calibri,Calibri_MSFontService,sans-serif" font-style="italic" font-weight="400" font-size="83" transform="matrix(1 0 0 1 351.714 1141)">PK</text><g><text font-family="Calibri,Calibri_MSFontService,sans-serif" font-weight="700" font-size="83" transform="matrix(1 0 0 1 554.455 1275)">Name</text></g><g><text font-family="Calibri,Calibri_MSFontService,sans-serif" font-weight="700" font-size="83" transform="matrix(1 0 0 1 554.455 1409)">Vorname</text></g><g><text font-family="Calibri,Calibri_MSFontService,sans-serif" font-weight="700" font-size="83" transform="matrix(1 0 0 1 554.455 1543)">Klasse</text></g><path d="M1602.3 992.662 2506.09 992.662 2506.09 1126.49 1602.3 1126.49Z" fill="#006F7F" fill-rule="evenodd"/><path d="M1602.3 1126.49 1856.41 1126.49 1856.41 1260.33 1602.3 1260.33Z" fill="#E7EBEC" fill-rule="evenodd"/><path d="M1856.41 1126.49 2506.09 1126.49 2506.09 1260.33 1856.41 1260.33Z" fill="#E7EBEC" fill-rule="evenodd"/><path d="M1602.3 1260.33 1856.41 1260.33 1856.41 1394.16 1602.3 1394.16Z" fill="#E7EBEC" fill-rule="evenodd"/><path d="M1856.41 1260.33 2506.09 1260.33 2506.09 1394.16 1856.41 1394.16Z" fill="#E7EBEC" fill-rule="evenodd"/><path d="M1856.41 1119.62 1856.41 1394.16" stroke="#000000" stroke-width="4.58333" stroke-linejoin="round" stroke-miterlimit="10" fill="none" fill-rule="evenodd"/><path d="M1600 1126.49 2508.38 1126.49" stroke="#FFFFFF" stroke-width="13.75" stroke-linejoin="round" stroke-miterlimit="10" fill="none" fill-rule="evenodd"/><path d="M1602.3 990.37 1602.3 1260.33" stroke="#FFFFFF" stroke-width="4.58333" stroke-linejoin="round" stroke-miterlimit="10" fill="none" fill-rule="evenodd"/><path d="M2506.09 990.37 2506.09 1126.49" stroke="#FFFFFF" stroke-width="4.58333" stroke-linejoin="round" stroke-miterlimit="10" fill="none" fill-rule="evenodd"/><path d="M2506.09 1126.49 2506.09 1260.33" stroke="#FFFFFF" stroke-width="4.58333" stroke-linejoin="round" stroke-miterlimit="10" fill="none" fill-rule="evenodd"/><path d="M1600 992.662 2508.38 992.662" stroke="#FFFFFF" stroke-width="4.58333" stroke-linejoin="round" stroke-miterlimit="10" fill="none" fill-rule="evenodd"/><text fill="#FFFFFF" font-family="Calibri,Calibri_MSFontService,sans-serif" font-weight="700" font-size="83" transform="matrix(1 0 0 1 1941.59 1086)">Fächer</text><g><text font-family="Calibri,Calibri_MSFontService,sans-serif" font-weight="700" font-size="83" transform="matrix(1 0 0 1 1889.41 1220)">FachNr</text></g><text font-family="Calibri,Calibri_MSFontService,sans-serif" font-style="italic" font-weight="400" font-size="83" transform="matrix(1 0 0 1 1686.67 1220)">PK</text><g><text font-family="Calibri,Calibri_MSFontService,sans-serif" font-weight="700" font-size="83" transform="matrix(1 0 0 1 1889.41 1354)">Beschreibung</text></g><path d="M2901.65 1578.67 3805.45 1578.67 3805.45 1710.67 2901.65 1710.67Z" fill="#006F7F" fill-rule="evenodd"/><path d="M2901.65 1710.67 3155.77 1710.67 3155.77 1844.5 2901.65 1844.5Z" fill="#E7EBEC" fill-rule="evenodd"/><path d="M3155.77 1710.67 3805.45 1710.67 3805.45 1844.5 3155.77 1844.5Z" fill="#E7EBEC" fill-rule="evenodd"/><path d="M2901.65 1844.5 3155.77 1844.5 3155.77 1978.33 2901.65 1978.33Z" fill="#E7EBEC" fill-rule="evenodd"/><path d="M3155.77 1844.5 3805.45 1844.5 3805.45 1978.33 3155.77 1978.33Z" fill="#E7EBEC" fill-rule="evenodd"/><path d="M3155.77 1703.79 3155.77 1978.33" stroke="#000000" stroke-width="4.58333" stroke-linejoin="round" stroke-miterlimit="10" fill="none" fill-rule="evenodd"/><path d="M2899.36 1710.67 3807.74 1710.67" stroke="#FFFFFF" stroke-width="13.75" stroke-linejoin="round" stroke-miterlimit="10" fill="none" fill-rule="evenodd"/><path d="M2901.65 1576.38 2901.65 1844.5" stroke="#FFFFFF" stroke-width="4.58333" stroke-linejoin="round" stroke-miterlimit="10" fill="none" fill-rule="evenodd"/><path d="M3805.45 1576.38 3805.45 1710.67" stroke="#FFFFFF" stroke-width="4.58333" stroke-linejoin="round" stroke-miterlimit="10" fill="none" fill-rule="evenodd"/><path d="M3805.45 1710.67 3805.45 1844.5" stroke="#FFFFFF" stroke-width="4.58333" stroke-linejoin="round" stroke-miterlimit="10" fill="none" fill-rule="evenodd"/><path d="M2899.36 1578.67 3807.74 1578.67" stroke="#FFFFFF" stroke-width="4.58333" stroke-linejoin="round" stroke-miterlimit="10" fill="none" fill-rule="evenodd"/><text fill="#FFFFFF" font-family="Calibri,Calibri_MSFontService,sans-serif" font-weight="700" font-size="83" transform="matrix(1 0 0 1 3225.22 1672)">Klassen</text><g><text font-family="Calibri,Calibri_MSFontService,sans-serif" font-weight="700" font-size="83" transform="matrix(1 0 0 1 3188.77 1804)">Klasse</text></g><text font-family="Calibri,Calibri_MSFontService,sans-serif" font-style="italic" font-weight="400" font-size="83" transform="matrix(1 0 0 1 2986.03 1804)">PK</text><g><text font-family="Calibri,Calibri_MSFontService,sans-serif" font-weight="700" font-size="83" transform="matrix(1 0 0 1 3188.77 1938)">Klassenlehrer</text></g><path d="M2901.65 534.417 3805.45 534.417 3805.45 668.25 2901.65 668.25Z" fill="#006F7F" fill-rule="evenodd"/><path d="M2901.65 668.25 3155.77 668.25 3155.77 802.083 2901.65 802.083Z" fill="#E7EBEC" fill-rule="evenodd"/><path d="M3155.77 668.25 3805.45 668.25 3805.45 802.083 3155.77 802.083Z" fill="#E7EBEC" fill-rule="evenodd"/><path d="M2901.65 802.083 3155.77 802.083 3155.77 935.917 2901.65 935.917Z" fill="#E7EBEC" fill-rule="evenodd"/><path d="M3155.77 802.083 3805.45 802.083 3805.45 935.917 3155.77 935.917Z" fill="#E7EBEC" fill-rule="evenodd"/><path d="M2901.65 935.917 3155.77 935.917 3155.77 1069.75 2901.65 1069.75Z" fill="#E7EBEC" fill-rule="evenodd"/><path d="M3155.77 935.917 3805.45 935.917 3805.45 1069.75 3155.77 1069.75Z" fill="#E7EBEC" fill-rule="evenodd"/><path d="M3155.77 661.375 3155.77 1069.75" stroke="#000000" stroke-width="4.58333" stroke-linejoin="round" stroke-miterlimit="10" fill="none" fill-rule="evenodd"/><path d="M2899.36 668.25 3807.74 668.25" stroke="#FFFFFF" stroke-width="13.75" stroke-linejoin="round" stroke-miterlimit="10" fill="none" fill-rule="evenodd"/><path d="M2901.65 532.125 2901.65 802.083" stroke="#FFFFFF" stroke-width="4.58333" stroke-linejoin="round" stroke-miterlimit="10" fill="none" fill-rule="evenodd"/><path d="M3805.45 532.125 3805.45 668.25" stroke="#FFFFFF" stroke-width="4.58333" stroke-linejoin="round" stroke-miterlimit="10" fill="none" fill-rule="evenodd"/><path d="M3805.45 668.25 3805.45 802.083" stroke="#FFFFFF" stroke-width="4.58333" stroke-linejoin="round" stroke-miterlimit="10" fill="none" fill-rule="evenodd"/><path d="M2899.36 534.417 3807.74 534.417" stroke="#FFFFFF" stroke-width="4.58333" stroke-linejoin="round" stroke-miterlimit="10" fill="none" fill-rule="evenodd"/><text fill="#FFFFFF" font-family="Calibri,Calibri_MSFontService,sans-serif" font-weight="700" font-size="83" transform="matrix(1 0 0 1 3247.78 628)">Noten</text><g><text font-family="Calibri,Calibri_MSFontService,sans-serif" font-weight="700" font-size="83" transform="matrix(1 0 0 1 3188.77 762)">StudentNr</text></g><text font-family="Calibri,Calibri_MSFontService,sans-serif" font-style="italic" font-weight="400" font-size="83" transform="matrix(1 0 0 1 2986.03 762)">PK</text><g><text font-family="Calibri,Calibri_MSFontService,sans-serif" font-weight="700" font-size="83" transform="matrix(1 0 0 1 3188.77 896)">FachNr</text></g><text font-family="Calibri,Calibri_MSFontService,sans-serif" font-style="italic" font-weight="400" font-size="83" transform="matrix(1 0 0 1 2986.03 896)">PK</text><g><text font-family="Calibri,Calibri_MSFontService,sans-serif" font-weight="700" font-size="83" transform="matrix(1 0 0 1 3188.77 1029)">Note</text></g><path d="M1171.5 1521.5 1493.64 1521.5 1493.64 1778.88 2902.02 1778.88" stroke="#2E445B" stroke-width="3.4375" stroke-linejoin="round" stroke-miterlimit="10" fill="none" fill-rule="evenodd"/><path d="M0 0 197.781 0 197.781 327.708 395.561 327.708" stroke="#2E445B" stroke-width="3.4375" stroke-linejoin="round" stroke-miterlimit="10" fill="none" fill-rule="evenodd" transform="matrix(1 0 0 -1 2506.5 1194.21)"/><path d="M0 0 322.137 0 322.137 363.82 1730.52 363.82" stroke="#2E445B" stroke-width="3.4375" stroke-linejoin="round" stroke-miterlimit="10" fill="none" fill-rule="evenodd" transform="matrix(1 0 0 -1 1171.5 1108.32)"/><path d="M2824.5 1727.5 2824.5 1831.45" stroke="#2E445B" stroke-width="3.4375" stroke-linejoin="round" stroke-miterlimit="10" fill="none" fill-rule="evenodd"/><path d="M2850.5 1727.5 2850.5 1831.45" stroke="#2E445B" stroke-width="3.4375" stroke-linejoin="round" stroke-miterlimit="10" fill="none" fill-rule="evenodd"/><path d="M1264.5 1468.5 1264.5 1572.45" stroke="#2E445B" stroke-width="3.4375" stroke-linejoin="round" stroke-miterlimit="10" fill="none" fill-rule="evenodd"/><path d="M0 0 67.3425 28.2258" stroke="#2E445B" stroke-width="3.4375" stroke-linejoin="round" stroke-miterlimit="10" fill="none" fill-rule="evenodd" transform="matrix(-1 0 0 1 1238.84 1521.5)"/><path d="M1238.84 1520.73 1171.5 1492.5" stroke="#2E445B" stroke-width="3.4375" stroke-linejoin="round" stroke-miterlimit="10" fill="none" fill-rule="evenodd"/><path d="M1238.5 1056.5 1238.5 1160.45" stroke="#2E445B" stroke-width="3.4375" stroke-linejoin="round" stroke-miterlimit="10" fill="none" fill-rule="evenodd"/><path d="M1264.5 1056.5 1264.5 1160.45" stroke="#2E445B" stroke-width="3.4375" stroke-linejoin="round" stroke-miterlimit="10" fill="none" fill-rule="evenodd"/><path d="M2564.5 1145.5 2564.5 1249.45" stroke="#2E445B" stroke-width="3.4375" stroke-linejoin="round" stroke-miterlimit="10" fill="none" fill-rule="evenodd"/><path d="M2590.5 1145.5 2590.5 1249.45" stroke="#2E445B" stroke-width="3.4375" stroke-linejoin="round" stroke-miterlimit="10" fill="none" fill-rule="evenodd"/><path d="M0 0 67.3425 28.2258" stroke="#2E445B" stroke-width="3.4375" stroke-linejoin="round" stroke-miterlimit="10" fill="none" fill-rule="evenodd" transform="matrix(-1 0 0 1 2901.84 838.5)"/><path d="M2901.84 894.726 2834.5 866.5" stroke="#2E445B" stroke-width="3.4375" stroke-linejoin="round" stroke-miterlimit="10" fill="none" fill-rule="evenodd"/><path d="M0 0 67.3425 28.2258" stroke="#2E445B" stroke-width="3.4375" stroke-linejoin="round" stroke-miterlimit="10" fill="none" fill-rule="evenodd" transform="matrix(-1 0 0 1 2901.84 716.5)"/><path d="M2901.84 773.726 2834.5 745.5" stroke="#2E445B" stroke-width="3.4375" stroke-linejoin="round" stroke-miterlimit="10" fill="none" fill-rule="evenodd"/><path d="M2785.5 744C2785.5 733.231 2794.23 724.5 2805 724.5 2815.77 724.5 2824.5 733.231 2824.5 744 2824.5 754.77 2815.77 763.5 2805 763.5 2794.23 763.5 2785.5 754.77 2785.5 744Z" stroke="#2E445B" stroke-width="3.4375" stroke-linejoin="round" stroke-miterlimit="10" fill="#FFFFFF" fill-rule="evenodd"/><path d="M2785.5 866C2785.5 855.231 2794.23 846.5 2805 846.5 2815.77 846.5 2824.5 855.231 2824.5 866 2824.5 876.77 2815.77 885.5 2805 885.5 2794.23 885.5 2785.5 876.77 2785.5 866Z" stroke="#2E445B" stroke-width="3.4375" stroke-linejoin="round" stroke-miterlimit="10" fill="#FFFFFF" fill-rule="evenodd"/></g></svg>