<svg width="2807" height="1226" xmlns="http://www.w3.org/2000/svg" xmlns:xlink="http://www.w3.org/1999/xlink" xml:space="preserve" overflow="hidden"><g transform="translate(-872 -687)"><path d="M1626 718C1626 703.641 1637.64 692 1652 692L2899 692C2913.36 692 2925 703.641 2925 718L2925 822C2925 836.359 2913.36 848 2899 848L1652 848C1637.64 848 1626 836.359 1626 822Z" fill="#2E445B" fill-rule="evenodd"/><text fill="#FFC000" font-family="Calibri,Calibri_MSFontService,sans-serif" font-weight="700" font-size="92" transform="matrix(1 0 0 1 2143.32 801)">SELECT</text><path d="M1626 890C1626 875.64 1637.64 864 1652 864L2899 864C2913.36 864 2925 875.64 2925 890L2925 994C2925 1008.36 2913.36 1020 2899 1020L1652 1020C1637.64 1020 1626 1008.36 1626 994Z" fill="#2E445B" fill-rule="evenodd"/><text fill="#7030A0" font-family="Calibri,Calibri_MSFontService,sans-serif" font-weight="700" font-size="92" transform="matrix(1 0 0 1 2026.44 973)">FROM + JOIN</text><path d="M1626 1062C1626 1047.64 1637.64 1036 1652 1036L2899 1036C2913.36 1036 2925 1047.64 2925 1062L2925 1166C2925 1180.36 2913.36 1192 2899 1192L1652 1192C1637.64 1192 1626 1180.36 1626 1166Z" fill="#2E445B" fill-rule="evenodd"/><text fill="#E10362" font-family="Calibri,Calibri_MSFontService,sans-serif" font-weight="700" font-size="92" transform="matrix(1 0 0 1 2134.85 1145)">WHERE</text><path d="M1626 1234C1626 1219.64 1637.64 1208 1652 1208L2899 1208C2913.36 1208 2925 1219.64 2925 1234L2925 1338C2925 1352.36 2913.36 1364 2899 1364L1652 1364C1637.64 1364 1626 1352.36 1626 1338Z" fill="#2E445B" fill-rule="evenodd"/><text fill="#FF0000" font-family="Calibri,Calibri_MSFontService,sans-serif" font-weight="700" font-size="92" transform="matrix(1 0 0 1 2077.86 1317)">GROUP BY</text><path d="M1626 1406C1626 1391.64 1637.64 1380 1652 1380L2899 1380C2913.36 1380 2925 1391.64 2925 1406L2925 1510C2925 1524.36 2913.36 1536 2899 1536L1652 1536C1637.64 1536 1626 1524.36 1626 1510Z" fill="#2E445B" fill-rule="evenodd"/><text fill="#E3351A" font-family="Calibri,Calibri_MSFontService,sans-serif" font-weight="700" font-size="92" transform="matrix(1 0 0 1 2122.59 1489)">HAVING</text><path d="M1626 1578C1626 1563.64 1637.64 1552 1652 1552L2899 1552C2913.36 1552 2925 1563.64 2925 1578L2925 1682C2925 1696.36 2913.36 1708 2899 1708L1652 1708C1637.64 1708 1626 1696.36 1626 1682Z" fill="#2E445B" fill-rule="evenodd"/><text fill="#00B050" font-family="Calibri,Calibri_MSFontService,sans-serif" font-weight="700" font-size="92" transform="matrix(1 0 0 1 2083.71 1661)">ORDER BY</text><path d="M1626 1750.83C1626 1736.57 1637.57 1725 1651.83 1725L2899.17 1725C2913.43 1725 2925 1736.57 2925 1750.83L2925 1854.17C2925 1868.43 2913.43 1880 2899.17 1880L1651.83 1880C1637.57 1880 1626 1868.43 1626 1854.17Z" fill="#2E445B" fill-rule="evenodd"/><text fill="#0070C0" font-family="Calibri,Calibri_MSFontService,sans-serif" font-weight="700" font-size="92" transform="matrix(1 0 0 1 2168.94 1834)">LIMIT</text></g></svg>