<svg width="3635" height="1976" xmlns="http://www.w3.org/2000/svg" xmlns:xlink="http://www.w3.org/1999/xlink" xml:space="preserve" overflow="hidden"><defs><clipPath id="clip0"><path d="M350.452 1583.65 650.461 1446.2 787.918 1746.21 487.908 1883.66Z" fill-rule="evenodd" clip-rule="evenodd"/></clipPath><clipPath id="clip1"><path d="M350.452 1583.65 650.461 1446.2 787.918 1746.21 487.908 1883.66Z" fill-rule="evenodd" clip-rule="evenodd"/></clipPath><clipPath id="clip2"><path d="M350.452 1583.65 650.461 1446.2 787.918 1746.21 487.908 1883.66Z" fill-rule="evenodd" clip-rule="evenodd"/></clipPath><clipPath id="clip3"><path d="M969.821 1278.17 1269.83 1140.71 1407.29 1440.72 1107.28 1578.18Z" fill-rule="evenodd" clip-rule="evenodd"/></clipPath><clipPath id="clip4"><path d="M969.821 1278.17 1269.83 1140.71 1407.29 1440.72 1107.28 1578.18Z" fill-rule="evenodd" clip-rule="evenodd"/></clipPath><clipPath id="clip5"><path d="M969.821 1278.17 1269.83 1140.71 1407.29 1440.72 1107.28 1578.18Z" fill-rule="evenodd" clip-rule="evenodd"/></clipPath><clipPath id="clip6"><path d="M1623.41 985.012 1923.42 847.556 2060.88 1147.57 1760.87 1285.02Z" fill-rule="evenodd" clip-rule="evenodd"/></clipPath><clipPath id="clip7"><path d="M1623.41 985.012 1923.42 847.556 2060.88 1147.57 1760.87 1285.02Z" fill-rule="evenodd" clip-rule="evenodd"/></clipPath><clipPath id="clip8"><path d="M1623.41 985.012 1923.42 847.556 2060.88 1147.57 1760.87 1285.02Z" fill-rule="evenodd" clip-rule="evenodd"/></clipPath><clipPath id="clip9"><path d="M2253.4 725.216 2553.41 587.759 2690.86 887.769 2390.85 1025.23Z" fill-rule="evenodd" clip-rule="evenodd"/></clipPath><clipPath id="clip10"><path d="M2253.4 725.216 2553.41 587.759 2690.86 887.769 2390.85 1025.23Z" fill-rule="evenodd" clip-rule="evenodd"/></clipPath><clipPath id="clip11"><path d="M2253.4 725.216 2553.41 587.759 2690.86 887.769 2390.85 1025.23Z" fill-rule="evenodd" clip-rule="evenodd"/></clipPath><clipPath id="clip12"><path d="M2916.8 438.531 3216.81 301.075 3354.27 601.085 3054.26 738.541Z" fill-rule="evenodd" clip-rule="evenodd"/></clipPath><clipPath id="clip13"><path d="M2916.8 438.531 3216.81 301.075 3354.27 601.085 3054.26 738.541Z" fill-rule="evenodd" clip-rule="evenodd"/></clipPath><clipPath id="clip14"><path d="M2916.8 438.531 3216.81 301.075 3354.27 601.085 3054.26 738.541Z" fill-rule="evenodd" clip-rule="evenodd"/></clipPath></defs><g transform="translate(-91 -218)"><g><g><g><path d="M352.25 1750.87C352.25 1766.06 309.158 1778.37 256 1778.37 202.843 1778.37 159.75 1766.06 159.75 1750.87 159.75 1735.69 202.843 1723.37 256 1723.37 309.158 1723.37 352.25 1735.69 352.25 1750.87Z"/><path d="M324.75 1819.62C320.625 1819.62 317.875 1816.87 317.875 1812.75 317.875 1808.62 320.625 1805.87 324.75 1805.87 328.875 1805.87 331.625 1808.62 331.625 1812.75 331.625 1816.87 328.875 1819.62 324.75 1819.62ZM256 1792.12C203.063 1792.12 159.75 1779.75 159.75 1764.62L159.75 1819.62C159.75 1834.75 203.063 1847.12 256 1847.12 308.938 1847.12 352.25 1834.75 352.25 1819.62L352.25 1764.62C352.25 1779.75 308.938 1792.12 256 1792.12Z"/><path d="M324.75 1888.37C320.625 1888.37 317.875 1885.62 317.875 1881.5 317.875 1877.37 320.625 1874.62 324.75 1874.62 328.875 1874.62 331.625 1877.37 331.625 1881.5 331.625 1885.62 328.875 1888.37 324.75 1888.37ZM256 1860.87C203.063 1860.87 159.75 1848.5 159.75 1833.37L159.75 1888.37C159.75 1903.5 203.063 1915.87 256 1915.87 308.938 1915.87 352.25 1903.5 352.25 1888.37L352.25 1833.37C352.25 1848.5 308.938 1860.87 256 1860.87Z"/><path d="M324.75 1957.12C320.625 1957.12 317.875 1954.37 317.875 1950.25 317.875 1946.12 320.625 1943.37 324.75 1943.37 328.875 1943.37 331.625 1946.12 331.625 1950.25 331.625 1954.37 328.875 1957.12 324.75 1957.12ZM256 1929.62C203.063 1929.62 159.75 1917.25 159.75 1902.12L159.75 1957.12C159.75 1972.25 203.063 1984.62 256 1984.62 308.938 1984.62 352.25 1972.25 352.25 1957.12L352.25 1902.12C352.25 1917.25 308.938 1929.62 256 1929.62Z"/></g></g></g><g><g><g><path d="M1440.06 1097.75 1477.87 1097.75 1477.87 1118.37 1574.12 1118.37 1574.12 1097.75 1611.94 1097.75 1611.94 1310.87 1440.06 1310.87 1440.06 1097.75ZM1526.34 1070.25C1531.84 1070.25 1536.31 1075.06 1536.31 1080.56 1536.31 1086.41 1531.84 1090.87 1526 1090.87 1520.16 1090.87 1515.69 1086.41 1515.69 1080.56 1515.69 1074.72 1520.16 1070.25 1526.34 1070.25ZM1419.44 1090.87 1419.44 1317.75C1419.44 1325.31 1425.62 1331.5 1433.19 1331.5L1618.81 1331.5C1626.37 1331.5 1632.56 1325.31 1632.56 1317.75L1632.56 1090.87C1632.56 1083.31 1626.37 1077.12 1618.81 1077.12L1560.37 1077.12 1560.37 1070.25C1560.37 1062.69 1554.19 1056.5 1546.62 1056.5L1505.37 1056.5C1497.81 1056.5 1491.62 1062.69 1491.62 1070.25L1491.62 1077.12 1433.19 1077.12C1425.62 1077.12 1419.44 1083.31 1419.44 1090.87Z"/><path d="M1460.69 1145.87 1519.12 1145.87 1519.12 1159.62 1460.69 1159.62Z"/><path d="M1460.69 1187.12 1519.12 1187.12 1519.12 1200.87 1460.69 1200.87Z"/><path d="M1460.69 1228.37 1519.12 1228.37 1519.12 1242.12 1460.69 1242.12Z"/><path d="M1460.69 1269.62 1519.12 1269.62 1519.12 1283.37 1460.69 1283.37Z"/><path d="M1558.66 1223.22 1582.72 1223.22 1582.72 1247.28 1558.66 1247.28Z"/><path d="M1558.66 1264.47 1582.72 1264.47 1582.72 1288.53 1558.66 1288.53Z"/><path d="M1542.84 1152.06 1550.06 1144.84 1559 1153.78 1581.69 1131.09 1588.91 1138.31 1559 1168.22Z"/><path d="M1542.84 1193.31 1550.06 1186.09 1559 1195.03 1581.69 1172.34 1588.91 1179.56 1559 1209.47Z"/></g></g></g><g><g><g><path d="M2244.25 795.063 2051.75 795.063C2044.16 795.063 2038 801.219 2038 808.813L2038 1063.19C2038 1070.78 2044.16 1076.94 2051.75 1076.94L2244.25 1076.94C2251.84 1076.94 2258 1070.78 2258 1063.19L2258 808.813C2258 801.219 2251.84 795.063 2244.25 795.063ZM2237.38 815.688 2237.38 846.625 2216.75 846.625C2216.75 839.031 2210.59 832.875 2203 832.875 2195.41 832.875 2189.25 839.031 2189.25 846.625L2182.38 846.625C2182.38 839.031 2176.22 832.875 2168.62 832.875 2161.03 832.875 2154.88 839.031 2154.88 846.625L2106.75 846.625C2106.75 839.031 2100.59 832.875 2093 832.875 2085.41 832.875 2079.25 839.031 2079.25 846.625L2058.62 846.625 2058.62 815.688ZM2203 997.875C2195.41 997.875 2189.25 1004.03 2189.25 1011.63L2182.38 1011.63C2182.38 1004.03 2176.22 997.875 2168.62 997.875 2161.03 997.875 2154.88 1004.03 2154.88 1011.63L2106.75 1011.63C2106.75 1004.03 2100.59 997.875 2093 997.875 2085.41 997.875 2079.25 1004.03 2079.25 1011.63L2058.62 1011.63 2058.62 970.375 2079.25 970.375C2079.25 977.969 2085.41 984.125 2093 984.125 2100.59 984.125 2106.75 977.969 2106.75 970.375L2113.62 970.375C2113.62 977.969 2119.78 984.125 2127.38 984.125 2134.97 984.125 2141.12 977.969 2141.12 970.375L2189.25 970.375C2189.25 977.969 2195.41 984.125 2203 984.125 2210.59 984.125 2216.75 977.969 2216.75 970.375L2237.38 970.375 2237.38 1011.63 2216.75 1011.63C2216.75 1004.03 2210.59 997.875 2203 997.875ZM2216.75 956.625C2216.75 949.031 2210.59 942.875 2203 942.875 2195.41 942.875 2189.25 949.031 2189.25 956.625L2141.12 956.625C2141.12 949.031 2134.97 942.875 2127.38 942.875 2119.78 942.875 2113.62 949.031 2113.62 956.625L2106.75 956.625C2106.75 949.031 2100.59 942.875 2093 942.875 2085.41 942.875 2079.25 949.031 2079.25 956.625L2058.62 956.625 2058.62 915.375 2120.5 915.375C2120.5 922.969 2126.66 929.125 2134.25 929.125 2141.84 929.125 2148 922.969 2148 915.375L2154.88 915.375C2154.88 922.969 2161.03 929.125 2168.62 929.125 2176.22 929.125 2182.38 922.969 2182.38 915.375L2189.25 915.375C2189.25 922.969 2195.41 929.125 2203 929.125 2210.59 929.125 2216.75 922.969 2216.75 915.375L2237.38 915.375 2237.38 956.625ZM2216.75 901.625C2216.75 894.031 2210.59 887.875 2203 887.875 2195.41 887.875 2189.25 894.031 2189.25 901.625L2182.38 901.625C2182.38 894.031 2176.22 887.875 2168.62 887.875 2161.03 887.875 2154.88 894.031 2154.88 901.625L2148 901.625C2148 894.031 2141.84 887.875 2134.25 887.875 2126.66 887.875 2120.5 894.031 2120.5 901.625L2058.62 901.625 2058.62 860.375 2079.25 860.375C2079.25 867.969 2085.41 874.125 2093 874.125 2100.59 874.125 2106.75 867.969 2106.75 860.375L2154.88 860.375C2154.88 867.969 2161.03 874.125 2168.62 874.125 2176.22 874.125 2182.38 867.969 2182.38 860.375L2189.25 860.375C2189.25 867.969 2195.41 874.125 2203 874.125 2210.59 874.125 2216.75 867.969 2216.75 860.375L2237.38 860.375 2237.38 901.625ZM2058.62 1056.31 2058.62 1025.38 2079.25 1025.38C2079.25 1032.97 2085.41 1039.12 2093 1039.12 2100.59 1039.12 2106.75 1032.97 2106.75 1025.38L2154.88 1025.38C2154.88 1032.97 2161.03 1039.12 2168.62 1039.12 2176.22 1039.12 2182.38 1032.97 2182.38 1025.38L2189.25 1025.38C2189.25 1032.97 2195.41 1039.12 2203 1039.12 2210.59 1039.12 2216.75 1032.97 2216.75 1025.38L2237.38 1025.38 2237.38 1056.31Z"/></g></g></g><g><g><g><path d="M2699.75 531.125 2679.12 531.125 2679.12 764.875 2912.88 764.875 2912.88 744.25 2699.75 744.25 2699.75 531.125Z"/><path d="M2844.12 682.217C2836.06 682.217 2820.79 657.309 2812.71 630.964 2806.21 609.775 2787.96 560.495 2759.09 560.495 2733.22 560.495 2720.57 599.442 2714.52 632.112L2734.8 635.872C2742.19 595.997 2753.62 581.12 2759.09 581.12 2767.15 581.12 2782.39 602.491 2792.99 637.017 2795.05 643.755 2814.05 702.845 2844.11 702.845 2865.08 702.845 2880.55 680.086 2890.08 635.261L2912.71 641.125 2888.47 599.875 2847.22 624.13 2870.12 630.073C2862.55 666.078 2851.62 682.217 2844.12 682.217Z"/></g></g></g><g><g><g><path d="M3538.22 358.25 3507.62 358.25C3494.56 358.25 3483.91 368.562 3483.91 381.625L3483.91 407.062 3468.44 407.062 3468.44 386.781C3468.44 379.562 3468.78 370.281 3463.62 364.437 3460.53 361 3457.09 358.25 3453.31 355.5 3450.56 353.781 3447.81 351.719 3445.75 348.969 3444.72 347.594 3444.03 345.875 3443.34 344.156 3447.47 342.437 3451.94 342.094 3456.06 342.437 3458.12 342.437 3459.84 341.062 3459.84 339 3460.19 336.937 3458.81 335.219 3457.09 334.531 3451.94 333.844 3446.44 334.531 3441.28 336.25 3441.28 335.562 3441.28 334.875 3440.94 334.531 3440.59 331.437 3441.28 328.344 3441.97 325.25 3444.72 318.031 3451.59 314.937 3458.12 312.531 3459.16 312.187 3460.53 311.844 3462.25 311.5L3463.28 311.156 3463.62 311.156C3465.34 311.5 3466.72 311.844 3468.09 312.187L3469.81 312.531 3471.88 312.875C3475.31 317 3477.03 322.156 3476.69 327.312 3476.34 332.469 3473.94 337.281 3469.81 340.719 3468.44 342.094 3468.09 344.5 3469.47 346.219 3470.84 347.594 3472.91 347.937 3474.62 346.562 3477.03 344.5 3479.09 342.094 3480.47 339.344L3480.81 339.344C3486.66 338.656 3492.5 336.937 3497.66 334.187 3498.34 333.5 3499.03 332.812 3499.38 331.781 3499.72 330.75 3499.38 329.719 3498.69 329.031 3497.31 327.312 3495.25 326.969 3493.53 328 3490.44 329.719 3487.34 331.094 3483.56 331.437 3483.91 330.406 3484.25 329.031 3484.25 328 3484.59 323.531 3483.91 319.062 3482.19 315.281 3484.94 315.625 3487.69 315.969 3490.44 315.969 3492.84 315.969 3495.25 315.625 3497.66 315.281 3502.12 320.781 3507.97 324.562 3514.84 326.281 3523.78 330.75 3532.03 336.594 3532.03 346.219 3532.03 347.594 3532.72 349.312 3533.75 350 3535.12 350.687 3536.5 350.687 3537.88 350 3539.25 349.312 3539.94 347.594 3539.59 346.219 3539.59 338.656 3536.16 331.781 3530.31 327.312 3535.12 326.969 3539.25 324.562 3542.34 321.125 3543.72 319.406 3543.38 317 3542 315.625 3540.28 314.25 3537.88 314.594 3536.5 315.969 3534.78 318.031 3530.31 319.75 3523.78 319.406 3517.25 319.406 3510.72 317 3505.91 312.875 3511.41 310.469 3516.22 306.344 3519.31 301.187 3520.34 299.469 3519.66 297.062 3517.94 295.687 3516.22 294.656 3513.81 295.344 3512.78 297.062 3506.94 307.719 3494.56 310.812 3474.97 306 3479.44 302.219 3481.5 296.375 3480.81 290.531 3480.81 289.156 3480.12 287.781 3478.75 287.094 3477.38 286.406 3476 286.406 3474.62 287.437 3473.25 288.125 3472.91 289.844 3472.91 291.219 3473.25 300.156 3468.44 301.875 3460.53 304.281 3459.5 304.625 3458.12 304.969 3457.09 305.312 3455.03 300.5 3450.56 296.719 3445.41 295.344 3444.03 295 3442.66 295.344 3441.62 296.375 3440.59 297.406 3440.25 298.781 3440.59 300.5 3440.94 301.875 3441.97 302.906 3443.69 303.25 3446.44 303.937 3448.5 306 3449.88 308.406L3449.88 308.75C3443.34 311.5 3438.19 316.656 3435.78 323.187 3435.09 324.562 3434.75 326.281 3434.75 328 3434.06 327.312 3433.38 326.625 3433.03 325.594 3431.66 322.844 3430.62 319.406 3430.28 316.312 3429.94 314.937 3428.91 313.562 3427.88 313.219 3426.5 312.531 3425.12 312.875 3424.09 313.906 3423.06 314.937 3422.38 316.312 3423.06 317.687 3423.75 321.812 3424.78 325.594 3426.84 329.031 3428.91 332.469 3431.66 335.219 3435.44 336.937 3435.78 341.75 3437.5 346.562 3439.91 351.031 3437.5 354.125 3434.41 356.531 3430.97 358.594 3429.94 359.281 3429.25 360.656 3428.91 362.031 3428.91 363.406 3429.59 364.781 3430.97 365.469 3432.34 366.156 3433.72 366.156 3434.75 365.125 3438.19 362.719 3441.28 360.312 3444.03 357.219 3446.09 358.937 3448.16 360.312 3450.22 361.687 3453.66 363.75 3456.41 366.156 3459.16 369.25 3462.25 373.031 3462.25 380.25 3462.25 386.437L3462.25 407.062 3446.44 407.062C3446.44 381.625 3434.06 380.25 3432.69 379.562 3427.53 378.187 3414.12 370.969 3411.03 356.531 3410.69 355.844 3410.69 354.812 3410.69 354.125 3404.84 345.875 3405.19 334.531 3411.72 326.625 3411.03 324.219 3410.69 321.812 3410.69 319.406 3410.69 308.406 3418.59 298.781 3429.59 296.719 3433.03 287.094 3441.97 280.562 3451.94 280.906 3453.66 280.906 3455.72 281.25 3457.44 281.594 3461.56 276.781 3467.41 274.031 3473.94 273.344 3480.47 273 3486.66 275.062 3491.47 279.531 3497.66 275.406 3505.22 274.375 3512.09 276.437 3519.31 278.5 3524.81 284 3527.22 290.875L3528.59 290.875C3541.66 290.875 3551.97 301.187 3552.31 314.25L3552.31 315.281C3560.22 319.75 3564.69 328.344 3564 337.281 3561.25 349.312 3550.59 358.594 3538.22 358.25ZM3611.44 394.344 3587.72 353.437 3587.72 352.062C3589.09 314.25 3569.84 278.844 3537.19 259.937 3504.53 240.687 3464.31 240.687 3431.66 259.937 3399 278.844 3379.75 314.25 3381.12 352.062 3381.12 384.375 3395.91 414.969 3421.69 434.562L3421.69 520.5 3530.31 520.5 3530.31 479.594 3547.16 479.594C3558.16 479.594 3568.47 475.469 3576.03 467.562 3583.59 460 3587.72 449.344 3587.72 438.687L3587.72 418.062 3602.84 418.062C3611.78 417.375 3619.69 407.062 3611.44 394.344Z"/></g></g></g><g><g><g><path d="M951.917 1495.37C951.917 1501.36 934.941 1506.21 914 1506.21 893.059 1506.21 876.083 1501.36 876.083 1495.37 876.083 1489.39 893.059 1484.54 914 1484.54 934.941 1484.54 951.917 1489.39 951.917 1495.37Z"/><path d="M941.083 1522.46C939.458 1522.46 938.375 1521.37 938.375 1519.75 938.375 1518.12 939.458 1517.04 941.083 1517.04 942.708 1517.04 943.792 1518.12 943.792 1519.75 943.792 1521.37 942.708 1522.46 941.083 1522.46ZM914 1511.62C893.146 1511.62 876.083 1506.75 876.083 1500.79L876.083 1522.46C876.083 1528.42 893.146 1533.29 914 1533.29 934.854 1533.29 951.917 1528.42 951.917 1522.46L951.917 1500.79C951.917 1506.75 934.854 1511.62 914 1511.62Z"/><path d="M941.083 1549.54C939.458 1549.54 938.375 1548.46 938.375 1546.83 938.375 1545.21 939.458 1544.12 941.083 1544.12 942.708 1544.12 943.792 1545.21 943.792 1546.83 943.792 1548.46 942.708 1549.54 941.083 1549.54ZM914 1538.71C893.146 1538.71 876.083 1533.83 876.083 1527.87L876.083 1549.54C876.083 1555.5 893.146 1560.37 914 1560.37 934.854 1560.37 951.917 1555.5 951.917 1549.54L951.917 1527.87C951.917 1533.83 934.854 1538.71 914 1538.71Z"/><path d="M941.083 1576.62C939.458 1576.62 938.375 1575.54 938.375 1573.92 938.375 1572.29 939.458 1571.21 941.083 1571.21 942.708 1571.21 943.792 1572.29 943.792 1573.92 943.792 1575.54 942.708 1576.62 941.083 1576.62ZM914 1565.79C893.146 1565.79 876.083 1560.92 876.083 1554.96L876.083 1576.62C876.083 1582.58 893.146 1587.46 914 1587.46 934.854 1587.46 951.917 1582.58 951.917 1576.62L951.917 1554.96C951.917 1560.92 934.854 1565.79 914 1565.79Z"/></g></g></g><g><g><g><path d="M816.917 1470.38C816.917 1476.36 799.941 1481.21 779 1481.21 758.059 1481.21 741.083 1476.36 741.083 1470.38 741.083 1464.39 758.059 1459.54 779 1459.54 799.941 1459.54 816.917 1464.39 816.917 1470.38Z"/><path d="M806.083 1497.46C804.458 1497.46 803.375 1496.38 803.375 1494.75 803.375 1493.13 804.458 1492.04 806.083 1492.04 807.708 1492.04 808.792 1493.13 808.792 1494.75 808.792 1496.38 807.708 1497.46 806.083 1497.46ZM779 1486.63C758.146 1486.63 741.083 1481.75 741.083 1475.79L741.083 1497.46C741.083 1503.42 758.146 1508.29 779 1508.29 799.854 1508.29 816.917 1503.42 816.917 1497.46L816.917 1475.79C816.917 1481.75 799.854 1486.63 779 1486.63Z"/><path d="M806.083 1524.54C804.458 1524.54 803.375 1523.46 803.375 1521.83 803.375 1520.21 804.458 1519.13 806.083 1519.13 807.708 1519.13 808.792 1520.21 808.792 1521.83 808.792 1523.46 807.708 1524.54 806.083 1524.54ZM779 1513.71C758.146 1513.71 741.083 1508.83 741.083 1502.88L741.083 1524.54C741.083 1530.5 758.146 1535.38 779 1535.38 799.854 1535.38 816.917 1530.5 816.917 1524.54L816.917 1502.88C816.917 1508.83 799.854 1513.71 779 1513.71Z"/><path d="M806.083 1551.63C804.458 1551.63 803.375 1550.54 803.375 1548.92 803.375 1547.29 804.458 1546.21 806.083 1546.21 807.708 1546.21 808.792 1547.29 808.792 1548.92 808.792 1550.54 807.708 1551.63 806.083 1551.63ZM779 1540.79C758.146 1540.79 741.083 1535.92 741.083 1529.96L741.083 1551.63C741.083 1557.58 758.146 1562.46 779 1562.46 799.854 1562.46 816.917 1557.58 816.917 1551.63L816.917 1529.96C816.917 1535.92 799.854 1540.79 779 1540.79Z"/></g></g></g><g><g><g><path d="M930.917 1359.38C930.917 1365.36 913.941 1370.21 893 1370.21 872.059 1370.21 855.083 1365.36 855.083 1359.38 855.083 1353.39 872.059 1348.54 893 1348.54 913.941 1348.54 930.917 1353.39 930.917 1359.38Z"/><path d="M920.083 1386.46C918.458 1386.46 917.375 1385.38 917.375 1383.75 917.375 1382.13 918.458 1381.04 920.083 1381.04 921.708 1381.04 922.792 1382.13 922.792 1383.75 922.792 1385.38 921.708 1386.46 920.083 1386.46ZM893 1375.63C872.146 1375.63 855.083 1370.75 855.083 1364.79L855.083 1386.46C855.083 1392.42 872.146 1397.29 893 1397.29 913.854 1397.29 930.917 1392.42 930.917 1386.46L930.917 1364.79C930.917 1370.75 913.854 1375.63 893 1375.63Z"/><path d="M920.083 1413.54C918.458 1413.54 917.375 1412.46 917.375 1410.83 917.375 1409.21 918.458 1408.13 920.083 1408.13 921.708 1408.13 922.792 1409.21 922.792 1410.83 922.792 1412.46 921.708 1413.54 920.083 1413.54ZM893 1402.71C872.146 1402.71 855.083 1397.83 855.083 1391.88L855.083 1413.54C855.083 1419.5 872.146 1424.38 893 1424.38 913.854 1424.38 930.917 1419.5 930.917 1413.54L930.917 1391.88C930.917 1397.83 913.854 1402.71 893 1402.71Z"/><path d="M920.083 1440.63C918.458 1440.63 917.375 1439.54 917.375 1437.92 917.375 1436.29 918.458 1435.21 920.083 1435.21 921.708 1435.21 922.792 1436.29 922.792 1437.92 922.792 1439.54 921.708 1440.63 920.083 1440.63ZM893 1429.79C872.146 1429.79 855.083 1424.92 855.083 1418.96L855.083 1440.63C855.083 1446.58 872.146 1451.46 893 1451.46 913.854 1451.46 930.917 1446.58 930.917 1440.63L930.917 1418.96C930.917 1424.92 913.854 1429.79 893 1429.79Z"/></g></g></g><text font-family="Calibri,Calibri_MSFontService,sans-serif" font-weight="400" font-size="83" transform="matrix(1 0 0 1 154.802 2121)">Daten</text><g clip-path="url(#clip0)"><g clip-path="url(#clip1)"><g clip-path="url(#clip2)"><path d="M445.562 1733.02 679.191 1625.97 664.129 1666.51C662.166 1671.79 664.858 1677.67 670.143 1679.63 675.428 1681.6 681.305 1678.9 683.269 1673.62L706.952 1609.86C708.994 1604.74 706.506 1598.94 701.394 1596.9 701.243 1596.84 701.091 1596.78 700.938 1596.73L637.177 1573.05C632.064 1571 626.264 1573.49 624.221 1578.6 624.161 1578.75 624.104 1578.91 624.052 1579.06 622.009 1584.17 624.497 1589.97 629.609 1592.02 629.76 1592.08 629.912 1592.13 630.065 1592.18L670.606 1607.26 436.986 1714.3C431.809 1716.67 429.534 1722.79 431.907 1727.97 434.279 1733.15 440.4 1735.42 445.577 1733.05Z"/></g></g></g><g clip-path="url(#clip3)"><g clip-path="url(#clip4)"><g clip-path="url(#clip5)"><path d="M1064.93 1427.53 1298.56 1320.49 1283.5 1361.02C1281.54 1366.31 1284.23 1372.18 1289.51 1374.15 1294.8 1376.11 1300.67 1373.42 1302.64 1368.13L1326.32 1304.37C1328.36 1299.26 1325.88 1293.46 1320.76 1291.41 1320.61 1291.35 1320.46 1291.3 1320.31 1291.25L1256.55 1267.56C1251.43 1265.52 1245.63 1268.01 1243.59 1273.12 1243.53 1273.27 1243.47 1273.42 1243.42 1273.57 1241.38 1278.69 1243.87 1284.49 1248.98 1286.53 1249.13 1286.59 1249.28 1286.65 1249.43 1286.7L1289.98 1301.78 1056.36 1408.82C1051.18 1411.19 1048.9 1417.31 1051.28 1422.49 1053.65 1427.66 1059.77 1429.94 1064.95 1427.57Z"/></g></g></g><g clip-path="url(#clip6)"><g clip-path="url(#clip7)"><g clip-path="url(#clip8)"><path d="M1718.52 1134.37 1952.15 1027.33 1937.09 1067.87C1935.12 1073.15 1937.82 1079.03 1943.1 1080.99 1948.39 1082.96 1954.26 1080.26 1956.23 1074.98L1979.91 1011.21C1981.95 1006.1 1979.46 1000.3 1974.35 998.258 1974.2 998.198 1974.05 998.141 1973.9 998.089L1910.13 974.404C1905.02 972.361 1899.22 974.849 1897.18 979.962 1897.12 980.112 1897.06 980.265 1897.01 980.418 1894.97 985.53 1897.45 991.331 1902.57 993.374 1902.72 993.434 1902.87 993.49 1903.02 993.543L1943.56 1008.62 1709.94 1115.66C1704.77 1118.03 1702.49 1124.15 1704.86 1129.33 1707.24 1134.51 1713.36 1136.78 1718.53 1134.41Z"/></g></g></g><g clip-path="url(#clip9)"><g clip-path="url(#clip10)"><g clip-path="url(#clip11)"><path d="M2348.51 874.579 2582.14 767.536 2567.08 808.07C2565.11 813.355 2567.8 819.231 2573.09 821.195 2578.37 823.159 2584.25 820.467 2586.21 815.182L2609.9 751.418C2611.94 746.305 2609.45 740.504 2604.34 738.461 2604.19 738.401 2604.04 738.345 2603.88 738.292L2540.12 714.608C2535.01 712.565 2529.21 715.053 2527.17 720.166 2527.11 720.316 2527.05 720.468 2527 720.621 2524.95 725.734 2527.44 731.535 2532.56 733.577 2532.71 733.638 2532.86 733.694 2533.01 733.747L2573.55 748.824 2339.93 855.862C2334.75 858.235 2332.48 864.355 2334.85 869.533 2337.23 874.711 2343.35 876.985 2348.52 874.613Z"/></g></g></g><text font-family="Calibri,Calibri_MSFontService,sans-serif" font-weight="400" font-size="83" transform="matrix(1 0 0 1 736.447 1743)">Auswahl</text><text font-family="Calibri,Calibri_MSFontService,sans-serif" font-weight="400" font-size="83" transform="matrix(1 0 0 1 1304.51 1445)">Preprocess</text><text font-family="Calibri,Calibri_MSFontService,sans-serif" font-weight="400" font-size="83" transform="matrix(1 0 0 1 1673.9 1445)">ing</text><text font-family="Calibri,Calibri_MSFontService,sans-serif" font-weight="400" font-size="83" transform="matrix(1 0 0 1 1900.84 1195)">Transformation</text><text font-family="Calibri,Calibri_MSFontService,sans-serif" font-weight="400" font-size="83" transform="matrix(1 0 0 1 2604.79 897)">Darstellung</text><g clip-path="url(#clip12)"><g clip-path="url(#clip13)"><g clip-path="url(#clip14)"><path d="M3011.91 587.894 3245.54 480.852 3230.48 521.386C3228.52 526.671 3231.21 532.547 3236.5 534.511 3241.78 536.475 3247.66 533.782 3249.62 528.497L3273.3 464.733C3275.35 459.621 3272.86 453.82 3267.75 451.777 3267.6 451.717 3267.44 451.661 3267.29 451.608L3203.53 427.923C3198.42 425.881 3192.62 428.369 3190.57 433.481 3190.51 433.632 3190.46 433.784 3190.4 433.937 3188.36 439.05 3190.85 444.85 3195.96 446.893 3196.11 446.953 3196.27 447.01 3196.42 447.063L3236.96 462.14 3003.34 569.178C2998.16 571.55 2995.89 577.671 2998.26 582.849 3000.63 588.027 3006.75 590.301 3011.93 587.929Z"/></g></g></g><text font-family="Calibri,Calibri_MSFontService,sans-serif" font-weight="400" font-size="83" transform="matrix(1 0 0 1 3319.62 638)">Erkenntnis</text></g></svg>