<svg width="1842" height="1117" xmlns="http://www.w3.org/2000/svg" xmlns:xlink="http://www.w3.org/1999/xlink" xml:space="preserve" overflow="hidden"><g transform="translate(-1165 -822)"><rect x="1496.5" y="1163.5" width="260" height="130" stroke="#006F7F" stroke-width="9.16667" stroke-linejoin="round" stroke-miterlimit="10" fill="none"/><rect x="1496.5" y="1324.5" width="260" height="130" stroke="#006F7F" stroke-width="9.16667" stroke-linejoin="round" stroke-miterlimit="10" fill="none"/><rect x="1496.5" y="1485.5" width="260" height="130" stroke="#006F7F" stroke-width="9.16667" stroke-linejoin="round" stroke-miterlimit="10" fill="none"/><rect x="1496.5" y="1646.5" width="260" height="130" stroke="#006F7F" stroke-width="9.16667" stroke-linejoin="round" stroke-miterlimit="10" fill="none"/><text fill="#006F7F" font-family="Consolas,Consolas_MSFontService,sans-serif" font-weight="400" font-size="55" transform="matrix(1 0 0 1 1611.19 1891)">…</text><path d="M1633.5 975.063 2520.04 975.063 2520.04 981.938 1633.5 981.938ZM2515.45 964.751 2542.95 978.501 2515.45 992.251Z" fill="#E10362"/><rect x="1808.5" y="1163.5" width="260" height="130" stroke="#006F7F" stroke-width="9.16667" stroke-linejoin="round" stroke-miterlimit="10" fill="none"/><rect x="1808.5" y="1324.5" width="260" height="130" stroke="#006F7F" stroke-width="9.16667" stroke-linejoin="round" stroke-miterlimit="10" fill="none"/><rect x="1808.5" y="1485.5" width="260" height="130" stroke="#006F7F" stroke-width="9.16667" stroke-linejoin="round" stroke-miterlimit="10" fill="none"/><rect x="1808.5" y="1646.5" width="260" height="130" stroke="#006F7F" stroke-width="9.16667" stroke-linejoin="round" stroke-miterlimit="10" fill="none"/><text fill="#006F7F" font-family="Consolas,Consolas_MSFontService,sans-serif" font-weight="400" font-size="55" transform="matrix(1 0 0 1 1923.04 1891)">…</text><rect x="2121.5" y="1163.5" width="260" height="130" stroke="#006F7F" stroke-width="9.16667" stroke-linejoin="round" stroke-miterlimit="10" fill="none"/><rect x="2121.5" y="1324.5" width="260" height="130" stroke="#006F7F" stroke-width="9.16667" stroke-linejoin="round" stroke-miterlimit="10" fill="none"/><rect x="2121.5" y="1485.5" width="260" height="130" stroke="#006F7F" stroke-width="9.16667" stroke-linejoin="round" stroke-miterlimit="10" fill="none"/><rect x="2121.5" y="1646.5" width="260" height="130" stroke="#006F7F" stroke-width="9.16667" stroke-linejoin="round" stroke-miterlimit="10" fill="none"/><text fill="#006F7F" font-family="Consolas,Consolas_MSFontService,sans-serif" font-weight="400" font-size="55" transform="matrix(1 0 0 1 2235.83 1891)">…</text><rect x="2434.5" y="1163.5" width="260" height="130" stroke="#006F7F" stroke-width="9.16667" stroke-linejoin="round" stroke-miterlimit="10" fill="none"/><rect x="2434.5" y="1324.5" width="260" height="130" stroke="#006F7F" stroke-width="9.16667" stroke-linejoin="round" stroke-miterlimit="10" fill="none"/><rect x="2434.5" y="1485.5" width="260" height="130" stroke="#006F7F" stroke-width="9.16667" stroke-linejoin="round" stroke-miterlimit="10" fill="none"/><rect x="2434.5" y="1646.5" width="260" height="130" stroke="#006F7F" stroke-width="9.16667" stroke-linejoin="round" stroke-miterlimit="10" fill="none"/><text fill="#006F7F" font-family="Consolas,Consolas_MSFontService,sans-serif" font-weight="400" font-size="55" transform="matrix(1 0 0 1 2548.62 1891)">…</text><text fill="#006F7F" font-family="Consolas,Consolas_MSFontService,sans-serif" font-weight="400" font-size="55" transform="matrix(1 0 0 1 2861.42 1247)">…</text><text fill="#006F7F" font-family="Consolas,Consolas_MSFontService,sans-serif" font-weight="400" font-size="55" transform="matrix(1 0 0 1 2861.42 1408)">…</text><text fill="#006F7F" font-family="Consolas,Consolas_MSFontService,sans-serif" font-weight="400" font-size="55" transform="matrix(1 0 0 1 2861.42 1569)">…</text><text fill="#006F7F" font-family="Consolas,Consolas_MSFontService,sans-serif" font-weight="400" font-size="55" transform="matrix(1 0 0 1 2861.42 1730)">…</text><text fill="#006F7F" font-family="Consolas,Consolas_MSFontService,sans-serif" font-weight="400" font-size="55" transform="matrix(1 0 0 1 2861.42 1891)">…</text><text fill="#E10362" font-family="Consolas,Consolas_MSFontService,sans-serif" font-weight="400" font-size="55" transform="matrix(1 0 0 1 1611.19 1088)">0</text><text fill="#E10362" font-family="Consolas,Consolas_MSFontService,sans-serif" font-weight="400" font-size="55" transform="matrix(1 0 0 1 1923.04 1088)">1</text><text fill="#E10362" font-family="Consolas,Consolas_MSFontService,sans-serif" font-weight="400" font-size="55" transform="matrix(1 0 0 1 2235.83 1088)">2</text><text fill="#E10362" font-family="Consolas,Consolas_MSFontService,sans-serif" font-weight="400" font-size="55" transform="matrix(1 0 0 1 2548.62 1088)">3</text><text fill="#E10362" font-family="Consolas,Consolas_MSFontService,sans-serif" font-weight="400" font-size="55" transform="matrix(1 0 0 1 2861.42 1088)">…</text><text fill="#E10362" font-family="Calibri,Calibri_MSFontService,sans-serif" font-weight="400" font-size="83" transform="matrix(1 0 0 1 1870.14 926)">Spaltenindex</text><text fill="#E10362" font-family="Consolas,Consolas_MSFontService,sans-serif" font-weight="400" font-size="55" transform="matrix(1 0 0 1 1379.94 1247)">0</text><text fill="#E10362" font-family="Consolas,Consolas_MSFontService,sans-serif" font-weight="400" font-size="55" transform="matrix(1 0 0 1 1379.94 1408)">1</text><text fill="#E10362" font-family="Consolas,Consolas_MSFontService,sans-serif" font-weight="400" font-size="55" transform="matrix(1 0 0 1 1379.94 1569)">2</text><text fill="#E10362" font-family="Consolas,Consolas_MSFontService,sans-serif" font-weight="400" font-size="55" transform="matrix(1 0 0 1 1379.94 1730)">3</text><text fill="#E10362" font-family="Consolas,Consolas_MSFontService,sans-serif" font-weight="400" font-size="55" transform="matrix(1 0 0 1 1379.94 1891)">…</text><path d="M1319.94 1227.5 1319.94 1659.31 1313.06 1659.31 1313.06 1227.5ZM1330.25 1654.72 1316.5 1682.22 1302.75 1654.72Z" fill="#E10362"/><text fill="#E10362" font-family="Calibri,Calibri_MSFontService,sans-serif" font-weight="400" font-size="83" transform="matrix(-1.83697e-16 -1 1 -1.83697e-16 1268.3 1646)">Zeilenindex</text></g></svg>