<svg width="2612" height="937" xmlns="http://www.w3.org/2000/svg" xmlns:xlink="http://www.w3.org/1999/xlink" xml:space="preserve" overflow="hidden"><g transform="translate(-588 -588)"><text fill="#006F7F" font-family="Consolas,Consolas_MSFontService,sans-serif" font-weight="400" font-size="55" transform="matrix(1 0 0 1 1314.23 672)">…</text><rect x="1135.5" y="749.5" width="389" height="130" stroke="#006F7F" stroke-width="9.16667" stroke-linejoin="round" stroke-miterlimit="10" fill="none"/><text fill="#006F7F" font-family="Consolas,Consolas_MSFontService,sans-serif" font-weight="400" font-size="55" transform="matrix(1 0 0 1 1268.68 833)">1.25</text><rect x="1135.5" y="910.5" width="389" height="130" stroke="#006F7F" stroke-width="9.16667" stroke-linejoin="round" stroke-miterlimit="10" fill="none"/><text fill="#006F7F" font-family="Consolas,Consolas_MSFontService,sans-serif" font-weight="400" font-size="55" transform="matrix(1 0 0 1 1314.23 994)">…</text><rect x="1135.5" y="1071.5" width="389" height="130" stroke="#006F7F" stroke-width="9.16667" stroke-linejoin="round" stroke-miterlimit="10" fill="none"/><text fill="#006F7F" font-family="Consolas,Consolas_MSFontService,sans-serif" font-weight="400" font-size="55" transform="matrix(1 0 0 1 1314.23 1155)">…</text><rect x="1135.5" y="1232.5" width="389" height="130" stroke="#006F7F" stroke-width="9.16667" stroke-linejoin="round" stroke-miterlimit="10" fill="none"/><text fill="#006F7F" font-family="Consolas,Consolas_MSFontService,sans-serif" font-weight="400" font-size="55" transform="matrix(1 0 0 1 1268.68 1316)">1.25</text><text fill="#006F7F" font-family="Consolas,Consolas_MSFontService,sans-serif" font-weight="400" font-size="55" transform="matrix(1 0 0 1 1314.23 1477)">…</text><text fill="#E10362" font-family="Consolas,Consolas_MSFontService,sans-serif" font-weight="400" font-size="55" transform="matrix(1 0 0 1 669.939 833)">a</text><text fill="#E10362" font-family="Consolas,Consolas_MSFontService,sans-serif" font-weight="400" font-size="55" transform="matrix(1 0 0 1 669.939 1316)">b</text><path d="M783.5 811.062 1020.45 811.063 1020.45 817.938 783.5 817.937ZM1015.87 800.75 1043.37 814.5 1015.87 828.25Z" fill="#E10362"/><path d="M783.5 1294.06 1020.45 1294.06 1020.45 1300.94 783.5 1300.94ZM1015.87 1283.75 1043.37 1297.5 1015.87 1311.25Z" fill="#E10362"/><text fill="#006F7F" font-family="Consolas,Consolas_MSFontService,sans-serif" font-weight="400" font-size="55" transform="matrix(1 0 0 1 2718.65 672)">…</text><rect x="2539.5" y="749.5" width="390" height="130" stroke="#006F7F" stroke-width="9.16667" stroke-linejoin="round" stroke-miterlimit="10" fill="none"/><text fill="#006F7F" font-family="Consolas,Consolas_MSFontService,sans-serif" font-weight="400" font-size="55" transform="matrix(1 0 0 1 2673.1 833)">1.25</text><rect x="2539.5" y="910.5" width="390" height="130" stroke="#006F7F" stroke-width="9.16667" stroke-linejoin="round" stroke-miterlimit="10" fill="none"/><text fill="#006F7F" font-family="Consolas,Consolas_MSFontService,sans-serif" font-weight="400" font-size="55" transform="matrix(1 0 0 1 2718.65 994)">…</text><rect x="2539.5" y="1071.5" width="390" height="130" stroke="#006F7F" stroke-width="9.16667" stroke-linejoin="round" stroke-miterlimit="10" fill="none"/><text fill="#006F7F" font-family="Consolas,Consolas_MSFontService,sans-serif" font-weight="400" font-size="55" transform="matrix(1 0 0 1 2718.65 1155)">…</text><rect x="2539.5" y="1232.5" width="390" height="130" stroke="#006F7F" stroke-width="9.16667" stroke-linejoin="round" stroke-miterlimit="10" fill="none"/><text fill="#006F7F" font-family="Consolas,Consolas_MSFontService,sans-serif" font-weight="400" font-size="55" transform="matrix(1 0 0 1 2673.1 1316)">1.25</text><text fill="#006F7F" font-family="Consolas,Consolas_MSFontService,sans-serif" font-weight="400" font-size="55" transform="matrix(1 0 0 1 2718.65 1477)">…</text><text fill="#E10362" font-family="Consolas,Consolas_MSFontService,sans-serif" font-weight="400" font-size="55" transform="matrix(1 0 0 1 2074.36 833)">a</text><text fill="#E10362" font-family="Consolas,Consolas_MSFontService,sans-serif" font-weight="400" font-size="55" transform="matrix(1 0 0 1 2074.36 1316)">b</text><path d="M2187.5 811.062 2424.46 811.063 2424.46 817.938 2187.5 817.937ZM2419.87 800.75 2447.37 814.5 2419.87 828.25Z" fill="#E10362"/><path d="M2.7475-2.06583 248.847 325.239 243.352 329.37-2.7475 2.06583ZM254.335 315.378 259.871 345.621 232.355 331.905Z" fill="#E10362" transform="matrix(1 0 0 -1 2187.5 1220.12)"/><path d="M0 0 285.859 89.729" stroke="#E10362" stroke-width="3.4375" stroke-linejoin="round" stroke-miterlimit="10" fill="none" fill-rule="evenodd" transform="matrix(1 0 0 -1 2593.5 1339.23)"/><path d="M2593.5 1249.5 2879.36 1339.23" stroke="#E10362" stroke-width="3.4375" stroke-linejoin="round" stroke-miterlimit="10" fill="none" fill-rule="evenodd"/><text fill="#A6A6A6" font-family="Calibri,Calibri_MSFontService,sans-serif" font-weight="400" font-size="46" transform="matrix(1 0 0 1 1538.52 792)">id</text><text fill="#A6A6A6" font-family="Calibri,Calibri_MSFontService,sans-serif" font-weight="400" font-size="46" transform="matrix(1 0 0 1 1583.21 792)">0x123456</text><text fill="#A6A6A6" font-family="Calibri,Calibri_MSFontService,sans-serif" font-weight="400" font-size="46" transform="matrix(1 0 0 1 1538.52 953)">id</text><text fill="#A6A6A6" font-family="Calibri,Calibri_MSFontService,sans-serif" font-weight="400" font-size="46" transform="matrix(1 0 0 1 1583.21 953)">0x123457</text><text fill="#A6A6A6" font-family="Calibri,Calibri_MSFontService,sans-serif" font-weight="400" font-size="46" transform="matrix(1 0 0 1 1538.52 1114)">id</text><text fill="#A6A6A6" font-family="Calibri,Calibri_MSFontService,sans-serif" font-weight="400" font-size="46" transform="matrix(1 0 0 1 1583.21 1114)">0x123458</text><text fill="#A6A6A6" font-family="Calibri,Calibri_MSFontService,sans-serif" font-weight="400" font-size="46" transform="matrix(1 0 0 1 1538.52 1273)">id</text><text fill="#A6A6A6" font-family="Calibri,Calibri_MSFontService,sans-serif" font-weight="400" font-size="46" transform="matrix(1 0 0 1 1583.21 1273)">0x123459</text><text fill="#A6A6A6" font-family="Calibri,Calibri_MSFontService,sans-serif" font-weight="400" font-size="46" transform="matrix(1 0 0 1 2942.95 792)">id</text><text fill="#A6A6A6" font-family="Calibri,Calibri_MSFontService,sans-serif" font-weight="400" font-size="46" transform="matrix(1 0 0 1 2987.63 792)">0x123456</text><text fill="#A6A6A6" font-family="Calibri,Calibri_MSFontService,sans-serif" font-weight="400" font-size="46" transform="matrix(1 0 0 1 2942.95 953)">id</text><text fill="#A6A6A6" font-family="Calibri,Calibri_MSFontService,sans-serif" font-weight="400" font-size="46" transform="matrix(1 0 0 1 2987.63 953)">0x123457</text><text fill="#A6A6A6" font-family="Calibri,Calibri_MSFontService,sans-serif" font-weight="400" font-size="46" transform="matrix(1 0 0 1 2942.95 1114)">id</text><text fill="#A6A6A6" font-family="Calibri,Calibri_MSFontService,sans-serif" font-weight="400" font-size="46" transform="matrix(1 0 0 1 2987.63 1114)">0x123458</text><text fill="#A6A6A6" font-family="Calibri,Calibri_MSFontService,sans-serif" font-weight="400" font-size="46" transform="matrix(1 0 0 1 2942.95 1273)">id</text><text fill="#A6A6A6" font-family="Calibri,Calibri_MSFontService,sans-serif" font-weight="400" font-size="46" transform="matrix(1 0 0 1 2987.63 1273)">0x123459</text></g></svg>