<svg width="2960" height="1290" xmlns="http://www.w3.org/2000/svg" xmlns:xlink="http://www.w3.org/1999/xlink" xml:space="preserve" overflow="hidden"><g transform="translate(-751 -871)"><rect x="775.5" y="1066.5" width="894" height="352" stroke="#006F7F" stroke-width="9.16667" stroke-linejoin="round" stroke-miterlimit="10" fill="#006F7F"/><text fill="#FFFFFF" font-family="Calibri,Calibri_MSFontService,sans-serif" font-weight="400" font-size="124" transform="matrix(1 0 0 1 939.471 1209)">Deskriptive </text><text fill="#FFFFFF" font-family="Calibri,Calibri_MSFontService,sans-serif" font-weight="400" font-size="124" transform="matrix(1 0 0 1 1027.13 1345)">Analyse</text><rect x="775.5" y="1418.5" width="894" height="549" stroke="#CBD5D8" stroke-width="9.16667" stroke-linejoin="round" stroke-miterlimit="10" stroke-opacity="0.901961" fill="#CBD5D8" fill-opacity="0.901961"/><text font-family="Calibri,Calibri_MSFontService,sans-serif" font-weight="400" font-size="124" transform="matrix(1 0 0 1 826.812 1573)">•</text><text font-family="Calibri,Calibri_MSFontService,sans-serif" font-weight="400" font-size="124" transform="matrix(1 0 0 1 909.312 1573)">Was ist </text><text font-family="Calibri,Calibri_MSFontService,sans-serif" font-weight="400" font-size="124" transform="matrix(1 0 0 1 909.312 1709)">passiert</text><text font-family="Calibri,Calibri_MSFontService,sans-serif" font-weight="400" font-size="124" transform="matrix(1 0 0 1 1304.99 1709)">?</text><rect x="1794.5" y="1066.5" width="893" height="352" stroke="#006F7F" stroke-width="9.16667" stroke-linejoin="round" stroke-miterlimit="10" fill="#006F7F"/><text fill="#FFFFFF" font-family="Calibri,Calibri_MSFontService,sans-serif" font-weight="400" font-size="124" transform="matrix(1 0 0 1 1892.33 1209)">Diagnostische </text><text fill="#FFFFFF" font-family="Calibri,Calibri_MSFontService,sans-serif" font-weight="400" font-size="124" transform="matrix(1 0 0 1 2046.01 1345)">Analyse</text><rect x="1794.5" y="1418.5" width="893" height="549" stroke="#CBD5D8" stroke-width="9.16667" stroke-linejoin="round" stroke-miterlimit="10" stroke-opacity="0.901961" fill="#CBD5D8" fill-opacity="0.901961"/><text font-family="Calibri,Calibri_MSFontService,sans-serif" font-weight="400" font-size="124" transform="matrix(1 0 0 1 1845.69 1573)">•</text><text font-family="Calibri,Calibri_MSFontService,sans-serif" font-weight="400" font-size="124" transform="matrix(1 0 0 1 1928.19 1573)">Warum ist </text><text font-family="Calibri,Calibri_MSFontService,sans-serif" font-weight="400" font-size="124" transform="matrix(1 0 0 1 1928.19 1709)">etwas </text><text font-family="Calibri,Calibri_MSFontService,sans-serif" font-weight="400" font-size="124" transform="matrix(1 0 0 1 1928.19 1845)">passiert</text><text font-family="Calibri,Calibri_MSFontService,sans-serif" font-weight="400" font-size="124" transform="matrix(1 0 0 1 2323.87 1845)">?</text><rect x="2813.5" y="1066.5" width="893" height="352" stroke="#006F7F" stroke-width="9.16667" stroke-linejoin="round" stroke-miterlimit="10" fill="#006F7F"/><text fill="#FFFFFF" font-family="Calibri,Calibri_MSFontService,sans-serif" font-weight="400" font-size="124" transform="matrix(1 0 0 1 3009.96 1209)">Prädiktive </text><text fill="#FFFFFF" font-family="Calibri,Calibri_MSFontService,sans-serif" font-weight="400" font-size="124" transform="matrix(1 0 0 1 3064.89 1345)">Analyse</text><rect x="2813.5" y="1418.5" width="893" height="549" stroke="#CBD5D8" stroke-width="9.16667" stroke-linejoin="round" stroke-miterlimit="10" stroke-opacity="0.901961" fill="#CBD5D8" fill-opacity="0.901961"/><text font-family="Calibri,Calibri_MSFontService,sans-serif" font-weight="400" font-size="124" transform="matrix(1 0 0 1 2864.56 1573)">•</text><text font-family="Calibri,Calibri_MSFontService,sans-serif" font-weight="400" font-size="124" transform="matrix(1 0 0 1 2947.06 1573)">Was wird </text><text font-family="Calibri,Calibri_MSFontService,sans-serif" font-weight="400" font-size="124" transform="matrix(1 0 0 1 2947.06 1709)">passieren</text><text font-family="Calibri,Calibri_MSFontService,sans-serif" font-weight="400" font-size="124" transform="matrix(1 0 0 1 3426.25 1709)">?</text></g></svg>