<svg width="3669" height="776" xmlns="http://www.w3.org/2000/svg" xmlns:xlink="http://www.w3.org/1999/xlink" xml:space="preserve" overflow="hidden"><g transform="translate(-147 -588)"><text fill="#A6A6A6" font-family="Consolas,Consolas_MSFontService,sans-serif" font-weight="400" font-size="55" transform="matrix(1 0 0 1 873.562 672)">…</text><rect x="694.5" y="749.5" width="390" height="130" stroke="#A6A6A6" stroke-width="9.16667" stroke-linejoin="round" stroke-miterlimit="10" fill="none"/><text fill="#A6A6A6" font-family="Consolas,Consolas_MSFontService,sans-serif" font-weight="400" font-size="55" transform="matrix(1 0 0 1 873.562 833)">1</text><rect x="694.5" y="910.5" width="390" height="130" stroke="#A6A6A6" stroke-width="9.16667" stroke-linejoin="round" stroke-miterlimit="10" fill="none"/><text fill="#A6A6A6" font-family="Consolas,Consolas_MSFontService,sans-serif" font-weight="400" font-size="55" transform="matrix(1 0 0 1 873.562 994)">2</text><rect x="694.5" y="1071.5" width="390" height="130" stroke="#A6A6A6" stroke-width="9.16667" stroke-linejoin="round" stroke-miterlimit="10" fill="none"/><text fill="#A6A6A6" font-family="Consolas,Consolas_MSFontService,sans-serif" font-weight="400" font-size="55" transform="matrix(1 0 0 1 873.562 1155)">3</text><text fill="#A6A6A6" font-family="Consolas,Consolas_MSFontService,sans-serif" font-weight="400" font-size="55" transform="matrix(1 0 0 1 873.562 1316)">…</text><text fill="#E10362" font-family="Consolas,Consolas_MSFontService,sans-serif" font-weight="400" font-size="55" transform="matrix(1 0 0 1 229.275 833)">a</text><path d="M342.5 811.062 579.455 811.063 579.455 817.938 342.5 817.937ZM574.871 800.75 602.371 814.5 574.871 828.25Z" fill="#E10362"/><text fill="#A6A6A6" font-family="Consolas,Consolas_MSFontService,sans-serif" font-weight="400" font-size="55" transform="matrix(1 0 0 1 2224.89 672)">…</text><rect x="2045.5" y="749.5" width="390" height="130" stroke="#A6A6A6" stroke-width="9.16667" stroke-linejoin="round" stroke-miterlimit="10" fill="none"/><text fill="#A6A6A6" font-family="Consolas,Consolas_MSFontService,sans-serif" font-weight="400" font-size="55" transform="matrix(1 0 0 1 2224.89 833)">1</text><rect x="2045.5" y="910.5" width="390" height="130" stroke="#A6A6A6" stroke-width="9.16667" stroke-linejoin="round" stroke-miterlimit="10" fill="none"/><text fill="#A6A6A6" font-family="Consolas,Consolas_MSFontService,sans-serif" font-weight="400" font-size="55" transform="matrix(1 0 0 1 2224.89 994)">2</text><rect x="2045.5" y="1071.5" width="390" height="130" stroke="#A6A6A6" stroke-width="9.16667" stroke-linejoin="round" stroke-miterlimit="10" fill="none"/><text fill="#A6A6A6" font-family="Consolas,Consolas_MSFontService,sans-serif" font-weight="400" font-size="55" transform="matrix(1 0 0 1 2224.89 1155)">3</text><text fill="#A6A6A6" font-family="Consolas,Consolas_MSFontService,sans-serif" font-weight="400" font-size="55" transform="matrix(1 0 0 1 2224.89 1316)">…</text><text fill="#E10362" font-family="Consolas,Consolas_MSFontService,sans-serif" font-weight="400" font-size="55" transform="matrix(1 0 0 1 1580.61 833)">a</text><text fill="#E10362" font-family="Consolas,Consolas_MSFontService,sans-serif" font-weight="400" font-size="55" transform="matrix(1 0 0 1 1580.61 984)">b</text><path d="M1693.5 811.062 1930.45 811.063 1930.45 817.938 1693.5 817.937ZM1925.87 800.75 1953.37 814.5 1925.87 828.25Z" fill="#E10362"/><path d="M1.1355-3.24454 239.377 80.1333 237.106 86.6224-1.1355 3.24454ZM238.457 68.8856 259.871 90.9478 229.373 94.8419Z" fill="#E10362" transform="matrix(1 0 0 -1 1693.5 965.448)"/><text fill="#A6A6A6" font-family="Consolas,Consolas_MSFontService,sans-serif" font-weight="400" font-size="55" transform="matrix(1 0 0 1 3601.14 672)">…</text><rect x="3421.5" y="749.5" width="390" height="130" stroke="#A6A6A6" stroke-width="9.16667" stroke-linejoin="round" stroke-miterlimit="10" fill="none"/><text fill="#A6A6A6" font-family="Consolas,Consolas_MSFontService,sans-serif" font-weight="400" font-size="55" transform="matrix(1 0 0 1 3601.14 833)">1</text><rect x="3421.5" y="910.5" width="390" height="130" stroke="#A6A6A6" stroke-width="9.16667" stroke-linejoin="round" stroke-miterlimit="10" fill="none"/><text fill="#A6A6A6" font-family="Consolas,Consolas_MSFontService,sans-serif" font-weight="700" font-size="55" transform="matrix(1 0 0 1 3585.96 994)">99</text><rect x="3421.5" y="1071.5" width="390" height="130" stroke="#A6A6A6" stroke-width="9.16667" stroke-linejoin="round" stroke-miterlimit="10" fill="none"/><text fill="#A6A6A6" font-family="Consolas,Consolas_MSFontService,sans-serif" font-weight="400" font-size="55" transform="matrix(1 0 0 1 3601.14 1155)">3</text><text fill="#A6A6A6" font-family="Consolas,Consolas_MSFontService,sans-serif" font-weight="400" font-size="55" transform="matrix(1 0 0 1 3601.14 1316)">…</text><text fill="#E10362" font-family="Consolas,Consolas_MSFontService,sans-serif" font-weight="400" font-size="55" transform="matrix(1 0 0 1 2956.85 833)">a</text><text fill="#E10362" font-family="Consolas,Consolas_MSFontService,sans-serif" font-weight="400" font-size="55" transform="matrix(1 0 0 1 2956.85 984)">b</text><path d="M3069.5 811.062 3306.45 811.063 3306.45 817.938 3069.5 817.937ZM3301.87 800.75 3329.37 814.5 3301.87 828.25Z" fill="#E10362"/><path d="M1.1355-3.24454 239.377 80.1333 237.106 86.6224-1.1355 3.24454ZM238.457 68.8856 259.871 90.9478 229.373 94.8419Z" fill="#E10362" transform="matrix(1 0 0 -1 3069.5 965.448)"/></g></svg>