<svg width="2193" height="1113" xmlns="http://www.w3.org/2000/svg" xmlns:xlink="http://www.w3.org/1999/xlink" xml:space="preserve" overflow="hidden"><g transform="translate(-1701 -588)"><rect x="1705.5" y="1244.5" width="780" height="130" stroke="#E10362" stroke-width="9.16667" stroke-linejoin="round" stroke-miterlimit="10" fill="none"/><text fill="#E10362" font-family="Consolas,Consolas_MSFontService,sans-serif" font-weight="400" font-size="55" transform="matrix(1 0 0 1 1912.7 1328)">Liste</text><text fill="#E10362" font-family="Consolas,Consolas_MSFontService,sans-serif" font-weight="400" font-size="55" transform="matrix(1 0 0 1 2094.89 1328)">(</text><text fill="#E10362" font-family="Consolas,Consolas_MSFontService,sans-serif" font-weight="400" font-size="55" transform="matrix(1 0 0 1 2125.26 1328)">L</text><text fill="#E10362" font-family="Consolas,Consolas_MSFontService,sans-serif" font-weight="400" font-size="55" transform="matrix(1 0 0 1 2155.62 1328)">ist</text><text fill="#E10362" font-family="Consolas,Consolas_MSFontService,sans-serif" font-weight="400" font-size="55" transform="matrix(1 0 0 1 2246.71 1328)">)</text><rect x="1705.5" y="1405.5" width="780" height="130" stroke="#E10362" stroke-width="9.16667" stroke-linejoin="round" stroke-miterlimit="10" fill="none"/><text fill="#E10362" font-family="Consolas,Consolas_MSFontService,sans-serif" font-weight="400" font-size="55" transform="matrix(1 0 0 1 1943.07 1489)">Dictionary</text><rect x="1705.5" y="1566.5" width="780" height="130" stroke="#E10362" stroke-width="9.16667" stroke-linejoin="round" stroke-miterlimit="10" fill="none"/><text fill="#E10362" font-family="Consolas,Consolas_MSFontService,sans-serif" font-weight="400" font-size="55" transform="matrix(1 0 0 1 1927.89 1650)">Menge</text><text fill="#E10362" font-family="Consolas,Consolas_MSFontService,sans-serif" font-weight="400" font-size="55" transform="matrix(1 0 0 1 2110.07 1650)">(</text><text fill="#E10362" font-family="Consolas,Consolas_MSFontService,sans-serif" font-weight="400" font-size="55" transform="matrix(1 0 0 1 2140.44 1650)">S</text><text fill="#E10362" font-family="Consolas,Consolas_MSFontService,sans-serif" font-weight="400" font-size="55" transform="matrix(1 0 0 1 2170.8 1650)">et)</text><rect x="3110.5" y="1244.5" width="779" height="130" stroke="#006F7F" stroke-width="9.16667" stroke-linejoin="round" stroke-miterlimit="10" fill="none"/><text fill="#006F7F" font-family="Consolas,Consolas_MSFontService,sans-serif" font-weight="400" font-size="55" transform="matrix(1 0 0 1 3180.49 1328)">Zeichenkette</text><text fill="#006F7F" font-family="Consolas,Consolas_MSFontService,sans-serif" font-weight="400" font-size="55" transform="matrix(1 0 0 1 3575.22 1328)">(</text><text fill="#006F7F" font-family="Consolas,Consolas_MSFontService,sans-serif" font-weight="400" font-size="55" transform="matrix(1 0 0 1 3605.59 1328)">S</text><text fill="#006F7F" font-family="Consolas,Consolas_MSFontService,sans-serif" font-weight="400" font-size="55" transform="matrix(1 0 0 1 3635.95 1328)">tring)</text><rect x="3110.5" y="1405.5" width="779" height="130" stroke="#006F7F" stroke-width="9.16667" stroke-linejoin="round" stroke-miterlimit="10" fill="none"/><text fill="#006F7F" font-family="Consolas,Consolas_MSFontService,sans-serif" font-weight="400" font-size="55" transform="matrix(1 0 0 1 3301.94 1489)">Tupel (</text><text fill="#006F7F" font-family="Consolas,Consolas_MSFontService,sans-serif" font-weight="400" font-size="55" transform="matrix(1 0 0 1 3514.5 1489)">T</text><text fill="#006F7F" font-family="Consolas,Consolas_MSFontService,sans-serif" font-weight="400" font-size="55" transform="matrix(1 0 0 1 3544.86 1489)">uple</text><text fill="#006F7F" font-family="Consolas,Consolas_MSFontService,sans-serif" font-weight="400" font-size="55" transform="matrix(1 0 0 1 3666.32 1489)">)</text><rect x="3110.5" y="1566.5" width="779" height="130" stroke="#006F7F" stroke-width="9.16667" stroke-linejoin="round" stroke-miterlimit="10" fill="none"/><text fill="#006F7F" font-family="Consolas,Consolas_MSFontService,sans-serif" font-weight="400" font-size="55" transform="matrix(1 0 0 1 3347.49 1650)">Frozen</text><text fill="#006F7F" font-family="Consolas,Consolas_MSFontService,sans-serif" font-weight="400" font-size="55" transform="matrix(1 0 0 1 3560.04 1650)">S</text><text fill="#006F7F" font-family="Consolas,Consolas_MSFontService,sans-serif" font-weight="400" font-size="55" transform="matrix(1 0 0 1 3590.41 1650)">et</text><text fill="#E10362" font-family="Consolas,Consolas_MSFontService,sans-serif" font-weight="400" font-size="55" transform="matrix(1 0 0 1 1927.89 1062)">veränderbar</text><text fill="#E10362" font-family="Consolas,Consolas_MSFontService,sans-serif" font-weight="400" font-size="55" transform="matrix(1 0 0 1 1958.25 1128)">(mutable)</text><text fill="#006F7F" font-family="Consolas,Consolas_MSFontService,sans-serif" font-weight="400" font-size="55" transform="matrix(1 0 0 1 3301.94 1062)">unveränderbar</text><text fill="#006F7F" font-family="Consolas,Consolas_MSFontService,sans-serif" font-weight="400" font-size="55" transform="matrix(1 0 0 1 3332.31 1128)">(</text><text fill="#006F7F" font-family="Consolas,Consolas_MSFontService,sans-serif" font-weight="400" font-size="55" transform="matrix(1 0 0 1 3362.67 1128)">immutable</text><text fill="#006F7F" font-family="Consolas,Consolas_MSFontService,sans-serif" font-weight="400" font-size="55" transform="matrix(1 0 0 1 3635.95 1128)">)</text><text fill="#A6A6A6" font-family="Consolas,Consolas_MSFontService,sans-serif" font-weight="700" font-size="55" transform="matrix(1 0 0 1 2645.28 671)">Datentypen</text><text fill="#A6A6A6" font-family="Consolas,Consolas_MSFontService,sans-serif" font-weight="700" font-size="55" transform="matrix(1 0 0 1 2614.91 737)">(Data</text><text fill="#A6A6A6" font-family="Consolas,Consolas_MSFontService,sans-serif" font-weight="700" font-size="55" transform="matrix(1 0 0 1 2797.1 737)">Types</text><text fill="#A6A6A6" font-family="Consolas,Consolas_MSFontService,sans-serif" font-weight="700" font-size="55" transform="matrix(1 0 0 1 2948.92 737)">)</text><path d="M0-1.71875 102.901-1.71875C103.85-1.71875 104.619-0.949239 104.619 0L104.619 702.211 102.901 700.493 182.884 700.493 182.884 703.93 102.901 703.93C101.951 703.93 101.182 703.161 101.182 702.211L101.182 0 102.901 1.71875 0 1.71875ZM178.301 688.461 205.801 702.211 178.301 715.961Z" fill="#A6A6A6" transform="matrix(1.83697e-16 1 1 -1.83697e-16 2797.5 783.5)"/><path d="M2799.43 783.5 2799.43 886.401C2799.43 887.35 2798.66 888.119 2797.71 888.119L2095.5 888.119 2097.22 886.401 2097.22 966.384 2093.78 966.384 2093.78 886.401C2093.78 885.451 2094.55 884.682 2095.5 884.682L2797.71 884.682 2795.99 886.401 2795.99 783.5ZM2109.25 961.801 2095.5 989.301 2081.75 961.801Z" fill="#A6A6A6"/></g></svg>