<svg width="1677" height="1236" xmlns="http://www.w3.org/2000/svg" xmlns:xlink="http://www.w3.org/1999/xlink" xml:space="preserve" overflow="hidden"><defs><clipPath id="clip0"><rect x="253" y="786" width="1677" height="1236"/></clipPath></defs><g clip-path="url(#clip0)" transform="translate(-253 -786)"><path d="M1033 1140 1481.5 971 1930 1140 1481.5 1309Z" fill="#006F7F" fill-rule="evenodd"/><text fill="#FFFFFF" font-family="Consolas,Consolas_MSFontService,sans-serif" font-weight="700" font-size="73" transform="matrix(1 0 0 1 1300.97 1165)">Bedingung</text><rect x="253" y="1042" width="330" height="195" fill="#006F7F"/><text fill="#FFFFFF" font-family="Consolas,Consolas_MSFontService,sans-serif" font-style="italic" font-weight="700" font-size="73" transform="matrix(1 0 0 1 357.413 1165)">...</text><rect x="1316" y="1614" width="330" height="195" fill="#006F7F"/><text fill="#FFFFFF" font-family="Consolas,Consolas_MSFontService,sans-serif" font-style="italic" font-weight="700" font-size="73" transform="matrix(1 0 0 1 1421.28 1737)">...</text><path d="M1487.23 786.5 1487.23 942.473 1475.77 942.473 1475.77 786.5ZM1498.69 936.743 1481.5 971.118 1464.31 936.744Z" fill="#006F7F"/><text fill="#E10362" font-family="Consolas,Consolas_MSFontService,sans-serif" font-weight="400" font-size="83" transform="matrix(1 0 0 1 883.733 1262)">True</text><text fill="#E10362" font-family="Consolas,Consolas_MSFontService,sans-serif" font-weight="400" font-size="83" transform="matrix(1 0 0 1 1529.5 1394)">False</text><path d="M1487.23 1309.5 1487.23 1586.28 1475.77 1586.28 1475.77 1309.5ZM1498.69 1580.55 1481.5 1614.92 1464.31 1580.55Z" fill="#006F7F"/><path d="M4.59322e-06-5.72917 421.499-5.72883 421.499 5.7295-4.59322e-06 5.72917ZM415.77-17.1872 450.145 0.000360892 415.77 17.1878Z" fill="#006F7F" transform="matrix(-1 0 0 1 1033.64 1140.5)"/><path d="M412.771 1042.98 412.771 889C412.771 885.836 415.336 883.271 418.5 883.271L1482.37 883.271C1485.53 883.271 1488.1 885.836 1488.1 889L1488.1 942.854 1476.64 942.854 1476.64 889 1482.37 894.729 418.5 894.729 424.229 889 424.229 1042.98ZM1499.56 937.125 1482.37 971.5 1465.18 937.125Z" fill="#006F7F"/><path d="M1487.23 1809.5 1487.23 1959.95 1475.77 1959.95 1475.77 1809.5ZM1498.69 1954.22 1481.5 1988.6 1464.31 1954.22Z" fill="#006F7F"/><path d="M924.359 1050.78 920.868 1056.44 916.571 1062.1 911.799 1067.23 906.601 1071.81 901.027 1075.82 895.127 1079.26 888.949 1082.09 882.542 1084.32 875.953 1085.93 869.228 1086.91 862.415 1087.24 855.561 1086.9 848.716 1085.88 841.927 1084.18 835.247 1081.77 828.727 1078.64 822.556 1074.87 816.896 1070.57 811.768 1065.8 807.19 1060.6 803.177 1055.03 799.745 1049.13 796.907 1042.95 794.676 1036.54 793.066 1029.95 792.091 1023.23 791.765 1016.41 792.102 1009.56 793.116 1002.72 794.822 995.927 797.233 989.247 800.362 982.727 804.132 976.556 808.429 970.896 813.201 965.768 818.399 961.19 823.973 957.177 829.873 953.745 836.051 950.907 842.458 948.676 849.047 947.066 855.772 946.091 862.585 945.765 869.439 946.102 876.284 947.116 883.073 948.822 889.753 951.233 896.273 954.362C896.786 954.612 897.26 954.936 897.677 955.325L902.693 959.995 894.884 968.381 889.869 963.71 891.273 964.673 885.818 961.995 880.235 959.923 874.56 958.444 868.832 957.544 863.089 957.212 857.373 957.437 851.724 958.208 846.184 959.512 840.794 961.337 835.596 963.672 830.63 966.503 825.938 969.819 821.557 973.608 817.527 977.861 813.886 982.569 810.673 987.727 807.995 993.182 805.923 998.765 804.444 1004.44 803.544 1010.17 803.212 1015.91 803.437 1021.63 804.208 1027.28 805.512 1032.82 807.337 1038.21 809.672 1043.4 812.503 1048.37 815.819 1053.06 819.608 1057.44 823.861 1061.47 828.569 1065.11 833.727 1068.33 839.182 1071 844.765 1073.08 850.44 1074.56 856.168 1075.46 861.911 1075.79 867.627 1075.56 873.276 1074.79 878.816 1073.49 884.206 1071.66 889.404 1069.33 894.37 1066.5 899.062 1063.18 903.443 1059.39 907.473 1055.14 911.114 1050.43 914.605 1044.77ZM906.89 947.983 919.045 984.443 882.584 972.291Z" fill="#006F7F"/></g></svg>