<svg width="4063" height="1176" xmlns="http://www.w3.org/2000/svg" xmlns:xlink="http://www.w3.org/1999/xlink" xml:space="preserve" overflow="hidden"><g transform="translate(-297 -528)"><path d="M3161 1294 3609.5 1125 4058 1294 3609.5 1463Z" fill="#006F7F" fill-rule="evenodd"/><text fill="#FFFFFF" font-family="Consolas,Consolas_MSFontService,sans-serif" font-weight="700" font-size="73" transform="matrix(1 0 0 1 3428.89 1275)">Bedingung </text><text fill="#FFFFFF" font-family="Consolas,Consolas_MSFontService,sans-serif" font-weight="700" font-size="73" transform="matrix(1 0 0 1 3589.3 1363)">2</text><path d="M537 828 985.5 659 1434 828 985.5 997Z" fill="#006F7F" fill-rule="evenodd"/><text fill="#FFFFFF" font-family="Consolas,Consolas_MSFontService,sans-serif" font-weight="700" font-size="73" transform="matrix(1 0 0 1 805.078 853)">Bedingung</text><rect x="303" y="1134" width="330" height="195" fill="#006F7F"/><text fill="#FFFFFF" font-family="Consolas,Consolas_MSFontService,sans-serif" font-style="italic" font-weight="700" font-size="73" transform="matrix(1 0 0 1 407.782 1257)">...</text><rect x="1342" y="1134" width="330" height="195" fill="#006F7F"/><text fill="#FFFFFF" font-family="Consolas,Consolas_MSFontService,sans-serif" font-style="italic" font-weight="700" font-size="73" transform="matrix(1 0 0 1 1447.27 1257)">...</text><path d="M1434.5 822.771 1507.65 822.771C1510.82 822.771 1513.38 825.336 1513.38 828.5L1513.38 1106.11 1501.93 1106.11 1501.93 828.5 1507.65 834.229 1434.5 834.229ZM1524.84 1100.38 1507.65 1134.76 1490.47 1100.38Z" fill="#006F7F"/><path d="M0-5.72917 68.8843-5.72917C72.0484-5.72917 74.6134-3.16413 74.6134 0L74.6134 277.614 63.1551 277.614 63.1551 0 68.8843 5.72917 0 5.72917ZM86.0718 271.884 68.8843 306.259 51.6968 271.884Z" fill="#006F7F" transform="matrix(-1 1.22465e-16 1.22465e-16 1 537.384 828.5)"/><path d="M992.229 529.5 992.229 630.79 980.771 630.79 980.771 529.5ZM1003.69 625.061 986.5 659.436 969.313 625.061Z" fill="#006F7F"/><path d="M2636 827 3084.5 658 3533 827 3084.5 996Z" fill="#006F7F" fill-rule="evenodd"/><text fill="#FFFFFF" font-family="Consolas,Consolas_MSFontService,sans-serif" font-weight="700" font-size="73" transform="matrix(1 0 0 1 2903.8 808)">Bedingung </text><text fill="#FFFFFF" font-family="Consolas,Consolas_MSFontService,sans-serif" font-weight="700" font-size="73" transform="matrix(1 0 0 1 3064.22 896)">1</text><rect x="2402" y="1134" width="330" height="194" fill="#006F7F"/><text fill="#FFFFFF" font-family="Consolas,Consolas_MSFontService,sans-serif" font-style="italic" font-weight="700" font-size="73" transform="matrix(1 0 0 1 2506.5 1256)">...</text><rect x="2919" y="1509" width="330" height="195" fill="#006F7F"/><text fill="#FFFFFF" font-family="Consolas,Consolas_MSFontService,sans-serif" font-style="italic" font-weight="700" font-size="73" transform="matrix(1 0 0 1 3024.11 1631)">...</text><path d="M0-5.72917 76.3619-5.72917C79.526-5.72917 82.091-3.16413 82.091 0L82.091 186.294 70.6327 186.294 70.6327 0 76.3619 5.72917 0 5.72917ZM93.5494 180.565 76.3619 214.94 59.1744 180.565Z" fill="#006F7F" transform="matrix(-1 1.22465e-16 1.22465e-16 1 3160.86 1294.5)"/><path d="M0-5.72917 68.8843-5.72917C72.0484-5.72917 74.6134-3.16413 74.6134 0L74.6134 277.614 63.1551 277.614 63.1551 0 68.8843 5.72917 0 5.72917ZM86.0718 271.884 68.8843 306.259 51.6968 271.884Z" fill="#006F7F" transform="matrix(-1 1.22465e-16 1.22465e-16 1 2636.38 827.5)"/><path d="M3090.23 528.5 3090.23 629.79 3078.77 629.79 3078.77 528.5ZM3101.69 624.06 3084.5 658.436 3067.31 624.061Z" fill="#006F7F"/><path d="M3533.5 821.771 3609.86 821.771C3613.03 821.771 3615.59 824.336 3615.59 827.5L3615.59 1096.47 3604.14 1096.47 3604.14 827.5 3609.86 833.229 3533.5 833.229ZM3627.05 1090.74 3609.86 1125.11 3592.68 1090.74Z" fill="#006F7F"/><rect x="3958" y="1509" width="330" height="195" fill="#006F7F"/><text fill="#FFFFFF" font-family="Consolas,Consolas_MSFontService,sans-serif" font-style="italic" font-weight="700" font-size="73" transform="matrix(1 0 0 1 4062.89 1631)">...</text><path d="M4058.5 1288.77 4123.47 1288.77C4126.63 1288.77 4129.2 1291.34 4129.2 1294.5L4129.2 1480.79 4117.74 1480.79 4117.74 1294.5 4123.47 1300.23 4058.5 1300.23ZM4140.66 1475.06 4123.47 1509.44 4106.28 1475.06Z" fill="#006F7F"/><text fill="#E10362" font-family="Consolas,Consolas_MSFontService,sans-serif" font-weight="400" font-size="83" transform="matrix(1 0 0 1 346.727 769)">True</text><text fill="#E10362" font-family="Consolas,Consolas_MSFontService,sans-serif" font-weight="400" font-size="83" transform="matrix(1 0 0 1 1468.03 769)">False</text><text fill="#E10362" font-family="Consolas,Consolas_MSFontService,sans-serif" font-weight="400" font-size="83" transform="matrix(1 0 0 1 2445.45 771)">True</text><text fill="#E10362" font-family="Consolas,Consolas_MSFontService,sans-serif" font-weight="400" font-size="83" transform="matrix(1 0 0 1 3551.33 771)">False</text><text fill="#E10362" font-family="Consolas,Consolas_MSFontService,sans-serif" font-weight="400" font-size="83" transform="matrix(1 0 0 1 4084.14 1246)">False</text><text fill="#E10362" font-family="Consolas,Consolas_MSFontService,sans-serif" font-weight="400" font-size="83" transform="matrix(1 0 0 1 2967.33 1246)">True</text></g></svg>