<?xml version="1.0" encoding="utf-8" standalone="no"?>
<!DOCTYPE svg PUBLIC "-//W3C//DTD SVG 1.1//EN"
  "http://www.w3.org/Graphics/SVG/1.1/DTD/svg11.dtd">
<svg xmlns:xlink="http://www.w3.org/1999/xlink" width="864pt" height="504pt" viewBox="0 0 864 504" xmlns="http://www.w3.org/2000/svg" version="1.1">
 <metadata>
  <rdf:RDF xmlns:dc="http://purl.org/dc/elements/1.1/" xmlns:cc="http://creativecommons.org/ns#" xmlns:rdf="http://www.w3.org/1999/02/22-rdf-syntax-ns#">
   <cc:Work>
    <dc:type rdf:resource="http://purl.org/dc/dcmitype/StillImage"/>
    <dc:date>2023-12-19T14:31:36.363333</dc:date>
    <dc:format>image/svg+xml</dc:format>
    <dc:creator>
     <cc:Agent>
      <dc:title>Matplotlib v3.8.0, https://matplotlib.org/</dc:title>
     </cc:Agent>
    </dc:creator>
   </cc:Work>
  </rdf:RDF>
 </metadata>
 <defs>
  <style type="text/css">*{stroke-linejoin: round; stroke-linecap: butt}</style>
 </defs>
 <g id="figure_1">
  <g id="patch_1">
   <path d="M 0 504 
L 864 504 
L 864 0 
L 0 0 
z
" style="fill: #ffffff"/>
  </g>
  <g id="axes_1">
   <g id="patch_2">
    <path d="M 108 236.88 
L 777.6 236.88 
L 777.6 60.48 
L 108 60.48 
z
" style="fill: #ffffff"/>
   </g>
   <g id="matplotlib.axis_1">
    <g id="xtick_1">
     <g id="line2d_1">
      <path d="M 138.436364 236.88 
L 138.436364 60.48 
" clip-path="url(#pb861f03f36)" style="fill: none; stroke: #b0b0b0; stroke-width: 0.8; stroke-linecap: square"/>
     </g>
     <g id="line2d_2">
      <defs>
       <path id="m849a51bdfb" d="M 0 0 
L 0 3.5 
" style="stroke: #000000; stroke-width: 0.8"/>
      </defs>
      <g>
       <use xlink:href="#m849a51bdfb" x="138.436364" y="236.88" style="stroke: #000000; stroke-width: 0.8"/>
      </g>
     </g>
     <g id="text_1">
      <!-- 0.000 -->
      <g transform="translate(124.122301 251.478437) scale(0.1 -0.1)">
       <defs>
        <path id="DejaVuSans-30" d="M 2034 4250 
Q 1547 4250 1301 3770 
Q 1056 3291 1056 2328 
Q 1056 1369 1301 889 
Q 1547 409 2034 409 
Q 2525 409 2770 889 
Q 3016 1369 3016 2328 
Q 3016 3291 2770 3770 
Q 2525 4250 2034 4250 
z
M 2034 4750 
Q 2819 4750 3233 4129 
Q 3647 3509 3647 2328 
Q 3647 1150 3233 529 
Q 2819 -91 2034 -91 
Q 1250 -91 836 529 
Q 422 1150 422 2328 
Q 422 3509 836 4129 
Q 1250 4750 2034 4750 
z
" transform="scale(0.015625)"/>
        <path id="DejaVuSans-2e" d="M 684 794 
L 1344 794 
L 1344 0 
L 684 0 
L 684 794 
z
" transform="scale(0.015625)"/>
       </defs>
       <use xlink:href="#DejaVuSans-30"/>
       <use xlink:href="#DejaVuSans-2e" x="63.623047"/>
       <use xlink:href="#DejaVuSans-30" x="95.410156"/>
       <use xlink:href="#DejaVuSans-30" x="159.033203"/>
       <use xlink:href="#DejaVuSans-30" x="222.65625"/>
      </g>
     </g>
    </g>
    <g id="xtick_2">
     <g id="line2d_3">
      <path d="M 215.735065 236.88 
L 215.735065 60.48 
" clip-path="url(#pb861f03f36)" style="fill: none; stroke: #b0b0b0; stroke-width: 0.8; stroke-linecap: square"/>
     </g>
     <g id="line2d_4">
      <g>
       <use xlink:href="#m849a51bdfb" x="215.735065" y="236.88" style="stroke: #000000; stroke-width: 0.8"/>
      </g>
     </g>
     <g id="text_2">
      <!-- 0.005 -->
      <g transform="translate(201.421002 251.478437) scale(0.1 -0.1)">
       <defs>
        <path id="DejaVuSans-35" d="M 691 4666 
L 3169 4666 
L 3169 4134 
L 1269 4134 
L 1269 2991 
Q 1406 3038 1543 3061 
Q 1681 3084 1819 3084 
Q 2600 3084 3056 2656 
Q 3513 2228 3513 1497 
Q 3513 744 3044 326 
Q 2575 -91 1722 -91 
Q 1428 -91 1123 -41 
Q 819 9 494 109 
L 494 744 
Q 775 591 1075 516 
Q 1375 441 1709 441 
Q 2250 441 2565 725 
Q 2881 1009 2881 1497 
Q 2881 1984 2565 2268 
Q 2250 2553 1709 2553 
Q 1456 2553 1204 2497 
Q 953 2441 691 2322 
L 691 4666 
z
" transform="scale(0.015625)"/>
       </defs>
       <use xlink:href="#DejaVuSans-30"/>
       <use xlink:href="#DejaVuSans-2e" x="63.623047"/>
       <use xlink:href="#DejaVuSans-30" x="95.410156"/>
       <use xlink:href="#DejaVuSans-30" x="159.033203"/>
       <use xlink:href="#DejaVuSans-35" x="222.65625"/>
      </g>
     </g>
    </g>
    <g id="xtick_3">
     <g id="line2d_5">
      <path d="M 293.033766 236.88 
L 293.033766 60.48 
" clip-path="url(#pb861f03f36)" style="fill: none; stroke: #b0b0b0; stroke-width: 0.8; stroke-linecap: square"/>
     </g>
     <g id="line2d_6">
      <g>
       <use xlink:href="#m849a51bdfb" x="293.033766" y="236.88" style="stroke: #000000; stroke-width: 0.8"/>
      </g>
     </g>
     <g id="text_3">
      <!-- 0.010 -->
      <g transform="translate(278.719704 251.478437) scale(0.1 -0.1)">
       <defs>
        <path id="DejaVuSans-31" d="M 794 531 
L 1825 531 
L 1825 4091 
L 703 3866 
L 703 4441 
L 1819 4666 
L 2450 4666 
L 2450 531 
L 3481 531 
L 3481 0 
L 794 0 
L 794 531 
z
" transform="scale(0.015625)"/>
       </defs>
       <use xlink:href="#DejaVuSans-30"/>
       <use xlink:href="#DejaVuSans-2e" x="63.623047"/>
       <use xlink:href="#DejaVuSans-30" x="95.410156"/>
       <use xlink:href="#DejaVuSans-31" x="159.033203"/>
       <use xlink:href="#DejaVuSans-30" x="222.65625"/>
      </g>
     </g>
    </g>
    <g id="xtick_4">
     <g id="line2d_7">
      <path d="M 370.332468 236.88 
L 370.332468 60.48 
" clip-path="url(#pb861f03f36)" style="fill: none; stroke: #b0b0b0; stroke-width: 0.8; stroke-linecap: square"/>
     </g>
     <g id="line2d_8">
      <g>
       <use xlink:href="#m849a51bdfb" x="370.332468" y="236.88" style="stroke: #000000; stroke-width: 0.8"/>
      </g>
     </g>
     <g id="text_4">
      <!-- 0.015 -->
      <g transform="translate(356.018405 251.478437) scale(0.1 -0.1)">
       <use xlink:href="#DejaVuSans-30"/>
       <use xlink:href="#DejaVuSans-2e" x="63.623047"/>
       <use xlink:href="#DejaVuSans-30" x="95.410156"/>
       <use xlink:href="#DejaVuSans-31" x="159.033203"/>
       <use xlink:href="#DejaVuSans-35" x="222.65625"/>
      </g>
     </g>
    </g>
    <g id="xtick_5">
     <g id="line2d_9">
      <path d="M 447.631169 236.88 
L 447.631169 60.48 
" clip-path="url(#pb861f03f36)" style="fill: none; stroke: #b0b0b0; stroke-width: 0.8; stroke-linecap: square"/>
     </g>
     <g id="line2d_10">
      <g>
       <use xlink:href="#m849a51bdfb" x="447.631169" y="236.88" style="stroke: #000000; stroke-width: 0.8"/>
      </g>
     </g>
     <g id="text_5">
      <!-- 0.020 -->
      <g transform="translate(433.317106 251.478437) scale(0.1 -0.1)">
       <defs>
        <path id="DejaVuSans-32" d="M 1228 531 
L 3431 531 
L 3431 0 
L 469 0 
L 469 531 
Q 828 903 1448 1529 
Q 2069 2156 2228 2338 
Q 2531 2678 2651 2914 
Q 2772 3150 2772 3378 
Q 2772 3750 2511 3984 
Q 2250 4219 1831 4219 
Q 1534 4219 1204 4116 
Q 875 4013 500 3803 
L 500 4441 
Q 881 4594 1212 4672 
Q 1544 4750 1819 4750 
Q 2544 4750 2975 4387 
Q 3406 4025 3406 3419 
Q 3406 3131 3298 2873 
Q 3191 2616 2906 2266 
Q 2828 2175 2409 1742 
Q 1991 1309 1228 531 
z
" transform="scale(0.015625)"/>
       </defs>
       <use xlink:href="#DejaVuSans-30"/>
       <use xlink:href="#DejaVuSans-2e" x="63.623047"/>
       <use xlink:href="#DejaVuSans-30" x="95.410156"/>
       <use xlink:href="#DejaVuSans-32" x="159.033203"/>
       <use xlink:href="#DejaVuSans-30" x="222.65625"/>
      </g>
     </g>
    </g>
    <g id="xtick_6">
     <g id="line2d_11">
      <path d="M 524.92987 236.88 
L 524.92987 60.48 
" clip-path="url(#pb861f03f36)" style="fill: none; stroke: #b0b0b0; stroke-width: 0.8; stroke-linecap: square"/>
     </g>
     <g id="line2d_12">
      <g>
       <use xlink:href="#m849a51bdfb" x="524.92987" y="236.88" style="stroke: #000000; stroke-width: 0.8"/>
      </g>
     </g>
     <g id="text_6">
      <!-- 0.025 -->
      <g transform="translate(510.615808 251.478437) scale(0.1 -0.1)">
       <use xlink:href="#DejaVuSans-30"/>
       <use xlink:href="#DejaVuSans-2e" x="63.623047"/>
       <use xlink:href="#DejaVuSans-30" x="95.410156"/>
       <use xlink:href="#DejaVuSans-32" x="159.033203"/>
       <use xlink:href="#DejaVuSans-35" x="222.65625"/>
      </g>
     </g>
    </g>
    <g id="xtick_7">
     <g id="line2d_13">
      <path d="M 602.228571 236.88 
L 602.228571 60.48 
" clip-path="url(#pb861f03f36)" style="fill: none; stroke: #b0b0b0; stroke-width: 0.8; stroke-linecap: square"/>
     </g>
     <g id="line2d_14">
      <g>
       <use xlink:href="#m849a51bdfb" x="602.228571" y="236.88" style="stroke: #000000; stroke-width: 0.8"/>
      </g>
     </g>
     <g id="text_7">
      <!-- 0.030 -->
      <g transform="translate(587.914509 251.478437) scale(0.1 -0.1)">
       <defs>
        <path id="DejaVuSans-33" d="M 2597 2516 
Q 3050 2419 3304 2112 
Q 3559 1806 3559 1356 
Q 3559 666 3084 287 
Q 2609 -91 1734 -91 
Q 1441 -91 1130 -33 
Q 819 25 488 141 
L 488 750 
Q 750 597 1062 519 
Q 1375 441 1716 441 
Q 2309 441 2620 675 
Q 2931 909 2931 1356 
Q 2931 1769 2642 2001 
Q 2353 2234 1838 2234 
L 1294 2234 
L 1294 2753 
L 1863 2753 
Q 2328 2753 2575 2939 
Q 2822 3125 2822 3475 
Q 2822 3834 2567 4026 
Q 2313 4219 1838 4219 
Q 1578 4219 1281 4162 
Q 984 4106 628 3988 
L 628 4550 
Q 988 4650 1302 4700 
Q 1616 4750 1894 4750 
Q 2613 4750 3031 4423 
Q 3450 4097 3450 3541 
Q 3450 3153 3228 2886 
Q 3006 2619 2597 2516 
z
" transform="scale(0.015625)"/>
       </defs>
       <use xlink:href="#DejaVuSans-30"/>
       <use xlink:href="#DejaVuSans-2e" x="63.623047"/>
       <use xlink:href="#DejaVuSans-30" x="95.410156"/>
       <use xlink:href="#DejaVuSans-33" x="159.033203"/>
       <use xlink:href="#DejaVuSans-30" x="222.65625"/>
      </g>
     </g>
    </g>
    <g id="xtick_8">
     <g id="line2d_15">
      <path d="M 679.527273 236.88 
L 679.527273 60.48 
" clip-path="url(#pb861f03f36)" style="fill: none; stroke: #b0b0b0; stroke-width: 0.8; stroke-linecap: square"/>
     </g>
     <g id="line2d_16">
      <g>
       <use xlink:href="#m849a51bdfb" x="679.527273" y="236.88" style="stroke: #000000; stroke-width: 0.8"/>
      </g>
     </g>
     <g id="text_8">
      <!-- 0.035 -->
      <g transform="translate(665.21321 251.478437) scale(0.1 -0.1)">
       <use xlink:href="#DejaVuSans-30"/>
       <use xlink:href="#DejaVuSans-2e" x="63.623047"/>
       <use xlink:href="#DejaVuSans-30" x="95.410156"/>
       <use xlink:href="#DejaVuSans-33" x="159.033203"/>
       <use xlink:href="#DejaVuSans-35" x="222.65625"/>
      </g>
     </g>
    </g>
    <g id="xtick_9">
     <g id="line2d_17">
      <path d="M 756.825974 236.88 
L 756.825974 60.48 
" clip-path="url(#pb861f03f36)" style="fill: none; stroke: #b0b0b0; stroke-width: 0.8; stroke-linecap: square"/>
     </g>
     <g id="line2d_18">
      <g>
       <use xlink:href="#m849a51bdfb" x="756.825974" y="236.88" style="stroke: #000000; stroke-width: 0.8"/>
      </g>
     </g>
     <g id="text_9">
      <!-- 0.040 -->
      <g transform="translate(742.511912 251.478437) scale(0.1 -0.1)">
       <defs>
        <path id="DejaVuSans-34" d="M 2419 4116 
L 825 1625 
L 2419 1625 
L 2419 4116 
z
M 2253 4666 
L 3047 4666 
L 3047 1625 
L 3713 1625 
L 3713 1100 
L 3047 1100 
L 3047 0 
L 2419 0 
L 2419 1100 
L 313 1100 
L 313 1709 
L 2253 4666 
z
" transform="scale(0.015625)"/>
       </defs>
       <use xlink:href="#DejaVuSans-30"/>
       <use xlink:href="#DejaVuSans-2e" x="63.623047"/>
       <use xlink:href="#DejaVuSans-30" x="95.410156"/>
       <use xlink:href="#DejaVuSans-34" x="159.033203"/>
       <use xlink:href="#DejaVuSans-30" x="222.65625"/>
      </g>
     </g>
    </g>
    <g id="text_10">
     <!-- Zeit $t$ [s] -->
     <g transform="translate(421.3 265.156562) scale(0.1 -0.1)">
      <defs>
       <path id="DejaVuSans-5a" d="M 359 4666 
L 4025 4666 
L 4025 4184 
L 1075 531 
L 4097 531 
L 4097 0 
L 288 0 
L 288 481 
L 3238 4134 
L 359 4134 
L 359 4666 
z
" transform="scale(0.015625)"/>
       <path id="DejaVuSans-65" d="M 3597 1894 
L 3597 1613 
L 953 1613 
Q 991 1019 1311 708 
Q 1631 397 2203 397 
Q 2534 397 2845 478 
Q 3156 559 3463 722 
L 3463 178 
Q 3153 47 2828 -22 
Q 2503 -91 2169 -91 
Q 1331 -91 842 396 
Q 353 884 353 1716 
Q 353 2575 817 3079 
Q 1281 3584 2069 3584 
Q 2775 3584 3186 3129 
Q 3597 2675 3597 1894 
z
M 3022 2063 
Q 3016 2534 2758 2815 
Q 2500 3097 2075 3097 
Q 1594 3097 1305 2825 
Q 1016 2553 972 2059 
L 3022 2063 
z
" transform="scale(0.015625)"/>
       <path id="DejaVuSans-69" d="M 603 3500 
L 1178 3500 
L 1178 0 
L 603 0 
L 603 3500 
z
M 603 4863 
L 1178 4863 
L 1178 4134 
L 603 4134 
L 603 4863 
z
" transform="scale(0.015625)"/>
       <path id="DejaVuSans-74" d="M 1172 4494 
L 1172 3500 
L 2356 3500 
L 2356 3053 
L 1172 3053 
L 1172 1153 
Q 1172 725 1289 603 
Q 1406 481 1766 481 
L 2356 481 
L 2356 0 
L 1766 0 
Q 1100 0 847 248 
Q 594 497 594 1153 
L 594 3053 
L 172 3053 
L 172 3500 
L 594 3500 
L 594 4494 
L 1172 4494 
z
" transform="scale(0.015625)"/>
       <path id="DejaVuSans-20" transform="scale(0.015625)"/>
       <path id="DejaVuSans-Oblique-74" d="M 2706 3500 
L 2619 3053 
L 1472 3053 
L 1100 1153 
Q 1081 1047 1072 975 
Q 1063 903 1063 863 
Q 1063 663 1183 572 
Q 1303 481 1569 481 
L 2150 481 
L 2053 0 
L 1503 0 
Q 991 0 739 200 
Q 488 400 488 806 
Q 488 878 497 964 
Q 506 1050 525 1153 
L 897 3053 
L 409 3053 
L 500 3500 
L 978 3500 
L 1172 4494 
L 1747 4494 
L 1556 3500 
L 2706 3500 
z
" transform="scale(0.015625)"/>
       <path id="DejaVuSans-5b" d="M 550 4863 
L 1875 4863 
L 1875 4416 
L 1125 4416 
L 1125 -397 
L 1875 -397 
L 1875 -844 
L 550 -844 
L 550 4863 
z
" transform="scale(0.015625)"/>
       <path id="DejaVuSans-73" d="M 2834 3397 
L 2834 2853 
Q 2591 2978 2328 3040 
Q 2066 3103 1784 3103 
Q 1356 3103 1142 2972 
Q 928 2841 928 2578 
Q 928 2378 1081 2264 
Q 1234 2150 1697 2047 
L 1894 2003 
Q 2506 1872 2764 1633 
Q 3022 1394 3022 966 
Q 3022 478 2636 193 
Q 2250 -91 1575 -91 
Q 1294 -91 989 -36 
Q 684 19 347 128 
L 347 722 
Q 666 556 975 473 
Q 1284 391 1588 391 
Q 1994 391 2212 530 
Q 2431 669 2431 922 
Q 2431 1156 2273 1281 
Q 2116 1406 1581 1522 
L 1381 1569 
Q 847 1681 609 1914 
Q 372 2147 372 2553 
Q 372 3047 722 3315 
Q 1072 3584 1716 3584 
Q 2034 3584 2315 3537 
Q 2597 3491 2834 3397 
z
" transform="scale(0.015625)"/>
       <path id="DejaVuSans-5d" d="M 1947 4863 
L 1947 -844 
L 622 -844 
L 622 -397 
L 1369 -397 
L 1369 4416 
L 622 4416 
L 622 4863 
L 1947 4863 
z
" transform="scale(0.015625)"/>
      </defs>
      <use xlink:href="#DejaVuSans-5a" transform="translate(0 0.015625)"/>
      <use xlink:href="#DejaVuSans-65" transform="translate(68.505859 0.015625)"/>
      <use xlink:href="#DejaVuSans-69" transform="translate(130.029297 0.015625)"/>
      <use xlink:href="#DejaVuSans-74" transform="translate(157.8125 0.015625)"/>
      <use xlink:href="#DejaVuSans-20" transform="translate(197.021484 0.015625)"/>
      <use xlink:href="#DejaVuSans-Oblique-74" transform="translate(228.808594 0.015625)"/>
      <use xlink:href="#DejaVuSans-20" transform="translate(268.017578 0.015625)"/>
      <use xlink:href="#DejaVuSans-5b" transform="translate(299.804688 0.015625)"/>
      <use xlink:href="#DejaVuSans-73" transform="translate(338.818359 0.015625)"/>
      <use xlink:href="#DejaVuSans-5d" transform="translate(390.917969 0.015625)"/>
     </g>
    </g>
   </g>
   <g id="matplotlib.axis_2">
    <g id="ytick_1">
     <g id="line2d_19">
      <path d="M 108 228.861818 
L 777.6 228.861818 
" clip-path="url(#pb861f03f36)" style="fill: none; stroke: #b0b0b0; stroke-width: 0.8; stroke-linecap: square"/>
     </g>
     <g id="line2d_20">
      <defs>
       <path id="mb26517c24c" d="M 0 0 
L -3.5 0 
" style="stroke: #000000; stroke-width: 0.8"/>
      </defs>
      <g>
       <use xlink:href="#mb26517c24c" x="108" y="228.861818" style="stroke: #000000; stroke-width: 0.8"/>
      </g>
     </g>
     <g id="text_11">
      <!-- −1.0 -->
      <g transform="translate(76.717187 232.661037) scale(0.1 -0.1)">
       <defs>
        <path id="DejaVuSans-2212" d="M 678 2272 
L 4684 2272 
L 4684 1741 
L 678 1741 
L 678 2272 
z
" transform="scale(0.015625)"/>
       </defs>
       <use xlink:href="#DejaVuSans-2212"/>
       <use xlink:href="#DejaVuSans-31" x="83.789062"/>
       <use xlink:href="#DejaVuSans-2e" x="147.412109"/>
       <use xlink:href="#DejaVuSans-30" x="179.199219"/>
      </g>
     </g>
    </g>
    <g id="ytick_2">
     <g id="line2d_21">
      <path d="M 108 188.770909 
L 777.6 188.770909 
" clip-path="url(#pb861f03f36)" style="fill: none; stroke: #b0b0b0; stroke-width: 0.8; stroke-linecap: square"/>
     </g>
     <g id="line2d_22">
      <g>
       <use xlink:href="#mb26517c24c" x="108" y="188.770909" style="stroke: #000000; stroke-width: 0.8"/>
      </g>
     </g>
     <g id="text_12">
      <!-- −0.5 -->
      <g transform="translate(76.717187 192.570128) scale(0.1 -0.1)">
       <use xlink:href="#DejaVuSans-2212"/>
       <use xlink:href="#DejaVuSans-30" x="83.789062"/>
       <use xlink:href="#DejaVuSans-2e" x="147.412109"/>
       <use xlink:href="#DejaVuSans-35" x="179.199219"/>
      </g>
     </g>
    </g>
    <g id="ytick_3">
     <g id="line2d_23">
      <path d="M 108 148.68 
L 777.6 148.68 
" clip-path="url(#pb861f03f36)" style="fill: none; stroke: #b0b0b0; stroke-width: 0.8; stroke-linecap: square"/>
     </g>
     <g id="line2d_24">
      <g>
       <use xlink:href="#mb26517c24c" x="108" y="148.68" style="stroke: #000000; stroke-width: 0.8"/>
      </g>
     </g>
     <g id="text_13">
      <!-- 0.0 -->
      <g transform="translate(85.096875 152.479219) scale(0.1 -0.1)">
       <use xlink:href="#DejaVuSans-30"/>
       <use xlink:href="#DejaVuSans-2e" x="63.623047"/>
       <use xlink:href="#DejaVuSans-30" x="95.410156"/>
      </g>
     </g>
    </g>
    <g id="ytick_4">
     <g id="line2d_25">
      <path d="M 108 108.589091 
L 777.6 108.589091 
" clip-path="url(#pb861f03f36)" style="fill: none; stroke: #b0b0b0; stroke-width: 0.8; stroke-linecap: square"/>
     </g>
     <g id="line2d_26">
      <g>
       <use xlink:href="#mb26517c24c" x="108" y="108.589091" style="stroke: #000000; stroke-width: 0.8"/>
      </g>
     </g>
     <g id="text_14">
      <!-- 0.5 -->
      <g transform="translate(85.096875 112.38831) scale(0.1 -0.1)">
       <use xlink:href="#DejaVuSans-30"/>
       <use xlink:href="#DejaVuSans-2e" x="63.623047"/>
       <use xlink:href="#DejaVuSans-35" x="95.410156"/>
      </g>
     </g>
    </g>
    <g id="ytick_5">
     <g id="line2d_27">
      <path d="M 108 68.498182 
L 777.6 68.498182 
" clip-path="url(#pb861f03f36)" style="fill: none; stroke: #b0b0b0; stroke-width: 0.8; stroke-linecap: square"/>
     </g>
     <g id="line2d_28">
      <g>
       <use xlink:href="#mb26517c24c" x="108" y="68.498182" style="stroke: #000000; stroke-width: 0.8"/>
      </g>
     </g>
     <g id="text_15">
      <!-- 1.0 -->
      <g transform="translate(85.096875 72.297401) scale(0.1 -0.1)">
       <use xlink:href="#DejaVuSans-31"/>
       <use xlink:href="#DejaVuSans-2e" x="63.623047"/>
       <use xlink:href="#DejaVuSans-30" x="95.410156"/>
      </g>
     </g>
    </g>
    <g id="text_16">
     <!-- Funktionswert $y$ -->
     <g transform="translate(70.617188 188.73) rotate(-90) scale(0.1 -0.1)">
      <defs>
       <path id="DejaVuSans-46" d="M 628 4666 
L 3309 4666 
L 3309 4134 
L 1259 4134 
L 1259 2759 
L 3109 2759 
L 3109 2228 
L 1259 2228 
L 1259 0 
L 628 0 
L 628 4666 
z
" transform="scale(0.015625)"/>
       <path id="DejaVuSans-75" d="M 544 1381 
L 544 3500 
L 1119 3500 
L 1119 1403 
Q 1119 906 1312 657 
Q 1506 409 1894 409 
Q 2359 409 2629 706 
Q 2900 1003 2900 1516 
L 2900 3500 
L 3475 3500 
L 3475 0 
L 2900 0 
L 2900 538 
Q 2691 219 2414 64 
Q 2138 -91 1772 -91 
Q 1169 -91 856 284 
Q 544 659 544 1381 
z
M 1991 3584 
L 1991 3584 
z
" transform="scale(0.015625)"/>
       <path id="DejaVuSans-6e" d="M 3513 2113 
L 3513 0 
L 2938 0 
L 2938 2094 
Q 2938 2591 2744 2837 
Q 2550 3084 2163 3084 
Q 1697 3084 1428 2787 
Q 1159 2491 1159 1978 
L 1159 0 
L 581 0 
L 581 3500 
L 1159 3500 
L 1159 2956 
Q 1366 3272 1645 3428 
Q 1925 3584 2291 3584 
Q 2894 3584 3203 3211 
Q 3513 2838 3513 2113 
z
" transform="scale(0.015625)"/>
       <path id="DejaVuSans-6b" d="M 581 4863 
L 1159 4863 
L 1159 1991 
L 2875 3500 
L 3609 3500 
L 1753 1863 
L 3688 0 
L 2938 0 
L 1159 1709 
L 1159 0 
L 581 0 
L 581 4863 
z
" transform="scale(0.015625)"/>
       <path id="DejaVuSans-6f" d="M 1959 3097 
Q 1497 3097 1228 2736 
Q 959 2375 959 1747 
Q 959 1119 1226 758 
Q 1494 397 1959 397 
Q 2419 397 2687 759 
Q 2956 1122 2956 1747 
Q 2956 2369 2687 2733 
Q 2419 3097 1959 3097 
z
M 1959 3584 
Q 2709 3584 3137 3096 
Q 3566 2609 3566 1747 
Q 3566 888 3137 398 
Q 2709 -91 1959 -91 
Q 1206 -91 779 398 
Q 353 888 353 1747 
Q 353 2609 779 3096 
Q 1206 3584 1959 3584 
z
" transform="scale(0.015625)"/>
       <path id="DejaVuSans-77" d="M 269 3500 
L 844 3500 
L 1563 769 
L 2278 3500 
L 2956 3500 
L 3675 769 
L 4391 3500 
L 4966 3500 
L 4050 0 
L 3372 0 
L 2619 2869 
L 1863 0 
L 1184 0 
L 269 3500 
z
" transform="scale(0.015625)"/>
       <path id="DejaVuSans-72" d="M 2631 2963 
Q 2534 3019 2420 3045 
Q 2306 3072 2169 3072 
Q 1681 3072 1420 2755 
Q 1159 2438 1159 1844 
L 1159 0 
L 581 0 
L 581 3500 
L 1159 3500 
L 1159 2956 
Q 1341 3275 1631 3429 
Q 1922 3584 2338 3584 
Q 2397 3584 2469 3576 
Q 2541 3569 2628 3553 
L 2631 2963 
z
" transform="scale(0.015625)"/>
       <path id="DejaVuSans-Oblique-79" d="M 1588 -325 
Q 1188 -997 936 -1164 
Q 684 -1331 294 -1331 
L -159 -1331 
L -63 -850 
L 269 -850 
Q 509 -850 678 -719 
Q 847 -588 1056 -206 
L 1234 128 
L 459 3500 
L 1069 3500 
L 1650 819 
L 3256 3500 
L 3859 3500 
L 1588 -325 
z
" transform="scale(0.015625)"/>
      </defs>
      <use xlink:href="#DejaVuSans-46" transform="translate(0 0.015625)"/>
      <use xlink:href="#DejaVuSans-75" transform="translate(57.519531 0.015625)"/>
      <use xlink:href="#DejaVuSans-6e" transform="translate(120.898438 0.015625)"/>
      <use xlink:href="#DejaVuSans-6b" transform="translate(184.277344 0.015625)"/>
      <use xlink:href="#DejaVuSans-74" transform="translate(242.1875 0.015625)"/>
      <use xlink:href="#DejaVuSans-69" transform="translate(281.396484 0.015625)"/>
      <use xlink:href="#DejaVuSans-6f" transform="translate(309.179688 0.015625)"/>
      <use xlink:href="#DejaVuSans-6e" transform="translate(370.361328 0.015625)"/>
      <use xlink:href="#DejaVuSans-73" transform="translate(433.740234 0.015625)"/>
      <use xlink:href="#DejaVuSans-77" transform="translate(485.839844 0.015625)"/>
      <use xlink:href="#DejaVuSans-65" transform="translate(567.626953 0.015625)"/>
      <use xlink:href="#DejaVuSans-72" transform="translate(629.150391 0.015625)"/>
      <use xlink:href="#DejaVuSans-74" transform="translate(670.263672 0.015625)"/>
      <use xlink:href="#DejaVuSans-20" transform="translate(709.472656 0.015625)"/>
      <use xlink:href="#DejaVuSans-Oblique-79" transform="translate(741.259766 0.015625)"/>
     </g>
    </g>
   </g>
   <g id="line2d_29">
    <path d="M 138.436364 148.68 
L 148.098701 133.037303 
L 157.761039 117.995747 
L 167.423377 104.133369 
L 177.085714 91.982893 
L 186.748052 82.011255 
L 196.41039 74.601659 
L 206.072727 70.038853 
L 215.735065 68.498182 
L 225.397403 70.038853 
L 235.05974 74.601659 
L 244.722078 82.011255 
L 254.384416 91.982893 
L 264.046753 104.133369 
L 273.709091 117.995747 
L 283.371429 133.037303 
L 293.033766 148.68 
L 302.696104 164.322697 
L 312.358442 179.364253 
L 322.020779 193.226631 
L 331.683117 205.377107 
L 341.345455 215.348745 
L 351.007792 222.758341 
L 360.67013 227.321147 
L 370.332468 228.861818 
L 379.994805 227.321147 
L 389.657143 222.758341 
L 399.319481 215.348745 
L 408.981818 205.377107 
L 418.644156 193.226631 
L 428.306494 179.364253 
L 437.968831 164.322697 
L 447.631169 148.68 
L 457.293506 133.037303 
L 466.955844 117.995747 
L 476.618182 104.133369 
L 486.280519 91.982893 
L 495.942857 82.011255 
L 505.605195 74.601659 
L 515.267532 70.038853 
L 524.92987 68.498182 
L 534.592208 70.038853 
L 544.254545 74.601659 
L 553.916883 82.011255 
L 563.579221 91.982893 
L 573.241558 104.133369 
L 582.903896 117.995747 
L 592.566234 133.037303 
L 602.228571 148.68 
L 611.890909 164.322697 
L 621.553247 179.364253 
L 631.215584 193.226631 
L 640.877922 205.377107 
L 650.54026 215.348745 
L 660.202597 222.758341 
L 669.864935 227.321147 
L 679.527273 228.861818 
L 689.18961 227.321147 
L 698.851948 222.758341 
L 708.514286 215.348745 
L 718.176623 205.377107 
L 727.838961 193.226631 
L 737.501299 179.364253 
L 747.163636 164.322697 
" clip-path="url(#pb861f03f36)" style="fill: none; stroke: #0000ff; stroke-width: 1.5; stroke-linecap: square"/>
    <defs>
     <path id="m0967858d47" d="M 0 3 
C 0.795609 3 1.55874 2.683901 2.12132 2.12132 
C 2.683901 1.55874 3 0.795609 3 0 
C 3 -0.795609 2.683901 -1.55874 2.12132 -2.12132 
C 1.55874 -2.683901 0.795609 -3 0 -3 
C -0.795609 -3 -1.55874 -2.683901 -2.12132 -2.12132 
C -2.683901 -1.55874 -3 -0.795609 -3 0 
C -3 0.795609 -2.683901 1.55874 -2.12132 2.12132 
C -1.55874 2.683901 -0.795609 3 0 3 
z
" style="stroke: #0000ff"/>
    </defs>
    <g clip-path="url(#pb861f03f36)">
     <use xlink:href="#m0967858d47" x="138.436364" y="148.68" style="fill: #0000ff; stroke: #0000ff"/>
     <use xlink:href="#m0967858d47" x="148.098701" y="133.037303" style="fill: #0000ff; stroke: #0000ff"/>
     <use xlink:href="#m0967858d47" x="157.761039" y="117.995747" style="fill: #0000ff; stroke: #0000ff"/>
     <use xlink:href="#m0967858d47" x="167.423377" y="104.133369" style="fill: #0000ff; stroke: #0000ff"/>
     <use xlink:href="#m0967858d47" x="177.085714" y="91.982893" style="fill: #0000ff; stroke: #0000ff"/>
     <use xlink:href="#m0967858d47" x="186.748052" y="82.011255" style="fill: #0000ff; stroke: #0000ff"/>
     <use xlink:href="#m0967858d47" x="196.41039" y="74.601659" style="fill: #0000ff; stroke: #0000ff"/>
     <use xlink:href="#m0967858d47" x="206.072727" y="70.038853" style="fill: #0000ff; stroke: #0000ff"/>
     <use xlink:href="#m0967858d47" x="215.735065" y="68.498182" style="fill: #0000ff; stroke: #0000ff"/>
     <use xlink:href="#m0967858d47" x="225.397403" y="70.038853" style="fill: #0000ff; stroke: #0000ff"/>
     <use xlink:href="#m0967858d47" x="235.05974" y="74.601659" style="fill: #0000ff; stroke: #0000ff"/>
     <use xlink:href="#m0967858d47" x="244.722078" y="82.011255" style="fill: #0000ff; stroke: #0000ff"/>
     <use xlink:href="#m0967858d47" x="254.384416" y="91.982893" style="fill: #0000ff; stroke: #0000ff"/>
     <use xlink:href="#m0967858d47" x="264.046753" y="104.133369" style="fill: #0000ff; stroke: #0000ff"/>
     <use xlink:href="#m0967858d47" x="273.709091" y="117.995747" style="fill: #0000ff; stroke: #0000ff"/>
     <use xlink:href="#m0967858d47" x="283.371429" y="133.037303" style="fill: #0000ff; stroke: #0000ff"/>
     <use xlink:href="#m0967858d47" x="293.033766" y="148.68" style="fill: #0000ff; stroke: #0000ff"/>
     <use xlink:href="#m0967858d47" x="302.696104" y="164.322697" style="fill: #0000ff; stroke: #0000ff"/>
     <use xlink:href="#m0967858d47" x="312.358442" y="179.364253" style="fill: #0000ff; stroke: #0000ff"/>
     <use xlink:href="#m0967858d47" x="322.020779" y="193.226631" style="fill: #0000ff; stroke: #0000ff"/>
     <use xlink:href="#m0967858d47" x="331.683117" y="205.377107" style="fill: #0000ff; stroke: #0000ff"/>
     <use xlink:href="#m0967858d47" x="341.345455" y="215.348745" style="fill: #0000ff; stroke: #0000ff"/>
     <use xlink:href="#m0967858d47" x="351.007792" y="222.758341" style="fill: #0000ff; stroke: #0000ff"/>
     <use xlink:href="#m0967858d47" x="360.67013" y="227.321147" style="fill: #0000ff; stroke: #0000ff"/>
     <use xlink:href="#m0967858d47" x="370.332468" y="228.861818" style="fill: #0000ff; stroke: #0000ff"/>
     <use xlink:href="#m0967858d47" x="379.994805" y="227.321147" style="fill: #0000ff; stroke: #0000ff"/>
     <use xlink:href="#m0967858d47" x="389.657143" y="222.758341" style="fill: #0000ff; stroke: #0000ff"/>
     <use xlink:href="#m0967858d47" x="399.319481" y="215.348745" style="fill: #0000ff; stroke: #0000ff"/>
     <use xlink:href="#m0967858d47" x="408.981818" y="205.377107" style="fill: #0000ff; stroke: #0000ff"/>
     <use xlink:href="#m0967858d47" x="418.644156" y="193.226631" style="fill: #0000ff; stroke: #0000ff"/>
     <use xlink:href="#m0967858d47" x="428.306494" y="179.364253" style="fill: #0000ff; stroke: #0000ff"/>
     <use xlink:href="#m0967858d47" x="437.968831" y="164.322697" style="fill: #0000ff; stroke: #0000ff"/>
     <use xlink:href="#m0967858d47" x="447.631169" y="148.68" style="fill: #0000ff; stroke: #0000ff"/>
     <use xlink:href="#m0967858d47" x="457.293506" y="133.037303" style="fill: #0000ff; stroke: #0000ff"/>
     <use xlink:href="#m0967858d47" x="466.955844" y="117.995747" style="fill: #0000ff; stroke: #0000ff"/>
     <use xlink:href="#m0967858d47" x="476.618182" y="104.133369" style="fill: #0000ff; stroke: #0000ff"/>
     <use xlink:href="#m0967858d47" x="486.280519" y="91.982893" style="fill: #0000ff; stroke: #0000ff"/>
     <use xlink:href="#m0967858d47" x="495.942857" y="82.011255" style="fill: #0000ff; stroke: #0000ff"/>
     <use xlink:href="#m0967858d47" x="505.605195" y="74.601659" style="fill: #0000ff; stroke: #0000ff"/>
     <use xlink:href="#m0967858d47" x="515.267532" y="70.038853" style="fill: #0000ff; stroke: #0000ff"/>
     <use xlink:href="#m0967858d47" x="524.92987" y="68.498182" style="fill: #0000ff; stroke: #0000ff"/>
     <use xlink:href="#m0967858d47" x="534.592208" y="70.038853" style="fill: #0000ff; stroke: #0000ff"/>
     <use xlink:href="#m0967858d47" x="544.254545" y="74.601659" style="fill: #0000ff; stroke: #0000ff"/>
     <use xlink:href="#m0967858d47" x="553.916883" y="82.011255" style="fill: #0000ff; stroke: #0000ff"/>
     <use xlink:href="#m0967858d47" x="563.579221" y="91.982893" style="fill: #0000ff; stroke: #0000ff"/>
     <use xlink:href="#m0967858d47" x="573.241558" y="104.133369" style="fill: #0000ff; stroke: #0000ff"/>
     <use xlink:href="#m0967858d47" x="582.903896" y="117.995747" style="fill: #0000ff; stroke: #0000ff"/>
     <use xlink:href="#m0967858d47" x="592.566234" y="133.037303" style="fill: #0000ff; stroke: #0000ff"/>
     <use xlink:href="#m0967858d47" x="602.228571" y="148.68" style="fill: #0000ff; stroke: #0000ff"/>
     <use xlink:href="#m0967858d47" x="611.890909" y="164.322697" style="fill: #0000ff; stroke: #0000ff"/>
     <use xlink:href="#m0967858d47" x="621.553247" y="179.364253" style="fill: #0000ff; stroke: #0000ff"/>
     <use xlink:href="#m0967858d47" x="631.215584" y="193.226631" style="fill: #0000ff; stroke: #0000ff"/>
     <use xlink:href="#m0967858d47" x="640.877922" y="205.377107" style="fill: #0000ff; stroke: #0000ff"/>
     <use xlink:href="#m0967858d47" x="650.54026" y="215.348745" style="fill: #0000ff; stroke: #0000ff"/>
     <use xlink:href="#m0967858d47" x="660.202597" y="222.758341" style="fill: #0000ff; stroke: #0000ff"/>
     <use xlink:href="#m0967858d47" x="669.864935" y="227.321147" style="fill: #0000ff; stroke: #0000ff"/>
     <use xlink:href="#m0967858d47" x="679.527273" y="228.861818" style="fill: #0000ff; stroke: #0000ff"/>
     <use xlink:href="#m0967858d47" x="689.18961" y="227.321147" style="fill: #0000ff; stroke: #0000ff"/>
     <use xlink:href="#m0967858d47" x="698.851948" y="222.758341" style="fill: #0000ff; stroke: #0000ff"/>
     <use xlink:href="#m0967858d47" x="708.514286" y="215.348745" style="fill: #0000ff; stroke: #0000ff"/>
     <use xlink:href="#m0967858d47" x="718.176623" y="205.377107" style="fill: #0000ff; stroke: #0000ff"/>
     <use xlink:href="#m0967858d47" x="727.838961" y="193.226631" style="fill: #0000ff; stroke: #0000ff"/>
     <use xlink:href="#m0967858d47" x="737.501299" y="179.364253" style="fill: #0000ff; stroke: #0000ff"/>
     <use xlink:href="#m0967858d47" x="747.163636" y="164.322697" style="fill: #0000ff; stroke: #0000ff"/>
    </g>
   </g>
   <g id="patch_3">
    <path d="M 108 236.88 
L 108 60.48 
" style="fill: none; stroke: #000000; stroke-width: 0.8; stroke-linejoin: miter; stroke-linecap: square"/>
   </g>
   <g id="patch_4">
    <path d="M 777.6 236.88 
L 777.6 60.48 
" style="fill: none; stroke: #000000; stroke-width: 0.8; stroke-linejoin: miter; stroke-linecap: square"/>
   </g>
   <g id="patch_5">
    <path d="M 108 236.88 
L 777.6 236.88 
" style="fill: none; stroke: #000000; stroke-width: 0.8; stroke-linejoin: miter; stroke-linecap: square"/>
   </g>
   <g id="patch_6">
    <path d="M 108 60.48 
L 777.6 60.48 
" style="fill: none; stroke: #000000; stroke-width: 0.8; stroke-linejoin: miter; stroke-linecap: square"/>
   </g>
   <g id="text_17">
    <g id="patch_7">
     <path d="M 582.768831 98.652727 
L 735.668831 98.652727 
L 735.668831 80.952727 
L 582.768831 80.952727 
z
" style="fill: #ffffff; stroke: #ffffff; stroke-linejoin: miter"/>
    </g>
    <!-- Abtastfrequenz $f_S =$ 1600 Hz -->
    <g transform="translate(586.768831 92.552727) scale(0.1 -0.1)">
     <defs>
      <path id="DejaVuSans-41" d="M 2188 4044 
L 1331 1722 
L 3047 1722 
L 2188 4044 
z
M 1831 4666 
L 2547 4666 
L 4325 0 
L 3669 0 
L 3244 1197 
L 1141 1197 
L 716 0 
L 50 0 
L 1831 4666 
z
" transform="scale(0.015625)"/>
      <path id="DejaVuSans-62" d="M 3116 1747 
Q 3116 2381 2855 2742 
Q 2594 3103 2138 3103 
Q 1681 3103 1420 2742 
Q 1159 2381 1159 1747 
Q 1159 1113 1420 752 
Q 1681 391 2138 391 
Q 2594 391 2855 752 
Q 3116 1113 3116 1747 
z
M 1159 2969 
Q 1341 3281 1617 3432 
Q 1894 3584 2278 3584 
Q 2916 3584 3314 3078 
Q 3713 2572 3713 1747 
Q 3713 922 3314 415 
Q 2916 -91 2278 -91 
Q 1894 -91 1617 61 
Q 1341 213 1159 525 
L 1159 0 
L 581 0 
L 581 4863 
L 1159 4863 
L 1159 2969 
z
" transform="scale(0.015625)"/>
      <path id="DejaVuSans-61" d="M 2194 1759 
Q 1497 1759 1228 1600 
Q 959 1441 959 1056 
Q 959 750 1161 570 
Q 1363 391 1709 391 
Q 2188 391 2477 730 
Q 2766 1069 2766 1631 
L 2766 1759 
L 2194 1759 
z
M 3341 1997 
L 3341 0 
L 2766 0 
L 2766 531 
Q 2569 213 2275 61 
Q 1981 -91 1556 -91 
Q 1019 -91 701 211 
Q 384 513 384 1019 
Q 384 1609 779 1909 
Q 1175 2209 1959 2209 
L 2766 2209 
L 2766 2266 
Q 2766 2663 2505 2880 
Q 2244 3097 1772 3097 
Q 1472 3097 1187 3025 
Q 903 2953 641 2809 
L 641 3341 
Q 956 3463 1253 3523 
Q 1550 3584 1831 3584 
Q 2591 3584 2966 3190 
Q 3341 2797 3341 1997 
z
" transform="scale(0.015625)"/>
      <path id="DejaVuSans-66" d="M 2375 4863 
L 2375 4384 
L 1825 4384 
Q 1516 4384 1395 4259 
Q 1275 4134 1275 3809 
L 1275 3500 
L 2222 3500 
L 2222 3053 
L 1275 3053 
L 1275 0 
L 697 0 
L 697 3053 
L 147 3053 
L 147 3500 
L 697 3500 
L 697 3744 
Q 697 4328 969 4595 
Q 1241 4863 1831 4863 
L 2375 4863 
z
" transform="scale(0.015625)"/>
      <path id="DejaVuSans-71" d="M 947 1747 
Q 947 1113 1208 752 
Q 1469 391 1925 391 
Q 2381 391 2643 752 
Q 2906 1113 2906 1747 
Q 2906 2381 2643 2742 
Q 2381 3103 1925 3103 
Q 1469 3103 1208 2742 
Q 947 2381 947 1747 
z
M 2906 525 
Q 2725 213 2448 61 
Q 2172 -91 1784 -91 
Q 1150 -91 751 415 
Q 353 922 353 1747 
Q 353 2572 751 3078 
Q 1150 3584 1784 3584 
Q 2172 3584 2448 3432 
Q 2725 3281 2906 2969 
L 2906 3500 
L 3481 3500 
L 3481 -1331 
L 2906 -1331 
L 2906 525 
z
" transform="scale(0.015625)"/>
      <path id="DejaVuSans-7a" d="M 353 3500 
L 3084 3500 
L 3084 2975 
L 922 459 
L 3084 459 
L 3084 0 
L 275 0 
L 275 525 
L 2438 3041 
L 353 3041 
L 353 3500 
z
" transform="scale(0.015625)"/>
      <path id="DejaVuSans-Oblique-66" d="M 3059 4863 
L 2969 4384 
L 2419 4384 
Q 2106 4384 1964 4261 
Q 1822 4138 1753 3809 
L 1691 3500 
L 2638 3500 
L 2553 3053 
L 1606 3053 
L 1013 0 
L 434 0 
L 1031 3053 
L 481 3053 
L 563 3500 
L 1113 3500 
L 1159 3744 
Q 1278 4363 1576 4613 
Q 1875 4863 2516 4863 
L 3059 4863 
z
" transform="scale(0.015625)"/>
      <path id="DejaVuSans-Oblique-53" d="M 3859 4513 
L 3738 3897 
Q 3422 4066 3111 4152 
Q 2800 4238 2509 4238 
Q 1944 4238 1609 3991 
Q 1275 3744 1275 3334 
Q 1275 3109 1398 2989 
Q 1522 2869 2034 2731 
L 2413 2638 
Q 3053 2472 3303 2217 
Q 3553 1963 3553 1503 
Q 3553 797 2998 353 
Q 2444 -91 1538 -91 
Q 1166 -91 791 -17 
Q 416 56 38 206 
L 166 856 
Q 513 641 861 531 
Q 1209 422 1556 422 
Q 2147 422 2503 684 
Q 2859 947 2859 1369 
Q 2859 1650 2717 1795 
Q 2575 1941 2106 2059 
L 1728 2156 
Q 1081 2325 845 2545 
Q 609 2766 609 3163 
Q 609 3859 1145 4304 
Q 1681 4750 2541 4750 
Q 2875 4750 3203 4690 
Q 3531 4631 3859 4513 
z
" transform="scale(0.015625)"/>
      <path id="DejaVuSans-3d" d="M 678 2906 
L 4684 2906 
L 4684 2381 
L 678 2381 
L 678 2906 
z
M 678 1631 
L 4684 1631 
L 4684 1100 
L 678 1100 
L 678 1631 
z
" transform="scale(0.015625)"/>
      <path id="DejaVuSans-36" d="M 2113 2584 
Q 1688 2584 1439 2293 
Q 1191 2003 1191 1497 
Q 1191 994 1439 701 
Q 1688 409 2113 409 
Q 2538 409 2786 701 
Q 3034 994 3034 1497 
Q 3034 2003 2786 2293 
Q 2538 2584 2113 2584 
z
M 3366 4563 
L 3366 3988 
Q 3128 4100 2886 4159 
Q 2644 4219 2406 4219 
Q 1781 4219 1451 3797 
Q 1122 3375 1075 2522 
Q 1259 2794 1537 2939 
Q 1816 3084 2150 3084 
Q 2853 3084 3261 2657 
Q 3669 2231 3669 1497 
Q 3669 778 3244 343 
Q 2819 -91 2113 -91 
Q 1303 -91 875 529 
Q 447 1150 447 2328 
Q 447 3434 972 4092 
Q 1497 4750 2381 4750 
Q 2619 4750 2861 4703 
Q 3103 4656 3366 4563 
z
" transform="scale(0.015625)"/>
      <path id="DejaVuSans-48" d="M 628 4666 
L 1259 4666 
L 1259 2753 
L 3553 2753 
L 3553 4666 
L 4184 4666 
L 4184 0 
L 3553 0 
L 3553 2222 
L 1259 2222 
L 1259 0 
L 628 0 
L 628 4666 
z
" transform="scale(0.015625)"/>
     </defs>
     <use xlink:href="#DejaVuSans-41" transform="translate(0 0.015625)"/>
     <use xlink:href="#DejaVuSans-62" transform="translate(68.408203 0.015625)"/>
     <use xlink:href="#DejaVuSans-74" transform="translate(131.884766 0.015625)"/>
     <use xlink:href="#DejaVuSans-61" transform="translate(171.09375 0.015625)"/>
     <use xlink:href="#DejaVuSans-73" transform="translate(232.373047 0.015625)"/>
     <use xlink:href="#DejaVuSans-74" transform="translate(284.472656 0.015625)"/>
     <use xlink:href="#DejaVuSans-66" transform="translate(323.681641 0.015625)"/>
     <use xlink:href="#DejaVuSans-72" transform="translate(358.886719 0.015625)"/>
     <use xlink:href="#DejaVuSans-65" transform="translate(400 0.015625)"/>
     <use xlink:href="#DejaVuSans-71" transform="translate(461.523438 0.015625)"/>
     <use xlink:href="#DejaVuSans-75" transform="translate(525 0.015625)"/>
     <use xlink:href="#DejaVuSans-65" transform="translate(588.378906 0.015625)"/>
     <use xlink:href="#DejaVuSans-6e" transform="translate(649.902344 0.015625)"/>
     <use xlink:href="#DejaVuSans-7a" transform="translate(713.28125 0.015625)"/>
     <use xlink:href="#DejaVuSans-20" transform="translate(765.771484 0.015625)"/>
     <use xlink:href="#DejaVuSans-Oblique-66" transform="translate(797.558594 0.015625)"/>
     <use xlink:href="#DejaVuSans-Oblique-53" transform="translate(832.763672 -16.390625) scale(0.7)"/>
     <use xlink:href="#DejaVuSans-3d" transform="translate(899.414062 0.015625)"/>
     <use xlink:href="#DejaVuSans-20" transform="translate(1002.685547 0.015625)"/>
     <use xlink:href="#DejaVuSans-31" transform="translate(1034.472656 0.015625)"/>
     <use xlink:href="#DejaVuSans-36" transform="translate(1098.095703 0.015625)"/>
     <use xlink:href="#DejaVuSans-30" transform="translate(1161.71875 0.015625)"/>
     <use xlink:href="#DejaVuSans-30" transform="translate(1225.341797 0.015625)"/>
     <use xlink:href="#DejaVuSans-20" transform="translate(1288.964844 0.015625)"/>
     <use xlink:href="#DejaVuSans-48" transform="translate(1320.751953 0.015625)"/>
     <use xlink:href="#DejaVuSans-7a" transform="translate(1395.947266 0.015625)"/>
    </g>
   </g>
  </g>
  <g id="axes_2">
   <g id="patch_8">
    <path d="M 108 448.56 
L 777.6 448.56 
L 777.6 272.16 
L 108 272.16 
z
" style="fill: #ffffff"/>
   </g>
   <g id="matplotlib.axis_3">
    <g id="xtick_10">
     <g id="line2d_30">
      <path d="M 138.436364 448.56 
L 138.436364 272.16 
" clip-path="url(#p5a535f919c)" style="fill: none; stroke: #b0b0b0; stroke-width: 0.8; stroke-linecap: square"/>
     </g>
     <g id="line2d_31">
      <g>
       <use xlink:href="#m849a51bdfb" x="138.436364" y="448.56" style="stroke: #000000; stroke-width: 0.8"/>
      </g>
     </g>
     <g id="text_18">
      <!-- 0 -->
      <g transform="translate(135.255114 463.158437) scale(0.1 -0.1)">
       <use xlink:href="#DejaVuSans-30"/>
      </g>
     </g>
    </g>
    <g id="xtick_11">
     <g id="line2d_32">
      <path d="M 214.527273 448.56 
L 214.527273 272.16 
" clip-path="url(#p5a535f919c)" style="fill: none; stroke: #b0b0b0; stroke-width: 0.8; stroke-linecap: square"/>
     </g>
     <g id="line2d_33">
      <g>
       <use xlink:href="#m849a51bdfb" x="214.527273" y="448.56" style="stroke: #000000; stroke-width: 0.8"/>
      </g>
     </g>
     <g id="text_19">
      <!-- 100 -->
      <g transform="translate(204.983523 463.158437) scale(0.1 -0.1)">
       <use xlink:href="#DejaVuSans-31"/>
       <use xlink:href="#DejaVuSans-30" x="63.623047"/>
       <use xlink:href="#DejaVuSans-30" x="127.246094"/>
      </g>
     </g>
    </g>
    <g id="xtick_12">
     <g id="line2d_34">
      <path d="M 290.618182 448.56 
L 290.618182 272.16 
" clip-path="url(#p5a535f919c)" style="fill: none; stroke: #b0b0b0; stroke-width: 0.8; stroke-linecap: square"/>
     </g>
     <g id="line2d_35">
      <g>
       <use xlink:href="#m849a51bdfb" x="290.618182" y="448.56" style="stroke: #000000; stroke-width: 0.8"/>
      </g>
     </g>
     <g id="text_20">
      <!-- 200 -->
      <g transform="translate(281.074432 463.158437) scale(0.1 -0.1)">
       <use xlink:href="#DejaVuSans-32"/>
       <use xlink:href="#DejaVuSans-30" x="63.623047"/>
       <use xlink:href="#DejaVuSans-30" x="127.246094"/>
      </g>
     </g>
    </g>
    <g id="xtick_13">
     <g id="line2d_36">
      <path d="M 366.709091 448.56 
L 366.709091 272.16 
" clip-path="url(#p5a535f919c)" style="fill: none; stroke: #b0b0b0; stroke-width: 0.8; stroke-linecap: square"/>
     </g>
     <g id="line2d_37">
      <g>
       <use xlink:href="#m849a51bdfb" x="366.709091" y="448.56" style="stroke: #000000; stroke-width: 0.8"/>
      </g>
     </g>
     <g id="text_21">
      <!-- 300 -->
      <g transform="translate(357.165341 463.158437) scale(0.1 -0.1)">
       <use xlink:href="#DejaVuSans-33"/>
       <use xlink:href="#DejaVuSans-30" x="63.623047"/>
       <use xlink:href="#DejaVuSans-30" x="127.246094"/>
      </g>
     </g>
    </g>
    <g id="xtick_14">
     <g id="line2d_38">
      <path d="M 442.8 448.56 
L 442.8 272.16 
" clip-path="url(#p5a535f919c)" style="fill: none; stroke: #b0b0b0; stroke-width: 0.8; stroke-linecap: square"/>
     </g>
     <g id="line2d_39">
      <g>
       <use xlink:href="#m849a51bdfb" x="442.8" y="448.56" style="stroke: #000000; stroke-width: 0.8"/>
      </g>
     </g>
     <g id="text_22">
      <!-- 400 -->
      <g transform="translate(433.25625 463.158437) scale(0.1 -0.1)">
       <use xlink:href="#DejaVuSans-34"/>
       <use xlink:href="#DejaVuSans-30" x="63.623047"/>
       <use xlink:href="#DejaVuSans-30" x="127.246094"/>
      </g>
     </g>
    </g>
    <g id="xtick_15">
     <g id="line2d_40">
      <path d="M 518.890909 448.56 
L 518.890909 272.16 
" clip-path="url(#p5a535f919c)" style="fill: none; stroke: #b0b0b0; stroke-width: 0.8; stroke-linecap: square"/>
     </g>
     <g id="line2d_41">
      <g>
       <use xlink:href="#m849a51bdfb" x="518.890909" y="448.56" style="stroke: #000000; stroke-width: 0.8"/>
      </g>
     </g>
     <g id="text_23">
      <!-- 500 -->
      <g transform="translate(509.347159 463.158437) scale(0.1 -0.1)">
       <use xlink:href="#DejaVuSans-35"/>
       <use xlink:href="#DejaVuSans-30" x="63.623047"/>
       <use xlink:href="#DejaVuSans-30" x="127.246094"/>
      </g>
     </g>
    </g>
    <g id="xtick_16">
     <g id="line2d_42">
      <path d="M 594.981818 448.56 
L 594.981818 272.16 
" clip-path="url(#p5a535f919c)" style="fill: none; stroke: #b0b0b0; stroke-width: 0.8; stroke-linecap: square"/>
     </g>
     <g id="line2d_43">
      <g>
       <use xlink:href="#m849a51bdfb" x="594.981818" y="448.56" style="stroke: #000000; stroke-width: 0.8"/>
      </g>
     </g>
     <g id="text_24">
      <!-- 600 -->
      <g transform="translate(585.438068 463.158437) scale(0.1 -0.1)">
       <use xlink:href="#DejaVuSans-36"/>
       <use xlink:href="#DejaVuSans-30" x="63.623047"/>
       <use xlink:href="#DejaVuSans-30" x="127.246094"/>
      </g>
     </g>
    </g>
    <g id="xtick_17">
     <g id="line2d_44">
      <path d="M 671.072727 448.56 
L 671.072727 272.16 
" clip-path="url(#p5a535f919c)" style="fill: none; stroke: #b0b0b0; stroke-width: 0.8; stroke-linecap: square"/>
     </g>
     <g id="line2d_45">
      <g>
       <use xlink:href="#m849a51bdfb" x="671.072727" y="448.56" style="stroke: #000000; stroke-width: 0.8"/>
      </g>
     </g>
     <g id="text_25">
      <!-- 700 -->
      <g transform="translate(661.528977 463.158437) scale(0.1 -0.1)">
       <defs>
        <path id="DejaVuSans-37" d="M 525 4666 
L 3525 4666 
L 3525 4397 
L 1831 0 
L 1172 0 
L 2766 4134 
L 525 4134 
L 525 4666 
z
" transform="scale(0.015625)"/>
       </defs>
       <use xlink:href="#DejaVuSans-37"/>
       <use xlink:href="#DejaVuSans-30" x="63.623047"/>
       <use xlink:href="#DejaVuSans-30" x="127.246094"/>
      </g>
     </g>
    </g>
    <g id="xtick_18">
     <g id="line2d_46">
      <path d="M 747.163636 448.56 
L 747.163636 272.16 
" clip-path="url(#p5a535f919c)" style="fill: none; stroke: #b0b0b0; stroke-width: 0.8; stroke-linecap: square"/>
     </g>
     <g id="line2d_47">
      <g>
       <use xlink:href="#m849a51bdfb" x="747.163636" y="448.56" style="stroke: #000000; stroke-width: 0.8"/>
      </g>
     </g>
     <g id="text_26">
      <!-- 800 -->
      <g transform="translate(737.619886 463.158437) scale(0.1 -0.1)">
       <defs>
        <path id="DejaVuSans-38" d="M 2034 2216 
Q 1584 2216 1326 1975 
Q 1069 1734 1069 1313 
Q 1069 891 1326 650 
Q 1584 409 2034 409 
Q 2484 409 2743 651 
Q 3003 894 3003 1313 
Q 3003 1734 2745 1975 
Q 2488 2216 2034 2216 
z
M 1403 2484 
Q 997 2584 770 2862 
Q 544 3141 544 3541 
Q 544 4100 942 4425 
Q 1341 4750 2034 4750 
Q 2731 4750 3128 4425 
Q 3525 4100 3525 3541 
Q 3525 3141 3298 2862 
Q 3072 2584 2669 2484 
Q 3125 2378 3379 2068 
Q 3634 1759 3634 1313 
Q 3634 634 3220 271 
Q 2806 -91 2034 -91 
Q 1263 -91 848 271 
Q 434 634 434 1313 
Q 434 1759 690 2068 
Q 947 2378 1403 2484 
z
M 1172 3481 
Q 1172 3119 1398 2916 
Q 1625 2713 2034 2713 
Q 2441 2713 2670 2916 
Q 2900 3119 2900 3481 
Q 2900 3844 2670 4047 
Q 2441 4250 2034 4250 
Q 1625 4250 1398 4047 
Q 1172 3844 1172 3481 
z
" transform="scale(0.015625)"/>
       </defs>
       <use xlink:href="#DejaVuSans-38"/>
       <use xlink:href="#DejaVuSans-30" x="63.623047"/>
       <use xlink:href="#DejaVuSans-30" x="127.246094"/>
      </g>
     </g>
    </g>
    <g id="text_27">
     <!-- Frequenz $f$ [Hz] -->
     <g transform="translate(404.5 476.838125) scale(0.1 -0.1)">
      <use xlink:href="#DejaVuSans-46" transform="translate(0 0.015625)"/>
      <use xlink:href="#DejaVuSans-72" transform="translate(57.519531 0.015625)"/>
      <use xlink:href="#DejaVuSans-65" transform="translate(98.632812 0.015625)"/>
      <use xlink:href="#DejaVuSans-71" transform="translate(160.15625 0.015625)"/>
      <use xlink:href="#DejaVuSans-75" transform="translate(223.632812 0.015625)"/>
      <use xlink:href="#DejaVuSans-65" transform="translate(287.011719 0.015625)"/>
      <use xlink:href="#DejaVuSans-6e" transform="translate(348.535156 0.015625)"/>
      <use xlink:href="#DejaVuSans-7a" transform="translate(411.914062 0.015625)"/>
      <use xlink:href="#DejaVuSans-20" transform="translate(464.404297 0.015625)"/>
      <use xlink:href="#DejaVuSans-Oblique-66" transform="translate(496.191406 0.015625)"/>
      <use xlink:href="#DejaVuSans-20" transform="translate(531.396484 0.015625)"/>
      <use xlink:href="#DejaVuSans-5b" transform="translate(563.183594 0.015625)"/>
      <use xlink:href="#DejaVuSans-48" transform="translate(599.072266 0.015625)"/>
      <use xlink:href="#DejaVuSans-7a" transform="translate(674.267578 0.015625)"/>
      <use xlink:href="#DejaVuSans-5d" transform="translate(726.757812 0.015625)"/>
     </g>
    </g>
   </g>
   <g id="matplotlib.axis_4">
    <g id="ytick_6">
     <g id="line2d_48">
      <path d="M 108 440.541818 
L 777.6 440.541818 
" clip-path="url(#p5a535f919c)" style="fill: none; stroke: #b0b0b0; stroke-width: 0.8; stroke-linecap: square"/>
     </g>
     <g id="line2d_49">
      <g>
       <use xlink:href="#mb26517c24c" x="108" y="440.541818" style="stroke: #000000; stroke-width: 0.8"/>
      </g>
     </g>
     <g id="text_28">
      <!-- 0.0 -->
      <g transform="translate(85.096875 444.341037) scale(0.1 -0.1)">
       <use xlink:href="#DejaVuSans-30"/>
       <use xlink:href="#DejaVuSans-2e" x="63.623047"/>
       <use xlink:href="#DejaVuSans-30" x="95.410156"/>
      </g>
     </g>
    </g>
    <g id="ytick_7">
     <g id="line2d_50">
      <path d="M 108 408.469091 
L 777.6 408.469091 
" clip-path="url(#p5a535f919c)" style="fill: none; stroke: #b0b0b0; stroke-width: 0.8; stroke-linecap: square"/>
     </g>
     <g id="line2d_51">
      <g>
       <use xlink:href="#mb26517c24c" x="108" y="408.469091" style="stroke: #000000; stroke-width: 0.8"/>
      </g>
     </g>
     <g id="text_29">
      <!-- 0.2 -->
      <g transform="translate(85.096875 412.26831) scale(0.1 -0.1)">
       <use xlink:href="#DejaVuSans-30"/>
       <use xlink:href="#DejaVuSans-2e" x="63.623047"/>
       <use xlink:href="#DejaVuSans-32" x="95.410156"/>
      </g>
     </g>
    </g>
    <g id="ytick_8">
     <g id="line2d_52">
      <path d="M 108 376.396364 
L 777.6 376.396364 
" clip-path="url(#p5a535f919c)" style="fill: none; stroke: #b0b0b0; stroke-width: 0.8; stroke-linecap: square"/>
     </g>
     <g id="line2d_53">
      <g>
       <use xlink:href="#mb26517c24c" x="108" y="376.396364" style="stroke: #000000; stroke-width: 0.8"/>
      </g>
     </g>
     <g id="text_30">
      <!-- 0.4 -->
      <g transform="translate(85.096875 380.195582) scale(0.1 -0.1)">
       <use xlink:href="#DejaVuSans-30"/>
       <use xlink:href="#DejaVuSans-2e" x="63.623047"/>
       <use xlink:href="#DejaVuSans-34" x="95.410156"/>
      </g>
     </g>
    </g>
    <g id="ytick_9">
     <g id="line2d_54">
      <path d="M 108 344.323636 
L 777.6 344.323636 
" clip-path="url(#p5a535f919c)" style="fill: none; stroke: #b0b0b0; stroke-width: 0.8; stroke-linecap: square"/>
     </g>
     <g id="line2d_55">
      <g>
       <use xlink:href="#mb26517c24c" x="108" y="344.323636" style="stroke: #000000; stroke-width: 0.8"/>
      </g>
     </g>
     <g id="text_31">
      <!-- 0.6 -->
      <g transform="translate(85.096875 348.122855) scale(0.1 -0.1)">
       <use xlink:href="#DejaVuSans-30"/>
       <use xlink:href="#DejaVuSans-2e" x="63.623047"/>
       <use xlink:href="#DejaVuSans-36" x="95.410156"/>
      </g>
     </g>
    </g>
    <g id="ytick_10">
     <g id="line2d_56">
      <path d="M 108 312.250909 
L 777.6 312.250909 
" clip-path="url(#p5a535f919c)" style="fill: none; stroke: #b0b0b0; stroke-width: 0.8; stroke-linecap: square"/>
     </g>
     <g id="line2d_57">
      <g>
       <use xlink:href="#mb26517c24c" x="108" y="312.250909" style="stroke: #000000; stroke-width: 0.8"/>
      </g>
     </g>
     <g id="text_32">
      <!-- 0.8 -->
      <g transform="translate(85.096875 316.050128) scale(0.1 -0.1)">
       <use xlink:href="#DejaVuSans-30"/>
       <use xlink:href="#DejaVuSans-2e" x="63.623047"/>
       <use xlink:href="#DejaVuSans-38" x="95.410156"/>
      </g>
     </g>
    </g>
    <g id="ytick_11">
     <g id="line2d_58">
      <path d="M 108 280.178182 
L 777.6 280.178182 
" clip-path="url(#p5a535f919c)" style="fill: none; stroke: #b0b0b0; stroke-width: 0.8; stroke-linecap: square"/>
     </g>
     <g id="line2d_59">
      <g>
       <use xlink:href="#mb26517c24c" x="108" y="280.178182" style="stroke: #000000; stroke-width: 0.8"/>
      </g>
     </g>
     <g id="text_33">
      <!-- 1.0 -->
      <g transform="translate(85.096875 283.977401) scale(0.1 -0.1)">
       <use xlink:href="#DejaVuSans-31"/>
       <use xlink:href="#DejaVuSans-2e" x="63.623047"/>
       <use xlink:href="#DejaVuSans-30" x="95.410156"/>
      </g>
     </g>
    </g>
    <g id="text_34">
     <!-- Amplitudenspektrum $\mid Y \mid$ -->
     <g transform="translate(78.896875 426.51) rotate(-90) scale(0.1 -0.1)">
      <defs>
       <path id="DejaVuSans-6d" d="M 3328 2828 
Q 3544 3216 3844 3400 
Q 4144 3584 4550 3584 
Q 5097 3584 5394 3201 
Q 5691 2819 5691 2113 
L 5691 0 
L 5113 0 
L 5113 2094 
Q 5113 2597 4934 2840 
Q 4756 3084 4391 3084 
Q 3944 3084 3684 2787 
Q 3425 2491 3425 1978 
L 3425 0 
L 2847 0 
L 2847 2094 
Q 2847 2600 2669 2842 
Q 2491 3084 2119 3084 
Q 1678 3084 1418 2786 
Q 1159 2488 1159 1978 
L 1159 0 
L 581 0 
L 581 3500 
L 1159 3500 
L 1159 2956 
Q 1356 3278 1631 3431 
Q 1906 3584 2284 3584 
Q 2666 3584 2933 3390 
Q 3200 3197 3328 2828 
z
" transform="scale(0.015625)"/>
       <path id="DejaVuSans-70" d="M 1159 525 
L 1159 -1331 
L 581 -1331 
L 581 3500 
L 1159 3500 
L 1159 2969 
Q 1341 3281 1617 3432 
Q 1894 3584 2278 3584 
Q 2916 3584 3314 3078 
Q 3713 2572 3713 1747 
Q 3713 922 3314 415 
Q 2916 -91 2278 -91 
Q 1894 -91 1617 61 
Q 1341 213 1159 525 
z
M 3116 1747 
Q 3116 2381 2855 2742 
Q 2594 3103 2138 3103 
Q 1681 3103 1420 2742 
Q 1159 2381 1159 1747 
Q 1159 1113 1420 752 
Q 1681 391 2138 391 
Q 2594 391 2855 752 
Q 3116 1113 3116 1747 
z
" transform="scale(0.015625)"/>
       <path id="DejaVuSans-6c" d="M 603 4863 
L 1178 4863 
L 1178 0 
L 603 0 
L 603 4863 
z
" transform="scale(0.015625)"/>
       <path id="DejaVuSans-64" d="M 2906 2969 
L 2906 4863 
L 3481 4863 
L 3481 0 
L 2906 0 
L 2906 525 
Q 2725 213 2448 61 
Q 2172 -91 1784 -91 
Q 1150 -91 751 415 
Q 353 922 353 1747 
Q 353 2572 751 3078 
Q 1150 3584 1784 3584 
Q 2172 3584 2448 3432 
Q 2725 3281 2906 2969 
z
M 947 1747 
Q 947 1113 1208 752 
Q 1469 391 1925 391 
Q 2381 391 2643 752 
Q 2906 1113 2906 1747 
Q 2906 2381 2643 2742 
Q 2381 3103 1925 3103 
Q 1469 3103 1208 2742 
Q 947 2381 947 1747 
z
" transform="scale(0.015625)"/>
       <path id="DejaVuSans-2223" d="M 1350 4934 
L 1850 4934 
L 1850 -1369 
L 1350 -1369 
L 1350 4934 
z
" transform="scale(0.015625)"/>
       <path id="DejaVuSans-Oblique-59" d="M 403 4666 
L 1081 4666 
L 1953 2747 
L 3616 4666 
L 4325 4666 
L 2209 2222 
L 1778 0 
L 1147 0 
L 1575 2222 
L 403 4666 
z
" transform="scale(0.015625)"/>
      </defs>
      <use xlink:href="#DejaVuSans-41" transform="translate(0 0.90625)"/>
      <use xlink:href="#DejaVuSans-6d" transform="translate(68.408203 0.90625)"/>
      <use xlink:href="#DejaVuSans-70" transform="translate(165.820312 0.90625)"/>
      <use xlink:href="#DejaVuSans-6c" transform="translate(229.296875 0.90625)"/>
      <use xlink:href="#DejaVuSans-69" transform="translate(257.080078 0.90625)"/>
      <use xlink:href="#DejaVuSans-74" transform="translate(284.863281 0.90625)"/>
      <use xlink:href="#DejaVuSans-75" transform="translate(324.072266 0.90625)"/>
      <use xlink:href="#DejaVuSans-64" transform="translate(387.451172 0.90625)"/>
      <use xlink:href="#DejaVuSans-65" transform="translate(450.927734 0.90625)"/>
      <use xlink:href="#DejaVuSans-6e" transform="translate(512.451172 0.90625)"/>
      <use xlink:href="#DejaVuSans-73" transform="translate(575.830078 0.90625)"/>
      <use xlink:href="#DejaVuSans-70" transform="translate(627.929688 0.90625)"/>
      <use xlink:href="#DejaVuSans-65" transform="translate(691.40625 0.90625)"/>
      <use xlink:href="#DejaVuSans-6b" transform="translate(752.929688 0.90625)"/>
      <use xlink:href="#DejaVuSans-74" transform="translate(810.839844 0.90625)"/>
      <use xlink:href="#DejaVuSans-72" transform="translate(850.048828 0.90625)"/>
      <use xlink:href="#DejaVuSans-75" transform="translate(891.162109 0.90625)"/>
      <use xlink:href="#DejaVuSans-6d" transform="translate(954.541016 0.90625)"/>
      <use xlink:href="#DejaVuSans-20" transform="translate(1051.953125 0.90625)"/>
      <use xlink:href="#DejaVuSans-2223" transform="translate(1103.222656 0.90625)"/>
      <use xlink:href="#DejaVuSans-Oblique-59" transform="translate(1172.705078 0.90625)"/>
      <use xlink:href="#DejaVuSans-2223" transform="translate(1253.271484 0.90625)"/>
     </g>
    </g>
   </g>
   <g id="LineCollection_1">
    <path d="M 138.436364 440.541818 
L 138.436364 440.541818 
" clip-path="url(#p5a535f919c)" style="fill: none; stroke: #ff0000; stroke-width: 1.5"/>
    <path d="M 157.459091 440.541818 
L 157.459091 440.541818 
" clip-path="url(#p5a535f919c)" style="fill: none; stroke: #ff0000; stroke-width: 1.5"/>
    <path d="M 176.481818 440.541818 
L 176.481818 280.178182 
" clip-path="url(#p5a535f919c)" style="fill: none; stroke: #ff0000; stroke-width: 1.5"/>
    <path d="M 195.504545 440.541818 
L 195.504545 440.541818 
" clip-path="url(#p5a535f919c)" style="fill: none; stroke: #ff0000; stroke-width: 1.5"/>
    <path d="M 214.527273 440.541818 
L 214.527273 440.541818 
" clip-path="url(#p5a535f919c)" style="fill: none; stroke: #ff0000; stroke-width: 1.5"/>
    <path d="M 233.55 440.541818 
L 233.55 440.541818 
" clip-path="url(#p5a535f919c)" style="fill: none; stroke: #ff0000; stroke-width: 1.5"/>
    <path d="M 252.572727 440.541818 
L 252.572727 440.541818 
" clip-path="url(#p5a535f919c)" style="fill: none; stroke: #ff0000; stroke-width: 1.5"/>
    <path d="M 271.595455 440.541818 
L 271.595455 440.541818 
" clip-path="url(#p5a535f919c)" style="fill: none; stroke: #ff0000; stroke-width: 1.5"/>
    <path d="M 290.618182 440.541818 
L 290.618182 440.541818 
" clip-path="url(#p5a535f919c)" style="fill: none; stroke: #ff0000; stroke-width: 1.5"/>
    <path d="M 309.640909 440.541818 
L 309.640909 440.541818 
" clip-path="url(#p5a535f919c)" style="fill: none; stroke: #ff0000; stroke-width: 1.5"/>
    <path d="M 328.663636 440.541818 
L 328.663636 440.541818 
" clip-path="url(#p5a535f919c)" style="fill: none; stroke: #ff0000; stroke-width: 1.5"/>
    <path d="M 347.686364 440.541818 
L 347.686364 440.541818 
" clip-path="url(#p5a535f919c)" style="fill: none; stroke: #ff0000; stroke-width: 1.5"/>
    <path d="M 366.709091 440.541818 
L 366.709091 440.541818 
" clip-path="url(#p5a535f919c)" style="fill: none; stroke: #ff0000; stroke-width: 1.5"/>
    <path d="M 385.731818 440.541818 
L 385.731818 440.541818 
" clip-path="url(#p5a535f919c)" style="fill: none; stroke: #ff0000; stroke-width: 1.5"/>
    <path d="M 404.754545 440.541818 
L 404.754545 440.541818 
" clip-path="url(#p5a535f919c)" style="fill: none; stroke: #ff0000; stroke-width: 1.5"/>
    <path d="M 423.777273 440.541818 
L 423.777273 440.541818 
" clip-path="url(#p5a535f919c)" style="fill: none; stroke: #ff0000; stroke-width: 1.5"/>
    <path d="M 442.8 440.541818 
L 442.8 440.541818 
" clip-path="url(#p5a535f919c)" style="fill: none; stroke: #ff0000; stroke-width: 1.5"/>
    <path d="M 461.822727 440.541818 
L 461.822727 440.541818 
" clip-path="url(#p5a535f919c)" style="fill: none; stroke: #ff0000; stroke-width: 1.5"/>
    <path d="M 480.845455 440.541818 
L 480.845455 440.541818 
" clip-path="url(#p5a535f919c)" style="fill: none; stroke: #ff0000; stroke-width: 1.5"/>
    <path d="M 499.868182 440.541818 
L 499.868182 440.541818 
" clip-path="url(#p5a535f919c)" style="fill: none; stroke: #ff0000; stroke-width: 1.5"/>
    <path d="M 518.890909 440.541818 
L 518.890909 440.541818 
" clip-path="url(#p5a535f919c)" style="fill: none; stroke: #ff0000; stroke-width: 1.5"/>
    <path d="M 537.913636 440.541818 
L 537.913636 440.541818 
" clip-path="url(#p5a535f919c)" style="fill: none; stroke: #ff0000; stroke-width: 1.5"/>
    <path d="M 556.936364 440.541818 
L 556.936364 440.541818 
" clip-path="url(#p5a535f919c)" style="fill: none; stroke: #ff0000; stroke-width: 1.5"/>
    <path d="M 575.959091 440.541818 
L 575.959091 440.541818 
" clip-path="url(#p5a535f919c)" style="fill: none; stroke: #ff0000; stroke-width: 1.5"/>
    <path d="M 594.981818 440.541818 
L 594.981818 440.541818 
" clip-path="url(#p5a535f919c)" style="fill: none; stroke: #ff0000; stroke-width: 1.5"/>
    <path d="M 614.004545 440.541818 
L 614.004545 440.541818 
" clip-path="url(#p5a535f919c)" style="fill: none; stroke: #ff0000; stroke-width: 1.5"/>
    <path d="M 633.027273 440.541818 
L 633.027273 440.541818 
" clip-path="url(#p5a535f919c)" style="fill: none; stroke: #ff0000; stroke-width: 1.5"/>
    <path d="M 652.05 440.541818 
L 652.05 440.541818 
" clip-path="url(#p5a535f919c)" style="fill: none; stroke: #ff0000; stroke-width: 1.5"/>
    <path d="M 671.072727 440.541818 
L 671.072727 440.541818 
" clip-path="url(#p5a535f919c)" style="fill: none; stroke: #ff0000; stroke-width: 1.5"/>
    <path d="M 690.095455 440.541818 
L 690.095455 440.541818 
" clip-path="url(#p5a535f919c)" style="fill: none; stroke: #ff0000; stroke-width: 1.5"/>
    <path d="M 709.118182 440.541818 
L 709.118182 440.541818 
" clip-path="url(#p5a535f919c)" style="fill: none; stroke: #ff0000; stroke-width: 1.5"/>
    <path d="M 728.140909 440.541818 
L 728.140909 440.541818 
" clip-path="url(#p5a535f919c)" style="fill: none; stroke: #ff0000; stroke-width: 1.5"/>
    <path d="M 747.163636 440.541818 
L 747.163636 440.541818 
" clip-path="url(#p5a535f919c)" style="fill: none; stroke: #ff0000; stroke-width: 1.5"/>
   </g>
   <g id="line2d_60">
    <defs>
     <path id="mda70edc255" d="M 0 3 
C 0.795609 3 1.55874 2.683901 2.12132 2.12132 
C 2.683901 1.55874 3 0.795609 3 0 
C 3 -0.795609 2.683901 -1.55874 2.12132 -2.12132 
C 1.55874 -2.683901 0.795609 -3 0 -3 
C -0.795609 -3 -1.55874 -2.683901 -2.12132 -2.12132 
C -2.683901 -1.55874 -3 -0.795609 -3 0 
C -3 0.795609 -2.683901 1.55874 -2.12132 2.12132 
C -1.55874 2.683901 -0.795609 3 0 3 
z
" style="stroke: #ff0000"/>
    </defs>
    <g clip-path="url(#p5a535f919c)">
     <use xlink:href="#mda70edc255" x="138.436364" y="440.541818" style="fill: #ff0000; stroke: #ff0000"/>
     <use xlink:href="#mda70edc255" x="157.459091" y="440.541818" style="fill: #ff0000; stroke: #ff0000"/>
     <use xlink:href="#mda70edc255" x="176.481818" y="280.178182" style="fill: #ff0000; stroke: #ff0000"/>
     <use xlink:href="#mda70edc255" x="195.504545" y="440.541818" style="fill: #ff0000; stroke: #ff0000"/>
     <use xlink:href="#mda70edc255" x="214.527273" y="440.541818" style="fill: #ff0000; stroke: #ff0000"/>
     <use xlink:href="#mda70edc255" x="233.55" y="440.541818" style="fill: #ff0000; stroke: #ff0000"/>
     <use xlink:href="#mda70edc255" x="252.572727" y="440.541818" style="fill: #ff0000; stroke: #ff0000"/>
     <use xlink:href="#mda70edc255" x="271.595455" y="440.541818" style="fill: #ff0000; stroke: #ff0000"/>
     <use xlink:href="#mda70edc255" x="290.618182" y="440.541818" style="fill: #ff0000; stroke: #ff0000"/>
     <use xlink:href="#mda70edc255" x="309.640909" y="440.541818" style="fill: #ff0000; stroke: #ff0000"/>
     <use xlink:href="#mda70edc255" x="328.663636" y="440.541818" style="fill: #ff0000; stroke: #ff0000"/>
     <use xlink:href="#mda70edc255" x="347.686364" y="440.541818" style="fill: #ff0000; stroke: #ff0000"/>
     <use xlink:href="#mda70edc255" x="366.709091" y="440.541818" style="fill: #ff0000; stroke: #ff0000"/>
     <use xlink:href="#mda70edc255" x="385.731818" y="440.541818" style="fill: #ff0000; stroke: #ff0000"/>
     <use xlink:href="#mda70edc255" x="404.754545" y="440.541818" style="fill: #ff0000; stroke: #ff0000"/>
     <use xlink:href="#mda70edc255" x="423.777273" y="440.541818" style="fill: #ff0000; stroke: #ff0000"/>
     <use xlink:href="#mda70edc255" x="442.8" y="440.541818" style="fill: #ff0000; stroke: #ff0000"/>
     <use xlink:href="#mda70edc255" x="461.822727" y="440.541818" style="fill: #ff0000; stroke: #ff0000"/>
     <use xlink:href="#mda70edc255" x="480.845455" y="440.541818" style="fill: #ff0000; stroke: #ff0000"/>
     <use xlink:href="#mda70edc255" x="499.868182" y="440.541818" style="fill: #ff0000; stroke: #ff0000"/>
     <use xlink:href="#mda70edc255" x="518.890909" y="440.541818" style="fill: #ff0000; stroke: #ff0000"/>
     <use xlink:href="#mda70edc255" x="537.913636" y="440.541818" style="fill: #ff0000; stroke: #ff0000"/>
     <use xlink:href="#mda70edc255" x="556.936364" y="440.541818" style="fill: #ff0000; stroke: #ff0000"/>
     <use xlink:href="#mda70edc255" x="575.959091" y="440.541818" style="fill: #ff0000; stroke: #ff0000"/>
     <use xlink:href="#mda70edc255" x="594.981818" y="440.541818" style="fill: #ff0000; stroke: #ff0000"/>
     <use xlink:href="#mda70edc255" x="614.004545" y="440.541818" style="fill: #ff0000; stroke: #ff0000"/>
     <use xlink:href="#mda70edc255" x="633.027273" y="440.541818" style="fill: #ff0000; stroke: #ff0000"/>
     <use xlink:href="#mda70edc255" x="652.05" y="440.541818" style="fill: #ff0000; stroke: #ff0000"/>
     <use xlink:href="#mda70edc255" x="671.072727" y="440.541818" style="fill: #ff0000; stroke: #ff0000"/>
     <use xlink:href="#mda70edc255" x="690.095455" y="440.541818" style="fill: #ff0000; stroke: #ff0000"/>
     <use xlink:href="#mda70edc255" x="709.118182" y="440.541818" style="fill: #ff0000; stroke: #ff0000"/>
     <use xlink:href="#mda70edc255" x="728.140909" y="440.541818" style="fill: #ff0000; stroke: #ff0000"/>
     <use xlink:href="#mda70edc255" x="747.163636" y="440.541818" style="fill: #ff0000; stroke: #ff0000"/>
    </g>
   </g>
   <g id="line2d_61">
    <path d="M 138.436364 440.541818 
L 747.163636 440.541818 
" clip-path="url(#p5a535f919c)" style="fill: none; stroke: #ff0000; stroke-width: 1.5; stroke-linecap: square"/>
   </g>
   <g id="patch_9">
    <path d="M 108 448.56 
L 108 272.16 
" style="fill: none; stroke: #000000; stroke-width: 0.8; stroke-linejoin: miter; stroke-linecap: square"/>
   </g>
   <g id="patch_10">
    <path d="M 777.6 448.56 
L 777.6 272.16 
" style="fill: none; stroke: #000000; stroke-width: 0.8; stroke-linejoin: miter; stroke-linecap: square"/>
   </g>
   <g id="patch_11">
    <path d="M 108 448.56 
L 777.6 448.56 
" style="fill: none; stroke: #000000; stroke-width: 0.8; stroke-linejoin: miter; stroke-linecap: square"/>
   </g>
   <g id="patch_12">
    <path d="M 108 272.16 
L 777.6 272.16 
" style="fill: none; stroke: #000000; stroke-width: 0.8; stroke-linejoin: miter; stroke-linecap: square"/>
   </g>
  </g>
 </g>
 <defs>
  <clipPath id="pb861f03f36">
   <rect x="108" y="60.48" width="669.6" height="176.4"/>
  </clipPath>
  <clipPath id="p5a535f919c">
   <rect x="108" y="272.16" width="669.6" height="176.4"/>
  </clipPath>
 </defs>
</svg>
