<?xml version="1.0" encoding="utf-8" standalone="no"?>
<!DOCTYPE svg PUBLIC "-//W3C//DTD SVG 1.1//EN"
  "http://www.w3.org/Graphics/SVG/1.1/DTD/svg11.dtd">
<svg xmlns:xlink="http://www.w3.org/1999/xlink" width="864pt" height="288pt" viewBox="0 0 864 288" xmlns="http://www.w3.org/2000/svg" version="1.1">
 <metadata>
  <rdf:RDF xmlns:dc="http://purl.org/dc/elements/1.1/" xmlns:cc="http://creativecommons.org/ns#" xmlns:rdf="http://www.w3.org/1999/02/22-rdf-syntax-ns#">
   <cc:Work>
    <dc:type rdf:resource="http://purl.org/dc/dcmitype/StillImage"/>
    <dc:date>2023-12-19T14:31:41.335781</dc:date>
    <dc:format>image/svg+xml</dc:format>
    <dc:creator>
     <cc:Agent>
      <dc:title>Matplotlib v3.8.0, https://matplotlib.org/</dc:title>
     </cc:Agent>
    </dc:creator>
   </cc:Work>
  </rdf:RDF>
 </metadata>
 <defs>
  <style type="text/css">*{stroke-linejoin: round; stroke-linecap: butt}</style>
 </defs>
 <g id="figure_1">
  <g id="patch_1">
   <path d="M 0 288 
L 864 288 
L 864 0 
L 0 0 
z
" style="fill: #ffffff"/>
  </g>
  <g id="axes_1">
   <g id="patch_2">
    <path d="M 108 256.32 
L 777.6 256.32 
L 777.6 34.56 
L 108 34.56 
z
" style="fill: #ffffff"/>
   </g>
   <g id="matplotlib.axis_1">
    <g id="xtick_1">
     <g id="line2d_1">
      <path d="M 138.436364 256.32 
L 138.436364 34.56 
" clip-path="url(#p2883a05842)" style="fill: none; stroke: #b0b0b0; stroke-width: 0.8; stroke-linecap: square"/>
     </g>
     <g id="line2d_2">
      <defs>
       <path id="m8d06fe65ec" d="M 0 0 
L 0 3.5 
" style="stroke: #000000; stroke-width: 0.8"/>
      </defs>
      <g>
       <use xlink:href="#m8d06fe65ec" x="138.436364" y="256.32" style="stroke: #000000; stroke-width: 0.8"/>
      </g>
     </g>
     <g id="text_1">
      <!-- 0.0 -->
      <g transform="translate(130.484801 270.918437) scale(0.1 -0.1)">
       <defs>
        <path id="DejaVuSans-30" d="M 2034 4250 
Q 1547 4250 1301 3770 
Q 1056 3291 1056 2328 
Q 1056 1369 1301 889 
Q 1547 409 2034 409 
Q 2525 409 2770 889 
Q 3016 1369 3016 2328 
Q 3016 3291 2770 3770 
Q 2525 4250 2034 4250 
z
M 2034 4750 
Q 2819 4750 3233 4129 
Q 3647 3509 3647 2328 
Q 3647 1150 3233 529 
Q 2819 -91 2034 -91 
Q 1250 -91 836 529 
Q 422 1150 422 2328 
Q 422 3509 836 4129 
Q 1250 4750 2034 4750 
z
" transform="scale(0.015625)"/>
        <path id="DejaVuSans-2e" d="M 684 794 
L 1344 794 
L 1344 0 
L 684 0 
L 684 794 
z
" transform="scale(0.015625)"/>
       </defs>
       <use xlink:href="#DejaVuSans-30"/>
       <use xlink:href="#DejaVuSans-2e" x="63.623047"/>
       <use xlink:href="#DejaVuSans-30" x="95.410156"/>
      </g>
     </g>
    </g>
    <g id="xtick_2">
     <g id="line2d_3">
      <path d="M 261.7229 256.32 
L 261.7229 34.56 
" clip-path="url(#p2883a05842)" style="fill: none; stroke: #b0b0b0; stroke-width: 0.8; stroke-linecap: square"/>
     </g>
     <g id="line2d_4">
      <g>
       <use xlink:href="#m8d06fe65ec" x="261.7229" y="256.32" style="stroke: #000000; stroke-width: 0.8"/>
      </g>
     </g>
     <g id="text_2">
      <!-- 0.2 -->
      <g transform="translate(253.771337 270.918437) scale(0.1 -0.1)">
       <defs>
        <path id="DejaVuSans-32" d="M 1228 531 
L 3431 531 
L 3431 0 
L 469 0 
L 469 531 
Q 828 903 1448 1529 
Q 2069 2156 2228 2338 
Q 2531 2678 2651 2914 
Q 2772 3150 2772 3378 
Q 2772 3750 2511 3984 
Q 2250 4219 1831 4219 
Q 1534 4219 1204 4116 
Q 875 4013 500 3803 
L 500 4441 
Q 881 4594 1212 4672 
Q 1544 4750 1819 4750 
Q 2544 4750 2975 4387 
Q 3406 4025 3406 3419 
Q 3406 3131 3298 2873 
Q 3191 2616 2906 2266 
Q 2828 2175 2409 1742 
Q 1991 1309 1228 531 
z
" transform="scale(0.015625)"/>
       </defs>
       <use xlink:href="#DejaVuSans-30"/>
       <use xlink:href="#DejaVuSans-2e" x="63.623047"/>
       <use xlink:href="#DejaVuSans-32" x="95.410156"/>
      </g>
     </g>
    </g>
    <g id="xtick_3">
     <g id="line2d_5">
      <path d="M 385.009436 256.32 
L 385.009436 34.56 
" clip-path="url(#p2883a05842)" style="fill: none; stroke: #b0b0b0; stroke-width: 0.8; stroke-linecap: square"/>
     </g>
     <g id="line2d_6">
      <g>
       <use xlink:href="#m8d06fe65ec" x="385.009436" y="256.32" style="stroke: #000000; stroke-width: 0.8"/>
      </g>
     </g>
     <g id="text_3">
      <!-- 0.4 -->
      <g transform="translate(377.057874 270.918437) scale(0.1 -0.1)">
       <defs>
        <path id="DejaVuSans-34" d="M 2419 4116 
L 825 1625 
L 2419 1625 
L 2419 4116 
z
M 2253 4666 
L 3047 4666 
L 3047 1625 
L 3713 1625 
L 3713 1100 
L 3047 1100 
L 3047 0 
L 2419 0 
L 2419 1100 
L 313 1100 
L 313 1709 
L 2253 4666 
z
" transform="scale(0.015625)"/>
       </defs>
       <use xlink:href="#DejaVuSans-30"/>
       <use xlink:href="#DejaVuSans-2e" x="63.623047"/>
       <use xlink:href="#DejaVuSans-34" x="95.410156"/>
      </g>
     </g>
    </g>
    <g id="xtick_4">
     <g id="line2d_7">
      <path d="M 508.295972 256.32 
L 508.295972 34.56 
" clip-path="url(#p2883a05842)" style="fill: none; stroke: #b0b0b0; stroke-width: 0.8; stroke-linecap: square"/>
     </g>
     <g id="line2d_8">
      <g>
       <use xlink:href="#m8d06fe65ec" x="508.295972" y="256.32" style="stroke: #000000; stroke-width: 0.8"/>
      </g>
     </g>
     <g id="text_4">
      <!-- 0.6 -->
      <g transform="translate(500.34441 270.918437) scale(0.1 -0.1)">
       <defs>
        <path id="DejaVuSans-36" d="M 2113 2584 
Q 1688 2584 1439 2293 
Q 1191 2003 1191 1497 
Q 1191 994 1439 701 
Q 1688 409 2113 409 
Q 2538 409 2786 701 
Q 3034 994 3034 1497 
Q 3034 2003 2786 2293 
Q 2538 2584 2113 2584 
z
M 3366 4563 
L 3366 3988 
Q 3128 4100 2886 4159 
Q 2644 4219 2406 4219 
Q 1781 4219 1451 3797 
Q 1122 3375 1075 2522 
Q 1259 2794 1537 2939 
Q 1816 3084 2150 3084 
Q 2853 3084 3261 2657 
Q 3669 2231 3669 1497 
Q 3669 778 3244 343 
Q 2819 -91 2113 -91 
Q 1303 -91 875 529 
Q 447 1150 447 2328 
Q 447 3434 972 4092 
Q 1497 4750 2381 4750 
Q 2619 4750 2861 4703 
Q 3103 4656 3366 4563 
z
" transform="scale(0.015625)"/>
       </defs>
       <use xlink:href="#DejaVuSans-30"/>
       <use xlink:href="#DejaVuSans-2e" x="63.623047"/>
       <use xlink:href="#DejaVuSans-36" x="95.410156"/>
      </g>
     </g>
    </g>
    <g id="xtick_5">
     <g id="line2d_9">
      <path d="M 631.582509 256.32 
L 631.582509 34.56 
" clip-path="url(#p2883a05842)" style="fill: none; stroke: #b0b0b0; stroke-width: 0.8; stroke-linecap: square"/>
     </g>
     <g id="line2d_10">
      <g>
       <use xlink:href="#m8d06fe65ec" x="631.582509" y="256.32" style="stroke: #000000; stroke-width: 0.8"/>
      </g>
     </g>
     <g id="text_5">
      <!-- 0.8 -->
      <g transform="translate(623.630946 270.918437) scale(0.1 -0.1)">
       <defs>
        <path id="DejaVuSans-38" d="M 2034 2216 
Q 1584 2216 1326 1975 
Q 1069 1734 1069 1313 
Q 1069 891 1326 650 
Q 1584 409 2034 409 
Q 2484 409 2743 651 
Q 3003 894 3003 1313 
Q 3003 1734 2745 1975 
Q 2488 2216 2034 2216 
z
M 1403 2484 
Q 997 2584 770 2862 
Q 544 3141 544 3541 
Q 544 4100 942 4425 
Q 1341 4750 2034 4750 
Q 2731 4750 3128 4425 
Q 3525 4100 3525 3541 
Q 3525 3141 3298 2862 
Q 3072 2584 2669 2484 
Q 3125 2378 3379 2068 
Q 3634 1759 3634 1313 
Q 3634 634 3220 271 
Q 2806 -91 2034 -91 
Q 1263 -91 848 271 
Q 434 634 434 1313 
Q 434 1759 690 2068 
Q 947 2378 1403 2484 
z
M 1172 3481 
Q 1172 3119 1398 2916 
Q 1625 2713 2034 2713 
Q 2441 2713 2670 2916 
Q 2900 3119 2900 3481 
Q 2900 3844 2670 4047 
Q 2441 4250 2034 4250 
Q 1625 4250 1398 4047 
Q 1172 3844 1172 3481 
z
" transform="scale(0.015625)"/>
       </defs>
       <use xlink:href="#DejaVuSans-30"/>
       <use xlink:href="#DejaVuSans-2e" x="63.623047"/>
       <use xlink:href="#DejaVuSans-38" x="95.410156"/>
      </g>
     </g>
    </g>
    <g id="xtick_6">
     <g id="line2d_11">
      <path d="M 754.869045 256.32 
L 754.869045 34.56 
" clip-path="url(#p2883a05842)" style="fill: none; stroke: #b0b0b0; stroke-width: 0.8; stroke-linecap: square"/>
     </g>
     <g id="line2d_12">
      <g>
       <use xlink:href="#m8d06fe65ec" x="754.869045" y="256.32" style="stroke: #000000; stroke-width: 0.8"/>
      </g>
     </g>
     <g id="text_6">
      <!-- 1.0 -->
      <g transform="translate(746.917482 270.918437) scale(0.1 -0.1)">
       <defs>
        <path id="DejaVuSans-31" d="M 794 531 
L 1825 531 
L 1825 4091 
L 703 3866 
L 703 4441 
L 1819 4666 
L 2450 4666 
L 2450 531 
L 3481 531 
L 3481 0 
L 794 0 
L 794 531 
z
" transform="scale(0.015625)"/>
       </defs>
       <use xlink:href="#DejaVuSans-31"/>
       <use xlink:href="#DejaVuSans-2e" x="63.623047"/>
       <use xlink:href="#DejaVuSans-30" x="95.410156"/>
      </g>
     </g>
    </g>
    <g id="text_7">
     <!-- rel. Zeit $t / t_{meas}$ -->
     <g transform="translate(406.35 284.596563) scale(0.1 -0.1)">
      <defs>
       <path id="DejaVuSans-72" d="M 2631 2963 
Q 2534 3019 2420 3045 
Q 2306 3072 2169 3072 
Q 1681 3072 1420 2755 
Q 1159 2438 1159 1844 
L 1159 0 
L 581 0 
L 581 3500 
L 1159 3500 
L 1159 2956 
Q 1341 3275 1631 3429 
Q 1922 3584 2338 3584 
Q 2397 3584 2469 3576 
Q 2541 3569 2628 3553 
L 2631 2963 
z
" transform="scale(0.015625)"/>
       <path id="DejaVuSans-65" d="M 3597 1894 
L 3597 1613 
L 953 1613 
Q 991 1019 1311 708 
Q 1631 397 2203 397 
Q 2534 397 2845 478 
Q 3156 559 3463 722 
L 3463 178 
Q 3153 47 2828 -22 
Q 2503 -91 2169 -91 
Q 1331 -91 842 396 
Q 353 884 353 1716 
Q 353 2575 817 3079 
Q 1281 3584 2069 3584 
Q 2775 3584 3186 3129 
Q 3597 2675 3597 1894 
z
M 3022 2063 
Q 3016 2534 2758 2815 
Q 2500 3097 2075 3097 
Q 1594 3097 1305 2825 
Q 1016 2553 972 2059 
L 3022 2063 
z
" transform="scale(0.015625)"/>
       <path id="DejaVuSans-6c" d="M 603 4863 
L 1178 4863 
L 1178 0 
L 603 0 
L 603 4863 
z
" transform="scale(0.015625)"/>
       <path id="DejaVuSans-20" transform="scale(0.015625)"/>
       <path id="DejaVuSans-5a" d="M 359 4666 
L 4025 4666 
L 4025 4184 
L 1075 531 
L 4097 531 
L 4097 0 
L 288 0 
L 288 481 
L 3238 4134 
L 359 4134 
L 359 4666 
z
" transform="scale(0.015625)"/>
       <path id="DejaVuSans-69" d="M 603 3500 
L 1178 3500 
L 1178 0 
L 603 0 
L 603 3500 
z
M 603 4863 
L 1178 4863 
L 1178 4134 
L 603 4134 
L 603 4863 
z
" transform="scale(0.015625)"/>
       <path id="DejaVuSans-74" d="M 1172 4494 
L 1172 3500 
L 2356 3500 
L 2356 3053 
L 1172 3053 
L 1172 1153 
Q 1172 725 1289 603 
Q 1406 481 1766 481 
L 2356 481 
L 2356 0 
L 1766 0 
Q 1100 0 847 248 
Q 594 497 594 1153 
L 594 3053 
L 172 3053 
L 172 3500 
L 594 3500 
L 594 4494 
L 1172 4494 
z
" transform="scale(0.015625)"/>
       <path id="DejaVuSans-Oblique-74" d="M 2706 3500 
L 2619 3053 
L 1472 3053 
L 1100 1153 
Q 1081 1047 1072 975 
Q 1063 903 1063 863 
Q 1063 663 1183 572 
Q 1303 481 1569 481 
L 2150 481 
L 2053 0 
L 1503 0 
Q 991 0 739 200 
Q 488 400 488 806 
Q 488 878 497 964 
Q 506 1050 525 1153 
L 897 3053 
L 409 3053 
L 500 3500 
L 978 3500 
L 1172 4494 
L 1747 4494 
L 1556 3500 
L 2706 3500 
z
" transform="scale(0.015625)"/>
       <path id="DejaVuSans-2f" d="M 1625 4666 
L 2156 4666 
L 531 -594 
L 0 -594 
L 1625 4666 
z
" transform="scale(0.015625)"/>
       <path id="DejaVuSans-Oblique-6d" d="M 5747 2113 
L 5338 0 
L 4763 0 
L 5166 2094 
Q 5191 2228 5203 2325 
Q 5216 2422 5216 2491 
Q 5216 2772 5059 2928 
Q 4903 3084 4622 3084 
Q 4203 3084 3875 2770 
Q 3547 2456 3450 1953 
L 3066 0 
L 2491 0 
L 2900 2094 
Q 2925 2209 2937 2307 
Q 2950 2406 2950 2484 
Q 2950 2769 2794 2926 
Q 2638 3084 2363 3084 
Q 1938 3084 1609 2770 
Q 1281 2456 1184 1953 
L 800 0 
L 225 0 
L 909 3500 
L 1484 3500 
L 1375 2956 
Q 1609 3263 1923 3423 
Q 2238 3584 2597 3584 
Q 2978 3584 3223 3384 
Q 3469 3184 3519 2828 
Q 3781 3197 4126 3390 
Q 4472 3584 4856 3584 
Q 5306 3584 5551 3325 
Q 5797 3066 5797 2591 
Q 5797 2488 5784 2364 
Q 5772 2241 5747 2113 
z
" transform="scale(0.015625)"/>
       <path id="DejaVuSans-Oblique-65" d="M 3078 2063 
Q 3088 2113 3092 2166 
Q 3097 2219 3097 2272 
Q 3097 2653 2873 2875 
Q 2650 3097 2266 3097 
Q 1838 3097 1509 2826 
Q 1181 2556 1013 2059 
L 3078 2063 
z
M 3578 1613 
L 903 1613 
Q 884 1494 878 1425 
Q 872 1356 872 1306 
Q 872 872 1139 634 
Q 1406 397 1894 397 
Q 2269 397 2603 481 
Q 2938 566 3225 728 
L 3116 159 
Q 2806 34 2476 -28 
Q 2147 -91 1806 -91 
Q 1078 -91 686 257 
Q 294 606 294 1247 
Q 294 1794 489 2264 
Q 684 2734 1063 3103 
Q 1306 3334 1642 3459 
Q 1978 3584 2356 3584 
Q 2950 3584 3301 3228 
Q 3653 2872 3653 2272 
Q 3653 2128 3634 1964 
Q 3616 1800 3578 1613 
z
" transform="scale(0.015625)"/>
       <path id="DejaVuSans-Oblique-61" d="M 3438 1997 
L 3047 0 
L 2472 0 
L 2578 531 
Q 2325 219 2001 64 
Q 1678 -91 1281 -91 
Q 834 -91 548 182 
Q 263 456 263 884 
Q 263 1497 752 1853 
Q 1241 2209 2100 2209 
L 2900 2209 
L 2931 2363 
Q 2938 2388 2941 2417 
Q 2944 2447 2944 2509 
Q 2944 2788 2717 2942 
Q 2491 3097 2081 3097 
Q 1800 3097 1504 3025 
Q 1209 2953 897 2809 
L 997 3341 
Q 1322 3463 1633 3523 
Q 1944 3584 2234 3584 
Q 2853 3584 3176 3315 
Q 3500 3047 3500 2534 
Q 3500 2431 3484 2292 
Q 3469 2153 3438 1997 
z
M 2816 1759 
L 2241 1759 
Q 1534 1759 1195 1570 
Q 856 1381 856 984 
Q 856 709 1029 553 
Q 1203 397 1509 397 
Q 1978 397 2328 733 
Q 2678 1069 2791 1631 
L 2816 1759 
z
" transform="scale(0.015625)"/>
       <path id="DejaVuSans-Oblique-73" d="M 3200 3397 
L 3091 2853 
Q 2863 2978 2609 3040 
Q 2356 3103 2088 3103 
Q 1634 3103 1373 2948 
Q 1113 2794 1113 2528 
Q 1113 2219 1719 2053 
Q 1766 2041 1788 2034 
L 1972 1978 
Q 2547 1819 2739 1644 
Q 2931 1469 2931 1166 
Q 2931 609 2489 259 
Q 2047 -91 1331 -91 
Q 1053 -91 747 -37 
Q 441 16 72 128 
L 184 722 
Q 500 559 806 475 
Q 1113 391 1394 391 
Q 1816 391 2080 572 
Q 2344 753 2344 1031 
Q 2344 1331 1650 1516 
L 1591 1531 
L 1394 1581 
Q 956 1697 753 1886 
Q 550 2075 550 2369 
Q 550 2928 970 3256 
Q 1391 3584 2113 3584 
Q 2397 3584 2667 3537 
Q 2938 3491 3200 3397 
z
" transform="scale(0.015625)"/>
      </defs>
      <use xlink:href="#DejaVuSans-72" transform="translate(0 0.015625)"/>
      <use xlink:href="#DejaVuSans-65" transform="translate(41.113281 0.015625)"/>
      <use xlink:href="#DejaVuSans-6c" transform="translate(102.636719 0.015625)"/>
      <use xlink:href="#DejaVuSans-2e" transform="translate(130.419922 0.015625)"/>
      <use xlink:href="#DejaVuSans-20" transform="translate(162.207031 0.015625)"/>
      <use xlink:href="#DejaVuSans-5a" transform="translate(193.994141 0.015625)"/>
      <use xlink:href="#DejaVuSans-65" transform="translate(262.5 0.015625)"/>
      <use xlink:href="#DejaVuSans-69" transform="translate(324.023438 0.015625)"/>
      <use xlink:href="#DejaVuSans-74" transform="translate(351.806641 0.015625)"/>
      <use xlink:href="#DejaVuSans-20" transform="translate(391.015625 0.015625)"/>
      <use xlink:href="#DejaVuSans-Oblique-74" transform="translate(422.802734 0.015625)"/>
      <use xlink:href="#DejaVuSans-2f" transform="translate(462.011719 0.015625)"/>
      <use xlink:href="#DejaVuSans-Oblique-74" transform="translate(495.703125 0.015625)"/>
      <use xlink:href="#DejaVuSans-Oblique-6d" transform="translate(534.912109 -16.390625) scale(0.7)"/>
      <use xlink:href="#DejaVuSans-Oblique-65" transform="translate(603.100586 -16.390625) scale(0.7)"/>
      <use xlink:href="#DejaVuSans-Oblique-61" transform="translate(646.166992 -16.390625) scale(0.7)"/>
      <use xlink:href="#DejaVuSans-Oblique-73" transform="translate(689.0625 -16.390625) scale(0.7)"/>
     </g>
    </g>
   </g>
   <g id="matplotlib.axis_2">
    <g id="ytick_1">
     <g id="line2d_13">
      <path d="M 108 246.24 
L 777.6 246.24 
" clip-path="url(#p2883a05842)" style="fill: none; stroke: #b0b0b0; stroke-width: 0.8; stroke-linecap: square"/>
     </g>
     <g id="line2d_14">
      <defs>
       <path id="mb880b80fc5" d="M 0 0 
L -3.5 0 
" style="stroke: #000000; stroke-width: 0.8"/>
      </defs>
      <g>
       <use xlink:href="#mb880b80fc5" x="108" y="246.24" style="stroke: #000000; stroke-width: 0.8"/>
      </g>
     </g>
     <g id="text_8">
      <!-- 0.0 -->
      <g transform="translate(85.096875 250.039219) scale(0.1 -0.1)">
       <use xlink:href="#DejaVuSans-30"/>
       <use xlink:href="#DejaVuSans-2e" x="63.623047"/>
       <use xlink:href="#DejaVuSans-30" x="95.410156"/>
      </g>
     </g>
    </g>
    <g id="ytick_2">
     <g id="line2d_15">
      <path d="M 108 205.92 
L 777.6 205.92 
" clip-path="url(#p2883a05842)" style="fill: none; stroke: #b0b0b0; stroke-width: 0.8; stroke-linecap: square"/>
     </g>
     <g id="line2d_16">
      <g>
       <use xlink:href="#mb880b80fc5" x="108" y="205.92" style="stroke: #000000; stroke-width: 0.8"/>
      </g>
     </g>
     <g id="text_9">
      <!-- 0.2 -->
      <g transform="translate(85.096875 209.719219) scale(0.1 -0.1)">
       <use xlink:href="#DejaVuSans-30"/>
       <use xlink:href="#DejaVuSans-2e" x="63.623047"/>
       <use xlink:href="#DejaVuSans-32" x="95.410156"/>
      </g>
     </g>
    </g>
    <g id="ytick_3">
     <g id="line2d_17">
      <path d="M 108 165.6 
L 777.6 165.6 
" clip-path="url(#p2883a05842)" style="fill: none; stroke: #b0b0b0; stroke-width: 0.8; stroke-linecap: square"/>
     </g>
     <g id="line2d_18">
      <g>
       <use xlink:href="#mb880b80fc5" x="108" y="165.6" style="stroke: #000000; stroke-width: 0.8"/>
      </g>
     </g>
     <g id="text_10">
      <!-- 0.4 -->
      <g transform="translate(85.096875 169.399219) scale(0.1 -0.1)">
       <use xlink:href="#DejaVuSans-30"/>
       <use xlink:href="#DejaVuSans-2e" x="63.623047"/>
       <use xlink:href="#DejaVuSans-34" x="95.410156"/>
      </g>
     </g>
    </g>
    <g id="ytick_4">
     <g id="line2d_19">
      <path d="M 108 125.28 
L 777.6 125.28 
" clip-path="url(#p2883a05842)" style="fill: none; stroke: #b0b0b0; stroke-width: 0.8; stroke-linecap: square"/>
     </g>
     <g id="line2d_20">
      <g>
       <use xlink:href="#mb880b80fc5" x="108" y="125.28" style="stroke: #000000; stroke-width: 0.8"/>
      </g>
     </g>
     <g id="text_11">
      <!-- 0.6 -->
      <g transform="translate(85.096875 129.079219) scale(0.1 -0.1)">
       <use xlink:href="#DejaVuSans-30"/>
       <use xlink:href="#DejaVuSans-2e" x="63.623047"/>
       <use xlink:href="#DejaVuSans-36" x="95.410156"/>
      </g>
     </g>
    </g>
    <g id="ytick_5">
     <g id="line2d_21">
      <path d="M 108 84.96 
L 777.6 84.96 
" clip-path="url(#p2883a05842)" style="fill: none; stroke: #b0b0b0; stroke-width: 0.8; stroke-linecap: square"/>
     </g>
     <g id="line2d_22">
      <g>
       <use xlink:href="#mb880b80fc5" x="108" y="84.96" style="stroke: #000000; stroke-width: 0.8"/>
      </g>
     </g>
     <g id="text_12">
      <!-- 0.8 -->
      <g transform="translate(85.096875 88.759219) scale(0.1 -0.1)">
       <use xlink:href="#DejaVuSans-30"/>
       <use xlink:href="#DejaVuSans-2e" x="63.623047"/>
       <use xlink:href="#DejaVuSans-38" x="95.410156"/>
      </g>
     </g>
    </g>
    <g id="ytick_6">
     <g id="line2d_23">
      <path d="M 108 44.64 
L 777.6 44.64 
" clip-path="url(#p2883a05842)" style="fill: none; stroke: #b0b0b0; stroke-width: 0.8; stroke-linecap: square"/>
     </g>
     <g id="line2d_24">
      <g>
       <use xlink:href="#mb880b80fc5" x="108" y="44.64" style="stroke: #000000; stroke-width: 0.8"/>
      </g>
     </g>
     <g id="text_13">
      <!-- 1.0 -->
      <g transform="translate(85.096875 48.439219) scale(0.1 -0.1)">
       <use xlink:href="#DejaVuSans-31"/>
       <use xlink:href="#DejaVuSans-2e" x="63.623047"/>
       <use xlink:href="#DejaVuSans-30" x="95.410156"/>
      </g>
     </g>
    </g>
    <g id="text_14">
     <!-- Fensterfunktion $w$ -->
     <g transform="translate(79.017187 190.54) rotate(-90) scale(0.1 -0.1)">
      <defs>
       <path id="DejaVuSans-46" d="M 628 4666 
L 3309 4666 
L 3309 4134 
L 1259 4134 
L 1259 2759 
L 3109 2759 
L 3109 2228 
L 1259 2228 
L 1259 0 
L 628 0 
L 628 4666 
z
" transform="scale(0.015625)"/>
       <path id="DejaVuSans-6e" d="M 3513 2113 
L 3513 0 
L 2938 0 
L 2938 2094 
Q 2938 2591 2744 2837 
Q 2550 3084 2163 3084 
Q 1697 3084 1428 2787 
Q 1159 2491 1159 1978 
L 1159 0 
L 581 0 
L 581 3500 
L 1159 3500 
L 1159 2956 
Q 1366 3272 1645 3428 
Q 1925 3584 2291 3584 
Q 2894 3584 3203 3211 
Q 3513 2838 3513 2113 
z
" transform="scale(0.015625)"/>
       <path id="DejaVuSans-73" d="M 2834 3397 
L 2834 2853 
Q 2591 2978 2328 3040 
Q 2066 3103 1784 3103 
Q 1356 3103 1142 2972 
Q 928 2841 928 2578 
Q 928 2378 1081 2264 
Q 1234 2150 1697 2047 
L 1894 2003 
Q 2506 1872 2764 1633 
Q 3022 1394 3022 966 
Q 3022 478 2636 193 
Q 2250 -91 1575 -91 
Q 1294 -91 989 -36 
Q 684 19 347 128 
L 347 722 
Q 666 556 975 473 
Q 1284 391 1588 391 
Q 1994 391 2212 530 
Q 2431 669 2431 922 
Q 2431 1156 2273 1281 
Q 2116 1406 1581 1522 
L 1381 1569 
Q 847 1681 609 1914 
Q 372 2147 372 2553 
Q 372 3047 722 3315 
Q 1072 3584 1716 3584 
Q 2034 3584 2315 3537 
Q 2597 3491 2834 3397 
z
" transform="scale(0.015625)"/>
       <path id="DejaVuSans-66" d="M 2375 4863 
L 2375 4384 
L 1825 4384 
Q 1516 4384 1395 4259 
Q 1275 4134 1275 3809 
L 1275 3500 
L 2222 3500 
L 2222 3053 
L 1275 3053 
L 1275 0 
L 697 0 
L 697 3053 
L 147 3053 
L 147 3500 
L 697 3500 
L 697 3744 
Q 697 4328 969 4595 
Q 1241 4863 1831 4863 
L 2375 4863 
z
" transform="scale(0.015625)"/>
       <path id="DejaVuSans-75" d="M 544 1381 
L 544 3500 
L 1119 3500 
L 1119 1403 
Q 1119 906 1312 657 
Q 1506 409 1894 409 
Q 2359 409 2629 706 
Q 2900 1003 2900 1516 
L 2900 3500 
L 3475 3500 
L 3475 0 
L 2900 0 
L 2900 538 
Q 2691 219 2414 64 
Q 2138 -91 1772 -91 
Q 1169 -91 856 284 
Q 544 659 544 1381 
z
M 1991 3584 
L 1991 3584 
z
" transform="scale(0.015625)"/>
       <path id="DejaVuSans-6b" d="M 581 4863 
L 1159 4863 
L 1159 1991 
L 2875 3500 
L 3609 3500 
L 1753 1863 
L 3688 0 
L 2938 0 
L 1159 1709 
L 1159 0 
L 581 0 
L 581 4863 
z
" transform="scale(0.015625)"/>
       <path id="DejaVuSans-6f" d="M 1959 3097 
Q 1497 3097 1228 2736 
Q 959 2375 959 1747 
Q 959 1119 1226 758 
Q 1494 397 1959 397 
Q 2419 397 2687 759 
Q 2956 1122 2956 1747 
Q 2956 2369 2687 2733 
Q 2419 3097 1959 3097 
z
M 1959 3584 
Q 2709 3584 3137 3096 
Q 3566 2609 3566 1747 
Q 3566 888 3137 398 
Q 2709 -91 1959 -91 
Q 1206 -91 779 398 
Q 353 888 353 1747 
Q 353 2609 779 3096 
Q 1206 3584 1959 3584 
z
" transform="scale(0.015625)"/>
       <path id="DejaVuSans-Oblique-77" d="M 544 3500 
L 1113 3500 
L 1259 684 
L 2566 3500 
L 3231 3500 
L 3425 684 
L 4666 3500 
L 5241 3500 
L 3641 0 
L 2969 0 
L 2797 2900 
L 1459 0 
L 781 0 
L 544 3500 
z
" transform="scale(0.015625)"/>
      </defs>
      <use xlink:href="#DejaVuSans-46" transform="translate(0 0.015625)"/>
      <use xlink:href="#DejaVuSans-65" transform="translate(57.519531 0.015625)"/>
      <use xlink:href="#DejaVuSans-6e" transform="translate(119.042969 0.015625)"/>
      <use xlink:href="#DejaVuSans-73" transform="translate(182.421875 0.015625)"/>
      <use xlink:href="#DejaVuSans-74" transform="translate(234.521484 0.015625)"/>
      <use xlink:href="#DejaVuSans-65" transform="translate(273.730469 0.015625)"/>
      <use xlink:href="#DejaVuSans-72" transform="translate(335.253906 0.015625)"/>
      <use xlink:href="#DejaVuSans-66" transform="translate(376.367188 0.015625)"/>
      <use xlink:href="#DejaVuSans-75" transform="translate(411.572266 0.015625)"/>
      <use xlink:href="#DejaVuSans-6e" transform="translate(474.951172 0.015625)"/>
      <use xlink:href="#DejaVuSans-6b" transform="translate(538.330078 0.015625)"/>
      <use xlink:href="#DejaVuSans-74" transform="translate(596.240234 0.015625)"/>
      <use xlink:href="#DejaVuSans-69" transform="translate(635.449219 0.015625)"/>
      <use xlink:href="#DejaVuSans-6f" transform="translate(663.232422 0.015625)"/>
      <use xlink:href="#DejaVuSans-6e" transform="translate(724.414062 0.015625)"/>
      <use xlink:href="#DejaVuSans-20" transform="translate(787.792969 0.015625)"/>
      <use xlink:href="#DejaVuSans-Oblique-77" transform="translate(819.580078 0.015625)"/>
     </g>
    </g>
   </g>
   <g id="line2d_25">
    <path d="M 138.436364 246.24 
L 146.141772 245.929267 
L 153.847181 244.998985 
L 161.552589 243.454888 
L 169.257998 241.306497 
L 176.963406 238.567057 
L 184.668815 235.253458 
L 192.374223 231.386129 
L 200.079632 226.988913 
L 207.78504 222.088921 
L 215.490449 216.716364 
L 223.195857 210.904363 
L 230.901266 204.688753 
L 238.606674 198.107855 
L 246.312083 191.202242 
L 254.017491 184.01449 
L 261.7229 176.588913 
L 269.428308 168.971293 
L 277.133717 161.208594 
L 284.839125 153.348677 
L 292.544534 145.44 
L 300.249942 137.531323 
L 307.955351 129.671406 
L 315.660759 121.908707 
L 323.366168 114.291087 
L 331.071577 106.86551 
L 338.776985 99.677758 
L 346.482394 92.772145 
L 354.187802 86.191247 
L 361.893211 79.975637 
L 369.598619 74.163636 
L 377.304028 68.791079 
L 385.009436 63.891087 
L 392.714845 59.493871 
L 400.420253 55.626542 
L 408.125662 52.312943 
L 415.83107 49.573503 
L 423.536479 47.425112 
L 431.241887 45.881015 
L 438.947296 44.950733 
L 446.652704 44.64 
L 454.358113 44.950733 
L 462.063521 45.881015 
L 469.76893 47.425112 
L 477.474338 49.573503 
L 485.179747 52.312943 
L 492.885155 55.626542 
L 500.590564 59.493871 
L 508.295972 63.891087 
L 516.001381 68.791079 
L 523.706789 74.163636 
L 531.412198 79.975637 
L 539.117606 86.191247 
L 546.823015 92.772145 
L 554.528423 99.677758 
L 562.233832 106.86551 
L 569.939241 114.291087 
L 577.644649 121.908707 
L 585.350058 129.671406 
L 593.055466 137.531323 
L 600.760875 145.44 
L 608.466283 153.348677 
L 616.171692 161.208594 
L 623.8771 168.971293 
L 631.582509 176.588913 
L 639.287917 184.01449 
L 646.993326 191.202242 
L 654.698734 198.107855 
L 662.404143 204.688753 
L 670.109551 210.904363 
L 677.81496 216.716364 
L 685.520368 222.088921 
L 693.225777 226.988913 
L 700.931185 231.386129 
L 708.636594 235.253458 
L 716.342002 238.567057 
L 724.047411 241.306497 
L 731.752819 243.454888 
L 739.458228 244.998985 
L 747.163636 245.929267 
" clip-path="url(#p2883a05842)" style="fill: none; stroke: #0000ff; stroke-width: 1.5; stroke-linecap: square"/>
   </g>
   <g id="line2d_26">
    <path d="M 138.436364 230.112 
L 146.141772 229.826126 
L 153.847181 228.970266 
L 161.552589 227.549697 
L 169.257998 225.573177 
L 176.963406 223.052892 
L 184.668815 220.004381 
L 192.374223 216.446438 
L 200.079632 212.401 
L 207.78504 207.893008 
L 215.490449 202.950254 
L 223.195857 197.603214 
L 230.901266 191.884853 
L 238.606674 185.830427 
L 246.312083 179.477263 
L 254.017491 172.864531 
L 261.7229 166.033 
L 269.428308 159.024789 
L 277.133717 151.883107 
L 284.839125 144.651983 
L 292.544534 137.376 
L 300.249942 130.100017 
L 307.955351 122.868893 
L 315.660759 115.727211 
L 323.366168 108.719 
L 331.071577 101.887469 
L 338.776985 95.274737 
L 346.482394 88.921573 
L 354.187802 82.867147 
L 361.893211 77.148786 
L 369.598619 71.801746 
L 377.304028 66.858992 
L 385.009436 62.351 
L 392.714845 58.305562 
L 400.420253 54.747619 
L 408.125662 51.699108 
L 415.83107 49.178823 
L 423.536479 47.202303 
L 431.241887 45.781734 
L 438.947296 44.925874 
L 446.652704 44.64 
L 454.358113 44.925874 
L 462.063521 45.781734 
L 469.76893 47.202303 
L 477.474338 49.178823 
L 485.179747 51.699108 
L 492.885155 54.747619 
L 500.590564 58.305562 
L 508.295972 62.351 
L 516.001381 66.858992 
L 523.706789 71.801746 
L 531.412198 77.148786 
L 539.117606 82.867147 
L 546.823015 88.921573 
L 554.528423 95.274737 
L 562.233832 101.887469 
L 569.939241 108.719 
L 577.644649 115.727211 
L 585.350058 122.868893 
L 593.055466 130.100017 
L 600.760875 137.376 
L 608.466283 144.651983 
L 616.171692 151.883107 
L 623.8771 159.024789 
L 631.582509 166.033 
L 639.287917 172.864531 
L 646.993326 179.477263 
L 654.698734 185.830427 
L 662.404143 191.884853 
L 670.109551 197.603214 
L 677.81496 202.950254 
L 685.520368 207.893008 
L 693.225777 212.401 
L 700.931185 216.446438 
L 708.636594 220.004381 
L 716.342002 223.052892 
L 724.047411 225.573177 
L 731.752819 227.549697 
L 739.458228 228.970266 
L 747.163636 229.826126 
" clip-path="url(#p2883a05842)" style="fill: none; stroke: #00bfbf; stroke-width: 1.5; stroke-linecap: square"/>
   </g>
   <g id="line2d_27">
    <path d="M 138.436364 246.24 
L 146.141772 241.2 
L 153.847181 236.16 
L 161.552589 231.12 
L 169.257998 226.08 
L 176.963406 221.04 
L 184.668815 216 
L 192.374223 210.96 
L 200.079632 205.92 
L 207.78504 200.88 
L 215.490449 195.84 
L 223.195857 190.8 
L 230.901266 185.76 
L 238.606674 180.72 
L 246.312083 175.68 
L 254.017491 170.64 
L 261.7229 165.6 
L 269.428308 160.56 
L 277.133717 155.52 
L 284.839125 150.48 
L 292.544534 145.44 
L 300.249942 140.4 
L 307.955351 135.36 
L 315.660759 130.32 
L 323.366168 125.28 
L 331.071577 120.24 
L 338.776985 115.2 
L 346.482394 110.16 
L 354.187802 105.12 
L 361.893211 100.08 
L 369.598619 95.04 
L 377.304028 90 
L 385.009436 84.96 
L 392.714845 79.92 
L 400.420253 74.88 
L 408.125662 69.84 
L 415.83107 64.8 
L 423.536479 59.76 
L 431.241887 54.72 
L 438.947296 49.68 
L 446.652704 44.64 
L 454.358113 49.68 
L 462.063521 54.72 
L 469.76893 59.76 
L 477.474338 64.8 
L 485.179747 69.84 
L 492.885155 74.88 
L 500.590564 79.92 
L 508.295972 84.96 
L 516.001381 90 
L 523.706789 95.04 
L 531.412198 100.08 
L 539.117606 105.12 
L 546.823015 110.16 
L 554.528423 115.2 
L 562.233832 120.24 
L 569.939241 125.28 
L 577.644649 130.32 
L 585.350058 135.36 
L 593.055466 140.4 
L 600.760875 145.44 
L 608.466283 150.48 
L 616.171692 155.52 
L 623.8771 160.56 
L 631.582509 165.6 
L 639.287917 170.64 
L 646.993326 175.68 
L 654.698734 180.72 
L 662.404143 185.76 
L 670.109551 190.8 
L 677.81496 195.84 
L 685.520368 200.88 
L 693.225777 205.92 
L 700.931185 210.96 
L 708.636594 216 
L 716.342002 221.04 
L 724.047411 226.08 
L 731.752819 231.12 
L 739.458228 236.16 
L 747.163636 241.2 
" clip-path="url(#p2883a05842)" style="fill: none; stroke: #008000; stroke-width: 1.5; stroke-linecap: square"/>
   </g>
   <g id="line2d_28">
    <path d="M 138.436364 246.24 
L 146.141772 246.12783 
L 153.847181 245.788345 
L 161.552589 245.212735 
L 169.257998 244.386671 
L 176.963406 243.290839 
L 184.668815 241.901657 
L 192.374223 240.19217 
L 200.079632 238.133087 
L 207.78504 235.693946 
L 215.490449 232.844364 
L 223.195857 229.555338 
L 230.901266 225.80058 
L 238.606674 221.557814 
L 246.312083 216.810043 
L 254.017491 211.546708 
L 261.7229 205.764739 
L 269.428308 199.469446 
L 277.133717 192.675234 
L 284.839125 185.406114 
L 292.544534 177.696 
L 300.249942 169.588761 
L 307.955351 161.138045 
L 315.660759 152.406861 
L 323.366168 143.466913 
L 331.071577 134.397728 
L 338.776985 125.285558 
L 346.482394 116.222103 
L 354.187802 107.303073 
L 361.893211 98.626612 
L 369.598619 90.291636 
L 377.304028 82.396104 
L 385.009436 75.035261 
L 392.714845 68.299913 
L 400.420253 62.274742 
L 408.125662 57.036725 
L 415.83107 52.653677 
L 423.536479 49.182959 
L 431.241887 46.670376 
L 438.947296 45.149295 
L 446.652704 44.64 
L 454.358113 45.149295 
L 462.063521 46.670376 
L 469.76893 49.182959 
L 477.474338 52.653677 
L 485.179747 57.036725 
L 492.885155 62.274742 
L 500.590564 68.299913 
L 508.295972 75.035261 
L 516.001381 82.396104 
L 523.706789 90.291636 
L 531.412198 98.626612 
L 539.117606 107.303073 
L 546.823015 116.222103 
L 554.528423 125.285558 
L 562.233832 134.397728 
L 569.939241 143.466913 
L 577.644649 152.406861 
L 585.350058 161.138045 
L 593.055466 169.588761 
L 600.760875 177.696 
L 608.466283 185.406114 
L 616.171692 192.675234 
L 623.8771 199.469446 
L 631.582509 205.764739 
L 639.287917 211.546708 
L 646.993326 216.810043 
L 654.698734 221.557814 
L 662.404143 225.80058 
L 670.109551 229.555338 
L 677.81496 232.844364 
L 685.520368 235.693946 
L 693.225777 238.133087 
L 700.931185 240.19217 
L 708.636594 241.901657 
L 716.342002 243.290839 
L 724.047411 244.386671 
L 731.752819 245.212735 
L 739.458228 245.788345 
L 747.163636 246.12783 
" clip-path="url(#p2883a05842)" style="fill: none; stroke: #bf00bf; stroke-width: 1.5; stroke-linecap: square"/>
   </g>
   <g id="line2d_29">
    <path d="M 138.436364 246.24 
L 146.141772 244.998985 
L 153.847181 241.306497 
L 161.552589 235.253458 
L 169.257998 226.988913 
L 176.963406 216.716364 
L 184.668815 204.688753 
L 192.374223 191.202242 
L 200.079632 176.588913 
L 207.78504 161.208594 
L 215.490449 145.44 
L 223.195857 129.671406 
L 230.901266 114.291087 
L 238.606674 99.677758 
L 246.312083 86.191247 
L 254.017491 74.163636 
L 261.7229 63.891087 
L 269.428308 55.626542 
L 277.133717 49.573503 
L 284.839125 45.881015 
L 292.544534 44.64 
L 300.249942 44.64 
L 307.955351 44.64 
L 315.660759 44.64 
L 323.366168 44.64 
L 331.071577 44.64 
L 338.776985 44.64 
L 346.482394 44.64 
L 354.187802 44.64 
L 361.893211 44.64 
L 369.598619 44.64 
L 377.304028 44.64 
L 385.009436 44.64 
L 392.714845 44.64 
L 400.420253 44.64 
L 408.125662 44.64 
L 415.83107 44.64 
L 423.536479 44.64 
L 431.241887 44.64 
L 438.947296 44.64 
L 446.652704 44.64 
L 454.358113 44.64 
L 462.063521 44.64 
L 469.76893 44.64 
L 477.474338 44.64 
L 485.179747 44.64 
L 492.885155 44.64 
L 500.590564 44.64 
L 508.295972 44.64 
L 516.001381 44.64 
L 523.706789 44.64 
L 531.412198 44.64 
L 539.117606 44.64 
L 546.823015 44.64 
L 554.528423 44.64 
L 562.233832 44.64 
L 569.939241 44.64 
L 577.644649 44.64 
L 585.350058 44.64 
L 593.055466 44.64 
L 600.760875 44.64 
L 608.466283 45.881015 
L 616.171692 49.573503 
L 623.8771 55.626542 
L 631.582509 63.891087 
L 639.287917 74.163636 
L 646.993326 86.191247 
L 654.698734 99.677758 
L 662.404143 114.291087 
L 670.109551 129.671406 
L 677.81496 145.44 
L 685.520368 161.208594 
L 693.225777 176.588913 
L 700.931185 191.202242 
L 708.636594 204.688753 
L 716.342002 216.716364 
L 724.047411 226.988913 
L 731.752819 235.253458 
L 739.458228 241.306497 
L 747.163636 244.998985 
" clip-path="url(#p2883a05842)" style="fill: none; stroke: #ff0000; stroke-width: 1.5; stroke-linecap: square"/>
   </g>
   <g id="patch_3">
    <path d="M 108 256.32 
L 108 34.56 
" style="fill: none; stroke: #000000; stroke-width: 0.8; stroke-linejoin: miter; stroke-linecap: square"/>
   </g>
   <g id="patch_4">
    <path d="M 777.6 256.32 
L 777.6 34.56 
" style="fill: none; stroke: #000000; stroke-width: 0.8; stroke-linejoin: miter; stroke-linecap: square"/>
   </g>
   <g id="patch_5">
    <path d="M 108 256.32 
L 777.6 256.32 
" style="fill: none; stroke: #000000; stroke-width: 0.8; stroke-linejoin: miter; stroke-linecap: square"/>
   </g>
   <g id="patch_6">
    <path d="M 108 34.56 
L 777.6 34.56 
" style="fill: none; stroke: #000000; stroke-width: 0.8; stroke-linejoin: miter; stroke-linecap: square"/>
   </g>
   <g id="legend_1">
    <g id="patch_7">
     <path d="M 689.3375 115.950625 
L 770.6 115.950625 
Q 772.6 115.950625 772.6 113.950625 
L 772.6 41.56 
Q 772.6 39.56 770.6 39.56 
L 689.3375 39.56 
Q 687.3375 39.56 687.3375 41.56 
L 687.3375 113.950625 
Q 687.3375 115.950625 689.3375 115.950625 
z
" style="fill: #ffffff; opacity: 0.8; stroke: #cccccc; stroke-linejoin: miter"/>
    </g>
    <g id="line2d_30">
     <path d="M 691.3375 47.658437 
L 701.3375 47.658437 
L 711.3375 47.658437 
" style="fill: none; stroke: #0000ff; stroke-width: 1.5; stroke-linecap: square"/>
    </g>
    <g id="text_15">
     <!-- Hann -->
     <g transform="translate(719.3375 51.158437) scale(0.1 -0.1)">
      <defs>
       <path id="DejaVuSans-48" d="M 628 4666 
L 1259 4666 
L 1259 2753 
L 3553 2753 
L 3553 4666 
L 4184 4666 
L 4184 0 
L 3553 0 
L 3553 2222 
L 1259 2222 
L 1259 0 
L 628 0 
L 628 4666 
z
" transform="scale(0.015625)"/>
       <path id="DejaVuSans-61" d="M 2194 1759 
Q 1497 1759 1228 1600 
Q 959 1441 959 1056 
Q 959 750 1161 570 
Q 1363 391 1709 391 
Q 2188 391 2477 730 
Q 2766 1069 2766 1631 
L 2766 1759 
L 2194 1759 
z
M 3341 1997 
L 3341 0 
L 2766 0 
L 2766 531 
Q 2569 213 2275 61 
Q 1981 -91 1556 -91 
Q 1019 -91 701 211 
Q 384 513 384 1019 
Q 384 1609 779 1909 
Q 1175 2209 1959 2209 
L 2766 2209 
L 2766 2266 
Q 2766 2663 2505 2880 
Q 2244 3097 1772 3097 
Q 1472 3097 1187 3025 
Q 903 2953 641 2809 
L 641 3341 
Q 956 3463 1253 3523 
Q 1550 3584 1831 3584 
Q 2591 3584 2966 3190 
Q 3341 2797 3341 1997 
z
" transform="scale(0.015625)"/>
      </defs>
      <use xlink:href="#DejaVuSans-48"/>
      <use xlink:href="#DejaVuSans-61" x="75.195312"/>
      <use xlink:href="#DejaVuSans-6e" x="136.474609"/>
      <use xlink:href="#DejaVuSans-6e" x="199.853516"/>
     </g>
    </g>
    <g id="line2d_31">
     <path d="M 691.3375 62.336562 
L 701.3375 62.336562 
L 711.3375 62.336562 
" style="fill: none; stroke: #00bfbf; stroke-width: 1.5; stroke-linecap: square"/>
    </g>
    <g id="text_16">
     <!-- Hamming -->
     <g transform="translate(719.3375 65.836562) scale(0.1 -0.1)">
      <defs>
       <path id="DejaVuSans-6d" d="M 3328 2828 
Q 3544 3216 3844 3400 
Q 4144 3584 4550 3584 
Q 5097 3584 5394 3201 
Q 5691 2819 5691 2113 
L 5691 0 
L 5113 0 
L 5113 2094 
Q 5113 2597 4934 2840 
Q 4756 3084 4391 3084 
Q 3944 3084 3684 2787 
Q 3425 2491 3425 1978 
L 3425 0 
L 2847 0 
L 2847 2094 
Q 2847 2600 2669 2842 
Q 2491 3084 2119 3084 
Q 1678 3084 1418 2786 
Q 1159 2488 1159 1978 
L 1159 0 
L 581 0 
L 581 3500 
L 1159 3500 
L 1159 2956 
Q 1356 3278 1631 3431 
Q 1906 3584 2284 3584 
Q 2666 3584 2933 3390 
Q 3200 3197 3328 2828 
z
" transform="scale(0.015625)"/>
       <path id="DejaVuSans-67" d="M 2906 1791 
Q 2906 2416 2648 2759 
Q 2391 3103 1925 3103 
Q 1463 3103 1205 2759 
Q 947 2416 947 1791 
Q 947 1169 1205 825 
Q 1463 481 1925 481 
Q 2391 481 2648 825 
Q 2906 1169 2906 1791 
z
M 3481 434 
Q 3481 -459 3084 -895 
Q 2688 -1331 1869 -1331 
Q 1566 -1331 1297 -1286 
Q 1028 -1241 775 -1147 
L 775 -588 
Q 1028 -725 1275 -790 
Q 1522 -856 1778 -856 
Q 2344 -856 2625 -561 
Q 2906 -266 2906 331 
L 2906 616 
Q 2728 306 2450 153 
Q 2172 0 1784 0 
Q 1141 0 747 490 
Q 353 981 353 1791 
Q 353 2603 747 3093 
Q 1141 3584 1784 3584 
Q 2172 3584 2450 3431 
Q 2728 3278 2906 2969 
L 2906 3500 
L 3481 3500 
L 3481 434 
z
" transform="scale(0.015625)"/>
      </defs>
      <use xlink:href="#DejaVuSans-48"/>
      <use xlink:href="#DejaVuSans-61" x="75.195312"/>
      <use xlink:href="#DejaVuSans-6d" x="136.474609"/>
      <use xlink:href="#DejaVuSans-6d" x="233.886719"/>
      <use xlink:href="#DejaVuSans-69" x="331.298828"/>
      <use xlink:href="#DejaVuSans-6e" x="359.082031"/>
      <use xlink:href="#DejaVuSans-67" x="422.460938"/>
     </g>
    </g>
    <g id="line2d_32">
     <path d="M 691.3375 77.014687 
L 701.3375 77.014687 
L 711.3375 77.014687 
" style="fill: none; stroke: #008000; stroke-width: 1.5; stroke-linecap: square"/>
    </g>
    <g id="text_17">
     <!-- Bartlett -->
     <g transform="translate(719.3375 80.514687) scale(0.1 -0.1)">
      <defs>
       <path id="DejaVuSans-42" d="M 1259 2228 
L 1259 519 
L 2272 519 
Q 2781 519 3026 730 
Q 3272 941 3272 1375 
Q 3272 1813 3026 2020 
Q 2781 2228 2272 2228 
L 1259 2228 
z
M 1259 4147 
L 1259 2741 
L 2194 2741 
Q 2656 2741 2882 2914 
Q 3109 3088 3109 3444 
Q 3109 3797 2882 3972 
Q 2656 4147 2194 4147 
L 1259 4147 
z
M 628 4666 
L 2241 4666 
Q 2963 4666 3353 4366 
Q 3744 4066 3744 3513 
Q 3744 3084 3544 2831 
Q 3344 2578 2956 2516 
Q 3422 2416 3680 2098 
Q 3938 1781 3938 1306 
Q 3938 681 3513 340 
Q 3088 0 2303 0 
L 628 0 
L 628 4666 
z
" transform="scale(0.015625)"/>
      </defs>
      <use xlink:href="#DejaVuSans-42"/>
      <use xlink:href="#DejaVuSans-61" x="68.603516"/>
      <use xlink:href="#DejaVuSans-72" x="129.882812"/>
      <use xlink:href="#DejaVuSans-74" x="170.996094"/>
      <use xlink:href="#DejaVuSans-6c" x="210.205078"/>
      <use xlink:href="#DejaVuSans-65" x="237.988281"/>
      <use xlink:href="#DejaVuSans-74" x="299.511719"/>
      <use xlink:href="#DejaVuSans-74" x="338.720703"/>
     </g>
    </g>
    <g id="line2d_33">
     <path d="M 691.3375 91.692813 
L 701.3375 91.692813 
L 711.3375 91.692813 
" style="fill: none; stroke: #bf00bf; stroke-width: 1.5; stroke-linecap: square"/>
    </g>
    <g id="text_18">
     <!-- Blackman -->
     <g transform="translate(719.3375 95.192813) scale(0.1 -0.1)">
      <defs>
       <path id="DejaVuSans-63" d="M 3122 3366 
L 3122 2828 
Q 2878 2963 2633 3030 
Q 2388 3097 2138 3097 
Q 1578 3097 1268 2742 
Q 959 2388 959 1747 
Q 959 1106 1268 751 
Q 1578 397 2138 397 
Q 2388 397 2633 464 
Q 2878 531 3122 666 
L 3122 134 
Q 2881 22 2623 -34 
Q 2366 -91 2075 -91 
Q 1284 -91 818 406 
Q 353 903 353 1747 
Q 353 2603 823 3093 
Q 1294 3584 2113 3584 
Q 2378 3584 2631 3529 
Q 2884 3475 3122 3366 
z
" transform="scale(0.015625)"/>
      </defs>
      <use xlink:href="#DejaVuSans-42"/>
      <use xlink:href="#DejaVuSans-6c" x="68.603516"/>
      <use xlink:href="#DejaVuSans-61" x="96.386719"/>
      <use xlink:href="#DejaVuSans-63" x="157.666016"/>
      <use xlink:href="#DejaVuSans-6b" x="212.646484"/>
      <use xlink:href="#DejaVuSans-6d" x="270.556641"/>
      <use xlink:href="#DejaVuSans-61" x="367.96875"/>
      <use xlink:href="#DejaVuSans-6e" x="429.248047"/>
     </g>
    </g>
    <g id="line2d_34">
     <path d="M 691.3375 106.370937 
L 701.3375 106.370937 
L 711.3375 106.370937 
" style="fill: none; stroke: #ff0000; stroke-width: 1.5; stroke-linecap: square"/>
    </g>
    <g id="text_19">
     <!-- Tukey -->
     <g transform="translate(719.3375 109.870937) scale(0.1 -0.1)">
      <defs>
       <path id="DejaVuSans-54" d="M -19 4666 
L 3928 4666 
L 3928 4134 
L 2272 4134 
L 2272 0 
L 1638 0 
L 1638 4134 
L -19 4134 
L -19 4666 
z
" transform="scale(0.015625)"/>
       <path id="DejaVuSans-79" d="M 2059 -325 
Q 1816 -950 1584 -1140 
Q 1353 -1331 966 -1331 
L 506 -1331 
L 506 -850 
L 844 -850 
Q 1081 -850 1212 -737 
Q 1344 -625 1503 -206 
L 1606 56 
L 191 3500 
L 800 3500 
L 1894 763 
L 2988 3500 
L 3597 3500 
L 2059 -325 
z
" transform="scale(0.015625)"/>
      </defs>
      <use xlink:href="#DejaVuSans-54"/>
      <use xlink:href="#DejaVuSans-75" x="45.958984"/>
      <use xlink:href="#DejaVuSans-6b" x="109.337891"/>
      <use xlink:href="#DejaVuSans-65" x="163.623047"/>
      <use xlink:href="#DejaVuSans-79" x="225.146484"/>
     </g>
    </g>
   </g>
  </g>
 </g>
 <defs>
  <clipPath id="p2883a05842">
   <rect x="108" y="34.56" width="669.6" height="221.76"/>
  </clipPath>
 </defs>
</svg>
