<?xml version="1.0" encoding="utf-8" standalone="no"?>
<!DOCTYPE svg PUBLIC "-//W3C//DTD SVG 1.1//EN"
  "http://www.w3.org/Graphics/SVG/1.1/DTD/svg11.dtd">
<svg xmlns:xlink="http://www.w3.org/1999/xlink" width="864pt" height="288pt" viewBox="0 0 864 288" xmlns="http://www.w3.org/2000/svg" version="1.1">
 <metadata>
  <rdf:RDF xmlns:dc="http://purl.org/dc/elements/1.1/" xmlns:cc="http://creativecommons.org/ns#" xmlns:rdf="http://www.w3.org/1999/02/22-rdf-syntax-ns#">
   <cc:Work>
    <dc:type rdf:resource="http://purl.org/dc/dcmitype/StillImage"/>
    <dc:date>2023-12-19T17:08:03.990009</dc:date>
    <dc:format>image/svg+xml</dc:format>
    <dc:creator>
     <cc:Agent>
      <dc:title>Matplotlib v3.8.0, https://matplotlib.org/</dc:title>
     </cc:Agent>
    </dc:creator>
   </cc:Work>
  </rdf:RDF>
 </metadata>
 <defs>
  <style type="text/css">*{stroke-linejoin: round; stroke-linecap: butt}</style>
 </defs>
 <g id="figure_1">
  <g id="patch_1">
   <path d="M 0 288 
L 864 288 
L 864 0 
L 0 0 
z
" style="fill: #ffffff"/>
  </g>
  <g id="axes_1">
   <g id="patch_2">
    <path d="M 108 256.32 
L 777.6 256.32 
L 777.6 34.56 
L 108 34.56 
z
" style="fill: #ffffff"/>
   </g>
   <g id="matplotlib.axis_1">
    <g id="xtick_1">
     <g id="line2d_1">
      <path d="M 138.436364 256.32 
L 138.436364 34.56 
" clip-path="url(#p3c74164a43)" style="fill: none; stroke: #b0b0b0; stroke-width: 0.8; stroke-linecap: square"/>
     </g>
     <g id="line2d_2">
      <defs>
       <path id="m08397c7344" d="M 0 0 
L 0 3.5 
" style="stroke: #000000; stroke-width: 0.8"/>
      </defs>
      <g>
       <use xlink:href="#m08397c7344" x="138.436364" y="256.32" style="stroke: #000000; stroke-width: 0.8"/>
      </g>
     </g>
     <g id="text_1">
      <!-- 0.0 -->
      <g transform="translate(130.484801 270.918437) scale(0.1 -0.1)">
       <defs>
        <path id="DejaVuSans-30" d="M 2034 4250 
Q 1547 4250 1301 3770 
Q 1056 3291 1056 2328 
Q 1056 1369 1301 889 
Q 1547 409 2034 409 
Q 2525 409 2770 889 
Q 3016 1369 3016 2328 
Q 3016 3291 2770 3770 
Q 2525 4250 2034 4250 
z
M 2034 4750 
Q 2819 4750 3233 4129 
Q 3647 3509 3647 2328 
Q 3647 1150 3233 529 
Q 2819 -91 2034 -91 
Q 1250 -91 836 529 
Q 422 1150 422 2328 
Q 422 3509 836 4129 
Q 1250 4750 2034 4750 
z
" transform="scale(0.015625)"/>
        <path id="DejaVuSans-2e" d="M 684 794 
L 1344 794 
L 1344 0 
L 684 0 
L 684 794 
z
" transform="scale(0.015625)"/>
       </defs>
       <use xlink:href="#DejaVuSans-30"/>
       <use xlink:href="#DejaVuSans-2e" x="63.623047"/>
       <use xlink:href="#DejaVuSans-30" x="95.410156"/>
      </g>
     </g>
    </g>
    <g id="xtick_2">
     <g id="line2d_3">
      <path d="M 263.303497 256.32 
L 263.303497 34.56 
" clip-path="url(#p3c74164a43)" style="fill: none; stroke: #b0b0b0; stroke-width: 0.8; stroke-linecap: square"/>
     </g>
     <g id="line2d_4">
      <g>
       <use xlink:href="#m08397c7344" x="263.303497" y="256.32" style="stroke: #000000; stroke-width: 0.8"/>
      </g>
     </g>
     <g id="text_2">
      <!-- 0.2 -->
      <g transform="translate(255.351934 270.918437) scale(0.1 -0.1)">
       <defs>
        <path id="DejaVuSans-32" d="M 1228 531 
L 3431 531 
L 3431 0 
L 469 0 
L 469 531 
Q 828 903 1448 1529 
Q 2069 2156 2228 2338 
Q 2531 2678 2651 2914 
Q 2772 3150 2772 3378 
Q 2772 3750 2511 3984 
Q 2250 4219 1831 4219 
Q 1534 4219 1204 4116 
Q 875 4013 500 3803 
L 500 4441 
Q 881 4594 1212 4672 
Q 1544 4750 1819 4750 
Q 2544 4750 2975 4387 
Q 3406 4025 3406 3419 
Q 3406 3131 3298 2873 
Q 3191 2616 2906 2266 
Q 2828 2175 2409 1742 
Q 1991 1309 1228 531 
z
" transform="scale(0.015625)"/>
       </defs>
       <use xlink:href="#DejaVuSans-30"/>
       <use xlink:href="#DejaVuSans-2e" x="63.623047"/>
       <use xlink:href="#DejaVuSans-32" x="95.410156"/>
      </g>
     </g>
    </g>
    <g id="xtick_3">
     <g id="line2d_5">
      <path d="M 388.170629 256.32 
L 388.170629 34.56 
" clip-path="url(#p3c74164a43)" style="fill: none; stroke: #b0b0b0; stroke-width: 0.8; stroke-linecap: square"/>
     </g>
     <g id="line2d_6">
      <g>
       <use xlink:href="#m08397c7344" x="388.170629" y="256.32" style="stroke: #000000; stroke-width: 0.8"/>
      </g>
     </g>
     <g id="text_3">
      <!-- 0.4 -->
      <g transform="translate(380.219067 270.918437) scale(0.1 -0.1)">
       <defs>
        <path id="DejaVuSans-34" d="M 2419 4116 
L 825 1625 
L 2419 1625 
L 2419 4116 
z
M 2253 4666 
L 3047 4666 
L 3047 1625 
L 3713 1625 
L 3713 1100 
L 3047 1100 
L 3047 0 
L 2419 0 
L 2419 1100 
L 313 1100 
L 313 1709 
L 2253 4666 
z
" transform="scale(0.015625)"/>
       </defs>
       <use xlink:href="#DejaVuSans-30"/>
       <use xlink:href="#DejaVuSans-2e" x="63.623047"/>
       <use xlink:href="#DejaVuSans-34" x="95.410156"/>
      </g>
     </g>
    </g>
    <g id="xtick_4">
     <g id="line2d_7">
      <path d="M 513.037762 256.32 
L 513.037762 34.56 
" clip-path="url(#p3c74164a43)" style="fill: none; stroke: #b0b0b0; stroke-width: 0.8; stroke-linecap: square"/>
     </g>
     <g id="line2d_8">
      <g>
       <use xlink:href="#m08397c7344" x="513.037762" y="256.32" style="stroke: #000000; stroke-width: 0.8"/>
      </g>
     </g>
     <g id="text_4">
      <!-- 0.6 -->
      <g transform="translate(505.0862 270.918437) scale(0.1 -0.1)">
       <defs>
        <path id="DejaVuSans-36" d="M 2113 2584 
Q 1688 2584 1439 2293 
Q 1191 2003 1191 1497 
Q 1191 994 1439 701 
Q 1688 409 2113 409 
Q 2538 409 2786 701 
Q 3034 994 3034 1497 
Q 3034 2003 2786 2293 
Q 2538 2584 2113 2584 
z
M 3366 4563 
L 3366 3988 
Q 3128 4100 2886 4159 
Q 2644 4219 2406 4219 
Q 1781 4219 1451 3797 
Q 1122 3375 1075 2522 
Q 1259 2794 1537 2939 
Q 1816 3084 2150 3084 
Q 2853 3084 3261 2657 
Q 3669 2231 3669 1497 
Q 3669 778 3244 343 
Q 2819 -91 2113 -91 
Q 1303 -91 875 529 
Q 447 1150 447 2328 
Q 447 3434 972 4092 
Q 1497 4750 2381 4750 
Q 2619 4750 2861 4703 
Q 3103 4656 3366 4563 
z
" transform="scale(0.015625)"/>
       </defs>
       <use xlink:href="#DejaVuSans-30"/>
       <use xlink:href="#DejaVuSans-2e" x="63.623047"/>
       <use xlink:href="#DejaVuSans-36" x="95.410156"/>
      </g>
     </g>
    </g>
    <g id="xtick_5">
     <g id="line2d_9">
      <path d="M 637.904895 256.32 
L 637.904895 34.56 
" clip-path="url(#p3c74164a43)" style="fill: none; stroke: #b0b0b0; stroke-width: 0.8; stroke-linecap: square"/>
     </g>
     <g id="line2d_10">
      <g>
       <use xlink:href="#m08397c7344" x="637.904895" y="256.32" style="stroke: #000000; stroke-width: 0.8"/>
      </g>
     </g>
     <g id="text_5">
      <!-- 0.8 -->
      <g transform="translate(629.953333 270.918437) scale(0.1 -0.1)">
       <defs>
        <path id="DejaVuSans-38" d="M 2034 2216 
Q 1584 2216 1326 1975 
Q 1069 1734 1069 1313 
Q 1069 891 1326 650 
Q 1584 409 2034 409 
Q 2484 409 2743 651 
Q 3003 894 3003 1313 
Q 3003 1734 2745 1975 
Q 2488 2216 2034 2216 
z
M 1403 2484 
Q 997 2584 770 2862 
Q 544 3141 544 3541 
Q 544 4100 942 4425 
Q 1341 4750 2034 4750 
Q 2731 4750 3128 4425 
Q 3525 4100 3525 3541 
Q 3525 3141 3298 2862 
Q 3072 2584 2669 2484 
Q 3125 2378 3379 2068 
Q 3634 1759 3634 1313 
Q 3634 634 3220 271 
Q 2806 -91 2034 -91 
Q 1263 -91 848 271 
Q 434 634 434 1313 
Q 434 1759 690 2068 
Q 947 2378 1403 2484 
z
M 1172 3481 
Q 1172 3119 1398 2916 
Q 1625 2713 2034 2713 
Q 2441 2713 2670 2916 
Q 2900 3119 2900 3481 
Q 2900 3844 2670 4047 
Q 2441 4250 2034 4250 
Q 1625 4250 1398 4047 
Q 1172 3844 1172 3481 
z
" transform="scale(0.015625)"/>
       </defs>
       <use xlink:href="#DejaVuSans-30"/>
       <use xlink:href="#DejaVuSans-2e" x="63.623047"/>
       <use xlink:href="#DejaVuSans-38" x="95.410156"/>
      </g>
     </g>
    </g>
    <g id="xtick_6">
     <g id="line2d_11">
      <path d="M 762.772028 256.32 
L 762.772028 34.56 
" clip-path="url(#p3c74164a43)" style="fill: none; stroke: #b0b0b0; stroke-width: 0.8; stroke-linecap: square"/>
     </g>
     <g id="line2d_12">
      <g>
       <use xlink:href="#m08397c7344" x="762.772028" y="256.32" style="stroke: #000000; stroke-width: 0.8"/>
      </g>
     </g>
     <g id="text_6">
      <!-- 1.0 -->
      <g transform="translate(754.820465 270.918437) scale(0.1 -0.1)">
       <defs>
        <path id="DejaVuSans-31" d="M 794 531 
L 1825 531 
L 1825 4091 
L 703 3866 
L 703 4441 
L 1819 4666 
L 2450 4666 
L 2450 531 
L 3481 531 
L 3481 0 
L 794 0 
L 794 531 
z
" transform="scale(0.015625)"/>
       </defs>
       <use xlink:href="#DejaVuSans-31"/>
       <use xlink:href="#DejaVuSans-2e" x="63.623047"/>
       <use xlink:href="#DejaVuSans-30" x="95.410156"/>
      </g>
     </g>
    </g>
    <g id="text_7">
     <!-- Zeit $t$ [s] -->
     <g transform="translate(421.3 284.596563) scale(0.1 -0.1)">
      <defs>
       <path id="DejaVuSans-5a" d="M 359 4666 
L 4025 4666 
L 4025 4184 
L 1075 531 
L 4097 531 
L 4097 0 
L 288 0 
L 288 481 
L 3238 4134 
L 359 4134 
L 359 4666 
z
" transform="scale(0.015625)"/>
       <path id="DejaVuSans-65" d="M 3597 1894 
L 3597 1613 
L 953 1613 
Q 991 1019 1311 708 
Q 1631 397 2203 397 
Q 2534 397 2845 478 
Q 3156 559 3463 722 
L 3463 178 
Q 3153 47 2828 -22 
Q 2503 -91 2169 -91 
Q 1331 -91 842 396 
Q 353 884 353 1716 
Q 353 2575 817 3079 
Q 1281 3584 2069 3584 
Q 2775 3584 3186 3129 
Q 3597 2675 3597 1894 
z
M 3022 2063 
Q 3016 2534 2758 2815 
Q 2500 3097 2075 3097 
Q 1594 3097 1305 2825 
Q 1016 2553 972 2059 
L 3022 2063 
z
" transform="scale(0.015625)"/>
       <path id="DejaVuSans-69" d="M 603 3500 
L 1178 3500 
L 1178 0 
L 603 0 
L 603 3500 
z
M 603 4863 
L 1178 4863 
L 1178 4134 
L 603 4134 
L 603 4863 
z
" transform="scale(0.015625)"/>
       <path id="DejaVuSans-74" d="M 1172 4494 
L 1172 3500 
L 2356 3500 
L 2356 3053 
L 1172 3053 
L 1172 1153 
Q 1172 725 1289 603 
Q 1406 481 1766 481 
L 2356 481 
L 2356 0 
L 1766 0 
Q 1100 0 847 248 
Q 594 497 594 1153 
L 594 3053 
L 172 3053 
L 172 3500 
L 594 3500 
L 594 4494 
L 1172 4494 
z
" transform="scale(0.015625)"/>
       <path id="DejaVuSans-20" transform="scale(0.015625)"/>
       <path id="DejaVuSans-Oblique-74" d="M 2706 3500 
L 2619 3053 
L 1472 3053 
L 1100 1153 
Q 1081 1047 1072 975 
Q 1063 903 1063 863 
Q 1063 663 1183 572 
Q 1303 481 1569 481 
L 2150 481 
L 2053 0 
L 1503 0 
Q 991 0 739 200 
Q 488 400 488 806 
Q 488 878 497 964 
Q 506 1050 525 1153 
L 897 3053 
L 409 3053 
L 500 3500 
L 978 3500 
L 1172 4494 
L 1747 4494 
L 1556 3500 
L 2706 3500 
z
" transform="scale(0.015625)"/>
       <path id="DejaVuSans-5b" d="M 550 4863 
L 1875 4863 
L 1875 4416 
L 1125 4416 
L 1125 -397 
L 1875 -397 
L 1875 -844 
L 550 -844 
L 550 4863 
z
" transform="scale(0.015625)"/>
       <path id="DejaVuSans-73" d="M 2834 3397 
L 2834 2853 
Q 2591 2978 2328 3040 
Q 2066 3103 1784 3103 
Q 1356 3103 1142 2972 
Q 928 2841 928 2578 
Q 928 2378 1081 2264 
Q 1234 2150 1697 2047 
L 1894 2003 
Q 2506 1872 2764 1633 
Q 3022 1394 3022 966 
Q 3022 478 2636 193 
Q 2250 -91 1575 -91 
Q 1294 -91 989 -36 
Q 684 19 347 128 
L 347 722 
Q 666 556 975 473 
Q 1284 391 1588 391 
Q 1994 391 2212 530 
Q 2431 669 2431 922 
Q 2431 1156 2273 1281 
Q 2116 1406 1581 1522 
L 1381 1569 
Q 847 1681 609 1914 
Q 372 2147 372 2553 
Q 372 3047 722 3315 
Q 1072 3584 1716 3584 
Q 2034 3584 2315 3537 
Q 2597 3491 2834 3397 
z
" transform="scale(0.015625)"/>
       <path id="DejaVuSans-5d" d="M 1947 4863 
L 1947 -844 
L 622 -844 
L 622 -397 
L 1369 -397 
L 1369 4416 
L 622 4416 
L 622 4863 
L 1947 4863 
z
" transform="scale(0.015625)"/>
      </defs>
      <use xlink:href="#DejaVuSans-5a" transform="translate(0 0.015625)"/>
      <use xlink:href="#DejaVuSans-65" transform="translate(68.505859 0.015625)"/>
      <use xlink:href="#DejaVuSans-69" transform="translate(130.029297 0.015625)"/>
      <use xlink:href="#DejaVuSans-74" transform="translate(157.8125 0.015625)"/>
      <use xlink:href="#DejaVuSans-20" transform="translate(197.021484 0.015625)"/>
      <use xlink:href="#DejaVuSans-Oblique-74" transform="translate(228.808594 0.015625)"/>
      <use xlink:href="#DejaVuSans-20" transform="translate(268.017578 0.015625)"/>
      <use xlink:href="#DejaVuSans-5b" transform="translate(299.804688 0.015625)"/>
      <use xlink:href="#DejaVuSans-73" transform="translate(338.818359 0.015625)"/>
      <use xlink:href="#DejaVuSans-5d" transform="translate(390.917969 0.015625)"/>
     </g>
    </g>
   </g>
   <g id="matplotlib.axis_2">
    <g id="ytick_1">
     <g id="line2d_13">
      <path d="M 108 236.832463 
L 777.6 236.832463 
" clip-path="url(#p3c74164a43)" style="fill: none; stroke: #b0b0b0; stroke-width: 0.8; stroke-linecap: square"/>
     </g>
     <g id="line2d_14">
      <defs>
       <path id="m9fb7050a05" d="M 0 0 
L -3.5 0 
" style="stroke: #000000; stroke-width: 0.8"/>
      </defs>
      <g>
       <use xlink:href="#m9fb7050a05" x="108" y="236.832463" style="stroke: #000000; stroke-width: 0.8"/>
      </g>
     </g>
     <g id="text_8">
      <!-- −1.0 -->
      <g transform="translate(76.717187 240.631681) scale(0.1 -0.1)">
       <defs>
        <path id="DejaVuSans-2212" d="M 678 2272 
L 4684 2272 
L 4684 1741 
L 678 1741 
L 678 2272 
z
" transform="scale(0.015625)"/>
       </defs>
       <use xlink:href="#DejaVuSans-2212"/>
       <use xlink:href="#DejaVuSans-31" x="83.789062"/>
       <use xlink:href="#DejaVuSans-2e" x="147.412109"/>
       <use xlink:href="#DejaVuSans-30" x="179.199219"/>
      </g>
     </g>
    </g>
    <g id="ytick_2">
     <g id="line2d_15">
      <path d="M 108 190.859782 
L 777.6 190.859782 
" clip-path="url(#p3c74164a43)" style="fill: none; stroke: #b0b0b0; stroke-width: 0.8; stroke-linecap: square"/>
     </g>
     <g id="line2d_16">
      <g>
       <use xlink:href="#m9fb7050a05" x="108" y="190.859782" style="stroke: #000000; stroke-width: 0.8"/>
      </g>
     </g>
     <g id="text_9">
      <!-- −0.5 -->
      <g transform="translate(76.717187 194.659001) scale(0.1 -0.1)">
       <defs>
        <path id="DejaVuSans-35" d="M 691 4666 
L 3169 4666 
L 3169 4134 
L 1269 4134 
L 1269 2991 
Q 1406 3038 1543 3061 
Q 1681 3084 1819 3084 
Q 2600 3084 3056 2656 
Q 3513 2228 3513 1497 
Q 3513 744 3044 326 
Q 2575 -91 1722 -91 
Q 1428 -91 1123 -41 
Q 819 9 494 109 
L 494 744 
Q 775 591 1075 516 
Q 1375 441 1709 441 
Q 2250 441 2565 725 
Q 2881 1009 2881 1497 
Q 2881 1984 2565 2268 
Q 2250 2553 1709 2553 
Q 1456 2553 1204 2497 
Q 953 2441 691 2322 
L 691 4666 
z
" transform="scale(0.015625)"/>
       </defs>
       <use xlink:href="#DejaVuSans-2212"/>
       <use xlink:href="#DejaVuSans-30" x="83.789062"/>
       <use xlink:href="#DejaVuSans-2e" x="147.412109"/>
       <use xlink:href="#DejaVuSans-35" x="179.199219"/>
      </g>
     </g>
    </g>
    <g id="ytick_3">
     <g id="line2d_17">
      <path d="M 108 144.887101 
L 777.6 144.887101 
" clip-path="url(#p3c74164a43)" style="fill: none; stroke: #b0b0b0; stroke-width: 0.8; stroke-linecap: square"/>
     </g>
     <g id="line2d_18">
      <g>
       <use xlink:href="#m9fb7050a05" x="108" y="144.887101" style="stroke: #000000; stroke-width: 0.8"/>
      </g>
     </g>
     <g id="text_10">
      <!-- 0.0 -->
      <g transform="translate(85.096875 148.68632) scale(0.1 -0.1)">
       <use xlink:href="#DejaVuSans-30"/>
       <use xlink:href="#DejaVuSans-2e" x="63.623047"/>
       <use xlink:href="#DejaVuSans-30" x="95.410156"/>
      </g>
     </g>
    </g>
    <g id="ytick_4">
     <g id="line2d_19">
      <path d="M 108 98.914421 
L 777.6 98.914421 
" clip-path="url(#p3c74164a43)" style="fill: none; stroke: #b0b0b0; stroke-width: 0.8; stroke-linecap: square"/>
     </g>
     <g id="line2d_20">
      <g>
       <use xlink:href="#m9fb7050a05" x="108" y="98.914421" style="stroke: #000000; stroke-width: 0.8"/>
      </g>
     </g>
     <g id="text_11">
      <!-- 0.5 -->
      <g transform="translate(85.096875 102.713639) scale(0.1 -0.1)">
       <use xlink:href="#DejaVuSans-30"/>
       <use xlink:href="#DejaVuSans-2e" x="63.623047"/>
       <use xlink:href="#DejaVuSans-35" x="95.410156"/>
      </g>
     </g>
    </g>
    <g id="ytick_5">
     <g id="line2d_21">
      <path d="M 108 52.94174 
L 777.6 52.94174 
" clip-path="url(#p3c74164a43)" style="fill: none; stroke: #b0b0b0; stroke-width: 0.8; stroke-linecap: square"/>
     </g>
     <g id="line2d_22">
      <g>
       <use xlink:href="#m9fb7050a05" x="108" y="52.94174" style="stroke: #000000; stroke-width: 0.8"/>
      </g>
     </g>
     <g id="text_12">
      <!-- 1.0 -->
      <g transform="translate(85.096875 56.740959) scale(0.1 -0.1)">
       <use xlink:href="#DejaVuSans-31"/>
       <use xlink:href="#DejaVuSans-2e" x="63.623047"/>
       <use xlink:href="#DejaVuSans-30" x="95.410156"/>
      </g>
     </g>
    </g>
    <g id="text_13">
     <!-- Funktionswert $y$ -->
     <g transform="translate(70.617188 185.49) rotate(-90) scale(0.1 -0.1)">
      <defs>
       <path id="DejaVuSans-46" d="M 628 4666 
L 3309 4666 
L 3309 4134 
L 1259 4134 
L 1259 2759 
L 3109 2759 
L 3109 2228 
L 1259 2228 
L 1259 0 
L 628 0 
L 628 4666 
z
" transform="scale(0.015625)"/>
       <path id="DejaVuSans-75" d="M 544 1381 
L 544 3500 
L 1119 3500 
L 1119 1403 
Q 1119 906 1312 657 
Q 1506 409 1894 409 
Q 2359 409 2629 706 
Q 2900 1003 2900 1516 
L 2900 3500 
L 3475 3500 
L 3475 0 
L 2900 0 
L 2900 538 
Q 2691 219 2414 64 
Q 2138 -91 1772 -91 
Q 1169 -91 856 284 
Q 544 659 544 1381 
z
M 1991 3584 
L 1991 3584 
z
" transform="scale(0.015625)"/>
       <path id="DejaVuSans-6e" d="M 3513 2113 
L 3513 0 
L 2938 0 
L 2938 2094 
Q 2938 2591 2744 2837 
Q 2550 3084 2163 3084 
Q 1697 3084 1428 2787 
Q 1159 2491 1159 1978 
L 1159 0 
L 581 0 
L 581 3500 
L 1159 3500 
L 1159 2956 
Q 1366 3272 1645 3428 
Q 1925 3584 2291 3584 
Q 2894 3584 3203 3211 
Q 3513 2838 3513 2113 
z
" transform="scale(0.015625)"/>
       <path id="DejaVuSans-6b" d="M 581 4863 
L 1159 4863 
L 1159 1991 
L 2875 3500 
L 3609 3500 
L 1753 1863 
L 3688 0 
L 2938 0 
L 1159 1709 
L 1159 0 
L 581 0 
L 581 4863 
z
" transform="scale(0.015625)"/>
       <path id="DejaVuSans-6f" d="M 1959 3097 
Q 1497 3097 1228 2736 
Q 959 2375 959 1747 
Q 959 1119 1226 758 
Q 1494 397 1959 397 
Q 2419 397 2687 759 
Q 2956 1122 2956 1747 
Q 2956 2369 2687 2733 
Q 2419 3097 1959 3097 
z
M 1959 3584 
Q 2709 3584 3137 3096 
Q 3566 2609 3566 1747 
Q 3566 888 3137 398 
Q 2709 -91 1959 -91 
Q 1206 -91 779 398 
Q 353 888 353 1747 
Q 353 2609 779 3096 
Q 1206 3584 1959 3584 
z
" transform="scale(0.015625)"/>
       <path id="DejaVuSans-77" d="M 269 3500 
L 844 3500 
L 1563 769 
L 2278 3500 
L 2956 3500 
L 3675 769 
L 4391 3500 
L 4966 3500 
L 4050 0 
L 3372 0 
L 2619 2869 
L 1863 0 
L 1184 0 
L 269 3500 
z
" transform="scale(0.015625)"/>
       <path id="DejaVuSans-72" d="M 2631 2963 
Q 2534 3019 2420 3045 
Q 2306 3072 2169 3072 
Q 1681 3072 1420 2755 
Q 1159 2438 1159 1844 
L 1159 0 
L 581 0 
L 581 3500 
L 1159 3500 
L 1159 2956 
Q 1341 3275 1631 3429 
Q 1922 3584 2338 3584 
Q 2397 3584 2469 3576 
Q 2541 3569 2628 3553 
L 2631 2963 
z
" transform="scale(0.015625)"/>
       <path id="DejaVuSans-Oblique-79" d="M 1588 -325 
Q 1188 -997 936 -1164 
Q 684 -1331 294 -1331 
L -159 -1331 
L -63 -850 
L 269 -850 
Q 509 -850 678 -719 
Q 847 -588 1056 -206 
L 1234 128 
L 459 3500 
L 1069 3500 
L 1650 819 
L 3256 3500 
L 3859 3500 
L 1588 -325 
z
" transform="scale(0.015625)"/>
      </defs>
      <use xlink:href="#DejaVuSans-46" transform="translate(0 0.015625)"/>
      <use xlink:href="#DejaVuSans-75" transform="translate(57.519531 0.015625)"/>
      <use xlink:href="#DejaVuSans-6e" transform="translate(120.898438 0.015625)"/>
      <use xlink:href="#DejaVuSans-6b" transform="translate(184.277344 0.015625)"/>
      <use xlink:href="#DejaVuSans-74" transform="translate(242.1875 0.015625)"/>
      <use xlink:href="#DejaVuSans-69" transform="translate(281.396484 0.015625)"/>
      <use xlink:href="#DejaVuSans-6f" transform="translate(309.179688 0.015625)"/>
      <use xlink:href="#DejaVuSans-6e" transform="translate(370.361328 0.015625)"/>
      <use xlink:href="#DejaVuSans-73" transform="translate(433.740234 0.015625)"/>
      <use xlink:href="#DejaVuSans-77" transform="translate(485.839844 0.015625)"/>
      <use xlink:href="#DejaVuSans-65" transform="translate(567.626953 0.015625)"/>
      <use xlink:href="#DejaVuSans-72" transform="translate(629.150391 0.015625)"/>
      <use xlink:href="#DejaVuSans-74" transform="translate(670.263672 0.015625)"/>
      <use xlink:href="#DejaVuSans-20" transform="translate(709.472656 0.015625)"/>
      <use xlink:href="#DejaVuSans-Oblique-79" transform="translate(741.259766 0.015625)"/>
     </g>
    </g>
   </g>
   <g id="line2d_23">
    <path d="M 138.436364 137.870693 
L 154.044755 103.909722 
L 169.653147 72.525129 
L 185.261538 55.711572 
L 200.86993 44.64 
L 216.478322 62.893645 
L 232.086713 54.569947 
L 247.695105 77.909187 
L 263.303497 104.277496 
L 278.911888 129.451014 
L 294.52028 130.031466 
L 310.128671 150.353415 
L 325.737063 214.250932 
L 341.345455 221.242369 
L 356.953846 223.212704 
L 372.562238 242.781691 
L 388.170629 231.442199 
L 403.779021 222.858329 
L 419.387413 193.489541 
L 434.995804 163.233834 
L 450.604196 131.219801 
L 466.212587 108.966914 
L 481.820979 95.623264 
L 497.429371 71.991156 
L 513.037762 49.639071 
L 528.646154 50.395179 
L 544.254545 52.064868 
L 559.862937 71.541591 
L 575.471329 88.45035 
L 591.07972 120.995333 
L 606.688112 138.302073 
L 622.296503 158.338246 
L 637.904895 195.282926 
L 653.513287 219.501633 
L 669.121678 246.24 
L 684.73007 230.878555 
L 700.338462 229.188154 
L 715.946853 213.040199 
L 731.555245 193.934634 
L 747.163636 176.005877 
" clip-path="url(#p3c74164a43)" style="fill: none; stroke: #0000ff; stroke-width: 1.5; stroke-linecap: square"/>
    <defs>
     <path id="m4137cee0ce" d="M 0 3 
C 0.795609 3 1.55874 2.683901 2.12132 2.12132 
C 2.683901 1.55874 3 0.795609 3 0 
C 3 -0.795609 2.683901 -1.55874 2.12132 -2.12132 
C 1.55874 -2.683901 0.795609 -3 0 -3 
C -0.795609 -3 -1.55874 -2.683901 -2.12132 -2.12132 
C -2.683901 -1.55874 -3 -0.795609 -3 0 
C -3 0.795609 -2.683901 1.55874 -2.12132 2.12132 
C -1.55874 2.683901 -0.795609 3 0 3 
z
" style="stroke: #0000ff"/>
    </defs>
    <g clip-path="url(#p3c74164a43)">
     <use xlink:href="#m4137cee0ce" x="138.436364" y="137.870693" style="fill: #0000ff; stroke: #0000ff"/>
     <use xlink:href="#m4137cee0ce" x="154.044755" y="103.909722" style="fill: #0000ff; stroke: #0000ff"/>
     <use xlink:href="#m4137cee0ce" x="169.653147" y="72.525129" style="fill: #0000ff; stroke: #0000ff"/>
     <use xlink:href="#m4137cee0ce" x="185.261538" y="55.711572" style="fill: #0000ff; stroke: #0000ff"/>
     <use xlink:href="#m4137cee0ce" x="200.86993" y="44.64" style="fill: #0000ff; stroke: #0000ff"/>
     <use xlink:href="#m4137cee0ce" x="216.478322" y="62.893645" style="fill: #0000ff; stroke: #0000ff"/>
     <use xlink:href="#m4137cee0ce" x="232.086713" y="54.569947" style="fill: #0000ff; stroke: #0000ff"/>
     <use xlink:href="#m4137cee0ce" x="247.695105" y="77.909187" style="fill: #0000ff; stroke: #0000ff"/>
     <use xlink:href="#m4137cee0ce" x="263.303497" y="104.277496" style="fill: #0000ff; stroke: #0000ff"/>
     <use xlink:href="#m4137cee0ce" x="278.911888" y="129.451014" style="fill: #0000ff; stroke: #0000ff"/>
     <use xlink:href="#m4137cee0ce" x="294.52028" y="130.031466" style="fill: #0000ff; stroke: #0000ff"/>
     <use xlink:href="#m4137cee0ce" x="310.128671" y="150.353415" style="fill: #0000ff; stroke: #0000ff"/>
     <use xlink:href="#m4137cee0ce" x="325.737063" y="214.250932" style="fill: #0000ff; stroke: #0000ff"/>
     <use xlink:href="#m4137cee0ce" x="341.345455" y="221.242369" style="fill: #0000ff; stroke: #0000ff"/>
     <use xlink:href="#m4137cee0ce" x="356.953846" y="223.212704" style="fill: #0000ff; stroke: #0000ff"/>
     <use xlink:href="#m4137cee0ce" x="372.562238" y="242.781691" style="fill: #0000ff; stroke: #0000ff"/>
     <use xlink:href="#m4137cee0ce" x="388.170629" y="231.442199" style="fill: #0000ff; stroke: #0000ff"/>
     <use xlink:href="#m4137cee0ce" x="403.779021" y="222.858329" style="fill: #0000ff; stroke: #0000ff"/>
     <use xlink:href="#m4137cee0ce" x="419.387413" y="193.489541" style="fill: #0000ff; stroke: #0000ff"/>
     <use xlink:href="#m4137cee0ce" x="434.995804" y="163.233834" style="fill: #0000ff; stroke: #0000ff"/>
     <use xlink:href="#m4137cee0ce" x="450.604196" y="131.219801" style="fill: #0000ff; stroke: #0000ff"/>
     <use xlink:href="#m4137cee0ce" x="466.212587" y="108.966914" style="fill: #0000ff; stroke: #0000ff"/>
     <use xlink:href="#m4137cee0ce" x="481.820979" y="95.623264" style="fill: #0000ff; stroke: #0000ff"/>
     <use xlink:href="#m4137cee0ce" x="497.429371" y="71.991156" style="fill: #0000ff; stroke: #0000ff"/>
     <use xlink:href="#m4137cee0ce" x="513.037762" y="49.639071" style="fill: #0000ff; stroke: #0000ff"/>
     <use xlink:href="#m4137cee0ce" x="528.646154" y="50.395179" style="fill: #0000ff; stroke: #0000ff"/>
     <use xlink:href="#m4137cee0ce" x="544.254545" y="52.064868" style="fill: #0000ff; stroke: #0000ff"/>
     <use xlink:href="#m4137cee0ce" x="559.862937" y="71.541591" style="fill: #0000ff; stroke: #0000ff"/>
     <use xlink:href="#m4137cee0ce" x="575.471329" y="88.45035" style="fill: #0000ff; stroke: #0000ff"/>
     <use xlink:href="#m4137cee0ce" x="591.07972" y="120.995333" style="fill: #0000ff; stroke: #0000ff"/>
     <use xlink:href="#m4137cee0ce" x="606.688112" y="138.302073" style="fill: #0000ff; stroke: #0000ff"/>
     <use xlink:href="#m4137cee0ce" x="622.296503" y="158.338246" style="fill: #0000ff; stroke: #0000ff"/>
     <use xlink:href="#m4137cee0ce" x="637.904895" y="195.282926" style="fill: #0000ff; stroke: #0000ff"/>
     <use xlink:href="#m4137cee0ce" x="653.513287" y="219.501633" style="fill: #0000ff; stroke: #0000ff"/>
     <use xlink:href="#m4137cee0ce" x="669.121678" y="246.24" style="fill: #0000ff; stroke: #0000ff"/>
     <use xlink:href="#m4137cee0ce" x="684.73007" y="230.878555" style="fill: #0000ff; stroke: #0000ff"/>
     <use xlink:href="#m4137cee0ce" x="700.338462" y="229.188154" style="fill: #0000ff; stroke: #0000ff"/>
     <use xlink:href="#m4137cee0ce" x="715.946853" y="213.040199" style="fill: #0000ff; stroke: #0000ff"/>
     <use xlink:href="#m4137cee0ce" x="731.555245" y="193.934634" style="fill: #0000ff; stroke: #0000ff"/>
     <use xlink:href="#m4137cee0ce" x="747.163636" y="176.005877" style="fill: #0000ff; stroke: #0000ff"/>
    </g>
   </g>
   <g id="line2d_24">
    <defs>
     <path id="mb7ef9af6f7" d="M -3 3 
L 3 -3 
M -3 -3 
L 3 3 
" style="stroke: #ff0000"/>
    </defs>
    <g clip-path="url(#p3c74164a43)">
     <use xlink:href="#mb7ef9af6f7" x="138.436364" y="137.870693" style="fill: #ff0000; stroke: #ff0000"/>
     <use xlink:href="#mb7ef9af6f7" x="148.098701" y="116.847235" style="fill: #ff0000; stroke: #ff0000"/>
     <use xlink:href="#mb7ef9af6f7" x="157.761039" y="96.4372" style="fill: #ff0000; stroke: #ff0000"/>
     <use xlink:href="#mb7ef9af6f7" x="167.423377" y="77.008643" style="fill: #ff0000; stroke: #ff0000"/>
     <use xlink:href="#mb7ef9af6f7" x="177.085714" y="64.518673" style="fill: #ff0000; stroke: #ff0000"/>
     <use xlink:href="#mb7ef9af6f7" x="186.748052" y="54.657137" style="fill: #ff0000; stroke: #ff0000"/>
     <use xlink:href="#mb7ef9af6f7" x="196.41039" y="47.803306" style="fill: #ff0000; stroke: #ff0000"/>
     <use xlink:href="#mb7ef9af6f7" x="206.072727" y="50.724548" style="fill: #ff0000; stroke: #ff0000"/>
     <use xlink:href="#mb7ef9af6f7" x="215.735065" y="62.024424" style="fill: #ff0000; stroke: #ff0000"/>
     <use xlink:href="#mb7ef9af6f7" x="225.397403" y="58.137247" style="fill: #ff0000; stroke: #ff0000"/>
     <use xlink:href="#mb7ef9af6f7" x="235.05974" y="59.015517" style="fill: #ff0000; stroke: #ff0000"/>
     <use xlink:href="#mb7ef9af6f7" x="244.722078" y="73.463618" style="fill: #ff0000; stroke: #ff0000"/>
     <use xlink:href="#mb7ef9af6f7" x="254.384416" y="89.209891" style="fill: #ff0000; stroke: #ff0000"/>
     <use xlink:href="#mb7ef9af6f7" x="264.046753" y="105.476235" style="fill: #ff0000; stroke: #ff0000"/>
     <use xlink:href="#mb7ef9af6f7" x="273.709091" y="121.059841" style="fill: #ff0000; stroke: #ff0000"/>
     <use xlink:href="#mb7ef9af6f7" x="283.371429" y="129.616857" style="fill: #ff0000; stroke: #ff0000"/>
     <use xlink:href="#mb7ef9af6f7" x="293.033766" y="129.976185" style="fill: #ff0000; stroke: #ff0000"/>
     <use xlink:href="#mb7ef9af6f7" x="302.696104" y="140.676296" style="fill: #ff0000; stroke: #ff0000"/>
     <use xlink:href="#mb7ef9af6f7" x="312.358442" y="159.481632" style="fill: #ff0000; stroke: #ff0000"/>
     <use xlink:href="#mb7ef9af6f7" x="322.020779" y="199.037237" style="fill: #ff0000; stroke: #ff0000"/>
     <use xlink:href="#mb7ef9af6f7" x="331.683117" y="216.914336" style="fill: #ff0000; stroke: #ff0000"/>
     <use xlink:href="#mb7ef9af6f7" x="341.345455" y="221.242369" style="fill: #ff0000; stroke: #ff0000"/>
     <use xlink:href="#mb7ef9af6f7" x="351.007792" y="222.4621" style="fill: #ff0000; stroke: #ff0000"/>
     <use xlink:href="#mb7ef9af6f7" x="360.67013" y="227.871987" style="fill: #ff0000; stroke: #ff0000"/>
     <use xlink:href="#mb7ef9af6f7" x="370.332468" y="239.986122" style="fill: #ff0000; stroke: #ff0000"/>
     <use xlink:href="#mb7ef9af6f7" x="379.994805" y="237.381933" style="fill: #ff0000; stroke: #ff0000"/>
     <use xlink:href="#mb7ef9af6f7" x="389.657143" y="230.624688" style="fill: #ff0000; stroke: #ff0000"/>
     <use xlink:href="#mb7ef9af6f7" x="399.319481" y="225.310864" style="fill: #ff0000; stroke: #ff0000"/>
     <use xlink:href="#mb7ef9af6f7" x="408.981818" y="213.068733" style="fill: #ff0000; stroke: #ff0000"/>
     <use xlink:href="#mb7ef9af6f7" x="418.644156" y="194.888054" style="fill: #ff0000; stroke: #ff0000"/>
     <use xlink:href="#mb7ef9af6f7" x="428.306494" y="176.200565" style="fill: #ff0000; stroke: #ff0000"/>
     <use xlink:href="#mb7ef9af6f7" x="437.968831" y="157.135923" style="fill: #ff0000; stroke: #ff0000"/>
     <use xlink:href="#mb7ef9af6f7" x="447.631169" y="137.317712" style="fill: #ff0000; stroke: #ff0000"/>
     <use xlink:href="#mb7ef9af6f7" x="457.293506" y="121.68285" style="fill: #ff0000; stroke: #ff0000"/>
     <use xlink:href="#mb7ef9af6f7" x="466.955844" y="108.331502" style="fill: #ff0000; stroke: #ff0000"/>
     <use xlink:href="#mb7ef9af6f7" x="476.618182" y="100.071147" style="fill: #ff0000; stroke: #ff0000"/>
     <use xlink:href="#mb7ef9af6f7" x="486.280519" y="88.871233" style="fill: #ff0000; stroke: #ff0000"/>
     <use xlink:href="#mb7ef9af6f7" x="495.942857" y="74.241833" style="fill: #ff0000; stroke: #ff0000"/>
     <use xlink:href="#mb7ef9af6f7" x="505.605195" y="60.282921" style="fill: #ff0000; stroke: #ff0000"/>
     <use xlink:href="#mb7ef9af6f7" x="515.267532" y="49.747086" style="fill: #ff0000; stroke: #ff0000"/>
     <use xlink:href="#mb7ef9af6f7" x="524.92987" y="50.215153" style="fill: #ff0000; stroke: #ff0000"/>
     <use xlink:href="#mb7ef9af6f7" x="534.592208" y="51.031251" style="fill: #ff0000; stroke: #ff0000"/>
     <use xlink:href="#mb7ef9af6f7" x="544.254545" y="52.064868" style="fill: #ff0000; stroke: #ff0000"/>
     <use xlink:href="#mb7ef9af6f7" x="553.916883" y="64.121887" style="fill: #ff0000; stroke: #ff0000"/>
     <use xlink:href="#mb7ef9af6f7" x="563.579221" y="75.567486" style="fill: #ff0000; stroke: #ff0000"/>
     <use xlink:href="#mb7ef9af6f7" x="573.241558" y="86.034813" style="fill: #ff0000; stroke: #ff0000"/>
     <use xlink:href="#mb7ef9af6f7" x="582.903896" y="103.947961" style="fill: #ff0000; stroke: #ff0000"/>
     <use xlink:href="#mb7ef9af6f7" x="592.566234" y="122.643594" style="fill: #ff0000; stroke: #ff0000"/>
     <use xlink:href="#mb7ef9af6f7" x="602.228571" y="133.35729" style="fill: #ff0000; stroke: #ff0000"/>
     <use xlink:href="#mb7ef9af6f7" x="611.890909" y="144.980797" style="fill: #ff0000; stroke: #ff0000"/>
     <use xlink:href="#mb7ef9af6f7" x="621.553247" y="157.384142" style="fill: #ff0000; stroke: #ff0000"/>
     <use xlink:href="#mb7ef9af6f7" x="631.215584" y="179.449492" style="fill: #ff0000; stroke: #ff0000"/>
     <use xlink:href="#mb7ef9af6f7" x="640.877922" y="199.896013" style="fill: #ff0000; stroke: #ff0000"/>
     <use xlink:href="#mb7ef9af6f7" x="650.54026" y="214.888546" style="fill: #ff0000; stroke: #ff0000"/>
     <use xlink:href="#mb7ef9af6f7" x="660.202597" y="230.960933" style="fill: #ff0000; stroke: #ff0000"/>
     <use xlink:href="#mb7ef9af6f7" x="669.864935" y="245.508503" style="fill: #ff0000; stroke: #ff0000"/>
     <use xlink:href="#mb7ef9af6f7" x="679.527273" y="235.999037" style="fill: #ff0000; stroke: #ff0000"/>
     <use xlink:href="#mb7ef9af6f7" x="689.18961" y="230.395583" style="fill: #ff0000; stroke: #ff0000"/>
     <use xlink:href="#mb7ef9af6f7" x="698.851948" y="229.349144" style="fill: #ff0000; stroke: #ff0000"/>
     <use xlink:href="#mb7ef9af6f7" x="708.514286" y="220.729701" style="fill: #ff0000; stroke: #ff0000"/>
     <use xlink:href="#mb7ef9af6f7" x="718.176623" y="210.310833" style="fill: #ff0000; stroke: #ff0000"/>
     <use xlink:href="#mb7ef9af6f7" x="727.838961" y="198.483578" style="fill: #ff0000; stroke: #ff0000"/>
     <use xlink:href="#mb7ef9af6f7" x="737.501299" y="187.104631" style="fill: #ff0000; stroke: #ff0000"/>
     <use xlink:href="#mb7ef9af6f7" x="747.163636" y="176.005877" style="fill: #ff0000; stroke: #ff0000"/>
    </g>
   </g>
   <g id="patch_3">
    <path d="M 108 256.32 
L 108 34.56 
" style="fill: none; stroke: #000000; stroke-width: 0.8; stroke-linejoin: miter; stroke-linecap: square"/>
   </g>
   <g id="patch_4">
    <path d="M 777.6 256.32 
L 777.6 34.56 
" style="fill: none; stroke: #000000; stroke-width: 0.8; stroke-linejoin: miter; stroke-linecap: square"/>
   </g>
   <g id="patch_5">
    <path d="M 108 256.32 
L 777.6 256.32 
" style="fill: none; stroke: #000000; stroke-width: 0.8; stroke-linejoin: miter; stroke-linecap: square"/>
   </g>
   <g id="patch_6">
    <path d="M 108 34.56 
L 777.6 34.56 
" style="fill: none; stroke: #000000; stroke-width: 0.8; stroke-linejoin: miter; stroke-linecap: square"/>
   </g>
   <g id="legend_1">
    <g id="patch_7">
     <path d="M 619.3 73.438125 
L 770.6 73.438125 
Q 772.6 73.438125 772.6 71.438125 
L 772.6 41.56 
Q 772.6 39.56 770.6 39.56 
L 619.3 39.56 
Q 617.3 39.56 617.3 41.56 
L 617.3 71.438125 
Q 617.3 73.438125 619.3 73.438125 
z
" style="fill: #ffffff; opacity: 0.8; stroke: #cccccc; stroke-linejoin: miter"/>
    </g>
    <g id="line2d_25">
     <path d="M 621.3 47.658438 
L 631.3 47.658438 
L 641.3 47.658438 
" style="fill: none; stroke: #0000ff; stroke-width: 1.5; stroke-linecap: square"/>
     <g>
      <use xlink:href="#m4137cee0ce" x="631.3" y="47.658438" style="fill: #0000ff; stroke: #0000ff"/>
     </g>
    </g>
    <g id="text_14">
     <!-- Original N=40 -->
     <g transform="translate(649.3 51.158438) scale(0.1 -0.1)">
      <defs>
       <path id="DejaVuSans-4f" d="M 2522 4238 
Q 1834 4238 1429 3725 
Q 1025 3213 1025 2328 
Q 1025 1447 1429 934 
Q 1834 422 2522 422 
Q 3209 422 3611 934 
Q 4013 1447 4013 2328 
Q 4013 3213 3611 3725 
Q 3209 4238 2522 4238 
z
M 2522 4750 
Q 3503 4750 4090 4092 
Q 4678 3434 4678 2328 
Q 4678 1225 4090 567 
Q 3503 -91 2522 -91 
Q 1538 -91 948 565 
Q 359 1222 359 2328 
Q 359 3434 948 4092 
Q 1538 4750 2522 4750 
z
" transform="scale(0.015625)"/>
       <path id="DejaVuSans-67" d="M 2906 1791 
Q 2906 2416 2648 2759 
Q 2391 3103 1925 3103 
Q 1463 3103 1205 2759 
Q 947 2416 947 1791 
Q 947 1169 1205 825 
Q 1463 481 1925 481 
Q 2391 481 2648 825 
Q 2906 1169 2906 1791 
z
M 3481 434 
Q 3481 -459 3084 -895 
Q 2688 -1331 1869 -1331 
Q 1566 -1331 1297 -1286 
Q 1028 -1241 775 -1147 
L 775 -588 
Q 1028 -725 1275 -790 
Q 1522 -856 1778 -856 
Q 2344 -856 2625 -561 
Q 2906 -266 2906 331 
L 2906 616 
Q 2728 306 2450 153 
Q 2172 0 1784 0 
Q 1141 0 747 490 
Q 353 981 353 1791 
Q 353 2603 747 3093 
Q 1141 3584 1784 3584 
Q 2172 3584 2450 3431 
Q 2728 3278 2906 2969 
L 2906 3500 
L 3481 3500 
L 3481 434 
z
" transform="scale(0.015625)"/>
       <path id="DejaVuSans-61" d="M 2194 1759 
Q 1497 1759 1228 1600 
Q 959 1441 959 1056 
Q 959 750 1161 570 
Q 1363 391 1709 391 
Q 2188 391 2477 730 
Q 2766 1069 2766 1631 
L 2766 1759 
L 2194 1759 
z
M 3341 1997 
L 3341 0 
L 2766 0 
L 2766 531 
Q 2569 213 2275 61 
Q 1981 -91 1556 -91 
Q 1019 -91 701 211 
Q 384 513 384 1019 
Q 384 1609 779 1909 
Q 1175 2209 1959 2209 
L 2766 2209 
L 2766 2266 
Q 2766 2663 2505 2880 
Q 2244 3097 1772 3097 
Q 1472 3097 1187 3025 
Q 903 2953 641 2809 
L 641 3341 
Q 956 3463 1253 3523 
Q 1550 3584 1831 3584 
Q 2591 3584 2966 3190 
Q 3341 2797 3341 1997 
z
" transform="scale(0.015625)"/>
       <path id="DejaVuSans-6c" d="M 603 4863 
L 1178 4863 
L 1178 0 
L 603 0 
L 603 4863 
z
" transform="scale(0.015625)"/>
       <path id="DejaVuSans-4e" d="M 628 4666 
L 1478 4666 
L 3547 763 
L 3547 4666 
L 4159 4666 
L 4159 0 
L 3309 0 
L 1241 3903 
L 1241 0 
L 628 0 
L 628 4666 
z
" transform="scale(0.015625)"/>
       <path id="DejaVuSans-3d" d="M 678 2906 
L 4684 2906 
L 4684 2381 
L 678 2381 
L 678 2906 
z
M 678 1631 
L 4684 1631 
L 4684 1100 
L 678 1100 
L 678 1631 
z
" transform="scale(0.015625)"/>
      </defs>
      <use xlink:href="#DejaVuSans-4f"/>
      <use xlink:href="#DejaVuSans-72" x="78.710938"/>
      <use xlink:href="#DejaVuSans-69" x="119.824219"/>
      <use xlink:href="#DejaVuSans-67" x="147.607422"/>
      <use xlink:href="#DejaVuSans-69" x="211.083984"/>
      <use xlink:href="#DejaVuSans-6e" x="238.867188"/>
      <use xlink:href="#DejaVuSans-61" x="302.246094"/>
      <use xlink:href="#DejaVuSans-6c" x="363.525391"/>
      <use xlink:href="#DejaVuSans-20" x="391.308594"/>
      <use xlink:href="#DejaVuSans-4e" x="423.095703"/>
      <use xlink:href="#DejaVuSans-3d" x="497.900391"/>
      <use xlink:href="#DejaVuSans-34" x="581.689453"/>
      <use xlink:href="#DejaVuSans-30" x="645.3125"/>
     </g>
    </g>
    <g id="line2d_26">
     <g>
      <use xlink:href="#mb7ef9af6f7" x="631.3" y="63.838125" style="fill: #ff0000; stroke: #ff0000"/>
     </g>
    </g>
    <g id="text_15">
     <!-- Interpolation N=64$= 2^6$ -->
     <g transform="translate(649.3 67.338125) scale(0.1 -0.1)">
      <defs>
       <path id="DejaVuSans-49" d="M 628 4666 
L 1259 4666 
L 1259 0 
L 628 0 
L 628 4666 
z
" transform="scale(0.015625)"/>
       <path id="DejaVuSans-70" d="M 1159 525 
L 1159 -1331 
L 581 -1331 
L 581 3500 
L 1159 3500 
L 1159 2969 
Q 1341 3281 1617 3432 
Q 1894 3584 2278 3584 
Q 2916 3584 3314 3078 
Q 3713 2572 3713 1747 
Q 3713 922 3314 415 
Q 2916 -91 2278 -91 
Q 1894 -91 1617 61 
Q 1341 213 1159 525 
z
M 3116 1747 
Q 3116 2381 2855 2742 
Q 2594 3103 2138 3103 
Q 1681 3103 1420 2742 
Q 1159 2381 1159 1747 
Q 1159 1113 1420 752 
Q 1681 391 2138 391 
Q 2594 391 2855 752 
Q 3116 1113 3116 1747 
z
" transform="scale(0.015625)"/>
      </defs>
      <use xlink:href="#DejaVuSans-49" transform="translate(0 0.765625)"/>
      <use xlink:href="#DejaVuSans-6e" transform="translate(29.492188 0.765625)"/>
      <use xlink:href="#DejaVuSans-74" transform="translate(92.871094 0.765625)"/>
      <use xlink:href="#DejaVuSans-65" transform="translate(132.080078 0.765625)"/>
      <use xlink:href="#DejaVuSans-72" transform="translate(193.603516 0.765625)"/>
      <use xlink:href="#DejaVuSans-70" transform="translate(234.716797 0.765625)"/>
      <use xlink:href="#DejaVuSans-6f" transform="translate(298.193359 0.765625)"/>
      <use xlink:href="#DejaVuSans-6c" transform="translate(359.375 0.765625)"/>
      <use xlink:href="#DejaVuSans-61" transform="translate(387.158203 0.765625)"/>
      <use xlink:href="#DejaVuSans-74" transform="translate(448.4375 0.765625)"/>
      <use xlink:href="#DejaVuSans-69" transform="translate(487.646484 0.765625)"/>
      <use xlink:href="#DejaVuSans-6f" transform="translate(515.429688 0.765625)"/>
      <use xlink:href="#DejaVuSans-6e" transform="translate(576.611328 0.765625)"/>
      <use xlink:href="#DejaVuSans-20" transform="translate(639.990234 0.765625)"/>
      <use xlink:href="#DejaVuSans-4e" transform="translate(671.777344 0.765625)"/>
      <use xlink:href="#DejaVuSans-3d" transform="translate(746.582031 0.765625)"/>
      <use xlink:href="#DejaVuSans-36" transform="translate(830.371094 0.765625)"/>
      <use xlink:href="#DejaVuSans-34" transform="translate(893.994141 0.765625)"/>
      <use xlink:href="#DejaVuSans-3d" transform="translate(977.099609 0.765625)"/>
      <use xlink:href="#DejaVuSans-32" transform="translate(1080.371094 0.765625)"/>
      <use xlink:href="#DejaVuSans-36" transform="translate(1144.951172 39.046875) scale(0.7)"/>
     </g>
    </g>
   </g>
  </g>
 </g>
 <defs>
  <clipPath id="p3c74164a43">
   <rect x="108" y="34.56" width="669.6" height="221.76"/>
  </clipPath>
 </defs>
</svg>
