<?xml version="1.0" encoding="utf-8" standalone="no"?>
<!DOCTYPE svg PUBLIC "-//W3C//DTD SVG 1.1//EN"
  "http://www.w3.org/Graphics/SVG/1.1/DTD/svg11.dtd">
<svg xmlns:xlink="http://www.w3.org/1999/xlink" width="720pt" height="288pt" viewBox="0 0 720 288" xmlns="http://www.w3.org/2000/svg" version="1.1">
 <metadata>
  <rdf:RDF xmlns:dc="http://purl.org/dc/elements/1.1/" xmlns:cc="http://creativecommons.org/ns#" xmlns:rdf="http://www.w3.org/1999/02/22-rdf-syntax-ns#">
   <cc:Work>
    <dc:type rdf:resource="http://purl.org/dc/dcmitype/StillImage"/>
    <dc:date>2024-08-15T13:22:00.941981</dc:date>
    <dc:format>image/svg+xml</dc:format>
    <dc:creator>
     <cc:Agent>
      <dc:title>Matplotlib v3.8.0, https://matplotlib.org/</dc:title>
     </cc:Agent>
    </dc:creator>
   </cc:Work>
  </rdf:RDF>
 </metadata>
 <defs>
  <style type="text/css">*{stroke-linejoin: round; stroke-linecap: butt}</style>
 </defs>
 <g id="figure_1">
  <g id="patch_1">
   <path d="M 0 288 
L 720 288 
L 720 0 
L 0 0 
z
" style="fill: #ffffff"/>
  </g>
  <g id="axes_1">
   <g id="patch_2">
    <path d="M 90 256.32 
L 648 256.32 
L 648 34.56 
L 90 34.56 
z
" style="fill: #ffffff"/>
   </g>
   <g id="matplotlib.axis_1">
    <g id="xtick_1">
     <g id="line2d_1">
      <path d="M 115.363636 256.32 
L 115.363636 34.56 
" clip-path="url(#p9c58fcaa1b)" style="fill: none; stroke: #b0b0b0; stroke-width: 0.8; stroke-linecap: square"/>
     </g>
     <g id="line2d_2">
      <defs>
       <path id="mca7b1a11c3" d="M 0 0 
L 0 3.5 
" style="stroke: #000000; stroke-width: 0.8"/>
      </defs>
      <g>
       <use xlink:href="#mca7b1a11c3" x="115.363636" y="256.32" style="stroke: #000000; stroke-width: 0.8"/>
      </g>
     </g>
     <g id="text_1">
      <!-- 0.0 -->
      <g transform="translate(107.412074 270.918437) scale(0.1 -0.1)">
       <defs>
        <path id="DejaVuSans-30" d="M 2034 4250 
Q 1547 4250 1301 3770 
Q 1056 3291 1056 2328 
Q 1056 1369 1301 889 
Q 1547 409 2034 409 
Q 2525 409 2770 889 
Q 3016 1369 3016 2328 
Q 3016 3291 2770 3770 
Q 2525 4250 2034 4250 
z
M 2034 4750 
Q 2819 4750 3233 4129 
Q 3647 3509 3647 2328 
Q 3647 1150 3233 529 
Q 2819 -91 2034 -91 
Q 1250 -91 836 529 
Q 422 1150 422 2328 
Q 422 3509 836 4129 
Q 1250 4750 2034 4750 
z
" transform="scale(0.015625)"/>
        <path id="DejaVuSans-2e" d="M 684 794 
L 1344 794 
L 1344 0 
L 684 0 
L 684 794 
z
" transform="scale(0.015625)"/>
       </defs>
       <use xlink:href="#DejaVuSans-30"/>
       <use xlink:href="#DejaVuSans-2e" x="63.623047"/>
       <use xlink:href="#DejaVuSans-30" x="95.410156"/>
      </g>
     </g>
    </g>
    <g id="xtick_2">
     <g id="line2d_3">
      <path d="M 216.818279 256.32 
L 216.818279 34.56 
" clip-path="url(#p9c58fcaa1b)" style="fill: none; stroke: #b0b0b0; stroke-width: 0.8; stroke-linecap: square"/>
     </g>
     <g id="line2d_4">
      <g>
       <use xlink:href="#mca7b1a11c3" x="216.818279" y="256.32" style="stroke: #000000; stroke-width: 0.8"/>
      </g>
     </g>
     <g id="text_2">
      <!-- 0.2 -->
      <g transform="translate(208.866716 270.918437) scale(0.1 -0.1)">
       <defs>
        <path id="DejaVuSans-32" d="M 1228 531 
L 3431 531 
L 3431 0 
L 469 0 
L 469 531 
Q 828 903 1448 1529 
Q 2069 2156 2228 2338 
Q 2531 2678 2651 2914 
Q 2772 3150 2772 3378 
Q 2772 3750 2511 3984 
Q 2250 4219 1831 4219 
Q 1534 4219 1204 4116 
Q 875 4013 500 3803 
L 500 4441 
Q 881 4594 1212 4672 
Q 1544 4750 1819 4750 
Q 2544 4750 2975 4387 
Q 3406 4025 3406 3419 
Q 3406 3131 3298 2873 
Q 3191 2616 2906 2266 
Q 2828 2175 2409 1742 
Q 1991 1309 1228 531 
z
" transform="scale(0.015625)"/>
       </defs>
       <use xlink:href="#DejaVuSans-30"/>
       <use xlink:href="#DejaVuSans-2e" x="63.623047"/>
       <use xlink:href="#DejaVuSans-32" x="95.410156"/>
      </g>
     </g>
    </g>
    <g id="xtick_3">
     <g id="line2d_5">
      <path d="M 318.272921 256.32 
L 318.272921 34.56 
" clip-path="url(#p9c58fcaa1b)" style="fill: none; stroke: #b0b0b0; stroke-width: 0.8; stroke-linecap: square"/>
     </g>
     <g id="line2d_6">
      <g>
       <use xlink:href="#mca7b1a11c3" x="318.272921" y="256.32" style="stroke: #000000; stroke-width: 0.8"/>
      </g>
     </g>
     <g id="text_3">
      <!-- 0.4 -->
      <g transform="translate(310.321358 270.918437) scale(0.1 -0.1)">
       <defs>
        <path id="DejaVuSans-34" d="M 2419 4116 
L 825 1625 
L 2419 1625 
L 2419 4116 
z
M 2253 4666 
L 3047 4666 
L 3047 1625 
L 3713 1625 
L 3713 1100 
L 3047 1100 
L 3047 0 
L 2419 0 
L 2419 1100 
L 313 1100 
L 313 1709 
L 2253 4666 
z
" transform="scale(0.015625)"/>
       </defs>
       <use xlink:href="#DejaVuSans-30"/>
       <use xlink:href="#DejaVuSans-2e" x="63.623047"/>
       <use xlink:href="#DejaVuSans-34" x="95.410156"/>
      </g>
     </g>
    </g>
    <g id="xtick_4">
     <g id="line2d_7">
      <path d="M 419.727563 256.32 
L 419.727563 34.56 
" clip-path="url(#p9c58fcaa1b)" style="fill: none; stroke: #b0b0b0; stroke-width: 0.8; stroke-linecap: square"/>
     </g>
     <g id="line2d_8">
      <g>
       <use xlink:href="#mca7b1a11c3" x="419.727563" y="256.32" style="stroke: #000000; stroke-width: 0.8"/>
      </g>
     </g>
     <g id="text_4">
      <!-- 0.6 -->
      <g transform="translate(411.776 270.918437) scale(0.1 -0.1)">
       <defs>
        <path id="DejaVuSans-36" d="M 2113 2584 
Q 1688 2584 1439 2293 
Q 1191 2003 1191 1497 
Q 1191 994 1439 701 
Q 1688 409 2113 409 
Q 2538 409 2786 701 
Q 3034 994 3034 1497 
Q 3034 2003 2786 2293 
Q 2538 2584 2113 2584 
z
M 3366 4563 
L 3366 3988 
Q 3128 4100 2886 4159 
Q 2644 4219 2406 4219 
Q 1781 4219 1451 3797 
Q 1122 3375 1075 2522 
Q 1259 2794 1537 2939 
Q 1816 3084 2150 3084 
Q 2853 3084 3261 2657 
Q 3669 2231 3669 1497 
Q 3669 778 3244 343 
Q 2819 -91 2113 -91 
Q 1303 -91 875 529 
Q 447 1150 447 2328 
Q 447 3434 972 4092 
Q 1497 4750 2381 4750 
Q 2619 4750 2861 4703 
Q 3103 4656 3366 4563 
z
" transform="scale(0.015625)"/>
       </defs>
       <use xlink:href="#DejaVuSans-30"/>
       <use xlink:href="#DejaVuSans-2e" x="63.623047"/>
       <use xlink:href="#DejaVuSans-36" x="95.410156"/>
      </g>
     </g>
    </g>
    <g id="xtick_5">
     <g id="line2d_9">
      <path d="M 521.182205 256.32 
L 521.182205 34.56 
" clip-path="url(#p9c58fcaa1b)" style="fill: none; stroke: #b0b0b0; stroke-width: 0.8; stroke-linecap: square"/>
     </g>
     <g id="line2d_10">
      <g>
       <use xlink:href="#mca7b1a11c3" x="521.182205" y="256.32" style="stroke: #000000; stroke-width: 0.8"/>
      </g>
     </g>
     <g id="text_5">
      <!-- 0.8 -->
      <g transform="translate(513.230643 270.918437) scale(0.1 -0.1)">
       <defs>
        <path id="DejaVuSans-38" d="M 2034 2216 
Q 1584 2216 1326 1975 
Q 1069 1734 1069 1313 
Q 1069 891 1326 650 
Q 1584 409 2034 409 
Q 2484 409 2743 651 
Q 3003 894 3003 1313 
Q 3003 1734 2745 1975 
Q 2488 2216 2034 2216 
z
M 1403 2484 
Q 997 2584 770 2862 
Q 544 3141 544 3541 
Q 544 4100 942 4425 
Q 1341 4750 2034 4750 
Q 2731 4750 3128 4425 
Q 3525 4100 3525 3541 
Q 3525 3141 3298 2862 
Q 3072 2584 2669 2484 
Q 3125 2378 3379 2068 
Q 3634 1759 3634 1313 
Q 3634 634 3220 271 
Q 2806 -91 2034 -91 
Q 1263 -91 848 271 
Q 434 634 434 1313 
Q 434 1759 690 2068 
Q 947 2378 1403 2484 
z
M 1172 3481 
Q 1172 3119 1398 2916 
Q 1625 2713 2034 2713 
Q 2441 2713 2670 2916 
Q 2900 3119 2900 3481 
Q 2900 3844 2670 4047 
Q 2441 4250 2034 4250 
Q 1625 4250 1398 4047 
Q 1172 3844 1172 3481 
z
" transform="scale(0.015625)"/>
       </defs>
       <use xlink:href="#DejaVuSans-30"/>
       <use xlink:href="#DejaVuSans-2e" x="63.623047"/>
       <use xlink:href="#DejaVuSans-38" x="95.410156"/>
      </g>
     </g>
    </g>
    <g id="xtick_6">
     <g id="line2d_11">
      <path d="M 622.636847 256.32 
L 622.636847 34.56 
" clip-path="url(#p9c58fcaa1b)" style="fill: none; stroke: #b0b0b0; stroke-width: 0.8; stroke-linecap: square"/>
     </g>
     <g id="line2d_12">
      <g>
       <use xlink:href="#mca7b1a11c3" x="622.636847" y="256.32" style="stroke: #000000; stroke-width: 0.8"/>
      </g>
     </g>
     <g id="text_6">
      <!-- 1.0 -->
      <g transform="translate(614.685285 270.918437) scale(0.1 -0.1)">
       <defs>
        <path id="DejaVuSans-31" d="M 794 531 
L 1825 531 
L 1825 4091 
L 703 3866 
L 703 4441 
L 1819 4666 
L 2450 4666 
L 2450 531 
L 3481 531 
L 3481 0 
L 794 0 
L 794 531 
z
" transform="scale(0.015625)"/>
       </defs>
       <use xlink:href="#DejaVuSans-31"/>
       <use xlink:href="#DejaVuSans-2e" x="63.623047"/>
       <use xlink:href="#DejaVuSans-30" x="95.410156"/>
      </g>
     </g>
    </g>
    <g id="text_7">
     <!-- Zeit t [s] -->
     <g transform="translate(347.504687 284.596563) scale(0.1 -0.1)">
      <defs>
       <path id="DejaVuSans-5a" d="M 359 4666 
L 4025 4666 
L 4025 4184 
L 1075 531 
L 4097 531 
L 4097 0 
L 288 0 
L 288 481 
L 3238 4134 
L 359 4134 
L 359 4666 
z
" transform="scale(0.015625)"/>
       <path id="DejaVuSans-65" d="M 3597 1894 
L 3597 1613 
L 953 1613 
Q 991 1019 1311 708 
Q 1631 397 2203 397 
Q 2534 397 2845 478 
Q 3156 559 3463 722 
L 3463 178 
Q 3153 47 2828 -22 
Q 2503 -91 2169 -91 
Q 1331 -91 842 396 
Q 353 884 353 1716 
Q 353 2575 817 3079 
Q 1281 3584 2069 3584 
Q 2775 3584 3186 3129 
Q 3597 2675 3597 1894 
z
M 3022 2063 
Q 3016 2534 2758 2815 
Q 2500 3097 2075 3097 
Q 1594 3097 1305 2825 
Q 1016 2553 972 2059 
L 3022 2063 
z
" transform="scale(0.015625)"/>
       <path id="DejaVuSans-69" d="M 603 3500 
L 1178 3500 
L 1178 0 
L 603 0 
L 603 3500 
z
M 603 4863 
L 1178 4863 
L 1178 4134 
L 603 4134 
L 603 4863 
z
" transform="scale(0.015625)"/>
       <path id="DejaVuSans-74" d="M 1172 4494 
L 1172 3500 
L 2356 3500 
L 2356 3053 
L 1172 3053 
L 1172 1153 
Q 1172 725 1289 603 
Q 1406 481 1766 481 
L 2356 481 
L 2356 0 
L 1766 0 
Q 1100 0 847 248 
Q 594 497 594 1153 
L 594 3053 
L 172 3053 
L 172 3500 
L 594 3500 
L 594 4494 
L 1172 4494 
z
" transform="scale(0.015625)"/>
       <path id="DejaVuSans-20" transform="scale(0.015625)"/>
       <path id="DejaVuSans-5b" d="M 550 4863 
L 1875 4863 
L 1875 4416 
L 1125 4416 
L 1125 -397 
L 1875 -397 
L 1875 -844 
L 550 -844 
L 550 4863 
z
" transform="scale(0.015625)"/>
       <path id="DejaVuSans-73" d="M 2834 3397 
L 2834 2853 
Q 2591 2978 2328 3040 
Q 2066 3103 1784 3103 
Q 1356 3103 1142 2972 
Q 928 2841 928 2578 
Q 928 2378 1081 2264 
Q 1234 2150 1697 2047 
L 1894 2003 
Q 2506 1872 2764 1633 
Q 3022 1394 3022 966 
Q 3022 478 2636 193 
Q 2250 -91 1575 -91 
Q 1294 -91 989 -36 
Q 684 19 347 128 
L 347 722 
Q 666 556 975 473 
Q 1284 391 1588 391 
Q 1994 391 2212 530 
Q 2431 669 2431 922 
Q 2431 1156 2273 1281 
Q 2116 1406 1581 1522 
L 1381 1569 
Q 847 1681 609 1914 
Q 372 2147 372 2553 
Q 372 3047 722 3315 
Q 1072 3584 1716 3584 
Q 2034 3584 2315 3537 
Q 2597 3491 2834 3397 
z
" transform="scale(0.015625)"/>
       <path id="DejaVuSans-5d" d="M 1947 4863 
L 1947 -844 
L 622 -844 
L 622 -397 
L 1369 -397 
L 1369 4416 
L 622 4416 
L 622 4863 
L 1947 4863 
z
" transform="scale(0.015625)"/>
      </defs>
      <use xlink:href="#DejaVuSans-5a"/>
      <use xlink:href="#DejaVuSans-65" x="68.505859"/>
      <use xlink:href="#DejaVuSans-69" x="130.029297"/>
      <use xlink:href="#DejaVuSans-74" x="157.8125"/>
      <use xlink:href="#DejaVuSans-20" x="197.021484"/>
      <use xlink:href="#DejaVuSans-74" x="228.808594"/>
      <use xlink:href="#DejaVuSans-20" x="268.017578"/>
      <use xlink:href="#DejaVuSans-5b" x="299.804688"/>
      <use xlink:href="#DejaVuSans-73" x="338.818359"/>
      <use xlink:href="#DejaVuSans-5d" x="390.917969"/>
     </g>
    </g>
   </g>
   <g id="matplotlib.axis_2">
    <g id="ytick_1">
     <g id="line2d_13">
      <path d="M 90 247.057797 
L 648 247.057797 
" clip-path="url(#p9c58fcaa1b)" style="fill: none; stroke: #b0b0b0; stroke-width: 0.8; stroke-linecap: square"/>
     </g>
     <g id="line2d_14">
      <defs>
       <path id="m37e8932547" d="M 0 0 
L -3.5 0 
" style="stroke: #000000; stroke-width: 0.8"/>
      </defs>
      <g>
       <use xlink:href="#m37e8932547" x="90" y="247.057797" style="stroke: #000000; stroke-width: 0.8"/>
      </g>
     </g>
     <g id="text_8">
      <!-- 0.5 -->
      <g transform="translate(67.096875 250.857016) scale(0.1 -0.1)">
       <defs>
        <path id="DejaVuSans-35" d="M 691 4666 
L 3169 4666 
L 3169 4134 
L 1269 4134 
L 1269 2991 
Q 1406 3038 1543 3061 
Q 1681 3084 1819 3084 
Q 2600 3084 3056 2656 
Q 3513 2228 3513 1497 
Q 3513 744 3044 326 
Q 2575 -91 1722 -91 
Q 1428 -91 1123 -41 
Q 819 9 494 109 
L 494 744 
Q 775 591 1075 516 
Q 1375 441 1709 441 
Q 2250 441 2565 725 
Q 2881 1009 2881 1497 
Q 2881 1984 2565 2268 
Q 2250 2553 1709 2553 
Q 1456 2553 1204 2497 
Q 953 2441 691 2322 
L 691 4666 
z
" transform="scale(0.015625)"/>
       </defs>
       <use xlink:href="#DejaVuSans-30"/>
       <use xlink:href="#DejaVuSans-2e" x="63.623047"/>
       <use xlink:href="#DejaVuSans-35" x="95.410156"/>
      </g>
     </g>
    </g>
    <g id="ytick_2">
     <g id="line2d_15">
      <path d="M 90 213.185198 
L 648 213.185198 
" clip-path="url(#p9c58fcaa1b)" style="fill: none; stroke: #b0b0b0; stroke-width: 0.8; stroke-linecap: square"/>
     </g>
     <g id="line2d_16">
      <g>
       <use xlink:href="#m37e8932547" x="90" y="213.185198" style="stroke: #000000; stroke-width: 0.8"/>
      </g>
     </g>
     <g id="text_9">
      <!-- 1.0 -->
      <g transform="translate(67.096875 216.984417) scale(0.1 -0.1)">
       <use xlink:href="#DejaVuSans-31"/>
       <use xlink:href="#DejaVuSans-2e" x="63.623047"/>
       <use xlink:href="#DejaVuSans-30" x="95.410156"/>
      </g>
     </g>
    </g>
    <g id="ytick_3">
     <g id="line2d_17">
      <path d="M 90 179.312599 
L 648 179.312599 
" clip-path="url(#p9c58fcaa1b)" style="fill: none; stroke: #b0b0b0; stroke-width: 0.8; stroke-linecap: square"/>
     </g>
     <g id="line2d_18">
      <g>
       <use xlink:href="#m37e8932547" x="90" y="179.312599" style="stroke: #000000; stroke-width: 0.8"/>
      </g>
     </g>
     <g id="text_10">
      <!-- 1.5 -->
      <g transform="translate(67.096875 183.111818) scale(0.1 -0.1)">
       <use xlink:href="#DejaVuSans-31"/>
       <use xlink:href="#DejaVuSans-2e" x="63.623047"/>
       <use xlink:href="#DejaVuSans-35" x="95.410156"/>
      </g>
     </g>
    </g>
    <g id="ytick_4">
     <g id="line2d_19">
      <path d="M 90 145.44 
L 648 145.44 
" clip-path="url(#p9c58fcaa1b)" style="fill: none; stroke: #b0b0b0; stroke-width: 0.8; stroke-linecap: square"/>
     </g>
     <g id="line2d_20">
      <g>
       <use xlink:href="#m37e8932547" x="90" y="145.44" style="stroke: #000000; stroke-width: 0.8"/>
      </g>
     </g>
     <g id="text_11">
      <!-- 2.0 -->
      <g transform="translate(67.096875 149.239219) scale(0.1 -0.1)">
       <use xlink:href="#DejaVuSans-32"/>
       <use xlink:href="#DejaVuSans-2e" x="63.623047"/>
       <use xlink:href="#DejaVuSans-30" x="95.410156"/>
      </g>
     </g>
    </g>
    <g id="ytick_5">
     <g id="line2d_21">
      <path d="M 90 111.567401 
L 648 111.567401 
" clip-path="url(#p9c58fcaa1b)" style="fill: none; stroke: #b0b0b0; stroke-width: 0.8; stroke-linecap: square"/>
     </g>
     <g id="line2d_22">
      <g>
       <use xlink:href="#m37e8932547" x="90" y="111.567401" style="stroke: #000000; stroke-width: 0.8"/>
      </g>
     </g>
     <g id="text_12">
      <!-- 2.5 -->
      <g transform="translate(67.096875 115.36662) scale(0.1 -0.1)">
       <use xlink:href="#DejaVuSans-32"/>
       <use xlink:href="#DejaVuSans-2e" x="63.623047"/>
       <use xlink:href="#DejaVuSans-35" x="95.410156"/>
      </g>
     </g>
    </g>
    <g id="ytick_6">
     <g id="line2d_23">
      <path d="M 90 77.694802 
L 648 77.694802 
" clip-path="url(#p9c58fcaa1b)" style="fill: none; stroke: #b0b0b0; stroke-width: 0.8; stroke-linecap: square"/>
     </g>
     <g id="line2d_24">
      <g>
       <use xlink:href="#m37e8932547" x="90" y="77.694802" style="stroke: #000000; stroke-width: 0.8"/>
      </g>
     </g>
     <g id="text_13">
      <!-- 3.0 -->
      <g transform="translate(67.096875 81.494021) scale(0.1 -0.1)">
       <defs>
        <path id="DejaVuSans-33" d="M 2597 2516 
Q 3050 2419 3304 2112 
Q 3559 1806 3559 1356 
Q 3559 666 3084 287 
Q 2609 -91 1734 -91 
Q 1441 -91 1130 -33 
Q 819 25 488 141 
L 488 750 
Q 750 597 1062 519 
Q 1375 441 1716 441 
Q 2309 441 2620 675 
Q 2931 909 2931 1356 
Q 2931 1769 2642 2001 
Q 2353 2234 1838 2234 
L 1294 2234 
L 1294 2753 
L 1863 2753 
Q 2328 2753 2575 2939 
Q 2822 3125 2822 3475 
Q 2822 3834 2567 4026 
Q 2313 4219 1838 4219 
Q 1578 4219 1281 4162 
Q 984 4106 628 3988 
L 628 4550 
Q 988 4650 1302 4700 
Q 1616 4750 1894 4750 
Q 2613 4750 3031 4423 
Q 3450 4097 3450 3541 
Q 3450 3153 3228 2886 
Q 3006 2619 2597 2516 
z
" transform="scale(0.015625)"/>
       </defs>
       <use xlink:href="#DejaVuSans-33"/>
       <use xlink:href="#DejaVuSans-2e" x="63.623047"/>
       <use xlink:href="#DejaVuSans-30" x="95.410156"/>
      </g>
     </g>
    </g>
    <g id="ytick_7">
     <g id="line2d_25">
      <path d="M 90 43.822203 
L 648 43.822203 
" clip-path="url(#p9c58fcaa1b)" style="fill: none; stroke: #b0b0b0; stroke-width: 0.8; stroke-linecap: square"/>
     </g>
     <g id="line2d_26">
      <g>
       <use xlink:href="#m37e8932547" x="90" y="43.822203" style="stroke: #000000; stroke-width: 0.8"/>
      </g>
     </g>
     <g id="text_14">
      <!-- 3.5 -->
      <g transform="translate(67.096875 47.621421) scale(0.1 -0.1)">
       <use xlink:href="#DejaVuSans-33"/>
       <use xlink:href="#DejaVuSans-2e" x="63.623047"/>
       <use xlink:href="#DejaVuSans-35" x="95.410156"/>
      </g>
     </g>
    </g>
    <g id="text_15">
     <!-- Spannung U [V] -->
     <g transform="translate(61.017187 184.861094) rotate(-90) scale(0.1 -0.1)">
      <defs>
       <path id="DejaVuSans-53" d="M 3425 4513 
L 3425 3897 
Q 3066 4069 2747 4153 
Q 2428 4238 2131 4238 
Q 1616 4238 1336 4038 
Q 1056 3838 1056 3469 
Q 1056 3159 1242 3001 
Q 1428 2844 1947 2747 
L 2328 2669 
Q 3034 2534 3370 2195 
Q 3706 1856 3706 1288 
Q 3706 609 3251 259 
Q 2797 -91 1919 -91 
Q 1588 -91 1214 -16 
Q 841 59 441 206 
L 441 856 
Q 825 641 1194 531 
Q 1563 422 1919 422 
Q 2459 422 2753 634 
Q 3047 847 3047 1241 
Q 3047 1584 2836 1778 
Q 2625 1972 2144 2069 
L 1759 2144 
Q 1053 2284 737 2584 
Q 422 2884 422 3419 
Q 422 4038 858 4394 
Q 1294 4750 2059 4750 
Q 2388 4750 2728 4690 
Q 3069 4631 3425 4513 
z
" transform="scale(0.015625)"/>
       <path id="DejaVuSans-70" d="M 1159 525 
L 1159 -1331 
L 581 -1331 
L 581 3500 
L 1159 3500 
L 1159 2969 
Q 1341 3281 1617 3432 
Q 1894 3584 2278 3584 
Q 2916 3584 3314 3078 
Q 3713 2572 3713 1747 
Q 3713 922 3314 415 
Q 2916 -91 2278 -91 
Q 1894 -91 1617 61 
Q 1341 213 1159 525 
z
M 3116 1747 
Q 3116 2381 2855 2742 
Q 2594 3103 2138 3103 
Q 1681 3103 1420 2742 
Q 1159 2381 1159 1747 
Q 1159 1113 1420 752 
Q 1681 391 2138 391 
Q 2594 391 2855 752 
Q 3116 1113 3116 1747 
z
" transform="scale(0.015625)"/>
       <path id="DejaVuSans-61" d="M 2194 1759 
Q 1497 1759 1228 1600 
Q 959 1441 959 1056 
Q 959 750 1161 570 
Q 1363 391 1709 391 
Q 2188 391 2477 730 
Q 2766 1069 2766 1631 
L 2766 1759 
L 2194 1759 
z
M 3341 1997 
L 3341 0 
L 2766 0 
L 2766 531 
Q 2569 213 2275 61 
Q 1981 -91 1556 -91 
Q 1019 -91 701 211 
Q 384 513 384 1019 
Q 384 1609 779 1909 
Q 1175 2209 1959 2209 
L 2766 2209 
L 2766 2266 
Q 2766 2663 2505 2880 
Q 2244 3097 1772 3097 
Q 1472 3097 1187 3025 
Q 903 2953 641 2809 
L 641 3341 
Q 956 3463 1253 3523 
Q 1550 3584 1831 3584 
Q 2591 3584 2966 3190 
Q 3341 2797 3341 1997 
z
" transform="scale(0.015625)"/>
       <path id="DejaVuSans-6e" d="M 3513 2113 
L 3513 0 
L 2938 0 
L 2938 2094 
Q 2938 2591 2744 2837 
Q 2550 3084 2163 3084 
Q 1697 3084 1428 2787 
Q 1159 2491 1159 1978 
L 1159 0 
L 581 0 
L 581 3500 
L 1159 3500 
L 1159 2956 
Q 1366 3272 1645 3428 
Q 1925 3584 2291 3584 
Q 2894 3584 3203 3211 
Q 3513 2838 3513 2113 
z
" transform="scale(0.015625)"/>
       <path id="DejaVuSans-75" d="M 544 1381 
L 544 3500 
L 1119 3500 
L 1119 1403 
Q 1119 906 1312 657 
Q 1506 409 1894 409 
Q 2359 409 2629 706 
Q 2900 1003 2900 1516 
L 2900 3500 
L 3475 3500 
L 3475 0 
L 2900 0 
L 2900 538 
Q 2691 219 2414 64 
Q 2138 -91 1772 -91 
Q 1169 -91 856 284 
Q 544 659 544 1381 
z
M 1991 3584 
L 1991 3584 
z
" transform="scale(0.015625)"/>
       <path id="DejaVuSans-67" d="M 2906 1791 
Q 2906 2416 2648 2759 
Q 2391 3103 1925 3103 
Q 1463 3103 1205 2759 
Q 947 2416 947 1791 
Q 947 1169 1205 825 
Q 1463 481 1925 481 
Q 2391 481 2648 825 
Q 2906 1169 2906 1791 
z
M 3481 434 
Q 3481 -459 3084 -895 
Q 2688 -1331 1869 -1331 
Q 1566 -1331 1297 -1286 
Q 1028 -1241 775 -1147 
L 775 -588 
Q 1028 -725 1275 -790 
Q 1522 -856 1778 -856 
Q 2344 -856 2625 -561 
Q 2906 -266 2906 331 
L 2906 616 
Q 2728 306 2450 153 
Q 2172 0 1784 0 
Q 1141 0 747 490 
Q 353 981 353 1791 
Q 353 2603 747 3093 
Q 1141 3584 1784 3584 
Q 2172 3584 2450 3431 
Q 2728 3278 2906 2969 
L 2906 3500 
L 3481 3500 
L 3481 434 
z
" transform="scale(0.015625)"/>
       <path id="DejaVuSans-55" d="M 556 4666 
L 1191 4666 
L 1191 1831 
Q 1191 1081 1462 751 
Q 1734 422 2344 422 
Q 2950 422 3222 751 
Q 3494 1081 3494 1831 
L 3494 4666 
L 4128 4666 
L 4128 1753 
Q 4128 841 3676 375 
Q 3225 -91 2344 -91 
Q 1459 -91 1007 375 
Q 556 841 556 1753 
L 556 4666 
z
" transform="scale(0.015625)"/>
       <path id="DejaVuSans-56" d="M 1831 0 
L 50 4666 
L 709 4666 
L 2188 738 
L 3669 4666 
L 4325 4666 
L 2547 0 
L 1831 0 
z
" transform="scale(0.015625)"/>
      </defs>
      <use xlink:href="#DejaVuSans-53"/>
      <use xlink:href="#DejaVuSans-70" x="63.476562"/>
      <use xlink:href="#DejaVuSans-61" x="126.953125"/>
      <use xlink:href="#DejaVuSans-6e" x="188.232422"/>
      <use xlink:href="#DejaVuSans-6e" x="251.611328"/>
      <use xlink:href="#DejaVuSans-75" x="314.990234"/>
      <use xlink:href="#DejaVuSans-6e" x="378.369141"/>
      <use xlink:href="#DejaVuSans-67" x="441.748047"/>
      <use xlink:href="#DejaVuSans-20" x="505.224609"/>
      <use xlink:href="#DejaVuSans-55" x="537.011719"/>
      <use xlink:href="#DejaVuSans-20" x="610.205078"/>
      <use xlink:href="#DejaVuSans-5b" x="641.992188"/>
      <use xlink:href="#DejaVuSans-56" x="681.005859"/>
      <use xlink:href="#DejaVuSans-5d" x="749.414062"/>
     </g>
    </g>
   </g>
   <g id="line2d_27">
    <path d="M 115.363636 145.44 
L 116.654344 115.747249 
L 117.288571 105.909979 
L 117.750091 101.737259 
L 118.074703 100.444476 
L 118.261923 100.320061 
L 118.265793 100.322225 
L 118.408506 100.533975 
L 118.625237 101.335662 
L 118.941141 103.481064 
L 119.385245 108.215723 
L 120.047047 117.976839 
L 121.741705 143.867363 
L 122.225479 147.81934 
L 122.550091 148.993496 
L 122.729087 149.086315 
L 122.734408 149.082872 
L 122.87954 148.849414 
L 123.096755 147.994354 
L 123.404435 145.750907 
L 123.818545 140.896921 
L 124.371981 131.506245 
L 125.194396 113.256087 
L 126.842129 76.342645 
L 127.443943 67.805002 
L 127.878855 64.341298 
L 128.17686 63.388183 
L 128.333602 63.355044 
L 128.340859 63.361265 
L 128.493731 63.649998 
L 128.726426 64.655083 
L 129.06023 67.22214 
L 129.524652 72.729284 
L 130.214513 83.913715 
L 131.928039 112.587845 
L 132.437936 117.338284 
L 132.787704 118.886243 
L 132.997178 119.088297 
L 133.133602 118.920333 
L 133.335336 118.237262 
L 133.626567 116.348004 
L 134.024229 112.12743 
L 134.562185 103.780157 
L 135.374924 87.219596 
L 136.915743 55.726063 
L 137.49869 48.237335 
L 137.912316 45.352068 
L 138.186132 44.659561 
L 138.329813 44.692798 
L 138.491877 45.056988 
L 138.736182 46.249531 
L 139.081113 49.19235 
L 139.553276 55.358908 
L 140.232493 67.50849 
L 142.252248 105.438758 
L 142.759726 110.467062 
L 143.115783 112.165252 
L 143.333965 112.416132 
L 143.46797 112.270118 
L 143.664866 111.645178 
L 143.952711 109.876856 
L 144.35134 105.867919 
L 144.90381 97.798379 
L 145.832171 80.37807 
L 146.959363 60.394495 
L 147.526829 53.909386 
L 147.920621 51.550878 
L 148.171699 51.071476 
L 148.303769 51.150882 
L 148.47696 51.604277 
L 148.734328 53.005615 
L 149.091353 56.344827 
L 149.57174 63.172189 
L 150.244668 76.279781 
L 152.580327 124.649945 
L 153.080065 129.742347 
L 153.435638 131.483658 
L 153.656722 131.752213 
L 153.790728 131.613349 
L 153.986656 131.009513 
L 154.275469 129.287786 
L 154.680871 125.353044 
L 155.258496 117.305962 
L 157.542391 82.927093 
L 157.934731 80.710461 
L 158.181455 80.27864 
L 158.313525 80.368036 
L 158.490103 80.842986 
L 158.749889 82.283465 
L 159.107398 85.682804 
L 159.582947 92.57116 
L 160.23459 105.603536 
L 161.61286 139.085931 
L 162.499133 157.384689 
L 163.080629 165.306944 
L 163.504898 168.493004 
L 163.794678 169.337198 
L 163.952389 169.343657 
L 163.953356 169.342725 
L 164.111066 169.035017 
L 164.351018 167.989341 
L 164.695948 165.351513 
L 165.181657 159.709667 
L 165.954243 147.730937 
L 167.234308 128.202801 
L 167.761621 123.316954 
L 168.117678 121.721507 
L 168.331022 121.504234 
L 168.466479 121.665964 
L 168.665309 122.331837 
L 168.95122 124.184233 
L 169.338238 128.330102 
L 169.852006 136.489236 
L 170.574763 151.928901 
L 172.757065 200.878745 
L 173.299859 207.527911 
L 173.693167 210.042212 
L 173.952469 210.595038 
L 174.089861 210.534114 
L 174.261117 210.122343 
L 174.518968 208.825072 
L 174.885668 205.685434 
L 175.401854 199.113092 
L 176.26152 184.818291 
L 177.400323 166.747556 
L 177.945535 161.303522 
L 178.318041 159.437029 
L 178.547833 159.126681 
L 178.680387 159.251029 
L 178.869059 159.815428 
L 179.143842 161.448971 
L 179.519734 165.194447 
L 180.022858 172.685766 
L 180.73594 187.025514 
L 182.827777 231.108348 
L 183.358476 237.189772 
L 183.737271 239.390384 
L 183.979157 239.810543 
L 184.109776 239.716642 
L 184.288772 239.227182 
L 184.555815 237.74334 
L 184.930256 234.242266 
L 185.448861 227.054505 
L 186.263536 212.19483 
L 187.621971 187.754617 
L 188.188954 181.328449 
L 188.585164 178.963852 
L 188.840597 178.465967 
L 188.976053 178.537751 
L 189.149244 178.969307 
L 189.407095 180.309147 
L 189.766539 183.510539 
L 190.25515 190.087485 
L 190.963394 203.00736 
L 192.838984 238.547845 
L 193.361459 244.044102 
L 193.726225 245.934185 
L 193.951663 246.239307 
L 194.081798 246.109522 
L 194.27047 245.524157 
L 194.547672 243.82548 
L 194.930337 239.922408 
L 195.450393 232.075354 
L 196.223463 216.589332 
L 197.901673 182.383535 
L 198.475912 175.227904 
L 198.886636 172.465957 
L 199.159968 171.804572 
L 199.3051 171.840098 
L 199.470067 172.202742 
L 199.718726 173.380831 
L 200.070913 176.272984 
L 200.559041 182.341877 
L 201.301149 194.73962 
L 202.807136 220.147885 
L 203.338803 225.473122 
L 203.703084 227.271297 
L 203.925136 227.548822 
L 204.056722 227.410344 
L 204.247813 226.803638 
L 204.525983 225.065349 
L 204.905745 221.107763 
L 205.413707 213.224571 
L 206.133078 198.181764 
L 208.267486 151.388061 
L 208.811732 144.820318 
L 209.206007 142.335006 
L 209.465793 141.786805 
L 209.604636 141.846477 
L 209.776376 142.252603 
L 210.035195 143.532633 
L 210.403346 146.627664 
L 210.923403 153.115328 
L 211.816448 167.57818 
L 212.871558 183.586783 
L 213.404676 188.650944 
L 213.765571 190.327019 
L 213.982786 190.568371 
L 214.116307 190.417968 
L 214.311268 189.783023 
L 214.592824 187.994033 
L 214.975005 183.956487 
L 215.482 175.980042 
L 216.190244 160.919277 
L 218.484298 109.392598 
L 219.014997 103.126017 
L 219.399597 100.796607 
L 219.651159 100.31237 
L 219.786132 100.387907 
L 219.962225 100.829878 
L 220.226849 102.195276 
L 220.602741 105.459522 
L 221.136343 112.277565 
L 222.107761 128.175879 
L 223.063697 142.379595 
L 223.590042 147.273762 
L 223.946583 148.877084 
L 224.160411 149.097155 
L 224.295868 148.937269 
L 224.494215 148.278315 
L 224.780125 146.440634 
L 225.168111 142.319095 
L 225.684781 134.192688 
L 226.418182 118.722588 
L 228.481476 73.299133 
L 229.031526 66.490731 
L 229.42822 63.911622 
L 229.689458 63.338508 
L 229.826849 63.395976 
L 229.99617 63.801429 
L 230.251119 65.087086 
L 230.612497 68.205518 
L 231.116589 74.719156 
L 231.910945 88.31354 
L 233.248579 110.906429 
L 233.800081 116.68607 
L 234.18081 118.722177 
L 234.419311 119.093342 
L 234.551381 118.989123 
L 234.734247 118.477683 
L 235.002741 116.960383 
L 235.372828 113.429265 
L 235.872082 106.28829 
L 236.588551 92.452739 
L 238.545898 53.088902 
L 239.077565 47.144621 
L 239.452973 45.028099 
L 239.690506 44.640141 
L 239.820157 44.743385 
L 240.001088 45.256865 
L 240.269583 46.79484 
L 240.644023 50.401232 
L 241.157307 57.75056 
L 241.932796 72.497142 
L 243.502641 102.63905 
L 244.070107 109.337211 
L 244.471639 111.852911 
L 244.733844 112.410118 
L 244.872203 112.351767 
L 245.042491 111.947299 
L 245.296956 110.672254 
L 245.654465 107.592743 
L 246.145495 101.206237 
L 246.875993 88.408458 
L 248.526144 58.856589 
L 249.058778 53.297565 
L 249.427414 51.384014 
L 249.654787 51.069137 
L 249.784922 51.194587 
L 249.972143 51.767568 
L 250.246442 53.435588 
L 250.623302 57.271378 
L 251.13078 64.968262 
L 251.859343 79.820031 
L 253.848135 122.010652 
L 254.399153 128.658567 
L 254.796331 131.180323 
L 255.058537 131.744678 
L 255.197863 131.688371 
L 255.368635 131.288184 
L 255.625519 130.021945 
L 255.9898 126.955882 
L 256.500181 120.545666 
L 257.331304 106.830583 
L 258.526708 87.776399 
L 259.068535 82.390071 
L 259.43717 80.566856 
L 259.662125 80.278375 
L 259.793711 80.411506 
L 259.98335 81.001241 
L 260.259101 82.697515 
L 260.634993 86.570948 
L 261.135215 94.286461 
L 261.832332 108.879603 
L 264.176214 160.870123 
L 264.697722 166.797706 
L 265.074582 168.95806 
L 265.318404 169.378925 
L 265.451925 169.288055 
L 265.63334 168.809565 
L 265.904737 167.363141 
L 266.289821 163.943502 
L 266.838903 156.832028 
L 267.960774 138.567956 
L 268.781254 127.154959 
L 269.278573 122.93107 
L 269.61286 121.636418 
L 269.802499 121.511551 
L 269.805886 121.513459 
L 269.947632 121.725215 
L 270.159524 122.525421 
L 270.460915 124.660885 
L 270.866317 129.319874 
L 271.405725 138.368295 
L 272.1846 155.646759 
L 274.058254 198.388059 
L 274.643136 206.455067 
L 275.068373 209.696741 
L 275.358637 210.558366 
L 275.513929 210.568632 
L 275.517315 210.565397 
L 275.674058 210.25643 
L 275.912558 209.203528 
L 276.254586 206.546262 
L 276.734005 200.86487 
L 277.473695 189.064366 
L 278.908083 166.092825 
L 279.436364 161.051446 
L 279.796775 159.373603 
L 280.014957 159.12885 
L 280.148962 159.277124 
L 280.344406 159.905109 
L 280.627414 161.676243 
L 281.013465 165.67956 
L 281.530135 173.613771 
L 282.273211 188.878383 
L 284.198629 229.856219 
L 284.753034 236.671444 
L 285.149728 239.237964 
L 285.409514 239.803266 
L 285.545938 239.74351 
L 285.714775 239.333217 
L 285.968756 238.0329 
L 286.327232 234.88258 
L 286.822616 228.327913 
L 287.571498 215.052021 
L 289.139407 186.886584 
L 289.687039 180.978139 
L 290.069704 178.863141 
L 290.312074 178.462177 
L 290.444628 178.558384 
L 290.625076 179.048155 
L 290.892119 180.520871 
L 291.262689 183.974812 
L 291.766781 190.999426 
L 292.510824 204.890897 
L 294.215642 237.475007 
L 294.761338 243.616228 
L 295.144003 245.820768 
L 295.386374 246.239376 
L 295.516509 246.143943 
L 295.694537 245.650768 
L 295.958678 244.157791 
L 296.325378 240.642951 
L 296.823181 233.480268 
L 297.543519 219.499659 
L 299.465551 180.752953 
L 300.008345 174.545635 
L 300.395848 172.257873 
L 300.646442 171.789464 
L 300.780931 171.867591 
L 300.957025 172.313414 
L 301.220198 173.685055 
L 301.590768 176.954592 
L 302.105987 183.714011 
L 302.92695 197.882793 
L 304.200242 219.351262 
L 304.75126 225.162049 
L 305.129571 227.190899 
L 305.364685 227.550204 
L 305.49482 227.440254 
L 305.677202 226.911385 
L 305.945213 225.342351 
L 306.31288 221.699004 
L 306.804394 214.363417 
L 307.490869 200.399713 
L 309.840073 149.674167 
L 310.352389 144.109587 
L 310.72054 142.131758 
L 310.954687 141.778901 
L 311.087724 141.888578 
L 311.274945 142.414252 
L 311.553598 143.965806 
L 311.946906 147.577692 
L 312.508567 155.045066 
L 314.819069 188.370563 
L 315.193509 190.256557 
L 315.423302 190.570866 
L 315.554888 190.448245 
L 315.742108 189.887068 
L 316.014473 188.256622 
L 316.385527 184.514004 
L 316.878008 177.040829 
L 317.55771 162.957325 
L 320.053981 107.748762 
L 320.554203 102.449823 
L 320.913163 100.609558 
L 321.138601 100.309399 
L 321.271639 100.437542 
L 321.464181 101.013367 
L 321.750091 102.680043 
L 322.153558 106.518235 
L 322.734086 114.435584 
L 324.902358 146.228108 
L 325.306309 148.597879 
L 325.563677 149.096694 
L 325.699617 149.024844 
L 325.872324 148.592559 
L 326.127273 147.253718 
L 326.478492 144.063724 
L 326.946301 137.552791 
L 327.58585 125.198912 
L 328.830115 95.692127 
L 329.783632 75.786934 
L 330.376255 67.561628 
L 330.804878 64.256799 
L 331.096593 63.375971 
L 331.250917 63.361969 
L 331.255271 63.366073 
L 331.410562 63.671988 
L 331.646644 64.718646 
L 331.984801 67.369505 
L 332.455513 73.032301 
L 333.159403 84.552792 
L 334.809071 112.247212 
L 335.327676 117.208673 
L 335.684217 118.856069 
L 335.89998 119.090376 
L 336.034469 118.937568 
L 336.231848 118.295833 
L 336.518242 116.491965 
L 336.909615 112.431559 
L 337.438863 104.360253 
L 338.22693 88.477885 
L 339.854828 55.257066 
L 340.429067 48.038513 
L 340.836404 45.289408 
L 341.104414 44.653619 
L 341.244225 44.69903 
L 341.408708 45.082325 
L 341.6564 46.320621 
L 342.005684 49.355119 
L 342.483169 55.677503 
L 343.173997 68.150873 
L 345.126991 104.99423 
L 345.644628 110.293577 
L 346.008426 112.121279 
L 346.234348 112.417753 
L 346.367386 112.288633 
L 346.55896 111.710587 
L 346.840516 110.042798 
L 347.231405 106.218762 
L 347.771296 98.492875 
L 348.648377 82.209936 
L 349.866519 60.424783 
L 350.434469 53.923165 
L 350.828744 51.55499 
L 351.080306 51.071662 
L 351.212377 51.149887 
L 351.385084 51.599919 
L 351.641967 52.993931 
L 351.998025 56.314741 
L 352.477444 63.112418 
L 353.148922 76.170453 
L 355.49619 124.735968 
L 355.994477 129.778854 
L 356.348599 131.493231 
L 356.567748 131.751859 
L 356.702237 131.609144 
L 356.899617 130.993721 
L 357.190365 129.244955 
L 357.597702 125.264678 
L 358.178714 117.132675 
L 360.436485 83.04847 
L 360.833663 80.745301 
L 361.085225 80.279818 
L 361.218262 80.361189 
L 361.392421 80.81651 
L 361.649305 82.212688 
L 362.003427 85.52833 
L 362.474622 92.271956 
L 363.118524 105.035724 
L 364.373433 135.528609 
L 365.336142 156.140476 
L 365.937472 164.755471 
L 366.376255 168.302124 
L 366.680065 169.308551 
L 366.844547 169.358205 
L 366.850837 169.353291 
L 367.002741 169.084601 
L 367.233985 168.136997 
L 367.567789 165.698177 
L 368.037533 160.423283 
L 368.763677 149.392364 
L 370.180165 127.778763 
L 370.695384 123.160144 
L 371.043217 121.68495 
L 371.248337 121.507273 
L 371.385729 121.687174 
L 371.589397 122.40188 
L 371.881113 124.358176 
L 372.274904 128.691845 
L 372.798347 137.181575 
L 373.540939 153.280551 
L 375.604233 199.900634 
L 376.163959 207.111453 
L 376.570329 209.912466 
L 376.842209 210.583922 
L 376.986857 210.549421 
L 377.15134 210.186306 
L 377.400484 209.002566 
L 377.756057 206.085118 
L 378.255311 199.924466 
L 379.054021 186.870082 
L 380.32054 166.610825 
L 380.861883 161.253168 
L 381.231969 159.424246 
L 381.459343 159.126923 
L 381.591897 159.25503 
L 381.781536 159.8289 
L 382.057771 161.484755 
L 382.435114 165.268951 
L 382.940173 172.825747 
L 383.657609 187.301457 
L 385.723806 230.915201 
L 386.258375 237.111801 
L 386.640073 239.368487 
L 386.884862 239.809959 
L 387.015965 239.721455 
L 387.193026 239.246568 
L 387.45765 237.796608 
L 387.829188 234.359798 
L 388.343439 227.289709 
L 389.145051 212.738483 
L 390.539286 187.641647 
L 391.10385 181.281978 
L 391.498609 178.949169 
L 391.752106 178.465259 
L 391.887079 178.540195 
L 392.061238 178.979073 
L 392.320056 180.334175 
L 392.680951 183.566878 
L 393.171498 190.199028 
L 393.883612 203.227794 
L 395.737916 238.408895 
L 396.263294 243.988045 
L 396.630478 245.919751 
L 396.858335 246.239616 
L 396.987986 246.115214 
L 397.175207 245.543761 
L 397.450474 243.876356 
L 397.83072 240.03255 
L 398.34739 232.289884 
L 399.111752 217.047033 
L 400.825277 182.163161 
L 401.395162 175.136448 
L 401.802983 172.436894 
L 402.073413 171.801864 
L 402.217093 171.843298 
L 402.383511 172.216268 
L 402.634106 173.418983 
L 402.988712 176.359514 
L 403.480226 182.515265 
L 404.231042 195.115488 
L 405.705584 220.010041 
L 406.240637 225.419681 
L 406.607337 227.257669 
L 406.831808 227.549274 
L 406.962911 227.416216 
L 407.15255 226.82366 
L 407.428785 225.11726 
L 407.806612 221.214464 
L 408.311671 213.428966 
L 409.024753 198.588314 
L 411.196896 151.084876 
L 411.735336 144.695559 
L 412.125257 142.297983 
L 412.381173 141.784309 
L 412.518081 141.852004 
L 412.692239 142.275336 
L 412.953961 143.594187 
L 413.325983 146.765626 
L 413.851844 153.392287 
L 414.773917 168.39455 
L 415.788389 183.677177 
L 416.319089 188.685371 
L 416.678049 190.334854 
L 416.893812 190.567887 
L 417.027817 190.413509 
L 417.224229 189.766293 
L 417.507236 187.951968 
L 417.890869 183.871366 
L 418.400282 175.814304 
L 419.11288 160.603687 
L 421.37694 109.642785 
L 421.911994 103.231878 
L 422.300464 100.82702 
L 422.555412 100.314044 
L 422.691353 100.382263 
L 422.865027 100.806846 
L 423.126749 102.133021 
L 423.49877 105.320277 
L 424.026083 111.991763 
L 424.961217 127.234708 
L 425.958758 142.210924 
L 426.489458 147.208425 
L 426.849385 148.861519 
L 427.066116 149.098207 
L 427.200605 148.946445 
L 427.397017 148.307854 
L 427.680508 146.513503 
L 428.065592 142.470993 
L 428.577908 134.487394 
L 429.302117 119.311048 
L 431.418142 72.878155 
L 431.960452 66.315336 
L 432.35134 63.858735 
L 432.606773 63.335096 
L 432.741746 63.40353 
L 432.913969 63.831426 
L 433.172788 65.169522 
L 433.539004 68.389243 
L 434.050353 75.088709 
L 434.86793 89.193506 
L 436.146543 110.757185 
L 436.701431 116.625583 
L 437.08458 118.705178 
L 437.325499 119.093122 
L 437.458053 118.99334 
L 437.639468 118.493673 
L 437.906511 117.000588 
L 438.274662 113.516049 
L 438.771014 106.460856 
L 439.481677 92.796733 
L 441.471437 52.860359 
L 441.998266 47.053757 
L 442.370288 45.002809 
L 442.603951 44.640001 
L 442.733602 44.750373 
L 442.916952 45.283571 
L 443.188349 46.865662 
L 443.566176 50.55348 
L 444.084298 58.046216 
L 444.873332 73.14398 
L 446.395767 102.400554 
L 446.968071 109.238131 
L 447.372989 111.822484 
L 447.638097 112.40765 
L 447.778391 112.355733 
L 447.946745 111.964469 
L 448.198791 110.720746 
L 448.553396 107.701881 
L 449.040556 101.42162 
L 449.761379 88.866519 
L 451.453134 58.624411 
L 451.980447 53.206125 
L 452.345213 51.360095 
L 452.568716 51.069768 
L 452.699335 51.204114 
L 452.888974 51.800352 
L 453.16666 53.522148 
L 453.54739 57.456718 
L 454.060189 65.325965 
L 454.800847 80.545966 
L 456.726265 121.53473 
L 457.285991 128.457199 
L 457.689942 131.118717 
L 457.958436 131.739631 
L 458.101149 131.695837 
L 458.268535 131.319507 
L 458.521064 130.109211 
L 458.880024 127.15053 
L 459.382181 120.940175 
L 460.185245 107.802402 
L 461.44354 87.682172 
L 461.982463 82.35717 
L 462.349647 80.558278 
L 462.573151 80.278669 
L 462.705221 80.415697 
L 462.896311 81.017332 
L 463.173513 82.738394 
L 463.55134 86.66032 
L 464.053981 94.458053 
L 464.755936 109.213546 
L 467.066922 160.599693 
L 467.593267 166.6845 
L 467.974481 168.92654 
L 468.222173 169.377829 
L 468.356662 169.294834 
L 468.535174 168.837108 
L 468.803185 167.436972 
L 469.183915 164.105961 
L 469.725741 157.163046 
L 470.770208 140.190086 
L 471.64874 127.620253 
L 472.159605 123.100614 
L 472.504052 121.671882 
L 472.706269 121.508756 
L 472.844628 121.696625 
L 473.050232 122.432021 
L 473.344366 124.432449 
L 473.74106 128.846558 
L 474.268373 137.472707 
L 475.019673 153.857044 
L 477.03459 199.506983 
L 477.601088 206.943108 
L 478.01278 209.859685 
L 478.289498 210.578457 
L 478.437533 210.553951 
L 478.600081 210.205199 
L 478.846321 209.056983 
L 479.198508 206.207298 
L 479.692441 200.174581 
L 480.474703 187.465043 
L 481.78331 166.50984 
L 482.322233 161.212878 
L 482.690385 159.414055 
L 482.915823 159.12717 
L 483.048861 159.259273 
L 483.239952 159.84499 
L 483.517638 161.525332 
L 483.896916 165.357006 
L 484.404878 173.001969 
L 485.128119 187.655952 
L 487.161419 230.664324 
L 487.700826 237.008861 
L 488.08591 239.337859 
L 488.33457 239.808877 
L 488.46664 239.727438 
L 488.641766 239.268897 
L 488.903971 237.855314 
L 489.272606 234.485949 
L 489.782504 227.537084 
L 490.571054 213.298034 
L 492.004475 187.494152 
L 492.565652 181.22321 
L 492.957992 178.932701 
L 493.209555 178.464457 
L 493.344044 178.543514 
L 493.519653 178.992829 
L 493.779923 180.370023 
L 494.142753 183.646022 
L 494.636202 190.358671 
L 495.354606 203.558256 
L 497.177948 238.210981 
L 497.70768 243.909763 
L 498.07825 245.899509 
L 498.30901 246.239912 
L 498.438662 246.122321 
L 498.623463 245.570836 
L 498.895827 243.948338 
L 499.272687 240.187859 
L 499.784519 232.593445 
L 500.537271 217.679817 
L 502.301109 181.840684 
L 502.865188 174.997596 
L 503.268656 172.392774 
L 503.534731 171.797981 
L 503.675509 171.847909 
L 503.843862 172.235175 
L 504.096876 173.470529 
L 504.454868 176.477711 
L 504.95122 182.755229 
L 505.715098 195.653402 
L 507.146583 219.835008 
L 507.685991 225.352153 
L 508.056077 227.241272 
L 508.283451 227.549683 
L 508.41407 227.42267 
L 508.601774 226.847161 
L 508.876073 225.175491 
L 509.251482 221.33729 
L 509.753155 213.665044 
L 510.459464 199.046769 
L 512.675146 150.734795 
L 513.207297 144.548095 
L 513.591897 142.255109 
L 513.842491 141.782117 
L 513.977948 141.859252 
L 514.155009 142.304138 
L 514.420601 143.673513 
L 514.79746 146.941972 
L 515.331062 153.750852 
L 516.296674 169.544303 
L 517.258416 183.859949 
L 517.784277 188.755247 
L 518.139851 190.351964 
L 518.352227 190.566704 
L 518.4872 190.403796 
L 518.686031 189.733207 
L 518.971941 187.868451 
L 519.35896 183.695779 
L 519.872727 175.484119 
L 520.594517 159.963032 
L 522.799557 110.132887 
L 523.343318 103.438042 
L 523.738561 100.889487 
L 524.000282 100.318224 
L 524.139609 100.373814 
L 524.309897 100.773091 
L 524.566781 102.038079 
L 524.932997 105.109068 
L 525.451119 111.563244 
L 526.339811 125.946833 
L 527.400726 142.059171 
L 527.935779 147.152494 
L 528.298609 148.848113 
L 528.518242 149.098849 
L 528.652248 148.952352 
L 528.847208 148.327822 
L 529.128764 146.565165 
L 529.511429 142.583245 
L 530.020843 134.699423 
L 530.738762 119.727119 
L 532.892522 72.579706 
L 533.42951 66.189708 
L 533.816045 63.821855 
L 534.067124 63.333184 
L 534.200645 63.409532 
L 534.375287 63.855583 
L 534.637492 65.237829 
L 535.008063 68.545348 
L 535.5257 75.404593 
L 536.364564 89.969764 
L 537.595283 110.678938 
L 538.152106 116.595072 
L 538.536706 118.697298 
L 538.779077 119.093018 
L 538.911631 118.995033 
L 539.092562 118.49971 
L 539.358637 117.018802 
L 539.726305 113.550812 
L 540.221689 106.526729 
L 540.929933 92.932397 
L 542.932755 52.767291 
L 543.45765 47.016503 
L 543.82822 44.992695 
L 544.060431 44.640013 
L 544.190083 44.753534 
L 544.3744 45.295131 
L 544.647249 46.897818 
L 545.026527 50.621592 
L 545.547067 58.182753 
L 546.342391 73.443042 
L 547.84354 102.298434 
L 548.417779 109.194474 
L 548.824148 111.808876 
L 549.090708 112.406562 
L 549.231969 112.357068 
L 549.399839 111.969689 
L 549.651401 110.733857 
L 550.005523 107.728228 
L 550.491715 101.474119 
L 551.210119 88.979387 
L 552.912518 58.562749 
L 553.438379 53.182144 
L 553.801693 51.355054 
L 554.024229 51.069917 
L 554.154848 51.205766 
L 554.344971 51.806315 
L 554.62314 53.536851 
L 555.004838 57.492131 
L 555.518605 65.393436 
L 556.261197 80.67499 
L 558.175489 121.45095 
L 558.73715 128.4254 
L 559.142068 131.108537 
L 559.41153 131.738691 
L 559.555211 131.696535 
L 559.722112 131.322991 
L 559.974158 130.118909 
L 560.332151 127.175952 
L 560.83334 120.990171 
L 561.633018 107.922877 
L 562.899536 87.66531 
L 563.43846 82.34762 
L 563.80516 80.55596 
L 564.02818 80.27874 
L 564.16025 80.416432 
L 564.35134 81.019036 
L 564.629026 82.745369 
L 565.006853 86.671379 
L 565.509494 94.473855 
L 566.211933 109.245189 
L 568.520016 160.576982 
L 569.046845 166.67563 
L 569.428059 168.922893 
L 569.676235 169.377691 
L 569.810724 169.295681 
L 569.989236 168.839226 
L 570.256763 167.444153 
L 570.637009 164.122399 
L 571.178351 157.192869 
L 572.217013 140.318567 
L 573.100383 127.654234 
L 573.612215 123.113155 
L 573.957146 121.675104 
L 574.159847 121.508261 
L 574.298206 121.69424 
L 574.503326 122.42444 
L 574.796976 124.414839 
L 575.193187 128.812624 
L 575.719532 137.406601 
L 576.468897 153.727188 
L 578.494457 199.5922 
L 579.059504 206.979708 
L 579.470228 209.872005 
L 579.745979 210.579889 
L 579.893046 210.552974 
L 580.056077 210.200901 
L 580.302802 209.045695 
L 580.655473 206.18414 
L 581.150373 200.127763 
L 581.935537 187.356651 
L 583.236404 166.529032 
L 583.775811 161.220362 
L 584.144447 159.415612 
L 584.370369 159.127156 
L 584.503407 159.259095 
L 584.694013 159.842503 
L 584.971215 161.517039 
L 585.35001 165.337918 
L 585.857005 172.957828 
L 586.578795 187.56723 
L 588.620318 230.727331 
L 589.158275 237.03272 
L 589.542874 239.346036 
L 589.790566 239.809206 
L 589.922153 239.726142 
L 590.097763 239.263812 
L 590.360452 237.842416 
L 590.729571 234.459957 
L 591.240435 227.484995 
L 592.031405 213.186604 
L 593.457085 187.522492 
L 594.01923 181.231909 
L 594.412054 178.934702 
L 594.6641 178.464483 
L 594.798589 178.543374 
L 594.974199 178.992474 
L 595.234469 180.369356 
L 595.597299 183.644949 
L 596.090748 190.357132 
L 596.809151 203.556298 
L 598.632493 238.209663 
L 599.162225 243.909019 
L 599.532796 245.899219 
L 599.763556 246.239917 
L 599.893207 246.122492 
L 600.078008 245.571242 
L 600.350373 243.949082 
L 600.727232 240.189038 
L 601.239065 232.595115 
L 601.991816 217.681915 
L 603.756138 181.834835 
L 604.319734 174.998461 
L 604.723201 172.393154 
L 604.989276 171.798033 
L 605.130054 171.847788 
L 605.298408 172.234851 
L 605.551421 173.469911 
L 605.909413 176.476712 
L 606.405765 182.753804 
L 607.169643 195.65163 
L 608.601129 219.833761 
L 609.140536 225.351444 
L 609.510623 227.240999 
L 609.737996 227.549694 
L 609.868615 227.422847 
L 610.056319 226.847577 
L 610.330619 225.176253 
L 610.706027 221.338501 
L 611.2077 213.666774 
L 611.914009 199.04899 
L 614.129692 150.736217 
L 614.661842 144.548909 
L 615.046442 142.255448 
L 615.297037 141.782144 
L 615.432493 141.859115 
L 615.609555 142.30379 
L 615.875146 143.672867 
L 616.251522 146.935847 
L 616.785124 153.74234 
L 617.749768 169.518244 
L 618.712477 183.853089 
L 619.238339 188.751433 
L 619.593913 190.350601 
L 619.806289 190.566897 
L 619.941262 190.405001 
L 620.139609 189.738168 
L 620.425035 187.881384 
L 620.81157 183.722443 
L 621.324854 175.530958 
L 622.045193 160.057394 
L 622.636364 145.452178 
L 622.636364 145.452178 
" clip-path="url(#p9c58fcaa1b)" style="fill: none; stroke: #0000ff; stroke-width: 1.5; stroke-linecap: square"/>
   </g>
   <g id="patch_3">
    <path d="M 90 256.32 
L 90 34.56 
" style="fill: none; stroke: #000000; stroke-width: 0.8; stroke-linejoin: miter; stroke-linecap: square"/>
   </g>
   <g id="patch_4">
    <path d="M 648 256.32 
L 648 34.56 
" style="fill: none; stroke: #000000; stroke-width: 0.8; stroke-linejoin: miter; stroke-linecap: square"/>
   </g>
   <g id="patch_5">
    <path d="M 90 256.32 
L 648 256.32 
" style="fill: none; stroke: #000000; stroke-width: 0.8; stroke-linejoin: miter; stroke-linecap: square"/>
   </g>
   <g id="patch_6">
    <path d="M 90 34.56 
L 648 34.56 
" style="fill: none; stroke: #000000; stroke-width: 0.8; stroke-linejoin: miter; stroke-linecap: square"/>
   </g>
   <g id="text_16">
    <!-- Zeitsignal (Ausschnitt) -->
    <g transform="translate(301.409063 28.56) scale(0.12 -0.12)">
     <defs>
      <path id="DejaVuSans-6c" d="M 603 4863 
L 1178 4863 
L 1178 0 
L 603 0 
L 603 4863 
z
" transform="scale(0.015625)"/>
      <path id="DejaVuSans-28" d="M 1984 4856 
Q 1566 4138 1362 3434 
Q 1159 2731 1159 2009 
Q 1159 1288 1364 580 
Q 1569 -128 1984 -844 
L 1484 -844 
Q 1016 -109 783 600 
Q 550 1309 550 2009 
Q 550 2706 781 3412 
Q 1013 4119 1484 4856 
L 1984 4856 
z
" transform="scale(0.015625)"/>
      <path id="DejaVuSans-41" d="M 2188 4044 
L 1331 1722 
L 3047 1722 
L 2188 4044 
z
M 1831 4666 
L 2547 4666 
L 4325 0 
L 3669 0 
L 3244 1197 
L 1141 1197 
L 716 0 
L 50 0 
L 1831 4666 
z
" transform="scale(0.015625)"/>
      <path id="DejaVuSans-63" d="M 3122 3366 
L 3122 2828 
Q 2878 2963 2633 3030 
Q 2388 3097 2138 3097 
Q 1578 3097 1268 2742 
Q 959 2388 959 1747 
Q 959 1106 1268 751 
Q 1578 397 2138 397 
Q 2388 397 2633 464 
Q 2878 531 3122 666 
L 3122 134 
Q 2881 22 2623 -34 
Q 2366 -91 2075 -91 
Q 1284 -91 818 406 
Q 353 903 353 1747 
Q 353 2603 823 3093 
Q 1294 3584 2113 3584 
Q 2378 3584 2631 3529 
Q 2884 3475 3122 3366 
z
" transform="scale(0.015625)"/>
      <path id="DejaVuSans-68" d="M 3513 2113 
L 3513 0 
L 2938 0 
L 2938 2094 
Q 2938 2591 2744 2837 
Q 2550 3084 2163 3084 
Q 1697 3084 1428 2787 
Q 1159 2491 1159 1978 
L 1159 0 
L 581 0 
L 581 4863 
L 1159 4863 
L 1159 2956 
Q 1366 3272 1645 3428 
Q 1925 3584 2291 3584 
Q 2894 3584 3203 3211 
Q 3513 2838 3513 2113 
z
" transform="scale(0.015625)"/>
      <path id="DejaVuSans-29" d="M 513 4856 
L 1013 4856 
Q 1481 4119 1714 3412 
Q 1947 2706 1947 2009 
Q 1947 1309 1714 600 
Q 1481 -109 1013 -844 
L 513 -844 
Q 928 -128 1133 580 
Q 1338 1288 1338 2009 
Q 1338 2731 1133 3434 
Q 928 4138 513 4856 
z
" transform="scale(0.015625)"/>
     </defs>
     <use xlink:href="#DejaVuSans-5a"/>
     <use xlink:href="#DejaVuSans-65" x="68.505859"/>
     <use xlink:href="#DejaVuSans-69" x="130.029297"/>
     <use xlink:href="#DejaVuSans-74" x="157.8125"/>
     <use xlink:href="#DejaVuSans-73" x="197.021484"/>
     <use xlink:href="#DejaVuSans-69" x="249.121094"/>
     <use xlink:href="#DejaVuSans-67" x="276.904297"/>
     <use xlink:href="#DejaVuSans-6e" x="340.380859"/>
     <use xlink:href="#DejaVuSans-61" x="403.759766"/>
     <use xlink:href="#DejaVuSans-6c" x="465.039062"/>
     <use xlink:href="#DejaVuSans-20" x="492.822266"/>
     <use xlink:href="#DejaVuSans-28" x="524.609375"/>
     <use xlink:href="#DejaVuSans-41" x="563.623047"/>
     <use xlink:href="#DejaVuSans-75" x="632.03125"/>
     <use xlink:href="#DejaVuSans-73" x="695.410156"/>
     <use xlink:href="#DejaVuSans-73" x="747.509766"/>
     <use xlink:href="#DejaVuSans-63" x="799.609375"/>
     <use xlink:href="#DejaVuSans-68" x="854.589844"/>
     <use xlink:href="#DejaVuSans-6e" x="917.96875"/>
     <use xlink:href="#DejaVuSans-69" x="981.347656"/>
     <use xlink:href="#DejaVuSans-74" x="1009.130859"/>
     <use xlink:href="#DejaVuSans-74" x="1048.339844"/>
     <use xlink:href="#DejaVuSans-29" x="1087.548828"/>
    </g>
   </g>
  </g>
 </g>
 <defs>
  <clipPath id="p9c58fcaa1b">
   <rect x="90" y="34.56" width="558" height="221.76"/>
  </clipPath>
 </defs>
</svg>
