<svg width="3359" height="1095" xmlns="http://www.w3.org/2000/svg" xmlns:xlink="http://www.w3.org/1999/xlink" xml:space="preserve" overflow="hidden"><g transform="translate(-447 -927)"><text fill="#E10362" font-family="Aptos,Aptos_MSFontService,sans-serif" font-weight="400" font-size="92" transform="matrix(1 0 0 1 1513.62 1045)">Ableitung </text><text fill="#E10362" font-family="Symbol,Symbol_MSFontService,sans-serif" font-weight="400" font-size="92" transform="matrix(1 0 0 1 1907.78 1045)">ï‚®</text><text fill="#E10362" font-family="Aptos,Aptos_MSFontService,sans-serif" font-style="italic" font-weight="400" font-size="92" transform="matrix(1 0 0 1 2017.21 1045)">Steigung der Kurve</text><path d="M451.5 1780.21 1844.73 1780.21 1844.73 1784.79 451.5 1784.79ZM1840.14 1768.75 1867.64 1782.5 1840.14 1796.25Z"/><path d="M2.29167-1.55262e-06 2.29201 509.76-2.29132 509.76-2.29167 1.55262e-06ZM13.7503 505.177 0.000360892 532.677-13.7497 505.177Z" transform="matrix(1 0 0 -1 506.5 1815.18)"/><path d="M1949.58 1769.17C1950.42 1769.17 1951.15 1769.26 1951.79 1769.45 1952.42 1769.64 1952.99 1769.93 1953.47 1770.32 1953.96 1770.72 1954.39 1771.22 1954.77 1771.84 1955.15 1772.47 1955.51 1773.31 1955.86 1774.38 1956.21 1775.44 1956.55 1776.77 1956.86 1778.35 1957.17 1779.93 1957.44 1781.57 1957.69 1783.27L1958.09 1783.27C1960.69 1779.62 1962.65 1776.96 1963.99 1775.27 1965.33 1773.58 1966.45 1772.32 1967.37 1771.5 1968.29 1770.68 1969.18 1770.09 1970.03 1769.76 1970.88 1769.42 1972.01 1769.25 1973.41 1769.25 1974.68 1769.25 1975.72 1769.41 1976.53 1769.74L1974.91 1777.07 1972.07 1777.07C1971.91 1775.94 1971.44 1775.37 1970.66 1775.37 1970.41 1775.37 1970.16 1775.41 1969.89 1775.49 1969.62 1775.57 1969.28 1775.75 1968.89 1776.02 1968.5 1776.29 1967.93 1776.82 1967.17 1777.6 1966.41 1778.38 1965.56 1779.34 1964.62 1780.48 1963.67 1781.61 1962.7 1782.8 1961.7 1784.04L1958.94 1787.49C1959.43 1790.08 1959.89 1792.32 1960.32 1794.21 1960.75 1796.11 1961.14 1797.68 1961.48 1798.94 1961.81 1800.19 1962.11 1801.19 1962.37 1801.92 1962.62 1802.64 1962.9 1803.19 1963.2 1803.56 1963.5 1803.92 1963.8 1804.18 1964.11 1804.33 1964.42 1804.47 1964.78 1804.55 1965.18 1804.55 1965.91 1804.55 1966.62 1804.27 1967.31 1803.7 1968 1803.13 1968.99 1801.85 1970.29 1799.85L1972.92 1801.59C1971.03 1804.4 1969.32 1806.38 1967.8 1807.53 1966.27 1808.68 1964.45 1809.25 1962.35 1809.25 1961.19 1809.25 1960.2 1809.04 1959.39 1808.62 1958.58 1808.2 1957.88 1807.53 1957.28 1806.62 1956.69 1805.7 1956.16 1804.27 1955.7 1802.32 1954.86 1798.86 1954.35 1796.21 1954.16 1794.38L1953.76 1794.38C1950.89 1798.4 1948.76 1801.29 1947.37 1803.05 1945.98 1804.81 1944.83 1806.1 1943.93 1806.94 1943.02 1807.78 1942.14 1808.37 1941.29 1808.7 1940.44 1809.04 1939.31 1809.21 1937.91 1809.21 1936.64 1809.21 1935.6 1809.05 1934.79 1808.72L1936.41 1801.39 1939.25 1801.39C1939.41 1802.52 1939.88 1803.09 1940.67 1803.09 1941.04 1803.09 1941.44 1802.99 1941.86 1802.79 1942.28 1802.58 1942.88 1802.1 1943.66 1801.33 1944.45 1800.56 1945.53 1799.35 1946.91 1797.7 1948.28 1796.05 1950.28 1793.58 1952.9 1790.28 1952.5 1788.15 1952.08 1786.1 1951.65 1784.12 1951.22 1782.15 1950.77 1780.31 1950.31 1778.61 1949.85 1776.91 1949.47 1775.8 1949.18 1775.27 1948.88 1774.74 1948.56 1774.38 1948.22 1774.17 1947.89 1773.97 1947.46 1773.87 1946.95 1773.87 1946.38 1773.87 1945.87 1774 1945.41 1774.26 1944.95 1774.51 1944.45 1774.96 1943.91 1775.59 1943.37 1776.23 1942.65 1777.22 1941.76 1778.57L1939.12 1776.83C1940.83 1774.26 1942.46 1772.34 1944.03 1771.07 1945.6 1769.8 1947.45 1769.17 1949.58 1769.17Z" fill-rule="evenodd"/><text fill="#000000" fill-opacity="0" font-family="Arial,Arial_MSFontService,sans-serif" font-size="40.0815" x="1934.79" y="1804.24">ğ‘¥</text><path d="M502.652 1168.88C503.76 1168.88 504.706 1169.03 505.489 1169.33 506.03 1169.54 506.57 1169.9 507.11 1170.4 507.651 1170.9 508.13 1171.6 508.549 1172.49 508.968 1173.38 509.333 1174.38 509.643 1175.49 509.954 1176.59 510.299 1178.19 510.677 1180.27 511.325 1183.75 511.953 1187.42 512.561 1191.27 513.169 1195.12 513.689 1198.7 514.122 1201.99 516.742 1198.21 518.965 1194.51 520.788 1190.89 522.612 1187.27 523.922 1184.12 524.72 1181.44 525.517 1178.77 525.915 1176.59 525.915 1174.92 525.915 1173.65 525.645 1172.78 525.105 1172.33 524.564 1171.87 523.646 1171.6 522.349 1171.51L522.754 1169.53 533.413 1169.53 534.507 1171.56C532.453 1177.18 529.671 1183.19 526.158 1189.59 522.7 1195.86 518.742 1202.1 514.284 1208.31 510.015 1214.23 506.462 1218.51 503.625 1221.16 501.653 1222.97 499.748 1224.27 497.911 1225.05 496.452 1225.65 494.898 1225.94 493.25 1225.94 492.683 1225.94 492.027 1225.9 491.284 1225.8 490.541 1225.71 489.967 1225.58 489.562 1225.42L491.305 1217.55 494.506 1217.55C494.506 1219.28 495.101 1220.15 496.29 1220.15 497.857 1220.15 499.68 1219.17 501.761 1217.21 503.841 1215.25 506.286 1212.3 509.096 1208.35 508.313 1203.63 507.246 1197.93 505.895 1191.25 504.463 1184.12 503.517 1179.7 503.058 1178 502.49 1175.95 501.896 1174.64 501.274 1174.07 500.896 1173.72 500.423 1173.54 499.856 1173.54 498.991 1173.54 498.181 1173.89 497.424 1174.59 496.668 1175.3 495.736 1176.51 494.628 1178.24L491.994 1176.5C493.858 1173.72 495.601 1171.75 497.222 1170.6 498.843 1169.45 500.653 1168.88 502.652 1168.88Z" fill-rule="evenodd"/><text fill="#000000" fill-opacity="0" font-family="Arial,Arial_MSFontService,sans-serif" font-size="57.0625" x="489.562" y="1218.81">ğ‘¦</text><path d="M568.919 1149.71 570.014 1152.83C563.691 1154.91 559.01 1158.97 555.971 1165.01 552.931 1171.05 551.412 1178.63 551.412 1187.77 551.412 1197.22 552.931 1205.02 555.971 1211.15 559.01 1217.28 563.651 1221.39 569.892 1223.47L568.919 1226.59C561.003 1224.51 554.938 1220.03 550.723 1213.16 546.508 1206.28 544.4 1197.95 544.4 1188.17 544.4 1178.42 546.515 1170.09 550.743 1163.19 554.971 1156.28 561.03 1151.79 568.919 1149.71Z" fill-rule="evenodd"/><text fill="#000000" fill-opacity="0" font-family="Arial,Arial_MSFontService,sans-serif" font-size="76.8804" x="544.4" y="1216.98">(</text><path d="M587.489 1168.84C588.326 1168.84 589.063 1168.93 589.698 1169.12 590.332 1169.31 590.893 1169.6 591.379 1169.99 591.866 1170.39 592.298 1170.89 592.676 1171.51 593.055 1172.14 593.419 1172.98 593.771 1174.05 594.122 1175.11 594.453 1176.44 594.763 1178.02 595.074 1179.6 595.351 1181.24 595.594 1182.94L596 1182.94C598.593 1179.3 600.559 1176.63 601.896 1174.94 603.234 1173.25 604.362 1171.99 605.28 1171.17 606.199 1170.35 607.084 1169.77 607.935 1169.43 608.786 1169.09 609.914 1168.92 611.319 1168.92 612.589 1168.92 613.629 1169.08 614.439 1169.41L612.818 1176.74 609.981 1176.74C609.819 1175.61 609.346 1175.04 608.563 1175.04 608.32 1175.04 608.063 1175.08 607.793 1175.16 607.523 1175.24 607.192 1175.42 606.8 1175.69 606.408 1175.96 605.834 1176.49 605.078 1177.27 604.321 1178.05 603.47 1179.01 602.524 1180.15 601.579 1181.28 600.606 1182.47 599.606 1183.71L596.851 1187.16C597.337 1189.75 597.796 1191.99 598.229 1193.89 598.661 1195.78 599.046 1197.35 599.384 1198.61 599.721 1199.86 600.018 1200.86 600.275 1201.59 600.532 1202.32 600.809 1202.86 601.106 1203.23 601.403 1203.59 601.707 1203.85 602.018 1204 602.329 1204.15 602.687 1204.22 603.092 1204.22 603.821 1204.22 604.531 1203.94 605.219 1203.37 605.908 1202.8 606.901 1201.52 608.198 1199.52L610.833 1201.26C608.941 1204.07 607.232 1206.05 605.706 1207.2 604.179 1208.35 602.362 1208.92 600.255 1208.92 599.093 1208.92 598.107 1208.71 597.296 1208.29 596.486 1207.87 595.783 1207.21 595.189 1206.29 594.595 1205.37 594.068 1203.94 593.608 1201.99 592.771 1198.53 592.258 1195.89 592.068 1194.05L591.663 1194.05C588.799 1198.07 586.671 1200.96 585.28 1202.72 583.889 1204.48 582.74 1205.77 581.835 1206.61 580.93 1207.45 580.052 1208.04 579.201 1208.37 578.35 1208.71 577.222 1208.88 575.817 1208.88 574.547 1208.88 573.507 1208.72 572.696 1208.39L574.317 1201.06 577.154 1201.06C577.316 1202.19 577.789 1202.76 578.573 1202.76 578.951 1202.76 579.35 1202.66 579.768 1202.46 580.187 1202.25 580.788 1201.77 581.572 1201 582.355 1200.23 583.436 1199.02 584.814 1197.37 586.192 1195.72 588.191 1193.25 590.812 1189.95 590.407 1187.82 589.988 1185.77 589.556 1183.79 589.123 1181.82 588.678 1179.98 588.218 1178.28 587.759 1176.58 587.381 1175.47 587.083 1174.94 586.786 1174.41 586.469 1174.05 586.131 1173.85 585.793 1173.64 585.368 1173.54 584.854 1173.54 584.287 1173.54 583.774 1173.67 583.314 1173.93 582.855 1174.18 582.355 1174.63 581.815 1175.26 581.275 1175.9 580.559 1176.89 579.667 1178.24L577.033 1176.5C578.735 1173.93 580.369 1172.01 581.937 1170.74 583.504 1169.47 585.354 1168.84 587.489 1168.84Z" fill-rule="evenodd"/><text fill="#000000" fill-opacity="0" font-family="Arial,Arial_MSFontService,sans-serif" font-size="40.0815" x="572.696" y="1203.91">ğ‘¥</text><path d="M620.727 1149.71C628.617 1151.79 634.675 1156.28 638.904 1163.19 643.132 1170.09 645.246 1178.42 645.246 1188.17 645.246 1197.95 643.139 1206.28 638.924 1213.16 634.709 1220.03 628.644 1224.51 620.727 1226.59L619.755 1223.47C625.996 1221.39 630.636 1217.28 633.676 1211.15 636.715 1205.02 638.235 1197.22 638.235 1187.77 638.235 1178.63 636.722 1171.05 633.696 1165.01 630.67 1158.97 625.982 1154.91 619.633 1152.83Z" fill-rule="evenodd"/><text fill="#000000" fill-opacity="0" font-family="Arial,Arial_MSFontService,sans-serif" font-size="76.8804" x="619.633" y="1216.98">)</text><path d="M505.5 1648.5C547.208 1639.92 588.915 1631.34 627.612 1612.46 666.31 1593.58 700.994 1562.97 737.685 1535.23 774.376 1507.48 810.78 1471.73 847.758 1445.98 884.736 1420.24 922.573 1394.5 959.551 1380.77 996.528 1367.04 1032.65 1362.75 1069.62 1363.6 1106.6 1364.46 1144.44 1371.9 1181.42 1385.92 1218.39 1399.93 1255.08 1422.24 1291.49 1447.7 1327.89 1473.16 1363.15 1514.06 1399.84 1538.66 1436.53 1563.26 1474.66 1591.29 1511.63 1595.3 1548.61 1599.3 1584.73 1574.7 1621.71 1562.69 1658.69 1550.67 1696.09 1536.94 1733.5 1523.21" stroke="#006F7F" stroke-width="11.4583" stroke-miterlimit="8" fill="none" fill-rule="evenodd"/><path d="M2235.5 1779.21 3628.73 1779.21 3628.73 1783.79 2235.5 1783.79ZM3624.14 1767.75 3651.64 1781.5 3624.14 1795.25Z"/><path d="M2.29167-1.55262e-06 2.29201 509.76-2.29132 509.76-2.29167 1.55262e-06ZM13.7503 505.177 0.000360892 532.677-13.7497 505.177Z" transform="matrix(1 0 0 -1 2290.5 1813.18)"/><path d="M3732.9 1767.98C3733.73 1767.98 3734.47 1768.07 3735.1 1768.26 3735.74 1768.45 3736.3 1768.74 3736.79 1769.13 3737.27 1769.52 3737.71 1770.03 3738.08 1770.65 3738.46 1771.27 3738.83 1772.12 3739.18 1773.18 3739.53 1774.25 3739.86 1775.58 3740.17 1777.16 3740.48 1778.74 3740.76 1780.38 3741 1782.08L3741.41 1782.08C3744 1778.43 3745.97 1775.76 3747.3 1774.08 3748.64 1772.39 3749.77 1771.13 3750.69 1770.31 3751.61 1769.48 3752.49 1768.9 3753.34 1768.56 3754.19 1768.23 3755.32 1768.06 3756.73 1768.06 3758 1768.06 3759.04 1768.22 3759.85 1768.54L3758.23 1775.88 3755.39 1775.88C3755.23 1774.74 3754.75 1774.18 3753.97 1774.18 3753.73 1774.18 3753.47 1774.22 3753.2 1774.3 3752.93 1774.38 3752.6 1774.56 3752.21 1774.83 3751.82 1775.1 3751.24 1775.62 3750.48 1776.41 3749.73 1777.19 3748.88 1778.15 3747.93 1779.28 3746.99 1780.42 3746.01 1781.61 3745.01 1782.85L3742.26 1786.3C3742.74 1788.89 3743.2 1791.13 3743.64 1793.02 3744.07 1794.91 3744.45 1796.49 3744.79 1797.74 3745.13 1799 3745.43 1799.99 3745.68 1800.72 3745.94 1801.45 3746.22 1802 3746.51 1802.36 3746.81 1802.73 3747.11 1802.99 3747.42 1803.13 3747.74 1803.28 3748.09 1803.36 3748.5 1803.36 3749.23 1803.36 3749.94 1803.07 3750.63 1802.51 3751.32 1801.94 3752.31 1800.66 3753.61 1798.66L3756.24 1800.4C3754.35 1803.21 3752.64 1805.19 3751.11 1806.34 3749.59 1807.48 3747.77 1808.06 3745.66 1808.06 3744.5 1808.06 3743.51 1807.85 3742.7 1807.43 3741.89 1807.01 3741.19 1806.34 3740.6 1805.42 3740 1804.51 3739.47 1803.07 3739.02 1801.13 3738.18 1797.67 3737.66 1795.02 3737.48 1793.18L3737.07 1793.18C3734.21 1797.21 3732.08 1800.1 3730.69 1801.86 3729.3 1803.61 3728.15 1804.91 3727.24 1805.75 3726.34 1806.59 3725.46 1807.17 3724.61 1807.51 3723.76 1807.85 3722.63 1808.02 3721.22 1808.02 3719.95 1808.02 3718.91 1807.86 3718.1 1807.53L3719.72 1800.2 3722.56 1800.2C3722.72 1801.33 3723.2 1801.9 3723.98 1801.9 3724.36 1801.9 3724.76 1801.8 3725.18 1801.59 3725.59 1801.39 3726.2 1800.91 3726.98 1800.14 3727.76 1799.37 3728.84 1798.16 3730.22 1796.51 3731.6 1794.86 3733.6 1792.39 3736.22 1789.09 3735.81 1786.96 3735.4 1784.9 3734.96 1782.93 3734.53 1780.96 3734.08 1779.12 3733.63 1777.42 3733.17 1775.72 3732.79 1774.6 3732.49 1774.08 3732.19 1773.55 3731.88 1773.18 3731.54 1772.98 3731.2 1772.78 3730.77 1772.68 3730.26 1772.68 3729.69 1772.68 3729.18 1772.81 3728.72 1773.06 3728.26 1773.32 3727.76 1773.77 3727.22 1774.4 3726.68 1775.04 3725.97 1776.03 3725.07 1777.38L3722.44 1775.64C3724.14 1773.07 3725.78 1771.15 3727.34 1769.88 3728.91 1768.61 3730.76 1767.98 3732.9 1767.98Z" fill-rule="evenodd"/><text fill="#000000" fill-opacity="0" font-family="Arial,Arial_MSFontService,sans-serif" font-size="40.0815" x="3718.1" y="1803.05">ğ‘¥</text><path d="M2285.21 1167.69C2286.32 1167.69 2287.26 1167.84 2288.05 1168.13 2288.59 1168.35 2289.13 1168.71 2289.67 1169.21 2290.21 1169.71 2290.69 1170.4 2291.11 1171.3 2291.53 1172.19 2291.89 1173.19 2292.2 1174.29 2292.51 1175.4 2292.86 1177 2293.24 1179.08 2293.88 1182.56 2294.51 1186.23 2295.12 1190.08 2295.73 1193.93 2296.25 1197.5 2296.68 1200.8 2299.3 1197.02 2301.52 1193.32 2303.35 1189.69 2305.17 1186.07 2306.48 1182.93 2307.28 1180.25 2308.07 1177.58 2308.47 1175.4 2308.47 1173.73 2308.47 1172.46 2308.2 1171.59 2307.66 1171.13 2307.12 1170.67 2306.2 1170.4 2304.91 1170.32L2305.31 1168.34 2315.97 1168.34 2317.07 1170.36C2315.01 1175.98 2312.23 1181.99 2308.72 1188.4 2305.26 1194.67 2301.3 1200.91 2296.84 1207.12 2292.57 1213.04 2289.02 1217.32 2286.18 1219.97 2284.21 1221.78 2282.31 1223.08 2280.47 1223.86 2279.01 1224.45 2277.46 1224.75 2275.81 1224.75 2275.24 1224.75 2274.59 1224.7 2273.84 1224.61 2273.1 1224.51 2272.53 1224.39 2272.12 1224.22L2273.86 1216.36 2277.06 1216.36C2277.06 1218.09 2277.66 1218.96 2278.85 1218.96 2280.42 1218.96 2282.24 1217.98 2284.32 1216.02 2286.4 1214.06 2288.84 1211.11 2291.65 1207.16 2290.87 1202.43 2289.8 1196.73 2288.45 1190.06 2287.02 1182.93 2286.08 1178.51 2285.62 1176.81 2285.05 1174.75 2284.45 1173.44 2283.83 1172.88 2283.45 1172.52 2282.98 1172.35 2282.41 1172.35 2281.55 1172.35 2280.74 1172.7 2279.98 1173.4 2279.23 1174.11 2278.29 1175.32 2277.19 1177.05L2274.55 1175.31C2276.42 1172.52 2278.16 1170.56 2279.78 1169.41 2281.4 1168.26 2283.21 1167.69 2285.21 1167.69Z" fill-rule="evenodd"/><text fill="#000000" fill-opacity="0" font-family="Arial,Arial_MSFontService,sans-serif" font-size="57.0625" x="2272.12" y="1217.62">ğ‘¦</text><path d="M2.86458-7.65111e-06 2.86494 135.118-2.86422 135.118-2.86458 7.65111e-06ZM-13.75 3.67253e-05C-13.75-7.59388-7.59395-13.75-3.67253e-05-13.75 7.59388-13.75 13.75-7.59395 13.75-3.67253e-05 13.75 7.59388 7.59395 13.75 3.67253e-05 13.75-7.59388 13.75-13.75 7.59395-13.75 3.67253e-05Z" transform="matrix(-1 0 0 1 2291 1647)"/><path d="M2409.86 1613 2409.86 1781.9 2404.14 1781.9 2404.14 1613ZM2393.25 1613C2393.25 1605.41 2399.41 1599.25 2407 1599.25 2414.59 1599.25 2420.75 1605.41 2420.75 1613 2420.75 1620.59 2414.59 1626.75 2407 1626.75 2399.41 1626.75 2393.25 1620.59 2393.25 1613Z"/><path d="M2520.86 1535 2520.86 1781.85 2515.14 1781.85 2515.14 1535ZM2504.25 1535C2504.25 1527.41 2510.41 1521.25 2518 1521.25 2525.59 1521.25 2531.75 1527.41 2531.75 1535 2531.75 1542.59 2525.59 1548.75 2518 1548.75 2510.41 1548.75 2504.25 1542.59 2504.25 1535Z"/><path d="M2631.86 1444 2631.86 1781.8 2626.14 1781.8 2626.14 1444ZM2615.25 1444C2615.25 1436.41 2621.41 1430.25 2629 1430.25 2636.59 1430.25 2642.75 1436.41 2642.75 1444 2642.75 1451.59 2636.59 1457.75 2629 1457.75 2621.41 1457.75 2615.25 1451.59 2615.25 1444Z"/><path d="M2741.86 1384 2741.86 1781.84 2736.14 1781.84 2736.14 1384ZM2725.25 1384C2725.25 1376.41 2731.41 1370.25 2739 1370.25 2746.59 1370.25 2752.75 1376.41 2752.75 1384 2752.75 1391.59 2746.59 1397.75 2739 1397.75 2731.41 1397.75 2725.25 1391.59 2725.25 1384Z"/><path d="M2.86458-2.47046e-06 2.86494 418.467-2.86422 418.467-2.86458 2.47046e-06ZM-13.75 1.18582e-05C-13.75-7.5939-7.59393-13.75-1.18582e-05-13.75 7.5939-13.75 13.75-7.59393 13.75-1.18582e-05 13.75 7.5939 7.59393 13.75 1.18582e-05 13.75-7.5939 13.75-13.75 7.59393-13.75 1.18582e-05Z" transform="matrix(-1 0 0 1 2850 1363)"/><path d="M2963.86 1384 2963.86 1779.24 2958.14 1779.24 2958.14 1384ZM2947.25 1384C2947.25 1376.41 2953.41 1370.25 2961 1370.25 2968.59 1370.25 2974.75 1376.41 2974.75 1384 2974.75 1391.59 2968.59 1397.75 2961 1397.75 2953.41 1397.75 2947.25 1391.59 2947.25 1384Z"/><path d="M3073.86 1444 3073.86 1781.8 3068.14 1781.8 3068.14 1444ZM3057.25 1444C3057.25 1436.41 3063.41 1430.25 3071 1430.25 3078.59 1430.25 3084.75 1436.41 3084.75 1444 3084.75 1451.59 3078.59 1457.75 3071 1457.75 3063.41 1457.75 3057.25 1451.59 3057.25 1444Z"/><path d="M3184.86 1535 3184.86 1781.85 3179.14 1781.85 3179.14 1535ZM3168.25 1535C3168.25 1527.41 3174.41 1521.25 3182 1521.25 3189.59 1521.25 3195.75 1527.41 3195.75 1535 3195.75 1542.59 3189.59 1548.75 3182 1548.75 3174.41 1548.75 3168.25 1542.59 3168.25 1535Z"/><path d="M3294.86 1592 3294.86 1781.87 3289.14 1781.87 3289.14 1592ZM3278.25 1592C3278.25 1584.41 3284.41 1578.25 3292 1578.25 3299.59 1578.25 3305.75 1584.41 3305.75 1592 3305.75 1599.59 3299.59 1605.75 3292 1605.75 3284.41 1605.75 3278.25 1599.59 3278.25 1592Z"/><path d="M3405.86 1561 3405.87 1781.87 3400.14 1781.87 3400.14 1561ZM3389.25 1561C3389.25 1553.41 3395.41 1547.25 3403 1547.25 3410.59 1547.25 3416.75 1553.41 3416.75 1561 3416.75 1568.59 3410.59 1574.75 3403 1574.75 3395.41 1574.75 3389.25 1568.59 3389.25 1561Z"/><path d="M3516.86 1522 3516.87 1782.34 3511.14 1782.34 3511.14 1522ZM3500.25 1522C3500.25 1514.41 3506.41 1508.25 3514 1508.25 3521.59 1508.25 3527.75 1514.41 3527.75 1522 3527.75 1529.59 3521.59 1535.75 3514 1535.75 3506.41 1535.75 3500.25 1529.59 3500.25 1522Z"/><path d="M2768.42 1862.29 2829.98 1862.52 2829.97 1867.1 2768.41 1866.88ZM2772.95 1878.35 2745.5 1864.5 2773.05 1850.85ZM2825.44 1851.04 2852.89 1864.89 2825.34 1878.54Z"/><path d="M2781.97 1934.72 2766.53 1975.25 2794.73 1975.25ZM2780.55 1925.77 2786.55 1925.77 2803.65 1979.14 2803.65 1981.74 2759.35 1981.74 2759.35 1979.14Z" fill-rule="evenodd"/><text fill="#000000" fill-opacity="0" font-family="Arial,Arial_MSFontService,sans-serif" font-size="55.9683" x="2759.35" y="1974.74">âˆ†</text><path d="M2822.57 1942.3C2823.4 1942.3 2824.14 1942.4 2824.77 1942.59 2825.41 1942.78 2825.97 1943.07 2826.46 1943.46 2826.94 1943.85 2827.38 1944.36 2827.75 1944.98 2828.13 1945.6 2828.5 1946.44 2828.85 1947.51 2829.2 1948.58 2829.53 1949.9 2829.84 1951.48 2830.15 1953.06 2830.43 1954.7 2830.67 1956.41L2831.08 1956.41C2833.67 1952.76 2835.64 1950.09 2836.97 1948.4 2838.31 1946.71 2839.44 1945.46 2840.36 1944.63 2841.28 1943.81 2842.16 1943.23 2843.01 1942.89 2843.86 1942.55 2844.99 1942.38 2846.4 1942.38 2847.67 1942.38 2848.71 1942.55 2849.52 1942.87L2847.9 1950.21 2845.06 1950.21C2844.9 1949.07 2844.42 1948.5 2843.64 1948.5 2843.4 1948.5 2843.14 1948.54 2842.87 1948.62 2842.6 1948.71 2842.27 1948.88 2841.88 1949.15 2841.49 1949.42 2840.91 1949.95 2840.16 1950.73 2839.4 1951.52 2838.55 1952.48 2837.6 1953.61 2836.66 1954.74 2835.68 1955.93 2834.68 1957.18L2831.93 1960.62C2832.41 1963.21 2832.87 1965.46 2833.31 1967.35 2833.74 1969.24 2834.12 1970.81 2834.46 1972.07 2834.8 1973.33 2835.1 1974.32 2835.35 1975.05 2835.61 1975.78 2835.89 1976.33 2836.18 1976.69 2836.48 1977.05 2836.78 1977.31 2837.1 1977.46 2837.41 1977.61 2837.76 1977.68 2838.17 1977.68 2838.9 1977.68 2839.61 1977.4 2840.3 1976.83 2840.99 1976.26 2841.98 1974.98 2843.28 1972.98L2845.91 1974.72C2844.02 1977.53 2842.31 1979.51 2840.78 1980.66 2839.26 1981.81 2837.44 1982.38 2835.33 1982.38 2834.17 1982.38 2833.18 1982.17 2832.37 1981.76 2831.56 1981.34 2830.86 1980.67 2830.27 1979.75 2829.67 1978.83 2829.15 1977.4 2828.69 1975.45 2827.85 1972 2827.33 1969.35 2827.15 1967.51L2826.74 1967.51C2823.88 1971.54 2821.75 1974.43 2820.36 1976.18 2818.97 1977.94 2817.82 1979.24 2816.91 1980.07 2816.01 1980.91 2815.13 1981.5 2814.28 1981.84 2813.43 1982.17 2812.3 1982.34 2810.89 1982.34 2809.62 1982.34 2808.58 1982.18 2807.77 1981.86L2809.39 1974.52 2812.23 1974.52C2812.39 1975.66 2812.87 1976.22 2813.65 1976.22 2814.03 1976.22 2814.43 1976.12 2814.85 1975.92 2815.26 1975.72 2815.87 1975.23 2816.65 1974.46 2817.43 1973.69 2818.51 1972.48 2819.89 1970.83 2821.27 1969.19 2823.27 1966.71 2825.89 1963.42 2825.48 1961.28 2825.07 1959.23 2824.63 1957.26 2824.2 1955.29 2823.75 1953.45 2823.3 1951.75 2822.84 1950.04 2822.46 1948.93 2822.16 1948.4 2821.86 1947.88 2821.55 1947.51 2821.21 1947.31 2820.87 1947.11 2820.45 1947 2819.93 1947 2819.36 1947 2818.85 1947.13 2818.39 1947.39 2817.93 1947.65 2817.43 1948.09 2816.89 1948.73 2816.35 1949.36 2815.64 1950.35 2814.74 1951.71L2812.11 1949.96C2813.81 1947.4 2815.45 1945.48 2817.01 1944.21 2818.58 1942.94 2820.43 1942.3 2822.57 1942.3Z" fill-rule="evenodd"/><text fill="#000000" fill-opacity="0" font-family="Arial,Arial_MSFontService,sans-serif" font-size="40.0815" x="2807.77" y="1977.37">ğ‘¥</text><path d="M2290.5 1646.5 2407.41 1613.83 2518.31 1535.59 2629.2 1444.46 2739.24 1385.99 2850.13 1364.5 2961.89 1385.13 3071.92 1444.46 3182.82 1535.59 3293.71 1593.2 3404.6 1562.24 3515.5 1522.7" stroke="#006F7F" stroke-width="11.4583" stroke-miterlimit="8" fill="none" fill-rule="evenodd"/><path d="M3227.98 1477.65C3229.09 1477.65 3230.03 1477.8 3230.82 1478.1 3231.36 1478.31 3231.9 1478.67 3232.44 1479.17 3232.98 1479.67 3233.46 1480.37 3233.88 1481.26 3234.3 1482.15 3234.66 1483.15 3234.97 1484.26 3235.28 1485.37 3235.63 1486.96 3236 1489.04 3236.65 1492.53 3237.28 1496.19 3237.89 1500.04 3238.5 1503.89 3239.02 1507.47 3239.45 1510.76 3242.07 1506.98 3244.29 1503.28 3246.12 1499.66 3247.94 1496.04 3249.25 1492.89 3250.05 1490.22 3250.84 1487.54 3251.24 1485.37 3251.24 1483.69 3251.24 1482.42 3250.97 1481.56 3250.43 1481.1 3249.89 1480.64 3248.97 1480.37 3247.68 1480.29L3248.08 1478.3 3258.74 1478.3 3259.83 1480.33C3257.78 1485.95 3255 1491.96 3251.49 1498.36 3248.03 1504.63 3244.07 1510.87 3239.61 1517.08 3235.34 1523 3231.79 1527.28 3228.95 1529.93 3226.98 1531.74 3225.08 1533.04 3223.24 1533.82 3221.78 1534.42 3220.23 1534.71 3218.58 1534.71 3218.01 1534.71 3217.36 1534.67 3216.61 1534.57 3215.87 1534.48 3215.3 1534.35 3214.89 1534.19L3216.63 1526.33 3219.83 1526.33C3219.83 1528.05 3220.43 1528.92 3221.62 1528.92 3223.18 1528.92 3225.01 1527.94 3227.09 1525.98 3229.17 1524.02 3231.61 1521.07 3234.42 1517.13 3233.64 1512.4 3232.57 1506.7 3231.22 1500.02 3229.79 1492.89 3228.84 1488.47 3228.39 1486.77 3227.82 1484.72 3227.22 1483.41 3226.6 1482.84 3226.22 1482.49 3225.75 1482.31 3225.18 1482.31 3224.32 1482.31 3223.51 1482.66 3222.75 1483.37 3222 1484.07 3221.06 1485.28 3219.96 1487.01L3217.32 1485.27C3219.19 1482.49 3220.93 1480.52 3222.55 1479.37 3224.17 1478.23 3225.98 1477.65 3227.98 1477.65Z" fill="#E10362" fill-rule="evenodd"/><text fill="#000000" fill-opacity="0" font-family="Arial,Arial_MSFontService,sans-serif" font-size="57.0625" x="3214.89" y="1527.58">ğ‘¦</text><path d="M3272.81 1503.78 3274.27 1503.78 3269.86 1523.61C3269.58 1524.78 3269.39 1525.72 3269.28 1526.41 3269.17 1527.11 3269.12 1527.73 3269.12 1528.29 3269.12 1529.04 3269.27 1529.59 3269.58 1529.93 3269.89 1530.26 3270.35 1530.43 3270.97 1530.43 3271.32 1530.43 3271.68 1530.36 3272.04 1530.22 3272.39 1530.09 3272.78 1529.87 3273.18 1529.57 3273.59 1529.27 3274.04 1528.89 3274.52 1528.42 3275.01 1527.96 3275.55 1527.39 3276.15 1526.74L3278.17 1528.71C3277.14 1529.76 3276.2 1530.65 3275.36 1531.37 3274.51 1532.1 3273.72 1532.69 3272.96 1533.14 3272.21 1533.6 3271.47 1533.93 3270.74 1534.13 3270.02 1534.32 3269.25 1534.42 3268.43 1534.42 3267.68 1534.42 3267 1534.29 3266.39 1534.01 3265.79 1533.73 3265.27 1533.35 3264.83 1532.86 3264.39 1532.37 3264.05 1531.79 3263.82 1531.12 3263.58 1530.44 3263.46 1529.7 3263.46 1528.88 3263.46 1528.23 3263.54 1527.41 3263.7 1526.44 3263.86 1525.47 3264.06 1524.41 3264.31 1523.27 3264.56 1522.13 3264.83 1520.93 3265.13 1519.68 3265.43 1518.43 3265.72 1517.19 3266.01 1515.96 3266.29 1514.73 3266.55 1513.54 3266.78 1512.4 3267.01 1511.26 3267.17 1510.22 3267.27 1509.29 3267.31 1509.13 3267.33 1508.97 3267.33 1508.82 3267.33 1508.67 3267.33 1508.54 3267.33 1508.42 3267.29 1507.65 3267.02 1507.08 3266.51 1506.72 3266.01 1506.37 3265.11 1506.17 3263.82 1506.13L3264.17 1504.1ZM3271.08 1491.77 3277.04 1491.77 3275.58 1498.18 3269.68 1498.18Z" fill="#E10362" fill-rule="evenodd"/><text fill="#000000" fill-opacity="0" font-family="Arial,Arial_MSFontService,sans-serif" font-size="42.6523" x="3263.46" y="1529.09">ğ‘–</text><path d="M3301.55 1498.5 3306.38 1498.5 3306.38 1514.17 3321.12 1514.17 3321.12 1518.73 3306.38 1518.73 3306.38 1534.39 3301.55 1534.39 3301.55 1518.73 3286.81 1518.73 3286.81 1514.17 3301.55 1514.17Z" fill="#E10362" fill-rule="evenodd"/><text fill="#000000" fill-opacity="0" font-family="Arial,Arial_MSFontService,sans-serif" font-size="35.8911" x="3286.81" y="1529.91">+</text><path d="M3345.42 1495.52 3347.24 1495.52C3347.2 1496.62 3347.17 1497.59 3347.15 1498.46 3347.13 1499.32 3347.11 1500.16 3347.1 1500.98 3347.09 1501.79 3347.09 1502.59 3347.09 1503.39L3347.09 1526.02C3347.09 1526.64 3347.11 1527.17 3347.15 1527.62 3347.19 1528.07 3347.25 1528.44 3347.34 1528.75 3347.43 1529.06 3347.55 1529.32 3347.7 1529.54 3347.85 1529.76 3348.02 1529.95 3348.22 1530.11 3348.46 1530.34 3348.78 1530.53 3349.17 1530.66 3349.57 1530.79 3350.08 1530.89 3350.69 1530.98 3351.31 1531.07 3352.05 1531.14 3352.91 1531.19 3353.78 1531.24 3354.81 1531.28 3356.03 1531.3L3356.03 1533.89 3332.41 1533.89 3332.41 1531.3C3333.58 1531.26 3334.57 1531.21 3335.38 1531.16 3336.2 1531.11 3336.89 1531.04 3337.47 1530.95 3338.05 1530.86 3338.51 1530.77 3338.85 1530.66 3339.2 1530.55 3339.5 1530.41 3339.76 1530.25 3340.04 1530.08 3340.28 1529.88 3340.48 1529.67 3340.68 1529.46 3340.83 1529.2 3340.95 1528.88 3341.07 1528.57 3341.17 1528.18 3341.24 1527.72 3341.31 1527.27 3341.34 1526.7 3341.34 1526.02L3341.34 1504.67C3341.34 1503.89 3341.19 1503.35 3340.89 1503.03 3340.6 1502.71 3340.17 1502.55 3339.61 1502.55 3339 1502.55 3338.08 1502.87 3336.87 1503.51 3335.66 1504.14 3334.09 1505.09 3332.17 1506.34 3331.91 1505.88 3331.67 1505.42 3331.45 1504.97 3331.23 1504.51 3331.01 1504.04 3330.77 1503.57 3333.23 1502.22 3335.67 1500.87 3338.08 1499.53 3340.49 1498.19 3342.94 1496.86 3345.42 1495.52Z" fill="#E10362" fill-rule="evenodd"/><text fill="#000000" fill-opacity="0" font-family="Arial,Arial_MSFontService,sans-serif" font-size="38.3633" x="3330.77" y="1529.09">1</text><path d="M3049.72 1809.01C3050.56 1809.01 3051.3 1809.11 3051.93 1809.3 3052.57 1809.49 3053.13 1809.78 3053.61 1810.17 3054.1 1810.56 3054.53 1811.07 3054.91 1811.69 3055.29 1812.31 3055.65 1813.15 3056 1814.22 3056.36 1815.29 3056.69 1816.61 3057 1818.19 3057.31 1819.77 3057.59 1821.41 3057.83 1823.12L3058.23 1823.12C3060.83 1819.47 3062.79 1816.8 3064.13 1815.11 3065.47 1813.42 3066.6 1812.17 3067.51 1811.34 3068.43 1810.52 3069.32 1809.94 3070.17 1809.6 3071.02 1809.26 3072.15 1809.09 3073.55 1809.09 3074.82 1809.09 3075.86 1809.26 3076.67 1809.58L3075.05 1816.92 3072.22 1816.92C3072.05 1815.78 3071.58 1815.21 3070.8 1815.21 3070.55 1815.21 3070.3 1815.25 3070.03 1815.34 3069.76 1815.42 3069.43 1815.59 3069.03 1815.86 3068.64 1816.13 3068.07 1816.66 3067.31 1817.44 3066.56 1818.23 3065.7 1819.19 3064.76 1820.32 3063.81 1821.46 3062.84 1822.64 3061.84 1823.89L3059.08 1827.33C3059.57 1829.93 3060.03 1832.17 3060.46 1834.06 3060.9 1835.95 3061.28 1837.52 3061.62 1838.78 3061.96 1840.04 3062.25 1841.03 3062.51 1841.76 3062.77 1842.49 3063.04 1843.04 3063.34 1843.4 3063.64 1843.77 3063.94 1844.02 3064.25 1844.17 3064.56 1844.32 3064.92 1844.39 3065.33 1844.39 3066.06 1844.39 3066.76 1844.11 3067.45 1843.54 3068.14 1842.98 3069.14 1841.69 3070.43 1839.69L3073.07 1841.44C3071.18 1844.25 3069.47 1846.22 3067.94 1847.37 3066.41 1848.52 3064.6 1849.1 3062.49 1849.1 3061.33 1849.1 3060.34 1848.89 3059.53 1848.47 3058.72 1848.05 3058.02 1847.38 3057.42 1846.46 3056.83 1845.54 3056.3 1844.11 3055.84 1842.16 3055.01 1838.71 3054.49 1836.06 3054.3 1834.22L3053.9 1834.22C3051.03 1838.25 3048.91 1841.14 3047.51 1842.89 3046.12 1844.65 3044.97 1845.95 3044.07 1846.79 3043.16 1847.62 3042.29 1848.21 3041.44 1848.55 3040.58 1848.89 3039.46 1849.05 3038.05 1849.05 3036.78 1849.05 3035.74 1848.89 3034.93 1848.57L3036.55 1841.23 3039.39 1841.23C3039.55 1842.37 3040.02 1842.93 3040.81 1842.93 3041.19 1842.93 3041.58 1842.83 3042 1842.63 3042.42 1842.43 3043.02 1841.94 3043.81 1841.17 3044.59 1840.4 3045.67 1839.19 3047.05 1837.54 3048.43 1835.9 3050.43 1833.42 3053.05 1830.13 3052.64 1827.99 3052.22 1825.94 3051.79 1823.97 3051.36 1822 3050.91 1820.16 3050.45 1818.46 3049.99 1816.75 3049.61 1815.64 3049.32 1815.11 3049.02 1814.59 3048.7 1814.22 3048.37 1814.02 3048.03 1813.82 3047.6 1813.71 3047.09 1813.71 3046.52 1813.71 3046.01 1813.84 3045.55 1814.1 3045.09 1814.36 3044.59 1814.8 3044.05 1815.44 3043.51 1816.07 3042.79 1817.06 3041.9 1818.42L3039.27 1816.67C3040.97 1814.11 3042.6 1812.19 3044.17 1810.92 3045.74 1809.65 3047.59 1809.01 3049.72 1809.01Z" fill="#E10362" fill-rule="evenodd"/><text fill="#000000" fill-opacity="0" font-family="Arial,Arial_MSFontService,sans-serif" font-size="40.0815" x="3034.93" y="1844.08">ğ‘¥</text><path d="M3091.32 1835.18 3092.78 1835.18 3088.38 1855.01C3088.1 1856.19 3087.9 1857.12 3087.79 1857.81 3087.69 1858.51 3087.63 1859.13 3087.63 1859.69 3087.63 1860.45 3087.78 1860.99 3088.09 1861.33 3088.4 1861.67 3088.86 1861.84 3089.48 1861.84 3089.83 1861.84 3090.19 1861.77 3090.55 1861.63 3090.91 1861.49 3091.29 1861.27 3091.7 1860.97 3092.1 1860.67 3092.55 1860.29 3093.04 1859.82 3093.52 1859.36 3094.06 1858.8 3094.66 1858.14L3096.69 1860.11C3095.65 1861.16 3094.71 1862.05 3093.87 1862.77 3093.03 1863.5 3092.23 1864.09 3091.47 1864.55 3090.72 1865 3089.98 1865.33 3089.25 1865.53 3088.53 1865.73 3087.76 1865.83 3086.95 1865.83 3086.19 1865.83 3085.51 1865.69 3084.91 1865.41 3084.3 1865.13 3083.78 1864.75 3083.34 1864.26 3082.91 1863.78 3082.57 1863.2 3082.33 1862.52 3082.09 1861.85 3081.97 1861.1 3081.97 1860.29 3081.97 1859.63 3082.05 1858.82 3082.21 1857.84 3082.37 1856.87 3082.57 1855.81 3082.82 1854.67 3083.07 1853.53 3083.34 1852.33 3083.64 1851.08 3083.94 1849.83 3084.23 1848.59 3084.52 1847.36 3084.81 1846.13 3085.06 1844.94 3085.29 1843.8 3085.52 1842.66 3085.68 1841.62 3085.78 1840.69 3085.82 1840.53 3085.84 1840.38 3085.84 1840.23 3085.84 1840.08 3085.84 1839.94 3085.84 1839.82 3085.8 1839.05 3085.53 1838.48 3085.02 1838.13 3084.52 1837.77 3083.62 1837.57 3082.33 1837.53L3082.69 1835.51ZM3089.6 1823.17 3095.55 1823.17 3094.09 1829.58 3088.2 1829.58Z" fill="#E10362" fill-rule="evenodd"/><text fill="#000000" fill-opacity="0" font-family="Arial,Arial_MSFontService,sans-serif" font-size="42.6523" x="3081.97" y="1860.49">ğ‘–</text><path d="M2850.5 1309.5 3385.29 1678.01" stroke="#E10362" stroke-width="6.875" stroke-miterlimit="8" fill="none" fill-rule="evenodd"/><path d="M0 0 220.424 0.332743" stroke="#E10362" stroke-width="4.58333" stroke-linecap="square" stroke-miterlimit="8" stroke-dasharray="13.75 4.58333" fill="none" fill-rule="evenodd" transform="matrix(1 0 0 -1 2961.5 1384.83)"/><path d="M3182.94 1535.82 3182.5 1386.5" stroke="#E10362" stroke-width="4.58333" stroke-linecap="square" stroke-miterlimit="8" stroke-dasharray="13.75 4.58333" fill="none" fill-rule="evenodd"/><path d="M2930.69 1282.21C2931.79 1282.21 2932.74 1282.36 2933.52 1282.65 2934.06 1282.87 2934.6 1283.23 2935.14 1283.73 2935.69 1284.23 2936.16 1284.92 2936.58 1285.82 2937 1286.71 2937.37 1287.71 2937.68 1288.81 2937.99 1289.92 2938.33 1291.52 2938.71 1293.6 2939.36 1297.08 2939.99 1300.75 2940.6 1304.6 2941.2 1308.45 2941.72 1312.02 2942.16 1315.32 2944.78 1311.54 2947 1307.84 2948.82 1304.21 2950.65 1300.59 2951.96 1297.45 2952.75 1294.77 2953.55 1292.1 2953.95 1289.92 2953.95 1288.25 2953.95 1286.98 2953.68 1286.11 2953.14 1285.65 2952.6 1285.19 2951.68 1284.92 2950.38 1284.84L2950.79 1282.86 2961.45 1282.86 2962.54 1284.88C2960.49 1290.5 2957.71 1296.51 2954.19 1302.92 2950.73 1309.19 2946.78 1315.43 2942.32 1321.64 2938.05 1327.56 2934.5 1331.84 2931.66 1334.49 2929.69 1336.3 2927.78 1337.6 2925.95 1338.38 2924.49 1338.97 2922.93 1339.27 2921.28 1339.27 2920.72 1339.27 2920.06 1339.22 2919.32 1339.13 2918.58 1339.03 2918 1338.91 2917.6 1338.74L2919.34 1330.88 2922.54 1330.88C2922.54 1332.61 2923.14 1333.48 2924.32 1333.48 2925.89 1333.48 2927.71 1332.5 2929.8 1330.54 2931.88 1328.58 2934.32 1325.63 2937.13 1321.68 2936.35 1316.95 2935.28 1311.25 2933.93 1304.58 2932.5 1297.45 2931.55 1293.03 2931.09 1291.33 2930.52 1289.27 2929.93 1287.96 2929.31 1287.4 2928.93 1287.04 2928.46 1286.87 2927.89 1286.87 2927.03 1286.87 2926.22 1287.22 2925.46 1287.92 2924.7 1288.63 2923.77 1289.84 2922.66 1291.57L2920.03 1289.83C2921.89 1287.04 2923.64 1285.08 2925.26 1283.93 2926.88 1282.78 2928.69 1282.21 2930.69 1282.21Z" fill="#E10362" fill-rule="evenodd"/><text fill="#000000" fill-opacity="0" font-family="Arial,Arial_MSFontService,sans-serif" font-size="57.0625" x="2917.6" y="1332.14">ğ‘¦</text><path d="M2975.52 1308.33 2976.98 1308.33 2972.57 1328.17C2972.29 1329.34 2972.1 1330.27 2971.99 1330.97 2971.88 1331.66 2971.82 1332.29 2971.82 1332.85 2971.82 1333.6 2971.98 1334.15 2972.29 1334.48 2972.59 1334.82 2973.06 1334.99 2973.67 1334.99 2974.03 1334.99 2974.39 1334.92 2974.74 1334.78 2975.1 1334.64 2975.48 1334.42 2975.89 1334.13 2976.3 1333.83 2976.74 1333.45 2977.23 1332.98 2977.72 1332.51 2978.26 1331.95 2978.85 1331.3L2980.88 1333.26C2979.85 1334.31 2978.91 1335.2 2978.06 1335.93 2977.22 1336.65 2976.42 1337.24 2975.67 1337.7 2974.91 1338.16 2974.17 1338.48 2973.45 1338.68 2972.72 1338.88 2971.95 1338.98 2971.14 1338.98 2970.39 1338.98 2969.71 1338.84 2969.1 1338.56 2968.49 1338.29 2967.97 1337.9 2967.54 1337.42 2967.1 1336.93 2966.76 1336.35 2966.52 1335.67 2966.28 1335 2966.17 1334.26 2966.17 1333.44 2966.17 1332.79 2966.24 1331.97 2966.4 1331 2966.56 1330.03 2966.77 1328.97 2967.01 1327.83 2967.26 1326.68 2967.54 1325.49 2967.83 1324.24 2968.13 1322.99 2968.42 1321.75 2968.71 1320.51 2969 1319.28 2969.26 1318.1 2969.49 1316.95 2969.71 1315.81 2969.88 1314.78 2969.98 1313.84 2970.02 1313.68 2970.04 1313.53 2970.04 1313.38 2970.04 1313.23 2970.04 1313.1 2970.04 1312.98 2970 1312.2 2969.72 1311.64 2969.22 1311.28 2968.71 1310.92 2967.81 1310.72 2966.52 1310.69L2966.88 1308.66ZM2973.79 1296.33 2979.75 1296.33 2978.29 1302.73 2972.39 1302.73Z" fill="#E10362" fill-rule="evenodd"/><text fill="#000000" fill-opacity="0" font-family="Arial,Arial_MSFontService,sans-serif" font-size="42.6523" x="2966.17" y="1333.65">ğ‘–</text><path d="M2989.52 1318.73 3023.83 1318.73 3023.83 1323.28 2989.52 1323.28Z" fill="#E10362" fill-rule="evenodd"/><text fill="#000000" fill-opacity="0" font-family="Arial,Arial_MSFontService,sans-serif" font-size="4.55713" x="2989.52" y="1322.71">âˆ’</text><path d="M3048.13 1300.08 3049.95 1300.08C3049.91 1301.17 3049.88 1302.15 3049.86 1303.02 3049.84 1303.88 3049.82 1304.72 3049.81 1305.53 3049.8 1306.35 3049.8 1307.15 3049.8 1307.94L3049.8 1330.58C3049.8 1331.2 3049.82 1331.73 3049.86 1332.18 3049.9 1332.62 3049.96 1333 3050.05 1333.31 3050.14 1333.61 3050.26 1333.88 3050.41 1334.1 3050.56 1334.31 3050.73 1334.5 3050.93 1334.66 3051.17 1334.9 3051.48 1335.08 3051.88 1335.21 3052.28 1335.34 3052.78 1335.45 3053.4 1335.54 3054.02 1335.63 3054.76 1335.7 3055.62 1335.75 3056.48 1335.8 3057.52 1335.83 3058.73 1335.85L3058.73 1338.44 3035.11 1338.44 3035.11 1335.85C3036.28 1335.81 3037.28 1335.77 3038.09 1335.72 3038.9 1335.67 3039.6 1335.6 3040.18 1335.51 3040.75 1335.42 3041.21 1335.32 3041.56 1335.21 3041.91 1335.1 3042.21 1334.97 3042.47 1334.81 3042.75 1334.63 3042.99 1334.44 3043.18 1334.23 3043.38 1334.02 3043.54 1333.76 3043.66 1333.44 3043.78 1333.12 3043.87 1332.74 3043.94 1332.28 3044.01 1331.82 3044.05 1331.26 3044.05 1330.58L3044.05 1309.23C3044.05 1308.45 3043.9 1307.91 3043.6 1307.59 3043.3 1307.27 3042.88 1307.11 3042.32 1307.11 3041.7 1307.11 3040.79 1307.43 3039.58 1308.06 3038.37 1308.7 3036.8 1309.64 3034.87 1310.89 3034.62 1310.44 3034.38 1309.98 3034.16 1309.52 3033.94 1309.07 3033.71 1308.6 3033.47 1308.12 3035.94 1306.77 3038.37 1305.43 3040.79 1304.09 3043.2 1302.75 3045.65 1301.41 3048.13 1300.08Z" fill="#E10362" fill-rule="evenodd"/><text fill="#000000" fill-opacity="0" font-family="Arial,Arial_MSFontService,sans-serif" font-size="38.3633" x="3033.47" y="1333.65">1</text><path d="M1046.5 1276.5 1581.29 1645.01" stroke="#E10362" stroke-width="6.875" stroke-miterlimit="8" fill="none" fill-rule="evenodd"/><path d="M0 0 0.000360892 334.559" stroke="#E10362" stroke-width="4.58333" stroke-miterlimit="8" stroke-dasharray="18.3333 13.75" fill="none" fill-rule="evenodd" transform="matrix(-1 0 0 1 1288.5 1447.5)"/><path d="M1283.28 1241.77C1280.52 1241.77 1278.05 1242.89 1275.86 1245.12 1273.67 1247.35 1271.95 1250.35 1270.7 1254.13 1269.44 1257.92 1268.81 1261.69 1268.81 1265.44 1268.81 1268.25 1269.2 1270.35 1269.97 1271.74 1270.74 1273.13 1272.03 1273.83 1273.84 1273.83 1274.67 1273.83 1275.52 1273.65 1276.39 1273.28 1277.25 1272.92 1278.15 1272.33 1279.08 1271.52 1280.02 1270.71 1280.94 1269.72 1281.84 1268.56 1282.75 1267.4 1283.58 1266.23 1284.33 1265.06 1285.09 1263.88 1285.79 1262.49 1286.44 1260.88 1287.09 1259.27 1287.64 1257.34 1288.1 1255.07L1288.47 1253.32C1288.87 1251.38 1289.07 1249.54 1289.07 1247.81 1289.07 1245.7 1288.63 1244.17 1287.74 1243.21 1286.85 1242.25 1285.36 1241.77 1283.28 1241.77ZM1300.26 1220.05 1302.65 1220.05 1292.56 1264.91C1291.97 1267.56 1291.67 1269.56 1291.67 1270.91 1291.67 1271.99 1291.84 1272.78 1292.2 1273.26 1292.55 1273.75 1293.1 1273.99 1293.86 1273.99 1294.67 1273.99 1295.53 1273.66 1296.45 1273 1297.37 1272.34 1298.67 1271.07 1300.34 1269.21L1302.65 1271.48C1300.17 1274.1 1298.07 1275.95 1296.37 1277.03 1294.67 1278.11 1292.83 1278.65 1290.86 1278.65 1289.18 1278.65 1287.85 1278.1 1286.85 1276.99 1285.85 1275.88 1285.35 1274.41 1285.35 1272.57 1285.35 1271.09 1285.66 1269.51 1286.28 1267.83L1285.75 1267.67C1283.16 1271.45 1280.7 1274.22 1278.38 1275.98 1276.05 1277.73 1273.59 1278.61 1271 1278.61 1268.03 1278.61 1265.72 1277.49 1264.09 1275.25 1262.45 1273.01 1261.64 1269.86 1261.64 1265.81 1261.64 1261.16 1262.55 1256.69 1264.37 1252.41 1266.2 1248.13 1268.7 1244.75 1271.89 1242.28 1275.08 1239.81 1278.63 1238.57 1282.55 1238.57 1284.2 1238.57 1285.72 1238.74 1287.11 1239.08 1288.5 1239.42 1289.93 1240 1291.38 1240.84L1293.49 1231.48C1293.71 1230.59 1293.9 1229.6 1294.06 1228.52 1294.22 1227.44 1294.3 1226.49 1294.3 1225.68 1294.3 1224.87 1294.15 1224.26 1293.86 1223.84 1293.56 1223.42 1293.13 1223.12 1292.58 1222.93 1292.03 1222.74 1291.03 1222.6 1289.6 1222.52L1290.09 1220.42Z" fill="#E10362" fill-rule="evenodd"/><text fill="#000000" fill-opacity="0" font-family="Arial,Arial_MSFontService,sans-serif" font-size="58.6025" x="1261.64" y="1271.33">â…†</text><path d="M1320.92 1238.61C1322.03 1238.61 1322.97 1238.76 1323.76 1239.06 1324.3 1239.27 1324.84 1239.63 1325.38 1240.13 1325.92 1240.63 1326.4 1241.33 1326.82 1242.22 1327.24 1243.11 1327.6 1244.11 1327.91 1245.22 1328.22 1246.33 1328.57 1247.92 1328.95 1250 1329.59 1253.49 1330.22 1257.15 1330.83 1261 1331.44 1264.85 1331.96 1268.43 1332.39 1271.72 1335.01 1267.94 1337.23 1264.24 1339.06 1260.62 1340.88 1257 1342.19 1253.85 1342.99 1251.18 1343.78 1248.5 1344.18 1246.33 1344.18 1244.65 1344.18 1243.38 1343.91 1242.52 1343.37 1242.06 1342.83 1241.6 1341.91 1241.33 1340.62 1241.25L1341.02 1239.26 1351.68 1239.26 1352.78 1241.29C1350.72 1246.91 1347.94 1252.92 1344.43 1259.32 1340.97 1265.59 1337.01 1271.83 1332.55 1278.05 1328.28 1283.96 1324.73 1288.24 1321.89 1290.89 1319.92 1292.7 1318.02 1294 1316.18 1294.78 1314.72 1295.38 1313.17 1295.67 1311.52 1295.67 1310.95 1295.67 1310.3 1295.63 1309.55 1295.53 1308.81 1295.44 1308.24 1295.31 1307.83 1295.15L1309.57 1287.29 1312.77 1287.29C1312.77 1289.01 1313.37 1289.88 1314.56 1289.88 1316.12 1289.88 1317.95 1288.9 1320.03 1286.94 1322.11 1284.98 1324.55 1282.03 1327.36 1278.09 1326.58 1273.36 1325.51 1267.66 1324.16 1260.98 1322.73 1253.85 1321.79 1249.43 1321.33 1247.73 1320.76 1245.68 1320.16 1244.37 1319.54 1243.8 1319.16 1243.45 1318.69 1243.27 1318.12 1243.27 1317.26 1243.27 1316.45 1243.62 1315.69 1244.33 1314.94 1245.03 1314 1246.24 1312.9 1247.97L1310.26 1246.23C1312.13 1243.45 1313.87 1241.48 1315.49 1240.33 1317.11 1239.19 1318.92 1238.61 1320.92 1238.61Z" fill="#E10362" fill-rule="evenodd"/><text fill="#000000" fill-opacity="0" font-family="Arial,Arial_MSFontService,sans-serif" font-size="57.0625" x="1307.83" y="1288.54">ğ‘¦</text><path d="M1387.19 1219.44 1388.28 1222.56C1381.96 1224.64 1377.28 1228.7 1374.24 1234.74 1371.2 1240.78 1369.68 1248.37 1369.68 1257.5 1369.68 1266.95 1371.2 1274.75 1374.24 1280.88 1377.28 1287.02 1381.92 1291.12 1388.16 1293.2L1387.19 1296.32C1379.27 1294.24 1373.21 1289.76 1368.99 1282.89 1364.78 1276.01 1362.67 1267.68 1362.67 1257.9 1362.67 1248.15 1364.78 1239.82 1369.01 1232.92 1373.24 1226.02 1379.3 1221.52 1387.19 1219.44Z" fill="#E10362" fill-rule="evenodd"/><text fill="#000000" fill-opacity="0" font-family="Arial,Arial_MSFontService,sans-serif" font-size="76.8804" x="1362.67" y="1286.71">(</text><path d="M1405.76 1238.57C1406.59 1238.57 1407.33 1238.67 1407.97 1238.86 1408.6 1239.04 1409.16 1239.34 1409.65 1239.73 1410.13 1240.12 1410.57 1240.63 1410.94 1241.25 1411.32 1241.87 1411.69 1242.71 1412.04 1243.78 1412.39 1244.85 1412.72 1246.17 1413.03 1247.75 1413.34 1249.33 1413.62 1250.97 1413.86 1252.68L1414.27 1252.68C1416.86 1249.03 1418.83 1246.36 1420.16 1244.67 1421.5 1242.98 1422.63 1241.73 1423.55 1240.9 1424.47 1240.08 1425.35 1239.5 1426.2 1239.16 1427.05 1238.82 1428.18 1238.65 1429.59 1238.65 1430.86 1238.65 1431.9 1238.81 1432.71 1239.14L1431.09 1246.47 1428.25 1246.47C1428.09 1245.34 1427.61 1244.77 1426.83 1244.77 1426.59 1244.77 1426.33 1244.81 1426.06 1244.89 1425.79 1244.98 1425.46 1245.15 1425.07 1245.42 1424.68 1245.69 1424.1 1246.22 1423.35 1247 1422.59 1247.79 1421.74 1248.74 1420.79 1249.88 1419.85 1251.01 1418.87 1252.2 1417.87 1253.45L1415.12 1256.89C1415.61 1259.48 1416.06 1261.73 1416.5 1263.62 1416.93 1265.51 1417.31 1267.08 1417.65 1268.34 1417.99 1269.6 1418.29 1270.59 1418.54 1271.32 1418.8 1272.05 1419.08 1272.59 1419.37 1272.96 1419.67 1273.32 1419.98 1273.58 1420.29 1273.73 1420.6 1273.88 1420.95 1273.95 1421.36 1273.95 1422.09 1273.95 1422.8 1273.67 1423.49 1273.1 1424.18 1272.53 1425.17 1271.25 1426.47 1269.25L1429.1 1270.99C1427.21 1273.8 1425.5 1275.78 1423.97 1276.93 1422.45 1278.08 1420.63 1278.65 1418.52 1278.65 1417.36 1278.65 1416.38 1278.44 1415.56 1278.03 1414.75 1277.61 1414.05 1276.94 1413.46 1276.02 1412.86 1275.1 1412.34 1273.67 1411.88 1271.72 1411.04 1268.26 1410.53 1265.62 1410.34 1263.78L1409.93 1263.78C1407.07 1267.81 1404.94 1270.7 1403.55 1272.45 1402.16 1274.21 1401.01 1275.51 1400.1 1276.34 1399.2 1277.18 1398.32 1277.77 1397.47 1278.11 1396.62 1278.44 1395.49 1278.61 1394.09 1278.61 1392.82 1278.61 1391.78 1278.45 1390.96 1278.13L1392.59 1270.79 1395.42 1270.79C1395.58 1271.93 1396.06 1272.49 1396.84 1272.49 1397.22 1272.49 1397.62 1272.39 1398.04 1272.19 1398.46 1271.99 1399.06 1271.5 1399.84 1270.73 1400.62 1269.96 1401.7 1268.75 1403.08 1267.1 1404.46 1265.45 1406.46 1262.98 1409.08 1259.69 1408.68 1257.55 1408.26 1255.5 1407.82 1253.53 1407.39 1251.55 1406.95 1249.72 1406.49 1248.01 1406.03 1246.31 1405.65 1245.2 1405.35 1244.67 1405.05 1244.14 1404.74 1243.78 1404.4 1243.58 1404.06 1243.37 1403.64 1243.27 1403.12 1243.27 1402.56 1243.27 1402.04 1243.4 1401.58 1243.66 1401.12 1243.91 1400.62 1244.36 1400.08 1245 1399.54 1245.63 1398.83 1246.62 1397.94 1247.97L1395.3 1246.23C1397 1243.66 1398.64 1241.75 1400.2 1240.48 1401.77 1239.21 1403.62 1238.57 1405.76 1238.57Z" fill="#E10362" fill-rule="evenodd"/><text fill="#000000" fill-opacity="0" font-family="Arial,Arial_MSFontService,sans-serif" font-size="40.0815" x="1390.96" y="1273.64">ğ‘¥</text><path d="M1439 1219.44C1446.88 1221.52 1452.94 1226.02 1457.17 1232.92 1461.4 1239.82 1463.51 1248.15 1463.51 1257.9 1463.51 1267.68 1461.41 1276.01 1457.19 1282.89 1452.98 1289.76 1446.91 1294.24 1439 1296.32L1438.02 1293.2C1444.26 1291.12 1448.9 1287.02 1451.94 1280.88 1454.98 1274.75 1456.5 1266.95 1456.5 1257.5 1456.5 1248.37 1454.99 1240.78 1451.96 1234.74 1448.94 1228.7 1444.25 1224.64 1437.9 1222.56Z" fill="#E10362" fill-rule="evenodd"/><text fill="#000000" fill-opacity="0" font-family="Arial,Arial_MSFontService,sans-serif" font-size="76.8804" x="1437.9" y="1286.71">)</text><path d="M1341.56 1359.4C1338.8 1359.4 1336.33 1360.52 1334.14 1362.75 1331.95 1364.98 1330.23 1367.98 1328.97 1371.77 1327.72 1375.55 1327.09 1379.32 1327.09 1383.07 1327.09 1385.88 1327.47 1387.98 1328.24 1389.37 1329.01 1390.77 1330.3 1391.46 1332.11 1391.46 1332.95 1391.46 1333.8 1391.28 1334.67 1390.91 1335.53 1390.55 1336.43 1389.96 1337.36 1389.15 1338.29 1388.34 1339.21 1387.35 1340.12 1386.19 1341.02 1385.03 1341.85 1383.86 1342.61 1382.69 1343.37 1381.51 1344.07 1380.12 1344.72 1378.51 1345.37 1376.91 1345.92 1374.97 1346.38 1372.7L1346.74 1370.95C1347.15 1369.01 1347.35 1367.17 1347.35 1365.44 1347.35 1363.34 1346.91 1361.8 1346.01 1360.84 1345.12 1359.88 1343.64 1359.4 1341.56 1359.4ZM1358.54 1337.68 1360.93 1337.68 1350.84 1382.55C1350.24 1385.19 1349.95 1387.19 1349.95 1388.54 1349.95 1389.62 1350.12 1390.41 1350.47 1390.89 1350.82 1391.38 1351.38 1391.62 1352.13 1391.62 1352.94 1391.62 1353.81 1391.29 1354.73 1390.63 1355.65 1389.97 1356.94 1388.71 1358.62 1386.84L1360.93 1389.11C1358.44 1391.73 1356.35 1393.58 1354.65 1394.66 1352.94 1395.74 1351.11 1396.28 1349.13 1396.28 1347.46 1396.28 1346.12 1395.73 1345.12 1394.62 1344.12 1393.52 1343.62 1392.04 1343.62 1390.21 1343.62 1388.72 1343.93 1387.14 1344.56 1385.46L1344.03 1385.3C1341.43 1389.08 1338.98 1391.85 1336.65 1393.61 1334.33 1395.37 1331.87 1396.24 1329.28 1396.24 1326.3 1396.24 1324 1395.12 1322.37 1392.88 1320.73 1390.64 1319.91 1387.49 1319.91 1383.44 1319.91 1378.79 1320.83 1374.33 1322.65 1370.04 1324.47 1365.76 1326.98 1362.38 1330.17 1359.91 1333.36 1357.44 1336.91 1356.2 1340.83 1356.2 1342.47 1356.2 1343.99 1356.37 1345.39 1356.71 1346.78 1357.05 1348.2 1357.64 1349.66 1358.47L1351.77 1349.11C1351.99 1348.22 1352.17 1347.23 1352.34 1346.15 1352.5 1345.07 1352.58 1344.13 1352.58 1343.32 1352.58 1342.5 1352.43 1341.89 1352.13 1341.47 1351.84 1341.05 1351.41 1340.75 1350.86 1340.56 1350.3 1340.37 1349.31 1340.24 1347.88 1340.15L1348.36 1338.05Z" fill="#E10362" fill-rule="evenodd"/><text fill="#000000" fill-opacity="0" font-family="Arial,Arial_MSFontService,sans-serif" font-size="58.6025" x="1319.91" y="1388.96">â…†</text><path d="M1381.83 1356.2C1382.67 1356.2 1383.41 1356.3 1384.04 1356.49 1384.68 1356.68 1385.24 1356.97 1385.72 1357.36 1386.21 1357.75 1386.64 1358.26 1387.02 1358.88 1387.4 1359.5 1387.76 1360.34 1388.11 1361.41 1388.47 1362.48 1388.8 1363.8 1389.11 1365.38 1389.42 1366.96 1389.69 1368.6 1389.94 1370.31L1390.34 1370.31C1392.94 1366.66 1394.9 1363.99 1396.24 1362.3 1397.58 1360.61 1398.71 1359.36 1399.62 1358.53 1400.54 1357.71 1401.43 1357.13 1402.28 1356.79 1403.13 1356.45 1404.26 1356.28 1405.66 1356.28 1406.93 1356.28 1407.97 1356.45 1408.78 1356.77L1407.16 1364.11 1404.32 1364.11C1404.16 1362.97 1403.69 1362.4 1402.91 1362.4 1402.66 1362.4 1402.41 1362.44 1402.14 1362.53 1401.87 1362.61 1401.54 1362.78 1401.14 1363.05 1400.75 1363.32 1400.18 1363.85 1399.42 1364.63 1398.66 1365.42 1397.81 1366.38 1396.87 1367.51 1395.92 1368.64 1394.95 1369.83 1393.95 1371.08L1391.19 1374.52C1391.68 1377.12 1392.14 1379.36 1392.57 1381.25 1393 1383.14 1393.39 1384.71 1393.73 1385.97 1394.06 1387.23 1394.36 1388.22 1394.62 1388.95 1394.88 1389.68 1395.15 1390.23 1395.45 1390.59 1395.75 1390.96 1396.05 1391.21 1396.36 1391.36 1396.67 1391.51 1397.03 1391.58 1397.44 1391.58 1398.16 1391.58 1398.87 1391.3 1399.56 1390.73 1400.25 1390.16 1401.24 1388.88 1402.54 1386.88L1405.18 1388.62C1403.28 1391.43 1401.58 1393.41 1400.05 1394.56 1398.52 1395.71 1396.71 1396.28 1394.6 1396.28 1393.44 1396.28 1392.45 1396.08 1391.64 1395.66 1390.83 1395.24 1390.13 1394.57 1389.53 1393.65 1388.94 1392.73 1388.41 1391.3 1387.95 1389.35 1387.11 1385.9 1386.6 1383.25 1386.41 1381.41L1386.01 1381.41C1383.14 1385.44 1381.01 1388.33 1379.62 1390.08 1378.23 1391.84 1377.08 1393.14 1376.18 1393.97 1375.27 1394.81 1374.4 1395.4 1373.54 1395.74 1372.69 1396.08 1371.57 1396.24 1370.16 1396.24 1368.89 1396.24 1367.85 1396.08 1367.04 1395.76L1368.66 1388.42 1371.5 1388.42C1371.66 1389.56 1372.13 1390.12 1372.92 1390.12 1373.29 1390.12 1373.69 1390.02 1374.11 1389.82 1374.53 1389.62 1375.13 1389.13 1375.92 1388.36 1376.7 1387.59 1377.78 1386.38 1379.16 1384.73 1380.54 1383.09 1382.53 1380.61 1385.16 1377.32 1384.75 1375.18 1384.33 1373.13 1383.9 1371.16 1383.47 1369.19 1383.02 1367.35 1382.56 1365.65 1382.1 1363.94 1381.72 1362.83 1381.43 1362.3 1381.13 1361.78 1380.81 1361.41 1380.47 1361.21 1380.14 1361.01 1379.71 1360.9 1379.2 1360.9 1378.63 1360.9 1378.12 1361.03 1377.66 1361.29 1377.2 1361.55 1376.7 1361.99 1376.16 1362.63 1375.62 1363.26 1374.9 1364.25 1374.01 1365.61L1371.38 1363.86C1373.08 1361.3 1374.71 1359.38 1376.28 1358.11 1377.85 1356.84 1379.7 1356.2 1381.83 1356.2Z" fill="#E10362" fill-rule="evenodd"/><text fill="#000000" fill-opacity="0" font-family="Arial,Arial_MSFontService,sans-serif" font-size="40.0815" x="1367.04" y="1391.27">ğ‘¥</text><path d="M1257.76 1314.44 1311.01 1314.44 1364.26 1314.44 1417.51 1314.44 1470.76 1314.44 1470.76 1319.44 1417.51 1319.44 1364.26 1319.44 1311.01 1319.44 1257.76 1319.44Z" fill="#E10362" fill-rule="evenodd"/></g></svg>