<?xml version="1.0" encoding="utf-8"?>
<!-- Generator: Adobe Illustrator 26.5.0, SVG Export Plug-In . SVG Version: 6.00 Build 0)  -->
<svg version="1.1" id="Layer_1" xmlns="http://www.w3.org/2000/svg" xmlns:xlink="http://www.w3.org/1999/xlink" x="0px" y="0px"
	 width="400px" height="604.9px" viewBox="0 0 400 604.9" style="enable-background:new 0 0 400 604.9;" xml:space="preserve">
<style type="text/css">
	.st0{fill:#E3E1DC;}
	.st1{fill:#73645D;}
	.st2{fill:none;stroke:#307EB2;stroke-width:7.0699;stroke-miterlimit:10;}
	.st3{fill:#307EB2;}
	.st4{fill:#231F20;}
	.st5{fill:#FFFFFF;}
	.st6{fill:#474747;}
	.st7{fill:#333333;}
</style>
<g>
	<path class="st0" d="M282.7,430c-3.9,0-7-3.2-7-7v-23.6c0-3.9,3.2-7,7-7h102.5c3.9,0,7,3.2,7,7v23.6c0,3.9-3.2,7-7,7H282.7z"/>
	<path class="st1" d="M385.2,392.8c3.6,0,6.6,3,6.6,6.6v23.6c0,3.6-3,6.6-6.6,6.6H282.7c-3.6,0-6.6-3-6.6-6.6v-23.6
		c0-3.6,3-6.6,6.6-6.6H385.2 M385.2,391.9H282.7c-4.1,0-7.4,3.3-7.4,7.4v23.6c0,4.1,3.3,7.4,7.4,7.4h102.5c4.1,0,7.4-3.3,7.4-7.4
		v-23.6C392.7,395.3,389.3,391.9,385.2,391.9L385.2,391.9z"/>
</g>
<g>
	<path class="st0" d="M282.7,473c-3.9,0-7-3.2-7-7v-23.6c0-3.9,3.2-7,7-7h102.5c3.9,0,7,3.2,7,7v23.6c0,3.9-3.2,7-7,7H282.7z"/>
	<path class="st1" d="M385.2,435.8c3.6,0,6.6,3,6.6,6.6v23.6c0,3.6-3,6.6-6.6,6.6H282.7c-3.6,0-6.6-3-6.6-6.6v-23.6
		c0-3.6,3-6.6,6.6-6.6H385.2 M385.2,434.9H282.7c-4.1,0-7.4,3.3-7.4,7.4v23.6c0,4.1,3.3,7.4,7.4,7.4h102.5c4.1,0,7.4-3.3,7.4-7.4
		v-23.6C392.7,438.3,389.3,434.9,385.2,434.9L385.2,434.9z"/>
</g>
<g>
	<path class="st0" d="M282.7,516c-3.9,0-7-3.2-7-7v-23.6c0-3.9,3.2-7,7-7h102.5c3.9,0,7,3.2,7,7V509c0,3.9-3.2,7-7,7H282.7z"/>
	<path class="st1" d="M385.2,478.8c3.6,0,6.6,3,6.6,6.6V509c0,3.6-3,6.6-6.6,6.6H282.7c-3.6,0-6.6-3-6.6-6.6v-23.6
		c0-3.6,3-6.6,6.6-6.6H385.2 M385.2,478H282.7c-4.1,0-7.4,3.3-7.4,7.4V509c0,4.1,3.3,7.4,7.4,7.4h102.5c4.1,0,7.4-3.3,7.4-7.4v-23.6
		C392.7,481.3,389.3,478,385.2,478L385.2,478z"/>
</g>
<g>
	<path class="st0" d="M14.1,343.9c-3.9,0-7-3.2-7-7v-23.6c0-3.9,3.2-7,7-7h102.5c3.9,0,7,3.2,7,7v23.6c0,3.9-3.2,7-7,7H14.1z"/>
	<path class="st1" d="M116.6,306.7c3.6,0,6.6,3,6.6,6.6v23.6c0,3.6-3,6.6-6.6,6.6H14.1c-3.6,0-6.6-3-6.6-6.6v-23.6
		c0-3.6,3-6.6,6.6-6.6H116.6 M116.6,305.9H14.1c-4.1,0-7.4,3.3-7.4,7.4v23.6c0,4.1,3.3,7.4,7.4,7.4h102.5c4.1,0,7.4-3.3,7.4-7.4
		v-23.6C124.1,309.2,120.8,305.9,116.6,305.9L116.6,305.9z"/>
</g>
<g>
	<path class="st0" d="M14.1,386.9c-3.9,0-7-3.2-7-7v-23.6c0-3.9,3.2-7,7-7h102.5c3.9,0,7,3.2,7,7v23.6c0,3.9-3.2,7-7,7H14.1z"/>
	<path class="st1" d="M116.6,349.7c3.6,0,6.6,3,6.6,6.6v23.6c0,3.6-3,6.6-6.6,6.6H14.1c-3.6,0-6.6-3-6.6-6.6v-23.6
		c0-3.6,3-6.6,6.6-6.6H116.6 M116.6,348.9H14.1c-4.1,0-7.4,3.3-7.4,7.4v23.6c0,4.1,3.3,7.4,7.4,7.4h102.5c4.1,0,7.4-3.3,7.4-7.4
		v-23.6C124.1,352.2,120.8,348.9,116.6,348.9L116.6,348.9z"/>
</g>
<line class="st2" x1="334.1" y1="224.3" x2="334.1" y2="153.6"/>
<polyline class="st3" points="323.5,220.8 334.1,231.4 344.7,220.8 "/>
<line class="st2" x1="182.1" y1="225.7" x2="136.4" y2="163.7"/>
<line class="st2" x1="90.6" y1="225.7" x2="136.4" y2="163.7"/>
<line class="st2" x1="285" y1="108.3" x2="239.3" y2="46.3"/>
<line class="st2" x1="193.6" y1="108.3" x2="239.3" y2="46.3"/>
<g>
	<path class="st4" d="M37.5,322.2l5.5,5.8v-5.4h0.9v7.6l-5.5-5.8v5.5h-0.9V322.2z"/>
	<path class="st4" d="M50,329.9h-0.9v-0.7h0c-0.3,0.5-0.9,0.9-1.5,0.9c-1.4,0-2.2-1.2-2.2-2.5c0-1.2,0.8-2.4,2.1-2.4
		c0.7,0,1.2,0.3,1.6,0.9h0v-0.8H50V329.9z M49.1,327.6c0-0.9-0.5-1.6-1.5-1.6c-0.9,0-1.4,0.8-1.4,1.6c0,0.9,0.5,1.7,1.4,1.7
		C48.6,329.2,49.1,328.5,49.1,327.6z"/>
	<path class="st4" d="M52.9,323.2c0,0.3-0.3,0.6-0.6,0.6s-0.6-0.3-0.6-0.6c0-0.3,0.3-0.6,0.6-0.6S52.9,322.9,52.9,323.2z
		 M52.8,329.9h-0.9v-4.5h0.9V329.9z"/>
	<path class="st4" d="M56.3,328.1l1.3-2.8h1l-2.3,4.7l-2.3-4.7h1L56.3,328.1z"/>
	<path class="st4" d="M60.2,327.7c0,0.8,0.5,1.5,1.4,1.5c0.7,0,1-0.3,1.4-0.9l0.7,0.4c-0.4,0.8-1.2,1.2-2.1,1.2
		c-1.4,0-2.2-1-2.2-2.4c0-1.4,0.7-2.4,2.2-2.4c1.4,0,2.1,1.1,2.1,2.4v0.1H60.2z M62.8,327.1c-0.1-0.7-0.6-1.1-1.3-1.1
		c-0.7,0-1.2,0.5-1.3,1.1H62.8z"/>
	<path class="st4" d="M68.4,322.5h0.9c1.4,0,2.7,0.4,2.7,2c0,0.5-0.3,1.2-0.8,1.4v0c0.9,0.2,1.5,1,1.5,1.9c0,1.5-1.3,2.1-2.5,2.1
		h-1.7V322.5z M69.3,325.8h0.2c0.9,0,1.6-0.2,1.6-1.2c0-1-0.7-1.2-1.6-1.2h-0.3V325.8z M69.3,329H70c0.8,0,1.7-0.3,1.7-1.3
		c0-1-1-1.2-1.9-1.2h-0.6V329z"/>
	<path class="st4" d="M78.4,329.9h-0.9v-0.7h0c-0.3,0.5-0.9,0.9-1.5,0.9c-1.4,0-2.2-1.2-2.2-2.5c0-1.2,0.8-2.4,2.1-2.4
		c0.7,0,1.2,0.3,1.6,0.9h0v-0.8h0.9V329.9z M77.6,327.6c0-0.9-0.5-1.6-1.5-1.6c-0.9,0-1.4,0.8-1.4,1.6c0,0.9,0.5,1.7,1.4,1.7
		C77.1,329.2,77.6,328.5,77.6,327.6z"/>
	<path class="st4" d="M79.4,325.3h1l1.5,2.9l1.4-2.9h1l-3.7,7.2h-1l1.8-3.4L79.4,325.3z"/>
	<path class="st4" d="M86,327.7c0,0.8,0.5,1.5,1.4,1.5c0.7,0,1-0.3,1.4-0.9l0.7,0.4c-0.4,0.8-1.2,1.2-2.1,1.2c-1.4,0-2.2-1-2.2-2.4
		c0-1.4,0.7-2.4,2.2-2.4c1.4,0,2.1,1.1,2.1,2.4v0.1H86z M88.6,327.1c-0.1-0.7-0.6-1.1-1.3-1.1c-0.7,0-1.2,0.5-1.3,1.1H88.6z"/>
	<path class="st4" d="M92.6,326.3c-0.1-0.2-0.3-0.4-0.6-0.4c-0.2,0-0.5,0.2-0.5,0.4c0,0.4,0.5,0.6,1.1,0.8c0.5,0.2,1,0.6,1,1.3
		c0,0.9-0.7,1.5-1.6,1.5c-0.7,0-1.3-0.4-1.6-1l0.7-0.3c0.2,0.3,0.4,0.6,0.8,0.6c0.4,0,0.7-0.3,0.7-0.6c0-0.2-0.1-0.4-0.3-0.5
		l-0.9-0.5c-0.5-0.3-0.9-0.5-0.9-1.1c0-0.7,0.6-1.3,1.3-1.3c0.6,0,1,0.3,1.2,0.8L92.6,326.3z"/>
</g>
<g>
	<path class="st4" d="M24.5,363.2l5.5,5.8v-5.4h0.9v7.6l-5.5-5.8v5.5h-0.9V363.2z"/>
	<path class="st4" d="M33.2,368.7c0,0.8,0.5,1.5,1.4,1.5c0.7,0,1-0.3,1.4-0.9l0.7,0.4c-0.4,0.8-1.2,1.2-2.1,1.2
		c-1.4,0-2.2-1-2.2-2.4c0-1.4,0.7-2.4,2.2-2.4c1.4,0,2.1,1.1,2.1,2.4v0.1H33.2z M35.8,368.1c-0.1-0.7-0.6-1.1-1.3-1.1
		c-0.7,0-1.2,0.5-1.3,1.1H35.8z"/>
	<path class="st4" d="M42.3,370.8h-0.9v-0.7h0c-0.3,0.5-0.9,0.9-1.5,0.9c-1.4,0-2.2-1.2-2.2-2.5c0-1.2,0.8-2.4,2.1-2.4
		c0.7,0,1.2,0.3,1.6,0.9h0v-0.8h0.9V370.8z M41.5,368.6c0-0.9-0.5-1.6-1.5-1.6c-0.9,0-1.4,0.8-1.4,1.6c0,0.9,0.5,1.7,1.4,1.7
		C40.9,370.2,41.5,369.5,41.5,368.6z"/>
	<path class="st4" d="M44.9,367L44.9,367c0.2-0.5,0.7-0.9,1.3-0.9c0.3,0,0.5,0.1,0.7,0.2l-0.4,0.8c-0.2-0.1-0.3-0.2-0.5-0.2
		c-0.9,0-1.1,0.9-1.1,1.6v2.2h-0.9v-4.5h0.9V367z"/>
	<path class="st4" d="M48.5,368.7c0,0.8,0.5,1.5,1.4,1.5c0.7,0,1-0.3,1.4-0.9l0.7,0.4c-0.4,0.8-1.2,1.2-2.1,1.2
		c-1.4,0-2.2-1-2.2-2.4c0-1.4,0.7-2.4,2.2-2.4c1.4,0,2.1,1.1,2.1,2.4v0.1H48.5z M51.1,368.1c-0.1-0.7-0.6-1.1-1.3-1.1
		c-0.7,0-1.2,0.5-1.3,1.1H51.1z"/>
	<path class="st4" d="M55.1,367.3c-0.1-0.2-0.3-0.4-0.6-0.4c-0.2,0-0.5,0.2-0.5,0.4c0,0.4,0.5,0.6,1.1,0.8c0.5,0.2,1,0.6,1,1.3
		c0,0.9-0.7,1.5-1.6,1.5c-0.7,0-1.3-0.4-1.6-1l0.7-0.3c0.2,0.3,0.4,0.6,0.8,0.6c0.4,0,0.7-0.3,0.7-0.6c0-0.2-0.1-0.4-0.3-0.5
		l-0.9-0.5c-0.5-0.3-0.9-0.5-0.9-1.1c0-0.7,0.6-1.3,1.3-1.3c0.6,0,1,0.3,1.2,0.8L55.1,367.3z"/>
	<path class="st4" d="M58.6,370.8h-0.9v-3.7h-0.5v-0.8h0.5v-1.7h0.9v1.7h0.9v0.8h-0.9V370.8z"/>
	<path class="st4" d="M64,363.2l5.5,5.8v-5.4h0.9v7.6l-5.5-5.8v5.5H64V363.2z"/>
	<path class="st4" d="M72.7,368.7c0,0.8,0.5,1.5,1.4,1.5c0.7,0,1-0.3,1.4-0.9l0.7,0.4c-0.4,0.8-1.2,1.2-2.1,1.2
		c-1.4,0-2.2-1-2.2-2.4c0-1.4,0.7-2.4,2.2-2.4c1.4,0,2.1,1.1,2.1,2.4v0.1H72.7z M75.3,368.1c-0.1-0.7-0.6-1.1-1.3-1.1
		c-0.7,0-1.2,0.5-1.3,1.1H75.3z"/>
	<path class="st4" d="M78.7,364.2c0,0.3-0.3,0.6-0.6,0.6s-0.6-0.3-0.6-0.6c0-0.3,0.3-0.6,0.6-0.6S78.7,363.9,78.7,364.2z
		 M78.6,370.8h-0.9v-4.5h0.9V370.8z"/>
	<path class="st4" d="M84.8,370.8c0,1.6-0.4,2.7-2.2,2.7c-1.3,0-2.2-0.8-2.2-2.1h0.9c0,0.8,0.6,1.3,1.4,1.3c1.1,0,1.3-0.7,1.3-1.7
		v-0.9h0c-0.3,0.5-0.9,0.9-1.5,0.9c-1.4,0-2.2-1.2-2.2-2.5c0-1.2,0.8-2.4,2.1-2.4c0.7,0,1.2,0.3,1.6,0.9h0v-0.8h0.9V370.8z
		 M84,368.6c0-0.9-0.5-1.6-1.5-1.6c-0.9,0-1.4,0.8-1.4,1.6c0,0.9,0.5,1.7,1.4,1.7C83.4,370.2,84,369.5,84,368.6z"/>
	<path class="st4" d="M87.4,362.4v4.5h0c0.3-0.5,0.8-0.7,1.4-0.7c1.3,0,1.6,0.9,1.6,2v2.7h-0.9v-2.6c0-0.8-0.1-1.3-1-1.3
		c-1.1,0-1.1,1-1.1,1.8v2.1h-0.9v-8.4H87.4z"/>
	<path class="st4" d="M92.1,362.4H93v4.6h0c0.4-0.5,0.9-0.9,1.6-0.9c1.3,0,2.1,1.1,2.1,2.4c0,1.3-0.8,2.5-2.2,2.5
		c-0.6,0-1.2-0.3-1.5-0.9h0v0.7h-0.9V362.4z M95.8,368.6c0-0.9-0.5-1.6-1.5-1.6c-0.9,0-1.4,0.8-1.4,1.6c0,0.9,0.5,1.7,1.4,1.7
		C95.3,370.2,95.8,369.5,95.8,368.6z"/>
	<path class="st4" d="M102.6,368.6c0,1.4-1.1,2.4-2.4,2.4c-1.4,0-2.4-1-2.4-2.4s1.1-2.4,2.4-2.4
		C101.5,366.2,102.6,367.2,102.6,368.6z M98.6,368.6c0,0.9,0.7,1.6,1.6,1.6c0.9,0,1.6-0.7,1.6-1.6c0-0.9-0.7-1.6-1.6-1.6
		C99.3,367,98.6,367.7,98.6,368.6z"/>
	<path class="st4" d="M104.9,367L104.9,367c0.2-0.5,0.7-0.9,1.3-0.9c0.3,0,0.5,0.1,0.7,0.2l-0.4,0.8c-0.2-0.1-0.3-0.2-0.5-0.2
		c-0.9,0-1.1,0.9-1.1,1.6v2.2H104v-4.5h0.9V367z"/>
</g>
<g>
	<path class="st0" d="M14.1,430c-3.9,0-7-3.2-7-7v-23.6c0-3.9,3.2-7,7-7h102.5c3.9,0,7,3.2,7,7v23.6c0,3.9-3.2,7-7,7H14.1z"/>
	<path class="st1" d="M116.6,392.8c3.6,0,6.6,3,6.6,6.6v23.6c0,3.6-3,6.6-6.6,6.6H14.1c-3.6,0-6.6-3-6.6-6.6v-23.6
		c0-3.6,3-6.6,6.6-6.6H116.6 M116.6,391.9H14.1c-4.1,0-7.4,3.3-7.4,7.4v23.6c0,4.1,3.3,7.4,7.4,7.4h102.5c4.1,0,7.4-3.3,7.4-7.4
		v-23.6C124.1,395.3,120.8,391.9,116.6,391.9L116.6,391.9z"/>
</g>
<g>
	<path class="st0" d="M148.4,343.9c-3.9,0-7-3.2-7-7v-23.6c0-3.9,3.2-7,7-7h102.5c3.9,0,7,3.2,7,7v23.6c0,3.9-3.2,7-7,7H148.4z"/>
	<path class="st1" d="M250.9,306.7c3.6,0,6.6,3,6.6,6.6v23.6c0,3.6-3,6.6-6.6,6.6H148.4c-3.6,0-6.6-3-6.6-6.6v-23.6
		c0-3.6,3-6.6,6.6-6.6H250.9 M250.9,305.9H148.4c-4.1,0-7.4,3.3-7.4,7.4v23.6c0,4.1,3.3,7.4,7.4,7.4h102.5c4.1,0,7.4-3.3,7.4-7.4
		v-23.6C258.4,309.2,255,305.9,250.9,305.9L250.9,305.9z"/>
</g>
<g>
	<path class="st0" d="M148.4,386.9c-3.9,0-7-3.2-7-7v-23.6c0-3.9,3.2-7,7-7h102.5c3.9,0,7,3.2,7,7v23.6c0,3.9-3.2,7-7,7H148.4z"/>
	<path class="st1" d="M250.9,349.7c3.6,0,6.6,3,6.6,6.6v23.6c0,3.6-3,6.6-6.6,6.6H148.4c-3.6,0-6.6-3-6.6-6.6v-23.6
		c0-3.6,3-6.6,6.6-6.6H250.9 M250.9,348.9H148.4c-4.1,0-7.4,3.3-7.4,7.4v23.6c0,4.1,3.3,7.4,7.4,7.4h102.5c4.1,0,7.4-3.3,7.4-7.4
		v-23.6C258.4,352.2,255,348.9,250.9,348.9L250.9,348.9z"/>
</g>
<g>
	<path class="st0" d="M148.4,430c-3.9,0-7-3.2-7-7v-23.6c0-3.9,3.2-7,7-7h102.5c3.9,0,7,3.2,7,7v23.6c0,3.9-3.2,7-7,7H148.4z"/>
	<path class="st1" d="M250.9,392.8c3.6,0,6.6,3,6.6,6.6v23.6c0,3.6-3,6.6-6.6,6.6H148.4c-3.6,0-6.6-3-6.6-6.6v-23.6
		c0-3.6,3-6.6,6.6-6.6H250.9 M250.9,391.9H148.4c-4.1,0-7.4,3.3-7.4,7.4v23.6c0,4.1,3.3,7.4,7.4,7.4h102.5c4.1,0,7.4-3.3,7.4-7.4
		v-23.6C258.4,395.3,255,391.9,250.9,391.9L250.9,391.9z"/>
</g>
<g>
	<path class="st0" d="M282.7,343.9c-3.9,0-7-3.2-7-7v-23.6c0-3.9,3.2-7,7-7h102.5c3.9,0,7,3.2,7,7v23.6c0,3.9-3.2,7-7,7H282.7z"/>
	<path class="st1" d="M385.2,306.7c3.6,0,6.6,3,6.6,6.6v23.6c0,3.6-3,6.6-6.6,6.6H282.7c-3.6,0-6.6-3-6.6-6.6v-23.6
		c0-3.6,3-6.6,6.6-6.6H385.2 M385.2,305.9H282.7c-4.1,0-7.4,3.3-7.4,7.4v23.6c0,4.1,3.3,7.4,7.4,7.4h102.5c4.1,0,7.4-3.3,7.4-7.4
		v-23.6C392.7,309.2,389.3,305.9,385.2,305.9L385.2,305.9z"/>
</g>
<g>
	<path class="st0" d="M282.7,386.9c-3.9,0-7-3.2-7-7v-23.6c0-3.9,3.2-7,7-7h102.5c3.9,0,7,3.2,7,7v23.6c0,3.9-3.2,7-7,7H282.7z"/>
	<path class="st1" d="M385.2,349.7c3.6,0,6.6,3,6.6,6.6v23.6c0,3.6-3,6.6-6.6,6.6H282.7c-3.6,0-6.6-3-6.6-6.6v-23.6
		c0-3.6,3-6.6,6.6-6.6H385.2 M385.2,348.9H282.7c-4.1,0-7.4,3.3-7.4,7.4v23.6c0,4.1,3.3,7.4,7.4,7.4h102.5c4.1,0,7.4-3.3,7.4-7.4
		v-23.6C392.7,352.2,389.3,348.9,385.2,348.9L385.2,348.9z"/>
</g>
<g>
	<path class="st0" d="M81,473.1c-3.9,0-7-3.2-7-7v-23.6c0-3.9,3.2-7,7-7h102.5c3.9,0,7,3.2,7,7v23.6c0,3.9-3.2,7-7,7H81z"/>
	<path class="st1" d="M183.5,435.9c3.6,0,6.6,3,6.6,6.6v23.6c0,3.6-3,6.6-6.6,6.6H81c-3.6,0-6.6-3-6.6-6.6v-23.6
		c0-3.6,3-6.6,6.6-6.6H183.5 M183.5,435.1H81c-4.1,0-7.4,3.3-7.4,7.4v23.6c0,4.1,3.3,7.4,7.4,7.4h102.5c4.1,0,7.4-3.3,7.4-7.4v-23.6
		C190.9,438.4,187.6,435.1,183.5,435.1L183.5,435.1z"/>
</g>
<g>
	<path class="st0" d="M81,516.1c-3.9,0-7-3.2-7-7v-23.6c0-3.9,3.2-7,7-7h102.5c3.9,0,7,3.2,7,7v23.6c0,3.9-3.2,7-7,7H81z"/>
	<path class="st1" d="M183.5,478.9c3.6,0,6.6,3,6.6,6.6v23.6c0,3.6-3,6.6-6.6,6.6H81c-3.6,0-6.6-3-6.6-6.6v-23.6
		c0-3.6,3-6.6,6.6-6.6H183.5 M183.5,478.1H81c-4.1,0-7.4,3.3-7.4,7.4v23.6c0,4.1,3.3,7.4,7.4,7.4h102.5c4.1,0,7.4-3.3,7.4-7.4v-23.6
		C190.9,481.4,187.6,478.1,183.5,478.1L183.5,478.1z"/>
</g>
<g>
	<path class="st0" d="M81,559.1c-3.9,0-7-3.2-7-7v-23.6c0-3.9,3.2-7,7-7h102.5c3.9,0,7,3.2,7,7v23.6c0,3.9-3.2,7-7,7H81z"/>
	<path class="st1" d="M183.5,521.9c3.6,0,6.6,3,6.6,6.6v23.6c0,3.6-3,6.6-6.6,6.6H81c-3.6,0-6.6-3-6.6-6.6v-23.6
		c0-3.6,3-6.6,6.6-6.6H183.5 M183.5,521.1H81c-4.1,0-7.4,3.3-7.4,7.4v23.6c0,4.1,3.3,7.4,7.4,7.4h102.5c4.1,0,7.4-3.3,7.4-7.4v-23.6
		C190.9,524.4,187.6,521.1,183.5,521.1L183.5,521.1z"/>
</g>
<g>
	<path class="st0" d="M81,602.2c-3.9,0-7-3.2-7-7v-23.6c0-3.9,3.2-7,7-7h102.5c3.9,0,7,3.2,7,7v23.6c0,3.9-3.2,7-7,7H81z"/>
	<path class="st1" d="M183.5,565c3.6,0,6.6,3,6.6,6.6v23.6c0,3.6-3,6.6-6.6,6.6H81c-3.6,0-6.6-3-6.6-6.6v-23.6c0-3.6,3-6.6,6.6-6.6
		H183.5 M183.5,564.1H81c-4.1,0-7.4,3.3-7.4,7.4v23.6c0,4.1,3.3,7.4,7.4,7.4h102.5c4.1,0,7.4-3.3,7.4-7.4v-23.6
		C190.9,567.5,187.6,564.1,183.5,564.1L183.5,564.1z"/>
</g>
<g>
	<path class="st4" d="M37.2,402h1.5c2.2,0,4.1,1.2,4.1,3.6c0,2.5-1.8,3.7-4.1,3.7h-1.5V402z M38.1,408.5h0.3c1.9,0,3.5-0.7,3.5-2.8
		c0-2.1-1.6-2.8-3.5-2.8h-0.3V408.5z"/>
	<path class="st4" d="M45.4,402.7c0,0.3-0.3,0.6-0.6,0.6s-0.6-0.3-0.6-0.6c0-0.3,0.3-0.6,0.6-0.6S45.4,402.4,45.4,402.7z
		 M45.3,409.3h-0.9v-4.5h0.9V409.3z"/>
	<path class="st4" d="M49.1,405.8c-0.1-0.2-0.3-0.4-0.6-0.4c-0.2,0-0.5,0.2-0.5,0.4c0,0.4,0.5,0.6,1.1,0.8c0.5,0.2,1,0.6,1,1.3
		c0,0.9-0.7,1.5-1.6,1.5c-0.7,0-1.3-0.4-1.6-1l0.7-0.3c0.2,0.3,0.4,0.6,0.8,0.6c0.4,0,0.7-0.3,0.7-0.6c0-0.2-0.1-0.4-0.3-0.5
		l-0.9-0.5c-0.5-0.3-0.9-0.5-0.9-1.1c0-0.7,0.6-1.3,1.3-1.3c0.6,0,1,0.3,1.2,0.8L49.1,405.8z"/>
	<path class="st4" d="M54.9,406.1c-0.3-0.4-0.8-0.6-1.3-0.6c-0.9,0-1.5,0.8-1.5,1.6c0,0.9,0.7,1.6,1.6,1.6c0.5,0,0.9-0.2,1.2-0.6
		v1.1c-0.4,0.2-0.8,0.3-1.3,0.3c-1.3,0-2.4-1-2.4-2.4c0-1.4,1.1-2.4,2.5-2.4c0.4,0,0.9,0.1,1.2,0.3V406.1z"/>
	<path class="st4" d="M57.4,405.5L57.4,405.5c0.2-0.5,0.7-0.9,1.3-0.9c0.3,0,0.5,0.1,0.7,0.2l-0.4,0.8c-0.2-0.1-0.3-0.2-0.5-0.2
		c-0.9,0-1.1,0.9-1.1,1.6v2.2h-0.9v-4.5h0.9V405.5z"/>
	<path class="st4" d="M61.7,402.7c0,0.3-0.3,0.6-0.6,0.6s-0.6-0.3-0.6-0.6c0-0.3,0.3-0.6,0.6-0.6S61.7,402.4,61.7,402.7z
		 M61.5,409.3h-0.9v-4.5h0.9V409.3z"/>
	<path class="st4" d="M64.3,405.4L64.3,405.4c0.3-0.4,0.7-0.7,1.2-0.7c0.6,0,1,0.3,1.3,0.8c0.3-0.5,0.8-0.8,1.4-0.8
		c1.2,0,1.5,0.9,1.5,2v2.7h-0.9v-2.6c0-0.6-0.1-1.3-0.8-1.3c-0.9,0-1,1-1,1.7v2.2h-0.9v-2.4c0-0.6,0-1.5-0.8-1.5c-0.9,0-1,1-1,1.7
		v2.2h-0.9v-4.5h0.9V405.4z"/>
	<path class="st4" d="M72.8,402.7c0,0.3-0.3,0.6-0.6,0.6s-0.6-0.3-0.6-0.6c0-0.3,0.3-0.6,0.6-0.6S72.8,402.4,72.8,402.7z
		 M72.6,409.3h-0.9v-4.5h0.9V409.3z"/>
	<path class="st4" d="M75.5,405.4L75.5,405.4c0.3-0.5,0.8-0.7,1.4-0.7c1.3,0,1.6,0.9,1.6,2v2.7h-0.9v-2.6c0-0.8-0.1-1.3-1-1.3
		c-1.1,0-1.1,1-1.1,1.8v2.1h-0.9v-4.5h0.9V405.4z"/>
	<path class="st4" d="M84.5,409.3h-0.9v-0.7h0c-0.3,0.5-0.9,0.9-1.5,0.9c-1.4,0-2.2-1.2-2.2-2.5c0-1.2,0.8-2.4,2.1-2.4
		c0.7,0,1.2,0.3,1.6,0.9h0v-0.8h0.9V409.3z M83.7,407.1c0-0.9-0.5-1.6-1.5-1.6c-0.9,0-1.4,0.8-1.4,1.6c0,0.9,0.5,1.7,1.4,1.7
		C83.2,408.7,83.7,408,83.7,407.1z"/>
	<path class="st4" d="M87.1,405.4L87.1,405.4c0.3-0.5,0.8-0.7,1.4-0.7c1.3,0,1.6,0.9,1.6,2v2.7h-0.9v-2.6c0-0.8-0.1-1.3-1-1.3
		c-1.1,0-1.1,1-1.1,1.8v2.1h-0.9v-4.5h0.9V405.4z"/>
	<path class="st4" d="M92.9,409.3H92v-3.7h-0.5v-0.8H92v-1.7h0.9v1.7h0.9v0.8h-0.9V409.3z"/>
	<path class="st4" d="M47.7,419.2l-0.8,1.8h-1l3.5-7.6l3.5,7.6h-1l-0.8-1.8H47.7z M49.4,415.4l-1.3,3h2.6L49.4,415.4z"/>
	<path class="st4" d="M54.9,417.1L54.9,417.1c0.3-0.5,0.8-0.7,1.4-0.7c1.3,0,1.6,0.9,1.6,2v2.7H57v-2.6c0-0.8-0.1-1.3-1-1.3
		c-1.1,0-1.1,1-1.1,1.8v2.1H54v-4.5h0.9V417.1z"/>
	<path class="st4" d="M64,421h-0.9v-0.7h0c-0.3,0.5-0.9,0.9-1.5,0.9c-1.4,0-2.2-1.2-2.2-2.5c0-1.2,0.8-2.4,2.1-2.4
		c0.7,0,1.2,0.3,1.6,0.9h0v-0.8H64V421z M63.1,418.7c0-0.9-0.5-1.6-1.5-1.6c-0.9,0-1.4,0.8-1.4,1.6c0,0.9,0.5,1.7,1.4,1.7
		C62.6,420.4,63.1,419.6,63.1,418.7z"/>
	<path class="st4" d="M66.6,421h-0.9v-8.4h0.9V421z"/>
	<path class="st4" d="M67.7,416.5h1l1.5,2.9l1.4-2.9h1l-3.7,7.2h-1l1.8-3.4L67.7,416.5z"/>
	<path class="st4" d="M75.5,417.5c-0.1-0.2-0.3-0.4-0.6-0.4c-0.2,0-0.5,0.2-0.5,0.4c0,0.4,0.5,0.6,1.1,0.8c0.5,0.2,1,0.6,1,1.3
		c0,0.9-0.7,1.5-1.6,1.5c-0.7,0-1.3-0.4-1.6-1l0.7-0.3c0.2,0.3,0.4,0.6,0.8,0.6c0.4,0,0.7-0.3,0.7-0.6c0-0.2-0.1-0.4-0.3-0.5
		l-0.9-0.5c-0.5-0.3-0.9-0.5-0.9-1.1c0-0.7,0.6-1.3,1.3-1.3c0.6,0,1,0.3,1.2,0.8L75.5,417.5z"/>
	<path class="st4" d="M79.3,414.4c0,0.3-0.3,0.6-0.6,0.6s-0.6-0.3-0.6-0.6c0-0.3,0.3-0.6,0.6-0.6S79.3,414,79.3,414.4z M79.1,421
		h-0.9v-4.5h0.9V421z"/>
	<path class="st4" d="M82.9,417.5c-0.1-0.2-0.3-0.4-0.6-0.4c-0.2,0-0.5,0.2-0.5,0.4c0,0.4,0.5,0.6,1.1,0.8c0.5,0.2,1,0.6,1,1.3
		c0,0.9-0.7,1.5-1.6,1.5c-0.7,0-1.3-0.4-1.6-1l0.7-0.3c0.2,0.3,0.4,0.6,0.8,0.6c0.4,0,0.7-0.3,0.7-0.6c0-0.2-0.1-0.4-0.3-0.5
		l-0.9-0.5c-0.5-0.3-0.9-0.5-0.9-1.1c0-0.7,0.6-1.3,1.3-1.3c0.6,0,1,0.3,1.2,0.8L82.9,417.5z"/>
</g>
<g>
	<path class="st4" d="M160.6,329h2.2v0.8h-3.1v-7.3h0.9V329z"/>
	<path class="st4" d="M165.1,323.2c0,0.3-0.3,0.6-0.6,0.6s-0.6-0.3-0.6-0.6c0-0.3,0.3-0.6,0.6-0.6S165.1,322.9,165.1,323.2z
		 M165,329.9h-0.9v-4.5h0.9V329.9z"/>
	<path class="st4" d="M167.8,325.9L167.8,325.9c0.3-0.5,0.8-0.7,1.4-0.7c1.3,0,1.6,0.9,1.6,2v2.7H170v-2.6c0-0.8-0.1-1.3-1-1.3
		c-1.1,0-1.1,1-1.1,1.8v2.1H167v-4.5h0.9V325.9z"/>
	<path class="st4" d="M173.1,327.7c0,0.8,0.5,1.5,1.4,1.5c0.7,0,1-0.3,1.4-0.9l0.7,0.4c-0.4,0.8-1.2,1.2-2.1,1.2
		c-1.4,0-2.2-1-2.2-2.4c0-1.4,0.7-2.4,2.2-2.4c1.4,0,2.1,1.1,2.1,2.4v0.1H173.1z M175.7,327.1c-0.1-0.7-0.6-1.1-1.3-1.1
		c-0.7,0-1.2,0.5-1.3,1.1H175.7z"/>
	<path class="st4" d="M182.2,329.9h-0.9v-0.7h0c-0.3,0.5-0.9,0.9-1.5,0.9c-1.4,0-2.2-1.2-2.2-2.5c0-1.2,0.8-2.4,2.1-2.4
		c0.7,0,1.2,0.3,1.6,0.9h0v-0.8h0.9V329.9z M181.4,327.6c0-0.9-0.5-1.6-1.5-1.6c-0.9,0-1.4,0.8-1.4,1.6c0,0.9,0.5,1.7,1.4,1.7
		C180.9,329.2,181.4,328.5,181.4,327.6z"/>
	<path class="st4" d="M184.9,326L184.9,326c0.2-0.5,0.7-0.9,1.3-0.9c0.3,0,0.5,0.1,0.7,0.2l-0.4,0.8c-0.2-0.1-0.3-0.2-0.5-0.2
		c-0.9,0-1.1,0.9-1.1,1.6v2.2H184v-4.5h0.9V326z"/>
	<path class="st4" d="M196,329.9h-1.1l-2.2-3.1h-0.4v3.1h-0.9v-7.3h1.1c0.7,0,1.4,0,1.9,0.3c0.6,0.4,1,1,1,1.7c0,1-0.7,1.9-1.8,2.1
		L196,329.9z M192.3,326h0.3c0.9,0,1.9-0.2,1.9-1.3c0-1.1-1.1-1.3-2-1.3h-0.2V326z"/>
	<path class="st4" d="M197.7,327.7c0,0.8,0.5,1.5,1.4,1.5c0.7,0,1-0.3,1.4-0.9l0.7,0.4c-0.4,0.8-1.2,1.2-2.1,1.2
		c-1.4,0-2.2-1-2.2-2.4c0-1.4,0.7-2.4,2.2-2.4c1.4,0,2.1,1.1,2.1,2.4v0.1H197.7z M200.3,327.1c-0.1-0.7-0.6-1.1-1.3-1.1
		c-0.7,0-1.2,0.5-1.3,1.1H200.3z"/>
	<path class="st4" d="M206.8,329.8c0,1.6-0.4,2.7-2.2,2.7c-1.3,0-2.2-0.8-2.2-2.1h0.9c0,0.8,0.6,1.3,1.4,1.3c1.1,0,1.3-0.7,1.3-1.7
		v-0.9h0c-0.3,0.5-0.9,0.9-1.5,0.9c-1.4,0-2.2-1.2-2.2-2.5c0-1.2,0.8-2.4,2.1-2.4c0.7,0,1.2,0.3,1.6,0.9h0v-0.8h0.9V329.8z
		 M205.9,327.6c0-0.9-0.5-1.6-1.5-1.6c-0.9,0-1.4,0.8-1.4,1.6c0,0.9,0.5,1.7,1.4,1.7C205.4,329.2,205.9,328.5,205.9,327.6z"/>
	<path class="st4" d="M209.4,326L209.4,326c0.2-0.5,0.7-0.9,1.3-0.9c0.3,0,0.5,0.1,0.7,0.2l-0.4,0.8c-0.2-0.1-0.3-0.2-0.5-0.2
		c-0.9,0-1.1,0.9-1.1,1.6v2.2h-0.9v-4.5h0.9V326z"/>
	<path class="st4" d="M213,327.7c0,0.8,0.5,1.5,1.4,1.5c0.7,0,1-0.3,1.4-0.9l0.7,0.4c-0.4,0.8-1.2,1.2-2.1,1.2c-1.4,0-2.2-1-2.2-2.4
		c0-1.4,0.7-2.4,2.2-2.4c1.4,0,2.1,1.1,2.1,2.4v0.1H213z M215.6,327.1c-0.1-0.7-0.6-1.1-1.3-1.1c-0.7,0-1.2,0.5-1.3,1.1H215.6z"/>
	<path class="st4" d="M219.6,326.3c-0.1-0.2-0.3-0.4-0.6-0.4c-0.2,0-0.5,0.2-0.5,0.4c0,0.4,0.5,0.6,1.1,0.8c0.5,0.2,1,0.6,1,1.3
		c0,0.9-0.7,1.5-1.6,1.5c-0.7,0-1.3-0.4-1.6-1l0.7-0.3c0.2,0.3,0.4,0.6,0.8,0.6c0.4,0,0.7-0.3,0.7-0.6c0-0.2-0.1-0.4-0.3-0.5
		l-0.9-0.5c-0.5-0.3-0.9-0.5-0.9-1.1c0-0.7,0.6-1.3,1.3-1.3c0.6,0,1,0.3,1.2,0.8L219.6,326.3z"/>
	<path class="st4" d="M223.9,326.3c-0.1-0.2-0.3-0.4-0.6-0.4c-0.2,0-0.5,0.2-0.5,0.4c0,0.4,0.5,0.6,1.1,0.8c0.5,0.2,1,0.6,1,1.3
		c0,0.9-0.7,1.5-1.6,1.5c-0.7,0-1.3-0.4-1.6-1l0.7-0.3c0.2,0.3,0.4,0.6,0.8,0.6c0.4,0,0.7-0.3,0.7-0.6c0-0.2-0.1-0.4-0.3-0.5
		l-0.9-0.5c-0.5-0.3-0.9-0.5-0.9-1.1c0-0.7,0.6-1.3,1.3-1.3c0.6,0,1,0.3,1.2,0.8L223.9,326.3z"/>
	<path class="st4" d="M227.7,323.2c0,0.3-0.3,0.6-0.6,0.6s-0.6-0.3-0.6-0.6c0-0.3,0.3-0.6,0.6-0.6S227.7,322.9,227.7,323.2z
		 M227.5,329.9h-0.9v-4.5h0.9V329.9z"/>
	<path class="st4" d="M233.9,327.6c0,1.4-1.1,2.4-2.4,2.4c-1.4,0-2.4-1-2.4-2.4s1.1-2.4,2.4-2.4
		C232.9,325.2,233.9,326.2,233.9,327.6z M229.9,327.6c0,0.9,0.7,1.6,1.6,1.6c0.9,0,1.6-0.7,1.6-1.6c0-0.9-0.7-1.6-1.6-1.6
		C230.6,326,229.9,326.7,229.9,327.6z"/>
	<path class="st4" d="M236.2,325.9L236.2,325.9c0.3-0.5,0.8-0.7,1.4-0.7c1.3,0,1.6,0.9,1.6,2v2.7h-0.9v-2.6c0-0.8-0.1-1.3-1-1.3
		c-1.1,0-1.1,1-1.1,1.8v2.1h-0.9v-4.5h0.9V325.9z"/>
</g>
<g>
	<path class="st4" d="M196.4,368.8v0.3c0,2-1.4,3.6-3.5,3.6s-3.7-1.8-3.7-3.8c0-2.1,1.7-3.8,3.8-3.8c1.1,0,2.3,0.5,3,1.4l-0.6,0.6
		c-0.5-0.7-1.4-1.2-2.3-1.2c-1.6,0-2.9,1.3-2.9,3c0,1.5,1.3,3,2.8,3c1.1,0,2.4-1,2.4-2.2h-1.9v-0.8H196.4z"/>
	<path class="st4" d="M198.8,371.7h2.2v0.8h-3.1v-7.3h0.9V371.7z"/>
	<path class="st4" d="M203.4,367.7L203.4,367.7l-0.9,4.8h-0.9l1.5-7.6l2.5,5.8l2.5-5.8l1.5,7.6h-0.9l-0.9-4.8h0l-2.2,5L203.4,367.7z
		"/>
</g>
<g>
	<path class="st4" d="M166.8,411.4v0.3c0,2-1.4,3.6-3.5,3.6s-3.7-1.8-3.7-3.8c0-2.1,1.7-3.8,3.8-3.8c1.1,0,2.3,0.5,3,1.4l-0.6,0.6
		c-0.5-0.7-1.4-1.2-2.3-1.2c-1.6,0-2.9,1.3-2.9,3c0,1.5,1.3,3,2.8,3c1.1,0,2.4-1,2.4-2.2h-1.9v-0.8H166.8z"/>
	<path class="st4" d="M172.5,415.1h-0.9v-0.7h0c-0.3,0.5-0.9,0.9-1.5,0.9c-1.4,0-2.2-1.2-2.2-2.5c0-1.2,0.8-2.4,2.1-2.4
		c0.7,0,1.2,0.3,1.6,0.9h0v-0.8h0.9V415.1z M171.6,412.8c0-0.9-0.5-1.6-1.5-1.6c-0.9,0-1.4,0.8-1.4,1.6c0,0.9,0.5,1.7,1.4,1.7
		C171.1,414.5,171.6,413.7,171.6,412.8z"/>
	<path class="st4" d="M175,410.6v2.5c0,0.7,0.2,1.4,1,1.4s1-0.6,1-1.4v-2.5h0.9v2.6c0,1.2-0.6,2.1-1.9,2.1s-1.9-0.8-1.9-2.1v-2.6
		H175z"/>
	<path class="st4" d="M181.6,411.6c-0.1-0.2-0.3-0.4-0.6-0.4c-0.2,0-0.5,0.2-0.5,0.4c0,0.4,0.5,0.6,1.1,0.8c0.5,0.2,1,0.6,1,1.3
		c0,0.9-0.7,1.5-1.6,1.5c-0.7,0-1.3-0.4-1.6-1l0.7-0.3c0.2,0.3,0.4,0.6,0.8,0.6c0.4,0,0.7-0.3,0.7-0.6c0-0.2-0.1-0.4-0.3-0.5
		l-0.9-0.5c-0.5-0.3-0.9-0.5-0.9-1.1c0-0.7,0.6-1.3,1.3-1.3c0.6,0,1,0.3,1.2,0.8L181.6,411.6z"/>
	<path class="st4" d="M185.9,411.6c-0.1-0.2-0.3-0.4-0.6-0.4c-0.2,0-0.5,0.2-0.5,0.4c0,0.4,0.5,0.6,1.1,0.8c0.5,0.2,1,0.6,1,1.3
		c0,0.9-0.7,1.5-1.6,1.5c-0.7,0-1.3-0.4-1.6-1l0.7-0.3c0.2,0.3,0.4,0.6,0.8,0.6c0.4,0,0.7-0.3,0.7-0.6c0-0.2-0.1-0.4-0.3-0.5
		l-0.9-0.5c-0.5-0.3-0.9-0.5-0.9-1.1c0-0.7,0.6-1.3,1.3-1.3c0.6,0,1,0.3,1.2,0.8L185.9,411.6z"/>
	<path class="st4" d="M189.6,408.5c0,0.3-0.3,0.6-0.6,0.6s-0.6-0.3-0.6-0.6c0-0.3,0.3-0.6,0.6-0.6S189.6,408.2,189.6,408.5z
		 M189.4,415.1h-0.9v-4.5h0.9V415.1z"/>
	<path class="st4" d="M195.7,415.1h-0.9v-0.7h0c-0.3,0.5-0.9,0.9-1.5,0.9c-1.4,0-2.2-1.2-2.2-2.5c0-1.2,0.8-2.4,2.1-2.4
		c0.7,0,1.2,0.3,1.6,0.9h0v-0.8h0.9V415.1z M194.9,412.8c0-0.9-0.5-1.6-1.5-1.6c-0.9,0-1.4,0.8-1.4,1.6c0,0.9,0.5,1.7,1.4,1.7
		C194.3,414.5,194.9,413.7,194.9,412.8z"/>
	<path class="st4" d="M198.3,411.2L198.3,411.2c0.3-0.5,0.8-0.7,1.4-0.7c1.3,0,1.6,0.9,1.6,2v2.7h-0.9v-2.6c0-0.8-0.1-1.3-1-1.3
		c-1.1,0-1.1,1-1.1,1.8v2.1h-0.9v-4.5h0.9V411.2z"/>
	<path class="st4" d="M207.5,415.1h-0.9v-7.3h1c2.3,0,3,0.8,3,2.1c0,1.5-1.2,2.1-2.6,2.1h-0.5V415.1z M207.5,411.2h0.3
		c0.9,0,1.9-0.2,1.9-1.3c0-1.1-1.1-1.3-2-1.3h-0.2V411.2z"/>
	<path class="st4" d="M212.8,411.3L212.8,411.3c0.2-0.5,0.7-0.9,1.3-0.9c0.3,0,0.5,0.1,0.7,0.2l-0.4,0.8c-0.2-0.1-0.3-0.2-0.5-0.2
		c-0.9,0-1.1,0.9-1.1,1.6v2.2h-0.9v-4.5h0.9V411.3z"/>
	<path class="st4" d="M220.3,412.9c0,1.4-1.1,2.4-2.4,2.4c-1.4,0-2.4-1-2.4-2.4s1.1-2.4,2.4-2.4
		C219.3,410.4,220.3,411.5,220.3,412.9z M216.3,412.9c0,0.9,0.7,1.6,1.6,1.6c0.9,0,1.6-0.7,1.6-1.6c0-0.9-0.7-1.6-1.6-1.6
		C217,411.3,216.3,412,216.3,412.9z"/>
	<path class="st4" d="M225,411.9c-0.3-0.4-0.8-0.6-1.3-0.6c-0.9,0-1.5,0.8-1.5,1.6c0,0.9,0.7,1.6,1.6,1.6c0.5,0,0.9-0.2,1.2-0.6v1.1
		c-0.4,0.2-0.8,0.3-1.3,0.3c-1.3,0-2.4-1-2.4-2.4c0-1.4,1.1-2.4,2.5-2.4c0.4,0,0.9,0.1,1.2,0.3V411.9z"/>
	<path class="st4" d="M227.1,413c0,0.8,0.5,1.5,1.4,1.5c0.7,0,1-0.3,1.4-0.9l0.7,0.4c-0.4,0.8-1.2,1.2-2.1,1.2c-1.4,0-2.2-1-2.2-2.4
		c0-1.4,0.7-2.4,2.2-2.4c1.4,0,2.1,1.1,2.1,2.4v0.1H227.1z M229.7,412.3c-0.1-0.7-0.6-1.1-1.3-1.1c-0.7,0-1.2,0.5-1.3,1.1H229.7z"/>
	<path class="st4" d="M233.7,411.6c-0.1-0.2-0.3-0.4-0.6-0.4c-0.2,0-0.5,0.2-0.5,0.4c0,0.4,0.5,0.6,1.1,0.8c0.5,0.2,1,0.6,1,1.3
		c0,0.9-0.7,1.5-1.6,1.5c-0.7,0-1.3-0.4-1.6-1l0.7-0.3c0.2,0.3,0.4,0.6,0.8,0.6c0.4,0,0.7-0.3,0.7-0.6c0-0.2-0.1-0.4-0.3-0.5
		l-0.9-0.5c-0.5-0.3-0.9-0.5-0.9-1.1c0-0.7,0.6-1.3,1.3-1.3c0.6,0,1,0.3,1.2,0.8L233.7,411.6z"/>
	<path class="st4" d="M238,411.6c-0.1-0.2-0.3-0.4-0.6-0.4c-0.2,0-0.5,0.2-0.5,0.4c0,0.4,0.5,0.6,1.1,0.8c0.5,0.2,1,0.6,1,1.3
		c0,0.9-0.7,1.5-1.6,1.5c-0.7,0-1.3-0.4-1.6-1l0.7-0.3c0.2,0.3,0.4,0.6,0.8,0.6c0.4,0,0.7-0.3,0.7-0.6c0-0.2-0.1-0.4-0.3-0.5
		l-0.9-0.5c-0.5-0.3-0.9-0.5-0.9-1.1c0-0.7,0.6-1.3,1.3-1.3c0.6,0,1,0.3,1.2,0.8L238,411.6z"/>
</g>
<g>
	<path class="st4" d="M290.6,322.5h1.2l-3.3,3.3l3.4,4h-1.2l-2.8-3.4l-0.4,0.4v3.1h-0.9v-7.3h0.9v3.2L290.6,322.5z"/>
	<path class="st4" d="M295,326.4v0.7h-2.1v-0.7H295z"/>
	<path class="st4" d="M298.1,325L298.1,325l-0.9,4.8h-0.9l1.5-7.6l2.5,5.8l2.5-5.8l1.5,7.6h-0.9l-0.9-4.8h0l-2.2,5L298.1,325z"/>
	<path class="st4" d="M306.1,327.7c0,0.8,0.5,1.5,1.4,1.5c0.7,0,1-0.3,1.4-0.9l0.7,0.4c-0.4,0.8-1.2,1.2-2.1,1.2
		c-1.4,0-2.2-1-2.2-2.4c0-1.4,0.7-2.4,2.2-2.4c1.4,0,2.1,1.1,2.1,2.4v0.1H306.1z M308.7,327.1c-0.1-0.7-0.6-1.1-1.3-1.1
		c-0.7,0-1.2,0.5-1.3,1.1H308.7z"/>
	<path class="st4" d="M315.2,329.9h-0.9v-0.7h0c-0.3,0.5-0.9,0.9-1.5,0.9c-1.4,0-2.2-1.2-2.2-2.5c0-1.2,0.8-2.4,2.1-2.4
		c0.7,0,1.2,0.3,1.6,0.9h0v-0.8h0.9V329.9z M314.3,327.6c0-0.9-0.5-1.6-1.5-1.6c-0.9,0-1.4,0.8-1.4,1.6c0,0.9,0.5,1.7,1.4,1.7
		C313.8,329.2,314.3,328.5,314.3,327.6z"/>
	<path class="st4" d="M317.8,325.9L317.8,325.9c0.3-0.5,0.8-0.7,1.4-0.7c1.3,0,1.6,0.9,1.6,2v2.7h-0.9v-2.6c0-0.8-0.1-1.3-1-1.3
		c-1.1,0-1.1,1-1.1,1.8v2.1h-0.9v-4.5h0.9V325.9z"/>
	<path class="st4" d="M324.4,326.3c-0.1-0.2-0.3-0.4-0.6-0.4c-0.2,0-0.5,0.2-0.5,0.4c0,0.4,0.5,0.6,1.1,0.8c0.5,0.2,1,0.6,1,1.3
		c0,0.9-0.7,1.5-1.6,1.5c-0.7,0-1.3-0.4-1.6-1l0.7-0.3c0.2,0.3,0.4,0.6,0.8,0.6c0.4,0,0.7-0.3,0.7-0.6c0-0.2-0.1-0.4-0.3-0.5
		l-0.9-0.5c-0.5-0.3-0.9-0.5-0.9-1.1c0-0.7,0.6-1.3,1.3-1.3c0.6,0,1,0.3,1.2,0.8L324.4,326.3z"/>
	<path class="st4" d="M328.6,329l-1.3,2.6l-0.5-0.2l1.1-2.7L328.6,329z"/>
	<path class="st4" d="M337.8,322.5h1.2l-3.3,3.3l3.4,4h-1.2l-2.8-3.4l-0.4,0.4v3.1h-0.9v-7.3h0.9v3.2L337.8,322.5z"/>
	<path class="st4" d="M342.1,326.4v0.7H340v-0.7H342.1z"/>
	<path class="st4" d="M345.2,325L345.2,325l-0.9,4.8h-0.9l1.5-7.6l2.5,5.8l2.5-5.8l1.5,7.6h-0.9l-0.9-4.8h0l-2.2,5L345.2,325z"/>
	<path class="st4" d="M353.2,327.7c0,0.8,0.5,1.5,1.4,1.5c0.7,0,1-0.3,1.4-0.9l0.7,0.4c-0.4,0.8-1.2,1.2-2.1,1.2
		c-1.4,0-2.2-1-2.2-2.4c0-1.4,0.7-2.4,2.2-2.4c1.4,0,2.1,1.1,2.1,2.4v0.1H353.2z M355.8,327.1c-0.1-0.7-0.6-1.1-1.3-1.1
		c-0.7,0-1.2,0.5-1.3,1.1H355.8z"/>
	<path class="st4" d="M361.4,329.1L361.4,329.1c-0.4,0.5-0.9,0.9-1.6,0.9c-1.4,0-2.2-1.2-2.2-2.5c0-1.2,0.8-2.4,2.1-2.4
		c0.7,0,1.2,0.3,1.6,0.9h0v-4.6h0.9v8.4h-0.9V329.1z M361.5,327.6c0-0.9-0.5-1.6-1.5-1.6c-0.9,0-1.4,0.8-1.4,1.6
		c0,0.9,0.5,1.7,1.4,1.7C361,329.2,361.5,328.5,361.5,327.6z"/>
	<path class="st4" d="M368.5,327.6c0,1.4-1.1,2.4-2.4,2.4c-1.4,0-2.4-1-2.4-2.4s1.1-2.4,2.4-2.4
		C367.4,325.2,368.5,326.2,368.5,327.6z M364.5,327.6c0,0.9,0.7,1.6,1.6,1.6c0.9,0,1.6-0.7,1.6-1.6c0-0.9-0.7-1.6-1.6-1.6
		C365.2,326,364.5,326.7,364.5,327.6z"/>
	<path class="st4" d="M371.1,323.2c0,0.3-0.3,0.6-0.6,0.6s-0.6-0.3-0.6-0.6c0-0.3,0.3-0.6,0.6-0.6S371.1,322.9,371.1,323.2z
		 M370.9,329.9h-0.9v-4.5h0.9V329.9z"/>
	<path class="st4" d="M376.3,329.1L376.3,329.1c-0.4,0.5-0.9,0.9-1.6,0.9c-1.4,0-2.2-1.2-2.2-2.5c0-1.2,0.8-2.4,2.1-2.4
		c0.7,0,1.2,0.3,1.6,0.9h0v-4.6h0.9v8.4h-0.9V329.1z M376.4,327.6c0-0.9-0.5-1.6-1.5-1.6c-0.9,0-1.4,0.8-1.4,1.6
		c0,0.9,0.5,1.7,1.4,1.7C375.8,329.2,376.4,328.5,376.4,327.6z"/>
	<path class="st4" d="M380.7,326.3c-0.1-0.2-0.3-0.4-0.6-0.4c-0.2,0-0.5,0.2-0.5,0.4c0,0.4,0.5,0.6,1.1,0.8c0.5,0.2,1,0.6,1,1.3
		c0,0.9-0.7,1.5-1.6,1.5c-0.7,0-1.3-0.4-1.6-1l0.7-0.3c0.2,0.3,0.4,0.6,0.8,0.6c0.4,0,0.7-0.3,0.7-0.6c0-0.2-0.1-0.4-0.3-0.5
		l-0.9-0.5c-0.5-0.3-0.9-0.5-0.9-1.1c0-0.7,0.6-1.3,1.3-1.3c0.6,0,1,0.3,1.2,0.8L380.7,326.3z"/>
</g>
<g>
	<path class="st4" d="M300.3,365.4v2.1h2.5v0.8h-2.5v3.6h-0.9v-7.3h3.5v0.8H300.3z"/>
	<path class="st4" d="M305.3,367.3v2.5c0,0.7,0.2,1.4,1,1.4s1-0.6,1-1.4v-2.5h0.9v2.6c0,1.2-0.6,2.1-1.9,2.1s-1.9-0.8-1.9-2.1v-2.6
		H305.3z"/>
	<path class="st4" d="M314.1,371v0.8h-4.7l3.1-3.7H310v-0.8h4.3l-3.1,3.7H314.1z"/>
	<path class="st4" d="M319.5,371v0.8h-4.7l3.1-3.7h-2.6v-0.8h4.3l-3.1,3.7H319.5z"/>
	<path class="st4" d="M320.1,367.3h1l1.5,2.9l1.4-2.9h1l-3.7,7.2h-1l1.8-3.4L320.1,367.3z"/>
	<path class="st4" d="M334.9,365.9c-0.5-0.5-1.2-0.7-1.9-0.7c-1.6,0-2.9,1.4-2.9,3c0,1.6,1.2,3,2.9,3c0.7,0,1.4-0.3,2-0.8v1.1
		c-0.6,0.3-1.3,0.5-1.9,0.5c-2.1,0-3.8-1.7-3.8-3.8c0-2.2,1.7-3.9,3.9-3.9c0.6,0,1.3,0.2,1.8,0.5V365.9z"/>
	<path class="st4" d="M338.6,368.4v0.7h-2.1v-0.7H338.6z"/>
	<path class="st4" d="M341.6,367L341.6,367l-0.9,4.8h-0.9l1.5-7.6l2.5,5.8l2.5-5.8l1.5,7.6h-0.9L346,367h0l-2.2,5L341.6,367z"/>
	<path class="st4" d="M349.7,369.7c0,0.8,0.5,1.5,1.4,1.5c0.7,0,1-0.3,1.4-0.9l0.7,0.4c-0.4,0.8-1.2,1.2-2.1,1.2
		c-1.4,0-2.2-1-2.2-2.4c0-1.4,0.7-2.4,2.2-2.4c1.4,0,2.1,1.1,2.1,2.4v0.1H349.7z M352.3,369.1c-0.1-0.7-0.6-1.1-1.3-1.1
		c-0.7,0-1.2,0.5-1.3,1.1H352.3z"/>
	<path class="st4" d="M358.7,371.8h-0.9v-0.7h0c-0.3,0.5-0.9,0.9-1.5,0.9c-1.4,0-2.2-1.2-2.2-2.5c0-1.2,0.8-2.4,2.1-2.4
		c0.7,0,1.2,0.3,1.6,0.9h0v-0.8h0.9V371.8z M357.9,369.6c0-0.9-0.5-1.6-1.5-1.6c-0.9,0-1.4,0.8-1.4,1.6c0,0.9,0.5,1.7,1.4,1.7
		C357.4,371.2,357.9,370.5,357.9,369.6z"/>
	<path class="st4" d="M361.3,367.9L361.3,367.9c0.3-0.5,0.8-0.7,1.4-0.7c1.3,0,1.6,0.9,1.6,2v2.7h-0.9v-2.6c0-0.8-0.1-1.3-1-1.3
		c-1.1,0-1.1,1-1.1,1.8v2.1h-0.9v-4.5h0.9V367.9z"/>
	<path class="st4" d="M367.9,368.3c-0.1-0.2-0.3-0.4-0.6-0.4c-0.2,0-0.5,0.2-0.5,0.4c0,0.4,0.5,0.6,1.1,0.8c0.5,0.2,1,0.6,1,1.3
		c0,0.9-0.7,1.5-1.6,1.5c-0.7,0-1.3-0.4-1.6-1l0.7-0.3c0.2,0.3,0.4,0.6,0.8,0.6c0.4,0,0.7-0.3,0.7-0.6c0-0.2-0.1-0.4-0.3-0.5
		l-0.9-0.5c-0.5-0.3-0.9-0.5-0.9-1.1c0-0.7,0.6-1.3,1.3-1.3c0.6,0,1,0.3,1.2,0.8L367.9,368.3z"/>
</g>
<g>
	<path class="st4" d="M311.1,410.7v-3h0.9v7.3h-0.9v-3.5h-3.5v3.5h-0.9v-7.3h0.9v3H311.1z"/>
	<path class="st4" d="M315.1,408.5c0,0.3-0.3,0.6-0.6,0.6s-0.6-0.3-0.6-0.6c0-0.3,0.3-0.6,0.6-0.6S315.1,408.2,315.1,408.5z
		 M314.9,415.1H314v-4.5h0.9V415.1z"/>
	<path class="st4" d="M317.4,413c0,0.8,0.5,1.5,1.4,1.5c0.7,0,1-0.3,1.4-0.9l0.7,0.4c-0.4,0.8-1.2,1.2-2.1,1.2c-1.4,0-2.2-1-2.2-2.4
		c0-1.4,0.7-2.4,2.2-2.4c1.4,0,2.1,1.1,2.1,2.4v0.1H317.4z M320,412.3c-0.1-0.7-0.6-1.1-1.3-1.1c-0.7,0-1.2,0.5-1.3,1.1H320z"/>
	<path class="st4" d="M323.1,411.3L323.1,411.3c0.2-0.5,0.7-0.9,1.3-0.9c0.3,0,0.5,0.1,0.7,0.2l-0.4,0.8c-0.2-0.1-0.3-0.2-0.5-0.2
		c-0.9,0-1.1,0.9-1.1,1.6v2.2h-0.9v-4.5h0.9V411.3z"/>
	<path class="st4" d="M330.5,415.1h-0.9v-0.7h0c-0.3,0.5-0.9,0.9-1.5,0.9c-1.4,0-2.2-1.2-2.2-2.5c0-1.2,0.8-2.4,2.1-2.4
		c0.7,0,1.2,0.3,1.6,0.9h0v-0.8h0.9V415.1z M329.6,412.8c0-0.9-0.5-1.6-1.5-1.6c-0.9,0-1.4,0.8-1.4,1.6c0,0.9,0.5,1.7,1.4,1.7
		C329.1,414.5,329.6,413.7,329.6,412.8z"/>
	<path class="st4" d="M333.1,411.3L333.1,411.3c0.2-0.5,0.7-0.9,1.3-0.9c0.3,0,0.5,0.1,0.7,0.2l-0.4,0.8c-0.2-0.1-0.3-0.2-0.5-0.2
		c-0.9,0-1.1,0.9-1.1,1.6v2.2h-0.9v-4.5h0.9V411.3z"/>
	<path class="st4" d="M339.5,411.9c-0.3-0.4-0.8-0.6-1.3-0.6c-0.9,0-1.5,0.8-1.5,1.6c0,0.9,0.7,1.6,1.6,1.6c0.5,0,0.9-0.2,1.2-0.6
		v1.1c-0.4,0.2-0.8,0.3-1.3,0.3c-1.3,0-2.4-1-2.4-2.4c0-1.4,1.1-2.4,2.5-2.4c0.4,0,0.9,0.1,1.2,0.3V411.9z"/>
	<path class="st4" d="M341.9,406.7v4.5h0c0.3-0.5,0.8-0.7,1.4-0.7c1.3,0,1.6,0.9,1.6,2v2.7H344v-2.6c0-0.8-0.1-1.3-1-1.3
		c-1.1,0-1.1,1-1.1,1.8v2.1H341v-8.4H341.9z"/>
	<path class="st4" d="M347.9,408.5c0,0.3-0.3,0.6-0.6,0.6s-0.6-0.3-0.6-0.6c0-0.3,0.3-0.6,0.6-0.6S347.9,408.2,347.9,408.5z
		 M347.7,415.1h-0.9v-4.5h0.9V415.1z"/>
	<path class="st4" d="M353.1,411.9c-0.3-0.4-0.8-0.6-1.3-0.6c-0.9,0-1.5,0.8-1.5,1.6c0,0.9,0.7,1.6,1.6,1.6c0.5,0,0.9-0.2,1.2-0.6
		v1.1c-0.4,0.2-0.8,0.3-1.3,0.3c-1.3,0-2.4-1-2.4-2.4c0-1.4,1.1-2.4,2.5-2.4c0.4,0,0.9,0.1,1.2,0.3V411.9z"/>
	<path class="st4" d="M358.8,415.1H358v-0.7h0c-0.3,0.5-0.9,0.9-1.5,0.9c-1.4,0-2.2-1.2-2.2-2.5c0-1.2,0.8-2.4,2.1-2.4
		c0.7,0,1.2,0.3,1.6,0.9h0v-0.8h0.9V415.1z M358,412.8c0-0.9-0.5-1.6-1.5-1.6c-0.9,0-1.4,0.8-1.4,1.6c0,0.9,0.5,1.7,1.4,1.7
		C357.5,414.5,358,413.7,358,412.8z"/>
	<path class="st4" d="M361.5,415.1h-0.9v-8.4h0.9V415.1z"/>
</g>
<g>
	<path class="st4" d="M301.1,454.7v0.3c0,2-1.4,3.6-3.5,3.6s-3.7-1.8-3.7-3.8c0-2.1,1.7-3.8,3.8-3.8c1.1,0,2.3,0.5,3,1.4l-0.6,0.6
		c-0.5-0.7-1.4-1.2-2.3-1.2c-1.6,0-2.9,1.3-2.9,3c0,1.5,1.3,3,2.8,3c1.1,0,2.4-1,2.4-2.2h-1.9v-0.8H301.1z"/>
	<path class="st4" d="M306.8,458.4h-0.9v-0.7h0c-0.3,0.5-0.9,0.9-1.5,0.9c-1.4,0-2.2-1.2-2.2-2.5c0-1.2,0.8-2.4,2.1-2.4
		c0.7,0,1.2,0.3,1.6,0.9h0v-0.8h0.9V458.4z M305.9,456.1c0-0.9-0.5-1.6-1.5-1.6c-0.9,0-1.4,0.8-1.4,1.6c0,0.9,0.5,1.7,1.4,1.7
		C305.4,457.8,305.9,457,305.9,456.1z"/>
	<path class="st4" d="M309.3,453.8v2.5c0,0.7,0.2,1.4,1,1.4s1-0.6,1-1.4v-2.5h0.9v2.6c0,1.2-0.6,2.1-1.9,2.1s-1.9-0.8-1.9-2.1v-2.6
		H309.3z"/>
	<path class="st4" d="M315.8,454.9c-0.1-0.2-0.3-0.4-0.6-0.4c-0.2,0-0.5,0.2-0.5,0.4c0,0.4,0.5,0.6,1.1,0.8c0.5,0.2,1,0.6,1,1.3
		c0,0.9-0.7,1.5-1.6,1.5c-0.7,0-1.3-0.4-1.6-1l0.7-0.3c0.2,0.3,0.4,0.6,0.8,0.6c0.4,0,0.7-0.3,0.7-0.6c0-0.2-0.1-0.4-0.3-0.5
		l-0.9-0.5c-0.5-0.3-0.9-0.5-0.9-1.1c0-0.7,0.6-1.3,1.3-1.3c0.6,0,1,0.3,1.2,0.8L315.8,454.9z"/>
	<path class="st4" d="M320.1,454.9c-0.1-0.2-0.3-0.4-0.6-0.4c-0.2,0-0.5,0.2-0.5,0.4c0,0.4,0.5,0.6,1.1,0.8c0.5,0.2,1,0.6,1,1.3
		c0,0.9-0.7,1.5-1.6,1.5c-0.7,0-1.3-0.4-1.6-1l0.7-0.3c0.2,0.3,0.4,0.6,0.8,0.6c0.4,0,0.7-0.3,0.7-0.6c0-0.2-0.1-0.4-0.3-0.5
		l-0.9-0.5c-0.5-0.3-0.9-0.5-0.9-1.1c0-0.7,0.6-1.3,1.3-1.3c0.6,0,1,0.3,1.2,0.8L320.1,454.9z"/>
	<path class="st4" d="M323.9,451.8c0,0.3-0.3,0.6-0.6,0.6s-0.6-0.3-0.6-0.6c0-0.3,0.3-0.6,0.6-0.6S323.9,451.4,323.9,451.8z
		 M323.7,458.4h-0.9v-4.5h0.9V458.4z"/>
	<path class="st4" d="M329.9,458.4h-0.9v-0.7h0c-0.3,0.5-0.9,0.9-1.5,0.9c-1.4,0-2.2-1.2-2.2-2.5c0-1.2,0.8-2.4,2.1-2.4
		c0.7,0,1.2,0.3,1.6,0.9h0v-0.8h0.9V458.4z M329.1,456.1c0-0.9-0.5-1.6-1.5-1.6c-0.9,0-1.4,0.8-1.4,1.6c0,0.9,0.5,1.7,1.4,1.7
		C328.6,457.8,329.1,457,329.1,456.1z"/>
	<path class="st4" d="M332.5,454.5L332.5,454.5c0.3-0.5,0.8-0.7,1.4-0.7c1.3,0,1.6,0.9,1.6,2v2.7h-0.9v-2.6c0-0.8-0.1-1.3-1-1.3
		c-1.1,0-1.1,1-1.1,1.8v2.1h-0.9v-4.5h0.9V454.5z"/>
	<path class="st4" d="M342,453.6L342,453.6l-0.9,4.8h-0.9l1.5-7.6l2.5,5.8l2.5-5.8l1.5,7.6h-0.9l-0.9-4.8h0l-2.2,5L342,453.6z"/>
	<path class="st4" d="M350.8,451.8c0,0.3-0.3,0.6-0.6,0.6s-0.6-0.3-0.6-0.6c0-0.3,0.3-0.6,0.6-0.6S350.8,451.4,350.8,451.8z
		 M350.6,458.4h-0.9v-4.5h0.9V458.4z"/>
	<path class="st4" d="M352.2,453.8h1l1.1,1.5l1.2-1.5h1.1l-1.7,2.1l2,2.5h-1l-1.5-1.8l-1.4,1.8h-1.1l2-2.5L352.2,453.8z"/>
	<path class="st4" d="M358.9,458.4H358v-3.7h-0.5v-0.8h0.5v-1.7h0.9v1.7h0.9v0.8h-0.9V458.4z"/>
	<path class="st4" d="M361.6,453.8v2.5c0,0.7,0.2,1.4,1,1.4s1-0.6,1-1.4v-2.5h0.9v2.6c0,1.2-0.6,2.1-1.9,2.1s-1.9-0.8-1.9-2.1v-2.6
		H361.6z"/>
	<path class="st4" d="M367.3,454.6L367.3,454.6c0.2-0.5,0.7-0.9,1.3-0.9c0.3,0,0.5,0.1,0.7,0.2l-0.4,0.8c-0.2-0.1-0.3-0.2-0.5-0.2
		c-0.9,0-1.1,0.9-1.1,1.6v2.2h-0.9v-4.5h0.9V454.6z"/>
	<path class="st4" d="M370.9,456.3c0,0.8,0.5,1.5,1.4,1.5c0.7,0,1-0.3,1.4-0.9l0.7,0.4c-0.4,0.8-1.2,1.2-2.1,1.2
		c-1.4,0-2.2-1-2.2-2.4c0-1.4,0.7-2.4,2.2-2.4c1.4,0,2.1,1.1,2.1,2.4v0.1H370.9z M373.5,455.6c-0.1-0.7-0.6-1.1-1.3-1.1
		c-0.7,0-1.2,0.5-1.3,1.1H373.5z"/>
</g>
<g>
	<path class="st4" d="M287.8,497.3v-3h0.9v7.3h-0.9v-3.5h-3.5v3.5h-0.9v-7.3h0.9v3H287.8z"/>
	<path class="st4" d="M291.8,495c0,0.3-0.3,0.6-0.6,0.6s-0.6-0.3-0.6-0.6c0-0.3,0.3-0.6,0.6-0.6S291.8,494.7,291.8,495z
		 M291.6,501.7h-0.9v-4.5h0.9V501.7z"/>
	<path class="st4" d="M297,501L297,501c-0.4,0.5-0.9,0.9-1.6,0.9c-1.4,0-2.2-1.2-2.2-2.5c0-1.2,0.8-2.4,2.1-2.4
		c0.7,0,1.2,0.3,1.6,0.9h0v-4.6h0.9v8.4H297V501z M297,499.4c0-0.9-0.5-1.6-1.5-1.6c-0.9,0-1.4,0.8-1.4,1.6c0,0.9,0.5,1.7,1.4,1.7
		C296.5,501,297,500.3,297,499.4z"/>
	<path class="st4" d="M303,501L303,501c-0.4,0.5-0.9,0.9-1.6,0.9c-1.4,0-2.2-1.2-2.2-2.5c0-1.2,0.8-2.4,2.1-2.4
		c0.7,0,1.2,0.3,1.6,0.9h0v-4.6h0.9v8.4H303V501z M303,499.4c0-0.9-0.5-1.6-1.5-1.6c-0.9,0-1.4,0.8-1.4,1.6c0,0.9,0.5,1.7,1.4,1.7
		C302.5,501,303,500.3,303,499.4z"/>
	<path class="st4" d="M306.1,499.5c0,0.8,0.5,1.5,1.4,1.5c0.7,0,1-0.3,1.4-0.9l0.7,0.4c-0.4,0.8-1.2,1.2-2.1,1.2
		c-1.4,0-2.2-1-2.2-2.4c0-1.4,0.7-2.4,2.2-2.4c1.4,0,2.1,1.1,2.1,2.4v0.1H306.1z M308.7,498.9c-0.1-0.7-0.6-1.1-1.3-1.1
		c-0.7,0-1.2,0.5-1.3,1.1H308.7z"/>
	<path class="st4" d="M311.7,497.7L311.7,497.7c0.3-0.5,0.8-0.7,1.4-0.7c1.3,0,1.6,0.9,1.6,2v2.7h-0.9v-2.6c0-0.8-0.1-1.3-1-1.3
		c-1.1,0-1.1,1-1.1,1.8v2.1h-0.9v-4.5h0.9V497.7z"/>
	<path class="st4" d="M321.2,496.8L321.2,496.8l-0.9,4.8h-0.9l1.5-7.6l2.5,5.8l2.5-5.8l1.5,7.6h-0.9l-0.9-4.8h0l-2.2,5L321.2,496.8z
		"/>
	<path class="st4" d="M333,501.7h-0.9V501h0c-0.3,0.5-0.9,0.9-1.5,0.9c-1.4,0-2.2-1.2-2.2-2.5c0-1.2,0.8-2.4,2.1-2.4
		c0.7,0,1.2,0.3,1.6,0.9h0v-0.8h0.9V501.7z M332.2,499.4c0-0.9-0.5-1.6-1.5-1.6c-0.9,0-1.4,0.8-1.4,1.6c0,0.9,0.5,1.7,1.4,1.7
		C331.7,501,332.2,500.3,332.2,499.4z"/>
	<path class="st4" d="M335.7,497.9L335.7,497.9c0.2-0.5,0.7-0.9,1.3-0.9c0.3,0,0.5,0.1,0.7,0.2l-0.4,0.8c-0.2-0.1-0.3-0.2-0.5-0.2
		c-0.9,0-1.1,0.9-1.1,1.6v2.2h-0.9v-4.5h0.9V497.9z"/>
	<path class="st4" d="M339.6,498.8l1.7-1.7h1.2l-1.9,1.9l2.1,2.7h-1.1l-1.6-2.1l-0.3,0.3v1.8h-0.9v-8.4h0.9V498.8z"/>
	<path class="st4" d="M348.2,499.4c0,1.4-1.1,2.4-2.4,2.4c-1.4,0-2.4-1-2.4-2.4s1.1-2.4,2.4-2.4C347.2,497,348.2,498,348.2,499.4z
		 M344.2,499.4c0,0.9,0.7,1.6,1.6,1.6c0.9,0,1.6-0.7,1.6-1.6c0-0.9-0.7-1.6-1.6-1.6C344.9,497.8,344.2,498.5,344.2,499.4z"/>
	<path class="st4" d="M351.2,500l1.3-2.8h1l-2.3,4.7l-2.3-4.7h1L351.2,500z"/>
	<path class="st4" d="M359.2,496.8L359.2,496.8l-0.9,4.8h-0.9l1.5-7.6l2.5,5.8l2.5-5.8l1.5,7.6h-0.9l-0.9-4.8h0l-2.2,5L359.2,496.8z
		"/>
	<path class="st4" d="M371.2,499.4c0,1.4-1.1,2.4-2.4,2.4c-1.4,0-2.4-1-2.4-2.4s1.1-2.4,2.4-2.4C370.1,497,371.2,498,371.2,499.4z
		 M367.2,499.4c0,0.9,0.7,1.6,1.6,1.6c0.9,0,1.6-0.7,1.6-1.6c0-0.9-0.7-1.6-1.6-1.6C367.9,497.8,367.2,498.5,367.2,499.4z"/>
	<path class="st4" d="M375.9,501L375.9,501c-0.4,0.5-0.9,0.9-1.6,0.9c-1.4,0-2.2-1.2-2.2-2.5c0-1.2,0.8-2.4,2.1-2.4
		c0.7,0,1.2,0.3,1.6,0.9h0v-4.6h0.9v8.4h-0.9V501z M376,499.4c0-0.9-0.5-1.6-1.5-1.6c-0.9,0-1.4,0.8-1.4,1.6c0,0.9,0.5,1.7,1.4,1.7
		C375.5,501,376,500.3,376,499.4z"/>
	<path class="st4" d="M379.1,499.5c0,0.8,0.5,1.5,1.4,1.5c0.7,0,1-0.3,1.4-0.9l0.7,0.4c-0.4,0.8-1.2,1.2-2.1,1.2
		c-1.4,0-2.2-1-2.2-2.4c0-1.4,0.7-2.4,2.2-2.4c1.4,0,2.1,1.1,2.1,2.4v0.1H379.1z M381.7,498.9c-0.1-0.7-0.6-1.1-1.3-1.1
		c-0.7,0-1.2,0.5-1.3,1.1H381.7z"/>
	<path class="st4" d="M384.8,501.7h-0.9v-8.4h0.9V501.7z"/>
</g>
<g>
	<path class="st4" d="M101.6,446.8c-0.3-0.5-0.6-0.7-1.2-0.7c-0.6,0-1.2,0.4-1.2,1c0,0.6,0.6,0.9,1,1l0.5,0.2c1,0.4,1.8,1,1.8,2.2
		c0,1.3-1,2.3-2.3,2.3c-1.2,0-2.1-0.9-2.3-2.1l0.9-0.2c0,0.8,0.6,1.4,1.4,1.4s1.4-0.7,1.4-1.4c0-0.8-0.6-1.1-1.3-1.4l-0.5-0.2
		c-0.8-0.4-1.6-0.8-1.6-1.9c0-1.2,1-1.9,2.2-1.9c0.8,0,1.5,0.4,1.9,1.1L101.6,446.8z"/>
	<path class="st4" d="M104.9,448.2v2.5c0,0.7,0.2,1.4,1,1.4s1-0.6,1-1.4v-2.5h0.9v2.6c0,1.2-0.6,2.1-1.9,2.1s-1.9-0.8-1.9-2.1v-2.6
		H104.9z"/>
	<path class="st4" d="M110.4,448.9L110.4,448.9c0.4-0.5,0.9-0.9,1.6-0.9c1.3,0,2.1,1.1,2.1,2.4c0,1.3-0.8,2.5-2.2,2.5
		c-0.6,0-1.2-0.3-1.5-0.9h0v3.3h-0.9v-7.2h0.9V448.9z M113.3,450.4c0-0.9-0.5-1.6-1.5-1.6c-0.9,0-1.4,0.8-1.4,1.6
		c0,0.9,0.5,1.7,1.4,1.7C112.7,452.1,113.3,451.3,113.3,450.4z"/>
	<path class="st4" d="M116.4,448.9L116.4,448.9c0.4-0.5,0.9-0.9,1.6-0.9c1.3,0,2.1,1.1,2.1,2.4c0,1.3-0.8,2.5-2.2,2.5
		c-0.6,0-1.2-0.3-1.5-0.9h0v3.3h-0.9v-7.2h0.9V448.9z M119.3,450.4c0-0.9-0.5-1.6-1.5-1.6c-0.9,0-1.4,0.8-1.4,1.6
		c0,0.9,0.5,1.7,1.4,1.7C118.7,452.1,119.3,451.3,119.3,450.4z"/>
	<path class="st4" d="M126,450.4c0,1.4-1.1,2.4-2.4,2.4c-1.4,0-2.4-1-2.4-2.4s1.1-2.4,2.4-2.4C124.9,448,126,449.1,126,450.4z
		 M122,450.4c0,0.9,0.7,1.6,1.6,1.6c0.9,0,1.6-0.7,1.6-1.6c0-0.9-0.7-1.6-1.6-1.6C122.7,448.9,122,449.6,122,450.4z"/>
	<path class="st4" d="M128.3,448.9L128.3,448.9c0.2-0.5,0.7-0.9,1.3-0.9c0.3,0,0.5,0.1,0.7,0.2l-0.4,0.8c-0.2-0.1-0.3-0.2-0.5-0.2
		c-0.9,0-1.1,0.9-1.1,1.6v2.2h-0.9v-4.5h0.9V448.9z"/>
	<path class="st4" d="M132.4,452.7h-0.9V449H131v-0.8h0.5v-1.7h0.9v1.7h0.9v0.8h-0.9V452.7z"/>
	<path class="st4" d="M140.2,450.8l2.2-5.4h1l-3.2,7.7l-3.2-7.7h1L140.2,450.8z"/>
	<path class="st4" d="M145,450.6c0,0.8,0.5,1.5,1.4,1.5c0.7,0,1-0.3,1.4-0.9l0.7,0.4c-0.4,0.8-1.2,1.2-2.1,1.2c-1.4,0-2.2-1-2.2-2.4
		c0-1.4,0.7-2.4,2.2-2.4c1.4,0,2.1,1.1,2.1,2.4v0.1H145z M147.6,449.9c-0.1-0.7-0.6-1.1-1.3-1.1c-0.7,0-1.2,0.5-1.3,1.1H147.6z"/>
	<path class="st4" d="M153.2,449.4c-0.3-0.4-0.8-0.6-1.3-0.6c-0.9,0-1.5,0.8-1.5,1.6c0,0.9,0.7,1.6,1.6,1.6c0.5,0,0.9-0.2,1.2-0.6
		v1.1c-0.4,0.2-0.8,0.3-1.3,0.3c-1.3,0-2.4-1-2.4-2.4c0-1.4,1.1-2.4,2.5-2.4c0.4,0,0.9,0.1,1.2,0.3V449.4z"/>
	<path class="st4" d="M155.7,452.7h-0.9V449h-0.5v-0.8h0.5v-1.7h0.9v1.7h0.9v0.8h-0.9V452.7z"/>
	<path class="st4" d="M162.1,450.4c0,1.4-1.1,2.4-2.4,2.4c-1.4,0-2.4-1-2.4-2.4s1.1-2.4,2.4-2.4C161,448,162.1,449.1,162.1,450.4z
		 M158.1,450.4c0,0.9,0.7,1.6,1.6,1.6c0.9,0,1.6-0.7,1.6-1.6c0-0.9-0.7-1.6-1.6-1.6C158.8,448.9,158.1,449.6,158.1,450.4z"/>
	<path class="st4" d="M164.4,448.9L164.4,448.9c0.2-0.5,0.7-0.9,1.3-0.9c0.3,0,0.5,0.1,0.7,0.2L166,449c-0.2-0.1-0.3-0.2-0.5-0.2
		c-0.9,0-1.1,0.9-1.1,1.6v2.2h-0.9v-4.5h0.9V448.9z"/>
	<path class="st4" d="M112.3,459.5L112.3,459.5l-0.9,4.8h-0.9l1.5-7.6l2.5,5.8l2.5-5.8l1.5,7.6h-0.9l-0.9-4.8h0l-2.2,5L112.3,459.5z
		"/>
	<path class="st4" d="M124.1,464.4h-0.9v-0.7h0c-0.3,0.5-0.9,0.9-1.5,0.9c-1.4,0-2.2-1.2-2.2-2.5c0-1.2,0.8-2.4,2.1-2.4
		c0.7,0,1.2,0.3,1.6,0.9h0v-0.8h0.9V464.4z M123.3,462.1c0-0.9-0.5-1.6-1.5-1.6c-0.9,0-1.4,0.8-1.4,1.6c0,0.9,0.5,1.7,1.4,1.7
		C122.7,463.7,123.3,463,123.3,462.1z"/>
	<path class="st4" d="M129.2,461.1c-0.3-0.4-0.8-0.6-1.3-0.6c-0.9,0-1.5,0.8-1.5,1.6c0,0.9,0.7,1.6,1.6,1.6c0.5,0,0.9-0.2,1.2-0.6
		v1.1c-0.4,0.2-0.8,0.3-1.3,0.3c-1.3,0-2.4-1-2.4-2.4c0-1.4,1.1-2.4,2.5-2.4c0.4,0,0.9,0.1,1.2,0.3V461.1z"/>
	<path class="st4" d="M131.6,455.9v4.5h0c0.3-0.5,0.8-0.7,1.4-0.7c1.3,0,1.6,0.9,1.6,2v2.7h-0.9v-2.6c0-0.8-0.1-1.3-1-1.3
		c-1.1,0-1.1,1-1.1,1.8v2.1h-0.9v-8.4H131.6z"/>
	<path class="st4" d="M137.6,457.7c0,0.3-0.3,0.6-0.6,0.6s-0.6-0.3-0.6-0.6c0-0.3,0.3-0.6,0.6-0.6S137.6,457.4,137.6,457.7z
		 M137.4,464.4h-0.9v-4.5h0.9V464.4z"/>
	<path class="st4" d="M140.3,460.4L140.3,460.4c0.3-0.5,0.8-0.7,1.4-0.7c1.3,0,1.6,0.9,1.6,2v2.7h-0.9v-2.6c0-0.8-0.1-1.3-1-1.3
		c-1.1,0-1.1,1-1.1,1.8v2.1h-0.9v-4.5h0.9V460.4z"/>
	<path class="st4" d="M145.6,462.2c0,0.8,0.5,1.5,1.4,1.5c0.7,0,1-0.3,1.4-0.9l0.7,0.4c-0.4,0.8-1.2,1.2-2.1,1.2
		c-1.4,0-2.2-1-2.2-2.4c0-1.4,0.7-2.4,2.2-2.4c1.4,0,2.1,1.1,2.1,2.4v0.1H145.6z M148.2,461.6c-0.1-0.7-0.6-1.1-1.3-1.1
		c-0.7,0-1.2,0.5-1.3,1.1H148.2z"/>
	<path class="st4" d="M152.2,460.9c-0.1-0.2-0.3-0.4-0.6-0.4c-0.2,0-0.5,0.2-0.5,0.4c0,0.4,0.5,0.6,1.1,0.8c0.5,0.2,1,0.6,1,1.3
		c0,0.9-0.7,1.5-1.6,1.5c-0.7,0-1.3-0.4-1.6-1l0.7-0.3c0.2,0.3,0.4,0.6,0.8,0.6c0.4,0,0.7-0.3,0.7-0.6c0-0.2-0.1-0.4-0.3-0.5
		l-0.9-0.5c-0.5-0.3-0.9-0.5-0.9-1.1c0-0.7,0.6-1.3,1.3-1.3c0.6,0,1,0.3,1.2,0.8L152.2,460.9z"/>
</g>
<g>
	<path class="st4" d="M99.6,494h1.5c2.2,0,4.1,1.2,4.1,3.6c0,2.5-1.8,3.7-4.1,3.7h-1.5V494z M100.5,500.4h0.3c1.9,0,3.5-0.7,3.5-2.8
		c0-2.1-1.6-2.8-3.5-2.8h-0.3V500.4z"/>
	<path class="st4" d="M107.1,499.2c0,0.8,0.5,1.5,1.4,1.5c0.7,0,1-0.3,1.4-0.9l0.7,0.4c-0.4,0.8-1.2,1.2-2.1,1.2
		c-1.4,0-2.2-1-2.2-2.4c0-1.4,0.7-2.4,2.2-2.4c1.4,0,2.1,1.1,2.1,2.4v0.1H107.1z M109.7,498.5c-0.1-0.7-0.6-1.1-1.3-1.1
		c-0.7,0-1.2,0.5-1.3,1.1H109.7z"/>
	<path class="st4" d="M115.3,498c-0.3-0.4-0.8-0.6-1.3-0.6c-0.9,0-1.5,0.8-1.5,1.6c0,0.9,0.7,1.6,1.6,1.6c0.5,0,0.9-0.2,1.2-0.6v1.1
		c-0.4,0.2-0.8,0.3-1.3,0.3c-1.3,0-2.4-1-2.4-2.4c0-1.4,1.1-2.4,2.5-2.4c0.4,0,0.9,0.1,1.2,0.3V498z"/>
	<path class="st4" d="M118,494.7c0,0.3-0.3,0.6-0.6,0.6s-0.6-0.3-0.6-0.6c0-0.3,0.3-0.6,0.6-0.6S118,494.3,118,494.7z M117.9,501.3
		H117v-4.5h0.9V501.3z"/>
	<path class="st4" d="M121.7,497.8c-0.1-0.2-0.3-0.4-0.6-0.4c-0.2,0-0.5,0.2-0.5,0.4c0,0.4,0.5,0.6,1.1,0.8c0.5,0.2,1,0.6,1,1.3
		c0,0.9-0.7,1.5-1.6,1.5c-0.7,0-1.3-0.4-1.6-1l0.7-0.3c0.2,0.3,0.4,0.6,0.8,0.6c0.4,0,0.7-0.3,0.7-0.6c0-0.2-0.1-0.4-0.3-0.5
		l-0.9-0.5c-0.5-0.3-0.9-0.5-0.9-1.1c0-0.7,0.6-1.3,1.3-1.3c0.6,0,1,0.3,1.2,0.8L121.7,497.8z"/>
	<path class="st4" d="M125.4,494.7c0,0.3-0.3,0.6-0.6,0.6s-0.6-0.3-0.6-0.6c0-0.3,0.3-0.6,0.6-0.6S125.4,494.3,125.4,494.7z
		 M125.3,501.3h-0.9v-4.5h0.9V501.3z"/>
	<path class="st4" d="M131.7,499c0,1.4-1.1,2.4-2.4,2.4c-1.4,0-2.4-1-2.4-2.4s1.1-2.4,2.4-2.4C130.6,496.6,131.7,497.6,131.7,499z
		 M127.7,499c0,0.9,0.7,1.6,1.6,1.6c0.9,0,1.6-0.7,1.6-1.6c0-0.9-0.7-1.6-1.6-1.6C128.4,497.4,127.7,498.2,127.7,499z"/>
	<path class="st4" d="M133.9,497.3L133.9,497.3c0.3-0.5,0.8-0.7,1.4-0.7c1.3,0,1.6,0.9,1.6,2v2.7h-0.9v-2.6c0-0.8-0.1-1.3-1-1.3
		c-1.1,0-1.1,1-1.1,1.8v2.1h-0.9v-4.5h0.9V497.3z"/>
	<path class="st4" d="M144.2,501.3h-0.9v-6.5h-1.7V494h4.4v0.8h-1.7V501.3z"/>
	<path class="st4" d="M148.1,497.5L148.1,497.5c0.2-0.5,0.7-0.9,1.3-0.9c0.3,0,0.5,0.1,0.7,0.2l-0.4,0.8c-0.2-0.1-0.3-0.2-0.5-0.2
		c-0.9,0-1.1,0.9-1.1,1.6v2.2h-0.9v-4.5h0.9V497.5z"/>
	<path class="st4" d="M151.7,499.2c0,0.8,0.5,1.5,1.4,1.5c0.7,0,1-0.3,1.4-0.9l0.7,0.4c-0.4,0.8-1.2,1.2-2.1,1.2
		c-1.4,0-2.2-1-2.2-2.4c0-1.4,0.7-2.4,2.2-2.4c1.4,0,2.1,1.1,2.1,2.4v0.1H151.7z M154.3,498.5c-0.1-0.7-0.6-1.1-1.3-1.1
		c-0.7,0-1.2,0.5-1.3,1.1H154.3z"/>
	<path class="st4" d="M157,499.2c0,0.8,0.5,1.5,1.4,1.5c0.7,0,1-0.3,1.4-0.9l0.7,0.4c-0.4,0.8-1.2,1.2-2.1,1.2c-1.4,0-2.2-1-2.2-2.4
		c0-1.4,0.7-2.4,2.2-2.4c1.4,0,2.1,1.1,2.1,2.4v0.1H157z M159.6,498.5c-0.1-0.7-0.6-1.1-1.3-1.1c-0.7,0-1.2,0.5-1.3,1.1H159.6z"/>
	<path class="st4" d="M163.6,497.8c-0.1-0.2-0.3-0.4-0.6-0.4c-0.2,0-0.5,0.2-0.5,0.4c0,0.4,0.5,0.6,1.1,0.8c0.5,0.2,1,0.6,1,1.3
		c0,0.9-0.7,1.5-1.6,1.5c-0.7,0-1.3-0.4-1.6-1l0.7-0.3c0.2,0.3,0.4,0.6,0.8,0.6c0.4,0,0.7-0.3,0.7-0.6c0-0.2-0.1-0.4-0.3-0.5
		l-0.9-0.5c-0.5-0.3-0.9-0.5-0.9-1.1c0-0.7,0.6-1.3,1.3-1.3c0.6,0,1,0.3,1.2,0.8L163.6,497.8z"/>
</g>
<g>
	<path class="st4" d="M90.3,536.1h3.9v0.8h-3v2.1h2.9v0.8h-2.9v2.8h3v0.8h-3.9V536.1z"/>
	<path class="st4" d="M96.7,539.5L96.7,539.5c0.3-0.5,0.8-0.7,1.4-0.7c1.3,0,1.6,0.9,1.6,2v2.7h-0.9v-2.6c0-0.8-0.1-1.3-1-1.3
		c-1.1,0-1.1,1-1.1,1.8v2.1h-0.9v-4.5h0.9V539.5z"/>
	<path class="st4" d="M103.3,539.9c-0.1-0.2-0.3-0.4-0.6-0.4c-0.2,0-0.5,0.2-0.5,0.4c0,0.4,0.5,0.6,1.1,0.8c0.5,0.2,1,0.6,1,1.3
		c0,0.9-0.7,1.5-1.6,1.5c-0.7,0-1.3-0.4-1.6-1l0.7-0.3c0.2,0.3,0.4,0.6,0.8,0.6c0.4,0,0.7-0.3,0.7-0.6c0-0.2-0.1-0.4-0.3-0.5
		l-0.9-0.5c-0.5-0.3-0.9-0.5-0.9-1.1c0-0.7,0.6-1.3,1.3-1.3c0.6,0,1,0.3,1.2,0.8L103.3,539.9z"/>
	<path class="st4" d="M106.3,541.3c0,0.8,0.5,1.5,1.4,1.5c0.7,0,1-0.3,1.4-0.9l0.7,0.4c-0.4,0.8-1.2,1.2-2.1,1.2
		c-1.4,0-2.2-1-2.2-2.4c0-1.4,0.7-2.4,2.2-2.4c1.4,0,2.1,1.1,2.1,2.4v0.1H106.3z M108.9,540.6c-0.1-0.7-0.6-1.1-1.3-1.1
		c-0.7,0-1.2,0.5-1.3,1.1H108.9z"/>
	<path class="st4" d="M112,539.5L112,539.5c0.3-0.4,0.7-0.7,1.2-0.7c0.6,0,1,0.3,1.3,0.8c0.3-0.5,0.8-0.8,1.4-0.8
		c1.2,0,1.5,0.9,1.5,2v2.7h-0.9v-2.6c0-0.6-0.1-1.3-0.8-1.3c-0.9,0-1,1-1,1.7v2.2h-0.9V541c0-0.6,0-1.5-0.8-1.5c-0.9,0-1,1-1,1.7
		v2.2h-0.9v-4.5h0.9V539.5z"/>
	<path class="st4" d="M119.1,535h0.9v4.6h0c0.4-0.5,0.9-0.9,1.6-0.9c1.3,0,2.1,1.1,2.1,2.4c0,1.3-0.8,2.5-2.2,2.5
		c-0.6,0-1.2-0.3-1.5-0.9h0v0.7h-0.9V535z M122.8,541.2c0-0.9-0.5-1.6-1.5-1.6c-0.9,0-1.4,0.8-1.4,1.6c0,0.9,0.5,1.7,1.4,1.7
		C122.3,542.8,122.8,542.1,122.8,541.2z"/>
	<path class="st4" d="M126.1,543.4h-0.9V535h0.9V543.4z"/>
	<path class="st4" d="M128.4,541.3c0,0.8,0.5,1.5,1.4,1.5c0.7,0,1-0.3,1.4-0.9l0.7,0.4c-0.4,0.8-1.2,1.2-2.1,1.2
		c-1.4,0-2.2-1-2.2-2.4c0-1.4,0.7-2.4,2.2-2.4c1.4,0,2.1,1.1,2.1,2.4v0.1H128.4z M131,540.6c-0.1-0.7-0.6-1.1-1.3-1.1
		c-0.7,0-1.2,0.5-1.3,1.1H131z"/>
	<path class="st4" d="M138,538.6L138,538.6l-0.9,4.8h-0.9l1.5-7.6l2.5,5.8l2.5-5.8l1.5,7.6h-0.9l-0.9-4.8h0l-2.2,5L138,538.6z"/>
	<path class="st4" d="M146,541.3c0,0.8,0.5,1.5,1.4,1.5c0.7,0,1-0.3,1.4-0.9l0.7,0.4c-0.4,0.8-1.2,1.2-2.1,1.2c-1.4,0-2.2-1-2.2-2.4
		c0-1.4,0.7-2.4,2.2-2.4c1.4,0,2.1,1.1,2.1,2.4v0.1H146z M148.6,540.6c-0.1-0.7-0.6-1.1-1.3-1.1c-0.7,0-1.2,0.5-1.3,1.1H148.6z"/>
	<path class="st4" d="M151.8,543.4h-0.9v-3.7h-0.5v-0.8h0.5v-1.7h0.9v1.7h0.9v0.8h-0.9V543.4z"/>
	<path class="st4" d="M154.6,535v4.5h0c0.3-0.5,0.8-0.7,1.4-0.7c1.3,0,1.6,0.9,1.6,2v2.7h-0.9v-2.6c0-0.8-0.1-1.3-1-1.3
		c-1.1,0-1.1,1-1.1,1.8v2.1h-0.9V535H154.6z"/>
	<path class="st4" d="M163.8,541.2c0,1.4-1.1,2.4-2.4,2.4c-1.4,0-2.4-1-2.4-2.4s1.1-2.4,2.4-2.4
		C162.8,538.8,163.8,539.8,163.8,541.2z M159.8,541.2c0,0.9,0.7,1.6,1.6,1.6c0.9,0,1.6-0.7,1.6-1.6c0-0.9-0.7-1.6-1.6-1.6
		C160.5,539.6,159.8,540.3,159.8,541.2z"/>
	<path class="st4" d="M168.6,542.7L168.6,542.7c-0.4,0.5-0.9,0.9-1.6,0.9c-1.4,0-2.2-1.2-2.2-2.5c0-1.2,0.8-2.4,2.1-2.4
		c0.7,0,1.2,0.3,1.6,0.9h0V535h0.9v8.4h-0.9V542.7z M168.7,541.2c0-0.9-0.5-1.6-1.5-1.6c-0.9,0-1.4,0.8-1.4,1.6
		c0,0.9,0.5,1.7,1.4,1.7C168.1,542.8,168.7,542.1,168.7,541.2z"/>
	<path class="st4" d="M173,539.9c-0.1-0.2-0.3-0.4-0.6-0.4c-0.2,0-0.5,0.2-0.5,0.4c0,0.4,0.5,0.6,1.1,0.8c0.5,0.2,1,0.6,1,1.3
		c0,0.9-0.7,1.5-1.6,1.5c-0.7,0-1.3-0.4-1.6-1l0.7-0.3c0.2,0.3,0.4,0.6,0.8,0.6c0.4,0,0.7-0.3,0.7-0.6c0-0.2-0.1-0.4-0.3-0.5
		l-0.9-0.5c-0.5-0.3-0.9-0.5-0.9-1.1c0-0.7,0.6-1.3,1.3-1.3c0.6,0,1,0.3,1.2,0.8L173,539.9z"/>
</g>
<g>
	<path class="st4" d="M93.6,579.2l5.5,5.8v-5.4h0.9v7.6l-5.5-5.8v5.5h-0.9V579.2z"/>
	<path class="st4" d="M102.3,584.7c0,0.8,0.5,1.5,1.4,1.5c0.7,0,1-0.3,1.4-0.9l0.7,0.4c-0.4,0.8-1.2,1.2-2.1,1.2
		c-1.4,0-2.2-1-2.2-2.4c0-1.4,0.7-2.4,2.2-2.4c1.4,0,2.1,1.1,2.1,2.4v0.1H102.3z M104.9,584.1c-0.1-0.7-0.6-1.1-1.3-1.1
		c-0.7,0-1.2,0.5-1.3,1.1H104.9z"/>
	<path class="st4" d="M108,582.3v2.5c0,0.7,0.2,1.4,1,1.4s1-0.6,1-1.4v-2.5h0.9v2.6c0,1.2-0.6,2.1-1.9,2.1s-1.9-0.8-1.9-2.1v-2.6
		H108z"/>
	<path class="st4" d="M113.6,583L113.6,583c0.2-0.5,0.7-0.9,1.3-0.9c0.3,0,0.5,0.1,0.7,0.2l-0.4,0.8c-0.2-0.1-0.3-0.2-0.5-0.2
		c-0.9,0-1.1,0.9-1.1,1.6v2.2h-0.9v-4.5h0.9V583z"/>
	<path class="st4" d="M121,586.8h-0.9v-0.7h0c-0.3,0.5-0.9,0.9-1.5,0.9c-1.4,0-2.2-1.2-2.2-2.5c0-1.2,0.8-2.4,2.1-2.4
		c0.7,0,1.2,0.3,1.6,0.9h0v-0.8h0.9V586.8z M120.1,584.6c0-0.9-0.5-1.6-1.5-1.6c-0.9,0-1.4,0.8-1.4,1.6c0,0.9,0.5,1.7,1.4,1.7
		C119.6,586.2,120.1,585.5,120.1,584.6z"/>
	<path class="st4" d="M123.6,586.8h-0.9v-8.4h0.9V586.8z"/>
	<path class="st4" d="M128.8,579.2l5.5,5.8v-5.4h0.9v7.6l-5.5-5.8v5.5h-0.9V579.2z"/>
	<path class="st4" d="M137.6,584.7c0,0.8,0.5,1.5,1.4,1.5c0.7,0,1-0.3,1.4-0.9l0.7,0.4c-0.4,0.8-1.2,1.2-2.1,1.2
		c-1.4,0-2.2-1-2.2-2.4c0-1.4,0.7-2.4,2.2-2.4c1.4,0,2.1,1.1,2.1,2.4v0.1H137.6z M140.2,584.1c-0.1-0.7-0.6-1.1-1.3-1.1
		c-0.7,0-1.2,0.5-1.3,1.1H140.2z"/>
	<path class="st4" d="M143.4,586.8h-0.9v-3.7H142v-0.8h0.5v-1.7h0.9v1.7h0.9v0.8h-0.9V586.8z"/>
	<path class="st4" d="M146.8,585.2l1.3-3.1l1.3,3.1l1.3-2.9h1l-2.3,4.7l-1.3-3l-1.3,3l-2.3-4.7h1L146.8,585.2z"/>
	<path class="st4" d="M157.3,584.6c0,1.4-1.1,2.4-2.4,2.4c-1.4,0-2.4-1-2.4-2.4s1.1-2.4,2.4-2.4
		C156.2,582.2,157.3,583.2,157.3,584.6z M153.3,584.6c0,0.9,0.7,1.6,1.6,1.6c0.9,0,1.6-0.7,1.6-1.6c0-0.9-0.7-1.6-1.6-1.6
		C154,583,153.3,583.7,153.3,584.6z"/>
	<path class="st4" d="M159.6,583L159.6,583c0.2-0.5,0.7-0.9,1.3-0.9c0.3,0,0.5,0.1,0.7,0.2l-0.4,0.8c-0.2-0.1-0.3-0.2-0.5-0.2
		c-0.9,0-1.1,0.9-1.1,1.6v2.2h-0.9v-4.5h0.9V583z"/>
	<path class="st4" d="M163.6,584l1.7-1.7h1.2l-1.9,1.9l2.1,2.7h-1.1l-1.6-2.1l-0.3,0.3v1.8h-0.9v-8.4h0.9V584z"/>
	<path class="st4" d="M169.6,583.3c-0.1-0.2-0.3-0.4-0.6-0.4c-0.2,0-0.5,0.2-0.5,0.4c0,0.4,0.5,0.6,1.1,0.8c0.5,0.2,1,0.6,1,1.3
		c0,0.9-0.7,1.5-1.6,1.5c-0.7,0-1.3-0.4-1.6-1l0.7-0.3c0.2,0.3,0.4,0.6,0.8,0.6c0.4,0,0.7-0.3,0.7-0.6c0-0.2-0.1-0.4-0.3-0.5
		l-0.9-0.5c-0.5-0.3-0.9-0.5-0.9-1.1c0-0.7,0.6-1.3,1.3-1.3c0.6,0,1,0.3,1.2,0.8L169.6,583.3z"/>
</g>
<polyline class="st3" points="170.5,229.5 186.7,231.9 189.1,215.8 "/>
<polyline class="st3" points="102.2,229.5 86.1,231.9 83.6,215.8 "/>
<polyline class="st3" points="273.5,112.1 289.6,114.5 292.1,98.4 "/>
<polyline class="st3" points="205.2,112.1 189,114.5 186.6,98.4 "/>
<g id="Artwork_1_00000132069092867446894840000010146658284291953840_">
	<g>
		<path class="st5" d="M168,54.2c-3.9,0-7-3.2-7-7v-38c0-3.9,3.2-7,7-7h142.3c3.9,0,7,3.2,7,7v38c0,3.9-3.2,7-7,7H168z"/>
		<path class="st6" d="M310.2,2.5c3.6,0,6.6,3,6.6,6.6v38c0,3.6-3,6.6-6.6,6.6H168c-3.6,0-6.6-3-6.6-6.6v-38c0-3.6,3-6.6,6.6-6.6
			H310.2 M310.2,1.7H168c-4.1,0-7.4,3.3-7.4,7.4v38c0,4.1,3.3,7.4,7.4,7.4h142.3c4.1,0,7.4-3.3,7.4-7.4v-38
			C317.7,5,314.3,1.7,310.2,1.7L310.2,1.7z"/>
	</g>
</g>
<g id="Artwork_1_00000072269864665277732550000003395120778462318226_">
	<g>
		<path class="st5" d="M279.5,172.2c-3.9,0-7-3.2-7-7v-38c0-3.9,3.2-7,7-7h109.2c3.9,0,7,3.2,7,7v38c0,3.9-3.2,7-7,7H279.5z"/>
		<path class="st6" d="M388.7,120.6c3.6,0,6.6,3,6.6,6.6v38c0,3.6-3,6.6-6.6,6.6H279.5c-3.6,0-6.6-3-6.6-6.6v-38
			c0-3.6,3-6.6,6.6-6.6H388.7 M388.7,119.7H279.5c-4.1,0-7.4,3.3-7.4,7.4v38c0,4.1,3.3,7.4,7.4,7.4h109.2c4.1,0,7.4-3.3,7.4-7.4v-38
			C396.1,123.1,392.8,119.7,388.7,119.7L388.7,119.7z"/>
	</g>
</g>
<g id="Artwork_1_00000072993720081201552440000005423303610640634496_">
	<g>
		<path class="st5" d="M81.8,172.2c-3.9,0-7-3.2-7-7v-38c0-3.9,3.2-7,7-7H191c3.9,0,7,3.2,7,7v38c0,3.9-3.2,7-7,7H81.8z"/>
		<path class="st6" d="M191,120.6c3.6,0,6.6,3,6.6,6.6v38c0,3.6-3,6.6-6.6,6.6H81.8c-3.6,0-6.6-3-6.6-6.6v-38c0-3.6,3-6.6,6.6-6.6
			H191 M191,119.7H81.8c-4.1,0-7.4,3.3-7.4,7.4v38c0,4.1,3.3,7.4,7.4,7.4H191c4.1,0,7.4-3.3,7.4-7.4v-38
			C198.4,123.1,195.1,119.7,191,119.7L191,119.7z"/>
	</g>
</g>
<g id="Artwork_1_00000093175682516492908860000012774010978076195211_">
	<g>
		<path class="st5" d="M13.8,294.1c-3.8,0-6.8-3.1-6.8-6.8v-38.4c0-3.8,3.1-6.8,6.8-6.8h102.9c3.8,0,6.8,3.1,6.8,6.8v38.4
			c0,3.8-3.1,6.8-6.8,6.8H13.8z"/>
		<path class="st6" d="M116.7,242.4c3.5,0,6.4,2.9,6.4,6.4v38.4c0,3.5-2.9,6.4-6.4,6.4H13.8c-3.5,0-6.4-2.9-6.4-6.4v-38.4
			c0-3.5,2.9-6.4,6.4-6.4H116.7 M116.7,241.6H13.8c-4,0-7.2,3.2-7.2,7.2v38.4c0,4,3.2,7.2,7.2,7.2h102.9c4,0,7.2-3.2,7.2-7.2v-38.4
			C123.9,244.8,120.7,241.6,116.7,241.6L116.7,241.6z"/>
	</g>
</g>
<g id="Artwork_1_00000101818616382350516050000012146090123200660150_">
	<g>
		<path class="st5" d="M148.2,294.1c-3.8,0-6.8-3.1-6.8-6.8v-38.4c0-3.8,3.1-6.8,6.8-6.8h102.9c3.8,0,6.8,3.1,6.8,6.8v38.4
			c0,3.8-3.1,6.8-6.8,6.8H148.2z"/>
		<path class="st6" d="M251.1,242.4c3.5,0,6.4,2.9,6.4,6.4v38.4c0,3.5-2.9,6.4-6.4,6.4H148.2c-3.5,0-6.4-2.9-6.4-6.4v-38.4
			c0-3.5,2.9-6.4,6.4-6.4H251.1 M251.1,241.6H148.2c-4,0-7.2,3.2-7.2,7.2v38.4c0,4,3.2,7.2,7.2,7.2h102.9c4,0,7.2-3.2,7.2-7.2v-38.4
			C258.4,244.8,255.1,241.6,251.1,241.6L251.1,241.6z"/>
	</g>
</g>
<g id="Artwork_1_00000106835791846438259710000007447980221920841124_">
	<g>
		<path class="st5" d="M282.7,294.1c-3.8,0-6.8-3.1-6.8-6.8v-38.4c0-3.8,3.1-6.8,6.8-6.8h102.9c3.8,0,6.8,3.1,6.8,6.8v38.4
			c0,3.8-3.1,6.8-6.8,6.8H282.7z"/>
		<path class="st6" d="M385.5,242.4c3.5,0,6.4,2.9,6.4,6.4v38.4c0,3.5-2.9,6.4-6.4,6.4H282.7c-3.5,0-6.4-2.9-6.4-6.4v-38.4
			c0-3.5,2.9-6.4,6.4-6.4H385.5 M385.5,241.6H282.7c-4,0-7.2,3.2-7.2,7.2v38.4c0,4,3.2,7.2,7.2,7.2h102.9c4,0,7.2-3.2,7.2-7.2v-38.4
			C392.8,244.8,389.5,241.6,385.5,241.6L385.5,241.6z"/>
	</g>
</g>
<g>
	<path class="st7" d="M180.1,27.2L180.1,27.2l-2.3,6.3h-0.7l-2.2-6.3h0l-0.9,6.2h-2l1.7-10.3h1.4l2.5,6.6l2.4-6.6h1.4l1.5,10.3h-2
		L180.1,27.2z"/>
	<path class="st7" d="M186.5,31.3l-0.8,2.1h-2.1l3.9-10.3h1.5l3.8,10.3h-2.1l-0.8-2.1H186.5z M188.2,26.1L188.2,26.1l-1.1,3.6h2.4
		L188.2,26.1z"/>
	<path class="st7" d="M200.9,26c-0.5-0.7-1.4-1.1-2.2-1.1c-1.9,0-2.9,1.7-2.9,3.4c0,1.7,1.1,3.4,2.9,3.4c0.8,0,1.7-0.4,2.2-1.1v2.3
		c-0.7,0.3-1.5,0.6-2.3,0.6c-2.8,0-4.9-2.4-4.9-5.2c0-2.8,2-5.3,4.9-5.3c0.8,0,1.6,0.2,2.2,0.6V26z"/>
	<path class="st7" d="M208.5,27.3v-3.9h1.9v10h-1.9v-4.5h-3.6v4.5H203v-10h1.9v3.9H208.5z"/>
	<path class="st7" d="M214.6,33.4h-1.9v-10h1.9V33.4z"/>
	<path class="st7" d="M216.9,23.1h1.4l5.3,7h0v-6.7h1.9v10.2h-1.4l-5.3-7h0v6.8h-1.9V23.1z"/>
	<path class="st7" d="M229.7,25.1v2.2h3.1V29h-3.1v2.7h3.2v1.7h-5.2v-10h5.2v1.7H229.7z"/>
	<path class="st7" d="M241.6,31.7h2.8v1.7h-4.7v-10h1.9V31.7z"/>
	<path class="st7" d="M247.7,25.1v2.2h3.1V29h-3.1v2.7h3.2v1.7h-5.2v-10h5.2v1.7H247.7z"/>
	<path class="st7" d="M255,31.3l-0.8,2.1h-2.1l3.9-10.3h1.5l3.8,10.3h-2.1l-0.8-2.1H255z M256.7,26.1L256.7,26.1l-1.1,3.6h2.4
		L256.7,26.1z"/>
	<path class="st7" d="M269.5,33.4h-2.4l-2.4-4h0v4h-1.9v-10h2.6c2,0,3.3,0.9,3.3,3c0,1.3-0.7,2.5-2,2.8L269.5,33.4z M264.7,28h0.3
		c1.1,0,1.8-0.3,1.8-1.5c0-1.2-0.8-1.5-1.8-1.5h-0.3V28z"/>
	<path class="st7" d="M270.9,23.1h1.4l5.3,7h0v-6.7h1.9v10.2h-1.4l-5.3-7h0v6.8h-1.9V23.1z"/>
	<path class="st7" d="M283.7,33.4h-1.9v-10h1.9V33.4z"/>
	<path class="st7" d="M285.9,23.1h1.4l5.3,7h0v-6.7h1.9v10.2h-1.4l-5.3-7h0v6.8h-1.9V23.1z"/>
	<path class="st7" d="M305.6,28.1v0.3c0,2.8-1.4,5.3-4.5,5.3c-2.9,0-4.8-2.5-4.8-5.2c0-2.9,1.9-5.3,4.9-5.3c1.7,0,3.2,0.9,4,2.4
		l-1.7,0.9c-0.4-0.9-1.2-1.6-2.3-1.6c-1.9,0-2.8,1.9-2.8,3.6c0,1.7,0.9,3.5,2.8,3.5c1.2,0,2.2-1.1,2.3-2.3h-2.1v-1.6H305.6z"/>
</g>
<g>
	<path class="st7" d="M304.3,267c-0.5-0.7-1.4-1.1-2.2-1.1c-1.9,0-2.9,1.7-2.9,3.4c0,1.7,1.1,3.4,2.9,3.4c0.8,0,1.7-0.4,2.2-1.1v2.3
		c-0.7,0.3-1.5,0.6-2.3,0.6c-2.8,0-4.9-2.4-4.9-5.2c0-2.8,2-5.3,4.9-5.3c0.8,0,1.6,0.2,2.2,0.6V267z"/>
	<path class="st7" d="M308.3,272.7h2.8v1.7h-4.7v-10h1.9V272.7z"/>
	<path class="st7" d="M312.4,264.3h1.9v5.6c0,1.2,0.1,3,1.8,3s1.8-1.7,1.8-3v-5.6h1.9v6c0,2.4-1,4.3-3.7,4.3s-3.7-1.8-3.7-4.3V264.3
		z"/>
	<path class="st7" d="M326.8,266.6c-0.4-0.5-0.8-0.8-1.5-0.8c-0.6,0-1.2,0.5-1.2,1.1c0,1.7,4,1,4,4.3c0,2-1.2,3.4-3.3,3.4
		c-1.4,0-2.4-0.8-3.1-1.9l1.3-1.2c0.3,0.8,1,1.5,1.8,1.5c0.8,0,1.3-0.7,1.3-1.4c0-1-1-1.3-1.7-1.6c-1.3-0.5-2.2-1.2-2.2-2.7
		c0-1.7,1.2-3,2.9-3c0.9,0,2.1,0.4,2.7,1.1L326.8,266.6z"/>
	<path class="st7" d="M333.1,274.3h-1.9V266h-2v-1.7h6v1.7h-2V274.3z"/>
	<path class="st7" d="M338.5,266v2.2h3.1v1.7h-3.1v2.7h3.2v1.7h-5.2v-10h5.2v1.7H338.5z"/>
	<path class="st7" d="M350.6,274.3h-2.4l-2.4-4h0v4h-1.9v-10h2.6c2,0,3.3,0.9,3.3,3c0,1.3-0.7,2.5-2,2.8L350.6,274.3z M345.8,269
		h0.3c1.1,0,1.8-0.3,1.8-1.5c0-1.2-0.8-1.5-1.8-1.5h-0.3V269z"/>
	<path class="st7" d="M354,274.3H352v-10h1.9V274.3z"/>
	<path class="st7" d="M356.2,264.1h1.4l5.3,7h0v-6.7h1.9v10.2h-1.4l-5.3-7h0v6.8h-1.9V264.1z"/>
	<path class="st7" d="M375.9,269v0.3c0,2.8-1.4,5.3-4.5,5.3c-2.9,0-4.8-2.5-4.8-5.2c0-2.9,1.9-5.3,4.9-5.3c1.7,0,3.2,0.9,4,2.4
		l-1.7,0.9c-0.4-0.9-1.2-1.6-2.3-1.6c-1.9,0-2.8,1.9-2.8,3.6s0.9,3.5,2.8,3.5c1.2,0,2.2-1.1,2.3-2.3h-2.1V269H375.9z"/>
</g>
<g>
	<path class="st7" d="M20.1,267c-0.5-0.7-1.4-1.1-2.2-1.1c-1.9,0-2.9,1.7-2.9,3.4c0,1.7,1.1,3.4,2.9,3.4c0.8,0,1.7-0.4,2.2-1.1v2.3
		c-0.7,0.3-1.5,0.6-2.3,0.6c-2.8,0-4.9-2.4-4.9-5.2c0-2.8,2-5.3,4.9-5.3c0.8,0,1.6,0.2,2.2,0.6V267z"/>
	<path class="st7" d="M24.1,272.7h2.8v1.7h-4.7v-10h1.9V272.7z"/>
	<path class="st7" d="M30.3,272.2l-0.8,2.1h-2.1l3.9-10.3h1.5l3.8,10.3h-2.1l-0.8-2.1H30.3z M32,267L32,267l-1.1,3.6h2.4L32,267z"/>
	<path class="st7" d="M42.7,266.6c-0.4-0.5-0.8-0.8-1.5-0.8c-0.6,0-1.2,0.5-1.2,1.1c0,1.7,4,1,4,4.3c0,2-1.2,3.4-3.3,3.4
		c-1.4,0-2.4-0.8-3.1-1.9l1.3-1.2c0.3,0.8,1,1.5,1.8,1.5c0.8,0,1.3-0.7,1.3-1.4c0-1-1-1.3-1.7-1.6c-1.3-0.5-2.2-1.2-2.2-2.7
		c0-1.7,1.2-3,2.9-3c0.9,0,2.1,0.4,2.7,1.1L42.7,266.6z"/>
	<path class="st7" d="M50.5,266.6c-0.4-0.5-0.8-0.8-1.5-0.8c-0.6,0-1.2,0.5-1.2,1.1c0,1.7,4,1,4,4.3c0,2-1.2,3.4-3.3,3.4
		c-1.4,0-2.4-0.8-3.1-1.9l1.3-1.2c0.3,0.8,1,1.5,1.8,1.5c0.8,0,1.3-0.7,1.3-1.4c0-1-1-1.3-1.7-1.6c-1.3-0.5-2.2-1.2-2.2-2.7
		c0-1.7,1.2-3,2.9-3c0.9,0,2.1,0.4,2.7,1.1L50.5,266.6z"/>
	<path class="st7" d="M55.5,274.3h-1.9v-10h1.9V274.3z"/>
	<path class="st7" d="M59.7,266v2.2h2.8v1.7h-2.8v4.4h-1.9v-10h5v1.7H59.7z"/>
	<path class="st7" d="M66.6,274.3h-1.9v-10h1.9V274.3z"/>
	<path class="st7" d="M75.5,267c-0.5-0.7-1.4-1.1-2.2-1.1c-1.9,0-2.9,1.7-2.9,3.4c0,1.7,1.1,3.4,2.9,3.4c0.8,0,1.7-0.4,2.2-1.1v2.3
		c-0.7,0.3-1.5,0.6-2.3,0.6c-2.8,0-4.9-2.4-4.9-5.2c0-2.8,2-5.3,4.9-5.3c0.8,0,1.6,0.2,2.2,0.6V267z"/>
	<path class="st7" d="M79.6,272.2l-0.8,2.1h-2.1l3.9-10.3h1.5l3.8,10.3h-2.1l-0.8-2.1H79.6z M81.3,267L81.3,267l-1.1,3.6h2.4
		L81.3,267z"/>
	<path class="st7" d="M89.5,274.3h-1.9V266h-2v-1.7h6v1.7h-2V274.3z"/>
	<path class="st7" d="M95,274.3H93v-10H95V274.3z"/>
	<path class="st7" d="M101.6,274.6c-3,0-4.9-2.3-4.9-5.3c0-3,2-5.2,4.9-5.2s4.9,2.3,4.9,5.2C106.6,272.3,104.7,274.6,101.6,274.6z
		 M101.6,266c-1.8,0-2.9,1.6-2.9,3.2c0,1.5,0.8,3.4,2.9,3.4s2.9-1.9,2.9-3.4C104.6,267.6,103.5,266,101.6,266z"/>
	<path class="st7" d="M108.3,264.1h1.4l5.3,7h0v-6.7h1.9v10.2h-1.4l-5.3-7h0v6.8h-1.9V264.1z"/>
</g>
<g>
	<path class="st7" d="M166.6,274.3h-2.4l-2.4-4h0v4h-1.9v-10h2.6c2,0,3.3,0.9,3.3,3c0,1.3-0.7,2.5-2,2.8L166.6,274.3z M161.8,269
		h0.3c1.1,0,1.8-0.3,1.8-1.5c0-1.2-0.8-1.5-1.8-1.5h-0.3V269z"/>
	<path class="st7" d="M170,266v2.2h3.1v1.7H170v2.7h3.2v1.7H168v-10h5.2v1.7H170z"/>
	<path class="st7" d="M184.1,269v0.3c0,2.8-1.4,5.3-4.5,5.3c-2.9,0-4.8-2.5-4.8-5.2c0-2.9,1.9-5.3,4.9-5.3c1.7,0,3.2,0.9,4,2.4
		l-1.7,0.9c-0.4-0.9-1.2-1.6-2.3-1.6c-1.9,0-2.8,1.9-2.8,3.6s0.9,3.5,2.8,3.5c1.2,0,2.2-1.1,2.3-2.3h-2.1V269H184.1z"/>
	<path class="st7" d="M192.6,274.3h-2.4l-2.4-4h0v4h-1.9v-10h2.6c2,0,3.3,0.9,3.3,3c0,1.3-0.7,2.5-2,2.8L192.6,274.3z M187.8,269
		h0.3c1.1,0,1.8-0.3,1.8-1.5c0-1.2-0.8-1.5-1.8-1.5h-0.3V269z"/>
	<path class="st7" d="M196,266v2.2h3.1v1.7H196v2.7h3.2v1.7H194v-10h5.2v1.7H196z"/>
	<path class="st7" d="M206,266.6c-0.4-0.5-0.8-0.8-1.5-0.8c-0.6,0-1.2,0.5-1.2,1.1c0,1.7,4,1,4,4.3c0,2-1.2,3.4-3.3,3.4
		c-1.4,0-2.4-0.8-3.1-1.9l1.3-1.2c0.3,0.8,1,1.5,1.8,1.5c0.8,0,1.3-0.7,1.3-1.4c0-1-1-1.3-1.7-1.6c-1.3-0.5-2.2-1.2-2.2-2.7
		c0-1.7,1.2-3,2.9-3c0.9,0,2.1,0.4,2.7,1.1L206,266.6z"/>
	<path class="st7" d="M213.8,266.6c-0.4-0.5-0.8-0.8-1.5-0.8c-0.6,0-1.2,0.5-1.2,1.1c0,1.7,4,1,4,4.3c0,2-1.2,3.4-3.3,3.4
		c-1.4,0-2.4-0.8-3.1-1.9l1.3-1.2c0.3,0.8,1,1.5,1.8,1.5c0.8,0,1.3-0.7,1.3-1.4c0-1-1-1.3-1.7-1.6c-1.3-0.5-2.2-1.2-2.2-2.7
		c0-1.7,1.2-3,2.9-3c0.9,0,2.1,0.4,2.7,1.1L213.8,266.6z"/>
	<path class="st7" d="M218.8,274.3h-1.9v-10h1.9V274.3z"/>
	<path class="st7" d="M225.5,274.6c-3,0-4.9-2.3-4.9-5.3c0-3,2-5.2,4.9-5.2s4.9,2.3,4.9,5.2C230.4,272.3,228.5,274.6,225.5,274.6z
		 M225.5,266c-1.8,0-2.9,1.6-2.9,3.2c0,1.5,0.8,3.4,2.9,3.4s2.9-1.9,2.9-3.4C228.4,267.6,227.3,266,225.5,266z"/>
	<path class="st7" d="M232.2,264.1h1.4l5.3,7h0v-6.7h1.9v10.2h-1.4l-5.3-7h0v6.8h-1.9V264.1z"/>
</g>
<g>
	<path class="st7" d="M285.8,135.4h1.9v5.6c0,1.2,0.1,3,1.8,3s1.8-1.7,1.8-3v-5.6h1.9v6c0,2.4-1,4.3-3.7,4.3s-3.7-1.8-3.7-4.3V135.4
		z"/>
	<path class="st7" d="M295.4,135.1h1.4l5.3,7h0v-6.7h1.9v10.2h-1.4l-5.3-7h0v6.8h-1.9V135.1z"/>
	<path class="st7" d="M310.9,137.6c-0.4-0.5-0.8-0.8-1.5-0.8c-0.6,0-1.2,0.5-1.2,1.1c0,1.7,4,1,4,4.3c0,2-1.2,3.4-3.3,3.4
		c-1.4,0-2.4-0.8-3.1-1.9l1.3-1.2c0.3,0.8,1,1.5,1.8,1.5c0.8,0,1.3-0.7,1.3-1.4c0-1-1-1.3-1.7-1.6c-1.3-0.5-2.2-1.2-2.2-2.7
		c0-1.7,1.2-3,2.9-3c0.9,0,2.1,0.4,2.7,1.1L310.9,137.6z"/>
	<path class="st7" d="M313.9,135.4h1.9v5.6c0,1.2,0.1,3,1.8,3s1.8-1.7,1.8-3v-5.6h1.9v6c0,2.4-1,4.3-3.7,4.3s-3.7-1.8-3.7-4.3V135.4
		z"/>
	<path class="st7" d="M325.5,145.4h-1.9v-10h2.7c2.1,0,3.5,0.8,3.5,3.1c0,2.1-1.2,3.2-3.2,3.2h-1V145.4z M325.5,140h0.4
		c1.2,0,1.8-0.3,1.8-1.6c0-1.3-0.7-1.5-1.8-1.5h-0.3V140z"/>
	<path class="st7" d="M333.3,137.1v2.2h3.1v1.7h-3.1v2.7h3.2v1.7h-5.2v-10h5.2v1.7H333.3z"/>
	<path class="st7" d="M345.3,145.4H343l-2.4-4h0v4h-1.9v-10h2.6c2,0,3.3,0.9,3.3,3c0,1.3-0.7,2.5-2,2.8L345.3,145.4z M340.5,140h0.3
		c1.1,0,1.8-0.3,1.8-1.5c0-1.2-0.8-1.5-1.8-1.5h-0.3V140z"/>
	<path class="st7" d="M350.4,142.1L350.4,142.1l2.3-6.7h2.1l-3.9,10.3h-1.1l-3.8-10.3h2.1L350.4,142.1z"/>
	<path class="st7" d="M358,145.4H356v-10h1.9V145.4z"/>
	<path class="st7" d="M364.9,137.6c-0.4-0.5-0.8-0.8-1.5-0.8c-0.6,0-1.2,0.5-1.2,1.1c0,1.7,4,1,4,4.3c0,2-1.2,3.4-3.3,3.4
		c-1.4,0-2.4-0.8-3.1-1.9l1.3-1.2c0.3,0.8,1,1.5,1.8,1.5c0.8,0,1.3-0.7,1.3-1.4c0-1-1-1.3-1.7-1.6c-1.3-0.5-2.2-1.2-2.2-2.7
		c0-1.7,1.2-3,2.9-3c0.9,0,2.1,0.4,2.7,1.1L364.9,137.6z"/>
	<path class="st7" d="M369.9,137.1v2.2h3.1v1.7h-3.1v2.7h3.2v1.7H368v-10h5.2v1.7H369.9z"/>
	<path class="st7" d="M375.2,135.4h2.8c2.9,0,4.8,2.2,4.8,5c0,2.8-2,5-4.8,5h-2.8V135.4z M377.2,143.7h0.3c2.4,0,3.3-1.3,3.3-3.3
		c0-2.2-1.1-3.3-3.3-3.3h-0.3V143.7z"/>
</g>
<g>
	<path class="st7" d="M303.3,158.7h2.8v1.7h-4.7v-10h1.9V158.7z"/>
	<path class="st7" d="M309.4,152.1v2.2h3.1v1.7h-3.1v2.7h3.2v1.7h-5.2v-10h5.2v1.7H309.4z"/>
	<path class="st7" d="M316.7,158.3l-0.8,2.1h-2.1l3.9-10.3h1.5l3.8,10.3H321l-0.8-2.1H316.7z M318.4,153.1L318.4,153.1l-1.1,3.6h2.4
		L318.4,153.1z"/>
	<path class="st7" d="M331.2,160.4h-2.4l-2.4-4h0v4h-1.9v-10h2.6c2,0,3.3,0.9,3.3,3c0,1.3-0.7,2.5-2,2.8L331.2,160.4z M326.4,155
		h0.3c1.1,0,1.8-0.3,1.8-1.5c0-1.2-0.8-1.5-1.8-1.5h-0.3V155z"/>
	<path class="st7" d="M332.6,150.1h1.4l5.3,7h0v-6.7h1.9v10.2h-1.4l-5.3-7h0v6.8h-1.9V150.1z"/>
	<path class="st7" d="M345.4,160.4h-1.9v-10h1.9V160.4z"/>
	<path class="st7" d="M347.6,150.1h1.4l5.3,7h0v-6.7h1.9v10.2h-1.4l-5.3-7h0v6.8h-1.9V150.1z"/>
	<path class="st7" d="M367.3,155.1v0.3c0,2.8-1.4,5.3-4.5,5.3c-2.9,0-4.8-2.5-4.8-5.2c0-2.9,1.9-5.3,4.9-5.3c1.7,0,3.2,0.9,4,2.4
		l-1.7,0.9c-0.4-0.9-1.2-1.6-2.3-1.6c-1.9,0-2.8,1.9-2.8,3.6s0.9,3.5,2.8,3.5c1.2,0,2.2-1.1,2.3-2.3H363v-1.6H367.3z"/>
</g>
<g>
	<path class="st7" d="M104.4,137.1c-0.4-0.5-0.8-0.8-1.5-0.8c-0.6,0-1.2,0.5-1.2,1.1c0,1.7,4,1,4,4.3c0,2-1.2,3.4-3.3,3.4
		c-1.4,0-2.4-0.8-3.1-1.9l1.3-1.2c0.3,0.8,1,1.5,1.8,1.5c0.8,0,1.3-0.7,1.3-1.4c0-1-1-1.3-1.7-1.6c-1.3-0.5-2.2-1.2-2.2-2.7
		c0-1.7,1.2-3,2.9-3c0.9,0,2.1,0.4,2.7,1.1L104.4,137.1z"/>
	<path class="st7" d="M107.5,134.9h1.9v5.6c0,1.2,0.1,3,1.8,3s1.8-1.7,1.8-3v-5.6h1.9v6c0,2.4-1,4.3-3.7,4.3s-3.7-1.8-3.7-4.3V134.9
		z"/>
	<path class="st7" d="M119,144.9h-1.9v-10h2.7c2.1,0,3.5,0.8,3.5,3.1c0,2.1-1.2,3.2-3.2,3.2h-1V144.9z M119,139.6h0.4
		c1.2,0,1.8-0.3,1.8-1.6c0-1.3-0.7-1.5-1.8-1.5H119V139.6z"/>
	<path class="st7" d="M126.8,136.6v2.2h3.1v1.7h-3.1v2.7h3.2v1.7h-5.2v-10h5.2v1.7H126.8z"/>
	<path class="st7" d="M138.9,144.9h-2.4l-2.4-4h0v4h-1.9v-10h2.6c2,0,3.3,0.9,3.3,3c0,1.3-0.7,2.5-2,2.8L138.9,144.9z M134,139.5
		h0.3c1.1,0,1.8-0.3,1.8-1.5c0-1.2-0.8-1.5-1.8-1.5H134V139.5z"/>
	<path class="st7" d="M143.9,141.7L143.9,141.7l2.3-6.7h2.1l-3.9,10.3h-1.1l-3.8-10.3h2.1L143.9,141.7z"/>
	<path class="st7" d="M151.5,144.9h-1.9v-10h1.9V144.9z"/>
	<path class="st7" d="M158.4,137.1c-0.4-0.5-0.8-0.8-1.5-0.8c-0.6,0-1.2,0.5-1.2,1.1c0,1.7,4,1,4,4.3c0,2-1.2,3.4-3.3,3.4
		c-1.4,0-2.4-0.8-3.1-1.9l1.3-1.2c0.3,0.8,1,1.5,1.8,1.5c0.8,0,1.3-0.7,1.3-1.4c0-1-1-1.3-1.7-1.6c-1.3-0.5-2.2-1.2-2.2-2.7
		c0-1.7,1.2-3,2.9-3c0.9,0,2.1,0.4,2.7,1.1L158.4,137.1z"/>
	<path class="st7" d="M163.4,136.6v2.2h3.1v1.7h-3.1v2.7h3.2v1.7h-5.2v-10h5.2v1.7H163.4z"/>
	<path class="st7" d="M168.7,134.9h2.8c2.9,0,4.8,2.2,4.8,5c0,2.8-2,5-4.8,5h-2.8V134.9z M170.7,143.2h0.3c2.4,0,3.3-1.3,3.3-3.3
		c0-2.2-1.1-3.3-3.3-3.3h-0.3V143.2z"/>
</g>
<g>
	<path class="st7" d="M107,158.2h2.8v1.7H105v-10h1.9V158.2z"/>
	<path class="st7" d="M113.1,151.6v2.2h3.1v1.7h-3.1v2.7h3.2v1.7h-5.2v-10h5.2v1.7H113.1z"/>
	<path class="st7" d="M120.4,157.8l-0.8,2.1h-2.1l3.9-10.3h1.5l3.8,10.3h-2.1l-0.8-2.1H120.4z M122.1,152.6L122.1,152.6l-1.1,3.6
		h2.4L122.1,152.6z"/>
	<path class="st7" d="M134.9,159.9h-2.4l-2.4-4h0v4h-1.9v-10h2.6c2,0,3.3,0.9,3.3,3c0,1.3-0.7,2.5-2,2.8L134.9,159.9z M130.1,154.5
		h0.3c1.1,0,1.8-0.3,1.8-1.5c0-1.2-0.8-1.5-1.8-1.5h-0.3V154.5z"/>
	<path class="st7" d="M136.3,149.7h1.4l5.3,7h0v-6.7h1.9v10.2h-1.4l-5.3-7h0v6.8h-1.9V149.7z"/>
	<path class="st7" d="M149.1,159.9h-1.9v-10h1.9V159.9z"/>
	<path class="st7" d="M151.3,149.7h1.4l5.3,7h0v-6.7h1.9v10.2h-1.4l-5.3-7h0v6.8h-1.9V149.7z"/>
	<path class="st7" d="M171,154.6v0.3c0,2.8-1.4,5.3-4.5,5.3c-2.9,0-4.8-2.5-4.8-5.2c0-2.9,1.9-5.3,4.9-5.3c1.7,0,3.2,0.9,4,2.4
		l-1.7,0.9c-0.4-0.9-1.2-1.6-2.3-1.6c-1.9,0-2.8,1.9-2.8,3.6s0.9,3.5,2.8,3.5c1.2,0,2.2-1.1,2.3-2.3h-2.1v-1.6H171z"/>
</g>
</svg>
