<svg width="2308" height="1304" xmlns="http://www.w3.org/2000/svg" xmlns:xlink="http://www.w3.org/1999/xlink" xml:space="preserve" overflow="hidden"><g transform="translate(-774 -415)"><text fill="#2E445B" font-family="Source Sans Pro,Source Sans Pro_MSFontService,sans-serif" font-weight="400" font-size="110" transform="matrix(1 0 0 1 1113.32 551)">Übertragungsglieder</text><text fill="#2E445B" font-family="Source Sans Pro,Source Sans Pro_MSFontService,sans-serif" font-weight="400" font-size="110" transform="matrix(1 0 0 1 2086.7 551)">(Regelstrecke</text><text fill="#2E445B" font-family="Source Sans Pro,Source Sans Pro_MSFontService,sans-serif" font-weight="400" font-size="110" transform="matrix(1 0 0 1 2710.03 551)">)</text><path d="M1928.5 595.5 2572.27 710.002" stroke="#0E2841" stroke-width="4.58333" stroke-miterlimit="8" fill="none" fill-rule="evenodd"/><text fill="#026B94" font-family="Aptos,Aptos_MSFontService,sans-serif" font-weight="400" font-size="92" transform="matrix(1 0 0 1 2269.56 807)">ohne Ausgleich</text><text fill="#026B94" font-family="Aptos,Aptos_MSFontService,sans-serif" font-weight="400" font-size="92" transform="matrix(1 0 0 1 1036.11 804)">mit Ausgleich</text><path d="M0 0 624.631 111.812" stroke="#0E2841" stroke-width="4.58333" stroke-miterlimit="8" fill="none" fill-rule="evenodd" transform="matrix(-1 0 0 1 1929.13 595.5)"/><text fill="#006F7F" font-family="Source Sans Pro,Source Sans Pro_MSFontService,sans-serif" font-weight="400" font-size="73" transform="matrix(1 0 0 1 963.747 988)">ohne </text><text fill="#006F7F" font-family="Source Sans Pro,Source Sans Pro_MSFontService,sans-serif" font-weight="400" font-size="73" transform="matrix(1 0 0 1 848.888 1076)">Verzögerung</text><text font-family="Source Sans Pro,Source Sans Pro_MSFontService,sans-serif" font-weight="400" font-size="92" transform="matrix(1 0 0 1 1015.61 1269)">P</text><text fill="#006F7F" font-family="Source Sans Pro,Source Sans Pro_MSFontService,sans-serif" font-weight="400" font-size="73" transform="matrix(1 0 0 1 1522.86 988)">mit </text><text fill="#006F7F" font-family="Source Sans Pro,Source Sans Pro_MSFontService,sans-serif" font-weight="400" font-size="73" transform="matrix(1 0 0 1 1381.62 1076)">Verzögerung</text><text font-family="Source Sans Pro,Source Sans Pro_MSFontService,sans-serif" font-weight="400" font-size="92" transform="matrix(1 0 0 1 1494.21 1269)">P</text><text font-family="Source Sans Pro,Source Sans Pro_MSFontService,sans-serif" font-weight="400" font-size="92" transform="matrix(1 0 0 1 1546.35 1269)">-</text><text font-family="Source Sans Pro,Source Sans Pro_MSFontService,sans-serif" font-weight="400" font-size="92" transform="matrix(1 0 0 1 1574.99 1269)">T</text><text font-family="Source Sans Pro,Source Sans Pro_MSFontService,sans-serif" font-weight="400" font-size="61" transform="matrix(1 0 0 1 1624.26 1291)">1</text><text font-family="Source Sans Pro,Source Sans Pro_MSFontService,sans-serif" font-weight="400" font-size="92" transform="matrix(1 0 0 1 1494.21 1379)">P</text><text font-family="Source Sans Pro,Source Sans Pro_MSFontService,sans-serif" font-weight="400" font-size="92" transform="matrix(1 0 0 1 1546.35 1379)">-</text><text font-family="Source Sans Pro,Source Sans Pro_MSFontService,sans-serif" font-weight="400" font-size="92" transform="matrix(1 0 0 1 1574.99 1379)">T</text><text font-family="Source Sans Pro,Source Sans Pro_MSFontService,sans-serif" font-weight="400" font-size="61" transform="matrix(1 0 0 1 1624.26 1401)">2</text><text font-family="Source Sans Pro,Source Sans Pro_MSFontService,sans-serif" font-weight="400" font-size="92" transform="matrix(1 0 0 1 1492.77 1489)">P</text><text font-family="Source Sans Pro,Source Sans Pro_MSFontService,sans-serif" font-weight="400" font-size="92" transform="matrix(1 0 0 1 1544.9 1489)">-</text><text font-family="Source Sans Pro,Source Sans Pro_MSFontService,sans-serif" font-weight="400" font-size="92" transform="matrix(1 0 0 1 1573.55 1489)">T</text><text font-family="Source Sans Pro,Source Sans Pro_MSFontService,sans-serif" font-weight="400" font-size="61" transform="matrix(1 0 0 1 1622.82 1511)">n</text><text font-family="Source Sans Pro,Source Sans Pro_MSFontService,sans-serif" font-weight="400" font-size="92" transform="matrix(1 0 0 1 1499.07 1599)">P</text><text font-family="Source Sans Pro,Source Sans Pro_MSFontService,sans-serif" font-weight="400" font-size="92" transform="matrix(1 0 0 1 1551.21 1599)">-</text><text font-family="Source Sans Pro,Source Sans Pro_MSFontService,sans-serif" font-weight="400" font-size="92" transform="matrix(1 0 0 1 1579.85 1599)">T</text><text font-family="Source Sans Pro,Source Sans Pro_MSFontService,sans-serif" font-weight="400" font-size="61" transform="matrix(1 0 0 1 1629.12 1621)">t</text><text fill="#006F7F" font-family="Source Sans Pro,Source Sans Pro_MSFontService,sans-serif" font-weight="400" font-size="73" transform="matrix(1 0 0 1 2235.57 988)">ohne </text><text fill="#006F7F" font-family="Source Sans Pro,Source Sans Pro_MSFontService,sans-serif" font-weight="400" font-size="73" transform="matrix(1 0 0 1 2120.69 1076)">Verzögerung</text><text font-family="Source Sans Pro,Source Sans Pro_MSFontService,sans-serif" font-weight="400" font-size="92" transform="matrix(1 0 0 1 2301.46 1269)">I</text><text fill="#006F7F" font-family="Source Sans Pro,Source Sans Pro_MSFontService,sans-serif" font-weight="400" font-size="73" transform="matrix(1 0 0 1 2772.12 988)">mit </text><text fill="#006F7F" font-family="Source Sans Pro,Source Sans Pro_MSFontService,sans-serif" font-weight="400" font-size="73" transform="matrix(1 0 0 1 2630.88 1076)">Verzögerung</text><text font-family="Source Sans Pro,Source Sans Pro_MSFontService,sans-serif" font-weight="400" font-size="92" transform="matrix(1 0 0 1 2757.5 1269)">I</text><text font-family="Source Sans Pro,Source Sans Pro_MSFontService,sans-serif" font-weight="400" font-size="92" transform="matrix(1 0 0 1 2781.56 1269)">-</text><text font-family="Source Sans Pro,Source Sans Pro_MSFontService,sans-serif" font-weight="400" font-size="92" transform="matrix(1 0 0 1 2810.21 1269)">T</text><text font-family="Source Sans Pro,Source Sans Pro_MSFontService,sans-serif" font-weight="400" font-size="61" transform="matrix(1 0 0 1 2859.48 1291)">1</text><text font-family="Source Sans Pro,Source Sans Pro_MSFontService,sans-serif" font-weight="400" font-size="92" transform="matrix(1 0 0 1 2757.5 1379)">I</text><text font-family="Source Sans Pro,Source Sans Pro_MSFontService,sans-serif" font-weight="400" font-size="92" transform="matrix(1 0 0 1 2781.56 1379)">-</text><text font-family="Source Sans Pro,Source Sans Pro_MSFontService,sans-serif" font-weight="400" font-size="92" transform="matrix(1 0 0 1 2810.21 1379)">T</text><text font-family="Source Sans Pro,Source Sans Pro_MSFontService,sans-serif" font-weight="400" font-size="61" transform="matrix(1 0 0 1 2859.48 1401)">2</text><text font-family="Source Sans Pro,Source Sans Pro_MSFontService,sans-serif" font-weight="400" font-size="92" transform="matrix(1 0 0 1 2756.08 1489)">I</text><text font-family="Source Sans Pro,Source Sans Pro_MSFontService,sans-serif" font-weight="400" font-size="92" transform="matrix(1 0 0 1 2780.14 1489)">-</text><text font-family="Source Sans Pro,Source Sans Pro_MSFontService,sans-serif" font-weight="400" font-size="92" transform="matrix(1 0 0 1 2808.79 1489)">T</text><text font-family="Source Sans Pro,Source Sans Pro_MSFontService,sans-serif" font-weight="400" font-size="61" transform="matrix(1 0 0 1 2858.06 1511)">n</text><text font-family="Source Sans Pro,Source Sans Pro_MSFontService,sans-serif" font-weight="400" font-size="92" transform="matrix(1 0 0 1 2762.38 1599)">I</text><text font-family="Source Sans Pro,Source Sans Pro_MSFontService,sans-serif" font-weight="400" font-size="92" transform="matrix(1 0 0 1 2786.44 1599)">-</text><text font-family="Source Sans Pro,Source Sans Pro_MSFontService,sans-serif" font-weight="400" font-size="92" transform="matrix(1 0 0 1 2815.09 1599)">T</text><text font-family="Source Sans Pro,Source Sans Pro_MSFontService,sans-serif" font-weight="400" font-size="61" transform="matrix(1 0 0 1 2864.36 1621)">t</text><path d="M0 0 261.984 62.403" stroke="#0E2841" stroke-width="4.58333" stroke-miterlimit="8" fill="none" fill-rule="evenodd" transform="matrix(-1 0 0 1 1304.48 844.5)"/><path d="M1304.5 844.5 1575.25 906.903" stroke="#0E2841" stroke-width="4.58333" stroke-miterlimit="8" fill="none" fill-rule="evenodd"/><path d="M0 0 258.583 59.6927" stroke="#0E2841" stroke-width="4.58333" stroke-miterlimit="8" fill="none" fill-rule="evenodd" transform="matrix(-1 0 0 1 2572.08 846.5)"/><path d="M2572.5 846.5 2824.11 906.193" stroke="#0E2841" stroke-width="4.58333" stroke-miterlimit="8" fill="none" fill-rule="evenodd"/></g></svg>