<svg width="3312" height="2093" xmlns="http://www.w3.org/2000/svg" xmlns:xlink="http://www.w3.org/1999/xlink" xml:space="preserve" overflow="hidden"><g transform="translate(-666 -153)"><g><g><g><path d="M3522.05 1580.33C3521.84 1577.3 3519.63 1574.78 3516.65 1574.17L3480.85 1566.86C3478.62 1566.4 3476.32 1567.09 3474.71 1568.7L3467.48 1575.93 3419.41 1527.86C3418.83 1537.71 3413.51 1546.67 3405.14 1551.89L3448.33 1595.08 3441.35 1602.07C3439.76 1603.66 3439.06 1605.93 3439.48 1608.13L3446.41 1644.3C3446.99 1647.32 3449.53 1649.57 3452.61 1649.78L3488.51 1652.17C3488.66 1652.17 3488.82 1652.19 3488.97 1652.19 3492.71 1652.31 3495.84 1649.38 3495.96 1645.64 3496.08 1641.9 3493.15 1638.77 3489.41 1638.65L3458.72 1636.62 3453.46 1609.11 3481.71 1580.85 3508.89 1586.39 3510.94 1617.14C3511.19 1620.88 3514.41 1623.7 3518.15 1623.45 3521.88 1623.2 3524.71 1619.97 3524.46 1616.24Z" fill="#FFFFFF"/><path d="M3358.37 1627.46C3358.38 1616.57 3355.26 1605.92 3349.41 1596.75L3325.52 1625.29C3313.16 1640.1 3291.13 1642.09 3276.31 1629.73 3261.49 1617.37 3259.5 1595.34 3271.86 1580.52 3273.21 1578.91 3274.7 1577.42 3276.31 1576.08L3277.19 1575.34C3256.78 1584.66 3243.68 1605.02 3243.67 1627.46L3243.67 1691.98 3358.37 1691.98Z" fill="#FFFFFF"/><path d="M3358.57 1526.09C3358.57 1524.03 3358.78 1521.98 3359.2 1519.96L3282.82 1583.87C3272.33 1592.66 3270.95 1608.29 3279.74 1618.78 3288.53 1629.27 3304.16 1630.65 3314.65 1621.86 3315.76 1620.92 3316.79 1619.89 3317.73 1618.78L3373.43 1552.21C3364.23 1546.72 3358.59 1536.8 3358.57 1526.09ZM3307.53 1603.64C3304.89 1606.28 3300.6 1606.29 3297.96 1603.64 3295.31 1601 3295.31 1596.71 3297.95 1594.07 3300.6 1591.42 3304.89 1591.42 3307.53 1594.06 3307.53 1594.07 3307.53 1594.07 3307.53 1594.07 3310.17 1596.71 3310.17 1601 3307.53 1603.64Z" fill="#FFFFFF"/><path d="M3358.57 1705.52 3243.47 1705.52C3235.99 1705.52 3229.93 1711.58 3229.93 1719.06L3229.93 1732.6 3372.11 1732.6 3372.11 1719.06C3372.11 1711.58 3366.05 1705.52 3358.57 1705.52Z" fill="#FFFFFF"/><path d="M3389.04 1505.78C3377.82 1505.78 3368.73 1514.88 3368.73 1526.09 3368.73 1537.31 3377.82 1546.41 3389.04 1546.41 3400.26 1546.41 3409.35 1537.31 3409.35 1526.09 3409.35 1514.88 3400.26 1505.78 3389.04 1505.78ZM3389.04 1531.17C3386.24 1531.17 3383.96 1528.9 3383.96 1526.09 3383.96 1523.29 3386.24 1521.02 3389.04 1521.02 3391.85 1521.02 3394.12 1523.29 3394.12 1526.09 3394.12 1528.9 3391.85 1531.17 3389.04 1531.17Z" fill="#FFFFFF"/></g></g></g><g><g><g><path d="M181.237 162C181.237 173.184 172.171 182.25 160.987 182.25 149.804 182.25 140.737 173.184 140.737 162 140.737 150.816 149.804 141.75 160.987 141.75 172.171 141.75 181.237 150.816 181.237 162Z" fill="#FFFFFF" transform="matrix(1 0 0 1.00309 1400 313)"/><path d="M279.787 94.4999C274.05 84.7124 261.225 79.9874 243.675 79.9874 232.537 79.9874 219.712 82.0124 205.537 85.7249 195.75 50.2875 179.55 27 160.987 27 142.762 27 126.225 49.95 116.775 85.0499 103.275 81.6749 91.1249 79.6499 80.3249 79.6499 62.775 79.6499 49.95 84.3749 44.2125 94.1624 34.7625 110.362 47.25 136.35 73.2375 162.675 48.2625 188.325 36.7875 213.3 45.9 229.162 51.6375 238.95 64.4625 243.675 82.0124 243.675 92.1374 243.675 103.95 241.987 116.775 238.95 126.562 274.05 142.762 297 160.987 297 179.212 297 195.75 274.05 205.2 238.95 218.7 242.325 230.85 244.35 241.65 244.35 259.2 244.35 272.025 239.625 277.762 229.837 286.875 213.975 275.4 189 250.425 163.35 277.087 136.687 289.237 110.7 279.787 94.4999ZM243.675 93.4874C256.162 93.4874 265.275 96.5249 267.975 101.25 273.037 110.025 263.925 130.612 240.975 153.562 232.875 146.137 223.762 138.712 213.637 131.625 212.625 120.15 210.937 109.012 208.575 98.5499 221.4 95.1749 233.55 93.4874 243.675 93.4874ZM183.262 197.1C176.175 201.15 169.087 204.862 162 208.237 154.912 204.862 147.825 201.15 140.737 197.1 133.987 193.05 127.237 189 121.162 184.95 120.487 177.525 120.487 170.1 120.487 162 120.487 154.575 120.825 147.487 121.162 140.4 127.912 135.675 135 131.287 142.762 126.9 149.175 123.187 155.587 119.812 162 116.775 168.412 119.812 174.825 123.187 181.237 126.9 187.987 130.95 194.737 135 200.812 139.05 201.487 146.475 201.487 153.9 201.487 162 201.487 170.437 201.15 178.537 200.475 186.3 195.075 190.012 189.337 193.387 183.262 197.1ZM198.787 203.512C197.775 209.925 196.762 216.337 195.75 222.075 190.012 220.05 183.937 218.025 177.862 215.325 181.912 213.3 185.962 210.937 190.012 208.575 193.05 206.887 196.087 205.2 198.787 203.512ZM146.137 215.325C139.387 218.025 132.975 220.387 126.562 222.412 125.212 216 124.2 209.25 123.187 202.162 126.9 204.525 130.275 206.55 134.325 208.912 138.037 210.937 142.087 213.3 146.137 215.325ZM107.325 174.825C101.925 170.775 97.1999 166.725 92.8124 162.675 97.1999 158.625 102.262 154.575 107.325 150.525 107.325 154.237 106.987 157.95 106.987 162 106.987 166.387 106.987 170.775 107.325 174.825ZM122.85 123.187C123.862 115.762 124.875 108.675 126.225 101.925 132.637 103.95 139.387 106.65 146.137 109.35 142.762 111.037 139.05 113.062 135.675 115.087 131.625 117.787 127.237 120.487 122.85 123.187ZM177.525 109.35C183.6 106.65 189.675 104.625 195.75 102.6 197.1 108.675 198.112 115.087 199.125 121.837 195.412 119.475 192.037 117.45 187.987 115.087 184.612 113.4 181.237 111.375 177.525 109.35ZM214.65 149.175C220.725 153.9 226.125 158.287 231.187 163.012 226.125 167.4 220.725 172.125 214.65 176.512 214.987 171.787 214.987 167.062 214.987 162.337 214.987 157.612 214.987 153.225 214.65 149.175ZM160.987 40.5C171.112 40.5 184.275 58.3875 192.712 89.4374 182.925 92.8124 172.462 96.8624 162 101.587 150.862 96.5249 140.062 92.1374 129.6 88.7624 138.037 58.05 150.862 40.5 160.987 40.5ZM55.6875 101.25C58.725 96.1874 67.5 93.4874 79.9874 93.4874 89.7749 93.4874 100.912 95.1749 113.062 98.2124 110.7 109.012 109.012 120.825 108 132.975 98.5499 139.725 90.1124 146.475 82.6874 153.562 60.075 130.612 50.625 110.025 55.6875 101.25ZM82.0124 230.512C69.525 230.512 60.4125 227.475 57.7125 222.75 52.65 213.975 61.425 194.4 83.0249 172.125 90.7874 178.875 99.2249 185.625 108.337 192.375 109.35 204.187 111.037 215.662 113.4 226.125 102.262 229.162 91.4624 230.512 82.0124 230.512ZM160.987 283.5C150.862 283.5 138.037 265.95 129.6 235.575 140.062 232.2 150.862 228.15 162 223.087 172.462 227.812 182.587 231.862 192.375 234.9 183.937 265.95 171.112 283.5 160.987 283.5ZM266.287 222.75C263.25 227.812 254.475 230.512 241.987 230.512 232.2 230.512 220.725 228.825 208.912 225.787 210.937 215.662 212.625 205.2 213.637 193.725 223.762 186.637 232.875 179.55 240.975 172.125 262.575 194.4 271.35 213.975 266.287 222.75Z" fill="#FFFFFF" transform="matrix(1 0 0 1.00309 1400 313)"/></g></g></g><g><g><g><path d="M2654.73 1791.48C2654.73 1802.7 2645.63 1811.79 2634.42 1811.79 2623.2 1811.79 2614.1 1802.7 2614.1 1791.48 2614.1 1780.26 2623.2 1771.17 2634.42 1771.17 2645.63 1771.17 2654.73 1780.26 2654.73 1791.48Z" fill="#FFFFFF"/><path d="M2634.42 1740.7C2634.42 1746.31 2629.87 1750.85 2624.26 1750.85 2618.65 1750.85 2614.1 1746.31 2614.1 1740.7 2614.1 1735.09 2618.65 1730.54 2624.26 1730.54 2629.87 1730.54 2634.42 1735.09 2634.42 1740.7Z" fill="#FFFFFF"/><path d="M2691.97 1801.64C2691.97 1807.24 2687.42 1811.79 2681.81 1811.79 2676.2 1811.79 2671.66 1807.24 2671.66 1801.64 2671.66 1796.03 2676.2 1791.48 2681.81 1791.48 2687.42 1791.48 2691.97 1796.03 2691.97 1801.64Z" fill="#FFFFFF"/><path d="M2702.12 1757.62C2702.12 1765.1 2696.06 1771.17 2688.58 1771.17 2681.1 1771.17 2675.04 1765.1 2675.04 1757.62 2675.04 1750.15 2681.1 1744.08 2688.58 1744.08 2696.06 1744.08 2702.12 1750.15 2702.12 1757.62Z" fill="#FFFFFF"/><path d="M2755.95 1827.03C2755.28 1823.98 2752.57 1821.95 2749.52 1821.95L2573.48 1821.95C2570.43 1821.95 2567.72 1823.98 2567.05 1827.03 2566.37 1830.07 2567.72 1833.12 2570.43 1834.47 2570.43 1834.47 2580.59 1840.23 2580.59 1852.42L2580.59 2008.15C2580.59 2019.32 2589.73 2028.46 2600.9 2028.46L2722.78 2028.46C2733.95 2028.46 2743.09 2019.32 2743.09 2008.15L2743.09 1852.42C2743.09 1840.23 2752.57 1834.81 2752.91 1834.81 2755.28 1833.12 2756.97 1830.07 2755.95 1827.03ZM2708.9 2001.37 2668.27 2001.37 2668.27 1987.83 2708.9 1987.83 2708.9 2001.37ZM2708.9 1974.29 2668.27 1974.29 2668.27 1960.75 2708.9 1960.75 2708.9 1974.29ZM2708.9 1947.21 2668.27 1947.21 2668.27 1933.67 2708.9 1933.67 2708.9 1947.21ZM2708.9 1920.12 2668.27 1920.12 2668.27 1906.58 2708.9 1906.58 2708.9 1920.12ZM2708.9 1893.04 2668.27 1893.04 2668.27 1879.5 2708.9 1879.5 2708.9 1893.04ZM2729.21 1852.42 2729.21 1858.85C2718.71 1854.79 2701.79 1849.03 2685.2 1849.03 2666.92 1849.03 2655.74 1852.08 2644.23 1855.12 2631.71 1858.51 2618.51 1861.9 2593.79 1862.57L2593.79 1852.42C2593.79 1845.65 2591.76 1839.89 2589.39 1835.49L2733.61 1835.49C2731.24 1839.89 2729.21 1845.65 2729.21 1852.42Z" fill="#FFFFFF"/></g></g></g><g><g><g><path d="M1071.5 1071.16C1049.49 1071.16 1030.2 1055.59 1025.46 1034.26 1020.38 1012.59 1031.21 990.589 1051.19 981.109L1051.19 832.151C1051.19 820.979 1060.33 811.839 1071.5 811.839 1082.67 811.839 1091.81 820.979 1091.81 832.151L1091.81 981.109C1111.79 990.589 1122.28 1012.59 1117.54 1034.26 1112.46 1055.59 1093.51 1070.82 1071.5 1071.16L1071.5 1071.16ZM1112.12 969.599 1112.12 832.151C1112.12 809.807 1093.84 791.526 1071.5 791.526 1049.16 791.526 1030.88 809.469 1030.88 832.151L1030.88 969.599C1007.52 987.203 998.036 1017.67 1007.18 1045.09 1016.32 1072.85 1042.39 1091.47 1071.5 1091.47 1100.61 1091.47 1126.68 1072.85 1135.82 1045.09 1144.96 1017.67 1135.48 987.203 1112.12 969.599Z" fill="#FFFFFF"/><path d="M1078.27 990.589 1078.27 908.661 1064.73 908.661 1064.73 990.589C1047.8 993.974 1035.95 1009.89 1037.98 1027.15 1039.68 1044.42 1054.23 1057.62 1071.5 1057.62 1088.77 1057.62 1103.32 1044.42 1105.02 1027.15 1107.05 1009.89 1095.2 993.974 1078.27 990.589Z" fill="#FFFFFF"/></g></g></g><g><g><g><path d="M33.75 114.75 57.375 114.75 57.375 128.25 33.75 128.25Z" fill="#FFFFFF" transform="matrix(1 0 0 1.00309 2877 299)"/><path d="M33.75 87.75 57.375 87.75 57.375 101.25 33.75 101.25Z" fill="#FFFFFF" transform="matrix(1 0 0 1.00309 2877 299)"/><path d="M33.75 141.75 57.375 141.75 57.375 155.25 33.75 155.25Z" fill="#FFFFFF" transform="matrix(1 0 0 1.00309 2877 299)"/><path d="M33.75 222.75 57.375 222.75 57.375 236.25 33.75 236.25Z" fill="#FFFFFF" transform="matrix(1 0 0 1.00309 2877 299)"/><path d="M33.75 195.75 57.375 195.75 57.375 209.25 33.75 209.25Z" fill="#FFFFFF" transform="matrix(1 0 0 1.00309 2877 299)"/><path d="M33.75 168.75 57.375 168.75 57.375 182.25 33.75 182.25Z" fill="#FFFFFF" transform="matrix(1 0 0 1.00309 2877 299)"/><path d="M266.625 195.75 290.25 195.75 290.25 209.25 266.625 209.25Z" fill="#FFFFFF" transform="matrix(1 0 0 1.00309 2877 299)"/><path d="M266.625 222.75 290.25 222.75 290.25 236.25 266.625 236.25Z" fill="#FFFFFF" transform="matrix(1 0 0 1.00309 2877 299)"/><path d="M266.625 168.75 290.25 168.75 290.25 182.25 266.625 182.25Z" fill="#FFFFFF" transform="matrix(1 0 0 1.00309 2877 299)"/><path d="M266.625 87.75 290.25 87.75 290.25 101.25 266.625 101.25Z" fill="#FFFFFF" transform="matrix(1 0 0 1.00309 2877 299)"/><path d="M266.625 141.75 290.25 141.75 290.25 155.25 266.625 155.25Z" fill="#FFFFFF" transform="matrix(1 0 0 1.00309 2877 299)"/><path d="M266.625 114.75 290.25 114.75 290.25 128.25 266.625 128.25Z" fill="#FFFFFF" transform="matrix(1 0 0 1.00309 2877 299)"/><path d="M168.75 33.75 182.25 33.75 182.25 57.375 168.75 57.375Z" fill="#FFFFFF" transform="matrix(1 0 0 1.00309 2877 299)"/><path d="M222.75 33.75 236.25 33.75 236.25 57.375 222.75 57.375Z" fill="#FFFFFF" transform="matrix(1 0 0 1.00309 2877 299)"/><path d="M195.75 33.75 209.25 33.75 209.25 57.375 195.75 57.375Z" fill="#FFFFFF" transform="matrix(1 0 0 1.00309 2877 299)"/><path d="M141.75 33.75 155.25 33.75 155.25 57.375 141.75 57.375Z" fill="#FFFFFF" transform="matrix(1 0 0 1.00309 2877 299)"/><path d="M87.75 33.75 101.25 33.75 101.25 57.375 87.75 57.375Z" fill="#FFFFFF" transform="matrix(1 0 0 1.00309 2877 299)"/><path d="M114.75 33.75 128.25 33.75 128.25 57.375 114.75 57.375Z" fill="#FFFFFF" transform="matrix(1 0 0 1.00309 2877 299)"/><path d="M114.75 266.625 128.25 266.625 128.25 290.25 114.75 290.25Z" fill="#FFFFFF" transform="matrix(1 0 0 1.00309 2877 299)"/><path d="M87.75 266.625 101.25 266.625 101.25 290.25 87.75 290.25Z" fill="#FFFFFF" transform="matrix(1 0 0 1.00309 2877 299)"/><path d="M141.75 266.625 155.25 266.625 155.25 290.25 141.75 290.25Z" fill="#FFFFFF" transform="matrix(1 0 0 1.00309 2877 299)"/><path d="M168.75 266.625 182.25 266.625 182.25 290.25 168.75 290.25Z" fill="#FFFFFF" transform="matrix(1 0 0 1.00309 2877 299)"/><path d="M195.75 266.625 209.25 266.625 209.25 290.25 195.75 290.25Z" fill="#FFFFFF" transform="matrix(1 0 0 1.00309 2877 299)"/><path d="M222.75 266.625 236.25 266.625 236.25 290.25 222.75 290.25Z" fill="#FFFFFF" transform="matrix(1 0 0 1.00309 2877 299)"/><path d="M118.125 118.125 205.875 118.125 205.875 205.875 118.125 205.875Z" fill="#FFFFFF" transform="matrix(1 0 0 1.00309 2877 299)"/><path d="M239.625 70.875 84.375 70.875C76.9193 70.875 70.875 76.9193 70.875 84.375L70.875 239.625C70.875 247.081 76.9193 253.125 84.375 253.125L239.625 253.125C247.081 253.125 253.125 247.081 253.125 239.625L253.125 84.375C253.125 76.9193 247.081 70.875 239.625 70.875ZM219.375 219.375 104.625 219.375 104.625 104.625 219.375 104.625Z" fill="#FFFFFF" transform="matrix(1 0 0 1.00309 2877 299)"/></g></g></g><g><g><g><path d="M257.292 203.125 67.7083 203.125 67.7083 88.0208 257.292 88.0208ZM277.604 81.25C277.604 73.7712 271.541 67.7083 264.062 67.7083L60.9375 67.7083C53.4587 67.7083 47.3958 73.7712 47.3958 81.25L47.3958 223.437 277.604 223.437Z" fill="#FFFFFF" transform="matrix(1 0 0 1 1721 1759)"/><path d="M182.812 236.979 182.812 240.364C182.929 242.118 181.601 243.634 179.847 243.75 179.707 243.759 179.567 243.759 179.427 243.75L145.573 243.75C143.819 243.866 142.304 242.538 142.187 240.785 142.178 240.645 142.178 240.504 142.187 240.364L142.187 236.979 6.77083 236.979 6.77083 243.75C6.77083 251.229 12.8336 257.292 20.3125 257.292L304.687 257.292C312.166 257.292 318.229 251.229 318.229 243.75L318.229 236.979Z" fill="#FFFFFF" transform="matrix(1 0 0 1 1721 1759)"/><path d="M162.5 98.177C136.324 98.177 115.104 119.397 115.104 145.573 115.104 171.749 136.324 192.969 162.5 192.969 188.676 192.969 209.896 171.749 209.896 145.573 209.896 119.397 188.676 98.177 162.5 98.177ZM165.885 148.958 181.424 148.958C179.655 160.629 174.212 171.432 165.885 179.799ZM165.885 142.187 165.885 111.312C174.22 119.687 179.664 130.504 181.424 142.187ZM159.115 142.187 144.083 142.187C145.767 130.704 151.026 120.043 159.115 111.719ZM159.115 148.958 159.115 179.427C151.042 171.092 145.784 160.436 144.083 148.958ZM137.279 142.187 122.789 142.187C124.292 124.455 137.381 109.873 154.849 106.471 145.198 116.102 139.018 128.664 137.279 142.187ZM137.279 148.958C139.019 162.505 145.225 175.085 154.917 184.708 137.422 181.309 124.307 166.715 122.789 148.958ZM188.229 148.958 202.211 148.958C200.728 166.49 187.914 180.97 170.693 184.573 180.339 174.984 186.51 162.45 188.229 148.958ZM188.229 142.187C186.496 128.73 180.367 116.222 170.794 106.607 187.965 110.245 200.726 124.699 202.211 142.187Z" fill="#FFFFFF" transform="matrix(1 0 0 1 1721 1759)"/></g></g></g><g><g><g><path d="M290.25 185.962C300.037 171.787 299.362 152.55 288.562 139.05 289.912 135 290.587 130.95 290.587 126.9 290.587 107.662 276.75 91.4624 258.187 87.7499 252.45 71.2125 237.262 60.4125 219.712 60.4125 216.675 60.4125 213.3 60.75 210.262 61.425 203.175 52.9875 192.712 47.925 181.912 46.9125 170.775 46.2375 159.975 49.95 151.875 57.375 141.412 50.2875 128.25 48.2625 116.437 51.975 104.287 55.6875 94.8374 64.8 90.4499 76.95 89.7749 76.95 88.7624 76.95 88.0874 76.95 65.8125 76.95 47.925 94.4999 47.5875 116.775 47.5875 117.45 47.5875 118.125 47.5875 118.8 34.0875 126.225 26.325 140.737 27.3375 156.262 28.6875 177.525 47.5875 193.387 69.1875 193.387L121.5 193.387C143.775 193.387 162 211.275 162.337 233.55L162.337 276.75 189 276.75 189 246.375C189 245.025 189 243.337 189 241.987 189 229.5 188.662 213.637 197.437 203.512 202.837 197.775 208.912 192.712 215.325 188.325 220.387 185.287 224.775 181.575 228.487 177.187 230.175 174.487 231.862 171.787 232.875 169.087 225.787 166.387 218.362 165.375 210.937 166.387 207.225 166.725 203.85 164.362 203.175 160.65 202.837 156.937 205.2 153.562 208.912 152.887 218.025 151.537 227.137 152.55 235.912 155.925 235.912 154.912 235.912 154.237 236.25 153.225 236.587 147.825 235.912 142.425 234.225 137.362 229.5 125.212 217.687 119.812 206.55 115.425 204.525 114.75 202.5 114.075 199.8 113.4L197.775 112.725 197.437 112.725C194.737 113.062 192.375 113.737 189.675 114.75L186.637 115.425 183.262 116.1C177.525 122.85 174.487 131.625 175.162 140.737 175.837 149.85 180.225 157.95 186.975 163.687 189.675 166.05 189.675 170.1 187.65 173.137 185.625 175.5 181.575 175.837 178.875 173.812 174.825 170.437 171.45 166.05 168.75 161.325L168.075 161.325C158.625 159.637 147.825 157.95 139.05 152.212 136.012 150.187 135.337 146.137 137.362 143.1 139.387 140.062 143.437 139.05 146.475 141.075 151.537 144.112 157.275 146.137 163.35 146.812 162.675 145.125 162.337 143.437 162 141.412 161.325 133.987 162.675 126.225 165.712 119.475 160.987 120.15 156.6 120.487 151.875 120.487 147.825 120.487 143.775 120.15 139.725 119.475 132.3 128.587 121.837 135.337 110.362 138.037 95.1749 145.8 80.9999 155.587 80.9999 172.125 80.9999 175.837 77.9624 178.875 74.25 178.875 70.5375 178.875 67.5 175.837 67.5 172.125 67.8375 159.3 73.575 147.487 83.3624 139.387 75.2625 138.375 67.8375 135 62.4375 128.925 60.075 125.887 60.75 121.837 63.45 119.475 66.15 117.112 70.5375 117.45 72.9 120.15 75.6 123.525 83.3624 126.562 94.4999 126.225 105.637 126.225 116.775 122.175 125.212 114.75 115.425 110.7 107.325 103.275 102.262 93.8249 100.237 90.4499 101.587 86.3999 104.625 84.7124 108 82.6874 112.05 84.0374 113.737 87.0749 123.862 105.3 145.125 110.362 178.537 102.6 172.462 97.5374 168.075 89.4374 168.412 76.6125 168.412 72.9 171.787 69.8625 175.5 70.2 179.212 70.2 182.25 73.575 181.912 77.2875 181.237 92.4749 189.675 95.5124 203.175 99.5624 205.2 100.237 207.225 100.575 209.25 101.25 212.962 92.8124 220.387 86.3999 229.5 84.0374 233.212 83.0249 236.925 85.3874 237.937 89.0999 238.95 92.8124 236.587 96.5249 232.875 97.5374 228.15 98.8874 224.437 101.925 222.075 106.312 222.075 106.65 222.075 106.65 222.075 106.987 232.537 112.05 241.65 119.475 246.375 131.962 247.387 134.662 248.062 137.362 248.4 140.062 249.75 139.05 250.762 137.7 251.437 136.012 253.8 130.95 255.487 125.887 256.162 120.15 256.5 117.787 258.187 115.762 260.55 114.75 262.912 113.737 265.612 114.412 267.3 116.1 269.325 117.787 270 120.15 269.325 122.85 268.312 129.6 266.287 136.35 262.912 142.425 259.537 148.162 254.475 152.887 248.4 156.262 247.725 164.7 245.025 173.137 240.975 180.562 245.362 185.625 250.087 190.012 255.825 193.387 257.85 194.737 259.2 197.1 259.2 199.462 259.2 201.825 257.85 204.187 255.487 205.2 253.125 206.212 250.762 206.212 248.737 204.862 243 201.15 237.6 196.425 232.875 191.362 229.5 194.062 225.787 196.762 222.412 199.125 216.675 202.837 211.612 206.887 207.225 211.95 201.825 218.362 202.162 230.85 202.162 241.65 202.162 243.337 202.162 244.687 202.162 246.375L202.162 276.75 229.162 276.75C229.162 232.875 250.087 230.512 252.787 229.837 261.562 227.475 284.85 215.325 289.912 190.35 290.587 189 290.25 187.312 290.25 185.962 289.912 185.962 289.912 185.962 290.25 185.962Z" fill="#FFFFFF" transform="matrix(1.00309 0 0 1 1105 1435)"/></g></g></g><g><g><g><path d="M200.138 125.888C185.963 125.888 174.825 114.413 174.825 100.575 174.825 86.7375 186.3 75.2625 200.138 75.2625 214.313 75.2625 225.45 86.7375 225.45 100.575 225.45 114.413 213.975 125.888 200.138 125.888ZM257.175 84.7125C255.825 79.9875 254.138 75.6 251.775 71.55L257.175 55.6875 245.025 43.5375 229.163 48.9375C225.113 46.575 220.725 44.8875 216 43.5375L208.575 28.6875 191.7 28.6875 184.275 43.5375C179.55 44.8875 175.163 46.575 171.113 48.9375L155.25 43.5375 143.1 55.6875 148.5 71.55C146.138 75.6 144.45 79.9875 143.1 84.7125L128.25 92.1375 128.25 109.013 143.1 116.438C144.45 121.163 146.138 125.55 148.5 129.6L143.1 145.463 154.913 157.275 170.775 151.875C174.825 154.238 179.213 155.925 183.938 157.275L191.363 172.125 208.238 172.125 215.663 157.275C220.388 155.925 224.775 154.238 228.825 151.875L244.688 157.275 256.838 145.463 251.438 129.6C253.8 125.55 255.825 120.825 257.175 116.438L272.025 109.013 272.025 92.1375 257.175 84.7125Z" fill="#FFFFFF" transform="matrix(1 0 0 1.00309 3410 825)"/><path d="M123.863 248.738C109.688 248.738 98.55 237.263 98.55 223.425 98.55 209.25 110.025 198.113 123.863 198.113 138.038 198.113 149.175 209.588 149.175 223.425 149.175 237.263 138.038 248.738 123.863 248.738L123.863 248.738ZM175.5 194.4 180.9 178.538 168.75 166.388 152.888 171.788C148.838 169.425 144.113 167.738 139.725 166.388L132.3 151.538 115.425 151.538 108 166.388C103.275 167.738 98.8875 169.425 94.8375 171.788L78.975 166.388 67.1625 178.2 72.225 194.063C69.8625 198.113 68.175 202.838 66.825 207.225L51.975 214.65 51.975 231.525 66.825 238.95C68.175 243.675 69.8625 248.063 72.225 252.113L67.1625 267.975 78.975 279.788 94.8375 274.725C98.8875 277.088 103.275 278.775 108 280.125L115.425 294.975 132.3 294.975 139.725 280.125C144.45 278.775 148.838 277.088 152.888 274.725L168.75 280.125 180.563 267.975 175.5 252.45C177.863 248.4 179.55 244.013 180.9 239.288L195.75 231.863 195.75 214.988 180.9 207.563C179.55 202.838 177.863 198.45 175.5 194.4Z" fill="#FFFFFF" transform="matrix(1 0 0 1.00309 3410 825)"/></g></g></g><g><g><g><path d="M2155.15 187.26 2155.15 411.51 2385.62 411.51 2385.62 187.26ZM2366.94 290.042 2279.73 290.042 2279.73 205.948 2366.94 205.948ZM2261.04 205.948 2261.04 290.042 2173.83 290.042 2173.83 205.948ZM2173.83 308.729 2261.04 308.729 2261.04 392.823 2173.83 392.823ZM2279.73 392.823 2279.73 308.729 2366.94 308.729 2366.94 392.823Z" fill="#FFFFFF"/><path d="M2245.47 240.208 2223.67 240.208 2223.67 218.406 2211.21 218.406 2211.21 240.208 2189.41 240.208 2189.41 252.667 2211.21 252.667 2211.21 274.469 2223.67 274.469 2223.67 252.667 2245.47 252.667 2245.47 240.208Z" fill="#FFFFFF"/><path d="M2241.67 333.802 2232.85 324.987 2217.44 340.404 2202.02 324.987 2193.21 333.802 2208.62 349.219 2193.21 364.636 2202.02 373.45 2217.44 358.033 2232.85 373.45 2241.67 364.636 2226.25 349.219 2241.67 333.802Z" fill="#FFFFFF"/><path d="M2295.3 252.667 2295.3 240.208 2351.36 240.208 2351.36 252.667Z" fill="#FFFFFF"/><path d="M2295.3 358.563 2295.3 346.104 2351.36 346.104 2351.36 358.563Z" fill="#FFFFFF"/><path d="M2329.56 333.646C2329.56 337.086 2326.77 339.875 2323.33 339.875 2319.89 339.875 2317.1 337.086 2317.1 333.646 2317.1 330.206 2319.89 327.417 2323.33 327.417 2326.77 327.417 2329.56 330.206 2329.56 333.646Z" fill="#FFFFFF"/><path d="M2329.56 371.021C2329.56 374.461 2326.77 377.25 2323.33 377.25 2319.89 377.25 2317.1 374.461 2317.1 371.021 2317.1 367.581 2319.89 364.792 2323.33 364.792 2326.77 364.792 2329.56 367.581 2329.56 371.021Z" fill="#FFFFFF"/></g></g></g><text fill="#FFFFFF" font-family="Source Sans Pro,Source Sans Pro_MSFontService,sans-serif" font-weight="700" font-size="83" transform="matrix(1 0 0 1 1440.01 733)">Physik</text><text fill="#FFFFFF" font-family="Source Sans Pro,Source Sans Pro_MSFontService,sans-serif" font-weight="700" font-size="83" transform="matrix(1 0 0 1 2052.9 546)">Mathematik</text><text fill="#FFFFFF" font-family="Source Sans Pro,Source Sans Pro_MSFontService,sans-serif" font-weight="700" font-size="83" transform="matrix(1 0 0 1 2767.99 733)">Elektrotechnik</text><text fill="#FFFFFF" font-family="Source Sans Pro,Source Sans Pro_MSFontService,sans-serif" font-weight="700" font-size="83" transform="matrix(1 0 0 1 3308.68 1245)">Maschinenbau</text><text fill="#FFFFFF" font-family="Source Sans Pro,Source Sans Pro_MSFontService,sans-serif" font-weight="700" font-size="83" transform="matrix(1 0 0 1 3068.99 1875)">Automatisierung</text><text fill="#FFFFFF" font-family="Source Sans Pro,Source Sans Pro_MSFontService,sans-serif" font-weight="700" font-size="83" transform="matrix(1 0 0 1 2324.39 2137)">Verfahrenstechnik</text><text fill="#FFFFFF" font-family="Source Sans Pro,Source Sans Pro_MSFontService,sans-serif" font-weight="700" font-size="83" transform="matrix(1 0 0 1 1687.24 2175)">Informatik</text><text fill="#FFFFFF" font-family="Source Sans Pro,Source Sans Pro_MSFontService,sans-serif" font-weight="700" font-size="83" transform="matrix(1 0 0 1 1034.76 1855)">Data Science</text><text fill="#FFFFFF" font-family="Source Sans Pro,Source Sans Pro_MSFontService,sans-serif" font-weight="700" font-size="83" transform="matrix(1 0 0 1 844.348 1199)">Messtechnik</text><text fill="#FFFFFF" font-family="Source Sans Pro,Source Sans Pro_MSFontService,sans-serif" font-weight="700" font-size="183" transform="matrix(1 0 0 1 1596.85 1259)">Regelungstechnik</text></g></svg>