<?xml version="1.0" encoding="utf-8" standalone="no"?>
<!DOCTYPE svg PUBLIC "-//W3C//DTD SVG 1.1//EN"
  "http://www.w3.org/Graphics/SVG/1.1/DTD/svg11.dtd">
<svg xmlns:xlink="http://www.w3.org/1999/xlink" width="576pt" height="288pt" viewBox="0 0 576 288" xmlns="http://www.w3.org/2000/svg" version="1.1">
 <metadata>
  <rdf:RDF xmlns:dc="http://purl.org/dc/elements/1.1/" xmlns:cc="http://creativecommons.org/ns#" xmlns:rdf="http://www.w3.org/1999/02/22-rdf-syntax-ns#">
   <cc:Work>
    <dc:type rdf:resource="http://purl.org/dc/dcmitype/StillImage"/>
    <dc:date>2026-08-24T09:35:00.987986</dc:date>
    <dc:format>image/svg+xml</dc:format>
    <dc:creator>
     <cc:Agent>
      <dc:title>Matplotlib v3.10.9, https://matplotlib.org/</dc:title>
     </cc:Agent>
    </dc:creator>
   </cc:Work>
  </rdf:RDF>
 </metadata>
 <defs>
  <style type="text/css">*{stroke-linejoin: round; stroke-linecap: butt}</style>
 </defs>
 <g id="figure_1">
  <g id="patch_1">
   <path d="M 0 288 
L 576 288 
L 576 0 
L 0 0 
z
" style="fill: #ffffff"/>
  </g>
  <g id="axes_1">
   <g id="patch_2">
    <path d="M 72 256.32 
L 518.4 256.32 
L 518.4 34.56 
L 72 34.56 
z
" style="fill: #ffffff"/>
   </g>
   <g id="matplotlib.axis_1">
    <g id="xtick_1">
     <g id="line2d_1">
      <path d="M 92.290909 256.32 
L 92.290909 34.56 
" clip-path="url(#pc4d057974b)" style="fill: none; stroke: #b0b0b0; stroke-width: 0.8; stroke-linecap: square"/>
     </g>
     <g id="line2d_2">
      <defs>
       <path id="m5042c1c0df" d="M 0 0 
L 0 3.5 
" style="stroke: #000000; stroke-width: 0.8"/>
      </defs>
      <g>
       <use xlink:href="#m5042c1c0df" x="92.290909" y="256.32" style="stroke: #000000; stroke-width: 0.8"/>
      </g>
     </g>
     <g id="text_1">
      <!-- 0 -->
      <g transform="translate(89.109659 270.918437) scale(0.1 -0.1)">
       <defs>
        <path id="DejaVuSans-30" d="M 2034 4250 
Q 1547 4250 1301 3770 
Q 1056 3291 1056 2328 
Q 1056 1369 1301 889 
Q 1547 409 2034 409 
Q 2525 409 2770 889 
Q 3016 1369 3016 2328 
Q 3016 3291 2770 3770 
Q 2525 4250 2034 4250 
z
M 2034 4750 
Q 2819 4750 3233 4129 
Q 3647 3509 3647 2328 
Q 3647 1150 3233 529 
Q 2819 -91 2034 -91 
Q 1250 -91 836 529 
Q 422 1150 422 2328 
Q 422 3509 836 4129 
Q 1250 4750 2034 4750 
z
" transform="scale(0.015625)"/>
       </defs>
       <use xlink:href="#DejaVuSans-30"/>
      </g>
     </g>
    </g>
    <g id="xtick_2">
     <g id="line2d_3">
      <path d="M 173.454545 256.32 
L 173.454545 34.56 
" clip-path="url(#pc4d057974b)" style="fill: none; stroke: #b0b0b0; stroke-width: 0.8; stroke-linecap: square"/>
     </g>
     <g id="line2d_4">
      <g>
       <use xlink:href="#m5042c1c0df" x="173.454545" y="256.32" style="stroke: #000000; stroke-width: 0.8"/>
      </g>
     </g>
     <g id="text_2">
      <!-- 1 -->
      <g transform="translate(170.273295 270.918437) scale(0.1 -0.1)">
       <defs>
        <path id="DejaVuSans-31" d="M 794 531 
L 1825 531 
L 1825 4091 
L 703 3866 
L 703 4441 
L 1819 4666 
L 2450 4666 
L 2450 531 
L 3481 531 
L 3481 0 
L 794 0 
L 794 531 
z
" transform="scale(0.015625)"/>
       </defs>
       <use xlink:href="#DejaVuSans-31"/>
      </g>
     </g>
    </g>
    <g id="xtick_3">
     <g id="line2d_5">
      <path d="M 254.618182 256.32 
L 254.618182 34.56 
" clip-path="url(#pc4d057974b)" style="fill: none; stroke: #b0b0b0; stroke-width: 0.8; stroke-linecap: square"/>
     </g>
     <g id="line2d_6">
      <g>
       <use xlink:href="#m5042c1c0df" x="254.618182" y="256.32" style="stroke: #000000; stroke-width: 0.8"/>
      </g>
     </g>
     <g id="text_3">
      <!-- 2 -->
      <g transform="translate(251.436932 270.918437) scale(0.1 -0.1)">
       <defs>
        <path id="DejaVuSans-32" d="M 1228 531 
L 3431 531 
L 3431 0 
L 469 0 
L 469 531 
Q 828 903 1448 1529 
Q 2069 2156 2228 2338 
Q 2531 2678 2651 2914 
Q 2772 3150 2772 3378 
Q 2772 3750 2511 3984 
Q 2250 4219 1831 4219 
Q 1534 4219 1204 4116 
Q 875 4013 500 3803 
L 500 4441 
Q 881 4594 1212 4672 
Q 1544 4750 1819 4750 
Q 2544 4750 2975 4387 
Q 3406 4025 3406 3419 
Q 3406 3131 3298 2873 
Q 3191 2616 2906 2266 
Q 2828 2175 2409 1742 
Q 1991 1309 1228 531 
z
" transform="scale(0.015625)"/>
       </defs>
       <use xlink:href="#DejaVuSans-32"/>
      </g>
     </g>
    </g>
    <g id="xtick_4">
     <g id="line2d_7">
      <path d="M 335.781818 256.32 
L 335.781818 34.56 
" clip-path="url(#pc4d057974b)" style="fill: none; stroke: #b0b0b0; stroke-width: 0.8; stroke-linecap: square"/>
     </g>
     <g id="line2d_8">
      <g>
       <use xlink:href="#m5042c1c0df" x="335.781818" y="256.32" style="stroke: #000000; stroke-width: 0.8"/>
      </g>
     </g>
     <g id="text_4">
      <!-- 3 -->
      <g transform="translate(332.600568 270.918437) scale(0.1 -0.1)">
       <defs>
        <path id="DejaVuSans-33" d="M 2597 2516 
Q 3050 2419 3304 2112 
Q 3559 1806 3559 1356 
Q 3559 666 3084 287 
Q 2609 -91 1734 -91 
Q 1441 -91 1130 -33 
Q 819 25 488 141 
L 488 750 
Q 750 597 1062 519 
Q 1375 441 1716 441 
Q 2309 441 2620 675 
Q 2931 909 2931 1356 
Q 2931 1769 2642 2001 
Q 2353 2234 1838 2234 
L 1294 2234 
L 1294 2753 
L 1863 2753 
Q 2328 2753 2575 2939 
Q 2822 3125 2822 3475 
Q 2822 3834 2567 4026 
Q 2313 4219 1838 4219 
Q 1578 4219 1281 4162 
Q 984 4106 628 3988 
L 628 4550 
Q 988 4650 1302 4700 
Q 1616 4750 1894 4750 
Q 2613 4750 3031 4423 
Q 3450 4097 3450 3541 
Q 3450 3153 3228 2886 
Q 3006 2619 2597 2516 
z
" transform="scale(0.015625)"/>
       </defs>
       <use xlink:href="#DejaVuSans-33"/>
      </g>
     </g>
    </g>
    <g id="xtick_5">
     <g id="line2d_9">
      <path d="M 416.945455 256.32 
L 416.945455 34.56 
" clip-path="url(#pc4d057974b)" style="fill: none; stroke: #b0b0b0; stroke-width: 0.8; stroke-linecap: square"/>
     </g>
     <g id="line2d_10">
      <g>
       <use xlink:href="#m5042c1c0df" x="416.945455" y="256.32" style="stroke: #000000; stroke-width: 0.8"/>
      </g>
     </g>
     <g id="text_5">
      <!-- 4 -->
      <g transform="translate(413.764205 270.918437) scale(0.1 -0.1)">
       <defs>
        <path id="DejaVuSans-34" d="M 2419 4116 
L 825 1625 
L 2419 1625 
L 2419 4116 
z
M 2253 4666 
L 3047 4666 
L 3047 1625 
L 3713 1625 
L 3713 1100 
L 3047 1100 
L 3047 0 
L 2419 0 
L 2419 1100 
L 313 1100 
L 313 1709 
L 2253 4666 
z
" transform="scale(0.015625)"/>
       </defs>
       <use xlink:href="#DejaVuSans-34"/>
      </g>
     </g>
    </g>
    <g id="xtick_6">
     <g id="line2d_11">
      <path d="M 498.109091 256.32 
L 498.109091 34.56 
" clip-path="url(#pc4d057974b)" style="fill: none; stroke: #b0b0b0; stroke-width: 0.8; stroke-linecap: square"/>
     </g>
     <g id="line2d_12">
      <g>
       <use xlink:href="#m5042c1c0df" x="498.109091" y="256.32" style="stroke: #000000; stroke-width: 0.8"/>
      </g>
     </g>
     <g id="text_6">
      <!-- 5 -->
      <g transform="translate(494.927841 270.918437) scale(0.1 -0.1)">
       <defs>
        <path id="DejaVuSans-35" d="M 691 4666 
L 3169 4666 
L 3169 4134 
L 1269 4134 
L 1269 2991 
Q 1406 3038 1543 3061 
Q 1681 3084 1819 3084 
Q 2600 3084 3056 2656 
Q 3513 2228 3513 1497 
Q 3513 744 3044 326 
Q 2575 -91 1722 -91 
Q 1428 -91 1123 -41 
Q 819 9 494 109 
L 494 744 
Q 775 591 1075 516 
Q 1375 441 1709 441 
Q 2250 441 2565 725 
Q 2881 1009 2881 1497 
Q 2881 1984 2565 2268 
Q 2250 2553 1709 2553 
Q 1456 2553 1204 2497 
Q 953 2441 691 2322 
L 691 4666 
z
" transform="scale(0.015625)"/>
       </defs>
       <use xlink:href="#DejaVuSans-35"/>
      </g>
     </g>
    </g>
    <g id="xtick_7">
     <g id="line2d_13">
      <path d="M 76.058182 256.32 
L 76.058182 34.56 
" clip-path="url(#pc4d057974b)" style="fill: none; stroke: #808080; stroke-opacity: 0.1; stroke-width: 0.8; stroke-linecap: square"/>
     </g>
     <g id="line2d_14"/>
    </g>
    <g id="xtick_8">
     <g id="line2d_15">
      <path d="M 108.523636 256.32 
L 108.523636 34.56 
" clip-path="url(#pc4d057974b)" style="fill: none; stroke: #808080; stroke-opacity: 0.1; stroke-width: 0.8; stroke-linecap: square"/>
     </g>
     <g id="line2d_16"/>
    </g>
    <g id="xtick_9">
     <g id="line2d_17">
      <path d="M 124.756364 256.32 
L 124.756364 34.56 
" clip-path="url(#pc4d057974b)" style="fill: none; stroke: #808080; stroke-opacity: 0.1; stroke-width: 0.8; stroke-linecap: square"/>
     </g>
     <g id="line2d_18"/>
    </g>
    <g id="xtick_10">
     <g id="line2d_19">
      <path d="M 140.989091 256.32 
L 140.989091 34.56 
" clip-path="url(#pc4d057974b)" style="fill: none; stroke: #808080; stroke-opacity: 0.1; stroke-width: 0.8; stroke-linecap: square"/>
     </g>
     <g id="line2d_20"/>
    </g>
    <g id="xtick_11">
     <g id="line2d_21">
      <path d="M 157.221818 256.32 
L 157.221818 34.56 
" clip-path="url(#pc4d057974b)" style="fill: none; stroke: #808080; stroke-opacity: 0.1; stroke-width: 0.8; stroke-linecap: square"/>
     </g>
     <g id="line2d_22"/>
    </g>
    <g id="xtick_12">
     <g id="line2d_23">
      <path d="M 189.687273 256.32 
L 189.687273 34.56 
" clip-path="url(#pc4d057974b)" style="fill: none; stroke: #808080; stroke-opacity: 0.1; stroke-width: 0.8; stroke-linecap: square"/>
     </g>
     <g id="line2d_24"/>
    </g>
    <g id="xtick_13">
     <g id="line2d_25">
      <path d="M 205.92 256.32 
L 205.92 34.56 
" clip-path="url(#pc4d057974b)" style="fill: none; stroke: #808080; stroke-opacity: 0.1; stroke-width: 0.8; stroke-linecap: square"/>
     </g>
     <g id="line2d_26"/>
    </g>
    <g id="xtick_14">
     <g id="line2d_27">
      <path d="M 222.152727 256.32 
L 222.152727 34.56 
" clip-path="url(#pc4d057974b)" style="fill: none; stroke: #808080; stroke-opacity: 0.1; stroke-width: 0.8; stroke-linecap: square"/>
     </g>
     <g id="line2d_28"/>
    </g>
    <g id="xtick_15">
     <g id="line2d_29">
      <path d="M 238.385455 256.32 
L 238.385455 34.56 
" clip-path="url(#pc4d057974b)" style="fill: none; stroke: #808080; stroke-opacity: 0.1; stroke-width: 0.8; stroke-linecap: square"/>
     </g>
     <g id="line2d_30"/>
    </g>
    <g id="xtick_16">
     <g id="line2d_31">
      <path d="M 270.850909 256.32 
L 270.850909 34.56 
" clip-path="url(#pc4d057974b)" style="fill: none; stroke: #808080; stroke-opacity: 0.1; stroke-width: 0.8; stroke-linecap: square"/>
     </g>
     <g id="line2d_32"/>
    </g>
    <g id="xtick_17">
     <g id="line2d_33">
      <path d="M 287.083636 256.32 
L 287.083636 34.56 
" clip-path="url(#pc4d057974b)" style="fill: none; stroke: #808080; stroke-opacity: 0.1; stroke-width: 0.8; stroke-linecap: square"/>
     </g>
     <g id="line2d_34"/>
    </g>
    <g id="xtick_18">
     <g id="line2d_35">
      <path d="M 303.316364 256.32 
L 303.316364 34.56 
" clip-path="url(#pc4d057974b)" style="fill: none; stroke: #808080; stroke-opacity: 0.1; stroke-width: 0.8; stroke-linecap: square"/>
     </g>
     <g id="line2d_36"/>
    </g>
    <g id="xtick_19">
     <g id="line2d_37">
      <path d="M 319.549091 256.32 
L 319.549091 34.56 
" clip-path="url(#pc4d057974b)" style="fill: none; stroke: #808080; stroke-opacity: 0.1; stroke-width: 0.8; stroke-linecap: square"/>
     </g>
     <g id="line2d_38"/>
    </g>
    <g id="xtick_20">
     <g id="line2d_39">
      <path d="M 352.014545 256.32 
L 352.014545 34.56 
" clip-path="url(#pc4d057974b)" style="fill: none; stroke: #808080; stroke-opacity: 0.1; stroke-width: 0.8; stroke-linecap: square"/>
     </g>
     <g id="line2d_40"/>
    </g>
    <g id="xtick_21">
     <g id="line2d_41">
      <path d="M 368.247273 256.32 
L 368.247273 34.56 
" clip-path="url(#pc4d057974b)" style="fill: none; stroke: #808080; stroke-opacity: 0.1; stroke-width: 0.8; stroke-linecap: square"/>
     </g>
     <g id="line2d_42"/>
    </g>
    <g id="xtick_22">
     <g id="line2d_43">
      <path d="M 384.48 256.32 
L 384.48 34.56 
" clip-path="url(#pc4d057974b)" style="fill: none; stroke: #808080; stroke-opacity: 0.1; stroke-width: 0.8; stroke-linecap: square"/>
     </g>
     <g id="line2d_44"/>
    </g>
    <g id="xtick_23">
     <g id="line2d_45">
      <path d="M 400.712727 256.32 
L 400.712727 34.56 
" clip-path="url(#pc4d057974b)" style="fill: none; stroke: #808080; stroke-opacity: 0.1; stroke-width: 0.8; stroke-linecap: square"/>
     </g>
     <g id="line2d_46"/>
    </g>
    <g id="xtick_24">
     <g id="line2d_47">
      <path d="M 433.178182 256.32 
L 433.178182 34.56 
" clip-path="url(#pc4d057974b)" style="fill: none; stroke: #808080; stroke-opacity: 0.1; stroke-width: 0.8; stroke-linecap: square"/>
     </g>
     <g id="line2d_48"/>
    </g>
    <g id="xtick_25">
     <g id="line2d_49">
      <path d="M 449.410909 256.32 
L 449.410909 34.56 
" clip-path="url(#pc4d057974b)" style="fill: none; stroke: #808080; stroke-opacity: 0.1; stroke-width: 0.8; stroke-linecap: square"/>
     </g>
     <g id="line2d_50"/>
    </g>
    <g id="xtick_26">
     <g id="line2d_51">
      <path d="M 465.643636 256.32 
L 465.643636 34.56 
" clip-path="url(#pc4d057974b)" style="fill: none; stroke: #808080; stroke-opacity: 0.1; stroke-width: 0.8; stroke-linecap: square"/>
     </g>
     <g id="line2d_52"/>
    </g>
    <g id="xtick_27">
     <g id="line2d_53">
      <path d="M 481.876364 256.32 
L 481.876364 34.56 
" clip-path="url(#pc4d057974b)" style="fill: none; stroke: #808080; stroke-opacity: 0.1; stroke-width: 0.8; stroke-linecap: square"/>
     </g>
     <g id="line2d_54"/>
    </g>
    <g id="xtick_28">
     <g id="line2d_55">
      <path d="M 514.341818 256.32 
L 514.341818 34.56 
" clip-path="url(#pc4d057974b)" style="fill: none; stroke: #808080; stroke-opacity: 0.1; stroke-width: 0.8; stroke-linecap: square"/>
     </g>
     <g id="line2d_56"/>
    </g>
    <g id="text_7">
     <!-- Eingang LK $s_{LK} \,\, [\mathrm{mm}]$ -->
     <g transform="translate(243.4 284.598125) scale(0.1 -0.1)">
      <defs>
       <path id="DejaVuSans-45" d="M 628 4666 
L 3578 4666 
L 3578 4134 
L 1259 4134 
L 1259 2753 
L 3481 2753 
L 3481 2222 
L 1259 2222 
L 1259 531 
L 3634 531 
L 3634 0 
L 628 0 
L 628 4666 
z
" transform="scale(0.015625)"/>
       <path id="DejaVuSans-69" d="M 603 3500 
L 1178 3500 
L 1178 0 
L 603 0 
L 603 3500 
z
M 603 4863 
L 1178 4863 
L 1178 4134 
L 603 4134 
L 603 4863 
z
" transform="scale(0.015625)"/>
       <path id="DejaVuSans-6e" d="M 3513 2113 
L 3513 0 
L 2938 0 
L 2938 2094 
Q 2938 2591 2744 2837 
Q 2550 3084 2163 3084 
Q 1697 3084 1428 2787 
Q 1159 2491 1159 1978 
L 1159 0 
L 581 0 
L 581 3500 
L 1159 3500 
L 1159 2956 
Q 1366 3272 1645 3428 
Q 1925 3584 2291 3584 
Q 2894 3584 3203 3211 
Q 3513 2838 3513 2113 
z
" transform="scale(0.015625)"/>
       <path id="DejaVuSans-67" d="M 2906 1791 
Q 2906 2416 2648 2759 
Q 2391 3103 1925 3103 
Q 1463 3103 1205 2759 
Q 947 2416 947 1791 
Q 947 1169 1205 825 
Q 1463 481 1925 481 
Q 2391 481 2648 825 
Q 2906 1169 2906 1791 
z
M 3481 434 
Q 3481 -459 3084 -895 
Q 2688 -1331 1869 -1331 
Q 1566 -1331 1297 -1286 
Q 1028 -1241 775 -1147 
L 775 -588 
Q 1028 -725 1275 -790 
Q 1522 -856 1778 -856 
Q 2344 -856 2625 -561 
Q 2906 -266 2906 331 
L 2906 616 
Q 2728 306 2450 153 
Q 2172 0 1784 0 
Q 1141 0 747 490 
Q 353 981 353 1791 
Q 353 2603 747 3093 
Q 1141 3584 1784 3584 
Q 2172 3584 2450 3431 
Q 2728 3278 2906 2969 
L 2906 3500 
L 3481 3500 
L 3481 434 
z
" transform="scale(0.015625)"/>
       <path id="DejaVuSans-61" d="M 2194 1759 
Q 1497 1759 1228 1600 
Q 959 1441 959 1056 
Q 959 750 1161 570 
Q 1363 391 1709 391 
Q 2188 391 2477 730 
Q 2766 1069 2766 1631 
L 2766 1759 
L 2194 1759 
z
M 3341 1997 
L 3341 0 
L 2766 0 
L 2766 531 
Q 2569 213 2275 61 
Q 1981 -91 1556 -91 
Q 1019 -91 701 211 
Q 384 513 384 1019 
Q 384 1609 779 1909 
Q 1175 2209 1959 2209 
L 2766 2209 
L 2766 2266 
Q 2766 2663 2505 2880 
Q 2244 3097 1772 3097 
Q 1472 3097 1187 3025 
Q 903 2953 641 2809 
L 641 3341 
Q 956 3463 1253 3523 
Q 1550 3584 1831 3584 
Q 2591 3584 2966 3190 
Q 3341 2797 3341 1997 
z
" transform="scale(0.015625)"/>
       <path id="DejaVuSans-20" transform="scale(0.015625)"/>
       <path id="DejaVuSans-4c" d="M 628 4666 
L 1259 4666 
L 1259 531 
L 3531 531 
L 3531 0 
L 628 0 
L 628 4666 
z
" transform="scale(0.015625)"/>
       <path id="DejaVuSans-4b" d="M 628 4666 
L 1259 4666 
L 1259 2694 
L 3353 4666 
L 4166 4666 
L 1850 2491 
L 4331 0 
L 3500 0 
L 1259 2247 
L 1259 0 
L 628 0 
L 628 4666 
z
" transform="scale(0.015625)"/>
       <path id="DejaVuSans-Oblique-73" d="M 3200 3397 
L 3091 2853 
Q 2863 2978 2609 3040 
Q 2356 3103 2088 3103 
Q 1634 3103 1373 2948 
Q 1113 2794 1113 2528 
Q 1113 2219 1719 2053 
Q 1766 2041 1788 2034 
L 1972 1978 
Q 2547 1819 2739 1644 
Q 2931 1469 2931 1166 
Q 2931 609 2489 259 
Q 2047 -91 1331 -91 
Q 1053 -91 747 -37 
Q 441 16 72 128 
L 184 722 
Q 500 559 806 475 
Q 1113 391 1394 391 
Q 1816 391 2080 572 
Q 2344 753 2344 1031 
Q 2344 1331 1650 1516 
L 1591 1531 
L 1394 1581 
Q 956 1697 753 1886 
Q 550 2075 550 2369 
Q 550 2928 970 3256 
Q 1391 3584 2113 3584 
Q 2397 3584 2667 3537 
Q 2938 3491 3200 3397 
z
" transform="scale(0.015625)"/>
       <path id="DejaVuSans-Oblique-4c" d="M 1075 4666 
L 1709 4666 
L 909 525 
L 3181 525 
L 3078 0 
L 172 0 
L 1075 4666 
z
" transform="scale(0.015625)"/>
       <path id="DejaVuSans-Oblique-4b" d="M 1081 4666 
L 1716 4666 
L 1331 2700 
L 3781 4666 
L 4622 4666 
L 1850 2438 
L 3878 0 
L 3109 0 
L 1247 2272 
L 806 0 
L 172 0 
L 1081 4666 
z
" transform="scale(0.015625)"/>
       <path id="DejaVuSans-5b" d="M 550 4863 
L 1875 4863 
L 1875 4416 
L 1125 4416 
L 1125 -397 
L 1875 -397 
L 1875 -844 
L 550 -844 
L 550 4863 
z
" transform="scale(0.015625)"/>
       <path id="DejaVuSans-6d" d="M 3328 2828 
Q 3544 3216 3844 3400 
Q 4144 3584 4550 3584 
Q 5097 3584 5394 3201 
Q 5691 2819 5691 2113 
L 5691 0 
L 5113 0 
L 5113 2094 
Q 5113 2597 4934 2840 
Q 4756 3084 4391 3084 
Q 3944 3084 3684 2787 
Q 3425 2491 3425 1978 
L 3425 0 
L 2847 0 
L 2847 2094 
Q 2847 2600 2669 2842 
Q 2491 3084 2119 3084 
Q 1678 3084 1418 2786 
Q 1159 2488 1159 1978 
L 1159 0 
L 581 0 
L 581 3500 
L 1159 3500 
L 1159 2956 
Q 1356 3278 1631 3431 
Q 1906 3584 2284 3584 
Q 2666 3584 2933 3390 
Q 3200 3197 3328 2828 
z
" transform="scale(0.015625)"/>
       <path id="DejaVuSans-5d" d="M 1947 4863 
L 1947 -844 
L 622 -844 
L 622 -397 
L 1369 -397 
L 1369 4416 
L 622 4416 
L 622 4863 
L 1947 4863 
z
" transform="scale(0.015625)"/>
      </defs>
      <use xlink:href="#DejaVuSans-45" transform="translate(0 0.015625)"/>
      <use xlink:href="#DejaVuSans-69" transform="translate(63.183594 0.015625)"/>
      <use xlink:href="#DejaVuSans-6e" transform="translate(90.966797 0.015625)"/>
      <use xlink:href="#DejaVuSans-67" transform="translate(154.345703 0.015625)"/>
      <use xlink:href="#DejaVuSans-61" transform="translate(217.822266 0.015625)"/>
      <use xlink:href="#DejaVuSans-6e" transform="translate(279.101562 0.015625)"/>
      <use xlink:href="#DejaVuSans-67" transform="translate(342.480469 0.015625)"/>
      <use xlink:href="#DejaVuSans-20" transform="translate(405.957031 0.015625)"/>
      <use xlink:href="#DejaVuSans-4c" transform="translate(437.744141 0.015625)"/>
      <use xlink:href="#DejaVuSans-4b" transform="translate(493.457031 0.015625)"/>
      <use xlink:href="#DejaVuSans-20" transform="translate(559.033203 0.015625)"/>
      <use xlink:href="#DejaVuSans-Oblique-73" transform="translate(590.820312 0.015625)"/>
      <use xlink:href="#DejaVuSans-Oblique-4c" transform="translate(642.919922 -16.390625) scale(0.7)"/>
      <use xlink:href="#DejaVuSans-Oblique-4b" transform="translate(681.918945 -16.390625) scale(0.7)"/>
      <use xlink:href="#DejaVuSans-5b" transform="translate(763.027993 0.015625)"/>
      <use xlink:href="#DejaVuSans-6d" transform="translate(802.041665 0.015625)"/>
      <use xlink:href="#DejaVuSans-6d" transform="translate(899.453774 0.015625)"/>
      <use xlink:href="#DejaVuSans-5d" transform="translate(996.865884 0.015625)"/>
     </g>
    </g>
   </g>
   <g id="matplotlib.axis_2">
    <g id="ytick_1">
     <g id="line2d_57">
      <path d="M 72 246.24 
L 518.4 246.24 
" clip-path="url(#pc4d057974b)" style="fill: none; stroke: #b0b0b0; stroke-width: 0.8; stroke-linecap: square"/>
     </g>
     <g id="line2d_58">
      <defs>
       <path id="maacca2086d" d="M 0 0 
L -3.5 0 
" style="stroke: #000000; stroke-width: 0.8"/>
      </defs>
      <g>
       <use xlink:href="#maacca2086d" x="72" y="246.24" style="stroke: #000000; stroke-width: 0.8"/>
      </g>
     </g>
     <g id="text_8">
      <!-- 0 -->
      <g transform="translate(58.6375 250.039219) scale(0.1 -0.1)">
       <use xlink:href="#DejaVuSans-30"/>
      </g>
     </g>
    </g>
    <g id="ytick_2">
     <g id="line2d_59">
      <path d="M 72 205.92 
L 518.4 205.92 
" clip-path="url(#pc4d057974b)" style="fill: none; stroke: #b0b0b0; stroke-width: 0.8; stroke-linecap: square"/>
     </g>
     <g id="line2d_60">
      <g>
       <use xlink:href="#maacca2086d" x="72" y="205.92" style="stroke: #000000; stroke-width: 0.8"/>
      </g>
     </g>
     <g id="text_9">
      <!-- 1 -->
      <g transform="translate(58.6375 209.719219) scale(0.1 -0.1)">
       <use xlink:href="#DejaVuSans-31"/>
      </g>
     </g>
    </g>
    <g id="ytick_3">
     <g id="line2d_61">
      <path d="M 72 165.6 
L 518.4 165.6 
" clip-path="url(#pc4d057974b)" style="fill: none; stroke: #b0b0b0; stroke-width: 0.8; stroke-linecap: square"/>
     </g>
     <g id="line2d_62">
      <g>
       <use xlink:href="#maacca2086d" x="72" y="165.6" style="stroke: #000000; stroke-width: 0.8"/>
      </g>
     </g>
     <g id="text_10">
      <!-- 2 -->
      <g transform="translate(58.6375 169.399219) scale(0.1 -0.1)">
       <use xlink:href="#DejaVuSans-32"/>
      </g>
     </g>
    </g>
    <g id="ytick_4">
     <g id="line2d_63">
      <path d="M 72 125.28 
L 518.4 125.28 
" clip-path="url(#pc4d057974b)" style="fill: none; stroke: #b0b0b0; stroke-width: 0.8; stroke-linecap: square"/>
     </g>
     <g id="line2d_64">
      <g>
       <use xlink:href="#maacca2086d" x="72" y="125.28" style="stroke: #000000; stroke-width: 0.8"/>
      </g>
     </g>
     <g id="text_11">
      <!-- 3 -->
      <g transform="translate(58.6375 129.079219) scale(0.1 -0.1)">
       <use xlink:href="#DejaVuSans-33"/>
      </g>
     </g>
    </g>
    <g id="ytick_5">
     <g id="line2d_65">
      <path d="M 72 84.96 
L 518.4 84.96 
" clip-path="url(#pc4d057974b)" style="fill: none; stroke: #b0b0b0; stroke-width: 0.8; stroke-linecap: square"/>
     </g>
     <g id="line2d_66">
      <g>
       <use xlink:href="#maacca2086d" x="72" y="84.96" style="stroke: #000000; stroke-width: 0.8"/>
      </g>
     </g>
     <g id="text_12">
      <!-- 4 -->
      <g transform="translate(58.6375 88.759219) scale(0.1 -0.1)">
       <use xlink:href="#DejaVuSans-34"/>
      </g>
     </g>
    </g>
    <g id="ytick_6">
     <g id="line2d_67">
      <path d="M 72 44.64 
L 518.4 44.64 
" clip-path="url(#pc4d057974b)" style="fill: none; stroke: #b0b0b0; stroke-width: 0.8; stroke-linecap: square"/>
     </g>
     <g id="line2d_68">
      <g>
       <use xlink:href="#maacca2086d" x="72" y="44.64" style="stroke: #000000; stroke-width: 0.8"/>
      </g>
     </g>
     <g id="text_13">
      <!-- 5 -->
      <g transform="translate(58.6375 48.439219) scale(0.1 -0.1)">
       <use xlink:href="#DejaVuSans-35"/>
      </g>
     </g>
    </g>
    <g id="ytick_7">
     <g id="line2d_69">
      <path d="M 72 254.304 
L 518.4 254.304 
" clip-path="url(#pc4d057974b)" style="fill: none; stroke: #808080; stroke-opacity: 0.1; stroke-width: 0.8; stroke-linecap: square"/>
     </g>
     <g id="line2d_70"/>
    </g>
    <g id="ytick_8">
     <g id="line2d_71">
      <path d="M 72 238.176 
L 518.4 238.176 
" clip-path="url(#pc4d057974b)" style="fill: none; stroke: #808080; stroke-opacity: 0.1; stroke-width: 0.8; stroke-linecap: square"/>
     </g>
     <g id="line2d_72"/>
    </g>
    <g id="ytick_9">
     <g id="line2d_73">
      <path d="M 72 230.112 
L 518.4 230.112 
" clip-path="url(#pc4d057974b)" style="fill: none; stroke: #808080; stroke-opacity: 0.1; stroke-width: 0.8; stroke-linecap: square"/>
     </g>
     <g id="line2d_74"/>
    </g>
    <g id="ytick_10">
     <g id="line2d_75">
      <path d="M 72 222.048 
L 518.4 222.048 
" clip-path="url(#pc4d057974b)" style="fill: none; stroke: #808080; stroke-opacity: 0.1; stroke-width: 0.8; stroke-linecap: square"/>
     </g>
     <g id="line2d_76"/>
    </g>
    <g id="ytick_11">
     <g id="line2d_77">
      <path d="M 72 213.984 
L 518.4 213.984 
" clip-path="url(#pc4d057974b)" style="fill: none; stroke: #808080; stroke-opacity: 0.1; stroke-width: 0.8; stroke-linecap: square"/>
     </g>
     <g id="line2d_78"/>
    </g>
    <g id="ytick_12">
     <g id="line2d_79">
      <path d="M 72 197.856 
L 518.4 197.856 
" clip-path="url(#pc4d057974b)" style="fill: none; stroke: #808080; stroke-opacity: 0.1; stroke-width: 0.8; stroke-linecap: square"/>
     </g>
     <g id="line2d_80"/>
    </g>
    <g id="ytick_13">
     <g id="line2d_81">
      <path d="M 72 189.792 
L 518.4 189.792 
" clip-path="url(#pc4d057974b)" style="fill: none; stroke: #808080; stroke-opacity: 0.1; stroke-width: 0.8; stroke-linecap: square"/>
     </g>
     <g id="line2d_82"/>
    </g>
    <g id="ytick_14">
     <g id="line2d_83">
      <path d="M 72 181.728 
L 518.4 181.728 
" clip-path="url(#pc4d057974b)" style="fill: none; stroke: #808080; stroke-opacity: 0.1; stroke-width: 0.8; stroke-linecap: square"/>
     </g>
     <g id="line2d_84"/>
    </g>
    <g id="ytick_15">
     <g id="line2d_85">
      <path d="M 72 173.664 
L 518.4 173.664 
" clip-path="url(#pc4d057974b)" style="fill: none; stroke: #808080; stroke-opacity: 0.1; stroke-width: 0.8; stroke-linecap: square"/>
     </g>
     <g id="line2d_86"/>
    </g>
    <g id="ytick_16">
     <g id="line2d_87">
      <path d="M 72 157.536 
L 518.4 157.536 
" clip-path="url(#pc4d057974b)" style="fill: none; stroke: #808080; stroke-opacity: 0.1; stroke-width: 0.8; stroke-linecap: square"/>
     </g>
     <g id="line2d_88"/>
    </g>
    <g id="ytick_17">
     <g id="line2d_89">
      <path d="M 72 149.472 
L 518.4 149.472 
" clip-path="url(#pc4d057974b)" style="fill: none; stroke: #808080; stroke-opacity: 0.1; stroke-width: 0.8; stroke-linecap: square"/>
     </g>
     <g id="line2d_90"/>
    </g>
    <g id="ytick_18">
     <g id="line2d_91">
      <path d="M 72 141.408 
L 518.4 141.408 
" clip-path="url(#pc4d057974b)" style="fill: none; stroke: #808080; stroke-opacity: 0.1; stroke-width: 0.8; stroke-linecap: square"/>
     </g>
     <g id="line2d_92"/>
    </g>
    <g id="ytick_19">
     <g id="line2d_93">
      <path d="M 72 133.344 
L 518.4 133.344 
" clip-path="url(#pc4d057974b)" style="fill: none; stroke: #808080; stroke-opacity: 0.1; stroke-width: 0.8; stroke-linecap: square"/>
     </g>
     <g id="line2d_94"/>
    </g>
    <g id="ytick_20">
     <g id="line2d_95">
      <path d="M 72 117.216 
L 518.4 117.216 
" clip-path="url(#pc4d057974b)" style="fill: none; stroke: #808080; stroke-opacity: 0.1; stroke-width: 0.8; stroke-linecap: square"/>
     </g>
     <g id="line2d_96"/>
    </g>
    <g id="ytick_21">
     <g id="line2d_97">
      <path d="M 72 109.152 
L 518.4 109.152 
" clip-path="url(#pc4d057974b)" style="fill: none; stroke: #808080; stroke-opacity: 0.1; stroke-width: 0.8; stroke-linecap: square"/>
     </g>
     <g id="line2d_98"/>
    </g>
    <g id="ytick_22">
     <g id="line2d_99">
      <path d="M 72 101.088 
L 518.4 101.088 
" clip-path="url(#pc4d057974b)" style="fill: none; stroke: #808080; stroke-opacity: 0.1; stroke-width: 0.8; stroke-linecap: square"/>
     </g>
     <g id="line2d_100"/>
    </g>
    <g id="ytick_23">
     <g id="line2d_101">
      <path d="M 72 93.024 
L 518.4 93.024 
" clip-path="url(#pc4d057974b)" style="fill: none; stroke: #808080; stroke-opacity: 0.1; stroke-width: 0.8; stroke-linecap: square"/>
     </g>
     <g id="line2d_102"/>
    </g>
    <g id="ytick_24">
     <g id="line2d_103">
      <path d="M 72 76.896 
L 518.4 76.896 
" clip-path="url(#pc4d057974b)" style="fill: none; stroke: #808080; stroke-opacity: 0.1; stroke-width: 0.8; stroke-linecap: square"/>
     </g>
     <g id="line2d_104"/>
    </g>
    <g id="ytick_25">
     <g id="line2d_105">
      <path d="M 72 68.832 
L 518.4 68.832 
" clip-path="url(#pc4d057974b)" style="fill: none; stroke: #808080; stroke-opacity: 0.1; stroke-width: 0.8; stroke-linecap: square"/>
     </g>
     <g id="line2d_106"/>
    </g>
    <g id="ytick_26">
     <g id="line2d_107">
      <path d="M 72 60.768 
L 518.4 60.768 
" clip-path="url(#pc4d057974b)" style="fill: none; stroke: #808080; stroke-opacity: 0.1; stroke-width: 0.8; stroke-linecap: square"/>
     </g>
     <g id="line2d_108"/>
    </g>
    <g id="ytick_27">
     <g id="line2d_109">
      <path d="M 72 52.704 
L 518.4 52.704 
" clip-path="url(#pc4d057974b)" style="fill: none; stroke: #808080; stroke-opacity: 0.1; stroke-width: 0.8; stroke-linecap: square"/>
     </g>
     <g id="line2d_110"/>
    </g>
    <g id="ytick_28">
     <g id="line2d_111">
      <path d="M 72 36.576 
L 518.4 36.576 
" clip-path="url(#pc4d057974b)" style="fill: none; stroke: #808080; stroke-opacity: 0.1; stroke-width: 0.8; stroke-linecap: square"/>
     </g>
     <g id="line2d_112"/>
    </g>
    <g id="text_14">
     <!-- Ausgang LK $s \,\, [\mathrm{m^3/h}]$ -->
     <g transform="translate(52.5375 196.74) rotate(-90) scale(0.1 -0.1)">
      <defs>
       <path id="DejaVuSans-41" d="M 2188 4044 
L 1331 1722 
L 3047 1722 
L 2188 4044 
z
M 1831 4666 
L 2547 4666 
L 4325 0 
L 3669 0 
L 3244 1197 
L 1141 1197 
L 716 0 
L 50 0 
L 1831 4666 
z
" transform="scale(0.015625)"/>
       <path id="DejaVuSans-75" d="M 544 1381 
L 544 3500 
L 1119 3500 
L 1119 1403 
Q 1119 906 1312 657 
Q 1506 409 1894 409 
Q 2359 409 2629 706 
Q 2900 1003 2900 1516 
L 2900 3500 
L 3475 3500 
L 3475 0 
L 2900 0 
L 2900 538 
Q 2691 219 2414 64 
Q 2138 -91 1772 -91 
Q 1169 -91 856 284 
Q 544 659 544 1381 
z
M 1991 3584 
L 1991 3584 
z
" transform="scale(0.015625)"/>
       <path id="DejaVuSans-73" d="M 2834 3397 
L 2834 2853 
Q 2591 2978 2328 3040 
Q 2066 3103 1784 3103 
Q 1356 3103 1142 2972 
Q 928 2841 928 2578 
Q 928 2378 1081 2264 
Q 1234 2150 1697 2047 
L 1894 2003 
Q 2506 1872 2764 1633 
Q 3022 1394 3022 966 
Q 3022 478 2636 193 
Q 2250 -91 1575 -91 
Q 1294 -91 989 -36 
Q 684 19 347 128 
L 347 722 
Q 666 556 975 473 
Q 1284 391 1588 391 
Q 1994 391 2212 530 
Q 2431 669 2431 922 
Q 2431 1156 2273 1281 
Q 2116 1406 1581 1522 
L 1381 1569 
Q 847 1681 609 1914 
Q 372 2147 372 2553 
Q 372 3047 722 3315 
Q 1072 3584 1716 3584 
Q 2034 3584 2315 3537 
Q 2597 3491 2834 3397 
z
" transform="scale(0.015625)"/>
       <path id="DejaVuSans-2f" d="M 1625 4666 
L 2156 4666 
L 531 -594 
L 0 -594 
L 1625 4666 
z
" transform="scale(0.015625)"/>
       <path id="DejaVuSans-68" d="M 3513 2113 
L 3513 0 
L 2938 0 
L 2938 2094 
Q 2938 2591 2744 2837 
Q 2550 3084 2163 3084 
Q 1697 3084 1428 2787 
Q 1159 2491 1159 1978 
L 1159 0 
L 581 0 
L 581 4863 
L 1159 4863 
L 1159 2956 
Q 1366 3272 1645 3428 
Q 1925 3584 2291 3584 
Q 2894 3584 3203 3211 
Q 3513 2838 3513 2113 
z
" transform="scale(0.015625)"/>
      </defs>
      <use xlink:href="#DejaVuSans-41" transform="translate(0 0.765625)"/>
      <use xlink:href="#DejaVuSans-75" transform="translate(68.408203 0.765625)"/>
      <use xlink:href="#DejaVuSans-73" transform="translate(131.787109 0.765625)"/>
      <use xlink:href="#DejaVuSans-67" transform="translate(183.886719 0.765625)"/>
      <use xlink:href="#DejaVuSans-61" transform="translate(247.363281 0.765625)"/>
      <use xlink:href="#DejaVuSans-6e" transform="translate(308.642578 0.765625)"/>
      <use xlink:href="#DejaVuSans-67" transform="translate(372.021484 0.765625)"/>
      <use xlink:href="#DejaVuSans-20" transform="translate(435.498047 0.765625)"/>
      <use xlink:href="#DejaVuSans-4c" transform="translate(467.285156 0.765625)"/>
      <use xlink:href="#DejaVuSans-4b" transform="translate(522.998047 0.765625)"/>
      <use xlink:href="#DejaVuSans-20" transform="translate(588.574219 0.765625)"/>
      <use xlink:href="#DejaVuSans-Oblique-73" transform="translate(620.361328 0.765625)"/>
      <use xlink:href="#DejaVuSans-5b" transform="translate(704.93229 0.765625)"/>
      <use xlink:href="#DejaVuSans-6d" transform="translate(743.945962 0.765625)"/>
      <use xlink:href="#DejaVuSans-33" transform="translate(842.315103 39.046875) scale(0.7)"/>
      <use xlink:href="#DejaVuSans-2f" transform="translate(889.58561 0.765625)"/>
      <use xlink:href="#DejaVuSans-68" transform="translate(923.277017 0.765625)"/>
      <use xlink:href="#DejaVuSans-5d" transform="translate(986.655923 0.765625)"/>
     </g>
    </g>
   </g>
   <g id="line2d_113">
    <path d="M 92.290909 246.24 
L 95.233091 236.16 
L 103.653818 226.08 
L 116.944364 216 
L 134.496 205.92 
L 155.7 195.84 
L 179.947636 185.76 
L 206.630182 175.68 
L 235.138909 165.6 
L 264.865091 155.52 
L 295.2 145.44 
L 325.534909 135.36 
L 355.261091 125.28 
L 383.769818 115.2 
L 410.452364 105.12 
L 434.7 95.04 
L 455.904 84.96 
L 473.455636 74.88 
L 486.746182 64.8 
L 495.166909 54.72 
L 498.109091 44.64 
" clip-path="url(#pc4d057974b)" style="fill: none; stroke-dasharray: 5.55,2.4; stroke-dashoffset: 0; stroke: #008000; stroke-width: 1.5"/>
    <defs>
     <path id="m3f8b781323" d="M 0 1.5 
C 0.397805 1.5 0.77937 1.341951 1.06066 1.06066 
C 1.341951 0.77937 1.5 0.397805 1.5 0 
C 1.5 -0.397805 1.341951 -0.77937 1.06066 -1.06066 
C 0.77937 -1.341951 0.397805 -1.5 0 -1.5 
C -0.397805 -1.5 -0.77937 -1.341951 -1.06066 -1.06066 
C -1.341951 -0.77937 -1.5 -0.397805 -1.5 0 
C -1.5 0.397805 -1.341951 0.77937 -1.06066 1.06066 
C -0.77937 1.341951 -0.397805 1.5 0 1.5 
z
" style="stroke: #008000"/>
    </defs>
    <g clip-path="url(#pc4d057974b)">
     <use xlink:href="#m3f8b781323" x="92.290909" y="246.24" style="fill: #008000; stroke: #008000"/>
     <use xlink:href="#m3f8b781323" x="95.233091" y="236.16" style="fill: #008000; stroke: #008000"/>
     <use xlink:href="#m3f8b781323" x="103.653818" y="226.08" style="fill: #008000; stroke: #008000"/>
     <use xlink:href="#m3f8b781323" x="116.944364" y="216" style="fill: #008000; stroke: #008000"/>
     <use xlink:href="#m3f8b781323" x="134.496" y="205.92" style="fill: #008000; stroke: #008000"/>
     <use xlink:href="#m3f8b781323" x="155.7" y="195.84" style="fill: #008000; stroke: #008000"/>
     <use xlink:href="#m3f8b781323" x="179.947636" y="185.76" style="fill: #008000; stroke: #008000"/>
     <use xlink:href="#m3f8b781323" x="206.630182" y="175.68" style="fill: #008000; stroke: #008000"/>
     <use xlink:href="#m3f8b781323" x="235.138909" y="165.6" style="fill: #008000; stroke: #008000"/>
     <use xlink:href="#m3f8b781323" x="264.865091" y="155.52" style="fill: #008000; stroke: #008000"/>
     <use xlink:href="#m3f8b781323" x="295.2" y="145.44" style="fill: #008000; stroke: #008000"/>
     <use xlink:href="#m3f8b781323" x="325.534909" y="135.36" style="fill: #008000; stroke: #008000"/>
     <use xlink:href="#m3f8b781323" x="355.261091" y="125.28" style="fill: #008000; stroke: #008000"/>
     <use xlink:href="#m3f8b781323" x="383.769818" y="115.2" style="fill: #008000; stroke: #008000"/>
     <use xlink:href="#m3f8b781323" x="410.452364" y="105.12" style="fill: #008000; stroke: #008000"/>
     <use xlink:href="#m3f8b781323" x="434.7" y="95.04" style="fill: #008000; stroke: #008000"/>
     <use xlink:href="#m3f8b781323" x="455.904" y="84.96" style="fill: #008000; stroke: #008000"/>
     <use xlink:href="#m3f8b781323" x="473.455636" y="74.88" style="fill: #008000; stroke: #008000"/>
     <use xlink:href="#m3f8b781323" x="486.746182" y="64.8" style="fill: #008000; stroke: #008000"/>
     <use xlink:href="#m3f8b781323" x="495.166909" y="54.72" style="fill: #008000; stroke: #008000"/>
     <use xlink:href="#m3f8b781323" x="498.109091" y="44.64" style="fill: #008000; stroke: #008000"/>
    </g>
   </g>
  </g>
 </g>
 <defs>
  <clipPath id="pc4d057974b">
   <rect x="72" y="34.56" width="446.4" height="221.76"/>
  </clipPath>
 </defs>
</svg>
